<svg version="1.2" xmlns="http://www.w3.org/2000/svg" viewBox="0 0 204 187" width="204" height="187">
	<defs>
		<linearGradient id="g1" x2="1" gradientUnits="userSpaceOnUse" gradientTransform="matrix(-29.035,58.017,-44.65,-22.346,57.923,144.656)">
			<stop offset="0" stop-color="#b0e69d"/>
			<stop offset="1" stop-color="#7ad05b"/>
		</linearGradient>
		<linearGradient id="g2" x2="1" gradientUnits="userSpaceOnUse" gradientTransform="matrix(-27.367,53.766,-102.907,-52.38,55.744,102.031)">
			<stop offset="0" stop-color="#bff5ad"/>
			<stop offset="1" stop-color="#b0e69d"/>
		</linearGradient>
		<linearGradient id="g3" x2="1" gradientUnits="userSpaceOnUse" gradientTransform="matrix(-81.196,169.211,-107.517,-51.592,141.719,.312)">
			<stop offset="0" stop-color="#b0e69d"/>
			<stop offset="1" stop-color="#7ad05b"/>
		</linearGradient>
		<linearGradient id="g4" x2="1" gradientUnits="userSpaceOnUse" gradientTransform="matrix(-12.594,25.672,-48.92,-23.999,111.204,61.344)">
			<stop offset="0" stop-color="#bff5ad"/>
			<stop offset="1" stop-color="#b0e69d"/>
		</linearGradient>
		<linearGradient id="g5" x2="1" gradientUnits="userSpaceOnUse" gradientTransform="matrix(-81.196,169.211,-99.281,-47.64,141.72,.312)">
			<stop offset="0" stop-color="#b0e69d"/>
			<stop offset="1" stop-color="#7ad05b"/>
		</linearGradient>
		<linearGradient id="g6" x2="1" gradientUnits="userSpaceOnUse" gradientTransform="matrix(-16.469,32.695,-62.743,-31.605,180.467,.313)">
			<stop offset="0" stop-color="#bff5ad"/>
			<stop offset="1" stop-color="#b0e69d"/>
		</linearGradient>
		<linearGradient id="g7" x2="1" gradientUnits="userSpaceOnUse" gradientTransform="matrix(-18.514,163.774,-67.943,-7.681,157.703,26.953)">
			<stop offset="0" stop-color="#92e574"/>
			<stop offset="1" stop-color="#53af32"/>
		</linearGradient>
		<linearGradient id="g8" x2="1" gradientUnits="userSpaceOnUse" gradientTransform="matrix(-18.514,163.774,-44.43,-5.023,157.704,26.954)">
			<stop offset="0" stop-color="#92e574"/>
			<stop offset="1" stop-color="#53af32"/>
		</linearGradient>
		<linearGradient id="g9" x2="1" gradientUnits="userSpaceOnUse" gradientTransform="matrix(-18.514,163.774,-35.981,-4.068,157.704,26.953)">
			<stop offset="0" stop-color="#92e574"/>
			<stop offset="1" stop-color="#53af32"/>
		</linearGradient>
		<linearGradient id="g10" x2="1" gradientUnits="userSpaceOnUse" gradientTransform="matrix(0,84.86,-30.125,0,183.79,105.723)">
			<stop offset="0" stop-color="#5dad46"/>
			<stop offset="1" stop-color="#26471d"/>
		</linearGradient>
		<linearGradient id="g11" x2="1" gradientUnits="userSpaceOnUse" gradientTransform="matrix(0,50.391,-29.638,0,112.414,145.343)">
			<stop offset="0" stop-color="#5dad46"/>
			<stop offset="1" stop-color="#26471d"/>
		</linearGradient>
		<linearGradient id="g12" x2="1" gradientUnits="userSpaceOnUse" gradientTransform="matrix(0,36.776,-30.086,0,41.407,160.993)">
			<stop offset="0" stop-color="#5dad46"/>
			<stop offset="1" stop-color="#26471d"/>
		</linearGradient>
	</defs>
	<style>
		.s0 { fill: url(#g1) } 
		.s1 { fill: url(#g2) } 
		.s2 { fill: url(#g3) } 
		.s3 { fill: url(#g4) } 
		.s4 { fill: url(#g5) } 
		.s5 { fill: url(#g6) } 
		.s6 { fill: url(#g7) } 
		.s7 { fill: url(#g8) } 
		.s8 { fill: url(#g9) } 
		.s9 { opacity: .4;fill: url(#g10) } 
		.s10 { opacity: .4;fill: url(#g11) } 
		.s11 { opacity: .4;fill: url(#g12) } 
	</style>
	<g>
		<path class="s0" d="m59.26 144.47c0.4 4.66-30.45 8.42-36.48 7.72q0 0.89 0 1.95v0.01c0 11.91 0.01 39.09-0.8 48.84 4.26 1.39 33.73-2.79 37.28-5.24 2.84-1.95 1.18-39.56 0-53.28z"/>
		<path class="s1" d="m1.39 131.57c4.35 6.67 16.56 20.07 21.39 20.63 6.03 0.69 36.88-3.07 36.48-7.73-0.33-3.84-16.33-15.69-20.23-17.44-3.13-1.39-26.39 2.44-37.64 4.54z"/>
		<path class="s2" d="m130 83.96c0.4 4.67-29.95 8.43-35.89 7.73v2c0 16.89-0.03 99.44-0.83 109.3 4.19 1.39 33.23-2.8 36.72-5.24 2.8-1.96 1.17-100.05 0-113.79z"/>
		<path class="s3" d="m73.02 71.03c4.28 6.69 16.34 20.11 21.09 20.67 5.94 0.69 36.29-3.07 35.89-7.74-0.32-3.85-16.06-15.73-19.9-17.47-3.08-1.4-26.02 2.44-37.08 4.54z"/>
		<path class="s4" d="m201.67 18.05c0.4 4.66-30.45 8.42-36.49 7.72v1.88 0.14c0.01 21.14-0.02 165.3-0.84 175.2 4.26 1.39 33.78-2.79 37.33-5.23 2.84-1.96 1.18-165.99 0-179.71z"/>
		<path class="s5" d="m143.75 5.14c4.34 6.68 16.6 20.08 21.43 20.63 6.04 0.7 36.89-3.06 36.48-7.72-0.33-3.84-16.33-15.7-20.23-17.44-3.12-1.39-26.44 2.44-37.68 4.53z"/>
		<path class="s6" d="m22.78 152.19c-4.83-0.55-17.04-13.95-21.39-20.62-0.47 13.48-1.13 51.19 0 55.37 1.42 5.24 16.33 14.65 20.59 16.05 0.81-9.75 0.8-36.93 0.8-48.84v-0.01q0-1.06 0-1.94z"/>
		<path class="s7" d="m94.11 91.7c-4.75-0.56-16.81-13.98-21.09-20.67-0.46 13.51-1.11 111.69 0 115.88 1.4 5.25 16.07 14.68 20.26 16.08 0.8-9.86 0.83-92.41 0.83-109.3q0-1.25 0-1.99z"/>
		<path class="s8" d="m165.18 25.77c-4.83-0.56-17.09-13.95-21.43-20.63-0.47 13.49-1.13 177.62 0 181.8 1.42 5.24 16.33 14.65 20.59 16.05 0.82-9.9 0.85-154.06 0.84-175.2v-0.13q0-1.26 0-1.89z"/>
		<path class="s9" d="m164.34 202.99c4.26 1.39 33.78-2.79 37.33-5.23 1.62-1.12 1.78-55.33 1.39-104.07l-38.03 40.55c-0.12 34.26-0.33 64.41-0.69 68.75z"/>
		<path class="s10" d="m93.28 202.99c4.19 1.39 33.23-2.8 36.72-5.24 1.53-1.07 1.74-30.62 1.42-59.55l-37.61 40.09c-0.12 12.28-0.29 21.74-0.53 24.7z"/>
		<path class="s11" d="m21.98 202.99c4.26 1.39 33.73-2.79 37.28-5.23 2.24-1.55 1.68-25.29 0.77-41.98l-37.68 40.16c-0.09 2.81-0.22 5.23-0.37 7.05z"/>
	</g>
</svg>