<svg version="1.2" xmlns="http://www.w3.org/2000/svg" viewBox="0 0 401 385" width="401" height="385">
	<defs>
		<linearGradient id="g1" x2="1" gradientUnits="userSpaceOnUse" gradientTransform="matrix(0,506.821,-527.381,0,200.268,0)">
			<stop offset="0" stop-color="#b2e297" stop-opacity="1"/>
			<stop offset="1" stop-color="#294243" stop-opacity=".1"/>
		</linearGradient>
	</defs>
	<style>
		.s0 { fill: url(#g1) } 
	</style>
	<g>
		<path class="s0" d="m398.78 73.01l-33.37-64.15c-1.39-2.66-3.52-4.9-6.16-6.47-2.64-1.56-5.68-2.39-8.78-2.39h-300.4c-3.1 0-6.14 0.83-8.78 2.39-2.64 1.57-4.77 3.81-6.16 6.47l-33.38 64.15c-1.15 2.24-1.75 4.69-1.75 7.18v272.65c0 8.51 3.52 16.67 9.78 22.69 6.26 6.01 14.75 9.39 23.6 9.39h333.78c8.85 0 17.34-3.38 23.6-9.39 6.26-6.02 9.78-14.18 9.78-22.69v-272.65c-0.01-2.49-0.61-4.94-1.76-7.18zm-119.95 178.91l-66.75 64.16c-1.55 1.49-3.39 2.67-5.42 3.48-2.03 0.81-4.2 1.22-6.39 1.22-2.19 0-4.37-0.41-6.39-1.22-2.03-0.81-3.87-1.99-5.42-3.48l-66.76-64.16c-3.13-3.01-4.89-7.09-4.89-11.34 0-4.26 1.76-8.34 4.89-11.35 3.14-3.01 7.38-4.7 11.81-4.7 4.43 0 8.68 1.69 11.81 4.7l38.26 36.79v-121.67c0-4.26 1.76-8.34 4.89-11.35 3.13-3 7.37-4.69 11.8-4.69 4.42 0 8.67 1.69 11.8 4.69 3.13 3.01 4.89 7.09 4.89 11.35v121.67l38.26-36.79c3.13-3.01 7.38-4.7 11.8-4.7 4.43 0 8.68 1.69 11.81 4.7 3.13 3.01 4.89 7.09 4.89 11.35 0 4.25-1.76 8.33-4.89 11.34zm-235.15-187.77l16.69-32.07h279.79l16.69 32.07z"/>
	</g>
</svg>