<svg width="198" height="183" viewBox="0 0 198 183" fill="none" xmlns="http://www.w3.org/2000/svg">
<path d="M83.9844 33.5938H6.29883C2.8202 33.5938 0 30.7736 0 27.2949C0 23.8163 2.8202 20.9961 6.29883 20.9961H83.9844V33.5938ZM191.064 20.9961H113.379V33.5938H191.064C194.543 33.5938 197.363 30.7736 197.363 27.2949C197.363 23.8163 194.543 20.9961 191.064 20.9961ZM142.773 152.012V145.713C142.773 135.293 134.296 126.816 123.877 126.816H73.4863C63.0668 126.816 54.5898 135.293 54.5898 145.713V152.012H142.773ZM39.8926 177.207H188.965V164.609H31.4941C21.0746 164.609 12.5977 173.086 12.5977 183.506C12.5977 193.925 21.0746 202.402 31.4941 202.402H188.965V189.805H39.8926C36.4139 189.805 33.5938 186.984 33.5938 183.506C33.5938 180.027 36.4139 177.207 39.8926 177.207Z" fill="url(#paint0_linear_726_5159)"/>
<path d="M83.9848 126.816V14.6973C83.9848 6.58018 90.565 0 98.6821 0C106.799 0 113.379 6.58018 113.379 14.6973V126.816H83.9848ZM196.699 74.8687C197.137 75.7434 197.364 76.7076 197.364 77.6855V81.8848C197.364 99.2506 183.235 113.379 165.87 113.379C148.504 113.379 134.375 99.2506 134.375 81.8848V77.6855C134.375 76.7076 134.603 75.7434 135.04 74.8687L155.678 33.5938H176.061L196.699 74.8687ZM184.022 77.6855L165.87 41.3795L147.717 77.6855H184.022ZM21.3026 33.5938H41.6861L62.3235 74.8687C62.7611 75.7434 62.9883 76.7076 62.9883 77.6855V81.8848C62.9883 99.2506 48.86 113.379 31.4941 113.379C14.1283 113.379 0 99.2506 0 81.8848V77.6855C0 76.7076 0.227598 75.7434 0.664736 74.8687L21.3026 33.5938ZM49.6474 77.6855L31.4946 41.3795L13.3418 77.6855H49.6474ZM188.965 177.207H39.893C36.4144 177.207 33.5942 180.027 33.5942 183.506C33.5942 186.984 36.4144 189.805 39.893 189.805H188.965V177.207ZM197.364 208.701C197.364 205.223 194.544 202.402 191.065 202.402H31.4946C21.075 202.402 12.5981 193.925 12.5981 183.506C12.5981 173.086 21.075 164.609 31.4946 164.609H191.065C194.544 164.609 197.364 161.789 197.364 158.311C197.364 154.832 194.544 152.012 191.065 152.012H31.4946C14.1287 152.012 0.000419691 166.14 0.000419691 183.506C0.000419691 200.872 14.1287 215 31.4946 215H191.065C194.544 215 197.364 212.18 197.364 208.701Z" fill="url(#paint1_linear_726_5159)"/>
<defs>
<linearGradient id="paint0_linear_726_5159" x1="98.6816" y1="233.171" x2="98.6816" y2="20.9961" gradientUnits="userSpaceOnUse">
<stop stop-color="#B4C8C9"/>
<stop offset="1" stop-color="#889899"/>
</linearGradient>
<linearGradient id="paint1_linear_726_5159" x1="98.6819" y1="23.604" x2="98.6819" y2="190.113" gradientUnits="userSpaceOnUse">
<stop stop-color="#5DAD46"/>
<stop offset="1" stop-color="#26471D"/>
</linearGradient>
</defs>
</svg>
