<svg width="219" height="181" viewBox="0 0 219 181" fill="none" xmlns="http://www.w3.org/2000/svg">
<path d="M218.999 103.876H191.645L161.511 58.5319L116.527 27.7288V0C171.63 3.45688 215.589 48.0184 218.999 103.876Z" fill="url(#paint0_linear_757_23)"/>
<path d="M219 117.773C215.448 175.94 167.955 222 109.674 222C49.0789 222 0 172.249 0 110.824C0 51.7446 45.4374 3.60019 102.819 0V27.7288L57.8356 52.0216L27.4184 110.824L55.2253 166.846L109.674 194.206L177.791 154.659L191.646 117.773H219Z" fill="url(#paint1_linear_757_23)"/>
<path d="M191.646 103.875L184.218 99.532L177.877 103.875C178.104 106.163 178.22 108.478 178.22 110.823C178.22 113.168 178.104 115.483 177.877 117.772L184.646 122.115L191.646 117.772C191.835 115.483 191.929 113.164 191.929 110.823C191.929 108.483 191.835 106.163 191.646 103.875ZM102.819 27.728L98.5352 35.2585L102.819 41.6858C105.077 41.4556 107.36 41.3384 109.674 41.3384C111.987 41.3384 114.271 41.4556 116.528 41.6858L120.813 35.2585L116.528 27.728C114.271 27.5369 111.983 27.4414 109.674 27.4414C107.365 27.4414 105.077 27.5369 102.819 27.728Z" fill="url(#paint2_linear_757_23)"/>
<path d="M191.645 103.875H177.876C174.654 71.1001 148.86 44.9521 116.527 41.6863V27.7285C156.434 31.0812 188.338 63.4221 191.645 103.875Z" fill="url(#paint3_linear_757_23)"/>
<path d="M191.645 117.772C188.15 160.514 152.724 194.206 109.673 194.206C64.3171 194.206 27.418 156.805 27.418 110.824C27.418 67.1829 60.6585 31.2722 102.819 27.7285V41.6863C68.516 45.1497 41.1272 74.6035 41.1272 110.824C41.1272 150.812 73.5738 180.309 109.673 180.309C145.66 180.309 174.485 152.288 177.876 117.772H191.645Z" fill="url(#paint4_linear_757_23)"/>
<path d="M150.802 86.3652V134.31L109.674 158.491L68.5469 134.31V86.3652H150.802Z" fill="#C8FA64"/>
<path d="M150.802 86.1578V86.3663L109.674 110.339L68.5469 86.3663V86.1578L109.674 62.1855L150.802 86.1578Z" fill="#4DE600"/>
<defs>
<linearGradient id="paint0_linear_757_23" x1="167.763" y1="11.4041" x2="167.763" y2="91.8517" gradientUnits="userSpaceOnUse">
<stop stop-color="#5DAD46"/>
<stop offset="1" stop-color="#26471D"/>
</linearGradient>
<linearGradient id="paint1_linear_757_23" x1="109.5" y1="24.3725" x2="109.5" y2="196.303" gradientUnits="userSpaceOnUse">
<stop stop-color="#5DAD46"/>
<stop offset="1" stop-color="#26471D"/>
</linearGradient>
<linearGradient id="paint2_linear_757_23" x1="145.232" y1="138.172" x2="145.232" y2="27.4414" gradientUnits="userSpaceOnUse">
<stop stop-color="#B4C8C9"/>
<stop offset="1" stop-color="#889899"/>
</linearGradient>
<linearGradient id="paint3_linear_757_23" x1="154.086" y1="116.791" x2="154.086" y2="27.7285" gradientUnits="userSpaceOnUse">
<stop stop-color="#B4C8C9"/>
<stop offset="1" stop-color="#889899"/>
</linearGradient>
<linearGradient id="paint4_linear_757_23" x1="109.532" y1="222.442" x2="109.532" y2="27.7285" gradientUnits="userSpaceOnUse">
<stop stop-color="#B4C8C9"/>
<stop offset="1" stop-color="#889899"/>
</linearGradient>
</defs>
</svg>
