<svg width="247" height="179" viewBox="0 0 247 179" fill="none" xmlns="http://www.w3.org/2000/svg">
<path d="M245.8 58.308C237.128 101.136 217.074 144.996 193.768 178.536C170.462 212.076 144.446 235.296 132.522 244.584C127.102 248.712 119.514 248.712 114.094 244.584C102.712 235.296 76.1536 212.076 52.8476 178.536C29.5416 144.996 8.94556 101.136 0.273563 58.308C-0.810437 52.116 1.35756 45.408 6.23556 43.344C18.7016 37.152 29.5416 23.736 33.3356 9.288C34.9616 3.612 39.8396 0 45.2596 0H201.356C206.776 0 211.654 3.612 212.738 8.772C216.532 23.736 227.372 36.636 239.838 42.828C244.716 45.408 247.426 52.116 245.8 58.308Z" fill="#B4C8C9"/>
<path d="M245.8 58.308C237.128 101.136 217.074 144.996 193.768 178.536C170.462 212.076 144.446 235.296 132.522 244.584C127.102 248.712 119.514 248.712 114.094 244.584C102.712 235.296 76.1536 212.076 52.8476 178.536C29.5416 144.996 8.94556 101.136 0.273563 58.308C-0.810437 52.116 1.35756 45.408 6.23556 43.344C18.7016 37.152 29.5416 23.736 33.3356 9.288C34.9616 3.612 39.8396 0 45.2596 0H201.356C206.776 0 211.654 3.612 212.738 8.772C216.532 23.736 227.372 36.636 239.838 42.828C244.716 45.408 247.426 52.116 245.8 58.308Z" fill="#B4C8C9"/>
<path d="M124.389 0C97.8306 0 71.8146 0 45.2566 0C39.8366 0 34.9586 3.612 33.8746 8.772C30.0806 23.736 19.2406 36.636 6.77456 42.828C1.89656 45.408 -0.813442 52.116 0.812558 57.792C9.48456 101.136 29.5386 144.996 52.8446 178.536C76.1506 212.076 102.167 235.296 114.091 244.584C116.801 247.164 120.595 247.68 124.389 247.68C124.389 180.084 124.389 67.596 124.389 0Z" fill="#96ABAE"/>
<path opacity="0.15" d="M225.74 66.0438C218.694 102.164 201.35 139.316 181.838 167.18C162.326 195.56 140.646 215.168 130.89 222.908C126.554 226.52 120.05 226.52 115.172 222.908C105.416 215.168 83.736 195.56 64.224 167.18C44.712 139.316 27.368 102.164 20.322 66.0438C19.238 60.8838 21.406 55.2078 25.2 53.1438C35.498 47.9838 44.712 36.6318 47.964 24.2478C49.048 19.6038 53.384 16.5078 57.72 16.5078H188.342C192.678 16.5078 197.014 19.6038 198.098 24.2478C201.35 36.6318 210.564 47.9838 220.862 53.1438C225.198 55.2078 226.824 60.8838 225.74 66.0438Z" fill="#344A4A"/>
<path d="M212.196 7.224C157.996 6.192 102.17 6.192 47.4276 7.224C42.0076 7.224 36.5876 11.352 35.5036 17.028C31.1676 32.508 19.7856 46.956 6.77756 53.664C4.06756 55.212 1.89956 57.792 0.815564 60.888C0.815564 59.856 0.273563 59.34 0.273563 58.308C-0.810437 52.116 1.35756 45.408 6.23556 43.344C18.7016 37.152 29.5416 23.736 33.3356 9.288C34.9616 3.612 39.8396 0 45.2596 0H201.356C206.234 0 210.028 2.58 212.196 7.224Z" fill="#DCE7EB"/>
<path d="M245.259 49.024C243.091 46.96 240.923 44.896 239.297 42.832C239.839 42.832 239.839 43.348 240.381 43.348C242.007 44.38 244.175 46.444 245.259 49.024Z" fill="#DCE7EB"/>
<path d="M123.315 223.94C99.4669 203.816 38.7629 133.64 21.9609 59.8525C34.4269 51.0805 45.8089 37.1485 51.7709 21.6685C98.3829 20.6365 148.247 20.6365 194.859 22.1845C200.821 37.1485 211.661 51.0805 224.669 60.3685C207.867 133.64 147.163 203.816 123.315 223.94Z" fill="#5DAD46"/>
<path d="M194.849 22.1824C171.543 21.6664 147.695 21.1504 123.305 21.1504V223.422C147.695 203.814 207.857 133.638 224.117 59.8504C211.651 51.0784 200.811 37.1464 194.849 22.1824Z" fill="#49A046"/>
<path opacity="0.2" d="M219.251 63.4646C207.327 115.065 169.929 174.405 129.279 213.105C127.111 215.169 124.943 217.233 123.317 218.781C100.553 199.689 43.1008 133.641 27.3828 63.4646C39.3068 55.2086 49.6048 41.7926 55.5668 27.3446C99.4688 25.7966 147.165 25.7966 191.067 27.3446C197.029 41.7926 207.327 54.6926 219.251 63.4646Z" fill="#FAFDFF"/>
<path opacity="0.2" d="M123.305 26.3105V108.871C125.473 83.0705 127.641 57.2705 129.267 34.5665C150.405 31.9865 171.001 29.4065 191.055 27.3425C168.833 26.3105 146.069 26.3105 123.305 26.3105Z" fill="#FAFDFF"/>
<path opacity="0.2" d="M202.969 109.904C183.999 92.3598 156.899 81.0078 126.547 81.0078C94.0271 81.0078 64.7591 93.9078 45.7891 114.032C69.0951 164.084 106.493 203.816 123.295 218.78C124.921 217.232 127.089 215.168 129.257 213.104C157.441 185.756 185.625 147.572 202.969 109.904Z" fill="#FAFDFF"/>
<path opacity="0.2" d="M194.314 127.447C156.916 89.2629 89.7075 90.8109 55.0195 131.575C78.3255 173.887 108.678 205.363 123.854 218.779C125.48 217.231 127.648 215.167 129.816 213.103C153.122 189.883 176.97 158.923 194.314 127.447Z" fill="#FAFDFF"/>
<path opacity="0.2" d="M123.315 218.784C124.941 217.236 127.109 215.172 129.277 213.108C147.705 195.564 166.133 173.376 181.309 149.124C169.385 134.16 149.331 123.84 126.567 123.84C101.635 123.84 79.9553 135.708 68.0312 153.768C88.6273 184.728 110.849 207.432 123.315 218.784Z" fill="#FAFDFF"/>
</svg>
