<svg version="1.2" xmlns="http://www.w3.org/2000/svg" viewBox="0 0 202 176" width="202" height="176">
	<defs>
		<linearGradient id="g1" x2="1" gradientUnits="userSpaceOnUse" gradientTransform="matrix(1.418,259.897,-249.255,1.36,99.894,-49.899)">
			<stop offset="0" stop-color="#b2df97"/>
			<stop offset="1" stop-color="#637e53"/>
		</linearGradient>
		<linearGradient id="g2" x2="1" gradientUnits="userSpaceOnUse" gradientTransform="matrix(1.418,259.897,-249.253,1.36,99.894,-49.899)">
			<stop offset="0" stop-color="#b2df97"/>
			<stop offset="1" stop-color="#637e53"/>
		</linearGradient>
		<linearGradient id="g3" x2="1" gradientUnits="userSpaceOnUse" gradientTransform="matrix(.242,40.45,-35.424,.212,95.979,80.89)">
			<stop offset="0" stop-color="#b2df97"/>
			<stop offset="1" stop-color="#637e53"/>
		</linearGradient>
		<linearGradient id="g4" x2="1" gradientUnits="userSpaceOnUse" gradientTransform="matrix(1.223,40.414,-8.107,.245,117.917,80.89)">
			<stop offset="0" stop-color="#b2df97"/>
			<stop offset="1" stop-color="#637e53"/>
		</linearGradient>
	</defs>
	<style>
		.s0 { fill: url(#g1) } 
		.s1 { opacity: .2;fill: url(#g2) } 
		.s2 { fill: url(#g3) } 
		.s3 { fill: url(#g4) } 
	</style>
	<g>
		<path class="s0" d="m197.82 72.9c-2.46-2.46-3.84-5.79-3.84-9.27 0-3.48-1.38-6.81-3.85-9.27l-2.28-2.29c-3.16-3.16-4.94-7.45-4.94-11.92 0-4.47-1.78-8.76-4.94-11.92l-11.15-11.15c-3.29-3.3-7.77-5.15-12.43-5.15-4.67 0-9.14-1.85-12.44-5.15l-0.81-0.81c-3.82-3.82-9-5.97-14.4-5.97h-10.37c-1.57 0-3.08 0.63-4.2 1.74l-4.82 4.82c-1.96 1.96-5.32 0.57-5.32-2.2 0-1.58-1.18-2.91-2.75-3.1l-10.78-1.26h-12.61c-5.4 0-10.58 2.15-14.4 5.97l-0.82 0.81c-3.29 3.3-7.77 5.15-12.43 5.15-4.67 0-9.14 1.85-12.44 5.15l-11.15 11.15c-3.16 3.16-4.93 7.45-4.93 11.92 0 4.47-1.78 8.76-4.94 11.92l-2.29 2.29c-2.46 2.46-3.84 5.79-3.84 9.27 0 3.48-1.38 6.81-3.84 9.27l-0.18 0.18c-2.58 2.58-4.03 6.07-4.03 9.72v44.4c0 3.64 1.45 7.14 4.03 9.71l0.18 0.18c2.46 2.47 3.84 5.8 3.84 9.28 0 3.48 1.38 6.81 3.84 9.27l2.29 2.29c3.16 3.16 4.94 7.45 4.94 11.92 0 4.47 1.77 8.76 4.93 11.92l11.15 11.15c3.3 3.29 7.77 5.15 12.44 5.15 4.66 0 9.14 1.85 12.43 5.15l0.82 0.81c3.82 3.82 9 5.97 14.4 5.97h7.6c3.35 0 6.55-1.33 8.91-3.69 4.92-4.92 12.9-4.92 17.82 0 2.36 2.36 5.57 3.69 8.91 3.69h7.61c5.4 0 10.58-2.15 14.4-5.97l0.81-0.81c3.3-3.3 7.77-5.15 12.44-5.15 4.66 0 9.14-1.86 12.43-5.16l15.88-15.87q0.21-0.21 0.21-0.51v-6.68c0-4.47 1.78-8.76 4.94-11.92l2.28-2.29c2.47-2.46 3.85-5.79 3.85-9.27 0-3.48 1.38-6.81 3.84-9.28l0.18-0.18c2.58-2.57 4.02-6.07 4.02-9.71v-44.4c0-3.65-1.44-7.14-4.02-9.72zm0.62 61.54c-2.86 2.86-7.5 2.86-10.36 0l-3.19-3.19c-1.98-1.98-4.67-3.09-7.47-3.09h-4.44c-2.18 0-4.24-2.1-6.42-2.1-1.56 0-2.82 1.26-2.82 2.82 0 1.56 1.26 2.82 2.82 2.82 2.18 0 4.24-2.1 6.42-2.1h4.06c2.66 0 5.22 1.06 7.11 2.94l4.76 4.77c2.33 2.32 3.63 5.47 3.63 8.76v0.85c0 2.75-1.09 5.38-3.03 7.32-4.04 4.04-10.59 4.04-14.64 0l-18.56-18.56-0.21-0.21-23.6-23.6c-0.65-0.65-0.68-1.68-0.68-2.59 0-1.56-1.26-2.82-2.82-2.82-1.56 0-2.82 1.26-2.82 2.82 0 1.55 1.26 2.82 2.82 2.82 0.84 0 1.76 0.06 2.35 0.65l9.46 9.45c4.89 4.9 1.42 13.27-5.5 13.27h-2.29c-2.18 0-4.24-2.11-6.42-2.11-1.56 0-2.82 1.27-2.82 2.82 0 1.56 1.26 2.82 2.82 2.82 2.18 0 4.24-2.1 6.42-2.1h13.34c5.86 0 11.47 2.33 15.62 6.47l16.81 16.82c1.72 1.72 2.68 4.04 2.68 6.47 0 5.06-4.09 9.16-9.15 9.16h-1.35c-5.29 0-9.58-4.29-9.58-9.58 0-2.54-1-4.97-2.8-6.77l-4.6-4.6c-0.67-0.67-0.69-1.73-0.69-2.67 0-1.56-1.27-2.82-2.82-2.82-1.56 0-2.83 1.26-2.83 2.82 0 1.56 1.27 2.82 2.83 2.82 0.8 0 1.69 0.07 2.26 0.64l4.53 4.53c1.72 1.72 2.69 4.04 2.69 6.47v0.97c0 4.52-3.67 8.19-8.19 8.19-2.17 0-4.25-0.87-5.78-2.4l-6.18-6.18c-2.54-2.54-6-3.97-9.59-3.97h-6.76c-2.18 0-4.25-2.1-6.43-2.1-1.56 0-2.82 1.26-2.82 2.82 0 1.55 1.26 2.82 2.82 2.82 2.18 0 4.25-2.1 6.43-2.1h6.37c3.46 0 6.79 1.37 9.24 3.82l5.33 5.34c2.17 2.17 5.11 3.38 8.17 3.38h8.81c7.04 0 10.57 8.52 5.59 13.5l-1.68 1.67c-2.16 2.16-5.67 2.16-7.83 0l-2.01-2.02c-0.66-0.65-0.69-1.69-0.69-2.62 0-1.56-1.26-2.82-2.82-2.82-1.55 0-2.82 1.26-2.82 2.82 0 1.56 1.27 2.82 2.82 2.82 0.83 0 1.74 0.06 2.32 0.65l0.52 0.51c1.79 1.8 0.52 4.87-2.02 4.87h-4.33c-1.23 0-2.41 0.49-3.28 1.36l-8.64 8.64c-1.24 1.24-2.91 1.93-4.66 1.93h-9.52c-2.36 0-3.54-2.84-1.87-4.51l0.36-0.36c0.68-0.68 1.76-0.7 2.71-0.7 1.56 0 2.82-1.26 2.82-2.82 0-1.56-1.26-2.82-2.82-2.82-1.55 0-2.82 1.26-2.82 2.82 0 0.79-0.07 1.66-0.63 2.22l-1.93 1.93c-2.17 2.18-5.7 2.18-7.88 0l-2-2c-3.28-3.28-3.28-8.6 0-11.88l2.9-2.9c2.35-2.34 5.53-3.66 8.85-3.66h9.1c0.71 0 1.39 0.28 1.89 0.78l0.39 0.39c0.68 0.68 0.7 1.77 0.7 2.73 0 1.56 1.26 2.82 2.82 2.82 1.56 0 2.82-1.26 2.82-2.82 0-1.56-1.26-2.82-2.82-2.82-0.79 0-1.65-0.07-2.2-0.63l-0.87-0.86c-0.66-0.66-1.55-1.03-2.48-1.03h-12.6c-1.62 0-3.17 0.64-4.32 1.79-3.84 3.84-10.42 1.12-10.42-4.32v-29.23c0-3.84 3.12-6.96 6.96-6.96 1.85 0 3.62 0.74 4.93 2.04l1.38 1.39c1.81 1.81 4.27 2.83 6.84 2.83h3.97c2.23 0 4.34 2.22 6.57 2.22 1.56 0 2.82-1.26 2.82-2.82 0-1.56-1.26-2.82-2.82-2.82-2.12 0-4.14 1.98-6.27 1.98h-3.63c-2.6 0-5.08-1.03-6.92-2.87l-1.23-1.22c-1.38-1.39-3.26-2.16-5.22-2.16h-4.35c-1.67 0-3.03-1.36-3.03-3.03v-9.96c0-1.32-1.06-2.38-2.38-2.38h-16.95c-4.65 0-9.1 1.84-12.38 5.12l-0.89 0.89c-2.71 2.71-6.39 4.24-10.22 4.24h-7.44c-2.18 0-4.24-2.1-6.42-2.1-1.56 0-2.82 1.26-2.82 2.82 0 1.55 1.26 2.82 2.82 2.82 2.18 0 4.24-2.11 6.42-2.11h7.83c3.96 0 7.77-1.57 10.57-4.38l0.79-0.78c3.25-3.26 7.67-5.09 12.27-5.09h16.42c0.52 0 0.95 0.43 0.95 0.95v0.94c0 4.59-3.72 8.3-8.31 8.3h-2.7c-2.18 0-4.25-2.1-6.43-2.1-1.55 0-2.82 1.26-2.82 2.82 0 1.56 1.27 2.82 2.82 2.82 2.18 0 4.25-2.1 6.43-2.1h4.28c3.71 0 6.73 3.01 6.73 6.73 0 1.79-0.71 3.5-1.98 4.76l-3.16 3.16c-3.18 3.19-7.5 4.97-11.99 4.97h-1.54c-3.51 0-6.88 1.4-9.37 3.88l-1.68 1.69c-1.41 1.4-3.31 2.19-5.3 2.19h-2.08c-2.18 0-4.25-2.1-6.43-2.1-1.55 0-2.82 1.26-2.82 2.82 0 1.56 1.27 2.82 2.82 2.82 2.18 0 4.25-2.1 6.43-2.1h2.46c2.13 0 4.16-0.84 5.66-2.34l1.54-1.54c2.48-2.49 5.85-3.88 9.36-3.88h6.6c1.26 0 2.47-0.5 3.36-1.39 3-3 8.12-0.88 8.12 3.36v2.57c0 3.21-2.61 5.81-5.82 5.81h-6.52c-2.18 0-4.24-2.1-6.42-2.1-1.56 0-2.82 1.26-2.82 2.82 0 1.56 1.26 2.82 2.82 2.82 2.18 0 4.24-2.1 6.42-2.1h5.94c3.53 0 6.4 2.86 6.4 6.39v7.03c0 3.1-3.75 4.65-5.95 2.46l-0.84-0.85c-0.69-0.69-0.7-1.79-0.7-2.76 0-1.56-1.27-2.82-2.82-2.82-1.56 0-2.82 1.26-2.82 2.82 0 1.55 1.26 2.82 2.82 2.82q0.69-0.01 1.27-0.31c0.03-0.02 0.06 0.02 0.04 0.04q-0.02 0.02 0 0.03l4.34 4.35c2.41 2.4 2.41 6.31 0 8.71l-1.58 1.58c-3.28 3.29-8.6 3.29-11.88 0l-1.38-1.37c-0.94-0.94-2.21-1.47-3.54-1.47h-0.15c-2.18 0-4.24-2.1-6.42-2.1-1.56 0-2.82 1.26-2.82 2.82 0 1.56 1.26 2.82 2.82 2.82q0.12 0 0.23-0.01c2.04-0.17 3.91-2.09 5.96-2.09h0.28c1.01 0 1.98 0.4 2.7 1.12 2.41 2.41 0.7 6.52-2.7 6.52h-6.68c-1.75 0-3.42-0.69-4.66-1.93l-8.64-8.64c-0.87-0.87-2.05-1.36-3.29-1.36h-2.63c-3.16 0-4.75-3.82-2.51-6.06l0.88-0.89c0.61-0.6 1.56-0.66 2.42-0.66 1.56 0 2.82-1.26 2.82-2.82 0-1.55-1.26-2.82-2.82-2.82-1.56 0-2.82 1.27-2.82 2.82 0 0.9-0.04 1.89-0.67 2.53l-2.73 2.73c-2.7 2.69-7.06 2.69-9.76 0l-0.71-0.71c-4.98-4.98-1.45-13.5 5.59-13.5h14.22c2.31 0 4.52 0.92 6.15 2.55l3.79 3.79c0.66 0.66 0.69 1.69 0.69 2.61 0 1.56 1.26 2.82 2.82 2.82 1.55 0 2.82-1.26 2.82-2.82 0-1.55-1.27-2.82-2.82-2.82-0.83 0-1.75-0.06-2.33-0.65l-4.1-4.09c-1.81-1.81-4.26-2.82-6.81-2.82h-28.26c-3.46 0-6.27-2.81-6.27-6.27 0-3.46 2.81-6.26 6.27-6.26h11.78c4.79 0 9.38-1.9 12.77-5.29l5.04-5.04c1.57-1.57 3.69-2.44 5.9-2.44h2.73c2.18 0 4.24 2.1 6.42 2.1 1.56 0 2.82-1.27 2.82-2.82 0-1.56-1.26-2.82-2.82-2.82-2.18 0-4.24 2.1-6.42 2.1h-3.12c-2.34 0-4.59 0.93-6.25 2.59l-3.8 3.8c-4.09 4.09-9.63 6.38-15.42 6.38h-8.79c-4.82 0-9.44-1.91-12.85-5.32l-3.28-3.28c-1.31-1.31-2.04-3.08-2.04-4.93 0-3.84 3.11-6.96 6.96-6.96h3.95c2.29 0 4.48 0.91 6.09 2.52l3.7 3.7c0.64 0.64 0.68 1.65 0.68 2.55 0 1.56 1.26 2.82 2.82 2.82 1.55 0 2.82-1.26 2.82-2.82 0-1.56-1.27-2.82-2.82-2.82q-0.76 0.01-1.38 0.36-0.02 0-0.01-0.01 0 0 0 0l-5.47-5.47c-1.45-1.45-3.42-2.27-5.47-2.27h-9.26c-1.94 0-3.81-0.77-5.18-2.14-2.86-2.87-2.86-7.51 0-10.37l1.73-1.73c1.84-1.83 4.32-2.86 6.91-2.86h13.85c2.59 0 5.07-1.03 6.9-2.86l4.19-4.19c0.6-0.6 1.53-0.66 2.38-0.66 1.56 0 2.82-1.26 2.82-2.82 0-1.56-1.26-2.82-2.82-2.82-1.56 0-2.82 1.26-2.82 2.82 0 0.91-0.04 1.92-0.68 2.56l-3.9 3.9c-1.68 1.69-3.96 2.63-6.34 2.63h-16.26c-1.25 0-2.46 0.5-3.35 1.39-2.98 2.98-8.09 0.87-8.09-3.35v-6.34c0-4.06 3.3-7.36 7.36-7.36h4.91c3.25 0 6.37-1.29 8.68-3.59l0.56-0.57c2.66-2.66 6.27-4.15 10.03-4.15h10.68c2.18 0 4.24 2.1 6.43 2.1 1.55 0 2.82-1.26 2.82-2.82 0-1.56-1.27-2.82-2.82-2.82-2.19 0-4.25 2.1-6.43 2.1h-11.27c-3.77 0-7.38 1.5-10.04 4.16l-0.68 0.68c-2.22 2.22-5.24 3.47-8.38 3.47-6.54 0-11.85-5.3-11.85-11.85v-11.69c0-1.94 0.77-3.81 2.15-5.18 2.86-2.86 7.5-2.86 10.36 0l3.19 3.19c1.98 1.98 4.67 3.09 7.47 3.09h4.43c2.18 0 4.25 2.1 6.43 2.1 1.56 0 2.82-1.26 2.82-2.82 0-1.55-1.26-2.82-2.82-2.82-2.18 0-4.25 2.1-6.43 2.1h-4.05c-2.66 0-5.22-1.05-7.11-2.94l-4.76-4.77c-2.33-2.32-3.63-5.47-3.63-8.76v-0.85c0-2.74 1.09-5.38 3.03-7.32 4.04-4.04 10.59-4.04 14.63 0l18.57 18.56 23.81 23.82c0.64 0.64 0.68 1.67 0.68 2.58 0 1.56 1.26 2.82 2.82 2.82 1.56 0 2.82-1.26 2.82-2.82 0-1.55-1.26-2.82-2.82-2.82-0.84 0-1.76-0.06-2.36-0.65l-9.45-9.45c-4.89-4.9-1.43-13.27 5.5-13.27h2.28c2.19 0 4.25 2.11 6.43 2.11 1.56 0 2.82-1.27 2.82-2.82 0-1.56-1.26-2.82-2.82-2.82-2.18 0-4.24 2.1-6.43 2.1h-13.33c-5.86 0-11.48-2.33-15.62-6.47l-16.81-16.82c-1.72-1.71-2.69-4.04-2.69-6.47 0-5.06 4.1-9.15 9.16-9.15h1.35c5.29 0 9.58 4.28 9.58 9.57 0 2.54 1 4.98 2.8 6.77l4.6 4.6c0.67 0.67 0.69 1.73 0.69 2.67 0 1.56 1.27 2.82 2.82 2.82 1.56 0 2.82-1.26 2.82-2.82 0-1.55-1.26-2.82-2.82-2.82-0.81 0-1.69-0.06-2.27-0.64l-4.53-4.53c-1.71-1.71-2.68-4.04-2.68-6.47v-0.97c0-4.52 3.67-8.18 8.19-8.18 2.17 0 4.25 0.86 5.78 2.39l6.18 6.18c2.54 2.54 5.99 3.97 9.59 3.97h6.76c2.18 0 4.25 2.1 6.43 2.1 1.55 0 2.82-1.26 2.82-2.82 0-1.55-1.27-2.82-2.82-2.82-2.18 0-4.25 2.11-6.43 2.11h-6.37c-3.47 0-6.79-1.38-9.24-3.83l-5.34-5.34c-2.16-2.16-5.1-3.38-8.16-3.38h-8.81c-7.04 0-10.57-8.51-5.59-13.49l1.67-1.67c2.17-2.17 5.68-2.17 7.84 0l2.01 2.01c0.66 0.65 0.69 1.69 0.69 2.62 0 1.56 1.26 2.82 2.82 2.82 1.55 0 2.82-1.26 2.82-2.82 0-1.56-1.27-2.82-2.82-2.82-0.83 0-1.74-0.06-2.32-0.65l-0.52-0.51c-1.79-1.8-0.52-4.87 2.02-4.87h4.33c1.23 0 2.41-0.49 3.28-1.36l8.64-8.64c1.24-1.24 2.91-1.93 4.66-1.93h9.52c2.36 0 3.53 2.85 1.87 4.51l-0.36 0.37c-0.68 0.67-1.76 0.69-2.71 0.69-1.56 0-2.83 1.26-2.83 2.82 0 1.56 1.27 2.82 2.83 2.82 1.55 0 2.82-1.26 2.82-2.82 0-0.79 0.06-1.66 0.63-2.22l3.3-3.31c1.79-1.78 4.29-2.65 6.8-2.36l0.86 0.1c4.04 0.47 7.09 3.89 7.09 7.96 0 2.13-0.85 4.16-2.35 5.67l-5.02 5.01c-3.48 3.49-8.21 5.44-13.13 5.44h-6.59c-0.71 0-1.39-0.28-1.9-0.78l-0.38-0.39c-0.68-0.68-0.7-1.77-0.7-2.73 0-1.56-1.26-2.82-2.82-2.82-1.56 0-2.82 1.26-2.82 2.82 0 1.56 1.26 2.82 2.82 2.82 0.79 0 1.65 0.07 2.2 0.63l0.87 0.86c0.66 0.66 1.55 1.03 2.48 1.03h12.6c1.62 0 3.17-0.64 4.31-1.79 3.85-3.84 10.43-1.12 10.43 4.32v29.72c0 3.73-3.03 6.76-6.76 6.76-1.79 0-3.51-0.72-4.78-1.98l-1.73-1.74c-1.81-1.81-4.27-2.83-6.84-2.83h-3.97c-2.23 0-4.34-2.22-6.58-2.22-1.55 0-2.82 1.27-2.82 2.82 0 1.56 1.27 2.82 2.82 2.82 2.13 0 4.15-1.98 6.28-1.98h3.63c2.59 0 5.08 1.03 6.92 2.87l1.57 1.57c1.35 1.35 3.17 2.1 5.08 2.1h4.2c1.64 0 2.98 1.33 2.98 2.98v7.36c0 2.62 2.12 4.74 4.74 4.74h14.59c4.64 0 9.09-1.84 12.38-5.12l0.89-0.89c2.71-2.71 6.38-4.24 10.22-4.24h7.44c2.18 0 4.24 2.11 6.42 2.11 1.56 0 2.82-1.27 2.82-2.82 0-1.56-1.26-2.82-2.82-2.82-2.18 0-4.24 2.1-6.42 2.1h-7.83c-3.97 0-7.77 1.57-10.57 4.38l-0.79 0.78c-3.25 3.26-7.67 5.09-12.28 5.09h-14.06c-1.82 0-3.3-1.48-3.3-3.31 0-3.8 3.09-6.88 6.89-6.88h4.12c2.18 0 4.24 2.1 6.43 2.1 1.55 0 2.82-1.26 2.82-2.82 0-1.56-1.27-2.82-2.82-2.82-2.19 0-4.25 2.1-6.43 2.1h-4.28c-3.71 0-6.73-3.01-6.73-6.73 0-1.78 0.71-3.5 1.97-4.76l3.17-3.16c3.18-3.18 7.49-4.97 11.99-4.97h1.54c3.51 0 6.88-1.4 9.37-3.88l1.68-1.68c1.41-1.41 3.31-2.2 5.3-2.2h2.08c2.18 0 4.24 2.1 6.42 2.1 1.56 0 2.83-1.26 2.83-2.82 0-1.56-1.27-2.82-2.83-2.82-2.18 0-4.24 2.1-6.42 2.1h-2.47c-2.12 0-4.15 0.85-5.65 2.35l-1.54 1.53c-2.48 2.49-5.85 3.88-9.36 3.88h-6.6c-1.26 0-2.47 0.5-3.36 1.39-3 3-8.12 0.88-8.12-3.36v-2.56c0-3.22 2.61-5.82 5.82-5.82h6.52c2.18 0 4.24 2.1 6.42 2.1 1.56 0 2.82-1.26 2.82-2.82 0-1.56-1.26-2.82-2.82-2.82-2.18 0-4.24 2.1-6.42 2.1h-5.95c-3.53 0-6.39-2.86-6.39-6.39v-7.03c0-3.1 3.75-4.65 5.94-2.46l0.85 0.85c0.69 0.69 0.7 1.79 0.7 2.77 0 1.55 1.27 2.82 2.82 2.82 1.56 0 2.82-1.27 2.82-2.82 0-1.56-1.26-2.82-2.82-2.82q-0.69 0-1.28 0.31c-0.02 0.01-0.05-0.03-0.03-0.05q0.02-0.02 0-0.03l-4.34-4.34c-2.41-2.41-2.41-6.31 0-8.72l1.58-1.58c3.28-3.28 8.6-3.28 11.88 0l1.38 1.38c0.94 0.93 2.21 1.46 3.53 1.46h0.16c2.18 0 4.24 2.1 6.42 2.1 1.56 0 2.82-1.26 2.82-2.82 0-1.56-1.26-2.82-2.82-2.82q-0.12 0-0.23 0.01c-2.04 0.17-3.92 2.09-5.96 2.09h-0.28c-1.01 0-1.98-0.4-2.7-1.12-2.41-2.4-0.7-6.52 2.7-6.52h6.68c1.75 0 3.42 0.69 4.66 1.93l8.64 8.64c0.87 0.87 2.05 1.36 3.28 1.36h2.64c3.16 0 4.75 3.83 2.51 6.06l-0.88 0.89c-0.61 0.61-1.56 0.66-2.42 0.66-1.56 0-2.82 1.26-2.82 2.82 0 1.56 1.26 2.82 2.82 2.82 1.55 0 2.82-1.26 2.82-2.82 0-0.9 0.04-1.89 0.67-2.52l2.73-2.74c2.7-2.69 7.06-2.69 9.75 0l0.72 0.72c4.98 4.98 1.45 13.49-5.59 13.49h-14.22c-2.31 0-4.52-0.92-6.15-2.55l-3.8-3.79c-0.65-0.65-0.68-1.69-0.68-2.61 0-1.56-1.26-2.82-2.82-2.82-1.56 0-2.82 1.26-2.82 2.82 0 1.56 1.26 2.82 2.82 2.82 0.83 0 1.75 0.06 2.33 0.65l4.1 4.09c1.81 1.81 4.26 2.83 6.81 2.83h28.26c3.46 0 6.27 2.8 6.27 6.26 0 3.46-2.81 6.26-6.27 6.26h-11.78c-4.79 0-9.38 1.9-12.77 5.29l-5.04 5.04c-1.57 1.57-3.69 2.45-5.9 2.45h-2.73c-2.18 0-4.24-2.11-6.43-2.11-1.55 0-2.82 1.27-2.82 2.82 0 1.56 1.27 2.82 2.82 2.82 2.19 0 4.25-2.1 6.43-2.1h3.12c2.34 0 4.59-0.93 6.25-2.59l3.8-3.79c4.09-4.09 9.63-6.39 15.42-6.39h8.79c4.82 0 9.44 1.91 12.85 5.32l3.28 3.28c1.31 1.31 2.04 3.08 2.04 4.93 0 3.85-3.12 6.96-6.96 6.96h-3.95c-2.29 0-4.48-0.9-6.09-2.52l-3.7-3.7c-0.64-0.64-0.68-1.64-0.68-2.55 0-1.55-1.26-2.82-2.82-2.82-1.55 0-2.82 1.27-2.82 2.82 0 1.56 1.27 2.82 2.82 2.82q0.76-0.01 1.38-0.36 0.02 0 0.01 0.01 0 0 0 0.01l5.47 5.46c1.45 1.45 3.42 2.27 5.47 2.27h9.26c1.94 0 3.81 0.77 5.18 2.15 2.86 2.86 2.86 7.5 0 10.36l-1.73 1.73c-1.84 1.83-4.32 2.86-6.92 2.86h-13.85c-2.58 0-5.06 1.03-6.89 2.86l-4.19 4.19c-0.6 0.6-1.54 0.66-2.38 0.66-1.56 0-2.82 1.26-2.82 2.82 0 1.56 1.26 2.82 2.82 2.82 1.56 0 2.82-1.26 2.82-2.82 0-0.91 0.03-1.92 0.68-2.56l3.9-3.9c1.68-1.68 3.96-2.63 6.33-2.63h16.27c1.25 0 2.46-0.5 3.35-1.39 2.98-2.98 8.09-0.87 8.09 3.36v6.33c0 4.07-3.3 7.36-7.36 7.36h-4.91c-3.26 0-6.38 1.29-8.68 3.6l-0.56 0.56c-2.66 2.66-6.27 4.15-10.03 4.15h-10.68c-2.18 0-4.25-2.1-6.43-2.1-1.55 0-2.82 1.26-2.82 2.82 0 1.56 1.27 2.82 2.82 2.82 2.18 0 4.25-2.1 6.43-2.1h11.27c3.77 0 7.37-1.49 10.04-4.16l0.68-0.68c2.22-2.22 5.24-3.47 8.38-3.47 6.54 0 11.85 5.3 11.85 11.85v11.69c0 1.94-0.77 3.81-2.15 5.18z"/>
		<path class="s1" d="m197.82 72.9c-2.46-2.46-3.84-5.79-3.84-9.27 0-3.48-1.38-6.81-3.85-9.27l-2.28-2.29c-3.16-3.16-4.94-7.45-4.94-11.92 0-4.47-1.78-8.76-4.94-11.92l-11.15-11.15c-3.29-3.3-7.77-5.15-12.43-5.15-4.67 0-9.14-1.85-12.44-5.15l-0.81-0.81c-3.82-3.82-9-5.97-14.41-5.97h-12.6l-10.78 1.26c-1.57 0.19-2.76 1.52-2.76 3.1 0 2.77-3.35 4.16-5.31 2.2l-4.83-4.82c-1.11-1.11-2.62-1.74-4.2-1.74h-10.36c-5.4 0-10.58 2.15-14.4 5.97l-0.82 0.81c-3.29 3.3-7.77 5.15-12.43 5.15-4.67 0-9.14 1.85-12.44 5.15l-11.15 11.15c-3.16 3.16-4.93 7.45-4.93 11.92 0 4.47-1.78 8.76-4.94 11.92l-2.29 2.29c-2.46 2.46-3.84 5.79-3.84 9.27 0 3.48-1.38 6.81-3.84 9.27l-0.18 0.18c-2.58 2.58-4.03 6.07-4.03 9.72v44.4c0 3.64 1.45 7.14 4.02 9.71l0.19 0.18c2.46 2.47 3.84 5.8 3.84 9.28 0 3.48 1.38 6.81 3.84 9.27l2.29 2.29c3.16 3.16 4.94 7.45 4.94 11.92v6.68q0 0.3 0.21 0.51l15.87 15.88c3.3 3.29 7.77 5.15 12.44 5.15 4.66 0 9.14 1.85 12.43 5.15l0.82 0.81c3.82 3.82 9 5.97 14.4 5.97h7.6c3.35 0 6.55-1.33 8.91-3.69 4.92-4.92 12.9-4.92 17.82 0 2.36 2.36 5.57 3.69 8.91 3.69h7.6c5.41 0 10.59-2.15 14.41-5.97l0.81-0.81c3.3-3.3 7.77-5.15 12.44-5.15 4.66 0 9.14-1.86 12.43-5.15l11.15-11.15c3.16-3.16 4.94-7.45 4.94-11.92 0-4.47 1.78-8.76 4.94-11.92l2.28-2.29c2.47-2.46 3.85-5.79 3.85-9.27 0-3.48 1.38-6.81 3.84-9.28l0.18-0.18c2.58-2.57 4.02-6.07 4.02-9.71v-44.4c0-3.65-1.44-7.14-4.02-9.72zm-2.71 64.88c-1.38 1.37-3.24 2.14-5.18 2.14h-9.26c-2.05 0-4.02 0.82-5.47 2.27l-5.47 5.47q0 0 0 0 0 0.01-0.01 0.01-0.62-0.35-1.38-0.36c-1.56 0-2.82 1.26-2.82 2.82 0 1.56 1.26 2.82 2.82 2.82 1.56 0 2.82-1.26 2.82-2.82 0-0.9 0.04-1.91 0.68-2.55l3.7-3.7c1.61-1.61 3.8-2.52 6.08-2.52h3.96c3.84 0 6.96 3.12 6.96 6.96 0 1.85-0.73 3.62-2.04 4.93l-3.28 3.28c-3.41 3.41-8.03 5.32-12.85 5.32h-8.79c-5.79 0-11.33-2.29-15.42-6.38l-3.8-3.8c-1.66-1.66-3.91-2.59-6.25-2.59h-3.12c-2.18 0-4.25-2.1-6.43-2.1-1.55 0-2.82 1.26-2.82 2.82 0 1.55 1.27 2.82 2.82 2.82 2.18 0 4.25-2.1 6.43-2.1h2.73c2.21 0 4.33 0.87 5.9 2.44l5.04 5.04c3.39 3.39 7.98 5.29 12.76 5.29h11.79c3.46 0 6.26 2.8 6.26 6.26 0 3.46-2.8 6.27-6.26 6.27h-28.26c-2.56 0-5.01 1.01-6.81 2.82l-4.1 4.09c-0.59 0.59-1.5 0.65-2.33 0.65-1.56 0-2.82 1.27-2.82 2.82 0 1.56 1.26 2.82 2.82 2.82 1.56 0 2.82-1.26 2.82-2.82 0-0.92 0.03-1.95 0.68-2.61l3.79-3.79c1.64-1.63 3.85-2.55 6.16-2.55h14.22c7.04 0 10.57 8.52 5.59 13.5l-0.72 0.71c-2.69 2.69-7.06 2.69-9.75 0l-2.73-2.73c-0.63-0.64-0.67-1.63-0.67-2.53 0-1.55-1.27-2.82-2.82-2.82-1.56 0-2.82 1.27-2.82 2.82 0 1.56 1.26 2.82 2.82 2.82 0.86 0 1.81 0.06 2.42 0.66l0.88 0.89c2.24 2.24 0.65 6.06-2.51 6.06h-2.64c-1.23 0-2.41 0.49-3.28 1.36l-8.64 8.64c-1.24 1.24-2.91 1.93-4.66 1.93h-6.68c-3.4 0-5.11-4.11-2.7-6.52 0.72-0.72 1.69-1.12 2.7-1.12h0.28c2.04 0 3.92 1.92 5.95 2.09q0.12 0.01 0.24 0.01c1.56 0 2.82-1.26 2.82-2.82 0-1.56-1.26-2.82-2.82-2.82-2.18 0-4.24 2.1-6.43 2.1h-0.15c-1.32 0-2.59 0.53-3.53 1.47l-1.38 1.38c-3.28 3.28-8.6 3.28-11.88 0l-1.58-1.59c-2.41-2.4-2.41-6.31 0-8.71l4.34-4.34q0.01-0.02 0-0.04c-0.02-0.02 0.01-0.06 0.03-0.04q0.58 0.3 1.28 0.31c1.56 0 2.82-1.27 2.82-2.82 0-1.56-1.26-2.82-2.82-2.82-1.56 0-2.82 1.26-2.82 2.82 0 0.97-0.01 2.07-0.7 2.76l-0.85 0.85c-2.19 2.19-5.94 0.64-5.94-2.46v-7.03c0-3.53 2.86-6.39 6.39-6.39h5.95c2.18 0 4.24 2.1 6.42 2.1 1.56 0 2.82-1.26 2.82-2.82 0-1.56-1.26-2.82-2.82-2.82-2.18 0-4.24 2.1-6.43 2.1h-6.51c-3.21 0-5.82-2.6-5.82-5.81v-2.57c0-4.24 5.12-6.36 8.12-3.36 0.89 0.89 2.1 1.39 3.36 1.39h6.6c3.51 0 6.88 1.39 9.36 3.88l1.54 1.54c1.5 1.5 3.53 2.34 5.65 2.34h2.47c2.18 0 4.24 2.1 6.42 2.1 1.56 0 2.82-1.26 2.82-2.82 0-1.56-1.26-2.82-2.82-2.82-2.18 0-4.24 2.1-6.42 2.1h-2.08c-1.99 0-3.9-0.79-5.3-2.19l-1.68-1.69c-2.49-2.48-5.86-3.88-9.37-3.88h-1.54c-4.5 0-8.81-1.78-11.99-4.96l-3.17-3.17c-1.26-1.26-1.97-2.97-1.97-4.76 0-3.72 3.02-6.73 6.73-6.73h4.28c2.18 0 4.24 2.1 6.42 2.1 1.56 0 2.82-1.26 2.82-2.82 0-1.55-1.26-2.82-2.82-2.82-2.18 0-4.24 2.1-6.42 2.1h-2.7c-4.59 0-8.31-3.71-8.31-8.3v-0.94c0-0.52 0.42-0.95 0.94-0.95h16.42c4.61 0 9.02 1.83 12.28 5.09l0.79 0.79c2.8 2.8 6.6 4.37 10.57 4.37h7.83c2.18 0 4.24 2.11 6.42 2.11 1.56 0 2.82-1.27 2.82-2.82 0-1.56-1.26-2.82-2.82-2.82-2.18 0-4.24 2.1-6.42 2.1h-7.44c-3.84 0-7.51-1.53-10.22-4.24l-0.9-0.89c-3.28-3.28-7.73-5.12-12.37-5.12h-16.96c-1.31 0-2.37 1.06-2.37 2.38v9.96 1.51c0 0.84-0.68 1.52-1.52 1.52h-5.87c-1.95 0-3.83 0.77-5.22 2.16l-1.22 1.22c-1.84 1.84-4.33 2.87-6.92 2.87h-3.63c-2.13 0-4.15-1.98-6.28-1.98-1.55 0-2.82 1.26-2.82 2.82 0 1.56 1.27 2.82 2.82 2.82 2.24 0 4.35-2.22 6.58-2.22h3.97c2.57 0 5.03-1.02 6.84-2.83l1.38-1.39c1.31-1.3 3.08-2.04 4.93-2.04 3.84 0 6.96 3.12 6.96 6.96v29.23c0 5.44-6.58 8.16-10.43 4.32-1.14-1.15-2.69-1.79-4.31-1.79h-12.6c-0.93 0-1.83 0.37-2.48 1.03l-0.87 0.86c-0.55 0.56-1.41 0.63-2.2 0.63-1.56 0-2.82 1.26-2.82 2.82 0 1.56 1.26 2.82 2.82 2.82 1.56 0 2.82-1.26 2.82-2.82 0-0.96 0.02-2.05 0.7-2.73l0.38-0.39c0.51-0.5 1.19-0.78 1.9-0.78h9.1c3.32 0 6.5 1.32 8.84 3.66l2.91 2.9c3.28 3.28 3.28 8.6 0 11.88l-2 2c-2.18 2.18-5.71 2.18-7.88 0l-1.93-1.92c-0.57-0.57-0.63-1.44-0.63-2.23 0-1.56-1.27-2.82-2.83-2.82-1.55 0-2.82 1.26-2.82 2.82 0 1.56 1.27 2.82 2.82 2.82 0.96 0 2.04 0.02 2.72 0.7l0.36 0.36c1.67 1.67 0.49 4.51-1.87 4.51h-9.52c-1.75 0-3.42-0.69-4.66-1.93l-8.64-8.64c-0.87-0.87-2.05-1.36-3.28-1.36h-4.33c-2.54 0-3.81-3.07-2.02-4.87l0.52-0.51c0.58-0.59 1.49-0.65 2.32-0.65 1.55 0 2.82-1.26 2.82-2.82 0-1.56-1.27-2.82-2.82-2.82-1.56 0-2.82 1.26-2.82 2.82 0 0.93-0.03 1.97-0.69 2.63l-2.01 2.01c-2.16 2.16-5.67 2.16-7.84 0l-1.67-1.67c-4.98-4.98-1.45-13.5 5.59-13.5h8.81c3.06 0 6-1.21 8.16-3.38l5.34-5.34c2.45-2.45 5.77-3.82 9.24-3.82h6.37c2.18 0 4.25 2.1 6.43 2.1 1.55 0 2.82-1.26 2.82-2.82 0-1.56-1.27-2.82-2.82-2.82-2.18 0-4.25 2.1-6.43 2.1h-6.76c-3.6 0-7.05 1.43-9.59 3.97l-6.18 6.18c-1.53 1.53-3.61 2.4-5.78 2.4-4.52 0-8.19-3.67-8.19-8.19v-0.97c0-2.43 0.97-4.75 2.68-6.47l4.53-4.53c0.58-0.57 1.46-0.64 2.27-0.64 1.56 0 2.82-1.26 2.82-2.82 0-1.56-1.26-2.82-2.82-2.82-1.55 0-2.82 1.26-2.82 2.82 0 0.94-0.02 2-0.69 2.67l-4.6 4.6c-1.8 1.8-2.8 4.23-2.8 6.77 0 5.29-4.29 9.58-9.58 9.58h-1.35c-5.06 0-9.16-4.1-9.16-9.16 0-2.43 0.97-4.75 2.69-6.47l16.81-16.82c4.14-4.14 9.76-6.47 15.62-6.47h13.33c2.18 0 4.25 2.1 6.43 2.1 1.56 0 2.82-1.26 2.82-2.82 0-1.55-1.26-2.82-2.82-2.82-2.18 0-4.25 2.11-6.43 2.11h-2.29c-6.92 0-10.38-8.37-5.49-13.27l9.45-9.45c0.6-0.59 1.52-0.65 2.36-0.65 1.56 0 2.82-1.27 2.82-2.82 0-1.56-1.26-2.82-2.82-2.82-1.56 0-2.82 1.26-2.82 2.82 0 0.91-0.04 1.94-0.68 2.59l-23.6 23.6-0.21 0.21-18.57 18.56c-4.04 4.04-10.59 4.04-14.63 0-1.94-1.94-3.03-4.57-3.03-7.32v-0.85c0-3.29 1.3-6.44 3.63-8.76l4.76-4.77c1.89-1.88 4.45-2.94 7.11-2.94h4.05c2.18 0 4.25 2.1 6.43 2.1 1.56 0 2.82-1.26 2.82-2.82 0-1.56-1.26-2.82-2.82-2.82-2.18 0-4.25 2.1-6.43 2.1h-4.43c-2.8 0-5.49 1.11-7.47 3.09l-3.19 3.19c-2.86 2.86-7.5 2.86-10.36 0-1.38-1.37-2.15-3.24-2.15-5.18v-11.69c0-6.55 5.3-11.85 11.85-11.85 3.14 0 6.16 1.25 8.38 3.47l0.68 0.68c2.66 2.67 6.27 4.16 10.04 4.16h11.27c2.18 0 4.24 2.1 6.43 2.1 1.55 0 2.82-1.26 2.82-2.82 0-1.56-1.27-2.82-2.82-2.82-2.19 0-4.25 2.1-6.43 2.1h-10.68c-3.76 0-7.37-1.49-10.03-4.15l-0.56-0.56c-2.31-2.31-5.43-3.6-8.68-3.6h-4.91c-4.06 0-7.36-3.29-7.36-7.36v-6.34c0-4.22 5.11-6.33 8.09-3.35 0.89 0.89 2.1 1.39 3.35 1.39h16.26c2.38 0 4.66 0.95 6.34 2.63l3.9 3.9c0.64 0.64 0.68 1.65 0.68 2.56 0 1.56 1.26 2.82 2.82 2.82 1.56 0 2.82-1.26 2.82-2.82 0-1.56-1.26-2.82-2.82-2.82-0.85 0-1.78-0.06-2.38-0.66l-4.19-4.19c-1.83-1.83-4.31-2.86-6.9-2.86h-13.85c-2.59 0-5.08-1.03-6.91-2.86l-1.73-1.73c-2.86-2.86-2.86-7.5 0-10.36 1.37-1.38 3.24-2.15 5.18-2.15h9.26c2.05 0 4.02-0.82 5.47-2.27l5.47-5.46q0-0.01 0-0.01-0.01-0.01 0.01-0.01 0.62 0.35 1.38 0.36c1.55 0 2.82-1.26 2.82-2.82 0-1.55-1.27-2.82-2.82-2.82-1.56 0-2.82 1.27-2.82 2.82 0 0.91-0.04 1.91-0.68 2.55l-3.7 3.7c-1.61 1.61-3.8 2.52-6.09 2.52h-3.95c-3.85 0-6.96-3.12-6.96-6.96 0-1.85 0.73-3.62 2.04-4.93l3.28-3.28c3.41-3.41 8.03-5.32 12.85-5.32h8.79c5.78 0 11.33 2.3 15.42 6.39l3.8 3.79c1.66 1.66 3.91 2.59 6.25 2.59h3.12c2.18 0 4.24 2.1 6.42 2.1 1.56 0 2.82-1.26 2.82-2.82 0-1.55-1.26-2.82-2.82-2.82-2.18 0-4.24 2.11-6.42 2.11h-2.73c-2.21 0-4.33-0.88-5.9-2.45l-5.04-5.04c-3.39-3.39-7.98-5.29-12.77-5.29h-11.78c-3.46 0-6.27-2.8-6.27-6.26 0-3.46 2.81-6.26 6.27-6.26h28.26c2.55 0 5.01-1.02 6.81-2.83l4.1-4.09c0.58-0.59 1.5-0.65 2.33-0.65 1.55 0 2.82-1.26 2.82-2.82 0-1.56-1.27-2.82-2.82-2.82-1.56 0-2.82 1.26-2.82 2.82 0 0.92-0.03 1.96-0.69 2.61l-3.79 3.79c-1.63 1.63-3.84 2.55-6.15 2.55h-14.22c-7.04 0-10.57-8.51-5.59-13.49l0.72-0.72c2.69-2.69 7.06-2.69 9.75 0l2.73 2.74c0.63 0.63 0.67 1.62 0.67 2.52 0 1.56 1.27 2.82 2.82 2.82 1.56 0 2.82-1.26 2.82-2.82 0-1.56-1.26-2.82-2.82-2.82-0.86 0-1.81-0.05-2.42-0.66l-0.88-0.89c-2.24-2.23-0.65-6.06 2.51-6.06h2.64c1.23 0 2.41-0.49 3.28-1.36l8.64-8.64c1.24-1.24 2.91-1.93 4.66-1.93h6.68c3.4 0 5.11 4.12 2.7 6.52-0.72 0.72-1.69 1.12-2.7 1.12h-0.28c-2.04 0-3.92-1.92-5.96-2.09q-0.11-0.01-0.23-0.01c-1.56 0-2.82 1.26-2.82 2.82 0 1.56 1.26 2.82 2.82 2.82 2.18 0 4.24-2.1 6.42-2.1h0.15c1.33 0 2.6-0.53 3.54-1.47l1.38-1.37c3.28-3.28 8.6-3.28 11.88 0l1.58 1.58c2.41 2.41 2.41 6.31 0 8.72l-4.34 4.34q-0.01 0.01 0 0.03c0.02 0.02-0.01 0.06-0.03 0.05q-0.59-0.31-1.28-0.31c-1.56 0-2.82 1.26-2.82 2.82 0 1.55 1.26 2.82 2.82 2.82 1.55 0 2.82-1.27 2.82-2.82 0-0.98 0.01-2.08 0.7-2.77l0.84-0.85c2.2-2.19 5.95-0.64 5.95 2.46v7.03c0 3.53-2.87 6.39-6.4 6.39h-5.94c-2.18 0-4.24-2.1-6.42-2.1-1.56 0-2.82 1.26-2.82 2.82 0 1.56 1.26 2.82 2.82 2.82 2.18 0 4.24-2.1 6.42-2.1h6.52c3.21 0 5.82 2.6 5.82 5.82v2.56c0 4.24-5.12 6.36-8.12 3.36-0.89-0.89-2.1-1.39-3.36-1.39h-6.6c-3.51 0-6.88-1.39-9.36-3.88l-1.54-1.53c-1.5-1.5-3.53-2.35-5.66-2.35h-2.46c-2.18 0-4.25-2.1-6.43-2.1-1.55 0-2.82 1.26-2.82 2.82 0 1.56 1.27 2.82 2.82 2.82 2.18 0 4.25-2.1 6.43-2.1h2.08c1.99 0 3.89 0.79 5.3 2.2l1.68 1.68c2.49 2.48 5.86 3.88 9.37 3.88h1.54c4.5 0 8.81 1.79 11.99 4.97l3.16 3.16c1.27 1.26 1.98 2.98 1.98 4.76 0 3.72-3.02 6.73-6.73 6.73h-4.28c-2.18 0-4.25-2.1-6.43-2.1-1.55 0-2.82 1.26-2.82 2.82 0 1.56 1.27 2.82 2.82 2.82 2.18 0 4.25-2.1 6.43-2.1h4.12c3.8 0 6.89 3.08 6.89 6.88 0 1.83-1.48 3.31-3.31 3.31h-14.05c-4.61 0-9.03-1.83-12.28-5.09l-0.79-0.78c-2.8-2.81-6.61-4.38-10.57-4.38h-7.83c-2.18 0-4.24-2.1-6.42-2.1-1.56 0-2.82 1.26-2.82 2.82 0 1.55 1.26 2.82 2.82 2.82 2.18 0 4.24-2.11 6.42-2.11h7.44c3.84 0 7.51 1.53 10.22 4.24l0.89 0.89c3.28 3.28 7.73 5.12 12.38 5.12h14.59c2.62 0 4.74-2.12 4.74-4.74v-7.36c0-1.65 1.33-2.98 2.98-2.98h4.2c1.9 0 3.73-0.75 5.08-2.1l1.57-1.57c1.84-1.84 4.32-2.87 6.92-2.87h3.63c2.13 0 4.15 1.98 6.27 1.98 1.56 0 2.82-1.26 2.82-2.82 0-1.55-1.26-2.82-2.82-2.82-2.23 0-4.34 2.22-6.57 2.22h-3.97c-2.57 0-5.03 1.02-6.84 2.83l-1.73 1.74c-1.27 1.26-2.99 1.98-4.78 1.98-3.73 0-6.76-3.03-6.76-6.76v-29.72c0-5.44 6.58-8.16 10.42-4.32 1.15 1.15 2.7 1.79 4.32 1.79h12.6c0.93 0 1.82-0.37 2.48-1.03l0.86-0.86c0.56-0.56 1.42-0.63 2.21-0.63 1.56 0 2.82-1.26 2.82-2.82 0-1.56-1.26-2.82-2.82-2.82-1.56 0-2.82 1.26-2.82 2.82 0 0.96-0.02 2.05-0.7 2.73l-0.38 0.39c-0.51 0.5-1.19 0.78-1.9 0.78h-6.59c-4.92 0-9.65-1.95-13.14-5.44l-5.01-5.01c-1.5-1.51-2.35-3.54-2.35-5.67 0-4.07 3.05-7.49 7.09-7.96l0.86-0.1c2.51-0.29 5.01 0.58 6.79 2.36l3.31 3.31c0.56 0.56 0.63 1.43 0.63 2.22 0 1.56 1.27 2.82 2.82 2.82 1.56 0 2.82-1.26 2.82-2.82 0-1.56-1.26-2.82-2.82-2.82-0.95 0-2.03-0.02-2.71-0.69l-0.36-0.37c-1.67-1.66-0.49-4.51 1.87-4.51h9.52c1.75 0 3.42 0.69 4.66 1.93l8.64 8.64c0.87 0.87 2.05 1.36 3.28 1.36h4.33c2.54 0 3.81 3.07 2.01 4.87l-0.51 0.51c-0.59 0.59-1.49 0.65-2.32 0.65-1.55 0-2.82 1.26-2.82 2.82 0 1.56 1.27 2.82 2.82 2.82 1.56 0 2.82-1.26 2.82-2.82 0-0.93 0.03-1.97 0.69-2.62l2.01-2.01c2.16-2.17 5.67-2.17 7.84 0l1.67 1.67c4.98 4.98 1.45 13.49-5.59 13.49h-8.81c-3.06 0-6 1.22-8.17 3.38l-5.33 5.34c-2.45 2.45-5.78 3.83-9.24 3.83h-6.37c-2.19 0-4.25-2.11-6.43-2.11-1.56 0-2.82 1.27-2.82 2.82 0 1.56 1.26 2.82 2.82 2.82 2.18 0 4.24-2.1 6.43-2.1h6.76c3.59 0 7.05-1.43 9.59-3.97l6.18-6.18c1.53-1.53 3.61-2.39 5.78-2.39 4.52 0 8.19 3.66 8.19 8.18v0.97c0 2.43-0.97 4.76-2.69 6.47l-4.53 4.53c-0.57 0.58-1.46 0.64-2.26 0.64-1.56 0-2.83 1.27-2.83 2.82 0 1.56 1.27 2.82 2.83 2.82 1.55 0 2.82-1.26 2.82-2.82 0-0.94 0.02-2 0.69-2.67l4.6-4.6c1.79-1.79 2.8-4.23 2.8-6.77 0-5.29 4.29-9.57 9.58-9.57h1.35c5.06 0 9.15 4.09 9.15 9.15 0 2.43-0.96 4.76-2.68 6.47l-16.81 16.82c-4.15 4.14-9.77 6.47-15.62 6.47h-13.34c-2.18 0-4.24-2.1-6.42-2.1-1.56 0-2.82 1.26-2.82 2.82 0 1.55 1.26 2.82 2.82 2.82 2.18 0 4.24-2.11 6.42-2.11h2.29c6.92 0 10.39 8.37 5.5 13.27l-9.46 9.45c-0.59 0.59-1.51 0.65-2.35 0.65-1.56 0-2.82 1.27-2.82 2.82 0 1.56 1.26 2.82 2.82 2.82 1.56 0 2.82-1.26 2.82-2.82 0-0.91 0.03-1.94 0.68-2.58l23.81-23.82 18.56-18.56c4.05-4.04 10.6-4.04 14.64 0 1.94 1.94 3.03 4.58 3.03 7.32v0.85c0 3.29-1.3 6.44-3.63 8.76l-4.76 4.77c-1.89 1.89-4.45 2.94-7.11 2.94h-4.05c-2.19 0-4.25-2.1-6.43-2.1-1.56 0-2.82 1.27-2.82 2.82 0 1.56 1.26 2.82 2.82 2.82 2.18 0 4.24-2.1 6.43-2.1h4.43c2.8 0 5.49-1.11 7.47-3.09l3.19-3.19c2.86-2.86 7.5-2.86 10.36 0 1.38 1.37 2.15 3.24 2.15 5.18v11.69c0 6.55-5.31 11.85-11.85 11.85-3.14 0-6.16-1.25-8.38-3.47l-0.68-0.68c-2.66-2.66-6.27-4.16-10.04-4.16h-11.27c-2.18 0-4.25-2.1-6.43-2.1-1.55 0-2.82 1.26-2.82 2.82 0 1.56 1.27 2.82 2.82 2.82 2.18 0 4.25-2.1 6.43-2.1h10.68c3.76 0 7.37 1.49 10.03 4.15l0.56 0.57c2.3 2.3 5.42 3.59 8.68 3.59h4.91c4.06 0 7.36 3.3 7.36 7.36v6.34c0 4.22-5.11 6.33-8.09 3.35-0.89-0.89-2.1-1.39-3.35-1.39h-16.27c-2.37 0-4.65-0.94-6.33-2.63l-3.9-3.9c-0.65-0.64-0.68-1.65-0.68-2.56 0-1.56-1.26-2.82-2.82-2.82-1.56 0-2.82 1.26-2.82 2.82 0 1.56 1.26 2.82 2.82 2.82 0.84 0 1.78 0.06 2.38 0.66l4.19 4.19c1.83 1.83 4.31 2.86 6.89 2.86h13.85c2.6 0 5.08 1.03 6.92 2.86l1.73 1.73c2.86 2.86 2.86 7.5 0 10.37z"/>
		<path class="s2" d="m101.28 113.73h-10.24c-0.73 0-1.37 0.46-1.61 1.14l-1.85 5.33c-0.24 0.68-0.88 1.14-1.61 1.14h-2.89c-0.87 0-1.47-0.87-1.17-1.69l11.3-29.89c0.25-0.67 0.88-1.1 1.59-1.1h2.74c0.71 0 1.34 0.43 1.59 1.09l11.32 29.9c0.31 0.82-0.29 1.69-1.17 1.69h-2.91c-0.73 0-1.37-0.46-1.61-1.14l-1.87-5.33c-0.24-0.68-0.88-1.14-1.61-1.14zm-7.46-4.58h4.68c1.17 0 1.99-1.15 1.61-2.26l-2.35-6.7c-0.53-1.52-2.67-1.52-3.21 0l-2.34 6.7c-0.38 1.11 0.44 2.26 1.61 2.26z"/>
		<path class="s3" d="m119.63 121.34h-3.35c-0.63 0-1.15-0.52-1.15-1.15v-30.38c0-0.64 0.52-1.15 1.15-1.15h3.35c0.64 0 1.16 0.51 1.16 1.15v30.38c0 0.63-0.52 1.15-1.16 1.15z"/>
	</g>
</svg>