<svg width="165" height="139" viewBox="0 0 165 139" fill="none" xmlns="http://www.w3.org/2000/svg">
<path opacity="0.3" d="M82.4013 0C80.7204 0 79.1084 0.667723 77.9198 1.85628C76.7312 3.04484 76.0635 4.65686 76.0635 6.33774V50.7019C76.0635 52.3828 76.7312 53.9948 77.9198 55.1833C79.1084 56.3719 80.7204 57.0396 82.4013 57.0396C87.9816 57.0409 93.4057 58.8834 97.8322 62.2813C102.259 65.6793 105.44 70.4429 106.884 75.8334C108.327 81.2238 107.952 86.9399 105.815 92.0952C103.679 97.2505 99.9016 101.557 95.0686 104.347C90.2355 107.136 84.617 108.253 79.0845 107.524C73.5519 106.795 68.4144 104.262 64.4687 100.315C60.523 96.3692 57.9896 91.2315 57.2614 85.6988C56.5332 80.1662 57.6508 74.5478 60.441 69.7151C60.8573 68.9942 61.1275 68.1983 61.2361 67.3729C61.3448 66.5475 61.2898 65.7089 61.0742 64.9048C60.8587 64.1007 60.4868 63.3469 59.9799 62.6865C59.4729 62.0262 58.8409 61.4722 58.1198 61.0562L19.6973 38.8741C18.9764 38.4578 18.1805 38.1876 17.3551 38.0789C16.5297 37.9703 15.6911 38.0253 14.887 38.2409C14.0829 38.4564 13.3291 38.8283 12.6687 39.3352C12.0084 39.8421 11.4544 40.4742 11.0384 41.1953C1.97009 56.902 -1.6622 75.162 0.704807 93.1434C3.07181 111.125 11.3058 127.823 24.1299 140.648C36.9539 153.472 53.6514 161.708 71.6326 164.076C89.6139 166.444 107.874 162.813 123.581 153.746C139.289 144.678 151.565 130.682 158.507 113.926C165.449 97.1708 166.668 78.593 161.976 61.074C157.284 43.555 146.942 28.0738 132.554 17.0314C118.167 5.98893 100.538 0.00232941 82.4013 0ZM19.0952 53.1578L46.7515 69.1288C45.1777 73.3731 44.3729 77.8639 44.3748 82.3906C44.3748 83.6026 44.4382 84.7672 44.5491 85.9714L13.7002 94.2738C11.2945 80.3383 13.1757 66.0008 19.0952 53.1578ZM16.98 106.482L47.8764 98.2111C50.4596 103.842 54.3766 108.758 59.2882 112.533C64.1998 116.309 69.9578 118.83 76.0635 119.878V151.813C62.943 150.596 50.4338 145.695 39.9796 137.674C29.5253 129.653 21.552 118.84 16.98 106.482ZM88.739 151.813V119.878C97.5961 118.377 105.636 113.788 111.433 106.926C117.23 100.063 120.411 91.37 120.411 82.3866C120.411 73.4032 117.23 64.7098 111.433 57.8473C105.636 50.9847 97.5961 46.3962 88.739 44.8949V12.9607C106.058 14.543 122.161 22.5417 133.886 35.3867C145.611 48.2316 152.111 64.9951 152.111 82.3866C152.111 99.7781 145.611 116.542 133.886 129.387C122.161 142.231 106.058 150.23 88.739 151.813Z" fill="url(#paint0_linear_1155_15887)"/>
<defs>
<linearGradient id="paint0_linear_1155_15887" x1="82.3906" y1="18.0907" x2="82.3906" y2="145.707" gradientUnits="userSpaceOnUse">
<stop stop-color="#5DAD46"/>
<stop offset="1" stop-color="#26471D"/>
</linearGradient>
</defs>
</svg>
