<svg version="1.2" xmlns="http://www.w3.org/2000/svg" viewBox="0 0 705 389" width="705" height="389">
	<defs>
		<linearGradient id="g1" x2="1" gradientUnits="userSpaceOnUse" gradientTransform="matrix(0,73.088,-109.629,0,352.491,204.971)">
			<stop offset="0" stop-color="#b2df97"/>
			<stop offset="1" stop-color="#637e53"/>
		</linearGradient>
		<linearGradient id="g2" x2="1" gradientUnits="userSpaceOnUse" gradientTransform="matrix(0,10.339,-109.629,0,352.491,267.721)">
			<stop offset="0" stop-color="#b2df97"/>
			<stop offset="1" stop-color="#92d06e"/>
		</linearGradient>
	</defs>
	<style>
		.s0 { fill: #2e3841 } 
		.s1 { fill: #171e24 } 
		.s2 { fill: url(#g1) } 
		.s3 { fill: url(#g2) } 
		.s4 { fill: #556a7b } 
		.s5 { fill: #b3e1e7 } 
		.s6 { fill: #ebf2e8 } 
		.s7 { fill: none;stroke: #ffaeae } 
		.s8 { fill: #ebf2e8;stroke: #ffaeae } 
		.s9 { fill: #5d8049 } 
	</style>
	<path fill-rule="evenodd" class="s0" d="m220.19 254.44h264.61c3.57 0 6.42-2.94 6.42-6.42v-5.97c0-3.57-2.85-6.51-6.42-6.51h-264.61c-3.57 0-6.43 2.94-6.43 6.51v5.97c0 3.48 2.86 6.42 6.43 6.42z"/>
	<path fill-rule="evenodd" class="s1" d="m220.19 254.44h264.61c3.57 0 6.42-2.94 6.42-6.42h-277.46c0 3.48 2.85 6.42 6.43 6.42z"/>
	<path class="s1" d="m412.66 235.54h-120.25v18.9h120.25z"/>
	<g>
		<path class="s2" d="m352.49 204.97c15.09 0 28.84 6.15 38.75 16.13 9.9 9.9 16.06 23.62 16.06 38.69v13.9c0 2.41-1.96 4.37-4.37 4.37h-100.88c-2.41 0-4.37-1.96-4.37-4.37v-13.9c0-15.07 6.16-28.79 16.06-38.69 9.91-9.98 23.66-16.13 38.75-16.13z"/>
	</g>
	<g>
		<path class="s3" d="m407.31 267.72v5.97c0 2.41-1.97 4.37-4.38 4.37h-100.88c-2.41 0-4.37-1.96-4.37-4.37v-5.97z"/>
	</g>
	<path class="s0" d="m369.9 207.83c8.12 2.76 15.44 7.3 21.34 13.28 9.73 9.62 15.8 22.9 16.07 37.52h-0.09-18.93c-10.09 0-18.39-8.29-18.39-18.45zm-72.22 50.81c0.26-14.62 6.42-27.9 16.07-37.53 5.98-5.97 13.21-10.52 21.33-13.28v32.36c0 10.16-8.3 18.45-18.39 18.45h-18.92z"/>
	<path fill-rule="evenodd" class="s0" d="m303.93 278.06h97.13v1.07c0 5.79-4.73 10.51-10.44 10.51h-76.16c-5.8 0-10.53-4.72-10.53-10.51z"/>
	<path fill-rule="evenodd" class="s4" d="m382.58 289.65c-1.07 4.54-5.26 8.02-10.17 8.02h-39.82c-4.91 0-9.1-3.48-10.18-8.02z"/>
	<path fill-rule="evenodd" class="s0" d="m335.71 297.67h33.57v16.04c0 9.27-7.5 16.85-16.78 16.85-9.2 0-16.79-7.58-16.79-16.85z"/>
	<path fill-rule="evenodd" class="s1" d="m352.5 304.98c4.73 0 8.48 3.83 8.48 8.55 0 4.64-3.75 8.47-8.48 8.47-4.64 0-8.48-3.83-8.48-8.47 0-4.72 3.84-8.55 8.48-8.55z"/>
	<path fill-rule="evenodd" class="s5" d="m352.49 309.88c1.96 0 3.57 1.6 3.57 3.65 0 1.96-1.61 3.57-3.57 3.57-1.97 0-3.57-1.61-3.57-3.57 0-2.05 1.6-3.65 3.57-3.65z"/>
	<path fill-rule="evenodd" class="s1" d="m354.92 308.9c1.25 0 2.32 1.07 2.32 2.31 0 1.25-1.07 2.23-2.32 2.23-1.25 0-2.24-0.98-2.24-2.23 0-1.24 0.99-2.31 2.24-2.31z"/>
	<path fill-rule="evenodd" class="s1" d="m229.39 203.1c2.5 0 4.46 1.96 4.46 4.46v27.98h-8.93v-27.98c0-2.5 2.06-4.46 4.47-4.46z"/>
	<path fill-rule="evenodd" class="s1" d="m168.86 210.32h56.06v4.19h-17.49c-1.43 2.4-4.02 4.01-7.06 4.01h-23.3c-4.55 0-8.21-3.66-8.21-8.2zm112.84 8.2h-23.3c-2.94 0-5.62-1.61-7.05-4.01h-17.5v-4.19h56.07c0 4.54-3.66 8.2-8.22 8.2z"/>
	<path fill-rule="evenodd" class="s1" d="m475.61 203.1c2.5 0 4.47 1.96 4.47 4.46v27.98h-8.93v-27.98c0-2.5 1.96-4.46 4.46-4.46z"/>
	<path fill-rule="evenodd" class="s1" d="m415.09 210.32h56.06v4.19h-17.5c-1.43 2.4-4.01 4.01-7.05 4.01h-23.3c-4.55 0-8.21-3.66-8.21-8.2zm112.84 8.2h-23.3c-3.04 0-5.63-1.61-7.05-4.01h-17.5v-4.19h56.06c0 4.54-3.66 8.2-8.21 8.2z"/>
	<g>
		<path class="s6" d="m219.56 57.45l-2.68 68.35 23.18-13.15c0 0 8.07 53.63 8.49 51.34 0.41-2.29 23.55-25.73 23.55-25.73l-11.34 57.42 35.39-30 10.52 25.36 0.87-49.91-30.91 27.14 24.66-83.21-41.04 44.31 15.42-65-36.3 22.39 33.31-72.28z"/>
		<path class="s7" d="m238.92 86.55l-0.69 1.5 1.41-0.87 35.26-21.75-15.14 63.83-0.44 1.85 1.29-1.4 39.59-42.74-24.05 81.16-0.49 1.66 1.3-1.14 30.06-26.4-0.81 46.38-9.6-23.14-0.26-0.63-0.53 0.44-34.29 29.08 11.06-56.03 0.32-1.63-1.17 1.18q0 0.01 0 0.01 0 0-0.01 0.01-0.02 0.02-0.05 0.05-0.07 0.07-0.2 0.2-0.25 0.26-0.73 0.75c-0.64 0.64-1.54 1.57-2.63 2.69-2.18 2.23-5.08 5.24-8 8.31-2.92 3.08-5.86 6.23-8.09 8.75-1.12 1.27-2.06 2.38-2.75 3.25q-0.37 0.47-0.63 0.86-0.05-0.2-0.1-0.44c-0.26-1.24-0.6-3.14-1.01-5.49-0.82-4.7-1.86-11.19-2.9-17.75-1.03-6.56-2.06-13.19-2.82-18.18-0.38-2.5-0.7-4.58-0.92-6.05q-0.17-1.1-0.26-1.69-0.04-0.3-0.06-0.45-0.02-0.08-0.02-0.12 0-0.02-0.01-0.03 0 0 0 0v-0.01c0 0-0.01 0-0.49 0.08l0.49-0.08-0.11-0.72-0.63 0.36-22.39 12.71 2.63-67.22 51.28-41.49z"/>
	</g>
	<g>
		<path class="s6" d="m482.66 401.42l-45.32-39.51 20.46-6.66c0 0-30.29-37.4-28.6-36.29 1.69 1.12 28.75 0.69 28.75 0.69l-42.79-27.47 37.62-4.19-10.85-21.91 32.54 29.54-33.46 3.09 66.25 34.64-49.75-0.88 49.77 29.47-33.19 9.35 63.72 22.6z"/>
		<path class="s7" d="m473.92 371.76l-1.48-0.53 1.51-0.42 32.07-9.03-48.76-28.88-1.63-0.96 1.89 0.03 47.63 0.84-64.38-33.65-1.5-0.79 1.69-0.16 32.33-2.98-29.73-27 9.67 19.54 0.32 0.64-0.71 0.08-36.22 4.03 41.6 26.71 1.39 0.9-1.65 0.02h-0.01q0 0 0 0 0 0-0.01 0-0.02 0.01-0.06 0-0.08 0.01-0.23 0.01-0.3 0-0.86 0.01c-0.75 0.01-1.81 0.02-3.09 0.03-2.57 0.03-6 0.05-9.5 0.03-3.48-0.02-7.03-0.07-9.82-0.18-1.39-0.06-2.6-0.14-3.51-0.24q-0.35-0.03-0.65-0.07 0.06 0.08 0.13 0.17c0.66 0.91 1.7 2.27 3 3.95 2.6 3.34 6.23 7.91 9.91 12.52 3.68 4.6 7.41 9.24 10.22 12.73 1.41 1.75 2.59 3.2 3.41 4.22q0.63 0.77 0.96 1.19 0.17 0.2 0.25 0.31 0.05 0.05 0.07 0.08 0.01 0.01 0.01 0.02 0.01 0.01 0.01 0.01c0 0-0.01 0-0.39 0.31l0.39-0.31 0.46 0.56-0.69 0.23-19.63 6.38 44.48 38.78 52.89-7.22z"/>
	</g>
	<g>
		<path class="s6" d="m681.17 401.48l-91.5-16.98 22.04-24.98c0 0-69.82-26.01-66.69-25.85 3.13 0.16 38.86-21.71 38.86-21.71l-78.65-2.94 46.84-35.19-31.7-20.66 66.61 13.75-42.16 30.46 115.56-5.99-66.99 37.99 89.53 0.1-36.89 38.59 102.72-20.03z"/>
		<path class="s7" d="m646.13 368.56l-1.55 0.3 1.09-1.13 36.09-37.75-88.37-0.1h-1.89l1.64-0.94 65.16-36.94-113.46 5.88-1.69 0.09 1.37-0.99 41.25-29.8-62.92-12.99 29.5 19.22 0.6 0.39-0.58 0.43-45.72 34.34 77.25 2.89 1.65 0.06-1.41 0.86-0.26-0.42c0.24 0.38 0.26 0.42 0.26 0.42v0.01q0 0-0.01 0 0 0-0.01 0.01-0.03 0.02-0.08 0.05-0.1 0.06-0.3 0.18-0.4 0.24-1.14 0.69c-0.98 0.6-2.39 1.46-4.09 2.48-3.4 2.05-7.97 4.78-12.63 7.51-4.67 2.72-9.43 5.44-13.23 7.48-1.9 1.01-3.56 1.86-4.85 2.45q-0.87 0.4-1.52 0.63 0.39 0.18 0.91 0.4c1.6 0.7 4.06 1.7 7.11 2.9 6.11 2.42 14.54 5.65 23.07 8.9 8.53 3.24 17.16 6.48 23.65 8.92 3.25 1.22 5.97 2.23 7.87 2.94q1.43 0.54 2.21 0.83 0.38 0.14 0.58 0.22 0.1 0.03 0.15 0.05 0.03 0.01 0.04 0.02 0.01 0 0.01 0c0 0 0 0-0.17 0.47l0.17-0.47 0.68 0.26-0.48 0.54-21.45 24.32 90.41 16.78 65.79-52.03z"/>
	</g>
	<g>
		<path class="s6" d="m9.49 401.48l91.5-16.98-22.04-24.98c0 0 69.82-26.01 66.69-25.85-3.13 0.16-38.86-21.71-38.86-21.71l78.65-2.94-46.84-35.19 31.7-20.66-66.61 13.75 42.16 30.46-115.56-5.99 66.99 37.99-89.53 0.1 36.89 38.59-102.72-20.03z"/>
		<path class="s7" d="m44.53 368.56l1.55 0.3-1.09-1.13-36.09-37.75 88.37-0.1h1.89l-1.64-0.94-65.16-36.94 113.46 5.88 1.69 0.09-1.37-0.99-41.25-29.8 62.92-12.99-29.5 19.22-0.59 0.39 0.57 0.43 45.72 34.34-77.25 2.89-1.65 0.06 1.41 0.86 0.26-0.42c-0.23 0.38-0.26 0.42-0.26 0.42v0.01q0 0 0.01 0 0 0 0.02 0.01 0.02 0.02 0.07 0.05 0.1 0.06 0.3 0.18 0.4 0.24 1.14 0.69c0.99 0.6 2.39 1.46 4.09 2.48 3.4 2.05 7.97 4.78 12.63 7.51 4.67 2.72 9.43 5.44 13.23 7.48 1.9 1.01 3.56 1.86 4.85 2.45q0.87 0.4 1.52 0.63-0.39 0.18-0.91 0.4c-1.6 0.7-4.06 1.7-7.12 2.9-6.1 2.42-14.53 5.65-23.06 8.9-8.53 3.24-17.16 6.48-23.65 8.92-3.25 1.22-5.97 2.23-7.87 2.94q-1.43 0.54-2.21 0.83-0.38 0.14-0.58 0.22-0.1 0.03-0.15 0.05-0.03 0.01-0.04 0.02-0.01 0-0.01 0c0 0 0 0 0.17 0.47l-0.17-0.47-0.68 0.26 0.48 0.54 21.45 24.32-90.41 16.78-65.78-52.03z"/>
	</g>
	<g>
		<path class="s8" d="m515.4 10.87l-38.05 81.85-60.73-15.13-0.65-0.16 0.03 0.67 0.44 12.25 0.01 0.49 0.49-0.01 24.39-0.39 2.32 74.87-62.83-23.03-0.71-0.26 0.04 0.76 0.5-0.03-0.5 0.03q0 0.01 0 0.01 0 0.01 0 0.03 0.01 0.04 0.01 0.11 0.01 0.15 0.03 0.43 0.03 0.58 0.08 1.65c0.08 1.42 0.19 3.46 0.32 5.9 0.26 4.9 0.6 11.44 0.91 18.05 0.32 6.61 0.62 13.29 0.79 18.44 0.09 2.58 0.15 4.77 0.16 6.38q0.01 0.43 0.01 0.8-0.19-0.54-0.42-1.23c-0.74-2.27-1.77-5.62-2.99-9.72-2.43-8.19-5.62-19.31-8.79-30.49-3.16-11.19-6.31-22.44-8.66-30.89-1.18-4.23-2.16-7.76-2.84-10.23q-0.49-1.77-0.77-2.76l65.65 35 0.76 0.41-0.02-0.86-0.97-44.13-0.02-0.92-0.76 0.51-17.21 11.63-7.79-41.76 66.86 4.52 0.48 0.04 0.05-0.49 7.13-72.18z"/>
		<path class="s8" d="m457.62 68.45l-47.4-3.48 50.02-6.42z"/>
		<path class="s8" d="m416.31 121.84l1.66 13.55-47.44-28.82z"/>
		<path class="s8" d="m449.36 111.37c0.44 2.28 1 5.45 1.65 9.23 1.29 7.55 2.91 17.49 4.48 27.38 1.58 9.9 3.13 19.75 4.27 27.12 0.58 3.69 1.05 6.76 1.38 8.9q0.25 1.61 0.39 2.48l-32.64-14.34 20.27 0.6 0.53 0.01-0.02-0.52q0.01-0.01 0-0.01 0 0 0-0.01 0-0.01 0-0.03 0-0.05 0-0.14 0-0.19-0.01-0.56-0.02-0.73-0.04-2.1c-0.04-1.81-0.09-4.39-0.14-7.48-0.11-6.19-0.25-14.42-0.35-22.61-0.1-8.19-0.16-16.33-0.13-22.33 0.01-2.81 0.05-5.15 0.12-6.8q0.11 0.55 0.24 1.21z"/>
	</g>
	<g>
		<path class="s8" d="m187.65 418.05l46.83-50.92-28.87-40.02-0.39-0.54 0.62-0.23 8.87-3.16 0.46-0.17 0.17 0.46 6.97 17.85 53.8-19.52-35.07-39.25-0.5-0.57 0.72-0.24q0 0 0 0 0.01 0 0.02-0.01 0.03-0.01 0.09-0.03 0.1-0.03 0.31-0.1 0.42-0.14 1.2-0.41c1.04-0.34 2.52-0.84 4.3-1.44 3.57-1.21 8.33-2.82 13.14-4.47 4.81-1.65 9.66-3.33 13.38-4.67 1.85-0.66 3.42-1.24 4.57-1.68q-0.18 0-0.37 0.01c-1.84 0.1-4.54 0.31-7.82 0.58-6.56 0.55-15.44 1.38-24.36 2.25-8.92 0.87-17.88 1.77-24.61 2.46-3.36 0.34-6.17 0.63-8.14 0.83q-1.18 0.12-1.93 0.2l44.37 37.87 0.65 0.55-0.8 0.3-31.75 11.84-0.84 0.32 0.17-0.88 3.12-15.74-31.79 6.13 23.13 47.45 0.21 0.44-0.43 0.22-49.22 25.69z"/>
		<path class="s8" d="m211.29 359.59l-16.07-32.52 10 37.09z"/>
		<path class="s8" d="m237.21 314.11l9.86-2.57-33.7-25.7z"/>
		<path class="s8" d="m239.55 341.26c1.75-0.32 4.19-0.81 7.07-1.41 5.77-1.21 13.33-2.85 20.86-4.52 7.52-1.66 15.01-3.33 20.6-4.59 2.8-0.63 5.13-1.15 6.77-1.52q1.03-0.24 1.67-0.38l-19.39-19.21 6.23 14.09 0.21 0.48-0.5 0.19-0.17-0.47c0.17 0.47 0.17 0.47 0.17 0.47q0 0 0 0-0.01 0-0.03 0.01-0.03 0.01-0.1 0.04-0.14 0.05-0.4 0.15-0.53 0.2-1.51 0.56c-1.3 0.49-3.15 1.19-5.38 2.03-4.44 1.68-10.35 3.92-16.22 6.18-5.86 2.26-11.69 4.52-15.95 6.26-1.57 0.63-2.93 1.2-4 1.66q0.04-0.01 0.07-0.02z"/>
	</g>
	<g>
		<path class="s6" d="m-16.38 59.79l54.7 112.69 33.39-88.39 41.93 33.09-47.4 29.98 49.05 36.98 48.29-33.52 24.48 43.17-21.14-71.91-38.64 25.98-10.39-7.35 31.15-23.93-99.83-81.95-7.3 77.69-12.68-56.19z"/>
		<path class="s7" d="m164.02 150.38l-0.27-0.48-0.45 0.31-48 33.31-48.18-36.32 46.78-29.6 0.6-0.37-0.56-0.44-41.92-33.1-0.54-0.42-0.24 0.64-32.98 87.3-53.87-110.98 44.45-3.57 12.59 55.77 0.98-0.06 7.21-76.76 98.62 80.95-30.65 23.55-0.54 0.41 0.55 0.4 10.39 7.35 0.28 0.2 0.28-0.19 38.09-25.6 19.71 67.1z"/>
	</g>
	<g>
		<path class="s6" d="m738.53 59.79l-54.69 112.69-33.39-88.39-41.93 33.09 47.39 29.98-49.04 36.98-48.29-33.52-24.48 43.17 21.13-71.91 38.65 25.98 10.39-7.35-31.16-23.93 99.84-81.95 7.29 77.69 12.68-56.19z"/>
		<path class="s7" d="m558.14 150.38l0.27-0.48 0.45 0.31 47.99 33.31 48.18-36.32-46.78-29.6-0.59-0.37 0.55-0.44 41.93-33.1 0.53-0.42 0.24 0.64 32.98 87.3 53.88-110.98-44.45-3.57-12.59 55.77-0.99-0.06-7.2-76.76-98.62 80.95 30.65 23.55 0.54 0.41-0.56 0.4-10.38 7.35-0.28 0.2-0.29-0.19-38.08-25.6-19.72 67.1z"/>
	</g>
	<path class="s9" d="m292.73 366.78q-2.3 0-3.55-1.13-1.23-1.14-1.33-2.96h1.41q0.29 2.94 3.54 2.94 1.23 0 1.96-0.54 0.76-0.56 0.76-1.6 0-0.47-0.18-0.82-0.18-0.35-0.43-0.57-0.24-0.23-0.74-0.42-0.49-0.19-0.93-0.3-0.41-0.12-1.15-0.28-0.88-0.19-1.45-0.38-0.58-0.21-1.16-0.56-0.57-0.35-0.86-0.9-0.27-0.56-0.27-1.34 0-1.41 1.05-2.21 1.08-0.81 2.84-0.81 3.85-0.01 4.33 3.56h-1.36q-0.16-1.21-0.91-1.82-0.75-0.62-2.03-0.62-1.19 0-1.89 0.48-0.69 0.47-0.69 1.36 0 0.38 0.15 0.68 0.16 0.29 0.4 0.5 0.25 0.19 0.65 0.35 0.42 0.16 0.82 0.27 0.4 0.1 0.97 0.21 0.8 0.16 1.32 0.31 0.51 0.12 1.13 0.4 0.63 0.27 0.96 0.62 0.35 0.35 0.59 0.93 0.26 0.56 0.26 1.31 0 1.57-1.17 2.46-1.15 0.88-3.04 0.88zm12.1-1.24q-1.09 1.24-2.9 1.24-1.81 0-2.91-1.24-1.09-1.25-1.09-3.11 0-1.86 1.09-3.1 1.1-1.25 2.91-1.25 1.81 0 2.9 1.25 1.09 1.24 1.09 3.1 0 1.86-1.09 3.11zm-4.88-0.76q0.7 0.92 1.98 0.92 1.28 0 1.97-0.92 0.69-0.93 0.69-2.35 0-1.44-0.71-2.35-0.68-0.93-1.95-0.93-1.28 0-1.98 0.93-0.69 0.93-0.69 2.35 0 1.42 0.69 2.35zm6.57-5.44v-1.05h1.14v-1.33q0-1.03 0.56-1.47 0.56-0.47 1.63-0.47 0.31 0 0.66 0.04v1.1q-0.23-0.02-0.42-0.02-0.62 0-0.88 0.2-0.25 0.19-0.25 0.68v1.27h1.53v1.05h-1.53v7.22h-1.3v-7.22zm4.55 0v-1.05h1.2v-2.61h1.29v2.61h1.6v1.05h-1.6v5.38q0 0.77 0.84 0.77 0.35 0 0.68-0.11h0.05v1.12q-0.53 0.11-1.04 0.11-1.82 0-1.82-1.6v-5.67zm7.71 3.4v-1.19h4.28v1.19zm5.97 3.82v-11.44h1.44v5.68l5.63-5.68h1.81l-4.63 4.58 5.01 6.86h-1.68l-4.3-5.89-1.84 1.84v4.05zm10.1 0v-8.27h1.3v8.27zm0-9.84v-1.6h1.29v1.6zm3.11 9.84v-11.44h1.3v11.44zm3.16 0v-11.44h1.29v11.44zm5.03 0l4.55-11.44h1.34l-4.54 11.44zm12.41 0.22q-3.36 0-3.36-3.77v-0.16h1.42v0.11q0 1.47 0.47 2.06 0.48 0.58 1.52 0.58 1.82 0 1.82-2.03v-8.45h1.44v8.54q0 1.43-0.86 2.28-0.85 0.84-2.45 0.84zm11.61-0.14q-1.23 0-1.42-1.23h-0.02q-1.02 1.31-2.75 1.31-1.23 0-2.01-0.59-0.79-0.6-0.79-1.71 0-0.58 0.18-1 0.19-0.43 0.48-0.68 0.29-0.28 0.78-0.47 0.52-0.21 0.98-0.3 0.46-0.12 1.18-0.23 0.47-0.06 0.66-0.09 0.21-0.05 0.53-0.13 0.32-0.1 0.44-0.21 0.13-0.11 0.24-0.3 0.12-0.2 0.12-0.45 0-0.71-0.5-1.07-0.48-0.39-1.36-0.39-2 0-2.06 1.83h-1.25q0.03-1.27 0.86-2.03 0.85-0.77 2.43-0.77 3.06 0 3.06 2.62v3.94q0 0.54 0.18 0.77 0.19 0.22 0.7 0.11h0.05v0.94q-0.32 0.13-0.71 0.13zm-3.9-0.91q1.2 0 1.86-0.69 0.65-0.71 0.65-1.54v-1.4q-0.59 0.36-1.89 0.6-0.48 0.1-0.75 0.16-0.27 0.05-0.62 0.2-0.35 0.12-0.53 0.28-0.18 0.16-0.3 0.44-0.13 0.25-0.13 0.6 0 1.35 1.71 1.35zm5.56 0.83v-8.27h1.3v1.18h0.03q0.4-0.62 1.04-0.99 0.64-0.38 1.39-0.38 1.62-0.01 2.16 1.47h0.04q0.38-0.69 1.07-1.07 0.69-0.41 1.45-0.4 1.14-0.01 1.83 0.7 0.69 0.69 0.69 1.95v5.81h-1.3v-5.74q0-0.76-0.45-1.19-0.43-0.45-1.07-0.45-0.82 0-1.42 0.64-0.61 0.64-0.61 1.59v5.15h-1.3v-5.74q0-0.76-0.4-1.19-0.38-0.45-1.02-0.45-0.8 0-1.47 0.66-0.66 0.64-0.66 1.57v5.15zm12.7 0v-8.27h1.3v1.18h0.03q0.4-0.62 1.04-0.99 0.64-0.38 1.39-0.38 1.62-0.01 2.16 1.47h0.04q0.38-0.69 1.07-1.07 0.69-0.41 1.45-0.4 1.14-0.01 1.83 0.7 0.69 0.69 0.69 1.95v5.81h-1.3v-5.74q0-0.76-0.45-1.19-0.43-0.45-1.07-0.45-0.82 0-1.42 0.64-0.61 0.64-0.61 1.59v5.15h-1.3v-5.74q0-0.76-0.4-1.19-0.38-0.45-1.02-0.45-0.8 0-1.47 0.66-0.66 0.64-0.66 1.57v5.15zm12.7 0v-8.27h1.3v8.27zm0-9.84v-1.6h1.3v1.6zm4.35 1.57v1.09h0.04q0.96-1.29 2.62-1.28 1.31-0.01 2.05 0.68 0.73 0.69 0.73 1.97v5.81h-1.29v-5.7q0-0.8-0.5-1.23-0.49-0.45-1.37-0.45-1 0-1.64 0.64-0.64 0.64-0.64 1.65v5.09h-1.29v-8.27zm10.45 11.02q-1.58 0-2.49-0.61-0.9-0.59-1.01-1.68h1.2q0.17 1.27 2.27 1.27 2.37 0 2.37-2.13v-1.17h-0.03q-0.5 0.64-1.06 0.96-0.56 0.32-1.39 0.32-1.6 0-2.61-1.15-1.01-1.15-1.01-2.94 0-1.88 1.01-2.98 1.02-1.1 2.53-1.1 1.63 0 2.53 1.24h0.03v-1.05h1.29v7.82q0 1.58-0.97 2.39-0.96 0.81-2.66 0.81zm-0.08-4.13q2.51 0 2.51-3.07 0-2.93-2.52-2.93-1.14 0-1.75 0.82-0.59 0.81-0.59 2.19 0 1.38 0.61 2.19 0.61 0.8 1.74 0.8z"/>
</svg>