<svg width="167" height="123" viewBox="0 0 167 123" fill="none" xmlns="http://www.w3.org/2000/svg">
<path opacity="0.3" d="M0.000411987 7.09192V63.8273C0.000411987 65.7082 0.747589 67.512 2.07759 68.842C3.40758 70.172 5.21144 70.9192 7.09233 70.9192C8.97324 70.9192 10.7771 70.172 12.1071 68.842C13.4371 67.512 14.1843 65.7082 14.1843 63.8273V24.21L87.1778 97.2125C87.8365 97.8719 88.6187 98.395 89.4796 98.7519C90.3405 99.1088 91.2634 99.2924 92.1954 99.2924C93.1274 99.2924 94.0502 99.1088 94.9112 98.7519C95.7721 98.395 96.5543 97.8719 97.2129 97.2125L127.655 66.7616L186.465 125.58C187.795 126.911 189.6 127.659 191.482 127.659C193.364 127.659 195.169 126.911 196.5 125.58C197.831 124.249 198.578 122.445 198.578 120.563C198.578 118.681 197.831 116.876 196.5 115.545L132.673 51.7178C132.014 51.0584 131.232 50.5354 130.371 50.1785C129.51 49.8216 128.587 49.6379 127.655 49.6379C126.723 49.6379 125.8 49.8216 124.939 50.1785C124.078 50.5354 123.296 51.0584 122.637 51.7178L92.1954 82.1688L24.2105 14.1838H63.8277C65.7086 14.1838 67.5125 13.4367 68.8425 12.1067C70.1724 10.7767 70.9196 8.97281 70.9196 7.09192C70.9196 5.21103 70.1724 3.40717 68.8425 2.07718C67.5125 0.747184 65.7086 0 63.8277 0H7.09233C5.21144 0 3.40758 0.747184 2.07759 2.07718C0.747589 3.40717 0.000411987 5.21103 0.000411987 7.09192Z" fill="url(#paint0_linear_1155_15882)"/>
<defs>
<linearGradient id="paint0_linear_1155_15882" x1="99.2893" y1="14.0151" x2="99.2893" y2="112.882" gradientUnits="userSpaceOnUse">
<stop stop-color="#5DAD46"/>
<stop offset="1" stop-color="#26471D"/>
</linearGradient>
</defs>
</svg>
