<svg width="322" height="321" viewBox="0 0 322 321" fill="none" xmlns="http://www.w3.org/2000/svg">
<path d="M227.638 24.7402C227.737 26.8296 228.187 28.8655 229.132 30.7181C229.595 31.6177 230.201 32.4638 230.908 33.1969L227.982 32.6338C227.098 31.3371 226.785 29.6924 226.903 28.1312C226.979 26.9744 227.26 25.8471 227.638 24.7402Z" fill="#F5B691"/>
<path d="M193.663 161.467C195.105 164.988 196.415 168.561 197.567 172.144C197.519 172.143 197.474 172.151 197.426 172.15C196.703 172.175 195.97 172.146 195.264 171.998C194.607 171.869 194.101 171.573 193.516 171.262C192.796 170.88 192.082 170.479 191.344 170.157C192.22 167.29 192.987 164.394 193.663 161.467Z" fill="#C1B8DB"/>
<path d="M241.008 172.602C240.419 171.262 239.449 170.065 238.188 169.355C229.792 170.167 221.565 169.542 213.115 168.257C210.112 162.559 206.66 157.101 202.799 151.943C202.476 151.51 202.131 151.061 201.666 150.785C201.192 150.511 200.557 150.445 200.121 150.76C199.964 150.882 199.848 151.026 199.773 151.19L199.753 151.184C198.818 149.547 197.826 147.854 196.273 146.78C196.24 146.758 196.197 146.727 196.156 146.707C195.442 146.258 194.388 146.069 193.902 146.676C193.372 145.722 193.032 145.301 192.38 145.087C191.627 144.844 190.75 145.114 190.254 145.722C189.953 146.097 189.808 146.558 189.781 147.035C189.236 147.161 188.787 147.61 188.578 148.129C188.357 148.688 188.384 149.316 188.526 149.895C188.676 150.473 188.943 151.011 189.2 151.551L189.174 151.565C190.791 154.791 192.279 158.096 193.656 161.458L193.658 161.467C195.101 164.989 196.411 168.562 197.561 172.144C197.514 172.144 197.468 172.151 197.421 172.15C196.698 172.176 195.965 172.146 195.258 171.999C194.602 171.87 194.095 171.574 193.511 171.263C192.791 170.881 192.076 170.48 191.338 170.158C190.92 169.988 190.496 169.836 190.061 169.726C188.834 169.416 187.433 169.506 186.437 170.279C185.998 170.622 185.377 171.376 185.521 171.974C185.622 172.38 185.85 172.755 186.166 173.04C186.504 173.347 186.946 173.495 187.349 173.687C188.175 174.078 188.984 174.482 189.796 174.903C189.921 174.966 190.037 175.03 190.161 175.093C191.886 176.022 193.578 177.033 195.203 178.14C197.276 179.536 199.262 181.08 201.495 182.202C202.898 182.914 204.432 183.462 205.988 183.656C211.006 185.668 215.477 187.533 220.7 188.895C225.289 190.096 229.947 191.048 234.644 191.739C237.092 190.583 239.048 188.466 240.245 186.022C241.522 183.441 241.999 180.512 241.946 177.631C241.922 175.915 241.704 174.168 241.008 172.602Z" fill="#F5B691"/>
<path d="M226.651 71.8843C230.679 70.8994 234.255 68.5967 237.731 66.3216C242.171 63.4114 247.682 59.0428 251.003 54.8965C248.968 60.1545 244.75 66.5782 240.256 69.98C239.757 70.3622 239.238 70.7293 238.712 71.0688C234.963 73.5626 230.659 75.2211 226.203 75.8761C226.383 74.5589 226.543 73.2357 226.642 71.8861L226.651 71.8843Z" fill="#F5B691"/>
<path d="M257.219 52.6812C256.461 53.2514 255.57 53.6 254.639 53.785L254.62 53.7881C254.499 53.1673 254.105 52.5952 253.555 52.2683C254.201 52.0773 254.8 51.7335 255.285 51.269C255.569 51.01 255.822 50.6813 255.859 50.3064C255.905 49.9296 255.713 49.539 255.407 49.31C255.265 49.2031 255.089 49.1214 254.913 49.0865C255.235 48.613 255.597 48.1515 256.076 47.8204C256.666 47.422 257.48 47.276 258.086 47.6497C258.596 47.9646 258.848 48.5811 258.906 49.1754C259.043 50.5215 258.3 51.8549 257.219 52.6812Z" fill="#F2987C"/>
<path d="M225.368 59.4178L225.611 59.5632C225.866 59.8294 225.848 60.2579 225.671 60.5824C225.5 60.8961 225.2 61.1202 224.909 61.3419C223.972 62.0198 222.992 62.6675 221.878 62.9896C220.765 63.3207 219.503 63.2913 218.523 62.673C217.675 62.1538 217.117 61.2524 216.815 60.3048C216.507 59.3769 216.43 58.4179 216.352 57.4492L224.139 58.9383C224.571 59.0314 224.985 59.1835 225.368 59.4178Z" fill="white"/>
<path d="M227.644 24.7429C227.265 25.8498 226.985 26.9771 226.909 28.1339C226.791 29.695 227.104 31.3397 227.988 32.6365L223.849 31.8367C221.362 31.4028 218.805 31.0008 215.93 30.5604C217.132 30.1469 218.057 29.1404 218.66 28.0215C219.295 26.8215 219.615 25.4887 219.977 24.1865C220.572 22.0202 221.304 19.8767 222.264 17.8535C223.08 16.1294 224.056 14.5094 225.267 13.0366C227.897 9.83549 232.365 7.03344 236.504 6.82192C237.554 6.77565 238.605 6.78646 239.65 6.873C242.443 7.11937 245.187 7.82844 247.769 8.95395C243.482 8.33201 239.029 9.9034 235.653 12.6327C232.202 15.4138 229.78 19.3053 228.134 23.4167C227.958 23.8554 227.792 24.3007 227.644 24.7429Z" fill="#C1B8DB"/>
<path d="M222.077 4.42997C223.129 4.61024 224.162 4.88847 225.181 5.19733L224.938 6.27057C219.409 7.25967 214.456 11.0556 212.035 16.1087C209.334 18.2263 206.201 20.9977 203.996 23.6694C202.329 18.686 203.799 12.8488 207.448 9.0594C211.136 5.22498 216.834 3.53521 222.077 4.42997Z" fill="#3F3574"/>
<path d="M225.185 5.19727C227.441 5.87089 229.666 6.69173 231.995 6.98378C232.603 7.05469 233.215 7.09615 233.822 7.11057L233.819 7.09254C234.701 6.95373 235.601 6.85879 236.501 6.82093C232.363 7.03185 227.894 9.83451 225.264 13.0356C224.054 14.5084 223.077 16.1291 222.261 17.8525C219.26 20.4586 215.754 25.7341 214.07 30.2679C213.642 31.4121 213.328 32.5075 213.176 33.5081C212.433 32.3657 211.825 31.1326 211.379 29.8521C209.874 25.6145 209.969 20.8072 211.772 16.6771C211.851 16.4836 211.94 16.2973 212.039 16.1098C214.46 11.0568 219.412 7.2608 224.942 6.2717L225.185 5.19727Z" fill="#3F3574"/>
<path d="M260.483 49.355C260.495 49.0035 260.471 48.6579 260.409 48.31C260.117 46.7278 258.924 45.288 257.359 44.9347C255.821 44.5765 253.997 45.687 253.5 47.1839C251.272 46.8264 249.032 47.9831 247.382 49.5347C245.717 51.1079 244.493 53.0843 243.009 54.8239C241.517 56.5744 239.117 58.4204 236.855 58.7683C237.661 58.5676 238.433 58.1836 239.167 57.5328C240.749 56.1345 241.354 53.967 241.877 51.9269L244.624 41.194C244.786 40.5697 244.803 39.9243 244.693 39.3107C244.542 38.4683 244.145 37.6703 243.53 37.0339C243.25 36.7346 242.932 36.4889 242.593 36.2852C243.684 36.5718 244.553 37.4179 245.259 38.3024C245.98 39.2128 246.594 40.2181 247.469 40.9873C248.869 42.2108 250.758 42.6855 252.575 43.1253C255.785 43.9023 259.004 44.6775 262.212 45.4455C263.022 45.8012 261.293 49.7101 260.492 49.3526L260.483 49.355Z" fill="#C1B8DB"/>
<path d="M237.079 36.0627C234.744 36.0555 232.545 34.9084 230.907 33.1988C230.2 32.4657 229.594 31.6196 229.131 30.72C228.186 28.8674 227.736 26.8315 227.637 24.7422C227.785 24.2999 227.95 23.8546 228.127 23.4165C229.772 19.3051 232.194 15.4142 235.646 12.6326C239.022 9.90261 243.474 8.33183 247.762 8.95377C250.76 10.2409 253.529 12.0887 255.874 14.3716L255.914 14.3361C258.289 16.9441 260.216 19.9535 261.573 23.2068C264.488 30.2062 264.706 38.2927 262.207 45.4478C258.999 44.6798 255.78 43.9046 252.571 43.1277C250.754 42.6872 248.865 42.2131 247.464 40.9896C246.59 40.2198 245.975 39.2151 245.255 38.3047C244.549 37.4202 243.679 36.5741 242.589 36.2875C242.239 36.076 241.872 35.9245 241.484 35.8146C239.686 35.3236 238.02 34.8843 236.457 34.4931C236.647 35.025 236.854 35.5453 237.079 36.0627Z" fill="#3F3574"/>
<path d="M251.91 55.3047C252.858 55.6358 253.892 55.7151 254.884 55.5571C252.805 57.9319 250.974 60.4233 250.164 64.3472C250.442 61.3018 251.046 58.2365 251.91 55.3047Z" fill="#3F3574"/>
<path d="M227.984 32.6372L230.91 33.2003C232.548 34.9105 234.747 36.057 237.082 36.0642C236.857 35.5468 236.65 35.0264 236.46 34.4934C238.023 34.8846 239.689 35.3239 241.487 35.8148C241.875 35.9248 242.242 36.0762 242.592 36.2877C242.931 36.4915 243.249 36.7372 243.529 37.0365C244.144 37.6728 244.542 38.4709 244.692 39.3133C244.802 39.9269 244.785 40.5722 244.623 41.1966L241.876 51.9295C241.352 53.9696 240.749 56.1371 239.166 57.5354C238.432 58.1862 237.66 58.5702 236.855 58.7709C235.325 59.1483 233.669 58.8682 231.838 58.5065C221.7 55.7092 219.765 55.8757 210.066 54.2094C209.451 54.1018 208.799 53.9918 208.115 53.8686C206.31 53.5489 204.828 52.2366 204.288 50.4813L203.762 48.7609C203.591 48.2249 203.518 47.6612 203.55 47.0982L204.117 34.2609C204.182 32.5675 205.119 31.0394 206.593 30.1993C207.091 29.9211 207.623 29.7222 208.172 29.6236C208.703 29.5287 209.251 29.5251 209.794 29.6074C210.34 29.6987 210.863 29.7751 211.378 29.8532C211.825 31.1337 212.433 32.3668 213.176 33.5091C213.328 32.5086 213.641 31.4131 214.07 30.269C214.703 30.373 215.325 30.4697 215.927 30.5604C218.802 31.0003 221.359 31.4029 223.845 31.8368L227.984 32.6372Z" fill="#7561AB"/>
<path d="M224.148 58.9361L216.36 57.447C216.439 58.4157 216.516 59.3747 216.824 60.3025C217.125 61.2502 217.684 62.1515 218.532 62.6707C219.512 63.2891 220.774 63.3185 221.886 62.9874C223 62.6653 223.981 62.0175 224.917 61.3397C225.208 61.1174 225.509 60.8938 225.679 60.5802C225.857 60.2557 225.875 59.8272 225.62 59.561L225.376 59.4156C224.994 59.1812 224.58 59.0292 224.148 58.9361ZM258.909 49.1748C258.85 48.5805 258.597 47.9646 258.088 47.6491C257.483 47.2754 256.668 47.4214 256.078 47.8198C255.598 48.1509 255.237 48.6124 254.915 49.0859C255.092 49.1207 255.267 49.2025 255.409 49.3094C255.714 49.5384 255.907 49.929 255.861 50.3058C255.825 50.6807 255.572 51.0094 255.287 51.2684C254.803 51.7329 254.203 52.0766 253.557 52.2677C254.107 52.5946 254.502 53.1661 254.622 53.7874L254.641 53.7844C255.572 53.5993 256.463 53.2508 257.221 52.6806C258.302 51.8537 259.046 50.5203 258.909 49.1748ZM260.417 48.3101C260.479 48.6581 260.503 49.0036 260.49 49.3551C260.458 50.5984 259.98 51.8369 259.226 52.85C258.296 54.0933 256.954 55.0421 255.446 55.4345C255.266 55.4856 255.083 55.5181 254.891 55.5529C253.899 55.7116 252.864 55.6322 251.917 55.3005C251.605 55.196 251.298 55.0614 251.013 54.8955C247.693 59.0418 242.181 63.4105 237.741 66.3207C234.265 68.5957 230.69 70.8984 226.662 71.8833L226.653 71.8851C223.365 72.6807 219.679 72.4614 216.8 70.7848C216.14 70.4213 215.529 69.9634 214.97 69.4304C212.633 67.1932 211.631 63.9146 211.08 60.7256C210.795 59.0851 210.435 57.0708 210.074 54.2069C219.773 55.8732 221.708 55.7068 231.846 58.504C233.677 58.8663 235.334 59.1464 236.863 58.7684C239.125 58.4205 241.525 56.5739 243.016 54.824C244.5 53.0844 245.725 51.108 247.39 49.5348C249.039 47.9832 251.28 46.8265 253.507 47.184C254.004 45.6871 255.828 44.5767 257.366 44.9348C258.931 45.2875 260.124 46.7279 260.417 48.3101Z" fill="#F5B691"/>
<path d="M66.0462 345.852C57.5307 344.04 49.4983 339.808 43.3203 333.685C43.9362 331.478 44.5414 329.263 45.1868 327.059C46.0653 324.049 46.9751 321.052 47.9029 318.051C56.7886 325.154 67.6885 329.733 78.9809 331.113C75.8087 337.095 73.0871 342.429 71.1281 346.634C69.4155 346.468 67.7246 346.204 66.0462 345.852Z" fill="#7561AB"/>
<path d="M179.941 127.066C180.623 128.503 181.31 129.911 181.474 131.516C181.499 131.71 181.5 131.927 181.429 132.11C181.408 132.208 181.358 132.293 181.275 132.364C181.062 132.544 180.736 132.517 180.46 132.453C179.103 132.157 178.069 131.397 176.878 130.76C176.198 130.391 175.533 129.999 174.883 129.587C176.58 128.773 178.261 127.924 179.941 127.066Z" fill="#AF99C8"/>
<path d="M43.2791 99.1985C41.8784 96.596 40.6231 93.8065 40.5191 90.8488C40.5005 90.1626 40.548 89.4265 40.9698 88.8784C41.1909 88.584 41.5509 88.3779 41.9114 88.3322C41.8513 88.0498 41.7912 87.768 41.7408 87.4843C41.6735 87.1088 41.6158 86.732 41.6891 86.3504C41.7552 85.9796 41.9631 85.6119 42.2912 85.4394C42.6968 85.2249 43.2166 85.3307 43.5928 85.5848C43.969 85.839 44.246 86.2236 44.5098 86.5926C46.5078 89.3628 48.507 92.1414 50.5063 94.9206C49.0623 92.4485 47.9013 89.8123 47.0703 87.0697C46.7199 85.9039 46.5655 84.3536 47.6213 83.7587C48.2913 83.3837 49.1578 83.6349 49.7371 84.1264C50.3182 84.627 50.6703 85.3295 51.0176 86.0043C53.8155 91.3993 57.451 96.352 61.768 100.625C61.9549 99.7694 62.0606 98.8812 62.2187 98.0219C62.5822 95.935 63.209 93.735 64.8368 92.3757C65.2394 92.0392 65.7178 91.755 66.2496 91.7165C66.7706 91.6709 67.345 91.9269 67.5638 92.4076C67.7555 92.8457 67.6191 93.3516 67.4857 93.8197C67.1864 94.8936 66.8283 96.0065 66.6288 97.1097C66.4305 98.1655 66.7556 99.4016 66.9196 100.478C67.2074 102.458 67.5397 104.42 67.9375 106.381C68.1346 107.375 68.2939 108.424 68.8191 109.303C69.0607 109.704 69.432 110.195 69.8809 110.379C70.2715 110.555 70.7582 110.581 71.1711 110.725C73.5513 111.565 75.9489 112.345 78.37 113.046C82.2783 114.189 86.2395 115.153 90.235 115.941L90.2104 116.068C90.8095 116.197 91.3274 116.662 91.6153 117.215C91.9452 117.845 92.0365 118.567 92.0786 119.277C92.2925 122.375 91.7769 125.567 90.3017 128.306C88.8715 130.981 86.4607 133.188 83.5769 134.129C72.323 129.368 60.589 124.248 57.7527 122.97L57.7707 122.806C55.7955 122.593 53.8287 121.631 52.2994 120.317C49.7641 118.134 48.0702 115.159 45.97 112.559C44.3313 110.528 42.4366 108.703 40.9734 106.546C40.0222 105.138 39.0685 103.344 38.8035 101.653C38.7506 101.303 38.8023 100.906 39.0871 100.704C39.3389 100.527 39.6971 100.576 39.9639 100.746C40.5726 101.138 41.0521 101.969 41.5521 102.493C42.1326 103.098 42.7449 103.669 43.3981 104.204C44.4869 105.115 45.6689 105.914 46.92 106.569C46.0421 103.976 44.5801 101.612 43.2791 99.1985Z" fill="#F5B691"/>
<path d="M90.2368 115.941C91.0601 116.106 91.8827 116.271 92.712 116.415C96.5308 117.111 100.378 117.651 104.233 118.076C107.81 118.476 111.397 118.722 114.978 119.036C117.971 119.294 121.635 119.281 124.318 117.696C126.831 116.217 129.377 114.599 131.887 113.054C137.402 109.658 142.683 105.907 147.903 102.073C150.166 100.411 152.409 98.7445 154.654 97.0859C156.612 98.4176 158.496 99.8664 160.318 101.392C165.055 105.373 169.286 109.954 172.888 114.988C174.697 117.498 176.35 120.132 177.827 122.843C178.562 124.205 179.263 125.591 179.912 126.996C179.925 127.022 179.929 127.04 179.943 127.066C178.263 127.924 176.583 128.773 174.886 129.586C174.408 129.823 173.931 130.059 173.452 130.287C168.048 132.879 162.552 135.27 156.963 137.46C151.383 139.649 145.729 141.633 140.001 143.414C137.137 144.304 134.263 145.14 131.37 145.921C130.757 146.088 130.21 146.356 129.589 146.476C128.841 146.629 128.087 146.745 127.336 146.822C125.852 146.974 124.35 146.978 122.86 146.838C120.018 146.582 117.256 145.876 114.481 145.21C111.619 144.522 108.768 143.804 105.929 143.036C103.259 142.314 93.6043 138.363 83.5781 134.128C86.4613 133.187 88.8728 130.979 90.3029 128.305C91.7782 125.566 92.2938 122.375 92.0798 119.276C92.0378 118.566 91.9464 117.844 91.6165 117.214C91.3287 116.661 90.8107 116.196 90.2116 116.067L90.2368 115.941Z" fill="#7561AB"/>
<path d="M207.347 206.768C199.612 201.557 191.551 196.688 182.714 193.979C182.324 193.86 181.935 193.74 181.547 193.63C184.797 187.663 187.558 181.387 189.799 174.901C189.924 174.965 190.04 175.029 190.164 175.091C191.889 176.02 193.581 177.031 195.206 178.139C197.279 179.534 199.265 181.078 201.498 182.2C202.901 182.913 204.435 183.46 205.991 183.654C211.008 185.667 215.48 187.531 220.703 188.893C225.292 190.094 229.95 191.046 234.647 191.737C235.298 191.838 235.947 191.929 236.595 192.012C241.955 192.716 247.352 193.092 252.753 193.128C255.458 193.145 258.157 193.077 260.853 192.935C263.499 192.783 266.144 192.461 268.78 192.301C270.015 192.232 271.215 191.705 272.169 190.911C273.096 190.131 273.29 189.151 273.81 188.095C275.034 185.646 276.249 183.19 277.439 180.709C279.792 175.8 282.03 170.827 283.993 165.743C285.942 160.689 287.616 155.524 288.835 150.242C288.893 149.986 288.959 149.719 289.007 149.465C288.595 154.603 287.904 159.724 287.076 164.757C283.856 184.258 278.732 203.787 280.212 223.468C276.632 226.111 272.027 227.785 267.069 228.643C258.713 230.101 249.36 229.26 242.218 226.938C230.84 223.229 220.935 216.129 211.093 209.33C209.854 208.474 208.605 207.62 207.347 206.768Z" fill="#AF99C8"/>
<path d="M251.911 55.3015C251.599 55.1963 251.292 55.0623 251.008 54.8965C248.972 60.1545 244.754 66.5782 240.261 69.98C239.762 70.3622 239.242 70.7293 238.717 71.0688C234.969 73.5632 230.664 75.2211 226.208 75.8767C225.915 77.9889 225.581 80.0801 225.367 82.2158L225.434 82.2224C225.133 84.0239 226.023 85.9342 227.459 87.0946C228.981 88.315 231 88.7759 232.952 88.7008C234.893 88.6185 236.784 88.044 238.607 87.3584C241.238 86.3777 243.8 85.1728 246.04 83.4873C248.189 81.8744 250.03 79.8067 251.114 77.364C251.142 77.3117 251.163 77.2703 251.182 77.2198C250.011 73.3667 249.729 68.8821 250.164 64.3446C250.443 61.2986 251.047 58.2333 251.911 55.3015Z" fill="#F5B691"/>
<path d="M256.204 167.372C258.404 160.337 259.076 152.951 259.554 145.534C263.582 147.298 267.967 148.196 272.345 148.376C276.922 148.559 281.532 147.97 285.898 146.603C287.044 146.247 288.18 145.836 289.278 145.375C289.21 146.738 289.124 148.105 289.009 149.467C288.96 149.721 288.894 149.988 288.836 150.244C287.618 155.526 285.944 160.692 283.994 165.745C282.032 170.83 279.794 175.803 277.441 180.712C276.25 183.192 275.036 185.649 273.811 188.097C273.291 189.154 273.098 190.133 272.17 190.913C271.216 191.708 270.016 192.234 268.781 192.304C266.146 192.464 263.501 192.785 260.854 192.938C258.159 193.08 255.459 193.147 252.754 193.13C247.353 193.095 241.957 192.718 236.597 192.014C235.949 191.932 235.299 191.84 234.648 191.739C237.097 190.583 239.052 188.466 240.249 186.023C241.526 183.442 242.003 180.512 241.951 177.631C241.927 175.915 241.709 174.169 241.013 172.602C240.424 171.262 239.454 170.065 238.193 169.356C239.727 169.214 241.269 169.013 242.812 168.766C246.768 168.125 251.708 167.222 256.204 167.372Z" fill="#7561AB"/>
<path d="M251.249 77.4145C251.2 77.4043 251.158 77.3834 251.117 77.363C251.145 77.3109 251.166 77.2696 251.185 77.2188C251.197 77.2828 251.219 77.354 251.249 77.4145Z" fill="#E20613"/>
<path d="M289.281 145.374C288.182 145.835 287.047 146.246 285.901 146.602C281.534 147.969 276.925 148.557 272.348 148.375C267.969 148.195 263.585 147.297 259.557 145.532C259.079 152.95 258.406 160.335 256.207 167.371C251.711 167.221 246.771 168.124 242.813 168.765C241.27 169.013 239.728 169.213 238.195 169.355C229.799 170.167 221.571 169.541 213.122 168.257C210.118 162.558 206.667 157.101 202.805 151.943C202.482 151.51 202.137 151.061 201.673 150.785C201.198 150.511 200.563 150.445 200.128 150.759C199.97 150.882 199.854 151.025 199.78 151.19L199.76 151.184C198.825 149.547 197.832 147.854 196.279 146.78C196.247 146.758 196.204 146.727 196.162 146.707C197.007 139.016 197.178 131.257 196.617 123.581C191.323 125.993 186.241 128.848 181.429 132.109C181.501 131.926 181.499 131.709 181.474 131.515C181.31 129.91 180.623 128.502 179.941 127.065C179.927 127.039 179.924 127.021 179.91 126.996C179.261 125.59 178.56 124.204 177.825 122.843C176.348 120.131 174.696 117.498 172.886 114.987C169.284 109.953 165.054 105.372 160.317 101.391C158.494 99.8655 156.61 98.4167 154.652 97.0851C155.727 96.2787 156.803 95.4819 157.881 94.6935C164.545 89.7979 171.303 85.008 178.488 80.9074C182.199 78.7885 185.732 76.9846 189.783 75.5989C197.154 73.0709 204.667 70.9713 212.489 70.7531C213.928 70.7129 215.365 70.7207 216.794 70.7862C219.673 72.4633 223.359 72.6827 226.646 71.8865C226.548 73.2361 226.387 74.5593 226.208 75.8765C225.915 77.9887 225.58 80.0799 225.367 82.2155L225.434 82.2222C225.133 84.0237 226.023 85.934 227.459 87.0944C228.981 88.3148 231 88.7757 232.952 88.7006C234.893 88.6177 236.784 88.0432 238.607 87.3581C241.238 86.3775 243.8 85.1726 246.04 83.4871C248.189 81.8742 250.03 79.8065 251.114 77.3638C251.155 77.3848 251.197 77.4058 251.246 77.4155C253.245 78.2387 255.256 79.0223 257.25 79.8185C264.891 82.8639 272.671 86.3757 278.095 92.5578C289.196 102.59 291.525 118.83 292.394 129.871C292.546 131.828 292.641 133.785 292.886 135.735C293.12 137.573 293.627 139.297 294.048 141.073C294.153 141.499 294.206 141.952 294.041 142.35C293.911 142.685 293.638 142.951 293.367 143.179C292.335 144.063 291.008 144.621 289.763 145.165C289.605 145.231 289.448 145.307 289.281 145.374Z" fill="#AF99C8"/>
<path d="M219.694 20.5762C217.455 23.3386 215.289 26.9927 214.074 30.2659C214.707 30.3698 215.329 30.4666 215.931 30.5573C217.133 30.1439 218.058 29.1374 218.661 28.0185C219.297 26.8184 219.616 25.4856 219.978 24.1835C220.102 23.7328 220.236 23.2839 220.372 22.8362C220.087 22.1007 219.854 21.3477 219.694 20.5762Z" fill="#F5B691"/>
<path d="M219.688 20.5779C219.847 21.3495 220.081 22.1024 220.365 22.8373C220.885 21.1331 221.498 19.4542 222.259 17.8516C221.424 18.5769 220.55 19.5131 219.688 20.5779Z" fill="#3F3574"/>
<path d="M207.353 206.768C199.783 201.667 191.894 196.908 183.277 194.168C190.908 199.427 197.538 205.969 204.261 212.392C205.176 210.441 206.188 208.549 207.353 206.768Z" fill="#322554"/>
<path d="M199.779 224.431C201.043 220.37 202.447 216.257 204.26 212.394C197.538 205.97 190.907 199.428 183.277 194.169C183.09 194.11 182.908 194.038 182.72 193.98C181.775 194.083 180.822 194.197 179.88 194.318C175.568 194.825 171.25 195.352 166.937 195.906C162.623 196.451 158.305 197.034 153.998 197.672C149.698 198.3 145.399 198.984 141.111 199.732C136.833 200.488 132.577 201.306 128.328 202.217C124.106 203.123 119.899 204.112 115.715 205.229C111.557 206.332 107.418 207.545 103.322 208.892C101.278 209.56 99.25 210.263 97.2279 211.002C95.3218 211.702 93.5017 212.566 91.8606 213.795C91.1197 214.353 90.4262 214.968 89.7802 215.632C89.1258 216.306 88.609 217.06 87.9979 217.765C86.7925 219.161 85.941 220.948 85.0829 222.595C83.2129 226.189 81.6222 229.922 80.0809 233.665C78.4777 237.59 76.9141 241.526 75.1877 245.396C74.2701 247.45 73.3711 249.501 72.4824 251.559C69.8215 257.704 67.2508 263.879 64.7829 270.103C62.3059 276.328 59.9383 282.581 57.6645 288.884C55.3888 295.177 53.2057 301.511 51.1313 307.871C50.0263 311.253 48.9518 314.648 47.9062 318.048C56.7919 325.151 67.6919 329.73 78.9842 331.111C90.0927 310.181 106.712 281.291 115.442 264.915C139.919 261.255 164.181 256.234 188.093 249.888C188.48 249.412 188.867 248.936 189.264 248.459C194.98 241.229 197.036 233.236 199.779 224.431Z" fill="#402F6D"/>
<path d="M242.222 226.939C230.845 223.23 220.939 216.13 211.097 209.331C209.857 208.476 208.608 207.622 207.351 206.77C206.186 208.551 205.174 210.443 204.258 212.394C210.005 217.885 215.824 223.283 222.408 227.696C234.682 235.922 249.434 240.272 264.198 240.391C265.362 236.486 266.337 232.545 267.074 228.645C258.717 230.101 249.365 229.261 242.222 226.939Z" fill="#322554"/>
<path d="M204.258 212.396C202.445 216.26 201.041 220.372 199.777 224.434C197.034 233.239 194.977 241.231 189.26 248.461C188.864 248.939 188.477 249.414 188.089 249.89C162.094 281.826 146.359 307.052 135.955 336.671C126.885 362.5 121.665 387.611 116.57 410.206C126.529 417.23 139.52 419.819 151.435 417.291C161.034 398.275 170.286 381.493 178.204 360.84C187.238 344.901 199.537 330.995 211.987 317.515C225.477 302.923 239.375 288.504 250.091 271.773C255.7 263.008 260.776 251.866 264.198 240.392C249.434 240.275 234.683 235.924 222.409 227.698C215.824 223.285 210.004 217.888 204.258 212.396Z" fill="#3F3574"/>
<path d="M82.6133 114.201C83.4197 114.408 84.2273 114.61 85.0374 114.803C84.2279 114.61 83.4203 114.408 82.6133 114.201Z" fill="url(#paint0_linear_1104_13561)"/>
<path d="M66.7852 96.3856C66.9895 95.5226 67.2539 94.6591 67.4924 93.8155C67.5501 93.6117 67.6036 93.399 67.6342 93.1875C67.6024 93.3996 67.5477 93.6129 67.4888 93.8197C67.2545 94.6585 66.9871 95.5214 66.7852 96.3856Z" fill="url(#paint1_linear_1104_13561)"/>
<path d="M86.1719 115.07C86.8575 115.227 87.5438 115.379 88.2318 115.525C87.5444 115.378 86.8575 115.228 86.1719 115.07Z" fill="url(#paint2_linear_1104_13561)"/>
<path d="M69.4783 110.115C69.2109 109.882 68.982 109.573 68.8179 109.3C68.7536 109.193 68.7103 109.078 68.6562 108.967C68.7103 109.079 68.7548 109.196 68.8191 109.305C68.9831 109.577 69.2109 109.884 69.4783 110.115Z" fill="url(#paint3_linear_1104_13561)"/>
<path d="M70.3477 110.516C70.4883 110.548 70.6199 110.594 70.7617 110.625C70.6205 110.594 70.4877 110.548 70.3477 110.516Z" fill="url(#paint4_linear_1104_13561)"/>
<path d="M78.9141 113.197C79.8335 113.462 80.7553 113.718 81.6801 113.963C80.7553 113.718 79.8335 113.461 78.9141 113.197Z" fill="url(#paint5_linear_1104_13561)"/>
<path d="M85.0352 114.803C85.4143 114.893 85.7935 114.979 86.1739 115.067C85.7935 114.98 85.4137 114.893 85.0352 114.803Z" fill="url(#paint6_linear_1104_13561)"/>
<path d="M78.3684 113.05C78.548 113.102 78.7289 113.148 78.9086 113.199C78.7289 113.148 78.5481 113.101 78.369 113.048C75.9479 112.347 73.5503 111.567 71.17 110.727C71.042 110.682 70.902 110.657 70.7656 110.627C70.9032 110.658 71.0439 110.683 71.173 110.729C73.5485 111.57 75.9485 112.344 78.3684 113.05Z" fill="url(#paint7_linear_1104_13561)"/>
<path d="M89.8277 115.854C89.2947 115.747 88.7629 115.634 88.2305 115.521C88.7629 115.635 89.2947 115.747 89.8277 115.854Z" fill="url(#paint8_linear_1104_13561)"/>
<path d="M69.8756 110.383C70.0222 110.446 70.1868 110.48 70.3503 110.517C70.188 110.479 70.0234 110.446 69.8792 110.38C69.7355 110.321 69.6028 110.224 69.4766 110.115C69.6022 110.225 69.7338 110.323 69.8756 110.383Z" fill="url(#paint9_linear_1104_13561)"/>
<path d="M66.9149 100.479C67.2028 102.456 67.5423 104.425 67.9329 106.384C68.1066 107.254 68.2646 108.161 68.6552 108.966C68.2676 108.162 68.109 107.254 67.9365 106.381C67.5387 104.421 67.2064 102.458 66.9186 100.478C66.7545 99.4021 66.4294 98.166 66.6277 97.1102C66.671 96.8692 66.7251 96.6277 66.7815 96.3867C66.7245 96.6283 66.6698 96.8705 66.6241 97.1114C66.4252 98.1708 66.7581 99.4021 66.9149 100.479Z" fill="url(#paint10_linear_1104_13561)"/>
<path d="M67.5672 92.41C67.6742 92.6545 67.676 92.9195 67.6381 93.1863C67.6784 92.9171 67.6778 92.6509 67.5708 92.4057C67.3882 92.0037 66.9567 91.7712 66.5156 91.7285C66.9591 91.7736 67.39 92.0049 67.5672 92.41Z" fill="url(#paint11_linear_1104_13561)"/>
<path d="M179.91 126.997C179.262 125.591 178.56 124.206 177.825 122.844C176.348 120.132 174.696 117.499 172.886 114.988C169.284 109.954 165.054 105.373 160.317 101.392C158.514 99.8824 156.65 98.4505 154.715 97.1309C162.842 106.978 168.738 118.651 171.865 131.03C172.393 130.781 172.924 130.54 173.45 130.287C173.929 130.06 174.406 129.824 174.884 129.587C176.581 128.773 178.262 127.924 179.941 127.067C179.927 127.041 179.924 127.023 179.91 126.997Z" fill="#533879"/>
<path d="M61.7695 100.61C61.9125 99.9593 62.0117 99.2959 62.1163 98.6367C62.0099 99.2965 61.9107 99.9611 61.7695 100.61Z" fill="#F5B691"/>
<path d="M57.4952 111.44C57.515 108.679 58.4861 105.933 60.1885 103.761C60.7942 102.988 61.2797 102.372 61.5645 101.422C61.6433 101.158 61.7094 100.892 61.7683 100.623C60.5628 99.4296 59.4169 98.1785 58.3214 96.8848C58.3154 99.2614 57.7836 101.646 57.3984 104.009C56.997 106.471 56.8011 109.083 57.4952 111.44Z" fill="#F29477"/>
<path d="M64.833 92.3737C65.2356 92.0372 65.7139 91.753 66.2457 91.7145C66.3311 91.7067 66.4176 91.7199 66.5047 91.7283C66.417 91.7193 66.3299 91.7061 66.2427 91.7127C65.7151 91.7536 65.235 92.036 64.8288 92.3749C63.2033 93.7318 62.5802 95.9311 62.2142 98.0175C62.1782 98.2224 62.1463 98.4285 62.1133 98.6346C62.1463 98.4291 62.1776 98.2224 62.2148 98.0193C62.5784 95.9323 63.2051 93.7324 64.833 92.3737Z" fill="url(#paint12_linear_1104_13561)"/>
<path d="M61.7733 100.609C61.772 100.614 61.7708 100.619 61.7695 100.624L61.7702 100.624C61.7714 100.619 61.772 100.614 61.7733 100.609Z" fill="url(#paint13_linear_1104_13561)"/>
<path d="M61.7695 100.61C61.9125 99.9593 62.0117 99.2959 62.1163 98.6367C62.0099 99.2965 61.9107 99.9611 61.7695 100.61Z" fill="url(#paint14_linear_1104_13561)"/>
<path d="M85.0352 114.803C85.4143 114.893 85.7935 114.979 86.1739 115.067C85.7935 114.98 85.4137 114.893 85.0352 114.803Z" fill="#F5B691"/>
<path d="M78.3684 113.05C78.548 113.102 78.7289 113.148 78.9086 113.199C78.7289 113.148 78.5481 113.101 78.369 113.048C75.9479 112.347 73.5503 111.567 71.17 110.727C71.042 110.682 70.902 110.657 70.7656 110.627C70.9032 110.658 71.0439 110.683 71.173 110.729C73.5485 111.57 75.9485 112.344 78.3684 113.05Z" fill="#F5B691"/>
<path d="M89.8277 115.854C89.2947 115.747 88.7629 115.634 88.2305 115.521C88.7629 115.635 89.2947 115.747 89.8277 115.854Z" fill="#F5B691"/>
<path d="M69.8756 110.383C70.0222 110.446 70.1868 110.48 70.3503 110.517C70.188 110.479 70.0234 110.446 69.8792 110.38C69.7355 110.321 69.6028 110.224 69.4766 110.115C69.6022 110.225 69.7338 110.323 69.8756 110.383Z" fill="#F5B691"/>
<path d="M66.9149 100.479C67.2028 102.456 67.5423 104.425 67.9329 106.384C68.1066 107.254 68.2646 108.161 68.6552 108.966C68.2676 108.162 68.109 107.254 67.9365 106.381C67.5387 104.421 67.2064 102.458 66.9186 100.478C66.7545 99.4021 66.4294 98.166 66.6277 97.1102C66.671 96.8692 66.7251 96.6277 66.7815 96.3867C66.7245 96.6283 66.6698 96.8705 66.6241 97.1114C66.4252 98.1708 66.7581 99.4021 66.9149 100.479Z" fill="#F5B691"/>
<path d="M67.5672 92.41C67.6742 92.6545 67.676 92.9195 67.6381 93.1863C67.6784 92.9171 67.6778 92.6509 67.5708 92.4057C67.3882 92.0037 66.9567 91.7712 66.5156 91.7285C66.9591 91.7736 67.39 92.0049 67.5672 92.41Z" fill="#F5B691"/>
<path d="M135.217 127.634C135.917 127.663 136.645 127.613 137.266 127.287C137.886 126.961 138.373 126.303 138.32 125.604C138.263 124.866 137.628 124.279 136.931 124.031C136.233 123.784 135.474 123.803 134.734 123.794C132.839 123.771 130.946 123.544 129.098 123.12C128.135 122.899 125.641 121.568 126.502 123.424C127.712 126.031 132.62 127.527 135.217 127.634Z" fill="#533879"/>
<path d="M264.666 169.787C264.639 169.851 264.645 169.924 264.67 169.988C264.695 170.051 264.736 170.107 264.779 170.161C264.992 170.423 265.273 170.616 265.512 170.852C265.757 171.094 265.993 171.347 266.218 171.608C266.669 172.13 267.077 172.687 267.439 173.275C267.758 173.794 268.056 174.353 268.548 174.713C269.041 175.073 269.804 175.156 270.221 174.711C270.474 174.443 270.544 174.04 270.478 173.678C270.412 173.316 270.226 172.987 270.019 172.683C269.706 172.221 269.334 171.801 268.918 171.43C268.363 170.935 267.73 170.528 267.05 170.226C266.711 170.075 266.359 169.95 266 169.854C265.82 169.805 265.639 169.765 265.456 169.731C265.281 169.699 265.076 169.62 264.898 169.637C264.803 169.646 264.704 169.698 264.666 169.787Z" fill="#533879"/>
<path d="M289.015 149.467C289.131 148.105 289.217 146.738 289.285 145.375C288.187 145.836 287.051 146.247 285.905 146.603C281.539 147.97 276.929 148.559 272.352 148.376C267.974 148.196 263.589 147.298 259.561 145.534C259.491 146.617 259.414 147.7 259.332 148.781C268.205 153.117 278.478 154.5 288.2 152.784C288.419 151.939 288.646 151.096 288.842 150.244C288.901 149.988 288.966 149.721 289.015 149.467Z" fill="#533879"/>
<path d="M190.849 94.6289C190.849 94.6289 190.42 117.385 187.305 128.431C190.326 126.666 193.427 125.033 196.615 123.581C196.187 114.585 194.061 104.845 190.849 94.6289Z" fill="#AF99C8"/>
<path d="M292.394 129.872C291.525 118.831 289.195 102.591 278.095 92.5585C272.671 86.3763 264.891 82.8645 257.25 79.8191C255.256 79.0235 253.245 78.2399 251.246 77.4161C251.197 77.4058 251.155 77.3848 251.114 77.3638C250.03 79.8065 248.189 81.8742 246.04 83.4871C243.8 85.1726 241.237 86.3775 238.607 87.3582C236.783 88.0432 234.893 88.6177 232.952 88.7006C231 88.7757 228.981 88.3148 227.459 87.0944C226.023 85.934 225.133 84.0243 225.434 82.2222L225.367 82.2155C225.58 80.0799 225.915 77.9887 226.208 75.8765C226.388 74.5593 226.548 73.2361 226.646 71.8865C223.359 72.6827 219.673 72.4633 216.794 70.7862C215.365 70.7207 213.928 70.7129 212.489 70.7531C204.667 70.9713 197.154 73.0715 189.783 75.5989C185.732 76.9852 182.199 78.7885 178.488 80.9074C171.304 85.008 164.545 89.7979 157.881 94.6935C156.803 95.4813 155.727 96.2787 154.652 97.0851C156.61 98.4167 158.495 99.8655 160.317 101.391C165.054 105.372 169.284 109.954 172.886 114.988C174.696 117.498 176.348 120.131 177.825 122.843C178.56 124.205 179.262 125.591 179.91 126.996C179.924 127.022 179.927 127.04 179.941 127.066C180.623 128.503 181.31 129.911 181.474 131.516C181.499 131.71 181.5 131.927 181.429 132.109C183.343 130.812 185.312 129.598 187.307 128.432C190.422 117.385 190.851 94.6292 190.851 94.6292C194.064 104.845 196.189 114.585 196.617 123.582C197.178 131.257 197.006 139.016 196.162 146.707C196.204 146.728 196.247 146.758 196.279 146.78C197.832 147.853 198.825 149.547 199.76 151.184L199.78 151.19C199.854 151.025 199.97 150.882 200.128 150.759C200.563 150.445 201.198 150.511 201.673 150.785C202.138 151.061 202.483 151.509 202.806 151.943C206.667 157.101 210.118 162.558 213.122 168.257C221.571 169.542 229.799 170.167 238.195 169.355C239.728 169.213 241.27 169.013 242.813 168.765C246.771 168.123 251.711 167.221 256.207 167.371C258.406 160.335 259.079 152.95 259.557 145.532C263.585 147.297 267.969 148.195 272.348 148.375C276.925 148.557 281.534 147.969 285.901 146.602C287.047 146.246 288.182 145.835 289.281 145.374C289.448 145.306 289.605 145.231 289.763 145.165C291.007 144.621 292.334 144.062 293.366 143.179C293.637 142.951 293.911 142.684 294.04 142.349C294.205 141.952 294.152 141.498 294.048 141.073C293.626 139.296 293.119 137.573 292.885 135.735C292.641 133.786 292.546 131.829 292.394 129.872Z" fill="#F9BDD8"/>
<path d="M170.546 232.638C164.35 241.718 158.147 251.172 150.316 258.741C162.99 256.153 175.59 253.207 188.092 249.889C188.479 249.413 188.866 248.937 189.263 248.46C194.98 241.23 197.037 233.238 199.779 224.433C201.043 220.371 202.447 216.259 204.26 212.395C201.569 209.823 198.889 207.236 196.157 204.717C185.646 211.499 177.699 222.152 170.546 232.638Z" fill="#241E47"/>
<path d="M90.1651 250.078C85.755 245.669 82.2012 240.435 79.6335 234.754C78.1835 238.316 76.7503 241.883 75.1838 245.395C74.2662 247.449 73.3672 249.5 72.4784 251.558C69.8176 257.703 67.2469 263.878 64.779 270.102C62.302 276.327 59.9344 282.581 57.6606 288.883C55.3849 295.176 53.2018 301.51 51.1274 307.871C50.0223 311.252 48.9479 314.647 47.9023 318.047C56.788 325.15 67.688 329.729 78.9803 331.11C90.0888 310.18 106.708 281.29 115.438 264.914C116.321 264.782 117.202 264.636 118.084 264.5C107.608 262.666 97.6921 257.602 90.1651 250.078Z" fill="#322554"/>
<path d="M47.9029 318.051C46.975 321.051 46.0659 324.049 45.1867 327.059C44.5414 329.263 43.9362 331.478 43.3203 333.685C49.1522 339.464 56.6359 343.557 64.6184 345.522C67.3262 340.275 70.2646 335.148 73.4272 330.163C64.1455 328.143 55.3211 323.981 47.9029 318.051Z" fill="#533879"/>
<path d="M226.651 71.8843C230.679 70.8994 234.255 68.5967 237.731 66.3216C242.171 63.4114 247.682 59.0428 251.003 54.8965C248.968 60.1545 244.75 66.5782 240.256 69.98C239.757 70.3622 239.238 70.7293 238.712 71.0688C234.963 73.5626 230.659 75.2211 226.203 75.8761C226.383 74.5589 226.543 73.2357 226.642 71.8861L226.651 71.8843Z" fill="#F2987C"/>
<path d="M41.905 88.3301C42.5239 90.9969 43.8008 93.4895 45.1733 95.8799C46.6425 98.4422 48.4657 100.922 49.6249 103.653C45.1427 99.986 41.9879 94.7118 40.8672 89.0259C40.8954 88.9737 40.9243 88.9214 40.9633 88.8763C41.1851 88.5819 41.545 88.3757 41.905 88.3301Z" fill="#F29477"/>
<path d="M193.977 148.458C196.157 153.566 198.327 158.677 200.508 163.786C199.428 163.771 198.357 163.698 197.292 163.558C195.06 157.891 193.941 154.492 191.201 150.475C190.713 149.75 190.196 149.03 189.936 148.208C189.821 147.831 189.758 147.427 189.782 147.035C189.811 146.558 189.955 146.097 190.256 145.722C190.752 145.114 191.629 144.844 192.381 145.087C193.034 145.301 193.373 145.722 193.903 146.676C193.864 146.721 193.827 146.774 193.798 146.827C193.536 147.318 193.75 147.931 193.977 148.458Z" fill="#F2987C"/>
<path d="M199.781 151.19C199.495 151.809 199.736 152.682 200.02 153.368C201.453 156.787 202.885 160.197 204.319 163.615C203.059 163.755 201.784 163.814 200.513 163.786C198.333 158.677 196.162 153.567 193.982 148.458C193.756 147.932 193.542 147.318 193.804 146.827C193.832 146.775 193.87 146.721 193.909 146.676C194.418 146.037 195.568 146.285 196.28 146.781C197.833 147.855 198.825 149.548 199.761 151.186L199.781 151.19Z" fill="#F2987C"/>
<path d="M200.595 172C200.681 172.003 200.756 171.999 200.842 172.003C199.881 173.923 199.502 176.135 199.782 178.277C199.94 179.533 200.331 180.768 200.921 181.9C198.913 180.813 197.095 179.419 195.203 178.142C193.578 177.034 191.886 176.023 190.161 175.094C189.231 174.599 188.298 174.133 187.349 173.689C186.946 173.496 186.505 173.349 186.166 173.041C185.85 172.757 185.622 172.382 185.521 171.975C185.377 171.377 185.998 170.624 186.437 170.28C187.432 169.507 188.834 169.417 190.061 169.727C191.286 170.027 192.393 170.67 193.51 171.264C194.095 171.575 194.601 171.872 195.257 172C195.964 172.148 196.697 172.177 197.42 172.152C198.473 172.124 199.537 172 200.595 172Z" fill="#F2987C"/>
<path d="M213.379 181.81C214.852 180.189 215.745 178.051 215.861 175.863" stroke="#F2987C" stroke-width="1.5477" stroke-miterlimit="10" stroke-linecap="round" stroke-linejoin="round"/>
<path d="M227.644 24.7429C227.265 25.8498 226.985 26.9771 226.909 28.1339C226.791 29.695 227.104 31.3397 227.988 32.6365L223.849 31.8367C221.362 31.4028 218.805 31.0008 215.93 30.5604C217.132 30.1469 218.057 29.1404 218.66 28.0215C219.295 26.8215 219.615 25.4887 219.977 24.1865C220.572 22.0202 221.304 19.8767 222.264 17.8535C223.08 16.1294 224.056 14.5094 225.267 13.0366C227.897 9.83549 232.365 7.03344 236.504 6.82192C237.554 6.77565 238.605 6.78646 239.65 6.873C242.443 7.11937 245.187 7.82844 247.769 8.95395C243.482 8.33201 239.029 9.9034 235.653 12.6327C232.202 15.4138 229.78 19.3053 228.134 23.4167C227.958 23.8554 227.792 24.3007 227.644 24.7429Z" fill="#EF599E"/>
<path d="M260.483 49.355C260.495 49.0035 260.471 48.6579 260.409 48.31C260.117 46.7278 258.924 45.288 257.359 44.9347C255.821 44.5765 253.997 45.687 253.5 47.1839C251.272 46.8264 249.032 47.9831 247.382 49.5347C245.717 51.1079 244.493 53.0843 243.009 54.8239C241.517 56.5744 239.117 58.4204 236.855 58.7683C237.661 58.5676 238.433 58.1836 239.167 57.5328C240.749 56.1345 241.354 53.967 241.877 51.9269L244.624 41.194C244.786 40.5697 244.803 39.9243 244.693 39.3107C244.542 38.4683 244.145 37.6703 243.53 37.0339C243.25 36.7346 242.932 36.4889 242.593 36.2852C243.684 36.5718 244.553 37.4179 245.259 38.3024C245.98 39.2128 246.594 40.2181 247.469 40.9873C248.869 42.2108 250.758 42.6855 252.575 43.1253C255.785 43.9023 259.004 44.6775 262.212 45.4455C263.022 45.8012 261.293 49.7101 260.492 49.3526L260.483 49.355Z" fill="#EF599E"/>
<path d="M227.98 32.6372L230.906 33.2003C232.544 34.9105 234.743 36.057 237.078 36.0642C236.853 35.5468 236.647 35.0264 236.457 34.4934C238.02 34.8846 239.686 35.3239 241.483 35.8148C241.872 35.9248 242.239 36.0762 242.589 36.2877C242.927 36.4915 243.245 36.7372 243.525 37.0365C244.14 37.6728 244.538 38.4709 244.689 39.3133C244.799 39.9269 244.782 40.5722 244.62 41.1966L241.876 51.9511C241.352 53.9912 240.749 56.1587 239.166 57.557C238.432 58.2078 237.66 58.5918 236.855 58.7925C235.325 59.1699 233.669 58.8899 231.838 58.5281C221.7 55.7309 219.765 55.8973 210.066 54.231C209.451 54.1234 208.799 54.0135 208.115 53.8903C206.31 53.5706 204.828 52.2582 204.288 50.5029L203.762 48.7825C203.591 48.2465 203.518 47.6828 203.55 47.1198L204.113 34.2609C204.178 32.5675 205.114 31.0394 206.589 30.1993C207.087 29.9211 207.618 29.7222 208.168 29.6236C208.699 29.5287 209.246 29.5251 209.79 29.6074C210.336 29.6987 210.859 29.7751 211.374 29.8532C211.821 31.1337 212.429 32.3668 213.171 33.5091C213.323 32.5086 213.637 31.4131 214.066 30.269C214.698 30.373 215.32 30.4697 215.922 30.5604C218.798 31.0003 221.355 31.4029 223.841 31.8368L227.98 32.6372Z" fill="#3F3574"/>
<path d="M199.779 224.431C201.043 220.37 202.447 216.257 204.26 212.394C197.538 205.97 190.907 199.428 183.277 194.169C183.09 194.11 182.908 194.038 182.72 193.98C181.775 194.083 180.822 194.197 179.88 194.318C175.568 194.825 171.25 195.352 166.937 195.906C162.623 196.451 158.305 197.034 153.998 197.672C149.698 198.3 145.399 198.984 141.111 199.732C136.833 200.488 132.577 201.306 128.328 202.217C124.106 203.123 119.899 204.112 115.715 205.229C111.557 206.332 107.418 207.545 103.322 208.892C101.278 209.56 99.25 210.263 97.2279 211.002C95.3218 211.702 93.5017 212.566 91.8606 213.795C91.1197 214.353 90.4262 214.968 89.7802 215.632C89.1258 216.306 88.609 217.06 87.9979 217.765C86.7925 219.161 85.941 220.948 85.0829 222.595C83.2129 226.189 81.6222 229.922 80.0809 233.665C78.4777 237.59 76.9141 241.526 75.1877 245.396C74.2701 247.45 73.3711 249.501 72.4824 251.559C69.8215 257.704 67.2508 263.879 64.7829 270.103C62.3059 276.328 59.9383 282.581 57.6645 288.884C55.3888 295.177 53.2057 301.511 51.1313 307.871C50.0263 311.253 48.9518 314.648 47.9062 318.048C56.7919 325.151 67.6919 329.73 78.9842 331.111C90.0927 310.181 106.712 281.291 115.442 264.915C139.919 261.255 164.181 256.234 188.093 249.888C188.48 249.412 188.867 248.936 189.264 248.459C194.98 241.229 197.036 233.236 199.779 224.431Z" fill="#EF599E"/>
<path d="M204.258 212.396C202.445 216.26 201.041 220.372 199.777 224.434C197.034 233.239 194.977 241.231 189.26 248.461C188.864 248.939 188.477 249.414 188.089 249.89C162.094 281.826 146.359 307.052 135.955 336.671C126.885 362.5 121.665 387.611 116.57 410.206C126.529 417.23 139.52 419.819 151.435 417.291C161.034 398.275 170.286 381.493 178.204 360.84C187.238 344.901 199.537 330.995 211.987 317.515C225.477 302.923 239.375 288.504 250.091 271.773C255.7 263.008 260.776 251.866 264.198 240.392C249.434 240.275 234.683 235.924 222.409 227.698C215.824 223.285 210.004 217.888 204.258 212.396Z" fill="#EF599E"/>
<path d="M90.2368 115.941C91.0601 116.106 91.8827 116.271 92.712 116.415C96.5308 117.111 100.378 117.651 104.233 118.076C107.81 118.476 111.397 118.722 114.978 119.036C117.971 119.294 121.635 119.281 124.318 117.696C126.831 116.217 129.377 114.599 131.887 113.054C137.402 109.658 142.683 105.907 147.903 102.073C150.166 100.411 152.409 98.7445 154.654 97.0859C156.612 98.4176 158.496 99.8664 160.318 101.392C165.055 105.373 169.286 109.954 172.888 114.988C174.697 117.498 176.35 120.132 177.827 122.843C178.562 124.205 179.263 125.591 179.912 126.996C179.925 127.022 179.929 127.04 179.943 127.066C178.263 127.924 176.583 128.773 174.886 129.586C174.408 129.823 173.931 130.059 173.452 130.287C168.048 132.879 162.552 135.27 156.963 137.46C151.383 139.649 145.729 141.633 140.001 143.414C137.137 144.304 134.263 145.14 131.37 145.921C130.757 146.088 130.21 146.356 129.589 146.476C128.841 146.629 128.087 146.745 127.336 146.822C125.852 146.974 124.35 146.978 122.86 146.838C120.018 146.582 117.256 145.876 114.481 145.21C111.619 144.522 108.768 143.804 105.929 143.036C103.259 142.314 93.6043 138.363 83.5781 134.128C86.4613 133.187 88.8728 130.979 90.3029 128.305C91.7782 125.566 92.2938 122.375 92.0798 119.276C92.0378 118.566 91.9464 117.844 91.6165 117.214C91.3287 116.661 90.8107 116.196 90.2116 116.067L90.2368 115.941Z" fill="#533879"/>
<path d="M256.204 167.372C258.404 160.337 259.076 152.951 259.554 145.534C263.582 147.298 267.967 148.196 272.345 148.376C276.922 148.559 281.532 147.97 285.898 146.603C287.044 146.247 288.18 145.836 289.278 145.375C289.21 146.738 289.124 148.105 289.009 149.467C288.96 149.721 288.894 149.988 288.836 150.244C287.618 155.526 285.944 160.692 283.994 165.745C282.032 170.83 279.794 175.803 277.441 180.712C276.25 183.192 275.036 185.649 273.811 188.097C273.291 189.154 273.098 190.133 272.17 190.913C271.216 191.708 270.016 192.234 268.781 192.304C266.146 192.464 263.501 192.785 260.854 192.938C258.159 193.08 255.459 193.147 252.754 193.13C247.353 193.095 241.957 192.718 236.597 192.014C235.949 191.932 235.299 191.84 234.648 191.739C237.097 190.583 239.052 188.466 240.249 186.023C241.526 183.442 242.003 180.512 241.951 177.631C241.927 175.915 241.709 174.169 241.013 172.602C240.424 171.262 239.454 170.065 238.193 169.356C239.727 169.214 241.269 169.013 242.812 168.766C246.768 168.125 251.708 167.222 256.204 167.372Z" fill="#533879"/>
<path d="M251.361 112.338C257.837 103.512 266.542 96.3997 274.959 89.5205C278.334 86.7629 281.823 83.9122 285.132 80.9821C291.575 75.2783 299.247 67.4484 301.389 57.451C303.409 48.0197 298.667 35.9257 288.632 33.6525C281.426 32.0228 274.772 35.7641 268.334 39.384C262.494 42.6685 256.454 46.0649 250.18 45.2549C249.668 45.19 249.204 45.5487 249.138 46.0583C249.073 46.5679 249.433 47.0342 249.942 47.0997C256.83 47.9902 263.141 44.4394 269.246 41.0058C275.658 37.4004 281.714 33.9938 288.22 35.4672C297.199 37.5013 301.407 48.4806 299.569 57.0616C297.541 66.5296 290.129 74.074 283.899 79.5898C280.618 82.4952 277.143 85.3345 273.782 88.0807C265.274 95.0333 256.477 102.222 249.861 111.237C240.951 123.376 235.919 141.807 244.756 155.621C247.777 160.341 251.958 163.781 256.51 166.295C256.659 165.754 256.841 165.085 257.01 164.45C252.856 162.09 249.068 158.91 246.322 154.619C237.961 141.546 242.829 123.964 251.361 112.338Z" fill="#EF599E"/>
<path d="M315.428 183.116C312.234 178.175 306.388 174.534 298.967 172.867C294.479 171.859 289.842 171.579 285.356 171.308C284.192 171.238 283.005 171.161 281.817 171.076L281.037 172.883C282.448 172.989 283.863 173.081 285.244 173.165C289.656 173.431 294.218 173.706 298.558 174.682C305.501 176.242 310.938 179.597 313.866 184.126C317.301 189.44 317.613 197.087 314.679 204.083C311.756 211.054 306.237 216.67 301.755 220.785C290.085 231.499 276.712 239.722 262.693 245.041C262.411 245.86 262.133 246.656 261.906 247.303C276.671 241.924 290.77 233.394 303.013 222.155C307.634 217.914 313.331 212.107 316.395 204.802C319.563 197.248 319.192 188.938 315.428 183.116Z" fill="#EF599E"/>
<path d="M196.787 138.827C190.012 141.865 182.959 143.542 176.11 143.687C184.399 133.356 188.992 122.586 189.454 112.305C190.097 97.9882 181.581 84.3403 169.645 80.5588C157.886 76.8337 143.481 83.1799 137.536 94.706C134.943 99.7315 133.953 105.587 134.427 111.436L136.188 110.29C135.928 105.122 136.9 99.9941 139.188 95.5593C142.973 88.2228 150.414 83.1307 158.232 81.7323C161.877 81.0803 165.606 81.2312 169.084 82.3327C180.244 85.8684 188.203 98.7177 187.596 112.222C187.135 122.484 182.35 133.303 173.718 143.675C166.754 143.454 160.079 141.602 154.336 138.431L152.081 139.267C157.981 142.82 164.908 145 172.186 145.464C171.961 145.719 171.734 145.975 171.504 146.231C169.035 148.973 166.367 151.634 163.786 154.207C160.373 157.611 156.842 161.132 153.694 164.917C147.067 172.884 143.407 180.806 142.814 188.462C142.545 191.931 142.891 195.537 143.839 199.259L145.683 198.96C144.755 195.379 144.412 191.92 144.668 188.605C145.23 181.341 148.748 173.772 155.124 166.106C158.217 162.388 161.716 158.899 165.099 155.524C167.697 152.934 170.384 150.256 172.887 147.475C173.461 146.837 174.021 146.197 174.567 145.555C174.66 145.556 174.751 145.557 174.843 145.558C182.036 145.603 189.473 143.993 196.625 140.924L196.786 138.829L196.787 138.827Z" fill="#EF599E"/>
<path d="M83.4911 103.125C89.442 74.885 77.9882 48.5619 57.9083 44.3304C37.8284 40.099 16.7261 59.5615 10.7752 87.8012C4.82421 116.041 16.278 142.364 36.3579 146.595C56.4379 150.827 77.5401 131.364 83.4911 103.125Z" fill="#EFB522"/>
<path d="M72.518 100.815C76.6728 81.0993 68.676 62.7212 54.6567 59.7669C40.6374 56.8126 25.9043 70.4008 21.7495 90.117C17.5947 109.833 25.5915 128.211 39.6108 131.166C53.6301 134.12 68.3632 120.532 72.518 100.815Z" fill="#EB8923"/>
<path d="M235.499 164.007C241.45 135.768 229.996 109.445 209.916 105.213C189.836 100.982 168.734 120.444 162.783 148.684C156.832 176.924 168.286 203.247 188.366 207.478C208.446 211.71 229.548 192.247 235.499 164.007Z" fill="#EFB522"/>
<path d="M224.53 161.696C228.685 141.98 220.688 123.602 206.668 120.648C192.649 117.693 177.916 131.282 173.761 150.998C169.606 170.714 177.603 189.092 191.623 192.047C205.642 195.001 220.375 181.413 224.53 161.696Z" fill="#EB8923"/>
<path d="M107.498 56.8605L84.8516 51.7167L100.594 8.19983C102.727 2.30488 108.917 -1.07825 115.03 0.310458L137.677 5.45427L121.934 48.9711C119.801 54.8661 113.611 58.2492 107.498 56.8605Z" fill="#EF599E"/>
<path d="M123.154 85.2511L100.508 80.1073L116.251 36.5905C118.383 30.6955 124.573 27.3124 130.686 28.7011L153.333 33.8449L137.59 77.3618C135.457 83.2567 129.267 86.6399 123.154 85.2511Z" fill="#972A79"/>
<path d="M155.953 166.774L134.948 220.132L61.3828 203.024L82.3883 149.666L155.953 166.774Z" fill="#F2C72B"/>
<path d="M321.866 79.8522L305.012 122.665L245.984 108.938L262.839 66.125L321.866 79.8522Z" fill="#F2C72B"/>
<defs>
<linearGradient id="paint0_linear_1104_13561" x1="82.7032" y1="114.703" x2="84.9481" y2="114.301" gradientUnits="userSpaceOnUse">
<stop stop-color="white"/>
<stop offset="1"/>
</linearGradient>
<linearGradient id="paint1_linear_1104_13561" x1="66.5213" y1="94.9094" x2="67.8981" y2="94.6631" gradientUnits="userSpaceOnUse">
<stop stop-color="white"/>
<stop offset="1"/>
</linearGradient>
<linearGradient id="paint2_linear_1104_13561" x1="86.2434" y1="115.469" x2="88.1607" y2="115.126" gradientUnits="userSpaceOnUse">
<stop stop-color="white"/>
<stop offset="1"/>
</linearGradient>
<linearGradient id="paint3_linear_1104_13561" x1="68.7683" y1="109.595" x2="69.366" y2="109.488" gradientUnits="userSpaceOnUse">
<stop stop-color="white"/>
<stop offset="1"/>
</linearGradient>
<linearGradient id="paint4_linear_1104_13561" x1="70.3633" y1="110.605" x2="70.7458" y2="110.536" gradientUnits="userSpaceOnUse">
<stop stop-color="white"/>
<stop offset="1"/>
</linearGradient>
<linearGradient id="paint5_linear_1104_13561" x1="79.0233" y1="113.808" x2="81.5709" y2="113.352" gradientUnits="userSpaceOnUse">
<stop stop-color="white"/>
<stop offset="1"/>
</linearGradient>
<linearGradient id="paint6_linear_1104_13561" x1="85.0756" y1="115.029" x2="86.1329" y2="114.84" gradientUnits="userSpaceOnUse">
<stop stop-color="white"/>
<stop offset="1"/>
</linearGradient>
<linearGradient id="paint7_linear_1104_13561" x1="71.1142" y1="112.579" x2="78.5593" y2="111.247" gradientUnits="userSpaceOnUse">
<stop stop-color="white"/>
<stop offset="1"/>
</linearGradient>
<linearGradient id="paint8_linear_1104_13561" x1="88.2844" y1="115.821" x2="89.7741" y2="115.555" gradientUnits="userSpaceOnUse">
<stop stop-color="white"/>
<stop offset="1"/>
</linearGradient>
<linearGradient id="paint9_linear_1104_13561" x1="69.5249" y1="110.386" x2="70.3017" y2="110.247" gradientUnits="userSpaceOnUse">
<stop stop-color="white"/>
<stop offset="1"/>
</linearGradient>
<linearGradient id="paint10_linear_1104_13561" x1="67.2618" y1="102.758" x2="67.9011" y2="102.644" gradientUnits="userSpaceOnUse">
<stop stop-color="white"/>
<stop offset="1"/>
</linearGradient>
<linearGradient id="paint11_linear_1104_13561" x1="66.6589" y1="92.5319" x2="67.5924" y2="92.3649" gradientUnits="userSpaceOnUse">
<stop stop-color="white"/>
<stop offset="1"/>
</linearGradient>
<linearGradient id="paint12_linear_1104_13561" x1="61.5768" y1="95.6347" x2="67.0286" y2="94.6594" gradientUnits="userSpaceOnUse">
<stop stop-color="white"/>
<stop offset="1"/>
</linearGradient>
<linearGradient id="paint13_linear_1104_13561" x1="61.7686" y1="100.618" x2="61.7746" y2="100.617" gradientUnits="userSpaceOnUse">
<stop stop-color="white"/>
<stop offset="1"/>
</linearGradient>
<linearGradient id="paint14_linear_1104_13561" x1="61.6039" y1="99.6842" x2="62.2821" y2="99.5628" gradientUnits="userSpaceOnUse">
<stop stop-color="white"/>
<stop offset="1"/>
</linearGradient>
</defs>
</svg>
