<svg version="1.2" xmlns="http://www.w3.org/2000/svg" viewBox="0 0 656 425" width="656" height="425">
	<defs>
		<clipPath clipPathUnits="userSpaceOnUse" id="cp1">
			<path d="m4 0h648c2.21 0 4 1.79 4 4v417c0 2.21-1.79 4-4 4h-648c-2.21 0-4-1.79-4-4v-417c0-2.21 1.79-4 4-4z"/>
		</clipPath>
		<clipPath clipPathUnits="userSpaceOnUse" id="cp2">
			<path d="m-51-356h757v1137h-757z"/>
		</clipPath>
		<clipPath clipPathUnits="userSpaceOnUse" id="cp3">
			<path d="m706-356h-757v1137h757z"/>
		</clipPath>
		<radialGradient id="g1" cx="0" cy="0" r="1" gradientUnits="userSpaceOnUse" gradientTransform="matrix(509.863,0,0,509.863,327.502,237.767)">
			<stop offset="0" stop-color="#ffffff"/>
			<stop offset=".226" stop-color="#adde91"/>
			<stop offset=".784" stop-color="#5d8049"/>
			<stop offset="1" stop-color="#5d8049"/>
		</radialGradient>
	</defs>
	<style>
		.s0 { fill: url(#g1) } 
	</style>
	<g>
		<g id="Clip-Path" clip-path="url(#cp1)">
			<g>
				<g id="Clip-Path" clip-path="url(#cp2)">
					<g style="opacity: .3">
						<g id="Clip-Path" clip-path="url(#cp3)">
							<g>
								<path class="s0" d="m655.61-410.74h-151.22-50.4-505v1297.02h757.02v-1297.02zm-50.4 0.94h49.46v48.91h-49.46v-48.9zm49.46 98.75h-49.46v-48.9h49.46zm0 49.84h-49.46v-48.9h49.46zm0 49.85h-49.46v-48.9h49.46zm0 49.85h-49.46v-48.9h49.46zm0 49.85h-49.46v-48.9h49.46zm0 49.84h-49.46v-48.9h49.46zm0 49.85h-49.46v-48.9h49.46zm0 49.85h-49.46v-48.9h49.46zm0 49.85h-49.46v-48.9h49.46zm0 49.85h-49.46v-48.91h49.46zm0 49.85h-49.46v-48.9h49.46zm0 49.85h-49.46v-48.9h49.46zm0 49.85h-49.46v-48.9h49.46zm0 49.84h-49.46v-48.9h49.46zm0 49.85h-49.46v-48.9h49.46zm0 49.85h-49.46v-48.9h49.46zm0 49.85h-49.46v-48.9h49.46zm0 49.84h-49.46v-48.9h49.46zm0 49.85h-49.46v-48.9h49.46zm0 49.85h-49.46v-48.9h49.46zm0 49.85h-49.46v-48.9h49.46zm0 49.84h-49.46v-48.9h49.46zm0 49.85h-49.46v-48.9h49.46zm0 49.85h-49.46v-48.9h49.46zm-654.33-48.9h49.46v48.9h-49.46zm0-49.85h49.46v48.9h-49.46zm0-49.85h49.46v48.9h-49.46zm0-49.85h49.46v48.91h-49.46zm0-49.85h49.46v48.9h-49.46zm0-49.85h49.46v48.9h-49.46zm0-49.85h49.46v48.9h-49.46zm0-49.85h49.46v48.91h-49.46zm0-49.85h49.46v48.9h-49.46zm0-49.85h49.46v48.9h-49.46zm0-49.85h49.46v48.9h-49.46zm0-49.85h49.46v48.9h-49.46zm0-49.84h49.46v48.9h-49.46zm0-49.85h49.46v48.9h-49.46zm0-49.85h49.46v48.9h-49.46zm0-49.85h49.46v48.91h-49.46zm0-49.85h49.46v48.9h-49.46zm0-49.85h49.46v48.9h-49.46zm0-49.85h49.46v48.9h-49.46zm0-49.85h49.46v48.91h-49.46zm0-49.85h49.46v48.9h-49.46zm0-49.85h49.46v48.9h-49.46zm0-49.85h49.46v48.9h-49.46zm0-49.85h49.46v48.9h-49.46zm603.92 48.91h-49.46v-48.91h49.46zm0 49.85h-49.46v-48.9h49.46zm0 49.85h-49.46v-48.9h49.46zm0 49.85h-49.46v-48.9h49.46zm0 49.85h-49.46v-48.9h49.46zm0 49.84h-49.46v-48.9h49.46zm0 49.85h-49.46v-48.9h49.46zm0 49.85h-49.46v-48.9h49.46zm0 49.85h-49.46v-48.9h49.46zm0 49.84h-49.46v-48.9h49.46zm0 49.85h-49.46v-48.9h49.46zm0 49.85h-49.46v-48.9h49.46zm0 49.85h-49.46v-48.91h49.46zm0 49.85h-49.46v-48.9h49.46zm0 49.85h-49.46v-48.9h49.46zm0 49.85h-49.46v-48.9h49.46zm0 49.85h-49.46v-48.91h49.46zm0 49.85h-49.46v-48.9h49.46zm0 49.85h-49.46v-48.9h49.46zm0 49.85h-49.46v-48.9h49.46zm0 49.85h-49.46v-48.91h49.46zm0 49.85h-49.46v-48.9h49.46zm0 49.85h-49.46v-48.9h49.46zm-553.51-48.9h49.46v48.9h-49.46zm0-49.85h49.46v48.9h-49.46zm0-49.85h49.46v48.9h-49.46zm0-49.84h49.46v48.9h-49.46zm0-49.85h49.46v48.9h-49.46zm0-49.85h49.46v48.9h-49.46zm0-49.85h49.46v48.9h-49.46zm0-49.84h49.46v48.9h-49.46zm0-49.85h49.46v48.9h-49.46zm0-49.85h49.46v48.9h-49.46zm0-49.85h49.46v48.9h-49.46zm0-49.85h49.46v48.91h-49.46zm0-49.85h49.46v48.9h-49.46zm0-49.85h49.46v48.9h-49.46zm0-49.85h49.46v48.9h-49.46zm0-49.84h49.46v48.9h-49.46zm0-49.85h49.46v48.9h-49.46zm0-49.85h49.46v48.9h-49.46zm0-49.85h49.46v48.9h-49.46zm0-49.84h49.46v48.9h-49.46zm0-49.85h49.46v48.9h-49.46zm0-49.85h49.46v48.9h-49.46zm503.11 0v48.9h-49.46v-48.9h24.73zm0 98.75h-49.46v-48.9h49.46zm0 49.85h-49.46v-48.9h49.46zm0 49.85h-49.46v-48.9h49.46zm0 49.84h-49.46v-48.9h49.46zm0 49.85h-49.46v-48.9h49.46zm0 49.85h-49.46v-48.9h49.46zm0 49.85h-49.46v-48.9h49.46zm0 49.84h-49.46v-48.9h49.46zm0 49.85h-49.46v-48.9h49.46zm0 49.85h-49.46v-48.9h49.46zm0 49.85h-49.46v-48.91h49.46zm0 49.85h-49.46v-48.9h49.46zm0 49.85h-49.46v-48.9h49.46zm0 49.85h-49.46v-48.9h49.46zm0 49.85h-49.46v-48.91h49.46zm0 49.85h-49.46v-48.9h49.46zm0 49.85h-49.46v-48.9h49.46zm0 49.85h-49.46v-48.9h49.46zm0 49.85h-49.46v-48.91h49.46zm0 49.85h-49.46v-48.9h49.46zm-452.7-48.9h49.46v48.9h-49.46zm0-49.85h49.46v48.9h-49.46zm0-49.84h49.46v48.9h-49.46zm0-49.85h49.46v48.9h-49.46zm0-49.85h49.46v48.9h-49.46zm0-49.85h49.46v48.9h-49.46zm0-49.84h49.46v48.9h-49.46zm0-49.85h49.46v48.9h-49.46zm0-49.85h49.46v48.9h-49.46zm0-49.85h49.46v48.9h-49.46zm0-49.85h49.46v48.91h-49.46zm0-49.85h49.46v48.9h-49.46zm0-49.85h49.46v48.9h-49.46zm0-49.85h49.46v48.9h-49.46zm0-49.84h49.46v48.9h-49.46zm0-49.85h49.46v48.9h-49.46zm0-49.85h49.46v48.9h-49.46zm0-49.85h49.46v48.9h-49.46zm0-49.84h49.46v48.9h-49.46zm0-49.85h49.46v48.9h-49.46zm402.29 48.9h-24.73-24.73v-48.9h49.46zm0 49.85h-49.46v-48.9h24.73 24.73zm0 49.85h-49.46v-48.91h49.46zm0 49.85h-49.46v-48.9h49.46zm0 49.85h-49.46v-48.9h49.46zm0 49.85h-49.46v-48.9h49.46zm0 49.85h-49.46v-48.9h49.46zm0 49.84h-49.46v-48.9h49.46zm0 49.85h-49.46v-48.9h49.46zm0 49.85h-49.46v-48.9h49.46zm0 49.85h-49.46v-48.91h49.46zm0 49.85h-49.46v-48.9h49.46zm0 49.85h-49.46v-48.9h49.46zm0 49.85h-49.46v-48.9h49.46zm0 49.85h-49.46v-48.91h49.46zm0 49.85h-49.46v-48.9h49.46zm0 49.85h-49.46v-48.9h49.46zm0 49.85h-49.46v-48.9h49.46zm0 49.85h-49.46v-48.91h49.46zm-351.89-48.9h49.46v48.9h-49.46zm0-49.84h49.46v48.9h-49.46zm0-49.85h49.46v48.9h-49.46zm0-49.85h49.46v48.9h-49.46zm0-49.85h49.46v48.9h-49.46zm0-49.84h49.46v48.9h-49.46zm0-49.85h49.46v48.9h-49.46zm0-49.85h49.46v48.9h-49.46zm0-49.85h49.46v48.9h-49.46zm0-49.85h49.46v48.91h-49.46zm0-49.85h49.46v48.9h-49.46zm0-49.85h49.46v48.9h-49.46zm0-49.85h49.46v48.9h-49.46zm0-49.84h49.46v48.9h-49.46zm0-49.85h49.46v48.9h-49.46zm0-49.85h49.46v48.9h-49.46zm0-49.85h49.46v48.9h-49.46zm0-49.84h49.46v48.9h-49.46zm301.49 48.9h-49.46v-48.9h49.46zm0 49.85h-24.73-24.73v-48.91h49.46zm0 49.85h-49.46v-48.9h24.73 24.73zm0 49.85h-24.73-24.73v-48.9h49.46zm0 49.85h-49.46v-48.9h24.73 24.73zm0 49.85h-49.46v-48.91h49.46zm0 49.85h-49.46v-48.9h49.46zm0 49.85h-49.46v-48.9h49.46zm0 49.85h-49.46v-48.9h49.46zm0 49.84h-49.46v-48.9h49.46zm0 49.85h-49.46v-48.9h49.46zm0 49.85h-49.46v-48.9h49.46zm0 49.85h-49.46v-48.91h49.46zm0 49.85h-49.46v-48.9h49.46zm0 49.85h-49.46v-48.9h49.46zm0 49.85h-49.46v-48.9h49.46zm0 49.85h-49.46v-48.91h49.46zm-251.08-48.9h49.46v48.9h-49.46zm0-49.84h24.73 24.73v48.9h-49.46zm0-49.85h49.46v48.9h-24.73-24.73zm0-49.85h49.46v48.9h-49.46zm0-49.85h49.46v48.9h-49.46zm0-49.84h49.46v48.9h-49.46zm0-49.85h49.46v48.9h-49.46zm0-49.85h49.46v48.9h-49.46zm0-49.85h49.46v48.9h-49.46zm0-49.84h49.46v48.9h-49.46zm0-49.85h49.46v48.9h-49.46zm0-49.85h49.46v48.9h-49.46zm0-49.85h49.46v48.91h-49.46zm0-49.85h49.46v48.9h-49.46zm0-49.85h49.46v48.9h-49.46zm0-49.85h49.46v48.9h-49.46zm200.67 48.9h-49.46v-48.9h49.46zm0 49.85h-49.46v-48.9h49.46zm0 49.85h-49.46v-48.9h49.46zm0 49.85h-49.46v-48.9h49.46zm0 49.84h-24.73-24.73v-48.9h49.46zm0 49.85h-49.46v-48.9h24.73 24.73zm0 49.85h-49.46v-48.9h49.46zm0 49.85h-49.46v-48.91h49.46zm0 49.85h-49.46v-48.9h49.46zm0 49.85h-49.46v-48.9h49.46zm0 49.85h-49.46v-48.9h49.46zm0 49.84h-49.46v-48.9h49.46zm0 49.85h-49.46v-48.9h49.46zm0 49.85h-49.46v-48.9h49.46zm0 49.85h-49.46v-48.9h49.46zm-150.27-48.91h49.46v48.91h-49.46zm0-49.85h49.46v48.9h-49.46zm0-49.85h49.46v48.9h-49.46zm0-49.85h49.46v48.9h-49.46zm0-49.85h24.73 24.73v48.91h-49.46zm0-49.85h49.46v48.9h-24.73-24.73zm0-49.85h49.46v48.9h-49.46zm0-49.85h49.46v48.9h-49.46zm0-49.85h49.46v48.91h-49.46zm0-49.85h49.46v48.9h-49.46zm0-49.85h49.46v48.9h-49.46zm0-49.85h49.46v48.9h-49.46zm0-49.84h49.46v48.9h-49.46zm0-49.85h49.46v48.9h-49.46zm99.87 48.9h-49.46v-48.9h49.46zm0 49.85h-49.46v-48.9h49.46zm0 49.85h-49.46v-48.91h49.46zm0 49.85h-49.46v-48.9h49.46zm0 49.85h-49.46v-48.9h49.46zm0 49.85h-24.73-24.73v-48.9h49.46zm0 49.85h-49.46v-48.91h24.73 24.73zm0 49.85h-49.46v-48.9h49.46zm0 49.85h-49.46v-48.9h49.46zm0 49.85h-49.46v-48.91h49.46zm0 49.85h-49.46v-48.9h49.46zm0 49.85h-49.46v-48.9h49.46zm0 49.85h-49.46v-48.9h49.46zm-49.46 0.95h49.46v48.9h-49.46zm49.46-648.98h-49.46v-48.91h49.46zm-50.41 0h-49.46v-48.9h49.46zm-49.46 698.84h49.46v48.9h-49.46zm50.41 0h49.46v48.9h-49.46zm50.4 0h49.46v48.9h-49.46zm49.46-748.68h-49.46v-48.9h49.46zm-50.4 0h-49.46v-48.9h49.46zm-50.41 0h-49.46v-48.9h49.46zm-50.4 0h-49.46v-48.91h49.46zm-49.46 798.53h49.46v48.9h-49.46zm50.4 0h49.46v48.91h-49.46zm50.41 0h49.46v48.9h-49.46zm50.4 0h49.46v48.9h-49.46zm50.41 0h49.46v48.9h-49.46zm49.46-848.38h-49.46v-48.9h49.46zm-50.41 0h-49.46v-48.9h49.46zm-50.4 0h-49.46v-48.9h49.46zm-50.41 0h-49.46v-48.9h49.46zm-50.4 0h-49.46v-48.9h49.46zm-50.41 0h-49.46v-48.91h49.46zm-49.46 947.13v-48.9h49.46v48.9h-24.73zm50.41-48.9h49.46v48.9h-49.46zm50.4 0h49.46v48.9h-49.46zm50.41 0h49.46v48.9h-49.46zm50.4 0h49.46v48.91h-49.46zm50.41 0h49.46v48.9h-49.46zm50.4 0h49.46v48.9h-49.46zm49.46-948.08h-49.46v-48.9h49.46zm-50.4 0h-49.46v-48.9h49.46zm-50.41 0h-49.46v-48.9h49.46zm-50.4 0h-49.46v-48.9h49.46zm-50.41 0h-49.46v-48.9h49.46zm-50.41 0h-49.45v-48.9h49.45zm-50.4 0h-49.46v-48.91h49.46zm-50.41 0h-49.46v-48.9h49.46zm-49.46 997.93h49.46v48.9h-49.46zm50.41 0h24.73 24.73v48.9h-49.46zm50.41 0h49.46v48.9h-49.46zm50.4 0h49.46v48.9h-49.46zm50.41 0h49.46v48.9h-49.46zm50.4 0h49.46v48.9h-49.46zm50.41 0h49.46v48.91h-49.46zm50.4 0h49.46v48.9h-49.46zm50.41 0h49.46v48.9h-49.46zm49.46-1047.78h-24.73-24.73v-48.9h49.46zm-50.41 0h-49.46v-48.9h49.46v48.9zm-50.4 0h-49.46v-48.9h49.46v48.9zm-50.41 0h-49.46v-48.9h49.46v48.9zm-50.4 0h-49.46v-48.9h49.46v48.91zm-50.41 0h-49.46v-48.91h49.46v48.91zm-50.41 0h-49.45v-48.9h49.45v48.9zm-50.4 0h-49.46v-48.9h49.46v48.9zm-50.41 0h-49.46v-48.9h49.46v48.9zm-50.4 0h-49.46v-48.9h49.46v48.9zm-49.46 1097.62h49.46v48.9h-49.46zm50.4 0h49.46v48.91h-49.46zm50.41 0h49.46v48.9h-49.46zm50.41 0h49.46v48.9h-49.46zm50.4 0h49.46v48.9h-49.46zm50.41 0h49.46v48.9h-49.46zm50.4 0h49.46v48.91h-49.46zm50.41 0h49.46v48.9h-49.46zm50.4 0h49.46v48.9h-49.46zm50.41 0h49.46v48.9h-49.46zm50.4 0h49.46v48.9h-49.46zm49.46-1196.37v48.9h-49.46v-48.9h49.46zm-50.4 0v48.91h-49.46v-48.91zm-99.87 0h49.46v48.91h-49.46zm-50.4 0h49.46v48.9h-49.46zm-50.41 0h49.46v48.9h-49.46zm-50.4 0h49.46v48.9h-49.46zm-50.41 0h49.46v48.9h-49.46zm-50.4 0h49.46v48.91h-49.46zm-50.41 0h49.46v48.9h-49.46zm-50.41 0h49.46v48.9h-49.46zm-50.4 0h49.46v48.9h-49.46zm-50.41 0h49.46v48.9h-49.46zm-50.4 0h49.46v48.91h-49.46zm0 49.84h49.46v48.91h-49.46zm0 49.85h49.46v48.9h-49.46zm0 49.85h49.46v48.9h-49.46zm0 49.85h49.46v48.9h-49.46zm0 49.85h49.46v48.9h-49.46zm0 49.84h49.46v48.91h-49.46zm0 49.84h49.46v48.91h-49.46zm0 49.85h49.46v48.9h-49.46zm0 49.85h49.46v48.9h-49.46zm0 49.85h49.46v48.9h-49.46zm0 49.84h49.46v48.91h-49.46zm0 49.85h49.46v48.9h-49.46zm0 49.85h49.46v48.9h-49.46zm0 49.85h49.46v48.9h-49.46zm0 49.85h49.46v48.9h-49.46zm0 49.85h49.46v48.9h-49.46zm0 49.85h49.46v48.9h-49.46zm0 49.85h49.46v48.9h-49.46zm0 49.85h49.46v48.9h-49.46zm0 49.85h49.46v48.9h-49.46zm0 49.85h49.46v48.9h-49.46zm0 49.85h49.46v48.9h-49.46zm0 49.85h49.46v48.9h-49.46zm0 49.85h49.46v48.9h-49.46zm49.46 98.75h-49.46v-48.9h49.46v48.9zm50.4 0h-49.46v-48.9h49.46zm50.41 0h-49.46v-48.9h49.46zm50.4 0h-49.46v-48.91h49.46zm50.41 0h-49.46v-48.9h49.46zm50.4 0h-49.45v-48.9h49.45zm50.41 0h-49.46v-48.9h49.46zm50.41 0h-49.46v-48.9h49.46zm50.4 0h-49.46v-48.91h49.46zm50.41 0h-49.46v-48.9h49.46zm50.4 0h-49.46v-48.9h49.46zm50.41 0h-49.46v-48.9h49.46zm50.4 0h-49.46v-48.9h49.46zm50.41 0h-49.46v-48.91h49.46zm50.4 0h-49.46v-48.9h49.46zm0-49.85h-49.46v-48.9h49.46zm0-49.85h-49.46v-48.9h49.46zm0-49.85h-49.46v-48.9h49.46zm0-49.85h-49.46v-48.9h49.46zm0-49.85h-49.46v-48.9h49.46zm0-49.85h-49.46v-48.9h49.46zm0-49.85h-49.46v-48.9h49.46zm0-49.85h-49.46v-48.9h49.46zm0-49.85h-49.46v-48.9h49.46zm0-49.85h-49.46v-48.9h49.46zm0-49.85h-49.46v-48.9h49.46zm0-49.85h-49.46v-48.9h49.46zm0-49.85h-49.46v-48.9h49.46zm0-49.85h-49.46v-48.9h49.46zm0-49.85h-49.46v-48.9h49.46zm0-49.85h-49.46v-48.9h49.46zm0-49.85h-49.46v-48.9h49.46zm0-49.85h-49.46v-48.9h49.46zm0-49.85h-49.46v-48.9h49.46zm0-49.85h-49.46v-48.9h49.46zm0-49.85h-49.46v-48.9h49.46zm0-49.85h-49.46v-48.9h49.46zm0-49.85h-49.46v-48.9h49.46zm0-49.85h-49.46v-48.9h49.46zm-49.46-49.85v-48.9h49.46v48.9z"/>
							</g>
						</g>
					</g>
				</g>
			</g>
		</g>
	</g>
</svg>