<svg width="513" height="354" viewBox="0 0 513 354" fill="none" xmlns="http://www.w3.org/2000/svg">
<path d="M67.4165 62.3598C54.3918 66.8483 48.6723 75.4468 44.1393 84.7427C43.096 86.8822 42.237 89.0972 41.487 91.3354C41.0828 92.542 40.3945 93.0211 38.5641 92.3671C37.9679 92.1542 37.3229 92.0508 36.7022 91.888C35.7559 91.6397 34.9137 91.462 34.7033 92.3879C34.508 93.2464 35.3509 93.3826 36.1371 93.6401C40.3785 95.0286 40.372 95.0316 39.8251 98.2799C38.3596 106.985 38.4286 115.828 41.9885 124.99C43.2506 128.238 45.0353 131.364 47.9388 134.255C47.2888 134.695 46.5766 134.215 45.9578 134.052C40.9964 132.742 36.0614 131.321 31.085 130.08C26.6206 128.967 23.5497 126.79 21.4219 123.739C17.5738 118.22 16.3023 112.571 15.8661 106.902C14.6463 91.0431 19.2258 76.9158 30.1422 64.7237C32.7678 61.7915 35.9982 59.2704 40.4541 57.7343C43.2695 56.7639 46.283 56.6339 49.6883 57.5896C55.4686 59.2115 61.2818 60.716 67.4165 62.3598ZM39.8691 69.3422C38.7786 69.05 37.99 68.8144 37.1915 68.6295C35.1236 68.15 33.4021 69.2512 32.8226 71.1669C32.2999 72.8949 33.7975 73.3744 35.6448 73.7999C36.8873 74.0864 38.1146 74.4514 39.3539 74.7576C39.955 74.9059 40.6529 75.1966 41.118 74.8318C42.4749 73.7669 43.5197 72.3801 43.4139 70.9004C43.3171 69.5307 40.8496 69.8962 39.8691 69.3422ZM23.3952 112.516C24.271 112.619 25.6366 113.077 25.7974 112.22C25.9792 111.252 24.452 110.818 23.4245 110.401C22.4874 110.02 21.4754 110.185 21.2811 110.841C20.9774 111.864 22.3563 112.102 23.3952 112.516ZM22.4762 113.56C21.5509 113.832 21.1039 114.299 21.9292 115.046C22.6543 115.703 23.7112 115.875 24.2093 115.26C25.2855 113.93 25.507 115.368 25.99 115.88C26.5665 115.049 26.1367 114.514 25.2138 114.061C24.6721 113.796 24.324 113.922 24.2815 114.305C24.2221 114.845 23.9066 115.144 23.1254 114.931C22.0241 114.633 22.7759 114.019 22.4762 113.56ZM20.5959 107.971C21.4517 109.016 22.4962 109.055 23.3132 109.235C24.1817 109.428 25.7298 110.21 25.8457 109.491C26.0294 108.35 24.4012 108.983 23.6187 108.686C22.8138 108.38 21.9088 108.269 20.5959 107.971Z" fill="#2E3841"/>
<path d="M72.1696 144.194C68.198 143.13 64.1292 142.29 60.2781 140.95C54.4147 138.91 50.6392 135.238 47.9157 131.076C43.7008 124.633 42.0718 118.064 41.8704 111.481C41.4431 97.4716 45.1216 84.6637 54.5735 73.6363C57.9074 69.7461 62.0349 66.3582 67.8343 64.2827C72.6424 62.5619 77.9316 62.2543 83.7094 63.6382C86.9998 64.4262 90.2571 65.3759 93.4826 66.2402C93.6575 66.5763 93.387 66.6051 93.1609 66.5949C84.8366 66.2139 78.7633 68.8196 73.6459 72.6114C67.1952 77.3917 62.994 83.3506 60.0067 89.8739C55.7288 99.2147 54.0393 109.128 55.8729 119.715C56.8128 125.142 58.5551 130.536 62.5568 135.694C65.0635 138.924 68.2254 141.76 72.1696 144.194Z" fill="#171E24"/>
<path d="M59.3402 98.5316C62.338 89.0589 66.8783 79.9337 76.4118 73.0917C81.3098 69.5765 87.0909 67.0766 95.0312 67.7711C106.915 68.8105 115.777 73.4065 121.221 81.9308C126.56 90.2908 128.099 98.671 127.451 106.986C126.552 118.526 122.379 128.97 113.686 137.788C110.297 141.226 106.028 143.934 101.009 146.11C89.0039 151.315 70.5045 144.672 64.2377 135.103C59.0307 127.152 57.5956 119.204 57.5717 111.206C57.5593 106.97 58.2602 102.871 59.3402 98.5316ZM66.0356 102.225C64.9534 105.998 64.2704 111.334 64.6251 116.847C65.1421 124.882 67.3512 132.807 74.224 140.247C79.2371 145.674 84.9745 147.471 92.5139 146.001C99.0652 144.723 104.263 142.008 108.292 138.309C120.592 127.016 125.124 113.176 123.496 97.4705C122.723 90.0128 119.987 82.6728 113.099 76.0048C106.802 69.908 99.612 68.282 91.531 71.0411C86.6524 72.7066 82.7213 75.2029 79.4677 78.242C72.5488 84.7031 68.6417 92.4181 66.0356 102.225Z" fill="#171E24"/>
<path d="M14.8636 114.188C11.7801 113.362 8.8498 112.618 5.94611 111.787C2.85505 110.903 1.39058 108.948 0.271366 106.924C-1.89566 103.006 -2.65251 99.054 -2.73689 95.121C-2.95951 84.7081 -0.129457 75.2027 6.75366 66.9314C7.68886 65.8076 8.83461 64.78 10.0296 63.8082C13.3347 61.1212 17.3212 59.8041 23.0759 61.9965C24.5894 62.573 26.2439 62.8712 28.0971 63.3677C15.0877 78.0534 10.595 94.9158 14.8636 114.188Z" fill="#2E3841"/>
<path d="M69.0199 101.643C70.7774 94.9476 74.0079 89.3683 78.9636 84.5156C81.14 82.3844 83.7907 80.6463 87.2074 79.5453C93.2854 77.5868 99.5089 79.2036 103.882 83.9238C107.55 87.8828 109.08 92.1637 109.819 96.472C111.865 108.406 108.779 118.932 100.35 127.899C97.9686 130.433 95.0564 132.609 91.1484 133.951C84.0358 136.395 76.4591 134.056 72.3917 128.103C68.6376 122.608 67.8455 117.025 67.8048 111.465C67.7793 107.952 68.1777 104.509 69.0199 101.643ZM74.2216 102.513C74.0731 103.067 73.8563 103.608 73.7874 104.178C73.4112 107.293 72.8636 110.409 74.6637 113.697C75.8461 115.855 78.0754 116.981 80.1809 116.266C85.5333 114.447 88.9993 111.061 90.2131 106.931C91.1904 103.607 89.7774 99.6525 87.5482 96.0179C85.3027 92.3567 82.1202 91.7578 78.9832 94.3511C76.2654 96.597 75.1474 99.5197 74.2216 102.513Z" fill="#2E3841"/>
<path d="M81.3658 141.638C93.0847 139.852 99.8186 134.453 104.57 127.591C112.726 115.811 115.795 102.85 111.073 88.239C110.196 85.5243 108.809 82.8702 107.118 80.2688C105.475 77.7388 103.235 75.4335 100.362 72.974C104.656 74.1387 107.554 76.0108 109.888 78.4733C115.855 84.7696 118.074 91.5218 118.601 98.3625C119.679 112.386 115.479 124.786 104.709 135.018C101.378 138.182 97.1852 140.653 91.7825 141.967C88.7181 142.713 85.5407 143.041 81.3658 141.638Z" fill="#171E24"/>
<path d="M109.037 75.2356C112.791 77.4405 115.133 80.2451 116.931 83.2627C121.338 90.6609 122.499 98.0513 121.999 105.392C121.239 116.56 117.433 126.704 109.088 135.248C105.776 138.639 101.76 141.503 96.4259 143.266C94.4784 143.91 92.4447 144.417 90.025 144.27C108.659 139.2 114.965 127.131 119.013 113.854C121.017 107.282 121.056 100.355 119.434 93.2081C117.978 86.8021 115.107 80.7181 109.037 75.2356Z" fill="#2E3841"/>
<path d="M83.7265 97.9702L220.057 123.293L170.261 206.773L76.6788 110.793L83.7265 97.9702Z" fill="url(#paint0_linear_613_3111)"/>
<path d="M428.281 96.6655L287.554 124.611L337.35 208.091L435.312 109.499L428.281 96.6655Z" fill="url(#paint1_linear_613_3111)"/>
<path d="M445.58 61.0004C458.604 65.4889 464.324 74.0874 468.857 83.3834C469.9 85.5228 470.759 87.7379 471.509 89.9761C471.913 91.1826 472.602 91.6617 474.432 91.0077C475.028 90.7948 475.673 90.6914 476.294 90.5287C477.24 90.2803 478.082 90.1026 478.293 91.0285C478.488 91.887 477.645 92.0232 476.859 92.2807C472.618 93.6692 472.624 93.6723 473.171 96.9206C474.636 105.626 474.567 114.469 471.008 123.63C469.745 126.879 467.961 130.004 465.057 132.895C465.707 133.336 466.42 132.856 467.038 132.693C472 131.383 476.935 129.962 481.911 128.721C486.376 127.608 489.446 125.431 491.574 122.379C495.422 116.861 496.694 111.211 497.13 105.542C498.35 89.6837 493.77 75.5564 482.854 63.3643C480.228 60.4321 476.998 57.9111 472.542 56.3749C469.727 55.4045 466.713 55.2745 463.308 56.2302C457.527 57.8521 451.714 59.3566 445.58 61.0004ZM473.127 67.9828C474.217 67.6906 475.006 67.4551 475.805 67.2701C477.872 66.7906 479.594 67.8918 480.173 69.8075C480.696 71.5356 479.199 72.015 477.351 72.4405C476.109 72.727 474.882 73.092 473.642 73.3982C473.041 73.5465 472.343 73.8372 471.878 73.4725C470.521 72.4076 469.476 71.0207 469.582 69.541C469.679 68.1713 472.146 68.5368 473.127 67.9828ZM489.601 111.156C488.725 111.259 487.359 111.718 487.199 110.86C487.017 109.892 488.544 109.458 489.572 109.041C490.509 108.661 491.521 108.826 491.715 109.481C492.019 110.504 490.64 110.743 489.601 111.156ZM490.52 112.2C491.445 112.473 491.892 112.94 491.067 113.687C490.342 114.344 489.285 114.515 488.787 113.9C487.711 112.571 487.489 114.008 487.006 114.521C486.43 113.69 486.859 113.155 487.782 112.702C488.324 112.436 488.672 112.562 488.715 112.946C488.774 113.486 489.089 113.784 489.871 113.572C490.972 113.274 490.22 112.66 490.52 112.2ZM492.4 106.611C491.544 107.656 490.5 107.695 489.683 107.876C488.814 108.068 487.266 108.85 487.15 108.131C486.967 106.991 488.595 107.623 489.377 107.326C490.182 107.02 491.087 106.91 492.4 106.611Z" fill="#2E3841"/>
<path d="M440.83 142.833C444.802 141.769 448.871 140.928 452.722 139.588C458.585 137.548 462.361 133.877 465.084 129.715C469.299 123.272 470.928 116.703 471.13 110.119C471.557 96.1102 467.878 83.3024 458.427 72.275C455.093 68.3848 450.965 64.9968 445.166 62.9214C440.358 61.2005 435.068 60.893 429.291 62.2769C426 63.0649 422.743 64.0146 419.517 64.8789C419.342 65.215 419.613 65.2438 419.839 65.2336C428.163 64.8525 434.237 67.4583 439.354 71.2501C445.805 76.0303 450.006 81.9893 452.993 88.5125C457.271 97.8534 458.961 107.767 457.127 118.353C456.187 123.78 454.445 129.175 450.443 134.332C447.937 137.563 444.775 140.399 440.83 142.833Z" fill="#171E24"/>
<path d="M453.66 97.1722C450.662 87.6995 446.122 78.5743 436.588 71.7323C431.69 68.2171 425.909 65.7172 417.969 66.4117C406.085 67.4511 397.223 72.0471 391.779 80.5714C386.44 88.9314 384.901 97.3116 385.549 105.627C386.448 117.167 390.621 127.61 399.314 136.429C402.703 139.867 406.972 142.574 411.991 144.751C423.996 149.956 442.495 143.313 448.762 133.743C453.969 125.792 455.404 117.845 455.428 109.847C455.441 105.611 454.74 101.511 453.66 97.1722ZM446.964 100.866C448.047 104.639 448.73 109.975 448.375 115.488C447.858 123.523 445.649 131.448 438.776 138.888C433.763 144.314 428.026 146.112 420.486 144.641C413.935 143.364 408.737 140.649 404.708 136.95C392.408 125.657 387.876 111.816 389.504 96.1111C390.277 88.6534 393.013 81.3134 399.901 74.6454C406.198 68.5487 413.388 66.9227 421.469 69.6817C426.348 71.3472 430.279 73.8435 433.532 76.8826C440.451 83.3437 444.358 91.0587 446.964 100.866Z" fill="#171E24"/>
<path d="M498.136 112.828C501.22 112.002 504.15 111.258 507.054 110.428C510.145 109.544 511.609 107.588 512.729 105.564C514.896 101.647 515.653 97.6946 515.737 93.7617C515.96 83.3487 513.129 73.8433 506.246 65.572C505.311 64.4483 504.165 63.4206 502.97 62.4489C499.665 59.7618 495.679 58.4447 489.924 60.6371C488.411 61.2136 486.756 61.5118 484.903 62.0083C497.912 76.694 502.405 93.5564 498.136 112.828Z" fill="#2E3841"/>
<path d="M443.98 100.286C442.223 93.5902 438.992 88.0109 434.036 83.1581C431.86 81.027 429.209 79.2889 425.793 78.1878C419.715 76.2294 413.491 77.8462 409.118 82.5664C405.45 86.5254 403.92 90.8063 403.181 95.1146C401.135 107.048 404.221 117.575 412.65 126.542C415.031 129.076 417.944 131.251 421.852 132.594C428.964 135.038 436.541 132.699 440.608 126.745C444.362 121.251 445.155 115.667 445.195 110.107C445.221 106.595 444.822 103.152 443.98 100.286ZM438.778 101.155C438.927 101.71 439.144 102.251 439.213 102.82C439.589 105.936 440.136 109.051 438.336 112.339C437.154 114.498 434.925 115.623 432.819 114.908C427.467 113.09 424.001 109.704 422.787 105.574C421.81 102.25 423.223 98.2951 425.452 94.6605C427.697 90.9993 430.88 90.4004 434.017 92.9937C436.735 95.2396 437.853 98.1623 438.778 101.155Z" fill="#2E3841"/>
<path d="M431.634 140.278C419.915 138.492 413.181 133.094 408.43 126.231C400.274 114.452 397.205 101.491 401.927 86.8796C402.804 84.1649 404.191 81.5108 405.882 78.9095C407.525 76.3795 409.765 74.0741 412.638 71.6147C408.344 72.7793 405.446 74.6514 403.112 77.1139C397.145 83.4102 394.926 90.1624 394.399 97.0031C393.321 111.027 397.521 123.426 408.291 133.659C411.622 136.823 415.815 139.293 421.217 140.608C424.282 141.354 427.459 141.681 431.634 140.278Z" fill="#171E24"/>
<path d="M403.963 73.8782C400.209 76.083 397.867 78.8876 396.069 81.9053C391.662 89.3035 390.501 96.6939 391.001 104.034C391.761 115.203 395.567 125.346 403.912 133.891C407.224 137.282 411.24 140.146 416.574 141.909C418.522 142.553 420.555 143.059 422.975 142.912C404.341 137.843 398.035 125.773 393.987 112.497C391.983 105.925 391.944 98.9977 393.566 91.8507C395.022 85.4447 397.893 79.3607 403.963 73.8782Z" fill="#2E3841"/>
<circle cx="252.902" cy="60.6596" r="38.315" stroke="#B4C9A8" stroke-width="0.9"/>
<circle cx="252.903" cy="60.6607" r="35.035" stroke="#B4C9A8" stroke-width="0.9"/>
<circle cx="252.902" cy="60.66" r="30.6264" stroke="#B4C9A8" stroke-width="2.7"/>
<path d="M198.402 11.9193C196.792 11.9193 195.496 11.3646 194.514 10.2553C193.533 9.14598 193.042 7.71665 193.042 5.96731C193.042 4.23931 193.528 2.81531 194.498 1.69531C195.48 0.564646 196.802 -0.000687599 198.466 -0.000687599C199.768 -0.000687599 200.818 0.335312 201.618 1.00731C202.418 1.67931 202.898 2.55931 203.058 3.64731H201.65C201.512 2.92198 201.16 2.34065 200.594 1.90331C200.04 1.46598 199.32 1.24731 198.434 1.24731C197.208 1.24731 196.248 1.68998 195.554 2.57531C194.861 3.44998 194.514 4.58065 194.514 5.96731C194.514 7.37531 194.872 8.51131 195.586 9.37531C196.312 10.2286 197.266 10.6553 198.45 10.6553C199.474 10.6553 200.264 10.3566 200.818 9.75931C201.384 9.16198 201.704 8.40998 201.778 7.50331H203.202C203.192 8.06865 203.058 8.64998 202.802 9.24731C202.557 9.83398 202.232 10.3246 201.826 10.7193C201.005 11.5193 199.864 11.9193 198.402 11.9193ZM204.626 11.6953V3.42331H205.922V11.6953H204.626ZM204.626 1.85531V0.255312H205.922V1.85531H204.626ZM209.737 11.6953L206.841 3.42331H208.233L209.945 8.67131L210.489 10.4153H210.521C210.723 9.73265 210.905 9.15131 211.065 8.67131L212.809 3.42331H214.153L211.177 11.6953H209.737ZM215.064 11.6953V3.42331H216.36V11.6953H215.064ZM215.064 1.85531V0.255312H216.36V1.85531H215.064ZM218.174 11.6953V0.255312H219.47V11.6953H218.174ZM223.557 7.87131V6.68731H227.845V7.87131H223.557ZM232.068 11.6953V0.255312H236.228C237.903 0.255312 239.167 0.772645 240.02 1.80731C240.873 2.84198 241.3 4.24465 241.3 6.01531C241.3 7.77531 240.857 9.16198 239.972 10.1753C239.087 11.1886 237.801 11.6953 236.116 11.6953H232.068ZM233.508 10.4313H236.068C238.575 10.4313 239.828 8.95931 239.828 6.01531C239.828 3.00731 238.612 1.50331 236.18 1.50331H233.508V10.4313ZM246.35 11.9193C245.123 11.9193 244.147 11.5086 243.422 10.6873C242.707 9.85531 242.35 8.81531 242.35 7.56731C242.35 6.34065 242.712 5.31131 243.438 4.47931C244.174 3.63665 245.118 3.21531 246.27 3.21531C247.486 3.21531 248.424 3.64198 249.086 4.49531C249.747 5.33798 250.078 6.46331 250.078 7.87131H243.678C243.731 8.74598 243.987 9.46065 244.446 10.0153C244.915 10.5593 245.55 10.8313 246.35 10.8313C247.587 10.8313 248.35 10.266 248.638 9.13531H249.902C249.71 10.0206 249.304 10.7086 248.686 11.1993C248.067 11.6793 247.288 11.9193 246.35 11.9193ZM247.998 4.94331C247.582 4.47398 247.006 4.23931 246.27 4.23931C245.534 4.23931 244.947 4.48465 244.51 4.97531C244.083 5.46598 243.816 6.10598 243.71 6.89531H248.686C248.643 6.06331 248.414 5.41265 247.998 4.94331ZM251.345 14.3513V3.42331H252.641V4.59131H252.673C253.345 3.68465 254.23 3.23131 255.329 3.23131C256.396 3.23131 257.254 3.62065 257.905 4.39931C258.556 5.16731 258.881 6.22865 258.881 7.58331C258.881 8.91665 258.561 9.97798 257.921 10.7673C257.281 11.546 256.401 11.9353 255.281 11.9353C254.172 11.9353 253.302 11.53 252.673 10.7193H252.641V14.3513H251.345ZM255.185 10.8473C255.953 10.8473 256.54 10.5486 256.945 9.95131C257.35 9.35398 257.553 8.56998 257.553 7.59931C257.553 6.62865 257.35 5.84465 256.945 5.24731C256.54 4.63931 255.958 4.33531 255.201 4.33531C254.337 4.33531 253.681 4.64465 253.233 5.26331C252.785 5.87131 252.561 6.64998 252.561 7.59931C252.561 8.56998 252.774 9.35398 253.201 9.95131C253.628 10.5486 254.289 10.8473 255.185 10.8473ZM260.221 11.6953V0.255312H261.517V11.6953H260.221ZM269.761 10.6713C269.036 11.5033 268.071 11.9193 266.865 11.9193C265.66 11.9193 264.689 11.5033 263.953 10.6713C263.228 9.83931 262.865 8.80465 262.865 7.56731C262.865 6.32998 263.228 5.29531 263.953 4.46331C264.689 3.63131 265.66 3.21531 266.865 3.21531C268.071 3.21531 269.036 3.63131 269.761 4.46331C270.487 5.29531 270.849 6.32998 270.849 7.56731C270.849 8.80465 270.487 9.83931 269.761 10.6713ZM264.881 9.91931C265.351 10.5273 266.012 10.8313 266.865 10.8313C267.719 10.8313 268.375 10.5273 268.833 9.91931C269.292 9.30065 269.521 8.51665 269.521 7.56731C269.521 6.60731 269.287 5.82331 268.817 5.21531C268.359 4.59665 267.708 4.28731 266.865 4.28731C266.012 4.28731 265.351 4.59665 264.881 5.21531C264.423 5.83398 264.193 6.61798 264.193 7.56731C264.193 8.51665 264.423 9.30065 264.881 9.91931ZM273.041 14.4313C272.551 14.4313 272.161 14.3726 271.873 14.2553V13.1033H271.937C272.151 13.2206 272.444 13.2793 272.817 13.2793C273.105 13.2793 273.345 13.2046 273.537 13.0553C273.729 12.9166 273.9 12.6553 274.049 12.2713L274.369 11.4553L271.137 3.42331H272.545L274.497 8.57531L275.057 10.1913H275.089C275.281 9.57265 275.463 9.03398 275.633 8.57531L277.521 3.42331H278.897L275.361 12.3673C275.041 13.178 274.711 13.722 274.369 13.9993C274.028 14.2873 273.585 14.4313 273.041 14.4313ZM279.814 11.6953V3.42331H281.11V4.60731H281.142C281.408 4.19131 281.755 3.86065 282.182 3.61531C282.608 3.35931 283.072 3.23131 283.574 3.23131C284.651 3.23131 285.371 3.72198 285.734 4.70331H285.766C286.022 4.24465 286.379 3.88731 286.838 3.63131C287.296 3.36465 287.782 3.23131 288.294 3.23131C289.051 3.23131 289.659 3.46598 290.118 3.93531C290.576 4.39398 290.806 5.04465 290.806 5.88731V11.6953H289.51V5.95131C289.51 5.44998 289.36 5.05531 289.062 4.76731C288.774 4.46865 288.416 4.31931 287.99 4.31931C287.446 4.31931 286.971 4.53265 286.566 4.95931C286.16 5.38598 285.958 5.91398 285.958 6.54331V11.6953H284.662V5.95131C284.662 5.44998 284.528 5.05531 284.262 4.76731C284.006 4.46865 283.664 4.31931 283.238 4.31931C282.704 4.31931 282.214 4.53798 281.766 4.97531C281.328 5.40198 281.11 5.92465 281.11 6.54331V11.6953H279.814ZM296.053 11.9193C294.826 11.9193 293.85 11.5086 293.125 10.6873C292.41 9.85531 292.053 8.81531 292.053 7.56731C292.053 6.34065 292.415 5.31131 293.141 4.47931C293.877 3.63665 294.821 3.21531 295.973 3.21531C297.189 3.21531 298.127 3.64198 298.789 4.49531C299.45 5.33798 299.781 6.46331 299.781 7.87131H293.381C293.434 8.74598 293.69 9.46065 294.149 10.0153C294.618 10.5593 295.253 10.8313 296.053 10.8313C297.29 10.8313 298.053 10.266 298.341 9.13531H299.605C299.413 10.0206 299.007 10.7086 298.389 11.1993C297.77 11.6793 296.991 11.9193 296.053 11.9193ZM297.701 4.94331C297.285 4.47398 296.709 4.23931 295.973 4.23931C295.237 4.23931 294.65 4.48465 294.213 4.97531C293.786 5.46598 293.519 6.10598 293.413 6.89531H298.389C298.346 6.06331 298.117 5.41265 297.701 4.94331ZM302.344 3.42331V4.51131H302.376C303.016 3.65798 303.891 3.23131 305 3.23131C305.875 3.23131 306.557 3.46065 307.048 3.91931C307.539 4.37798 307.784 5.03398 307.784 5.88731V11.6953H306.488V5.99931C306.488 5.46598 306.323 5.05531 305.992 4.76731C305.661 4.46865 305.203 4.31931 304.616 4.31931C303.955 4.31931 303.411 4.53265 302.984 4.95931C302.557 5.38598 302.344 5.93531 302.344 6.60731V11.6953H301.048V3.42331H302.344ZM308.817 4.47931V3.42331H310.017V0.815312H311.313V3.42331H312.913V4.47931H311.313V9.85531C311.313 10.3673 311.59 10.6233 312.145 10.6233C312.38 10.6233 312.609 10.586 312.833 10.5113H312.881V11.6313C312.529 11.706 312.182 11.7433 311.841 11.7433C310.625 11.7433 310.017 11.21 310.017 10.1433V4.47931H308.817Z" fill="#5D8049"/>
<path d="M251.88 50.5344C251.88 49.7334 252.118 48.9503 252.563 48.2843C253.008 47.6183 253.641 47.0992 254.381 46.7927C255.121 46.4861 255.935 46.4059 256.721 46.5622C257.506 46.7185 258.228 47.1042 258.794 47.6706C259.361 48.237 259.746 48.9586 259.903 49.7443C260.059 50.5299 259.979 51.3442 259.672 52.0842C259.366 52.8243 258.847 53.4568 258.18 53.9018C257.514 54.3468 256.731 54.5844 255.93 54.5844C254.856 54.5844 253.826 54.1577 253.067 53.3982C252.307 52.6386 251.88 51.6085 251.88 50.5344ZM263.018 61.6719C259.393 61.6719 257.726 59.9886 255.962 58.2079C255.515 57.756 255.053 57.289 254.57 56.8688C249.887 52.8011 242.392 59.7456 242.076 60.043C241.887 60.2285 241.779 60.4803 241.774 60.7447C241.768 61.009 241.867 61.2649 242.048 61.4577C242.229 61.6504 242.478 61.7647 242.742 61.7761C243.006 61.7875 243.265 61.6951 243.461 61.5187C244.639 60.4547 245.935 59.5294 247.324 58.7609C249.068 57.8269 250.538 57.4662 251.716 57.675L244.876 73.4181C244.77 73.6644 244.765 73.9429 244.863 74.1926C244.962 74.4422 245.156 74.6426 245.402 74.7496C245.529 74.8058 245.666 74.8347 245.805 74.8344C246.003 74.8345 246.196 74.7769 246.361 74.6687C246.526 74.5606 246.656 74.4066 246.734 74.2256L250.986 64.4461L254.918 67.2558V73.8219C254.918 74.0904 255.025 74.3479 255.214 74.5378C255.404 74.7277 255.662 74.8344 255.93 74.8344C256.199 74.8344 256.456 74.7277 256.646 74.5378C256.836 74.3479 256.943 74.0904 256.943 73.8219V66.7344C256.943 66.5732 256.904 66.4144 256.831 66.2711C256.757 66.1278 256.65 66.0041 256.519 65.9105L251.811 62.5477L253.511 58.6344C253.845 58.9432 254.176 59.276 254.523 59.6266C256.316 61.4428 258.549 63.6969 263.018 63.6969C263.286 63.6969 263.544 63.5902 263.734 63.4003C263.924 63.2104 264.03 62.9529 264.03 62.6844C264.03 62.4158 263.924 62.1583 263.734 61.9684C263.544 61.7786 263.286 61.6719 263.018 61.6719Z" fill="#5D8049"/>
<g filter="url(#filter0_d_613_3111)">
<path d="M326.897 204.877C325.103 203.083 324.095 200.65 324.095 198.112C324.095 195.575 323.087 193.142 321.293 191.348L319.622 189.677C317.317 187.372 316.022 184.245 316.022 180.984C316.022 177.724 314.726 174.597 312.421 172.291L304.288 164.158C301.882 161.752 298.619 160.401 295.216 160.401C291.814 160.401 288.551 159.049 286.145 156.643L285.551 156.049C282.764 153.263 278.985 151.697 275.044 151.697H267.486C266.336 151.697 265.234 152.154 264.421 152.966L260.904 156.484C259.472 157.916 257.024 156.902 257.024 154.877C257.024 153.724 256.16 152.754 255.015 152.62L247.153 151.701L237.956 151.699C234.015 151.698 230.235 153.263 227.449 156.05L226.855 156.643C224.449 159.049 221.186 160.401 217.783 160.401C214.381 160.401 211.118 161.753 208.712 164.158L200.579 172.291C198.274 174.597 196.978 177.724 196.978 180.984C196.978 184.245 195.683 187.372 193.377 189.677L191.707 191.348C189.913 193.142 188.905 195.575 188.905 198.113C188.905 200.65 187.897 203.083 186.103 204.877L185.97 205.01C184.091 206.889 183.035 209.438 183.035 212.096V244.485C183.035 247.142 184.091 249.691 185.97 251.57L186.103 251.703C187.897 253.497 188.905 255.931 188.905 258.468C188.905 261.005 189.913 263.439 191.707 265.233L193.377 266.903C195.683 269.208 196.978 272.336 196.978 275.596C196.978 278.857 198.274 281.984 200.579 284.289L208.712 292.422C211.118 294.828 214.381 296.18 217.784 296.18C221.186 296.18 224.449 297.531 226.855 299.937L227.449 300.531C230.236 303.318 234.015 304.883 237.956 304.883H243.502C245.94 304.883 248.278 303.915 250.001 302.191C253.59 298.602 259.41 298.602 262.999 302.191C264.722 303.915 267.06 304.883 269.498 304.883H275.045C278.985 304.883 282.764 303.318 285.551 300.531L286.145 299.937C288.551 297.531 291.814 296.18 295.216 296.18C298.619 296.18 301.882 294.828 304.288 292.422L315.868 280.842C315.966 280.743 316.022 280.61 316.022 280.471V275.596C316.022 272.335 317.317 269.208 319.622 266.903L321.293 265.232C323.087 263.438 324.095 261.005 324.095 258.468C324.095 255.93 325.103 253.497 326.897 251.703L327.03 251.57C328.909 249.691 329.965 247.142 329.965 244.485V212.096C329.965 209.438 328.909 206.889 327.03 205.01L326.897 204.877ZM327.351 249.767C325.263 251.854 321.879 251.854 319.791 249.767L317.464 247.44C316.019 245.995 314.061 245.184 312.018 245.184H308.781C307.19 245.184 305.685 243.651 304.094 243.651C302.958 243.651 302.037 244.572 302.037 245.708C302.037 246.844 302.958 247.765 304.094 247.765C305.685 247.765 307.19 246.232 308.781 246.232H311.736C313.681 246.232 315.547 247.005 316.922 248.38L320.398 251.856C322.094 253.552 323.047 255.852 323.047 258.251V258.869C323.047 260.871 322.252 262.792 320.836 264.207C317.888 267.156 313.108 267.156 310.16 264.207L296.619 250.667L296.466 250.514L279.25 233.298C278.778 232.825 278.753 232.077 278.753 231.41C278.753 230.273 277.832 229.352 276.696 229.352C275.56 229.352 274.639 230.274 274.639 231.41C274.639 232.546 275.56 233.467 276.696 233.467C277.307 233.467 277.981 233.511 278.413 233.943L285.308 240.838C288.879 244.409 286.35 250.514 281.301 250.514H279.631C278.04 250.514 276.535 248.98 274.944 248.98C273.808 248.98 272.887 249.901 272.887 251.038C272.887 252.174 273.808 253.095 274.944 253.095C276.535 253.095 278.04 251.562 279.631 251.562H289.356C293.63 251.562 297.73 253.259 300.752 256.282L313.018 268.548C314.27 269.8 314.974 271.498 314.974 273.269C314.974 276.957 311.984 279.947 308.296 279.947H307.31C303.452 279.947 300.325 276.82 300.325 272.963C300.325 271.11 299.589 269.334 298.279 268.024L294.922 264.666C294.436 264.18 294.418 263.406 294.418 262.719C294.418 261.583 293.497 260.662 292.361 260.662C291.225 260.662 290.304 261.583 290.304 262.719C290.304 263.855 291.225 264.776 292.361 264.776C292.951 264.776 293.599 264.825 294.016 265.242L297.321 268.548C298.574 269.8 299.277 271.499 299.277 273.27V273.978C299.277 277.274 296.604 279.947 293.308 279.947C291.724 279.947 290.206 279.318 289.086 278.199L284.581 273.694C282.725 271.838 280.208 270.795 277.582 270.795H272.652C271.061 270.795 269.556 269.262 267.965 269.262C266.829 269.262 265.908 270.183 265.908 271.319C265.908 272.455 266.829 273.376 267.965 273.376C269.556 273.376 271.061 271.843 272.652 271.843H277.3C279.828 271.843 282.252 272.847 284.04 274.635L287.933 278.527C289.513 280.107 291.656 280.995 293.891 280.995H300.313C305.45 280.995 308.022 287.205 304.39 290.838L303.171 292.056C301.593 293.635 299.034 293.635 297.455 292.056L295.988 290.589C295.51 290.111 295.489 289.351 295.489 288.675C295.489 287.538 294.568 286.617 293.432 286.617C292.295 286.617 291.374 287.538 291.374 288.675C291.374 289.811 292.295 290.732 293.432 290.732C294.033 290.732 294.695 290.778 295.121 291.204L295.498 291.581C296.808 292.891 295.88 295.131 294.027 295.131H290.871C289.973 295.131 289.111 295.488 288.476 296.123L282.172 302.427C281.271 303.329 280.049 303.835 278.774 303.835H271.828C270.11 303.835 269.25 301.758 270.465 300.543L270.73 300.277C271.223 299.784 272.011 299.77 272.708 299.77C273.844 299.77 274.765 298.849 274.765 297.712C274.765 296.576 273.844 295.655 272.708 295.655C271.571 295.655 270.65 296.576 270.65 297.712C270.65 298.292 270.599 298.926 270.19 299.335L268.783 300.742C267.195 302.33 264.62 302.33 263.032 300.742L261.574 299.284C259.181 296.891 259.181 293.011 261.574 290.617L263.692 288.5C265.403 286.789 267.723 285.828 270.143 285.828H276.781C277.3 285.828 277.799 286.034 278.166 286.401L278.447 286.683C278.943 287.179 278.956 287.973 278.956 288.674C278.956 289.811 279.877 290.732 281.013 290.732C282.15 290.732 283.071 289.811 283.071 288.674C283.071 287.538 282.15 286.617 281.013 286.617C280.439 286.617 279.812 286.565 279.406 286.159L278.776 285.529C278.296 285.049 277.645 284.78 276.967 284.78H267.774C266.593 284.78 265.461 285.249 264.626 286.084C261.82 288.889 257.024 286.902 257.024 282.935V261.614C257.024 258.81 259.297 256.536 262.101 256.536C263.448 256.536 264.739 257.071 265.691 258.023L266.702 259.034C268.024 260.356 269.818 261.099 271.688 261.099H274.584C276.212 261.099 277.755 262.719 279.384 262.719C280.52 262.719 281.441 261.798 281.441 260.662C281.441 259.526 280.52 258.605 279.384 258.605C277.83 258.605 276.36 260.051 274.807 260.051H272.159C270.265 260.051 268.449 259.299 267.11 257.96L266.216 257.065C265.206 256.056 263.836 255.488 262.408 255.488H259.229C258.011 255.488 257.024 254.501 257.024 253.283L257.024 246.012C257.024 245.054 256.247 244.277 255.289 244.277H242.919C239.533 244.277 236.287 245.622 233.893 248.016L233.242 248.667C231.265 250.644 228.584 251.754 225.788 251.754H220.362C218.771 251.754 217.266 250.221 215.675 250.221C214.539 250.221 213.618 251.142 213.618 252.278C213.618 253.415 214.539 254.336 215.675 254.336C217.266 254.336 218.771 252.802 220.362 252.802H226.07C228.963 252.802 231.738 251.653 233.783 249.608L234.356 249.035C236.731 246.66 239.953 245.325 243.311 245.325H255.289C255.668 245.325 255.976 245.633 255.976 246.012V246.7C255.976 250.046 253.263 252.759 249.917 252.759H247.946C246.355 252.759 244.85 251.226 243.259 251.226C242.123 251.226 241.202 252.147 241.202 253.283C241.202 254.419 242.123 255.34 243.259 255.34C244.85 255.34 246.355 253.807 247.946 253.807H251.066C253.778 253.807 255.976 256.005 255.976 258.716C255.976 260.018 255.458 261.267 254.538 262.188L252.229 264.496C249.909 266.817 246.762 268.12 243.481 268.12H242.359C239.796 268.12 237.339 269.138 235.527 270.95L234.299 272.178C233.273 273.204 231.882 273.78 230.431 273.78H228.915C227.324 273.78 225.819 272.247 224.228 272.247C223.092 272.247 222.171 273.168 222.171 274.304C222.171 275.44 223.092 276.361 224.228 276.361C225.819 276.361 227.324 274.828 228.915 274.828H230.714C232.261 274.828 233.745 274.213 234.84 273.119L235.961 271.998C237.773 270.186 240.23 269.168 242.793 269.168H247.603C248.523 269.168 249.405 268.803 250.055 268.152C252.24 265.968 255.976 267.515 255.976 270.605V272.477C255.976 274.821 254.076 276.721 251.732 276.721H246.979C245.389 276.721 243.883 275.188 242.292 275.188C241.156 275.188 240.235 276.109 240.235 277.245C240.235 278.381 241.156 279.302 242.292 279.302C243.883 279.302 245.388 277.769 246.979 277.769H251.314C253.888 277.769 255.976 279.856 255.976 282.431V287.558C255.976 289.819 253.241 290.952 251.642 289.353L251.024 288.735C250.522 288.232 250.512 287.427 250.512 286.716C250.512 285.58 249.591 284.659 248.455 284.659C247.319 284.659 246.398 285.58 246.398 286.716C246.398 287.852 247.319 288.773 248.455 288.773C248.791 288.773 249.108 288.691 249.388 288.548C249.407 288.538 249.428 288.565 249.413 288.58C249.406 288.587 249.406 288.598 249.413 288.605L252.579 291.772C254.335 293.528 254.335 296.374 252.579 298.13L251.425 299.284C249.032 301.678 245.152 301.678 242.758 299.284L241.753 298.279C241.069 297.595 240.142 297.211 239.175 297.211H239.065C237.474 297.211 235.969 295.678 234.378 295.678C233.242 295.678 232.321 296.599 232.321 297.735C232.321 298.871 233.242 299.792 234.378 299.792C234.436 299.792 234.493 299.79 234.549 299.785C236.034 299.662 237.403 298.259 238.893 298.259H239.096C239.836 298.259 240.545 298.553 241.068 299.076C242.824 300.832 241.58 303.835 239.096 303.835H234.225C232.951 303.835 231.729 303.329 230.828 302.427L224.523 296.123C223.888 295.488 223.027 295.131 222.128 295.131H220.205C217.897 295.131 216.742 292.341 218.374 290.709L219.019 290.064C219.462 289.62 220.157 289.582 220.784 289.582C221.92 289.582 222.841 288.661 222.841 287.525C222.841 286.389 221.92 285.468 220.784 285.468C219.648 285.468 218.727 286.389 218.727 287.525C218.727 288.176 218.697 288.903 218.236 289.364L216.243 291.357C214.279 293.322 211.093 293.322 209.129 291.357L208.609 290.837C204.977 287.205 207.55 280.995 212.686 280.995H223.057C224.741 280.995 226.356 281.664 227.547 282.855L230.312 285.62C230.788 286.096 230.81 286.851 230.81 287.525C230.81 288.661 231.731 289.582 232.867 289.582C234.003 289.582 234.924 288.661 234.924 287.525C234.924 286.389 234.003 285.468 232.867 285.468C232.262 285.468 231.596 285.422 231.168 284.994L228.18 282.006C226.862 280.688 225.073 279.947 223.209 279.947H202.595C200.072 279.947 198.026 277.902 198.026 275.379C198.026 272.856 200.072 270.81 202.595 270.81H211.192C214.684 270.81 218.033 269.423 220.502 266.954L224.183 263.273C225.324 262.132 226.872 261.491 228.486 261.491H230.477C232.067 261.491 233.573 263.024 235.163 263.024C236.3 263.024 237.221 262.103 237.221 260.967C237.221 259.831 236.3 258.91 235.163 258.91C233.573 258.91 232.067 260.443 230.477 260.443H228.203C226.492 260.443 224.852 261.123 223.642 262.332L220.872 265.103C217.888 268.086 213.842 269.763 209.622 269.763H203.211C199.695 269.763 196.323 268.366 193.836 265.879L191.441 263.484C190.488 262.532 189.953 261.239 189.953 259.892C189.953 257.086 192.227 254.812 195.033 254.812H197.916C199.582 254.812 201.18 255.474 202.358 256.652L205.056 259.35C205.521 259.815 205.549 260.551 205.549 261.209C205.549 262.345 206.47 263.266 207.606 263.266C208.742 263.266 209.663 262.345 209.663 261.209C209.663 260.073 208.742 259.152 207.606 259.152C207.239 259.152 206.896 259.249 206.598 259.417C206.594 259.42 206.59 259.414 206.594 259.411C206.595 259.409 206.595 259.407 206.594 259.405L202.605 255.417C201.547 254.359 200.111 253.764 198.614 253.764H191.86C190.443 253.764 189.083 253.201 188.08 252.198C185.993 250.111 185.993 246.726 188.08 244.638L189.344 243.375C190.681 242.038 192.495 241.286 194.387 241.286H204.489C206.375 241.286 208.184 240.537 209.517 239.203L212.576 236.145C213.013 235.708 213.695 235.666 214.312 235.666C215.448 235.666 216.369 234.745 216.369 233.609C216.369 232.473 215.448 231.552 214.312 231.552C213.176 231.552 212.255 232.473 212.255 233.609C212.255 234.27 212.229 235.01 211.761 235.477L208.915 238.323C207.689 239.549 206.027 240.238 204.293 240.238H192.43C191.513 240.238 190.634 240.602 189.986 241.251C187.807 243.429 184.083 241.886 184.083 238.806V234.186C184.083 231.219 186.488 228.814 189.455 228.814H193.033C195.407 228.814 197.684 227.871 199.362 226.193L199.772 225.783C201.713 223.842 204.346 222.751 207.091 222.751H214.881C216.472 222.751 217.977 224.284 219.568 224.284C220.704 224.284 221.625 223.363 221.625 222.227C221.625 221.091 220.704 220.17 219.568 220.17C217.977 220.17 216.472 221.703 214.881 221.703H206.657C203.912 221.703 201.279 222.794 199.338 224.735L198.838 225.235C197.217 226.855 195.019 227.766 192.727 227.766C187.953 227.766 184.083 223.896 184.083 219.123V210.593C184.083 209.176 184.646 207.816 185.649 206.813C187.737 204.726 191.121 204.726 193.209 206.813L195.536 209.141C196.981 210.585 198.939 211.396 200.982 211.396H204.219C205.81 211.396 207.315 212.93 208.906 212.93C210.042 212.93 210.963 212.009 210.963 210.872C210.963 209.736 210.042 208.815 208.906 208.815C207.315 208.815 205.81 210.348 204.219 210.348H201.264C199.319 210.348 197.453 209.576 196.078 208.2L192.602 204.724C190.906 203.028 189.953 200.728 189.953 198.33V197.711C189.953 195.709 190.748 193.789 192.164 192.373C195.112 189.425 199.892 189.425 202.84 192.373L216.381 205.913L233.75 223.283C234.223 223.755 234.247 224.503 234.247 225.171C234.247 226.307 235.168 227.228 236.304 227.228C237.44 227.228 238.361 226.307 238.361 225.171C238.361 224.034 237.44 223.113 236.304 223.113C235.693 223.113 235.019 223.069 234.587 222.637L227.692 215.742C224.121 212.172 226.65 206.067 231.7 206.067H233.369C234.96 206.067 236.465 207.6 238.056 207.6C239.192 207.6 240.113 206.679 240.113 205.543C240.113 204.406 239.192 203.485 238.056 203.485C236.465 203.485 234.96 205.019 233.369 205.019H223.644C219.37 205.019 215.271 203.321 212.248 200.298L199.982 188.032C198.73 186.78 198.026 185.082 198.026 183.311C198.026 179.623 201.016 176.633 204.704 176.633H205.69C209.548 176.633 212.675 179.76 212.675 183.618C212.675 185.47 213.41 187.247 214.72 188.556L218.078 191.914C218.564 192.4 218.582 193.174 218.582 193.861C218.582 194.997 219.503 195.918 220.639 195.918C221.775 195.918 222.696 194.997 222.696 193.861C222.696 192.725 221.775 191.804 220.639 191.804C220.049 191.804 219.401 191.755 218.984 191.338L215.678 188.032C214.426 186.78 213.723 185.082 213.723 183.311V182.603C213.723 179.306 216.395 176.633 219.692 176.633C221.276 176.633 222.794 177.262 223.913 178.382L228.418 182.886C230.275 184.743 232.792 185.786 235.417 185.786H240.348C241.939 185.786 243.444 187.319 245.035 187.319C246.171 187.319 247.092 186.398 247.092 185.262C247.092 184.125 246.171 183.204 245.035 183.204C243.444 183.204 241.939 184.737 240.348 184.737H235.699C233.172 184.737 230.747 183.733 228.96 181.946L225.067 178.053C223.487 176.473 221.344 175.585 219.109 175.585H212.686C207.55 175.585 204.978 169.375 208.61 165.743L209.828 164.524C211.407 162.946 213.966 162.946 215.544 164.524L217.011 165.991C217.49 166.469 217.511 167.229 217.511 167.906C217.511 169.042 218.432 169.963 219.568 169.963C220.704 169.963 221.625 169.042 221.625 167.906C221.625 166.77 220.704 165.849 219.568 165.849C218.967 165.849 218.304 165.802 217.879 165.377L217.502 165C216.192 163.689 217.12 161.449 218.973 161.449H222.129C223.027 161.449 223.888 161.092 224.524 160.457L230.828 154.153C231.729 153.252 232.951 152.745 234.226 152.745H241.171C242.889 152.745 243.75 154.823 242.535 156.038L242.269 156.303C241.776 156.796 240.989 156.811 240.292 156.811C239.156 156.811 238.235 157.732 238.235 158.868C238.235 160.004 239.156 160.925 240.292 160.925C241.428 160.925 242.349 160.004 242.349 158.868C242.349 158.288 242.4 157.654 242.81 157.245L245.222 154.832C246.524 153.53 248.35 152.896 250.178 153.11L250.808 153.183C253.754 153.528 255.976 156.024 255.976 158.99C255.976 160.541 255.36 162.028 254.263 163.125L250.605 166.783C248.064 169.324 244.616 170.752 241.022 170.752H236.218C235.699 170.752 235.201 170.546 234.834 170.179L234.553 169.897C234.056 169.401 234.044 168.607 234.044 167.906C234.044 166.77 233.122 165.849 231.986 165.849C230.85 165.849 229.929 166.77 229.929 167.906C229.929 169.042 230.85 169.963 231.986 169.963C232.56 169.963 233.188 170.015 233.594 170.421L234.224 171.051C234.704 171.531 235.355 171.8 236.033 171.8H245.225C246.406 171.8 247.539 171.331 248.374 170.496C251.179 167.691 255.976 169.678 255.976 173.645V195.324C255.976 198.047 253.769 200.253 251.047 200.253C249.74 200.253 248.486 199.734 247.562 198.81L246.298 197.546C244.976 196.224 243.182 195.481 241.312 195.481H238.416C236.788 195.481 235.245 193.861 233.616 193.861C232.48 193.861 231.559 194.782 231.559 195.918C231.559 197.055 232.48 197.976 233.616 197.976C235.17 197.976 236.64 196.529 238.193 196.529H240.841C242.735 196.529 244.551 197.281 245.89 198.62L247.037 199.768C248.019 200.75 249.351 201.301 250.74 201.301H253.807C255.005 201.301 255.976 202.273 255.976 203.471V208.846C255.976 210.755 257.524 212.303 259.433 212.303H270.081C273.467 212.303 276.713 210.958 279.107 208.564L279.758 207.913C281.735 205.936 284.416 204.826 287.212 204.826H292.638C294.229 204.826 295.734 206.359 297.325 206.359C298.461 206.359 299.382 205.438 299.382 204.302C299.382 203.166 298.461 202.245 297.325 202.245C295.734 202.245 294.229 203.778 292.638 203.778H286.929C284.036 203.778 281.262 204.927 279.217 206.972L278.643 207.546C276.268 209.921 273.047 211.255 269.688 211.255H259.433C258.103 211.255 257.024 210.176 257.024 208.846C257.024 206.071 259.274 203.821 262.049 203.821H265.054C266.645 203.821 268.15 205.354 269.741 205.354C270.877 205.354 271.798 204.433 271.798 203.297C271.798 202.161 270.877 201.24 269.741 201.24C268.15 201.24 266.645 202.773 265.054 202.773H261.934C259.222 202.773 257.024 200.575 257.024 197.864C257.024 196.562 257.541 195.313 258.462 194.392L260.771 192.083C263.091 189.763 266.238 188.46 269.519 188.46H270.641C273.204 188.46 275.661 187.442 277.473 185.63L278.701 184.402C279.727 183.376 281.118 182.8 282.569 182.8H284.085C285.676 182.8 287.181 184.333 288.772 184.333C289.908 184.333 290.829 183.412 290.829 182.276C290.829 181.14 289.908 180.219 288.772 180.219C287.181 180.219 285.676 181.752 284.085 181.752H282.286C280.739 181.752 279.254 182.367 278.16 183.461L277.039 184.582C275.227 186.394 272.77 187.412 270.207 187.412H265.397C264.477 187.412 263.595 187.777 262.945 188.428C260.76 190.612 257.024 189.065 257.024 185.975V184.103C257.024 181.759 258.924 179.859 261.268 179.859H266.02C267.611 179.859 269.117 181.392 270.708 181.392C271.844 181.392 272.765 180.471 272.765 179.335C272.765 178.199 271.844 177.278 270.708 177.278C269.117 177.278 267.611 178.811 266.021 178.811H261.686C259.112 178.811 257.024 176.724 257.024 174.149V169.023C257.024 166.761 259.759 165.628 261.358 167.228L261.976 167.846C262.478 168.348 262.488 169.154 262.488 169.864C262.488 171 263.409 171.921 264.545 171.921C265.681 171.921 266.602 171 266.602 169.864C266.602 168.728 265.681 167.807 264.545 167.807C264.209 167.807 263.892 167.889 263.612 168.033C263.593 168.042 263.572 168.015 263.587 168C263.594 167.993 263.594 167.982 263.587 167.975L260.421 164.808C258.665 163.053 258.665 160.206 260.421 158.45L261.575 157.296C263.968 154.902 267.848 154.902 270.242 157.296L271.247 158.301C271.931 158.985 272.858 159.369 273.825 159.369H273.935C275.526 159.369 277.031 160.902 278.622 160.902C279.759 160.902 280.68 159.981 280.68 158.845C280.68 157.709 279.759 156.788 278.622 156.788C278.565 156.788 278.507 156.79 278.451 156.795C276.966 156.918 275.597 158.321 274.107 158.321H273.904C273.164 158.321 272.455 158.027 271.933 157.504C270.176 155.748 271.42 152.745 273.904 152.745H278.775C280.049 152.745 281.271 153.252 282.173 154.153L288.477 160.457C289.112 161.092 289.973 161.449 290.872 161.449H292.795C295.103 161.449 296.259 164.239 294.627 165.871L293.981 166.517C293.538 166.96 292.843 166.998 292.216 166.998C291.08 166.998 290.159 167.919 290.159 169.055C290.159 170.192 291.08 171.113 292.216 171.113C293.352 171.113 294.273 170.192 294.273 169.055C294.273 168.404 294.303 167.677 294.764 167.216L296.757 165.223C298.721 163.259 301.906 163.259 303.871 165.223L304.391 165.743C308.023 169.375 305.45 175.585 300.314 175.585H289.943C288.259 175.585 286.644 174.916 285.453 173.725L282.688 170.96C282.212 170.484 282.19 169.729 282.19 169.056C282.19 167.919 281.269 166.998 280.133 166.998C278.997 166.998 278.076 167.919 278.076 169.056C278.076 170.192 278.997 171.113 280.133 171.113C280.738 171.113 281.405 171.159 281.832 171.587L284.82 174.574C286.138 175.892 287.926 176.633 289.791 176.633H310.406C312.929 176.633 314.974 178.678 314.974 181.201C314.974 183.724 312.929 185.77 310.406 185.77H301.808C298.316 185.77 294.967 187.157 292.498 189.626L288.817 193.307C287.676 194.448 286.129 195.089 284.515 195.089H282.524C280.933 195.089 279.428 193.556 277.837 193.556C276.701 193.556 275.78 194.477 275.78 195.613C275.78 196.749 276.701 197.67 277.837 197.67C279.428 197.67 280.933 196.137 282.524 196.137H284.797C286.508 196.137 288.149 195.457 289.359 194.248L292.129 191.477C295.113 188.494 299.159 186.818 303.378 186.818H309.79C313.306 186.818 316.678 188.215 319.164 190.701L321.56 193.096C322.512 194.049 323.048 195.341 323.048 196.688C323.048 199.494 320.773 201.768 317.967 201.768H315.085C313.419 201.768 311.821 201.106 310.642 199.928L307.945 197.231C307.479 196.765 307.452 196.03 307.452 195.371C307.452 194.235 306.531 193.314 305.395 193.314C304.259 193.314 303.338 194.235 303.338 195.371C303.338 196.508 304.259 197.429 305.395 197.429C305.761 197.429 306.104 197.331 306.402 197.163C306.406 197.161 306.411 197.166 306.407 197.169C306.406 197.171 306.406 197.174 306.407 197.175L310.395 201.163C311.454 202.222 312.889 202.816 314.386 202.816H321.14C322.558 202.816 323.918 203.379 324.92 204.382C327.008 206.47 327.008 209.854 324.92 211.942L323.657 213.205C322.32 214.543 320.505 215.294 318.614 215.294H308.511C306.625 215.294 304.816 216.043 303.483 217.377L300.424 220.436C299.987 220.872 299.305 220.914 298.688 220.914C297.552 220.914 296.631 221.835 296.631 222.971C296.631 224.107 297.552 225.028 298.688 225.028C299.824 225.028 300.745 224.107 300.745 222.971C300.745 222.31 300.771 221.57 301.239 221.103L304.085 218.257C305.311 217.031 306.974 216.342 308.707 216.342H320.57C321.487 216.342 322.366 215.978 323.014 215.33C325.193 213.152 328.917 214.694 328.917 217.775V222.395C328.917 225.361 326.512 227.766 323.545 227.766H319.967C317.593 227.766 315.316 228.709 313.638 230.388L313.228 230.798C311.287 232.739 308.654 233.829 305.909 233.829H298.119C296.528 233.829 295.023 232.296 293.432 232.296C292.296 232.296 291.375 233.217 291.375 234.353C291.375 235.489 292.296 236.41 293.432 236.41C295.023 236.41 296.528 234.877 298.119 234.877H306.343C309.088 234.877 311.721 233.787 313.662 231.846L314.162 231.346C315.783 229.725 317.981 228.814 320.274 228.814C325.047 228.814 328.917 232.684 328.917 237.457V245.987C328.917 247.404 328.354 248.764 327.351 249.767Z" fill="url(#paint2_linear_613_3111)"/>
<path opacity="0.2" d="M326.897 204.877C325.103 203.083 324.095 200.65 324.095 198.113C324.095 195.575 323.087 193.142 321.293 191.348L319.622 189.677C317.317 187.372 316.022 184.245 316.022 180.984C316.022 177.724 314.726 174.597 312.421 172.291L304.288 164.158C301.882 161.753 298.619 160.401 295.216 160.401C291.814 160.401 288.551 159.049 286.145 156.643L285.551 156.05C282.764 153.263 278.985 151.698 275.043 151.699L265.847 151.701L257.985 152.62C256.84 152.754 255.976 153.724 255.976 154.877C255.976 156.902 253.528 157.916 252.096 156.484L248.578 152.966C247.766 152.154 246.664 151.697 245.514 151.697H237.955C234.015 151.697 230.236 153.263 227.449 156.049L226.855 156.643C224.449 159.049 221.186 160.401 217.783 160.401C214.381 160.401 211.118 161.752 208.712 164.158L200.579 172.291C198.273 174.597 196.978 177.724 196.978 180.984C196.978 184.245 195.683 187.372 193.377 189.677L191.707 191.348C189.913 193.142 188.905 195.575 188.905 198.112C188.905 200.65 187.897 203.083 186.103 204.877L185.97 205.01C184.091 206.889 183.035 209.438 183.035 212.096V244.485C183.035 247.142 184.091 249.691 185.97 251.57L186.103 251.703C187.897 253.497 188.905 255.93 188.905 258.468C188.905 261.005 189.913 263.438 191.707 265.233L193.377 266.903C195.683 269.208 196.978 272.335 196.978 275.596V280.471C196.978 280.61 197.033 280.744 197.132 280.842L208.712 292.422C211.118 294.828 214.381 296.18 217.783 296.18C221.186 296.18 224.449 297.531 226.855 299.937L227.449 300.531C230.236 303.318 234.015 304.883 237.955 304.883H243.502C245.94 304.883 248.277 303.915 250.001 302.191C253.59 298.602 259.409 298.602 262.999 302.191C264.722 303.915 267.06 304.883 269.497 304.883H275.044C278.985 304.883 282.764 303.318 285.55 300.531L286.145 299.937C288.551 297.531 291.814 296.18 295.216 296.18C298.619 296.18 301.882 294.828 304.288 292.422L312.421 284.289C314.726 281.984 316.022 278.857 316.022 275.596C316.022 272.336 317.317 269.209 319.622 266.903L321.293 265.233C323.087 263.439 324.095 261.005 324.095 258.468C324.095 255.931 325.103 253.497 326.897 251.703L327.03 251.57C328.909 249.691 329.965 247.142 329.965 244.485V212.096C329.965 209.438 328.909 206.889 327.03 205.01L326.897 204.877ZM324.919 252.198C323.917 253.201 322.557 253.764 321.139 253.764H314.385C312.888 253.764 311.453 254.358 310.395 255.417L306.406 259.405C306.405 259.407 306.405 259.409 306.406 259.411C306.41 259.414 306.405 259.42 306.401 259.417C306.103 259.249 305.76 259.152 305.394 259.152C304.258 259.152 303.337 260.073 303.337 261.209C303.337 262.345 304.258 263.266 305.394 263.266C306.53 263.266 307.451 262.345 307.451 261.209C307.451 260.551 307.479 259.815 307.944 259.35L310.642 256.652C311.82 255.474 313.418 254.812 315.084 254.812H317.967C320.772 254.812 323.047 257.086 323.047 259.892C323.047 261.239 322.511 262.532 321.559 263.484L319.164 265.879C316.677 268.366 313.305 269.763 309.789 269.763H303.377C299.158 269.763 295.112 268.087 292.128 265.103L289.358 262.333C288.148 261.123 286.507 260.443 284.796 260.443H282.523C280.932 260.443 279.427 258.91 277.836 258.91C276.7 258.91 275.779 259.831 275.779 260.967C275.779 262.104 276.7 263.025 277.836 263.025C279.427 263.025 280.932 261.491 282.523 261.491H284.514C286.128 261.491 287.675 262.132 288.816 263.273L292.497 266.954C294.967 269.424 298.315 270.811 301.807 270.811H310.405C312.928 270.811 314.974 272.856 314.974 275.379C314.974 277.902 312.928 279.947 310.405 279.947H289.79C287.926 279.947 286.138 280.688 284.819 282.006L281.831 284.994C281.404 285.422 280.737 285.468 280.132 285.468C278.996 285.468 278.075 286.389 278.075 287.525C278.075 288.661 278.996 289.582 280.132 289.582C281.268 289.582 282.189 288.661 282.189 287.525C282.189 286.852 282.211 286.096 282.688 285.62L285.453 282.855C286.643 281.664 288.258 280.995 289.942 280.995H300.313C305.45 280.995 308.022 287.206 304.39 290.838L303.871 291.357C301.906 293.322 298.72 293.322 296.756 291.357L294.763 289.364C294.302 288.903 294.273 288.177 294.273 287.525C294.273 286.389 293.352 285.468 292.215 285.468C291.079 285.468 290.158 286.389 290.158 287.525C290.158 288.661 291.079 289.582 292.215 289.582C292.842 289.582 293.537 289.621 293.98 290.064L294.626 290.71C296.258 292.341 295.102 295.132 292.794 295.132H290.871C289.973 295.132 289.111 295.488 288.476 296.124L282.172 302.428C281.271 303.329 280.049 303.835 278.774 303.835H273.903C271.419 303.835 270.176 300.832 271.932 299.076C272.455 298.553 273.164 298.26 273.903 298.26H274.107C275.596 298.26 276.965 299.663 278.45 299.786C278.507 299.79 278.564 299.793 278.622 299.793C279.758 299.793 280.679 298.872 280.679 297.735C280.679 296.599 279.758 295.678 278.622 295.678C277.031 295.678 275.526 297.211 273.935 297.211H273.824C272.857 297.211 271.93 297.596 271.247 298.279L270.241 299.285C267.848 301.678 263.968 301.678 261.574 299.285L260.42 298.131C258.664 296.375 258.664 293.528 260.42 291.772L263.587 288.605C263.594 288.598 263.594 288.587 263.587 288.58C263.572 288.565 263.592 288.538 263.611 288.548C263.891 288.691 264.208 288.774 264.545 288.774C265.681 288.774 266.602 287.853 266.602 286.717C266.602 285.58 265.681 284.659 264.545 284.659C263.408 284.659 262.487 285.58 262.487 286.717C262.487 287.427 262.478 288.232 261.975 288.735L261.358 289.352C259.758 290.952 257.024 289.819 257.024 287.557V282.431C257.024 279.857 259.111 277.769 261.686 277.769H266.02C267.611 277.769 269.116 279.303 270.707 279.303C271.843 279.303 272.764 278.382 272.764 277.245C272.764 276.109 271.843 275.188 270.707 275.188C269.116 275.188 267.611 276.721 266.02 276.721H261.268C258.924 276.721 257.024 274.821 257.024 272.478V270.605C257.024 267.515 260.759 265.968 262.944 268.153C263.594 268.803 264.477 269.168 265.396 269.168H270.207C272.769 269.168 275.227 270.186 277.039 271.998L278.16 273.119C279.254 274.213 280.738 274.828 282.286 274.828H284.085C285.676 274.828 287.181 276.361 288.772 276.361C289.908 276.361 290.829 275.44 290.829 274.304C290.829 273.168 289.908 272.247 288.772 272.247C287.181 272.247 285.676 273.78 284.085 273.78H282.568C281.118 273.78 279.727 273.204 278.701 272.178L277.473 270.95C275.661 269.138 273.203 268.12 270.641 268.12H269.519C266.237 268.12 263.091 266.817 260.77 264.497L258.462 262.188C257.541 261.267 257.024 260.019 257.024 258.717C257.024 256.005 259.222 253.807 261.933 253.807H265.053C266.644 253.807 268.149 255.34 269.74 255.34C270.876 255.34 271.797 254.419 271.797 253.283C271.797 252.147 270.876 251.226 269.74 251.226C268.149 251.226 266.644 252.759 265.053 252.759H263.082C259.736 252.759 257.024 250.047 257.024 246.701V246.012C257.024 245.633 257.331 245.326 257.711 245.326H269.688C273.047 245.326 276.268 246.66 278.643 249.035L279.216 249.608C281.262 251.653 284.036 252.803 286.929 252.803H292.638C294.229 252.803 295.734 254.336 297.325 254.336C298.461 254.336 299.382 253.415 299.382 252.279C299.382 251.142 298.461 250.221 297.325 250.221C295.734 250.221 294.229 251.755 292.638 251.755H287.211C284.416 251.755 281.735 250.644 279.758 248.667L279.107 248.016C276.713 245.622 273.466 244.277 270.081 244.277H257.711C256.753 244.277 255.976 245.054 255.976 246.012V253.283C255.976 253.283 255.976 253.283 255.976 253.283C255.976 253.283 255.976 253.283 255.976 253.283V254.386C255.976 254.995 255.482 255.489 254.873 255.489H250.591C249.163 255.489 247.794 256.056 246.784 257.066L245.89 257.96C244.55 259.299 242.734 260.051 240.841 260.051H238.193C236.64 260.051 235.169 258.605 233.616 258.605C232.48 258.605 231.559 259.526 231.559 260.662C231.559 261.798 232.48 262.719 233.616 262.719C235.244 262.719 236.787 261.099 238.416 261.099H241.312C243.182 261.099 244.975 260.357 246.298 259.034L247.308 258.024C248.26 257.072 249.552 256.537 250.898 256.537C253.703 256.537 255.976 258.81 255.976 261.614V282.935C255.976 286.903 251.179 288.89 248.374 286.084C247.539 285.249 246.406 284.78 245.225 284.78H236.033C235.354 284.78 234.704 285.05 234.224 285.529L233.594 286.16C233.188 286.565 232.56 286.617 231.986 286.617C230.85 286.617 229.929 287.538 229.929 288.675C229.929 289.811 230.85 290.732 231.986 290.732C233.122 290.732 234.043 289.811 234.043 288.675C234.043 287.973 234.056 287.179 234.553 286.683L234.834 286.401C235.201 286.034 235.699 285.828 236.218 285.828H242.857C245.276 285.828 247.597 286.789 249.308 288.5L251.425 290.618C253.819 293.011 253.819 296.891 251.425 299.285L249.968 300.742C248.379 302.33 245.805 302.33 244.216 300.742L242.81 299.336C242.4 298.926 242.349 298.292 242.349 297.713C242.349 296.576 241.428 295.655 240.292 295.655C239.156 295.655 238.235 296.576 238.235 297.713C238.235 298.849 239.156 299.77 240.292 299.77C240.989 299.77 241.776 299.784 242.269 300.277L242.535 300.543C243.75 301.758 242.889 303.835 241.171 303.835H234.226C232.951 303.835 231.729 303.329 230.828 302.428L224.524 296.124C223.889 295.488 223.027 295.132 222.129 295.132H218.973C217.12 295.132 216.192 292.891 217.502 291.581L217.879 291.204C218.304 290.779 218.967 290.732 219.568 290.732C220.704 290.732 221.625 289.811 221.625 288.675C221.625 287.539 220.704 286.618 219.568 286.618C218.432 286.618 217.511 287.539 217.511 288.675C217.511 289.351 217.49 290.111 217.012 290.59L215.545 292.057C213.966 293.635 211.407 293.635 209.828 292.057L208.61 290.838C204.978 287.206 207.55 280.995 212.687 280.995H219.109C221.344 280.995 223.487 280.108 225.067 278.528L228.96 274.635C230.747 272.847 233.172 271.843 235.7 271.843H240.348C241.939 271.843 243.444 273.376 245.035 273.376C246.171 273.376 247.092 272.455 247.092 271.319C247.092 270.183 246.171 269.262 245.035 269.262C243.444 269.262 241.939 270.795 240.348 270.795H235.417C232.792 270.795 230.275 271.838 228.418 273.694L223.913 278.199C222.794 279.318 221.276 279.947 219.692 279.947C216.395 279.947 213.723 277.275 213.723 273.978V273.27C213.723 271.499 214.426 269.8 215.679 268.548L218.984 265.243C219.401 264.825 220.049 264.777 220.639 264.777C221.775 264.777 222.696 263.856 222.696 262.719C222.696 261.583 221.775 260.662 220.639 260.662C219.503 260.662 218.582 261.583 218.582 262.719C218.582 263.407 218.564 264.181 218.078 264.666L214.72 268.024C213.411 269.334 212.675 271.11 212.675 272.963C212.675 276.82 209.548 279.947 205.69 279.947H204.704C201.016 279.947 198.026 276.958 198.026 273.27C198.026 271.499 198.73 269.8 199.982 268.548L212.247 256.282C215.27 253.26 219.369 251.562 223.644 251.562H233.369C234.96 251.562 236.465 253.095 238.056 253.095C239.192 253.095 240.113 252.174 240.113 251.038C240.113 249.902 239.192 248.981 238.056 248.981C236.465 248.981 234.959 250.514 233.369 250.514H231.699C226.649 250.514 224.121 244.409 227.691 240.839L234.587 233.943C235.019 233.511 235.693 233.467 236.303 233.467C237.44 233.467 238.361 232.546 238.361 231.41C238.361 230.274 237.44 229.353 236.303 229.353C235.167 229.353 234.246 230.274 234.246 231.41C234.246 232.078 234.222 232.826 233.75 233.298L216.534 250.514L216.38 250.667L202.84 264.207C199.892 267.156 195.112 267.156 192.164 264.207C190.748 262.792 189.953 260.871 189.953 258.869V258.251C189.953 255.852 190.906 253.552 192.601 251.857L196.078 248.38C197.453 247.005 199.319 246.232 201.264 246.232H204.219C205.81 246.232 207.315 247.765 208.906 247.765C210.042 247.765 210.963 246.844 210.963 245.708C210.963 244.572 210.042 243.651 208.906 243.651C207.315 243.651 205.809 245.184 204.219 245.184H200.981C198.939 245.184 196.98 245.995 195.536 247.439L193.209 249.767C191.121 251.855 187.736 251.855 185.649 249.767C184.646 248.764 184.083 247.405 184.083 245.987V237.457C184.083 232.684 187.953 228.814 192.726 228.814C195.019 228.814 197.217 229.725 198.838 231.346L199.338 231.846C201.279 233.787 203.912 234.877 206.657 234.877H214.881C216.472 234.877 217.977 236.41 219.568 236.41C220.704 236.41 221.625 235.489 221.625 234.353C221.625 233.217 220.704 232.296 219.568 232.296C217.977 232.296 216.472 233.829 214.881 233.829H207.091C204.346 233.829 201.713 232.739 199.772 230.798L199.362 230.388C197.684 228.709 195.407 227.766 193.033 227.766H189.454C186.488 227.766 184.083 225.361 184.083 222.395V217.774C184.083 214.694 187.807 213.151 189.985 215.33C190.634 215.978 191.513 216.342 192.43 216.342H204.292C206.026 216.342 207.689 217.031 208.915 218.257L211.761 221.103C212.228 221.57 212.255 222.31 212.255 222.971C212.255 224.107 213.176 225.028 214.312 225.028C215.448 225.028 216.369 224.107 216.369 222.971C216.369 221.835 215.448 220.914 214.312 220.914C213.695 220.914 213.012 220.872 212.576 220.436L209.517 217.377C208.184 216.043 206.375 215.294 204.489 215.294H194.386C192.495 215.294 190.681 214.543 189.343 213.205L188.08 211.942C185.993 209.854 185.993 206.47 188.08 204.382C189.083 203.379 190.442 202.816 191.86 202.816H198.614C200.111 202.816 201.547 202.222 202.605 201.163L206.593 197.175C206.595 197.174 206.595 197.171 206.593 197.169C206.59 197.166 206.594 197.161 206.598 197.163C206.896 197.331 207.239 197.428 207.606 197.428C208.742 197.428 209.663 196.507 209.663 195.371C209.663 194.235 208.742 193.314 207.606 193.314C206.469 193.314 205.548 194.235 205.548 195.371C205.548 196.03 205.521 196.765 205.056 197.231L202.358 199.928C201.18 201.106 199.582 201.768 197.915 201.768H195.033C192.227 201.768 189.953 199.494 189.953 196.688C189.953 195.341 190.488 194.049 191.441 193.096L193.836 190.701C196.322 188.214 199.695 186.818 203.211 186.818H209.622C213.841 186.818 217.888 188.494 220.871 191.477L223.642 194.247C224.851 195.457 226.492 196.137 228.203 196.137H230.476C232.067 196.137 233.572 197.67 235.163 197.67C236.299 197.67 237.22 196.749 237.22 195.613C237.22 194.477 236.299 193.556 235.163 193.556C233.572 193.556 232.067 195.089 230.476 195.089H228.485C226.872 195.089 225.324 194.448 224.183 193.307L220.502 189.626C218.033 187.157 214.684 185.77 211.192 185.77H202.594C200.071 185.77 198.026 183.724 198.026 181.201C198.026 178.678 200.071 176.633 202.594 176.633H223.209C225.074 176.633 226.862 175.892 228.18 174.574L231.168 171.586C231.596 171.159 232.263 171.113 232.868 171.113C234.004 171.113 234.925 170.192 234.925 169.055C234.925 167.919 234.004 166.998 232.868 166.998C231.731 166.998 230.81 167.919 230.81 169.055C230.81 169.729 230.788 170.484 230.312 170.96L227.547 173.725C226.356 174.916 224.741 175.585 223.057 175.585H212.686C207.55 175.585 204.978 169.375 208.61 165.743L209.129 165.223C211.094 163.258 214.279 163.258 216.244 165.223L218.237 167.216C218.697 167.677 218.727 168.404 218.727 169.055C218.727 170.192 219.648 171.113 220.784 171.113C221.92 171.113 222.841 170.192 222.841 169.055C222.841 167.919 221.92 166.998 220.784 166.998C220.157 166.998 219.463 166.96 219.019 166.517L218.374 165.871C216.742 164.239 217.898 161.449 220.205 161.449H222.129C223.027 161.449 223.888 161.092 224.524 160.457L230.828 154.153C231.729 153.251 232.951 152.745 234.226 152.745H239.097C241.58 152.745 242.824 155.748 241.068 157.504C240.545 158.027 239.836 158.321 239.097 158.321H238.893C237.403 158.321 236.034 156.918 234.55 156.795C234.493 156.79 234.436 156.788 234.378 156.788C233.242 156.788 232.321 157.709 232.321 158.845C232.321 159.981 233.242 160.902 234.378 160.902C235.969 160.902 237.474 159.369 239.065 159.369H239.176C240.142 159.369 241.07 158.985 241.753 158.301L242.759 157.296C245.152 154.902 249.032 154.902 251.426 157.296L252.58 158.45C254.336 160.206 254.336 163.052 252.58 164.808L249.413 167.975C249.406 167.982 249.406 167.993 249.413 168C249.428 168.015 249.408 168.042 249.389 168.033C249.108 167.889 248.792 167.807 248.455 167.807C247.319 167.807 246.398 168.728 246.398 169.864C246.398 171 247.319 171.921 248.455 171.921C249.591 171.921 250.512 171 250.512 169.864C250.512 169.153 250.522 168.348 251.025 167.845L251.642 167.228C253.241 165.629 255.976 166.761 255.976 169.023V174.149C255.976 176.724 253.889 178.811 251.314 178.811H246.98C245.389 178.811 243.884 177.278 242.293 177.278C241.157 177.278 240.236 178.199 240.236 179.335C240.236 180.471 241.157 181.392 242.293 181.392C243.884 181.392 245.389 179.859 246.98 179.859H251.732C254.076 179.859 255.976 181.759 255.976 184.102V185.975C255.976 189.065 252.241 190.612 250.056 188.427C249.405 187.777 248.523 187.412 247.604 187.412H242.793C240.231 187.412 237.773 186.394 235.961 184.582L234.84 183.461C233.746 182.367 232.262 181.752 230.714 181.752H228.915C227.324 181.752 225.819 180.219 224.228 180.219C223.092 180.219 222.171 181.14 222.171 182.276C222.171 183.412 223.092 184.333 224.228 184.333C225.819 184.333 227.324 182.8 228.915 182.8H230.432C231.882 182.8 233.273 183.376 234.299 184.402L235.527 185.63C237.339 187.442 239.796 188.46 242.359 188.46H243.481C246.762 188.46 249.909 189.763 252.229 192.083L254.538 194.392C255.459 195.313 255.976 196.561 255.976 197.863C255.976 200.575 253.778 202.773 251.067 202.773H247.946C246.356 202.773 244.85 201.24 243.26 201.24C242.123 201.24 241.202 202.161 241.202 203.297C241.202 204.433 242.123 205.354 243.26 205.354C244.85 205.354 246.356 203.821 247.947 203.821H250.951C253.727 203.821 255.976 206.071 255.976 208.846C255.976 210.176 254.898 211.255 253.567 211.255H243.312C239.953 211.255 236.732 209.92 234.357 207.545L233.783 206.972C231.738 204.927 228.963 203.778 226.071 203.778H220.362C218.771 203.778 217.266 202.245 215.675 202.245C214.539 202.245 213.618 203.166 213.618 204.302C213.618 205.438 214.539 206.359 215.675 206.359C217.266 206.359 218.771 204.826 220.362 204.826H225.788C228.584 204.826 231.265 205.936 233.242 207.913L233.893 208.564C236.287 210.958 239.533 212.303 242.919 212.303H253.567C255.476 212.303 257.024 210.755 257.024 208.846L257.024 203.47C257.024 202.272 257.995 201.301 259.193 201.301H262.26C263.649 201.301 264.98 200.75 265.962 199.768L267.11 198.62C268.449 197.281 270.265 196.529 272.159 196.529H274.807C276.36 196.529 277.83 197.975 279.383 197.975C280.52 197.975 281.441 197.054 281.441 195.918C281.441 194.782 280.52 193.861 279.383 193.861C277.755 193.861 276.212 195.481 274.584 195.481H271.688C269.818 195.481 268.024 196.224 266.702 197.546L265.438 198.81C264.514 199.734 263.26 200.253 261.953 200.253C259.231 200.253 257.024 198.046 257.024 195.324V173.645C257.024 169.678 261.82 167.691 264.626 170.496C265.461 171.331 266.593 171.8 267.774 171.8H276.967C277.645 171.8 278.296 171.531 278.775 171.051L279.406 170.421C279.812 170.015 280.439 169.963 281.013 169.963C282.15 169.963 283.071 169.042 283.071 167.906C283.071 166.77 282.15 165.849 281.013 165.849C279.877 165.849 278.956 166.77 278.956 167.906C278.956 168.607 278.943 169.401 278.447 169.897L278.166 170.179C277.799 170.546 277.3 170.752 276.781 170.752H271.978C268.383 170.752 264.936 169.324 262.394 166.783L258.736 163.125C257.64 162.028 257.024 160.541 257.024 158.99C257.024 156.024 259.245 153.528 262.192 153.183L262.822 153.11C264.65 152.896 266.476 153.531 267.777 154.832L270.19 157.245C270.599 157.654 270.65 158.288 270.65 158.868C270.65 160.004 271.571 160.925 272.708 160.925C273.844 160.925 274.765 160.004 274.765 158.868C274.765 157.732 273.844 156.811 272.708 156.811C272.011 156.811 271.223 156.796 270.731 156.303L270.465 156.037C269.25 154.823 270.11 152.745 271.828 152.745H278.774C280.049 152.745 281.271 153.252 282.172 154.153L288.476 160.457C289.111 161.092 289.973 161.449 290.871 161.449H294.027C295.88 161.449 296.808 163.689 295.498 165L295.121 165.377C294.695 165.802 294.033 165.849 293.432 165.849C292.295 165.849 291.374 166.77 291.374 167.906C291.374 169.042 292.295 169.963 293.432 169.963C294.568 169.963 295.489 169.042 295.489 167.906C295.489 167.229 295.51 166.469 295.988 165.991L297.455 164.524C299.034 162.946 301.593 162.946 303.171 164.524L304.39 165.743C308.022 169.375 305.45 175.585 300.313 175.585H293.891C291.656 175.585 289.513 176.473 287.933 178.053L284.04 181.946C282.252 183.733 279.828 184.737 277.3 184.737H272.652C271.061 184.737 269.556 183.204 267.965 183.204C266.829 183.204 265.908 184.125 265.908 185.262C265.908 186.398 266.829 187.319 267.965 187.319C269.556 187.319 271.061 185.786 272.652 185.786H277.583C280.207 185.786 282.725 184.743 284.581 182.887L289.086 178.382C290.206 177.262 291.724 176.633 293.307 176.633C296.604 176.633 299.277 179.306 299.277 182.603V183.311C299.277 185.082 298.573 186.78 297.321 188.032L294.016 191.338C293.599 191.755 292.951 191.804 292.361 191.804C291.225 191.804 290.304 192.725 290.304 193.861C290.304 194.997 291.225 195.918 292.361 195.918C293.497 195.918 294.418 194.997 294.418 193.861C294.418 193.174 294.436 192.4 294.921 191.914L298.279 188.556C299.589 187.247 300.325 185.47 300.325 183.618C300.325 179.76 303.452 176.633 307.31 176.633H308.296C311.984 176.633 314.973 179.623 314.973 183.311C314.973 185.082 314.27 186.78 313.018 188.032L300.752 200.298C297.729 203.321 293.63 205.019 289.355 205.019H279.631C278.04 205.019 276.535 203.485 274.944 203.485C273.808 203.485 272.887 204.406 272.887 205.543C272.887 206.679 273.808 207.6 274.944 207.6C276.535 207.6 278.04 206.067 279.631 206.067H281.3C286.35 206.067 288.878 212.172 285.308 215.742L278.413 222.637C277.981 223.069 277.307 223.113 276.696 223.113C275.56 223.113 274.639 224.034 274.639 225.171C274.639 226.307 275.56 227.228 276.696 227.228C277.832 227.228 278.753 226.307 278.753 225.171C278.753 224.503 278.777 223.755 279.25 223.283L296.619 205.913L310.16 192.373C313.108 189.425 317.888 189.425 320.836 192.373C322.252 193.789 323.047 195.709 323.047 197.711V198.33C323.047 200.728 322.094 203.028 320.398 204.724L316.922 208.2C315.547 209.576 313.681 210.348 311.736 210.348H308.781C307.19 210.348 305.685 208.815 304.094 208.815C302.958 208.815 302.037 209.736 302.037 210.872C302.037 212.009 302.958 212.93 304.094 212.93C305.685 212.93 307.19 211.396 308.781 211.396H312.018C314.061 211.396 316.019 210.585 317.463 209.141L319.791 206.813C321.879 204.726 325.263 204.726 327.351 206.813C328.353 207.816 328.917 209.176 328.917 210.593V219.123C328.917 223.896 325.047 227.766 320.273 227.766C317.981 227.766 315.782 226.855 314.162 225.235L313.662 224.735C311.721 222.794 309.088 221.703 306.343 221.703H298.119C296.528 221.703 295.022 220.17 293.431 220.17C292.295 220.17 291.374 221.091 291.374 222.227C291.374 223.363 292.295 224.284 293.431 224.284C295.022 224.284 296.528 222.751 298.119 222.751H305.909C308.654 222.751 311.286 223.842 313.227 225.783L313.638 226.193C315.316 227.871 317.593 228.814 319.966 228.814H323.545C326.512 228.814 328.917 231.219 328.917 234.186V238.806C328.917 241.886 325.192 243.429 323.014 241.251C322.366 240.602 321.486 240.238 320.569 240.238H308.707C306.973 240.238 305.31 239.549 304.084 238.323L301.239 235.477C300.771 235.01 300.745 234.27 300.745 233.609C300.745 232.473 299.824 231.552 298.688 231.552C297.552 231.552 296.631 232.473 296.631 233.609C296.631 234.745 297.552 235.666 298.688 235.666C299.305 235.666 299.987 235.708 300.424 236.145L303.483 239.203C304.816 240.537 306.625 241.286 308.511 241.286H318.613C320.505 241.286 322.319 242.038 323.656 243.375L324.919 244.638C327.007 246.726 327.007 250.111 324.919 252.198Z" fill="url(#paint3_linear_613_3111)"/>
<path d="M256.479 234.66H249.005C248.477 234.66 248.006 234.994 247.833 235.492L246.481 239.378C246.307 239.876 245.837 240.211 245.309 240.211H243.198C242.563 240.211 242.124 239.576 242.348 238.981L250.587 217.171C250.769 216.689 251.232 216.369 251.748 216.369H253.75C254.266 216.369 254.728 216.688 254.91 217.171L263.164 238.981C263.389 239.575 262.95 240.211 262.315 240.211H260.186C259.659 240.211 259.19 239.878 259.016 239.381L257.649 235.489C257.475 234.992 257.006 234.66 256.479 234.66ZM251.033 231.319H254.448C255.302 231.319 255.901 230.476 255.619 229.669L253.912 224.782C253.525 223.673 251.957 223.673 251.569 224.782L249.862 229.669C249.58 230.476 250.179 231.319 251.033 231.319Z" fill="url(#paint4_linear_613_3111)"/>
<path d="M269.865 240.211H267.418C266.954 240.211 266.578 239.834 266.578 239.37V217.209C266.578 216.745 266.954 216.369 267.418 216.369H269.864C270.328 216.369 270.704 216.745 270.704 217.209V239.37C270.705 239.834 270.328 240.211 269.865 240.211Z" fill="url(#paint5_linear_613_3111)"/>
</g>
<path d="M213.976 328.393L218.184 316.953H219.8L224.024 328.393H222.456L221.24 324.905H216.68L215.448 328.393H213.976ZM218.456 319.897L217.096 323.737H220.84L219.528 319.897L219.016 318.281H218.984C218.782 318.921 218.606 319.459 218.456 319.897ZM225.295 328.393V316.953H226.735V328.393H225.295ZM230.987 324.569V323.385H235.275V324.569H230.987ZM244.426 328.617C242.815 328.617 241.519 328.062 240.538 326.953C239.556 325.843 239.066 324.414 239.066 322.665C239.066 320.937 239.551 319.513 240.522 318.393C241.503 317.262 242.826 316.697 244.49 316.697C245.791 316.697 246.842 317.033 247.642 317.705C248.442 318.377 248.922 319.257 249.082 320.345H247.674C247.535 319.619 247.183 319.038 246.618 318.601C246.063 318.163 245.343 317.945 244.458 317.945C243.231 317.945 242.271 318.387 241.578 319.273C240.884 320.147 240.538 321.278 240.538 322.665C240.538 324.073 240.895 325.209 241.61 326.073C242.335 326.926 243.29 327.353 244.474 327.353C245.498 327.353 246.287 327.054 246.842 326.457C247.407 325.859 247.727 325.107 247.802 324.201H249.226C249.215 324.766 249.082 325.347 248.826 325.945C248.58 326.531 248.255 327.022 247.85 327.417C247.028 328.217 245.887 328.617 244.426 328.617ZM250.698 328.393V316.953H251.994V328.393H250.698ZM260.302 328.473C259.48 328.473 259.006 328.062 258.878 327.241H258.862C258.179 328.115 257.262 328.553 256.11 328.553C255.288 328.553 254.616 328.355 254.094 327.961C253.571 327.566 253.31 326.995 253.31 326.249C253.31 325.865 253.368 325.534 253.486 325.257C253.614 324.969 253.774 324.739 253.966 324.569C254.158 324.387 254.419 324.233 254.75 324.105C255.091 323.966 255.416 323.865 255.726 323.801C256.035 323.726 256.43 323.651 256.91 323.577C257.219 323.534 257.438 323.502 257.566 323.481C257.704 323.449 257.88 323.406 258.094 323.353C258.307 323.289 258.456 323.219 258.542 323.145C258.627 323.07 258.707 322.969 258.782 322.841C258.856 322.713 258.894 322.563 258.894 322.393C258.894 321.923 258.728 321.566 258.398 321.321C258.078 321.065 257.624 320.937 257.038 320.937C255.704 320.937 255.016 321.545 254.974 322.761H253.726C253.747 321.918 254.035 321.241 254.59 320.729C255.155 320.217 255.966 319.961 257.022 319.961C259.059 319.961 260.078 320.835 260.078 322.585V326.521C260.078 326.883 260.136 327.139 260.254 327.289C260.382 327.438 260.616 327.475 260.958 327.401H261.006V328.345C260.792 328.43 260.558 328.473 260.302 328.473ZM256.398 327.561C257.198 327.561 257.816 327.331 258.254 326.873C258.691 326.403 258.91 325.891 258.91 325.337V323.929C258.515 324.174 257.886 324.377 257.022 324.537C256.702 324.601 256.451 324.654 256.27 324.697C256.088 324.729 255.88 324.793 255.646 324.889C255.411 324.974 255.235 325.07 255.118 325.177C255 325.283 254.899 325.427 254.814 325.609C254.728 325.779 254.686 325.982 254.686 326.217C254.686 327.113 255.256 327.561 256.398 327.561ZM265.098 328.633C263.967 328.633 263.087 328.382 262.458 327.881C261.839 327.369 261.498 326.643 261.434 325.705H262.762C262.911 326.931 263.701 327.545 265.13 327.545C265.781 327.545 266.261 327.422 266.57 327.177C266.89 326.921 267.05 326.59 267.05 326.185C267.05 325.747 266.895 325.433 266.586 325.241C266.277 325.049 265.711 324.867 264.89 324.697C264.549 324.622 264.277 324.563 264.074 324.521C263.882 324.467 263.647 324.398 263.37 324.313C263.093 324.217 262.874 324.115 262.714 324.009C262.565 323.891 262.41 323.753 262.25 323.593C262.09 323.433 261.973 323.235 261.898 323.001C261.834 322.766 261.802 322.505 261.802 322.217C261.802 321.513 262.058 320.958 262.57 320.553C263.093 320.147 263.829 319.945 264.778 319.945C266.741 319.945 267.823 320.809 268.026 322.537H266.698C266.634 321.993 266.447 321.598 266.138 321.353C265.829 321.097 265.365 320.969 264.746 320.969C264.181 320.969 263.759 321.081 263.482 321.305C263.215 321.518 263.082 321.801 263.082 322.153C263.082 322.558 263.242 322.846 263.562 323.017C263.882 323.177 264.463 323.342 265.306 323.513C265.818 323.619 266.218 323.721 266.506 323.817C266.805 323.902 267.114 324.041 267.434 324.233C267.754 324.414 267.989 324.659 268.138 324.969C268.287 325.278 268.362 325.662 268.362 326.121C268.362 326.931 268.063 327.555 267.466 327.993C266.869 328.419 266.079 328.633 265.098 328.633ZM272.739 328.633C271.608 328.633 270.728 328.382 270.099 327.881C269.48 327.369 269.139 326.643 269.075 325.705H270.403C270.552 326.931 271.341 327.545 272.771 327.545C273.421 327.545 273.901 327.422 274.211 327.177C274.531 326.921 274.691 326.59 274.691 326.185C274.691 325.747 274.536 325.433 274.227 325.241C273.917 325.049 273.352 324.867 272.531 324.697C272.189 324.622 271.917 324.563 271.715 324.521C271.523 324.467 271.288 324.398 271.011 324.313C270.733 324.217 270.515 324.115 270.355 324.009C270.205 323.891 270.051 323.753 269.891 323.593C269.731 323.433 269.613 323.235 269.539 323.001C269.475 322.766 269.443 322.505 269.443 322.217C269.443 321.513 269.699 320.958 270.211 320.553C270.733 320.147 271.469 319.945 272.419 319.945C274.381 319.945 275.464 320.809 275.667 322.537H274.339C274.275 321.993 274.088 321.598 273.779 321.353C273.469 321.097 273.005 320.969 272.387 320.969C271.821 320.969 271.4 321.081 271.123 321.305C270.856 321.518 270.723 321.801 270.723 322.153C270.723 322.558 270.883 322.846 271.203 323.017C271.523 323.177 272.104 323.342 272.947 323.513C273.459 323.619 273.859 323.721 274.147 323.817C274.445 323.902 274.755 324.041 275.075 324.233C275.395 324.414 275.629 324.659 275.779 324.969C275.928 325.278 276.003 325.662 276.003 326.121C276.003 326.931 275.704 327.555 275.107 327.993C274.509 328.419 273.72 328.633 272.739 328.633ZM277.243 328.393V320.121H278.539V328.393H277.243ZM277.243 318.553V316.953H278.539V318.553H277.243ZM279.778 321.177V320.121H280.914V318.793C280.914 318.11 281.1 317.619 281.474 317.321C281.847 317.011 282.391 316.857 283.106 316.857C283.308 316.857 283.527 316.867 283.762 316.889V317.993C283.612 317.982 283.474 317.977 283.346 317.977C282.93 317.977 282.636 318.041 282.466 318.169C282.295 318.297 282.21 318.526 282.21 318.857V320.121H283.746V321.177H282.21V328.393H280.914V321.177H279.778ZM284.85 328.393V320.121H286.146V328.393H284.85ZM284.85 318.553V316.953H286.146V318.553H284.85ZM291.436 328.617C290.209 328.617 289.233 328.206 288.508 327.385C287.793 326.553 287.436 325.513 287.436 324.265C287.436 323.038 287.798 322.009 288.524 321.177C289.26 320.334 290.204 319.913 291.356 319.913C292.572 319.913 293.51 320.339 294.172 321.193C294.833 322.035 295.164 323.161 295.164 324.569H288.764C288.817 325.443 289.073 326.158 289.532 326.713C290.001 327.257 290.636 327.529 291.436 327.529C292.673 327.529 293.436 326.963 293.724 325.833H294.988C294.796 326.718 294.39 327.406 293.772 327.897C293.153 328.377 292.374 328.617 291.436 328.617ZM293.084 321.641C292.668 321.171 292.092 320.937 291.356 320.937C290.62 320.937 290.033 321.182 289.596 321.673C289.169 322.163 288.902 322.803 288.796 323.593H293.772C293.729 322.761 293.5 322.11 293.084 321.641ZM297.727 320.121V321.497H297.759C298.025 321.059 298.372 320.707 298.799 320.441C299.225 320.163 299.7 320.025 300.223 320.025C300.415 320.025 300.591 320.057 300.751 320.121V321.369H300.703C300.543 321.315 300.351 321.289 300.127 321.289C299.465 321.289 298.9 321.523 298.431 321.993C297.961 322.451 297.727 323.054 297.727 323.801V328.393H296.431V320.121H297.727ZM190.585 351.281C189.849 350.15 189.273 349.009 188.857 347.857C188.452 346.705 188.249 345.43 188.249 344.033C188.249 341.739 189.028 339.505 190.585 337.329H191.641C190.393 339.451 189.769 341.686 189.769 344.033C189.769 346.571 190.393 348.987 191.641 351.281H190.585ZM195.592 349.393V337.953H197.432L201.144 347.457H201.176L204.856 337.953H206.728V349.393H205.352V339.985H205.32C205.117 340.582 204.946 341.062 204.808 341.425L201.672 349.393H200.568L197.432 341.425L196.92 339.985H196.888V349.393H195.592ZM215.241 349.393H213.945V348.257H213.913C213.262 349.142 212.43 349.585 211.417 349.585C210.563 349.585 209.886 349.345 209.385 348.865C208.883 348.374 208.633 347.702 208.633 346.849V341.121H209.929V346.817C209.929 347.35 210.089 347.766 210.409 348.065C210.739 348.363 211.198 348.513 211.785 348.513C212.435 348.513 212.958 348.294 213.353 347.857C213.747 347.419 213.945 346.87 213.945 346.209V341.121H215.241V349.393ZM217.041 349.393V337.953H218.337V349.393H217.041ZM219.622 342.177V341.121H220.822V338.513H222.118V341.121H223.718V342.177H222.118V347.553C222.118 348.065 222.395 348.321 222.95 348.321C223.184 348.321 223.414 348.283 223.638 348.209H223.686V349.329C223.334 349.403 222.987 349.441 222.646 349.441C221.43 349.441 220.822 348.907 220.822 347.841V342.177H219.622ZM225.056 349.393V341.121H226.352V349.393H225.056ZM225.056 339.553V337.953H226.352V339.553H225.056ZM227.846 345.569V344.385H232.134V345.569H227.846ZM233.81 349.393V337.953H235.65L239.362 347.457H239.394L243.074 337.953H244.946V349.393H243.57V339.985H243.538C243.336 340.582 243.165 341.062 243.026 341.425L239.89 349.393H238.786L235.65 341.425L235.138 339.985H235.106V349.393H233.81ZM253.332 348.369C252.606 349.201 251.641 349.617 250.436 349.617C249.23 349.617 248.26 349.201 247.524 348.369C246.798 347.537 246.436 346.502 246.436 345.265C246.436 344.027 246.798 342.993 247.524 342.161C248.26 341.329 249.23 340.913 250.436 340.913C251.641 340.913 252.606 341.329 253.332 342.161C254.057 342.993 254.42 344.027 254.42 345.265C254.42 346.502 254.057 347.537 253.332 348.369ZM248.452 347.617C248.921 348.225 249.582 348.529 250.436 348.529C251.289 348.529 251.945 348.225 252.404 347.617C252.862 346.998 253.092 346.214 253.092 345.265C253.092 344.305 252.857 343.521 252.388 342.913C251.929 342.294 251.278 341.985 250.436 341.985C249.582 341.985 248.921 342.294 248.452 342.913C247.993 343.531 247.764 344.315 247.764 345.265C247.764 346.214 247.993 346.998 248.452 347.617ZM258.912 349.633C257.781 349.633 256.885 349.243 256.224 348.465C255.573 347.675 255.248 346.614 255.248 345.281C255.248 343.937 255.589 342.875 256.272 342.097C256.955 341.318 257.824 340.929 258.88 340.929C260 340.929 260.864 341.382 261.472 342.289H261.504V337.953H262.8V349.393H261.504V348.385H261.472C260.821 349.217 259.968 349.633 258.912 349.633ZM258.96 348.545C259.845 348.545 260.501 348.251 260.928 347.665C261.365 347.078 261.584 346.289 261.584 345.297C261.584 344.315 261.349 343.526 260.88 342.929C260.421 342.331 259.776 342.033 258.944 342.033C258.187 342.033 257.6 342.337 257.184 342.945C256.779 343.542 256.576 344.326 256.576 345.297C256.576 346.267 256.779 347.051 257.184 347.649C257.6 348.246 258.192 348.545 258.96 348.545ZM268.092 349.617C266.865 349.617 265.889 349.206 265.164 348.385C264.449 347.553 264.092 346.513 264.092 345.265C264.092 344.038 264.454 343.009 265.18 342.177C265.916 341.334 266.86 340.913 268.012 340.913C269.228 340.913 270.166 341.339 270.828 342.193C271.489 343.035 271.82 344.161 271.82 345.569H265.42C265.473 346.443 265.729 347.158 266.188 347.713C266.657 348.257 267.292 348.529 268.092 348.529C269.329 348.529 270.092 347.963 270.38 346.833H271.644C271.452 347.718 271.046 348.406 270.428 348.897C269.809 349.377 269.03 349.617 268.092 349.617ZM269.74 342.641C269.324 342.171 268.748 341.937 268.012 341.937C267.276 341.937 266.689 342.182 266.252 342.673C265.825 343.163 265.558 343.803 265.452 344.593H270.428C270.385 343.761 270.156 343.11 269.74 342.641ZM273.135 349.393V337.953H274.431V349.393H273.135ZM278.982 349.393V337.953H286.742V339.217H280.422V342.785H285.686V344.001H280.422V349.393H278.982ZM294.038 349.393H292.742V348.257H292.71C292.059 349.142 291.227 349.585 290.214 349.585C289.36 349.585 288.683 349.345 288.182 348.865C287.68 348.374 287.43 347.702 287.43 346.849V341.121H288.726V346.817C288.726 347.35 288.886 347.766 289.206 348.065C289.536 348.363 289.995 348.513 290.582 348.513C291.232 348.513 291.755 348.294 292.15 347.857C292.544 347.419 292.742 346.87 292.742 346.209V341.121H294.038V349.393ZM298.926 349.633C297.795 349.633 296.915 349.382 296.286 348.881C295.667 348.369 295.326 347.643 295.262 346.705H296.59C296.739 347.931 297.529 348.545 298.958 348.545C299.609 348.545 300.089 348.422 300.398 348.177C300.718 347.921 300.878 347.59 300.878 347.185C300.878 346.747 300.723 346.433 300.414 346.241C300.105 346.049 299.539 345.867 298.718 345.697C298.377 345.622 298.105 345.563 297.902 345.521C297.71 345.467 297.475 345.398 297.198 345.313C296.921 345.217 296.702 345.115 296.542 345.009C296.393 344.891 296.238 344.753 296.078 344.593C295.918 344.433 295.801 344.235 295.726 344.001C295.662 343.766 295.63 343.505 295.63 343.217C295.63 342.513 295.886 341.958 296.398 341.553C296.921 341.147 297.657 340.945 298.606 340.945C300.569 340.945 301.651 341.809 301.854 343.537H300.526C300.462 342.993 300.275 342.598 299.966 342.353C299.657 342.097 299.193 341.969 298.574 341.969C298.009 341.969 297.587 342.081 297.31 342.305C297.043 342.518 296.91 342.801 296.91 343.153C296.91 343.558 297.07 343.846 297.39 344.017C297.71 344.177 298.291 344.342 299.134 344.513C299.646 344.619 300.046 344.721 300.334 344.817C300.633 344.902 300.942 345.041 301.262 345.233C301.582 345.414 301.817 345.659 301.966 345.969C302.115 346.278 302.19 346.662 302.19 347.121C302.19 347.931 301.891 348.555 301.294 348.993C300.697 349.419 299.907 349.633 298.926 349.633ZM303.431 349.393V341.121H304.727V349.393H303.431ZM303.431 339.553V337.953H304.727V339.553H303.431ZM312.925 348.369C312.2 349.201 311.235 349.617 310.029 349.617C308.824 349.617 307.853 349.201 307.117 348.369C306.392 347.537 306.029 346.502 306.029 345.265C306.029 344.027 306.392 342.993 307.117 342.161C307.853 341.329 308.824 340.913 310.029 340.913C311.235 340.913 312.2 341.329 312.925 342.161C313.651 342.993 314.013 344.027 314.013 345.265C314.013 346.502 313.651 347.537 312.925 348.369ZM308.045 347.617C308.515 348.225 309.176 348.529 310.029 348.529C310.883 348.529 311.539 348.225 311.997 347.617C312.456 346.998 312.685 346.214 312.685 345.265C312.685 344.305 312.451 343.521 311.981 342.913C311.523 342.294 310.872 341.985 310.029 341.985C309.176 341.985 308.515 342.294 308.045 342.913C307.587 343.531 307.357 344.315 307.357 345.265C307.357 346.214 307.587 346.998 308.045 347.617ZM316.602 341.121V342.209H316.634C317.274 341.355 318.148 340.929 319.258 340.929C320.132 340.929 320.815 341.158 321.306 341.617C321.796 342.075 322.042 342.731 322.042 343.585V349.393H320.746V343.697C320.746 343.163 320.58 342.753 320.25 342.465C319.919 342.166 319.46 342.017 318.874 342.017C318.212 342.017 317.668 342.23 317.242 342.657C316.815 343.083 316.602 343.633 316.602 344.305V349.393H315.306V341.121H316.602ZM325.778 351.281C327.026 348.987 327.65 346.571 327.65 344.033C327.65 341.686 327.026 339.451 325.778 337.329H326.834C328.391 339.505 329.17 341.739 329.17 344.033C329.17 345.43 328.962 346.705 328.546 347.857C328.14 349.009 327.57 350.15 326.834 351.281H325.778Z" fill="#5D8049"/>
<defs>
<filter id="filter0_d_613_3111" x="134.435" y="103.097" width="244.13" height="250.386" filterUnits="userSpaceOnUse" color-interpolation-filters="sRGB">
<feFlood flood-opacity="0" result="BackgroundImageFix"/>
<feColorMatrix in="SourceAlpha" type="matrix" values="0 0 0 0 0 0 0 0 0 0 0 0 0 0 0 0 0 0 127 0" result="hardAlpha"/>
<feOffset/>
<feGaussianBlur stdDeviation="24.3"/>
<feComposite in2="hardAlpha" operator="out"/>
<feColorMatrix type="matrix" values="0 0 0 0 0 0 0 0 0 0 0 0 0 0 0 0 0 0 0.15 0"/>
<feBlend mode="normal" in2="BackgroundImageFix" result="effect1_dropShadow_613_3111"/>
<feBlend mode="normal" in="SourceGraphic" in2="effect1_dropShadow_613_3111" result="shape"/>
</filter>
<linearGradient id="paint0_linear_613_3111" x1="83.4654" y1="98.408" x2="195.159" y2="165.033" gradientUnits="userSpaceOnUse">
<stop stop-color="#EBF2E8"/>
<stop offset="1" stop-color="#6DBE3E" stop-opacity="0"/>
</linearGradient>
<linearGradient id="paint1_linear_613_3111" x1="428.542" y1="97.1033" x2="312.452" y2="166.351" gradientUnits="userSpaceOnUse">
<stop stop-color="#EBF2E8"/>
<stop offset="1" stop-color="#6DBE3E" stop-opacity="0"/>
</linearGradient>
<linearGradient id="paint2_linear_613_3111" x1="255.465" y1="115.298" x2="256.5" y2="304.883" gradientUnits="userSpaceOnUse">
<stop stop-color="#B2DF97"/>
<stop offset="1" stop-color="#637E53"/>
</linearGradient>
<linearGradient id="paint3_linear_613_3111" x1="255.465" y1="115.298" x2="256.5" y2="304.883" gradientUnits="userSpaceOnUse">
<stop stop-color="#B2DF97"/>
<stop offset="1" stop-color="#637E53"/>
</linearGradient>
<linearGradient id="paint4_linear_613_3111" x1="252.609" y1="210.704" x2="252.785" y2="240.21" gradientUnits="userSpaceOnUse">
<stop stop-color="#B2DF97"/>
<stop offset="1" stop-color="#637E53"/>
</linearGradient>
<linearGradient id="paint5_linear_613_3111" x1="268.612" y1="210.704" x2="269.504" y2="240.184" gradientUnits="userSpaceOnUse">
<stop stop-color="#B2DF97"/>
<stop offset="1" stop-color="#637E53"/>
</linearGradient>
</defs>
</svg>
