<svg width="341" height="331" viewBox="0 0 341 331" fill="none" xmlns="http://www.w3.org/2000/svg">
<path d="M313.945 310.234C321.06 295.71 308.703 275.057 286.346 264.104C263.988 253.152 240.096 256.048 232.981 270.572C225.866 285.097 238.222 305.75 260.58 316.702C282.937 327.654 306.83 324.758 313.945 310.234Z" fill="#FFB808"/>
<path d="M287.518 323.647C278.809 323.647 269.42 321.344 260.475 316.975C238.009 305.963 225.551 285.091 232.724 270.448C239.898 255.805 264.018 252.853 286.484 263.864C308.951 274.876 321.409 295.748 314.235 310.391C310.752 317.506 303.223 322.112 293.038 323.352C291.267 323.529 289.407 323.647 287.518 323.647ZM259.442 257.753C247.397 257.753 237.418 262.211 233.285 270.684C226.259 285.032 238.57 305.55 260.77 316.414C271.546 321.698 282.971 323.912 293.009 322.702C302.987 321.492 310.338 317.004 313.733 310.096C320.76 295.748 308.449 275.23 286.248 264.366C277.155 259.908 267.797 257.753 259.442 257.753Z" fill="#242021"/>
<path d="M233.02 270.566L238.776 258.816L241.67 267.319L233.02 270.566Z" fill="#EAA60F"/>
<path d="M313.985 310.248L319.742 298.498L310.797 301.539L313.985 310.248Z" fill="#EAA60F"/>
<path d="M233.011 270.865C232.981 270.865 232.922 270.865 232.893 270.835C232.745 270.776 232.686 270.599 232.745 270.451L238.502 258.701C238.561 258.554 238.738 258.495 238.886 258.554C239.034 258.613 239.093 258.79 239.034 258.938L233.277 270.687C233.218 270.806 233.1 270.865 233.011 270.865Z" fill="#242021"/>
<mask id="mask0_1099_11240" style="mask-type:luminance" maskUnits="userSpaceOnUse" x="230" y="257" width="86" height="67">
<path d="M313.945 310.234C321.06 295.71 308.703 275.057 286.346 264.104C263.988 253.152 240.096 256.048 232.981 270.572C225.866 285.097 238.222 305.75 260.58 316.702C282.937 327.654 306.83 324.758 313.945 310.234Z" fill="white"/>
</mask>
<g mask="url(#mask0_1099_11240)">
<path d="M227.523 288.135C227.493 288.135 227.434 288.135 227.405 288.105C227.257 288.046 227.198 287.869 227.257 287.721L240.188 261.328C240.247 261.181 240.424 261.122 240.571 261.181C240.719 261.24 240.778 261.417 240.719 261.565L227.788 287.957C227.729 288.076 227.641 288.135 227.523 288.135Z" fill="#242021"/>
<path d="M229.82 294.92C229.79 294.92 229.731 294.92 229.701 294.89C229.554 294.831 229.495 294.654 229.554 294.506L242.485 268.114C242.544 267.966 242.721 267.907 242.868 267.966C243.016 268.025 243.075 268.202 243.016 268.35L230.085 294.743C230.056 294.831 229.938 294.92 229.82 294.92Z" fill="#242021"/>
<path d="M232.148 301.683C232.118 301.683 232.059 301.683 232.03 301.654C231.882 301.595 231.823 301.418 231.882 301.27L244.813 274.877C244.872 274.73 245.049 274.671 245.197 274.73C245.344 274.789 245.403 274.966 245.344 275.113L232.413 301.506C232.354 301.624 232.266 301.683 232.148 301.683Z" fill="#242021"/>
<path d="M234.46 308.445C234.431 308.445 234.372 308.445 234.342 308.416C234.195 308.357 234.135 308.179 234.195 308.032L247.125 281.639C247.184 281.491 247.361 281.432 247.509 281.491C247.657 281.55 247.716 281.728 247.657 281.875L234.726 308.268C234.696 308.386 234.578 308.445 234.46 308.445Z" fill="#242021"/>
<path d="M236.784 315.232C236.755 315.232 236.696 315.232 236.666 315.203C236.519 315.144 236.46 314.967 236.519 314.819L249.449 288.426C249.508 288.278 249.686 288.219 249.833 288.278C249.981 288.338 250.04 288.515 249.981 288.662L237.05 315.055C236.991 315.173 236.903 315.232 236.784 315.232Z" fill="#242021"/>
<path d="M239.124 321.994C239.095 321.994 239.036 321.994 239.006 321.964C238.859 321.905 238.8 321.728 238.859 321.581L251.789 295.188C251.848 295.04 252.025 294.981 252.173 295.04C252.321 295.099 252.38 295.276 252.321 295.424L239.39 321.817C239.331 321.935 239.213 321.994 239.124 321.994Z" fill="#242021"/>
<path d="M243.784 324.269C243.755 324.269 243.696 324.269 243.666 324.24C243.519 324.181 243.46 324.004 243.519 323.856L256.449 297.463C256.508 297.316 256.686 297.257 256.833 297.316C256.981 297.375 257.04 297.552 256.981 297.699L244.05 324.092C243.991 324.21 243.873 324.269 243.784 324.269Z" fill="#242021"/>
<path d="M248.456 326.572C248.427 326.572 248.368 326.572 248.338 326.543C248.191 326.483 248.132 326.306 248.191 326.159L261.121 299.766C261.18 299.618 261.357 299.559 261.505 299.618C261.653 299.677 261.712 299.854 261.653 300.002L248.722 326.395C248.663 326.513 248.545 326.572 248.456 326.572Z" fill="#242021"/>
<path d="M253.113 328.842C253.083 328.842 253.024 328.842 252.994 328.812C252.847 328.753 252.788 328.576 252.847 328.428L265.778 302.035C265.837 301.888 266.014 301.829 266.161 301.888C266.309 301.947 266.368 302.124 266.309 302.272L253.378 328.664C253.319 328.783 253.201 328.842 253.113 328.842Z" fill="#242021"/>
<path d="M257.788 331.144C257.759 331.144 257.7 331.144 257.67 331.115C257.523 331.056 257.464 330.879 257.523 330.731L270.453 304.338C270.512 304.191 270.69 304.132 270.837 304.191C270.985 304.25 271.044 304.427 270.985 304.574L258.054 330.967C257.995 331.085 257.877 331.144 257.788 331.144Z" fill="#242021"/>
<path d="M262.445 333.42C262.415 333.42 262.356 333.42 262.326 333.39C262.179 333.331 262.12 333.154 262.179 333.006L275.11 306.614C275.169 306.466 275.346 306.407 275.493 306.466C275.641 306.525 275.7 306.702 275.641 306.85L262.71 333.243C262.651 333.361 262.533 333.42 262.445 333.42Z" fill="#242021"/>
<path d="M267.109 335.695C267.079 335.695 267.02 335.695 266.991 335.666C266.843 335.607 266.784 335.429 266.843 335.282L279.774 308.889C279.833 308.741 280.01 308.682 280.157 308.741C280.305 308.8 280.364 308.978 280.305 309.125L267.374 335.518C267.315 335.636 267.197 335.695 267.109 335.695Z" fill="#242021"/>
<path d="M272.988 335.457C272.958 335.457 272.899 335.457 272.869 335.427C272.722 335.368 272.663 335.191 272.722 335.044L285.653 308.651C285.712 308.503 285.889 308.444 286.036 308.503C286.184 308.562 286.243 308.739 286.184 308.887L273.253 335.28C273.224 335.398 273.106 335.457 272.988 335.457Z" fill="#242021"/>
<path d="M278.894 335.195C278.864 335.195 278.805 335.195 278.776 335.166C278.628 335.107 278.569 334.929 278.628 334.782L291.559 308.389C291.618 308.241 291.795 308.182 291.943 308.241C292.09 308.3 292.149 308.478 292.09 308.625L279.16 335.018C279.13 335.136 279.012 335.195 278.894 335.195Z" fill="#242021"/>
<path d="M284.792 334.928C284.763 334.928 284.704 334.928 284.674 334.898C284.527 334.839 284.467 334.662 284.527 334.514L297.457 308.121C297.516 307.974 297.693 307.915 297.841 307.974C297.989 308.033 298.048 308.21 297.989 308.358L285.058 334.75C285.028 334.869 284.91 334.928 284.792 334.928Z" fill="#242021"/>
<path d="M290.702 334.691C290.673 334.691 290.614 334.691 290.584 334.662C290.437 334.603 290.378 334.426 290.437 334.278L303.367 307.885C303.426 307.737 303.604 307.678 303.751 307.737C303.899 307.797 303.958 307.974 303.899 308.121L290.968 334.514C290.909 334.603 290.82 334.691 290.702 334.691Z" fill="#242021"/>
<path d="M296.605 334.424C296.575 334.424 296.516 334.424 296.487 334.394C296.339 334.335 296.28 334.158 296.339 334.01L309.27 307.618C309.329 307.47 309.506 307.411 309.654 307.47C309.801 307.529 309.86 307.706 309.801 307.854L296.87 334.246C296.811 334.365 296.723 334.424 296.605 334.424Z" fill="#242021"/>
<path d="M303.808 327.898C303.778 327.898 303.719 327.898 303.69 327.869C303.542 327.81 303.483 327.633 303.542 327.485L316.473 301.092C316.532 300.945 316.709 300.885 316.857 300.945C317.004 301.004 317.063 301.181 317.004 301.328L304.074 327.721C304.044 327.81 303.926 327.898 303.808 327.898Z" fill="#242021"/>
</g>
<path d="M313.991 310.542C313.962 310.542 313.903 310.542 313.873 310.513C313.726 310.454 313.667 310.277 313.726 310.129L319.483 298.379C319.542 298.232 319.719 298.173 319.866 298.232C320.014 298.291 320.073 298.468 320.014 298.615L314.257 310.365C314.198 310.483 314.08 310.542 313.991 310.542Z" fill="#242021"/>
<path d="M319.683 298.49C326.798 283.965 314.442 263.312 292.084 252.36C269.726 241.408 245.834 244.304 238.719 258.828C231.604 273.353 243.96 294.006 266.318 304.958C288.676 315.91 312.568 313.014 319.683 298.49Z" fill="white"/>
<path d="M293.295 311.899C291.878 311.899 290.402 311.84 288.926 311.722C288.749 311.722 288.631 311.574 288.66 311.397C288.66 311.249 288.808 311.102 288.985 311.131C295.952 311.722 302.447 310.895 307.732 308.74C313.164 306.526 317.208 302.953 319.452 298.378C326.478 284.03 314.167 263.512 291.967 252.648C269.796 241.784 246.03 244.618 239.004 258.965C235.993 265.136 236.435 272.752 240.303 280.458C244.141 288.104 251.078 295.396 259.817 300.946C259.965 301.035 259.994 301.212 259.906 301.359C259.817 301.507 259.64 301.536 259.492 301.448C250.665 295.839 243.639 288.458 239.771 280.723C235.845 272.841 235.373 265.018 238.473 258.7C245.646 244.057 269.766 241.105 292.232 252.116C314.699 263.128 327.157 284 319.983 298.643C317.681 303.337 313.518 307.028 307.968 309.301C303.716 311.013 298.698 311.899 293.295 311.899Z" fill="#242021"/>
<path d="M290.494 303.223C283.822 303.223 276.59 301.452 269.74 298.086C261.386 294.012 254.596 288.049 250.551 281.318C246.506 274.557 245.739 267.797 248.425 262.335C251.112 256.844 256.898 253.331 264.722 252.357C272.515 251.412 281.402 253.154 289.727 257.228C289.875 257.287 289.934 257.464 289.875 257.612C289.815 257.759 289.638 257.818 289.491 257.759C281.254 253.715 272.486 252.002 264.81 252.947C257.193 253.862 251.555 257.287 248.957 262.601C246.359 267.885 247.097 274.439 251.053 281.023C255.009 287.665 261.74 293.54 270.006 297.585C278.243 301.629 287.011 303.341 294.687 302.397C302.303 301.481 307.942 298.057 310.54 292.743C310.599 292.595 310.776 292.536 310.924 292.595C311.071 292.654 311.13 292.831 311.071 292.979C308.385 298.47 302.599 301.983 294.775 302.958C293.358 303.135 291.941 303.223 290.494 303.223Z" fill="#242021"/>
<path d="M284.787 270.333C287.503 272.813 289.334 275.027 290.19 276.975C291.105 279.012 291.312 280.99 290.78 282.968C290.042 285.655 288.448 287.662 285.939 288.902C283.252 290.201 279.916 290.438 276.019 289.552L274.012 293.951L269.819 291.914L271.827 288.105L271.561 287.987C267.458 285.98 264.328 283.5 262.262 280.666L266.011 277.536C268.52 280.4 271.089 282.526 273.628 283.766L274.012 283.943L280.861 270.894C277.849 268.06 276.196 265.993 275.842 264.576C275.488 263.248 275.665 262.126 276.314 261.24C277.2 260.059 278.558 259.41 280.359 259.292C282.071 259.174 284.079 259.528 286.381 260.384L287.001 259.203L289.304 260.325L288.802 261.447C290.662 262.362 292.433 263.425 294.116 264.665L292.758 266.141C291.164 264.901 289.599 263.927 288.035 263.159L284.787 270.333ZM282.396 268.03L285.496 262.126C282.75 261.27 280.92 261.506 280.034 262.952C279.296 264.045 280.064 265.757 282.396 268.03ZM277.997 285.242C282.278 285.862 284.964 284.445 286.086 281.256C286.558 279.928 286.558 278.658 286.086 277.448C285.643 276.237 284.728 274.909 283.37 273.403L277.997 285.242Z" fill="#FFB808"/>
<path d="M274.017 294.249C273.987 294.249 273.928 294.249 273.899 294.219C273.751 294.16 273.692 293.983 273.751 293.835L275.847 289.23L276.083 289.289C279.862 290.175 283.139 289.968 285.796 288.669C288.187 287.518 289.782 285.569 290.49 282.942C291.021 281.052 290.815 279.133 289.9 277.126C289.841 276.978 289.9 276.801 290.047 276.742C290.195 276.683 290.372 276.742 290.431 276.89C291.376 278.986 291.582 281.082 291.051 283.089C290.283 285.894 288.601 287.96 286.032 289.2C283.316 290.529 279.98 290.765 276.172 289.909L274.253 294.101C274.253 294.16 274.135 294.249 274.017 294.249ZM279.803 285.658C279.213 285.658 278.593 285.599 277.943 285.51C277.796 285.481 277.677 285.333 277.707 285.185C277.736 285.038 277.884 284.92 278.032 284.949C282.076 285.54 284.704 284.27 285.796 281.17C286.239 279.93 286.239 278.749 285.796 277.539C285.383 276.388 284.468 275.059 283.139 273.613C283.021 273.495 283.05 273.317 283.169 273.199C283.287 273.081 283.464 273.111 283.582 273.229C284.969 274.734 285.914 276.122 286.357 277.362C286.829 278.661 286.829 280.019 286.357 281.377C285.353 284.211 283.11 285.658 279.803 285.658ZM274.164 284.3L273.515 283.975C270.946 282.705 268.348 280.609 265.81 277.687C265.691 277.569 265.721 277.391 265.839 277.273C265.957 277.155 266.134 277.185 266.252 277.303C268.762 280.167 271.271 282.233 273.781 283.444L273.899 283.503L280.512 270.926C277.559 268.151 275.965 266.084 275.581 264.638C275.552 264.49 275.64 264.313 275.788 264.284C275.936 264.254 276.113 264.343 276.142 264.49C276.497 265.848 278.15 267.915 281.073 270.66L281.25 270.808L274.164 284.3ZM282.371 268.328C282.312 268.328 282.283 268.328 282.224 268.299C282.076 268.21 282.017 268.033 282.106 267.885L285.206 261.981C285.294 261.833 285.471 261.774 285.619 261.863C285.767 261.951 285.826 262.129 285.737 262.276L282.637 268.181C282.608 268.269 282.49 268.328 282.371 268.328ZM292.793 266.439C292.734 266.439 292.675 266.409 292.616 266.38C291.051 265.169 289.486 264.166 287.951 263.428C287.804 263.368 287.745 263.191 287.804 263.044C287.863 262.896 288.04 262.837 288.187 262.896C289.752 263.664 291.376 264.697 292.97 265.907C293.088 265.996 293.118 266.203 293.029 266.321C292.97 266.409 292.881 266.439 292.793 266.439ZM288.837 261.774C288.807 261.774 288.748 261.774 288.719 261.745C288.571 261.686 288.512 261.509 288.571 261.361L288.955 260.505L287.154 259.619L286.534 260.771L286.298 260.682C284.025 259.826 282.076 259.501 280.393 259.619C280.216 259.619 280.098 259.501 280.069 259.353C280.069 259.176 280.187 259.058 280.334 259.029C282.047 258.911 283.966 259.235 286.239 260.062L286.859 258.852L289.693 260.239L289.073 261.627C289.043 261.686 288.955 261.774 288.837 261.774Z" fill="#242021"/>
<path d="M158.187 168.717C178.16 146.836 167.036 104.164 133.341 73.4064C99.646 42.6491 56.1389 35.4538 36.1653 57.3352C16.1918 79.2167 27.3154 121.889 61.0106 152.646C94.7058 183.403 138.213 190.599 158.187 168.717Z" fill="#FFB808"/>
<path d="M126.022 181.679C122.39 181.679 118.582 181.354 114.656 180.704C96.2338 177.664 77.1035 167.774 60.7777 152.865C44.4519 137.956 32.8497 119.8 28.1557 101.733C23.4321 83.6354 26.2072 67.782 35.92 57.1245C45.6623 46.467 61.1615 42.2749 79.6129 45.3156C98.0347 48.3564 117.165 58.2463 133.491 73.155C149.817 88.0637 161.419 106.22 166.113 124.287C170.836 142.385 168.061 158.238 158.348 168.895C150.702 177.309 139.454 181.679 126.022 181.679ZM68.3354 44.9909C55.4046 44.9909 44.0977 49.065 36.3629 57.5378C16.524 79.2661 27.6538 121.837 61.191 152.422C77.4577 167.272 96.47 177.103 114.774 180.114C133.018 183.125 148.37 179.022 157.935 168.512C167.53 158.002 170.246 142.355 165.581 124.465C160.917 106.515 149.374 88.4771 133.137 73.6274C112.648 54.9694 88.5285 44.9909 68.3354 44.9909Z" fill="#242021"/>
<path d="M36.125 57.3303L52.2737 39.6465L53.0412 56.0903L36.125 57.3303Z" fill="#EAA60F"/>
<path d="M158.143 168.721L174.292 151.037L157.051 151.805L158.143 168.721Z" fill="#EAA60F"/>
<path d="M36.1274 57.624C36.0684 57.624 35.9798 57.5945 35.9208 57.5354C35.8027 57.4174 35.8027 57.2402 35.8913 57.1221L52.0399 39.4384C52.158 39.3203 52.3351 39.3203 52.4532 39.4088C52.5713 39.5269 52.5713 39.7041 52.4827 39.8221L36.3341 57.5059C36.3046 57.5945 36.216 57.624 36.1274 57.624Z" fill="#242021"/>
<mask id="mask1_1099_11240" style="mask-type:luminance" maskUnits="userSpaceOnUse" x="26" y="44" width="143" height="138">
<path d="M158.187 168.717C178.16 146.836 167.036 104.164 133.341 73.4064C99.646 42.6491 56.1388 35.4538 36.1653 57.3352C16.1918 79.2167 27.3154 121.889 61.0106 152.646C94.7059 183.403 138.213 190.599 158.187 168.717Z" fill="white"/>
</mask>
<g mask="url(#mask1_1099_11240)">
<path d="M17.6235 85.2007C17.5645 85.2007 17.4759 85.1712 17.4169 85.1122C17.2988 84.9941 17.2988 84.8169 17.3874 84.6989L53.6996 44.9325C53.8177 44.8144 53.9949 44.8144 54.1129 44.903C54.231 45.0211 54.231 45.1982 54.1425 45.3163L17.8302 85.0827C17.7711 85.1712 17.6826 85.2007 17.6235 85.2007Z" fill="#242021"/>
<path d="M18.2056 98.3082C18.1465 98.3082 18.0579 98.2786 17.9989 98.2196C17.8808 98.1015 17.8808 97.9244 17.9694 97.8063L54.2817 58.0399C54.3997 57.9218 54.5769 57.9218 54.695 58.0104C54.8131 58.1285 54.8131 58.3056 54.7245 58.4237L18.4122 98.1901C18.3532 98.2491 18.2941 98.3082 18.2056 98.3082Z" fill="#242021"/>
<path d="M18.7993 111.388C18.7403 111.388 18.6517 111.359 18.5926 111.3C18.4746 111.182 18.4746 111.004 18.5631 110.886L54.8754 71.12C54.9935 71.0019 55.1706 71.0019 55.2887 71.0905C55.4068 71.2086 55.4068 71.3857 55.3182 71.5038L19.006 111.27C18.9764 111.359 18.8879 111.388 18.7993 111.388Z" fill="#242021"/>
<path d="M19.3892 124.496C19.3301 124.496 19.2415 124.466 19.1825 124.407C19.0644 124.289 19.0644 124.112 19.153 123.994L55.4653 84.2274C55.5833 84.1093 55.7605 84.1093 55.8786 84.1979C55.9967 84.316 55.9967 84.4931 55.9081 84.6112L19.5958 124.378C19.5663 124.466 19.4777 124.496 19.3892 124.496Z" fill="#242021"/>
<path d="M20.0063 137.605C19.9473 137.605 19.8587 137.576 19.7997 137.516C19.6816 137.398 19.6816 137.221 19.7701 137.103L56.0824 97.3368C56.2005 97.2187 56.3776 97.2187 56.4957 97.3073C56.6138 97.4254 56.6138 97.6025 56.5253 97.7206L20.213 137.487C20.1539 137.576 20.0654 137.605 20.0063 137.605Z" fill="#242021"/>
<path d="M20.6001 150.685C20.541 150.685 20.4525 150.656 20.3935 150.597C20.2754 150.478 20.2753 150.301 20.3639 150.183L56.6762 110.417C56.7943 110.299 56.9714 110.299 57.0895 110.387C57.2076 110.505 57.2076 110.683 57.119 110.801L20.8067 150.567C20.7477 150.656 20.6887 150.685 20.6001 150.685Z" fill="#242021"/>
<path d="M27.6235 157.119C27.5645 157.119 27.4759 157.089 27.4169 157.03C27.2988 156.912 27.2988 156.735 27.3874 156.617L63.6996 116.85C63.8177 116.732 63.9949 116.732 64.1129 116.821C64.231 116.939 64.231 117.116 64.1425 117.234L27.8302 157.001C27.7711 157.089 27.7121 157.119 27.6235 157.119Z" fill="#242021"/>
<path d="M34.643 163.523C34.584 163.523 34.4954 163.493 34.4364 163.434C34.3183 163.316 34.3183 163.139 34.4069 163.021L70.7192 123.255C70.8372 123.137 71.0143 123.137 71.1324 123.225C71.2505 123.343 71.2506 123.52 71.162 123.639L34.8497 163.405C34.7907 163.493 34.7316 163.523 34.643 163.523Z" fill="#242021"/>
<path d="M41.6782 169.929C41.6192 169.929 41.5306 169.9 41.4716 169.841C41.3535 169.723 41.3535 169.545 41.442 169.427L77.7543 129.661C77.8724 129.543 78.0495 129.543 78.1676 129.631C78.2857 129.75 78.2857 129.927 78.1971 130.045L41.8849 169.811C41.8554 169.9 41.7668 169.929 41.6782 169.929Z" fill="#242021"/>
<path d="M48.7016 176.363C48.6426 176.363 48.554 176.333 48.495 176.274C48.3769 176.156 48.3769 175.979 48.4655 175.861L84.7778 136.095C84.8958 135.977 85.073 135.977 85.1911 136.065C85.3092 136.183 85.3092 136.36 85.2206 136.478L48.9378 176.245C48.8788 176.333 48.7902 176.363 48.7016 176.363Z" fill="#242021"/>
<path d="M55.7329 182.771C55.6739 182.771 55.5853 182.742 55.5263 182.682C55.4082 182.564 55.4081 182.387 55.4967 182.269L91.809 142.503C91.9271 142.385 92.1042 142.385 92.2223 142.473C92.3404 142.591 92.3404 142.769 92.2518 142.887L55.9395 182.653C55.91 182.742 55.8215 182.771 55.7329 182.771Z" fill="#242021"/>
<path d="M62.7564 189.173C62.6973 189.173 62.6087 189.144 62.5497 189.085C62.4316 188.967 62.4316 188.79 62.5202 188.672L98.8324 148.905C98.9505 148.787 99.1277 148.787 99.2458 148.876C99.3638 148.994 99.3638 149.171 99.2753 149.289L62.963 189.055C62.9335 189.144 62.8449 189.173 62.7564 189.173Z" fill="#242021"/>
<path d="M73.2642 191.777C73.2051 191.777 73.1165 191.747 73.0575 191.688C72.9394 191.57 72.9394 191.393 73.028 191.275L109.34 151.509C109.458 151.391 109.635 151.391 109.754 151.479C109.872 151.597 109.872 151.774 109.783 151.892L73.4708 191.659C73.4413 191.747 73.3527 191.777 73.2642 191.777Z" fill="#242021"/>
<path d="M83.7798 194.345C83.7207 194.345 83.6322 194.316 83.5731 194.257C83.455 194.139 83.455 193.961 83.5436 193.843L119.856 154.077C119.974 153.959 120.151 153.959 120.269 154.048C120.387 154.166 120.387 154.343 120.299 154.461L83.9864 194.227C83.9569 194.316 83.8683 194.345 83.7798 194.345Z" fill="#242021"/>
<path d="M94.3071 196.939C94.2481 196.939 94.1595 196.909 94.1005 196.85C93.9824 196.732 93.9824 196.555 94.0709 196.437L130.383 156.671C130.501 156.553 130.678 156.553 130.797 156.641C130.915 156.759 130.915 156.936 130.826 157.055L94.5138 196.821C94.4547 196.88 94.3661 196.939 94.3071 196.939Z" fill="#242021"/>
<path d="M104.819 199.511C104.76 199.511 104.671 199.482 104.612 199.423C104.494 199.305 104.494 199.127 104.583 199.009L140.895 159.243C141.013 159.125 141.19 159.125 141.308 159.214C141.426 159.332 141.426 159.509 141.338 159.627L105.025 199.393C104.966 199.482 104.878 199.511 104.819 199.511Z" fill="#242021"/>
<path d="M115.338 202.08C115.279 202.08 115.191 202.05 115.132 201.991C115.014 201.873 115.014 201.696 115.102 201.578L151.414 161.811C151.533 161.693 151.71 161.693 151.828 161.782C151.946 161.9 151.946 162.077 151.857 162.195L115.545 201.962C115.486 202.05 115.397 202.08 115.338 202.08Z" fill="#242021"/>
<path d="M131.366 194.316C131.307 194.316 131.218 194.286 131.159 194.227C131.041 194.109 131.041 193.932 131.13 193.814L167.442 154.048C167.56 153.93 167.737 153.93 167.855 154.018C167.973 154.136 167.973 154.313 167.885 154.432L131.572 194.198C131.513 194.286 131.425 194.316 131.366 194.316Z" fill="#242021"/>
</g>
<path d="M158.139 169.015C158.08 169.015 157.992 168.985 157.932 168.926C157.814 168.808 157.814 168.631 157.903 168.513L174.052 150.829C174.17 150.711 174.347 150.711 174.465 150.799C174.583 150.918 174.583 151.095 174.494 151.213L158.346 168.897C158.316 168.985 158.228 169.015 158.139 169.015Z" fill="#242021"/>
<path d="M174.319 151.002C194.293 129.121 183.169 86.4488 149.474 55.6916C115.779 24.9343 72.2716 17.739 52.2981 39.6204C32.3246 61.5018 43.4482 104.174 77.1434 134.931C110.839 165.688 154.346 172.884 174.319 151.002Z" fill="white"/>
<path d="M142.116 163.968C133.112 163.968 123.34 162.019 113.45 158.182C113.302 158.122 113.214 157.945 113.273 157.798C113.332 157.65 113.509 157.562 113.656 157.621C125.642 162.256 137.54 164.145 147.991 163.053C158.737 161.931 167.771 157.709 174.088 150.771C193.927 129.043 182.797 86.4721 149.26 55.8872C132.993 41.0375 113.981 31.2066 95.6775 28.1954C77.4327 25.1841 62.0812 29.2877 52.516 39.7976C43.9841 49.1266 40.8547 62.8839 43.6889 78.5012C46.4935 93.9708 54.9664 110.385 67.5133 124.703C67.6314 124.821 67.6019 124.999 67.4838 125.117C67.3657 125.235 67.1885 125.205 67.0705 125.087C54.435 110.71 45.9326 94.1774 43.0984 78.5897C40.2348 62.7954 43.4232 48.8609 52.0732 39.3843C61.8155 28.7268 77.3146 24.5346 95.766 27.5754C114.188 30.6162 133.318 40.5061 149.644 55.4148C165.97 70.3235 177.572 88.4797 182.266 106.547C186.99 124.644 184.214 140.498 174.502 151.155C168.095 158.182 158.943 162.492 148.05 163.614C146.131 163.879 144.153 163.968 142.116 163.968Z" fill="#242021"/>
<path d="M136.861 146.518C134.056 146.518 131.134 146.282 128.122 145.78C113.981 143.448 99.3088 135.86 86.7619 124.406C74.215 112.951 65.3288 99.0168 61.7271 85.1709C58.0959 71.266 60.2215 59.1028 67.6906 50.8957C75.1597 42.718 87.0867 39.4706 101.287 41.8324C115.428 44.1646 130.1 51.7518 142.647 63.2064C142.765 63.3245 142.765 63.5016 142.677 63.6197C142.559 63.7378 142.382 63.7378 142.264 63.6492C129.805 52.2832 115.221 44.7551 101.198 42.4228C87.2343 40.1201 75.4845 43.2789 68.1334 51.309C60.7824 59.339 58.7158 71.325 62.288 85.0233C65.8602 98.7806 74.7169 112.597 87.1752 123.993C99.6336 135.359 114.218 142.887 128.241 145.219C142.205 147.522 153.954 144.363 161.305 136.333C161.423 136.215 161.601 136.215 161.719 136.303C161.837 136.421 161.837 136.599 161.748 136.717C155.814 143.152 147.164 146.518 136.861 146.518Z" fill="#242021"/>
<path d="M127.321 83.5462C130.834 89.303 132.9 94.1152 133.432 97.9826C133.993 102.027 133.343 105.658 131.395 108.847C128.738 113.186 124.9 115.932 119.822 116.788C114.42 117.703 108.456 116.404 102.05 112.832L96.2634 119.534L89.9752 113.777L95.4663 108.109L95.053 107.725C88.8533 102.086 84.6317 96.1227 82.4766 90.0706L90.6837 86.528C93.6064 92.8752 97.0605 97.894 100.898 101.378L101.459 101.909L120.235 82.5129C116.398 75.9885 114.567 71.4716 114.656 68.8442C114.715 66.3053 115.6 64.4454 117.224 63.235C119.409 61.6112 122.095 61.1684 125.313 61.8769C128.413 62.556 131.749 64.2092 135.351 66.8957L137.034 65.1539L140.517 68.3423L139.041 70.0546C141.846 72.5935 144.385 75.3981 146.717 78.4684L143.558 80.3578C141.373 77.3761 139.13 74.8077 136.768 72.6821L127.321 83.5462ZM124.28 78.2617L132.782 69.4641C128.384 66.571 125.077 66.0396 122.745 68.0766C120.914 69.6708 121.387 73.0363 124.28 78.2617ZM107.718 106.249C114.921 109.526 120.354 108.433 123.985 103.415C125.49 101.348 126.14 99.1044 125.963 96.7131C125.815 94.3809 124.9 91.5467 123.276 88.2402L107.718 106.249Z" fill="#FFB808"/>
<path d="M96.2747 119.802C96.2157 119.802 96.1271 119.773 96.068 119.743C95.95 119.625 95.9204 119.448 96.0385 119.33L101.972 112.451L102.179 112.569C108.438 116.082 114.372 117.411 119.745 116.496C124.616 115.669 128.454 113.042 131.111 108.702C133.03 105.572 133.679 102.089 133.118 98.0443C133.089 97.8967 133.207 97.7195 133.384 97.7195C133.532 97.69 133.709 97.8081 133.709 97.9852C134.299 102.118 133.591 105.838 131.613 109.056C128.867 113.543 124.882 116.259 119.833 117.116C114.372 118.031 108.408 116.732 102.091 113.248L96.4518 119.773C96.4223 119.773 96.3633 119.802 96.2747 119.802ZM115.228 108.436C112.925 108.436 110.386 107.787 107.582 106.517C107.434 106.458 107.375 106.281 107.434 106.133C107.493 105.986 107.67 105.927 107.818 105.986C114.756 109.145 120.129 108.229 123.73 103.24C125.177 101.233 125.826 99.1071 125.649 96.7158C125.502 94.4426 124.586 91.638 122.992 88.361C122.933 88.2134 122.992 88.0363 123.14 87.9772C123.288 87.9182 123.465 87.9772 123.524 88.1248C125.177 91.4904 126.092 94.354 126.24 96.7158C126.417 99.1957 125.738 101.528 124.203 103.624C121.9 106.812 118.889 108.436 115.228 108.436ZM101.441 102.325L100.644 101.616C96.8061 98.1033 93.352 93.0846 90.3703 86.6487C90.3112 86.5011 90.3703 86.324 90.5179 86.2649C90.6655 86.2059 90.8426 86.2649 90.9017 86.4126C93.8244 92.7598 97.2489 97.7195 101.028 101.174L101.382 101.498L119.804 82.4566C116.025 75.9912 114.224 71.5334 114.283 68.8173C114.283 68.6402 114.431 68.5221 114.578 68.5221C114.756 68.5221 114.874 68.6697 114.874 68.8173C114.815 71.4153 116.675 75.9617 120.424 82.3385L120.542 82.5451L120.394 82.6928L101.441 102.325ZM143.54 80.5967C143.451 80.5967 143.363 80.5672 143.304 80.4786C141.148 77.5264 138.905 74.958 136.572 72.8324C136.454 72.7143 136.454 72.5371 136.543 72.419C136.661 72.3009 136.838 72.301 136.956 72.3895C139.318 74.5446 141.621 77.1426 143.776 80.1243C143.864 80.2424 143.835 80.4491 143.717 80.5376C143.658 80.5672 143.599 80.5967 143.54 80.5967ZM124.291 78.5597C124.203 78.5597 124.144 78.5301 124.085 78.4711C123.967 78.353 123.967 78.1759 124.085 78.0578L132.587 69.2602C132.705 69.1421 132.882 69.1421 133 69.2602C133.118 69.3783 133.118 69.5554 133 69.6735L124.498 78.4711C124.439 78.5301 124.38 78.5597 124.291 78.5597ZM138.993 70.323C138.934 70.323 138.846 70.2934 138.787 70.2639C138.669 70.1458 138.639 69.9687 138.757 69.8506L140.027 68.3745L136.956 65.5699L135.274 67.3117L135.067 67.1641C131.465 64.4776 128.218 62.8539 125.147 62.2044C125 62.1749 124.882 62.0272 124.911 61.8501C124.941 61.7025 125.118 61.5844 125.265 61.6139C128.336 62.2929 131.583 63.8871 135.185 66.5146L136.897 64.7433L140.794 68.3155L139.141 70.2344C139.17 70.2639 139.082 70.323 138.993 70.323Z" fill="#242021"/>
<path d="M313.095 164.758C328.047 142.51 328.451 116.6 313.998 106.887C299.545 97.1741 275.708 107.336 260.756 129.584C245.804 151.832 245.4 177.741 259.853 187.454C274.306 197.168 298.144 187.006 313.095 164.758Z" fill="#FFB808"/>
<path d="M272.509 191.419C267.726 191.419 263.357 190.179 259.637 187.67C245.083 177.898 245.437 151.741 260.464 129.393C275.491 107.044 299.551 96.8298 314.106 106.602C321.191 111.355 324.97 120.064 324.822 131.076C324.645 142.058 320.541 154.073 313.279 164.878C306.017 175.684 296.451 184.009 286.355 188.319C281.513 190.415 276.849 191.419 272.509 191.419ZM301.263 103.472C287.949 103.472 272.007 113.303 260.966 129.718C246.116 151.8 245.673 177.573 259.962 187.168C266.87 191.803 276.14 192.009 286.119 187.788C296.127 183.507 305.603 175.27 312.807 164.554C320.01 153.837 324.055 141.94 324.232 131.076C324.409 120.241 320.689 111.739 313.781 107.104C310.12 104.653 305.839 103.472 301.263 103.472Z" fill="#242021"/>
<path d="M259.824 187.437L248.133 179.585L257.639 177.725L259.824 187.437Z" fill="#EAA60F"/>
<path d="M313.964 106.87L302.273 99.0176L304.222 108.967L313.964 106.87Z" fill="#EAA60F"/>
<path d="M259.823 187.731C259.764 187.731 259.705 187.702 259.646 187.672L247.955 179.819C247.807 179.731 247.778 179.554 247.866 179.406C247.955 179.258 248.132 179.229 248.28 179.317L259.97 187.17C260.118 187.259 260.147 187.436 260.059 187.584C260 187.702 259.911 187.731 259.823 187.731Z" fill="#242021"/>
<mask id="mask2_1099_11240" style="mask-type:luminance" maskUnits="userSpaceOnUse" x="249" y="103" width="76" height="89">
<path d="M313.095 164.758C328.047 142.51 328.451 116.6 313.998 106.887C299.545 97.1741 275.708 107.336 260.756 129.584C245.804 151.832 245.4 177.741 259.853 187.454C274.306 197.168 298.144 187.006 313.095 164.758Z" fill="white"/>
</mask>
<g mask="url(#mask2_1099_11240)">
<path d="M277.442 196.119C277.383 196.119 277.324 196.089 277.265 196.059L250.99 178.405C250.842 178.317 250.813 178.14 250.901 177.992C250.99 177.844 251.167 177.815 251.315 177.903L277.589 195.558C277.737 195.646 277.767 195.823 277.678 195.971C277.619 196.059 277.53 196.119 277.442 196.119Z" fill="#242021"/>
<path d="M284.997 194.636C284.938 194.636 284.878 194.607 284.819 194.577L258.545 176.923C258.397 176.834 258.367 176.657 258.456 176.509C258.545 176.362 258.722 176.332 258.869 176.421L285.144 194.075C285.292 194.164 285.321 194.341 285.233 194.488C285.174 194.577 285.085 194.636 284.997 194.636Z" fill="#242021"/>
<path d="M292.551 193.136C292.492 193.136 292.433 193.107 292.374 193.077L266.099 175.423C265.952 175.334 265.922 175.157 266.011 175.009C266.099 174.862 266.276 174.832 266.424 174.921L292.699 192.575C292.846 192.664 292.876 192.841 292.787 192.988C292.728 193.107 292.64 193.136 292.551 193.136Z" fill="#242021"/>
<path d="M300.118 191.658C300.059 191.658 300 191.628 299.94 191.599L273.666 173.944C273.518 173.856 273.489 173.679 273.577 173.531C273.666 173.383 273.843 173.354 273.991 173.442L300.265 191.097C300.413 191.185 300.442 191.362 300.354 191.51C300.295 191.628 300.206 191.658 300.118 191.658Z" fill="#242021"/>
<path d="M307.668 190.187C307.609 190.187 307.55 190.157 307.491 190.128L281.217 172.474C281.069 172.385 281.039 172.208 281.128 172.06C281.217 171.913 281.394 171.883 281.541 171.972L307.816 189.626C307.964 189.715 307.993 189.892 307.905 190.039C307.875 190.128 307.757 190.187 307.668 190.187Z" fill="#242021"/>
<path d="M315.235 188.706C315.176 188.706 315.117 188.677 315.058 188.647L288.783 170.993C288.635 170.905 288.606 170.727 288.694 170.58C288.783 170.432 288.96 170.403 289.108 170.491L315.382 188.145C315.53 188.234 315.56 188.411 315.471 188.559C315.441 188.647 315.353 188.706 315.235 188.706Z" fill="#242021"/>
<path d="M318.356 184.04C318.297 184.04 318.238 184.011 318.179 183.981L291.904 166.327C291.756 166.239 291.727 166.061 291.815 165.914C291.904 165.766 292.081 165.737 292.229 165.825L318.504 183.479C318.651 183.568 318.681 183.745 318.592 183.893C318.533 184.011 318.444 184.04 318.356 184.04Z" fill="#242021"/>
<path d="M321.489 179.406C321.43 179.406 321.371 179.376 321.312 179.347L295.037 161.692C294.889 161.604 294.86 161.427 294.948 161.279C295.037 161.131 295.214 161.102 295.362 161.19L321.636 178.845C321.784 178.933 321.813 179.11 321.725 179.258C321.666 179.376 321.577 179.406 321.489 179.406Z" fill="#242021"/>
<path d="M324.586 174.769C324.527 174.769 324.468 174.739 324.409 174.71L298.134 157.056C297.987 156.967 297.957 156.79 298.046 156.642C298.134 156.495 298.312 156.465 298.459 156.554L324.734 174.208C324.882 174.297 324.911 174.474 324.823 174.621C324.793 174.71 324.675 174.769 324.586 174.769Z" fill="#242021"/>
<path d="M327.719 170.136C327.66 170.136 327.601 170.107 327.542 170.077L301.267 152.423C301.12 152.334 301.09 152.157 301.179 152.009C301.267 151.862 301.444 151.832 301.592 151.921L327.867 169.575C328.014 169.664 328.044 169.841 327.955 169.988C327.896 170.077 327.808 170.136 327.719 170.136Z" fill="#242021"/>
<path d="M330.84 165.503C330.781 165.503 330.722 165.474 330.663 165.444L304.388 147.79C304.241 147.701 304.211 147.524 304.3 147.377C304.388 147.229 304.565 147.2 304.713 147.288L330.988 164.942C331.135 165.031 331.165 165.208 331.076 165.356C331.017 165.444 330.929 165.503 330.84 165.503Z" fill="#242021"/>
<path d="M333.938 160.835C333.879 160.835 333.82 160.806 333.761 160.776L307.486 143.122C307.338 143.033 307.309 142.856 307.397 142.709C307.486 142.561 307.663 142.532 307.811 142.62L334.085 160.274C334.233 160.363 334.263 160.54 334.174 160.688C334.145 160.806 334.026 160.835 333.938 160.835Z" fill="#242021"/>
<path d="M334.539 154.517C334.48 154.517 334.421 154.487 334.362 154.458L308.088 136.804C307.94 136.715 307.91 136.538 307.999 136.39C308.088 136.243 308.265 136.213 308.412 136.302L334.687 153.956C334.835 154.045 334.864 154.222 334.776 154.369C334.717 154.458 334.628 154.517 334.539 154.517Z" fill="#242021"/>
<path d="M335.129 148.169C335.07 148.169 335.011 148.14 334.952 148.11L308.677 130.456C308.53 130.367 308.5 130.19 308.589 130.043C308.677 129.895 308.855 129.866 309.002 129.954L335.277 147.608C335.425 147.697 335.454 147.874 335.365 148.022C335.306 148.14 335.218 148.169 335.129 148.169Z" fill="#242021"/>
<path d="M335.723 141.853C335.664 141.853 335.605 141.823 335.546 141.794L309.271 124.14C309.124 124.051 309.094 123.874 309.183 123.726C309.271 123.579 309.448 123.549 309.596 123.638L335.871 141.292C336.018 141.381 336.048 141.558 335.959 141.705C335.9 141.794 335.812 141.853 335.723 141.853Z" fill="#242021"/>
<path d="M336.313 135.509C336.254 135.509 336.195 135.48 336.136 135.45L309.861 117.796C309.713 117.707 309.684 117.53 309.772 117.383C309.861 117.235 310.038 117.205 310.186 117.294L336.46 134.948C336.608 135.037 336.638 135.214 336.549 135.362C336.49 135.48 336.401 135.509 336.313 135.509Z" fill="#242021"/>
<path d="M336.903 129.189C336.844 129.189 336.785 129.159 336.726 129.13L310.451 111.476C310.303 111.387 310.274 111.21 310.362 111.062C310.451 110.915 310.628 110.885 310.776 110.974L337.05 128.628C337.198 128.716 337.227 128.894 337.139 129.041C337.08 129.13 336.991 129.189 336.903 129.189Z" fill="#242021"/>
<path d="M330.965 120.538C330.906 120.538 330.847 120.509 330.788 120.479L304.513 102.825C304.366 102.737 304.336 102.559 304.425 102.412C304.513 102.264 304.691 102.235 304.838 102.323L331.113 119.978C331.261 120.066 331.29 120.243 331.201 120.391C331.172 120.479 331.083 120.538 330.965 120.538Z" fill="#242021"/>
</g>
<path d="M313.963 107.163C313.904 107.163 313.845 107.133 313.786 107.104L302.095 99.2509C301.948 99.1624 301.918 98.9852 302.007 98.8376C302.095 98.69 302.273 98.6605 302.42 98.749L314.111 106.602C314.259 106.691 314.288 106.868 314.2 107.015C314.14 107.104 314.052 107.163 313.963 107.163Z" fill="#242021"/>
<path d="M301.408 156.912C316.36 134.664 316.764 108.755 302.311 99.0415C287.858 89.3284 264.02 99.4899 249.069 121.738C234.117 143.986 233.713 169.896 248.166 179.609C262.619 189.322 286.456 179.16 301.408 156.912Z" fill="white"/>
<path d="M260.847 183.567C256.035 183.567 251.636 182.327 247.946 179.848C233.391 170.076 233.746 143.919 248.772 121.571C256.035 110.766 265.6 102.44 275.697 98.1303C285.852 93.7905 295.329 94.0267 302.414 98.7798C307.079 101.909 310.385 106.898 312.009 113.157C313.574 119.209 313.485 126.353 311.832 133.793C311.802 133.941 311.625 134.059 311.478 134.029C311.33 134 311.212 133.823 311.241 133.675C312.895 126.324 312.954 119.268 311.418 113.305C309.854 107.194 306.606 102.322 302.089 99.2816C295.181 94.6466 285.911 94.44 275.933 98.6617C265.925 102.942 256.448 111.179 249.245 121.896C234.395 143.978 233.952 169.751 248.241 179.346C254.382 183.479 262.589 184.099 271.386 181.088C280.125 178.106 288.893 171.788 296.126 163.256C296.244 163.138 296.421 163.109 296.539 163.227C296.657 163.345 296.687 163.522 296.569 163.64C289.277 172.26 280.42 178.637 271.564 181.648C267.903 182.918 264.272 183.567 260.847 183.567Z" fill="#242021"/>
<path d="M263.125 172.613C259.523 172.613 256.128 171.698 253.265 169.75C242.076 162.222 242.341 142.117 253.885 124.965C253.973 124.817 254.15 124.788 254.298 124.876C254.446 124.965 254.475 125.142 254.387 125.289C243.02 142.206 242.666 161.926 253.619 169.248C256.424 171.137 259.671 172.023 263.184 172.023C273.369 172.023 285.591 164.495 294.035 151.918C299.555 143.711 302.655 134.618 302.803 126.293C302.921 118.027 300.087 111.503 294.832 107.96C294.684 107.871 294.655 107.694 294.743 107.547C294.832 107.399 295.009 107.369 295.157 107.458C300.589 111.119 303.541 117.82 303.393 126.293C303.275 134.737 300.116 143.947 294.537 152.243C285.946 165.026 273.546 172.613 263.125 172.613Z" fill="#242021"/>
<path d="M267.132 132.169C270.173 129.63 272.8 128.006 274.985 127.357C277.288 126.678 279.443 126.737 281.48 127.593C284.226 128.774 286.144 130.752 287.089 133.645C288.093 136.686 287.857 140.287 286.322 144.302L290.72 147.077L287.916 151.24L284.137 148.553L283.96 148.819C281.214 152.923 278.114 155.875 274.778 157.646L272.003 153.188C275.428 150.945 278.055 148.494 279.768 145.955L280.033 145.572L267.132 136.361C263.678 139.165 261.198 140.612 259.663 140.789C258.187 140.966 257.036 140.612 256.179 139.785C255.028 138.664 254.556 137.128 254.674 135.209C254.792 133.35 255.471 131.283 256.711 128.951L255.56 128.124L257.095 125.821L258.217 126.53C259.456 124.7 260.844 122.958 262.438 121.334L263.796 122.987C262.261 124.522 260.962 126.028 259.929 127.593L267.132 132.169ZM264.328 134.383L258.482 130.191C257.183 132.995 257.183 134.973 258.541 136.154C259.604 137.099 261.523 136.538 264.328 134.383ZM282.011 141.586C283.31 137.128 282.189 134.058 278.941 132.375C277.613 131.696 276.255 131.49 274.867 131.814C273.539 132.11 271.944 132.877 270.173 134.117L282.011 141.586Z" fill="#FFB808"/>
<path d="M272.043 153.514C271.954 153.514 271.866 153.455 271.806 153.367C271.718 153.219 271.747 153.042 271.895 152.953C275.32 150.71 277.888 148.318 279.571 145.809L279.659 145.661L267.172 136.746C263.776 139.491 261.326 140.908 259.732 141.115C259.555 141.144 259.437 141.026 259.407 140.849C259.378 140.702 259.496 140.554 259.673 140.525C261.149 140.347 263.629 138.871 266.994 136.155L267.172 136.008L280.486 145.514L280.073 146.134C278.36 148.702 275.733 151.153 272.249 153.426C272.161 153.514 272.102 153.514 272.043 153.514ZM290.73 147.403C290.671 147.403 290.612 147.403 290.583 147.344L285.977 144.421L286.066 144.185C287.571 140.259 287.808 136.746 286.833 133.705C285.948 130.989 284.117 129.011 281.372 127.86C279.423 127.033 277.357 126.944 275.083 127.623C274.936 127.682 274.759 127.594 274.729 127.417C274.67 127.269 274.759 127.092 274.936 127.062C277.327 126.354 279.571 126.442 281.637 127.328C284.531 128.568 286.479 130.635 287.424 133.557C288.428 136.657 288.221 140.229 286.745 144.185L290.937 146.842C291.084 146.931 291.114 147.108 291.025 147.256C290.937 147.344 290.819 147.403 290.73 147.403ZM282.021 141.883C281.992 141.883 281.962 141.883 281.933 141.883C281.785 141.823 281.696 141.676 281.726 141.528C282.936 137.277 281.962 134.295 278.803 132.672C277.534 132.022 276.264 131.845 274.936 132.14C273.637 132.435 272.102 133.174 270.36 134.384C270.212 134.472 270.035 134.443 269.947 134.295C269.858 134.148 269.888 133.971 270.035 133.882C271.866 132.613 273.46 131.845 274.847 131.55C276.294 131.225 277.74 131.432 279.128 132.14C282.523 133.882 283.615 137.189 282.346 141.705C282.257 141.794 282.139 141.883 282.021 141.883ZM254.713 135.535C254.536 135.535 254.418 135.388 254.418 135.211C254.536 133.38 255.186 131.343 256.366 129.07L255.186 128.214L257.045 125.439L258.403 126.295C258.551 126.383 258.581 126.561 258.492 126.708C258.403 126.856 258.226 126.885 258.079 126.797L257.193 126.236L255.953 128.066L257.104 128.893L256.986 129.129C255.746 131.432 255.097 133.469 254.979 135.27C255.008 135.417 254.861 135.535 254.713 135.535ZM264.337 134.679C264.278 134.679 264.219 134.65 264.16 134.62L258.315 130.428C258.197 130.339 258.138 130.162 258.256 130.015C258.344 129.897 258.522 129.838 258.669 129.956L264.515 134.148C264.633 134.236 264.692 134.413 264.574 134.561C264.515 134.65 264.426 134.679 264.337 134.679ZM259.968 127.948C259.909 127.948 259.85 127.919 259.791 127.889C259.643 127.8 259.614 127.623 259.702 127.476C260.765 125.911 262.064 124.346 263.629 122.811C263.747 122.693 263.924 122.693 264.042 122.811C264.16 122.929 264.16 123.106 264.042 123.225C262.537 124.73 261.238 126.265 260.204 127.771C260.145 127.889 260.057 127.948 259.968 127.948Z" fill="#242021"/>
</svg>
