<svg width="242" height="242" viewBox="0 0 242 242" fill="none" xmlns="http://www.w3.org/2000/svg">
<path d="M151.327 82.8848H89.9094C86.0371 82.8848 82.8867 86.0352 82.8867 89.9075V151.325C82.8867 155.197 86.0371 158.348 89.9094 158.348H151.327C155.199 158.348 158.35 155.197 158.35 151.325V89.9075C158.35 86.0352 155.199 82.8848 151.327 82.8848ZM156.212 151.325C156.212 154.019 154.02 156.21 151.327 156.21H89.9094C87.216 156.21 85.0247 154.019 85.0247 151.325V89.9075C85.0247 87.2141 87.216 85.0228 89.9094 85.0228H151.327C154.02 85.0228 156.212 87.2141 156.212 89.9075V151.325Z" fill="url(#paint0_linear_790_2321)"/>
<path d="M111.479 104.033L99.6406 137.198H106.889L109.138 130.38H121.351L123.539 137.198H131.054L119.32 104.033H111.479ZM111.022 124.665L115.326 111.616L119.516 124.665H111.022Z" fill="url(#paint1_linear_790_2321)"/>
<path d="M141.596 104.033H134.711V137.198H141.596V104.033Z" fill="url(#paint2_linear_790_2321)"/>
<path d="M233.883 113.103C230.066 113.103 226.929 116.015 226.57 119.738H178.987V117.897C178.987 117.473 178.643 117.128 178.219 117.128H172.601V113.094H178.219C178.643 113.094 178.987 112.75 178.987 112.326V110.705H203.89C204.243 113.788 206.869 116.19 210.046 116.19C213.462 116.19 216.243 113.41 216.243 109.992C216.243 106.574 213.462 103.795 210.046 103.795C206.869 103.795 204.243 106.198 203.89 109.28H178.987V107.438C178.987 107.014 178.643 106.67 178.219 106.67H172.601V102.636H178.219C178.643 102.636 178.987 102.292 178.987 101.867V100.247H194.947L205.721 89.4724H218.599C218.945 91.5052 220.713 93.0532 222.845 93.0532C225.224 93.0532 227.153 91.1242 227.153 88.7445C227.153 86.3649 225.224 84.4359 222.845 84.4359C220.703 84.4359 218.927 85.9993 218.593 88.0471H205.131L194.356 98.8214H178.987V96.9801C178.987 96.5558 178.643 96.2117 178.219 96.2117H172.601V92.1773H178.219C178.643 92.1773 178.987 91.8332 178.987 91.4089V89.6455H188.552L201.859 76.3386V67.9862C204.961 67.6526 207.387 65.0172 207.387 61.8258C207.387 58.4078 204.607 55.6271 201.19 55.6271C197.773 55.6271 194.993 58.4078 194.993 61.8258C194.993 64.9858 197.371 67.6028 200.433 67.9762V75.7485L187.96 88.2201H178.987V86.5217C178.987 86.0973 178.643 85.7533 178.218 85.7533H172.6C172.557 76.3307 164.9 68.674 155.477 68.6311V63.0122C155.477 62.5879 155.133 62.2438 154.709 62.2438H153.011V53.2706L165.482 40.7975H173.255C173.628 43.8591 176.245 46.238 179.405 46.238C182.823 46.238 185.604 43.4586 185.604 40.0406C185.604 36.6226 182.823 33.8432 179.405 33.8432C176.214 33.8432 173.578 36.2691 173.245 39.372H164.892L151.585 52.679V62.2436H149.822C149.398 62.2436 149.054 62.5876 149.054 63.012V68.6299H145.019V63.012C145.019 62.5877 144.675 62.2436 144.251 62.2436H142.409V46.8743L153.184 36.1V22.6374C155.232 22.304 156.795 20.5279 156.795 18.3858C156.795 16.0063 154.866 14.0772 152.486 14.0772C150.107 14.0772 148.178 16.0062 148.178 18.3858C148.178 20.5172 149.726 22.286 151.758 22.632V35.5094L140.984 46.2838V62.2435H139.364C138.939 62.2435 138.595 62.5875 138.595 63.0119V68.6298H134.561V63.0119C134.561 62.5876 134.217 62.2435 133.792 62.2435H131.951V37.3408C135.033 36.9873 137.436 34.3619 137.436 31.1848C137.436 27.7683 134.655 24.9874 131.238 24.9874C127.822 24.9874 125.041 27.7682 125.041 31.1848C125.041 34.3619 127.443 36.9873 130.526 37.3408V62.2435H128.905C128.481 62.2435 128.137 62.5875 128.137 63.0119V68.6298H124.102V63.0119C124.102 62.5876 123.758 62.2435 123.334 62.2435H121.493V14.6601C125.216 14.3016 128.128 11.165 128.128 7.34756C128.128 3.28969 124.838 0 120.78 0C116.722 0 113.432 3.28958 113.432 7.34756C113.432 11.165 116.344 14.3015 120.067 14.6601V62.2435H118.447C118.023 62.2435 117.678 62.5875 117.678 63.0119V68.6298H113.644V63.0119C113.644 62.5876 113.3 62.2435 112.876 62.2435H111.255V37.3408C114.338 36.9873 116.74 34.3619 116.74 31.1848C116.74 27.7683 113.96 24.9874 110.542 24.9874C107.124 24.9874 104.345 27.7682 104.345 31.1848C104.345 34.3619 106.747 36.9873 109.83 37.3408V62.2435H107.988C107.564 62.2435 107.22 62.5875 107.22 63.0119V68.6298H103.186V63.0119C103.186 62.5876 102.842 62.2435 102.417 62.2435H100.797V46.2838L90.0225 35.5094V23.0075C92.163 22.7564 93.824 20.9375 93.824 18.7296C93.824 16.35 91.895 14.4209 89.5153 14.4209C87.1357 14.4209 85.2066 16.3499 85.2066 18.7296C85.2066 20.7939 86.6588 22.5183 88.597 22.9392V36.0999L99.3712 46.8742V62.2435H97.53C97.1056 62.2435 96.7616 62.5875 96.7616 63.0119V68.6298H92.7271V63.0119C92.7271 62.5876 92.3832 62.2435 91.9587 62.2435H90.1954V52.6789L76.8886 39.3719H67.9802C67.6267 36.2904 65.0013 33.8873 61.8242 33.8873C58.4062 33.8873 55.6269 36.6681 55.6269 40.0847C55.6269 43.5013 58.4062 46.282 61.8242 46.282C65.0013 46.282 67.6267 43.8804 67.9802 40.7974H76.2984L88.77 53.2705V62.2437H87.0716C86.6473 62.2437 86.3032 62.5877 86.3032 63.0121V68.63H85.8323C76.3733 68.63 68.6738 76.3041 68.6309 85.7533H63.012C62.5877 85.7533 62.2436 86.0973 62.2436 86.5217V88.2201H53.2705L40.7974 75.7485V67.9762C43.859 67.6028 46.2379 64.9858 46.2379 61.8258C46.2379 58.4078 43.4585 55.6271 40.0405 55.6271C36.6225 55.6271 33.8431 58.4078 33.8431 61.8258C33.8431 65.0171 36.269 67.6526 39.3719 67.9862V76.3386L52.6789 89.6455H62.2435V91.4089C62.2435 91.8332 62.5875 92.1773 63.0119 92.1773H68.6298V96.2117H63.0119C62.5876 96.2117 62.2435 96.5558 62.2435 96.9801V98.8214H46.8742L36.0999 88.0471H22.6373C22.3039 85.9993 20.5278 84.4359 18.3857 84.4359C16.0062 84.4359 14.0771 86.3649 14.0771 88.7445C14.0771 91.1242 16.0061 93.0532 18.3857 93.0532C20.5171 93.0532 22.2859 91.5052 22.632 89.4724H35.5094L46.2838 100.247H62.2435V101.867C62.2435 102.292 62.5875 102.636 63.0119 102.636H68.6298V106.67H63.0119C62.5876 106.67 62.2435 107.014 62.2435 107.438V109.28H37.3408C36.9873 106.198 34.3619 103.795 31.1848 103.795C27.7684 103.795 24.9875 106.576 24.9875 109.992C24.9875 113.409 27.7682 116.19 31.1848 116.19C34.3619 116.19 36.9873 113.788 37.3408 110.705H62.2435V112.326C62.2435 112.75 62.5875 113.094 63.0119 113.094H68.6298V117.128H63.0119C62.5876 117.128 62.2435 117.473 62.2435 117.897V119.738H14.6601C14.3016 116.015 11.165 113.103 7.34756 113.103C3.28969 113.103 0 116.393 0 120.451C0 124.509 3.28958 127.798 7.34756 127.798C11.165 127.798 14.3015 124.887 14.6601 121.164H62.2435V122.784C62.2435 123.208 62.5875 123.552 63.0119 123.552H68.6298V127.587H63.0119C62.5876 127.587 62.2435 127.931 62.2435 128.355V129.976H37.3408C36.9873 126.893 34.3619 124.491 31.1848 124.491C27.7684 124.491 24.9875 127.271 24.9875 130.688C24.9875 134.106 27.7682 136.886 31.1848 136.886C34.3619 136.886 36.9873 134.484 37.3408 131.401H62.2435V133.242C62.2435 133.667 62.5875 134.011 63.0119 134.011H68.6298V138.045H63.0119C62.5876 138.045 62.2435 138.389 62.2435 138.814V140.434H46.2838L35.5094 151.208H23.0075C22.7564 149.068 20.9375 147.407 18.7296 147.407C16.35 147.407 14.4209 149.336 14.4209 151.715C14.4209 154.095 16.3499 156.024 18.7296 156.024C20.7939 156.024 22.5183 154.572 22.9392 152.634H36.0999L46.8742 141.86H62.2435V143.701C62.2435 144.125 62.5875 144.469 63.0119 144.469H68.6298V148.504H63.0119C62.5876 148.504 62.2435 148.848 62.2435 149.272V151.035H52.6789L39.3719 164.342V173.251C36.2904 173.604 33.8873 176.23 33.8873 179.407C33.8873 182.824 36.6681 185.604 40.0847 185.604C43.5013 185.604 46.2821 182.824 46.2821 179.407C46.2821 176.23 43.8804 173.604 40.7974 173.251V164.932L53.2705 152.461H62.2436V154.159C62.2436 154.583 62.5876 154.928 63.012 154.928H68.6299V155.398C68.6299 164.884 76.3469 172.601 85.8323 172.601H86.3032V178.219C86.3032 178.643 86.6473 178.987 87.0716 178.987H88.77V187.96L76.2984 200.433H67.9802C67.6267 197.35 65.0013 194.949 61.8242 194.949C58.4062 194.949 55.6269 197.728 55.6269 201.146C55.6269 204.564 58.4062 207.343 61.8242 207.343C65.0013 207.343 67.6267 204.94 67.9802 201.859H76.8886L90.1954 188.552V178.987H91.9587C92.383 178.987 92.7271 178.643 92.7271 178.219V172.601H96.7616V178.219C96.7616 178.643 97.1055 178.987 97.53 178.987H99.3712V194.357L88.597 205.131V218.292C86.6588 218.712 85.2066 220.437 85.2066 222.501C85.2066 224.881 87.1357 226.81 89.5153 226.81C91.895 226.81 93.824 224.881 93.824 222.501C93.824 220.293 92.1629 218.474 90.0225 218.223V205.721L100.797 194.947V178.987H102.417C102.841 178.987 103.186 178.643 103.186 178.219V172.601H107.22V178.219C107.22 178.643 107.564 178.987 107.988 178.987H109.83V203.89C106.747 204.243 104.345 206.869 104.345 210.046C104.345 213.462 107.124 216.243 110.542 216.243C113.96 216.243 116.74 213.462 116.74 210.046C116.74 206.869 114.338 204.243 111.255 203.89V178.987H112.876C113.3 178.987 113.644 178.643 113.644 178.219V172.601H117.678V178.219C117.678 178.643 118.023 178.987 118.447 178.987H120.067V226.571C116.344 226.929 113.432 230.066 113.432 233.883C113.432 237.941 116.722 241.231 120.78 241.231C124.838 241.231 128.128 237.941 128.128 233.883C128.128 230.066 125.216 226.929 121.493 226.571V178.987H123.334C123.758 178.987 124.102 178.643 124.102 178.219V172.601H128.137V178.219C128.137 178.643 128.481 178.987 128.905 178.987H130.526V203.89C127.443 204.243 125.041 206.869 125.041 210.046C125.041 213.462 127.82 216.243 131.238 216.243C134.656 216.243 137.436 213.462 137.436 210.046C137.436 206.869 135.033 204.243 131.951 203.89V178.987H133.792C134.217 178.987 134.561 178.643 134.561 178.219V172.601H138.595V178.219C138.595 178.643 138.939 178.987 139.364 178.987H140.984V194.947L151.758 205.721V218.599C149.726 218.945 148.178 220.714 148.178 222.845C148.178 225.224 150.107 227.154 152.486 227.154C154.866 227.154 156.795 225.225 156.795 222.845C156.795 220.703 155.232 218.927 153.184 218.593V205.131L142.409 194.356V178.987H144.251C144.675 178.987 145.019 178.643 145.019 178.219V172.601H149.054V178.219C149.054 178.643 149.398 178.987 149.822 178.987H151.585V188.552L164.892 201.859H173.245C173.578 204.962 176.214 207.387 179.405 207.387C182.823 207.387 185.604 204.607 185.604 201.19C185.604 197.774 182.823 194.993 179.405 194.993C176.245 194.993 173.628 197.372 173.255 200.433H165.482L153.011 187.96V178.987H154.709C155.133 178.987 155.477 178.643 155.477 178.219V172.6C164.926 172.557 172.601 164.857 172.601 155.398V154.927H178.219C178.643 154.927 178.987 154.583 178.987 154.159V152.461H187.96L200.433 164.932V173.25C197.35 173.604 194.948 176.229 194.948 179.407C194.948 182.824 197.728 185.604 201.146 185.604C204.564 185.604 207.343 182.824 207.343 179.407C207.343 176.229 204.94 173.604 201.859 173.25V164.342L188.552 151.035H178.987V149.272C178.987 148.848 178.643 148.504 178.219 148.504H172.601V144.469H178.219C178.643 144.469 178.987 144.125 178.987 143.701V141.859H194.356L205.131 152.634H218.291C218.712 154.572 220.437 156.024 222.501 156.024C224.881 156.024 226.81 154.095 226.81 151.715C226.81 149.336 224.881 147.407 222.501 147.407C220.293 147.407 218.474 149.068 218.223 151.208H205.721L194.947 140.434H178.987V138.814C178.987 138.389 178.643 138.045 178.219 138.045H172.601V134.011H178.219C178.643 134.011 178.987 133.667 178.987 133.242V131.401H203.89C204.243 134.484 206.869 136.886 210.046 136.886C213.462 136.886 216.243 134.106 216.243 130.688C216.243 127.27 213.462 124.491 210.046 124.491C206.869 124.491 204.243 126.893 203.89 129.976H178.987V128.355C178.987 127.931 178.643 127.587 178.219 127.587H172.601V123.552H178.219C178.643 123.552 178.987 123.208 178.987 122.784V121.164H226.57C226.929 124.887 230.066 127.798 233.883 127.798C237.941 127.798 241.231 124.509 241.231 120.451C241.231 116.393 237.941 113.103 233.883 113.103ZM205.328 109.28C205.671 106.985 207.655 105.22 210.046 105.22C212.677 105.22 214.818 107.361 214.818 109.992C214.818 112.624 212.677 114.764 210.046 114.764C207.655 114.764 205.671 113 205.328 110.705C205.292 110.473 205.274 110.235 205.274 109.992C205.274 109.75 205.292 109.512 205.328 109.28ZM196.418 61.8263C196.418 59.1937 198.559 57.0529 201.19 57.0529C203.821 57.0529 205.962 59.1937 205.962 61.8263C205.962 64.2308 204.175 66.2249 201.859 66.5512C201.641 66.5826 201.417 66.5983 201.19 66.5983C200.932 66.5983 200.68 66.5783 200.433 66.5384C198.16 66.175 196.418 64.1995 196.418 61.8263ZM174.68 39.3728C175.007 37.0566 177.001 35.2692 179.405 35.2692C182.038 35.2692 184.179 37.41 184.179 40.0413C184.179 42.6725 182.038 44.8133 179.405 44.8133C177.032 44.8133 175.057 43.0716 174.693 40.7982C174.653 40.5516 174.633 40.2992 174.633 40.0414C174.633 39.8147 174.649 39.5908 174.68 39.3728ZM126.467 31.1857C126.467 28.5546 128.608 26.4137 131.239 26.4137C133.87 26.4137 136.011 28.5545 136.011 31.1857C136.011 33.576 134.246 35.56 131.952 35.9035C131.719 35.9392 131.481 35.9577 131.239 35.9577C130.997 35.9577 130.759 35.9392 130.526 35.9035C128.232 35.56 126.467 33.576 126.467 31.1857ZM105.771 31.1857C105.771 28.5546 107.912 26.4137 110.543 26.4137C113.174 26.4137 115.315 28.5545 115.315 31.1857C115.315 33.576 113.551 35.56 111.256 35.9035C111.024 35.9392 110.786 35.9577 110.543 35.9577C110.301 35.9577 110.063 35.9392 109.831 35.9035C107.536 35.56 105.771 33.576 105.771 31.1857ZM66.5433 40.7982C66.1997 43.0929 64.2143 44.8575 61.8254 44.8575C59.1942 44.8575 57.0534 42.7167 57.0534 40.0855C57.0534 37.4543 59.1942 35.3135 61.8254 35.3135C64.2142 35.3135 66.1997 37.0781 66.5433 39.3729C66.5789 39.6052 66.5974 39.8432 66.5974 40.0855C66.5974 40.3278 66.5788 40.5658 66.5433 40.7982ZM39.3733 66.5513C37.0572 66.2249 35.2698 64.2309 35.2698 61.8264C35.2698 59.1938 37.4106 57.053 40.0418 57.053C42.673 57.053 44.8138 59.1938 44.8138 61.8264C44.8138 64.1996 43.0721 66.175 40.7987 66.5385C40.5521 66.5784 40.2998 66.5984 40.0419 66.5984C39.8153 66.5984 39.5914 66.5827 39.3733 66.5513ZM35.9041 110.705C35.5606 113 33.5765 114.765 31.1862 114.765C28.5551 114.765 26.4142 112.624 26.4142 109.993C26.4142 107.361 28.555 105.221 31.1862 105.221C33.5765 105.221 35.5606 106.985 35.9041 109.28C35.9398 109.512 35.9582 109.75 35.9582 109.993C35.9582 110.235 35.9398 110.473 35.9041 110.705ZM35.9041 131.401C35.5606 133.696 33.5765 135.46 31.1862 135.46C28.5551 135.46 26.4142 133.319 26.4142 130.688C26.4142 128.057 28.555 125.916 31.1862 125.916C33.5765 125.916 35.5606 127.681 35.9041 129.976C35.9398 130.208 35.9582 130.446 35.9582 130.688C35.9582 130.931 35.9398 131.169 35.9041 131.401ZM44.858 179.406C44.858 182.037 42.7172 184.178 40.086 184.178C37.4547 184.178 35.314 182.037 35.314 179.406C35.314 177.017 37.0785 175.032 39.3733 174.688C39.6056 174.653 39.8436 174.634 40.086 174.634C40.3283 174.634 40.5663 174.653 40.7986 174.688C43.0934 175.032 44.858 177.017 44.858 179.406ZM66.5433 201.858C66.1997 204.153 64.2143 205.918 61.8254 205.918C59.1942 205.918 57.0534 203.777 57.0534 201.146C57.0534 198.514 59.1942 196.374 61.8254 196.374C64.2142 196.374 66.1997 198.138 66.5433 200.433C66.5789 200.665 66.5974 200.903 66.5974 201.146C66.5974 201.388 66.5788 201.626 66.5433 201.858ZM115.315 210.045C115.315 212.676 113.174 214.817 110.543 214.817C107.912 214.817 105.771 212.676 105.771 210.045C105.771 207.655 107.536 205.671 109.831 205.327C110.063 205.292 110.301 205.273 110.543 205.273C110.786 205.273 111.024 205.292 111.256 205.327C113.551 205.671 115.315 207.655 115.315 210.045ZM136.011 210.045C136.011 212.676 133.87 214.817 131.239 214.817C128.608 214.817 126.467 212.676 126.467 210.045C126.467 207.655 128.232 205.671 130.526 205.327C130.759 205.292 130.997 205.273 131.239 205.273C131.481 205.273 131.719 205.292 131.952 205.327C134.246 205.671 136.011 207.655 136.011 210.045ZM174.693 200.433C175.056 198.159 177.032 196.418 179.405 196.418C182.038 196.418 184.179 198.558 184.179 201.19C184.179 203.821 182.038 205.962 179.405 205.962C177.001 205.962 175.007 204.174 174.68 201.858C174.649 201.64 174.633 201.416 174.633 201.19C174.633 200.932 174.653 200.679 174.693 200.433ZM201.859 174.688C204.153 175.032 205.918 177.017 205.918 179.406C205.918 182.037 203.777 184.178 201.146 184.178C198.515 184.178 196.374 182.037 196.374 179.406C196.374 177.017 198.139 175.032 200.433 174.688C200.666 174.653 200.904 174.634 201.146 174.634C201.388 174.634 201.626 174.653 201.859 174.688ZM205.328 129.976C205.671 127.681 207.655 125.916 210.046 125.916C212.677 125.916 214.818 128.057 214.818 130.688C214.818 133.319 212.677 135.46 210.046 135.46C207.655 135.46 205.671 133.696 205.328 131.401C205.292 131.169 205.274 130.931 205.274 130.688C205.274 130.446 205.292 130.208 205.328 129.976ZM170.463 155.398C170.463 163.704 163.705 170.462 155.398 170.462H85.8334C77.527 170.462 70.7691 163.705 70.7691 155.398V85.8331C70.7691 77.5266 77.527 70.7688 85.8334 70.7688H155.398C163.705 70.7688 170.463 77.5266 170.463 85.8332V155.398Z" fill="url(#paint3_linear_790_2321)"/>
<defs>
<linearGradient id="paint0_linear_790_2321" x1="119.584" y1="70.8939" x2="119.584" y2="172.495" gradientUnits="userSpaceOnUse">
<stop stop-color="#C6E4B5"/>
<stop offset="0.504808" stop-color="#5D8049"/>
<stop offset="1" stop-color="#C6E4B5"/>
</linearGradient>
<linearGradient id="paint1_linear_790_2321" x1="114.917" y1="98.7635" x2="114.917" y2="143.415" gradientUnits="userSpaceOnUse">
<stop stop-color="#C6E4B5"/>
<stop offset="0.504808" stop-color="#5D8049"/>
<stop offset="1" stop-color="#C6E4B5"/>
</linearGradient>
<linearGradient id="paint2_linear_790_2321" x1="138.059" y1="98.7635" x2="138.059" y2="143.415" gradientUnits="userSpaceOnUse">
<stop stop-color="#C6E4B5"/>
<stop offset="0.504808" stop-color="#5D8049"/>
<stop offset="1" stop-color="#C6E4B5"/>
</linearGradient>
<linearGradient id="paint3_linear_790_2321" x1="117.31" y1="-38.3308" x2="117.31" y2="286.454" gradientUnits="userSpaceOnUse">
<stop stop-color="#C6E4B5"/>
<stop offset="0.504808" stop-color="#5D8049"/>
<stop offset="1" stop-color="#C6E4B5"/>
</linearGradient>
</defs>
</svg>
