<svg version="1.2" xmlns="http://www.w3.org/2000/svg" viewBox="0 0 145 131" width="145" height="131">
	<defs>
		<linearGradient id="g1" x2="1" gradientUnits="userSpaceOnUse" gradientTransform="matrix(0,116.862,-132.104,0,72.288,16.566)">
			<stop offset="0" stop-color="#5dad46"/>
			<stop offset="1" stop-color="#26471d"/>
		</linearGradient>
	</defs>
	<style>
		.s0 { opacity: .3;fill: url(#g1) } 
	</style>
	<path class="s0" d="m151.02 137.77h-6.56v-131.21c0-1.74-0.7-3.41-1.93-4.64-1.23-1.23-2.9-1.92-4.64-1.92h-45.92c-1.74 0-3.41 0.69-4.64 1.92-1.23 1.23-1.92 2.9-1.92 4.64v32.8h-39.36c-1.74 0-3.41 0.7-4.64 1.93-1.23 1.23-1.92 2.89-1.92 4.63v32.81h-32.81c-1.74 0-3.41 0.69-4.64 1.92-1.23 1.23-1.92 2.9-1.92 4.64v52.48h-6.56c-1.74 0-3.41 0.69-4.64 1.92-1.23 1.24-1.92 2.9-1.92 4.64 0 1.74 0.69 3.41 1.92 4.64 1.23 1.23 2.9 1.93 4.64 1.93h157.46c1.74 0 3.4-0.7 4.63-1.93 1.23-1.23 1.93-2.9 1.93-4.64 0-1.74-0.7-3.4-1.93-4.64-1.23-1.23-2.89-1.92-4.63-1.92zm-52.49-124.65h32.8v124.65h-32.8zm-45.92 39.37h32.8v85.28h-32.8zm-39.37 39.37h26.25v45.92h-26.25z"/>
</svg>