<svg width="337" height="212" viewBox="0 0 337 212" fill="none" xmlns="http://www.w3.org/2000/svg">
<g opacity="0.1">
<path d="M111.167 279.645C112.741 281.761 115.481 282.683 118.032 281.951C120.528 281.245 122.536 279.02 122.536 276.334C122.536 274.734 121.722 273.133 121.26 271.532C121.64 271.885 121.993 272.265 122.4 272.563C124.571 274.164 127.555 274.218 129.753 272.699C132.032 271.125 133.008 268.249 132.195 265.617C131.381 262.986 128.939 261.195 126.171 261.168C123.431 261.168 121.07 262.823 120.175 265.427C119.497 267.408 119.85 269.28 120.826 271.044C117.896 269.117 114.912 268.9 111.9 270.881C114.233 268.439 114.939 265.4 113.311 262.904C112.47 261.602 111.086 260.408 109.648 259.838C108.237 259.269 106.501 259.567 104.927 259.486C106.121 257.668 106.365 255.443 105.497 252.838C107.776 254.195 109.946 254.276 112.28 253.49C110.733 257.369 111.167 260.11 113.528 262.145C115.617 263.962 118.574 264.261 121.016 262.877C122.563 261.982 123.757 260.707 124.001 258.943C124.245 257.342 124.055 255.66 124.055 254.195C127.229 255.85 130.268 255.579 132.439 253.191C134.446 250.966 134.636 247.656 132.927 245.214C131.869 243.722 130.377 242.637 128.559 242.637C126.904 242.637 125.249 243.125 123.919 243.369C126.09 240.819 126.524 238.052 124.923 235.393C123.295 232.625 120.772 231.838 116.431 232.707C117.815 229.478 117.842 228.881 116.838 225.544C120.718 227.443 123.729 227.09 125.846 224.459C127.718 222.125 127.718 218.788 125.819 216.482C123.919 214.149 120.664 213.497 118.005 214.854C114.939 216.428 114.016 219.249 115.237 223.807C112.633 221.854 110.001 222.017 107.342 223.265C108.481 221.827 109.35 220.226 109.133 218.327C108.997 217.187 108.563 216.075 108.291 214.935C108.536 215.125 108.78 215.315 109.024 215.478C111.547 217.133 114.83 216.862 116.974 214.8C119.063 212.765 119.497 209.509 117.977 207.013C116.458 204.517 113.392 203.377 110.625 204.3C107.749 205.249 106.012 207.908 106.365 211.001C106.474 212.005 106.908 212.955 107.179 213.959C104.547 211.707 101.753 211.598 98.8225 213.362C99.0667 212.873 99.3109 212.358 99.5822 211.869C100.83 209.455 100.722 207.067 99.0667 204.897C97.4117 202.726 95.1326 201.994 92.4737 202.59C90.0318 203.133 88.0783 205.168 87.807 207.745C87.6714 209.156 88.0241 210.594 88.1326 211.951C85.0124 210.106 82.1907 210.187 79.8574 212.249C77.6869 214.176 77.0357 217.214 78.2838 219.846C79.0706 221.528 80.3187 222.858 82.0822 223.183C83.7101 223.482 85.4737 223.238 87.1559 223.238C85.6907 225.218 85.5551 227.552 86.3419 230.211C84.0628 228.745 81.8923 228.583 79.559 229.369C80.9156 225.462 80.5086 222.885 78.2838 220.904C76.276 219.114 73.2915 218.652 70.9582 219.955C67.4311 221.935 66.7528 225.055 68.0009 228.881C66.183 227.796 64.5009 227.335 62.6288 227.742C58.6947 228.583 55.8187 233.304 58.6675 237.862C57.5823 237.319 56.5513 236.668 55.4389 236.261C53.2141 235.474 51.2877 236.505 49.3885 237.509C49.6598 237.21 49.9311 236.885 50.2024 236.586C52.0474 234.389 52.2102 231.323 50.6094 228.99C49.09 226.765 46.2412 225.788 43.6637 226.575C40.9234 227.416 39.187 229.831 39.2684 232.734C39.3498 235.474 41.2219 237.835 43.935 238.54C45.8614 239.028 47.5978 238.513 49.2528 237.563C49.1714 237.753 49.1443 237.97 49.0358 238.133C46.8381 241.443 46.8652 243.586 49.1172 246.788C50.528 248.09 52.1831 248.986 54.0823 248.714C55.5203 248.524 56.8497 247.792 58.2334 247.276C56.7141 248.687 55.5474 250.315 55.7102 252.459C55.7916 253.761 56.3071 255.009 56.6055 256.284C56.4156 256.121 56.2257 255.959 56.0086 255.796C53.5397 254.086 50.3381 254.195 48.1404 256.094C45.997 257.939 45.3459 261.005 46.5397 263.555C47.7606 266.214 50.6094 267.652 53.5668 267.055C54.2993 266.92 55.0319 266.621 55.7645 266.404C55.5745 266.757 55.3846 267.11 55.1676 267.462C53.8381 269.741 53.9738 272.509 55.5203 274.571C57.0668 276.633 59.6986 277.555 62.2489 276.904C64.7179 276.28 66.5086 274.137 66.9156 271.505C67.214 269.579 66.3187 268.032 65.5319 266.404C67.9737 269.063 70.8497 269.606 74.4311 268.005C72.3691 270.664 72.1791 273.214 73.5086 275.982C69.5202 274.001 66.6171 274.3 64.4466 276.823C62.5474 279.02 62.4389 282.358 64.1482 284.664C65.8846 287.024 69.059 287.893 71.7179 286.753C73.4543 285.993 74.8652 284.745 75.1908 282.873C75.4892 281.191 75.245 279.427 75.245 277.827C77.1985 279.346 79.6404 279.427 82.245 278.396C81.8652 279.427 81.5125 280.214 81.2683 281.055C80.6171 283.172 81.5939 284.962 82.4621 286.78C82.028 286.427 81.621 286.02 81.1869 285.695C78.8264 284.04 75.6249 284.23 73.4815 286.129C71.3381 288.028 70.7412 291.175 72.0978 293.726C73.4272 296.276 76.4117 297.579 79.152 296.873C81.9737 296.141 83.9543 293.672 83.7915 290.741C83.7101 289.466 83.1404 288.191 82.7605 286.916C83.059 287.133 83.3303 287.35 83.6287 287.54C87.7799 290.497 93.3148 288.137 93.8031 283.063C93.9388 281.625 93.369 280.133 93.1248 278.803C95.3768 280.865 98.0899 281.137 101.156 279.726C99.0667 283.362 99.3651 286.536 101.861 288.734C104.113 290.687 107.478 290.823 109.838 289.032C112.226 287.214 113.04 283.986 111.764 281.272C110.272 278.125 107.478 277.176 102.702 278.288C104.385 276.063 104.574 273.648 103.543 271.044C106.772 272.645 107.695 272.645 111.357 271.261C111.195 271.559 111.032 271.885 110.842 272.183C109.485 274.761 109.594 277.528 111.167 279.645ZM115.183 243.885C117.923 245.594 120.419 245.648 122.997 244.346C121.206 246.788 120.718 249.284 121.993 252.133C119.85 250.695 117.598 250.451 114.966 251.373C116.322 248.904 116.512 246.625 115.183 243.885ZM114.233 234.633C112.714 237.102 112.415 239.381 113.718 242.121C111.086 240.656 108.78 240.331 106.067 241.66C107.64 239.137 108.074 236.804 106.745 233.955C109.35 235.583 111.602 235.8 114.233 234.633ZM106.365 224.296C104.33 226.466 104.086 228.99 105.117 231.92C102.947 230.455 100.776 230.075 98.1442 230.943C99.6093 228.148 99.1481 225.707 98.0085 223.319C100.586 225.571 103.408 225.517 106.365 224.296ZM89.5977 213.443C92.8264 215.939 95.6481 215.315 98.4426 213.714C96.1093 216.075 95.4853 218.734 96.9775 221.8C97.0861 222.017 97.0589 222.288 97.1132 222.532C94.7527 220.443 92.0938 220.226 89.0008 221.501C90.8729 218.951 91.0628 216.482 89.5977 213.443ZM65.3148 266.377C62.4117 263.99 59.373 264.125 56.28 265.97C58.9931 263.61 59.0474 260.734 57.8807 257.614C60.2954 259.377 62.8187 259.703 65.966 258.075C63.8226 261.005 64.0396 263.664 65.3148 266.377ZM58.4776 247.276C58.5861 247.005 58.6675 246.707 58.8303 246.462C60.621 243.993 60.7024 241.47 59.1288 238.866C58.966 238.621 58.8846 238.323 58.7761 238.024C61.3536 240.575 62.6559 240.928 66.8342 240.195C65.4505 242.718 65.342 245.187 67.0513 248.117C64.0668 245.866 61.3265 245.594 58.4776 247.276ZM74.4853 256.962C72.0163 255.796 69.7102 255.633 67.0784 257.152C69.0047 254.303 69.2218 251.753 67.8109 249.04C70.09 250.668 72.4505 251.129 75.3536 250.044C73.8613 252.404 73.6443 254.548 74.4853 256.962ZM69.7102 237.455C70.5784 235.637 70.9853 233.493 70.0086 231.567C72.0435 231.866 74.1326 232.137 76.0318 232.408C75.8691 234.063 75.6791 236.044 75.4892 237.726C73.7257 237.645 71.745 237.563 69.7102 237.455ZM75.5977 267.272C77.3342 264.939 77.8225 262.687 76.9272 259.92C79.2605 261.086 81.3225 261.385 83.7644 260.272C82.4078 262.959 82.3535 265.346 83.9543 268.114C81.214 266.079 78.6636 265.699 75.5977 267.272ZM78.4466 247.521C78.6365 245.784 78.8807 243.776 79.0977 241.986C80.8884 242.121 82.869 242.257 84.6597 242.366C84.4698 244.021 84.2256 246.083 84.0086 247.9C82.2179 247.792 80.1559 247.629 78.4466 247.521ZM92.121 277.935C89.7062 276.117 87.2101 275.683 84.5512 276.931C84.9311 275.656 85.5279 274.435 85.6093 273.16C85.6907 271.885 85.2566 270.583 85.0396 269.226C87.2373 270.908 89.7334 271.288 92.745 269.931C90.9 272.699 90.7915 275.249 92.121 277.935ZM92.5008 257.803C90.7101 257.722 88.7295 257.614 86.9931 257.532C87.183 255.85 87.3729 253.951 87.5628 252.241C89.1636 252.431 91.0357 252.676 92.8535 252.893C92.745 254.412 92.6093 256.257 92.5008 257.803ZM88.5396 239.055C88.6752 237.21 88.838 235.121 88.9737 233.358C90.683 233.548 92.745 233.792 94.5628 234.009C94.4 235.637 94.2101 237.563 94.0473 239.327C92.2566 239.245 90.2217 239.137 88.5396 239.055ZM101.834 269.117C99.4194 267.625 97.1675 267.408 94.4814 268.575C96.0551 266.296 96.462 264.179 95.8109 262.145C97.9272 262.253 100.043 262.334 102.051 262.443C100.939 264.261 100.695 266.513 101.834 269.117ZM103.191 249.718C101.291 249.42 99.338 249.121 97.493 248.823C97.5744 247.222 97.6829 245.296 97.7915 243.315C99.6093 244.102 101.698 244.346 103.896 243.369C102.757 245.567 102.485 247.71 103.191 249.718Z" fill="black"/>
<path d="M71.9355 215.586C71.9355 212.059 69.0595 209.21 65.5324 209.264C62.0053 209.319 59.1836 212.222 59.2921 215.749C59.3735 219.222 62.2223 221.962 65.6952 221.935C69.1409 221.881 71.9084 219.086 71.9355 215.586Z" fill="black"/>
<path d="M69.2195 207.174C69.1653 210.755 71.9598 213.55 75.5141 213.523C79.0141 213.496 81.7544 210.755 81.7544 207.256C81.7544 203.756 79.0412 200.988 75.5412 200.961C72.0412 200.961 69.2467 203.674 69.2195 207.174Z" fill="black"/>
<path d="M104.248 206.661C107.694 206.634 110.407 203.894 110.407 200.448C110.407 197.002 107.667 194.262 104.248 194.262C100.803 194.235 98.0351 196.948 98.008 200.394C97.9809 203.894 100.748 206.661 104.248 206.661Z" fill="black"/>
<path d="M85.7442 204.788C89.1628 204.761 91.876 202.021 91.876 198.575C91.876 195.129 89.1356 192.416 85.6899 192.416C82.2442 192.416 79.5039 195.129 79.4768 198.575C79.4496 202.048 82.2442 204.815 85.7442 204.788Z" fill="black"/>
<path d="M51.0977 205.412C51.0977 208.749 53.838 211.516 57.1752 211.571C60.5666 211.625 63.4155 208.803 63.4155 205.412C63.4155 202.074 60.6752 199.307 57.338 199.253C53.9465 199.198 51.0977 202.02 51.0977 205.412Z" fill="black"/>
<path d="M124.946 211.925C124.973 215.235 127.686 218.002 131.023 218.056C134.387 218.111 137.236 215.316 137.263 211.952C137.29 208.587 134.496 205.738 131.104 205.738C127.74 205.711 124.918 208.533 124.946 211.925Z" fill="black"/>
<path d="M67.1046 190.922C63.7946 190.949 61 193.744 61 197.054C61 200.418 63.9031 203.267 67.2403 203.186C70.5775 203.104 73.3178 200.283 73.2635 196.972C73.2093 193.662 70.4147 190.895 67.1046 190.922Z" fill="black"/>
<path d="M122.722 195.862C119.412 195.889 116.617 198.683 116.617 201.993C116.617 205.303 119.385 208.098 122.695 208.125C126.059 208.152 128.908 205.276 128.854 201.912C128.826 198.602 126.032 195.834 122.722 195.862Z" fill="black"/>
<path d="M89.4572 190.247C89.4301 193.557 92.2247 196.379 95.5619 196.379C98.8719 196.406 101.694 193.612 101.694 190.274C101.721 186.964 98.9262 184.143 95.589 184.143C92.2789 184.143 89.4572 186.91 89.4572 190.247Z" fill="black"/>
<path d="M40.9197 214.15C41.0011 217.488 43.8228 220.228 47.1057 220.174C50.4158 220.119 53.1832 217.325 53.1832 214.015C53.1561 210.705 50.3887 207.91 47.0514 207.91C43.6871 207.91 40.8383 210.786 40.9197 214.15Z" fill="black"/>
<path d="M114.039 185.768C110.729 185.823 108.07 188.509 108.07 191.792C108.07 195.129 110.838 197.896 114.175 197.842C117.485 197.788 120.144 195.102 120.144 191.819C120.144 188.454 117.376 185.714 114.039 185.768Z" fill="black"/>
<path d="M71.3081 188.482C71.1453 191.738 73.7228 194.532 77.0329 194.722C80.343 194.939 83.2189 192.307 83.3546 188.916C83.5174 185.66 80.9399 182.866 77.6298 182.676C74.3197 182.486 71.4709 185.118 71.3081 188.482Z" fill="black"/>
<path d="M105.902 176.001C102.538 175.947 99.8789 178.524 99.8518 181.834C99.8246 185.117 102.375 187.749 105.604 187.803C108.968 187.857 111.627 185.28 111.654 181.97C111.681 178.687 109.158 176.055 105.902 176.001Z" fill="black"/>
<path d="M87.2901 174.455C84.0072 174.428 81.3754 176.951 81.3212 180.207C81.2669 183.572 83.8173 186.23 87.1545 186.258C90.4374 186.285 93.0692 183.761 93.1235 180.506C93.1777 177.168 90.6273 174.482 87.2901 174.455Z" fill="black"/>
<path d="M141.09 197.627C137.726 197.6 135.094 200.178 135.094 203.515C135.094 206.798 137.644 209.402 140.9 209.429C144.264 209.457 146.896 206.879 146.896 203.542C146.896 200.286 144.346 197.681 141.09 197.627Z" fill="black"/>
<path d="M48.6573 189.594C45.3744 189.567 42.7426 192.117 42.6883 195.373C42.6341 198.737 45.2116 201.396 48.5488 201.423C51.8317 201.451 54.4635 198.9 54.5178 195.644C54.572 192.28 51.9945 189.621 48.6573 189.594Z" fill="black"/>
<path d="M149.583 207.856C146.327 207.883 143.723 210.487 143.723 213.743C143.723 217.026 146.327 219.631 149.583 219.631C152.866 219.658 155.471 217.08 155.498 213.798C155.552 210.46 152.947 207.829 149.583 207.856Z" fill="black"/>
<path d="M38.7237 197.951C35.4408 197.951 32.8361 200.529 32.8361 203.784C32.809 207.122 35.4408 209.753 38.8051 209.726C42.0609 209.699 44.6384 207.095 44.6384 203.812C44.5842 200.556 42.0067 197.951 38.7237 197.951Z" fill="black"/>
<path d="M132.653 187.777C129.37 187.777 126.766 190.355 126.738 193.611C126.711 196.894 129.289 199.525 132.545 199.553C135.882 199.58 138.541 196.975 138.541 193.638C138.541 190.355 135.936 187.777 132.653 187.777Z" fill="black"/>
<path d="M52.9143 187.181C52.9143 190.463 55.5189 193.041 58.7747 193.041C62.0577 193.041 64.6623 190.463 64.6894 187.208C64.7166 183.925 62.1391 181.293 58.8832 181.266C55.546 181.239 52.8871 183.843 52.9143 187.181Z" fill="black"/>
<path d="M68.809 172.664C65.5804 172.583 62.8672 175.241 62.8401 178.47C62.8129 181.645 65.3904 184.303 68.5648 184.385C71.7935 184.466 74.5067 181.807 74.5338 178.579C74.561 175.404 71.9834 172.745 68.809 172.664Z" fill="black"/>
<path d="M28.661 206.633C25.4323 206.551 22.7192 209.156 22.6649 212.385C22.6106 215.613 25.2424 218.326 28.4711 218.354C31.6998 218.381 34.3858 215.749 34.4129 212.52C34.3858 209.373 31.8354 206.714 28.661 206.633Z" fill="black"/>
<path d="M124.268 177.604C121.12 177.631 118.489 180.208 118.434 183.383C118.38 186.611 121.039 189.297 124.241 189.325C127.469 189.352 130.128 186.693 130.128 183.464C130.155 180.235 127.496 177.577 124.268 177.604Z" fill="black"/>
<path d="M97.3847 165.908C94.2374 165.936 91.5785 168.622 91.6057 171.742C91.6328 174.889 94.3188 177.548 97.439 177.521C100.586 177.494 103.245 174.808 103.218 171.687C103.191 168.54 100.532 165.881 97.3847 165.908Z" fill="black"/>
<path d="M78.9018 164.416C75.8088 164.389 73.177 166.939 73.0956 170.06C73.0142 173.207 75.646 175.893 78.8204 175.92C81.9134 175.947 84.5452 173.397 84.6266 170.277C84.708 167.129 82.0762 164.443 78.9018 164.416Z" fill="black"/>
<path d="M115.612 167.809C112.519 167.836 109.942 170.386 109.86 173.506C109.806 176.627 112.438 179.34 115.585 179.367C118.732 179.394 121.391 176.762 121.418 173.588C121.418 170.441 118.759 167.782 115.612 167.809Z" fill="black"/>
<path d="M151.265 189.462C148.145 189.408 145.54 191.931 145.459 195.078C145.378 198.198 147.874 200.803 151.048 200.911C154.223 201.02 156.909 198.415 156.936 195.214C156.936 192.121 154.412 189.516 151.265 189.462Z" fill="black"/>
<path d="M50.4946 171.281C47.3201 171.254 44.7969 173.75 44.7698 176.925C44.7426 180.099 47.2387 182.623 50.4131 182.65C53.5876 182.677 56.1108 180.181 56.1379 177.006C56.1379 173.832 53.669 171.309 50.4946 171.281Z" fill="black"/>
<path d="M142.854 179.311C139.68 179.311 137.156 181.807 137.156 184.981C137.156 188.155 139.652 190.679 142.827 190.679C146.001 190.679 148.524 188.183 148.524 185.008C148.524 181.861 146.028 179.338 142.854 179.311Z" fill="black"/>
<path d="M159.597 199.389C156.449 199.362 153.899 201.831 153.845 204.978C153.79 208.18 156.341 210.784 159.542 210.784C162.69 210.784 165.213 208.261 165.213 205.114C165.24 201.966 162.744 199.443 159.597 199.389Z" fill="black"/>
<path d="M40.3763 179.609C37.1747 179.528 34.5701 182.078 34.543 185.28C34.543 188.427 37.0391 190.95 40.1864 190.978C43.3337 191.005 45.884 188.536 45.9383 185.361C45.9926 182.268 43.5507 179.691 40.3763 179.609Z" fill="black"/>
<path d="M30.3346 188.293C27.1602 188.293 24.6641 190.816 24.6641 193.991C24.6641 197.165 27.1873 199.661 30.3617 199.661C33.5361 199.661 36.0322 197.138 36.0322 193.964C36.0322 190.762 33.509 188.266 30.3346 188.293Z" fill="black"/>
<path d="M167.952 209.672C164.75 209.645 162.254 212.114 162.254 215.288C162.254 218.408 164.669 220.877 167.789 220.905C170.99 220.932 173.486 218.463 173.486 215.288C173.486 212.141 171.072 209.699 167.952 209.672Z" fill="black"/>
<path d="M60.4281 163.004C57.2266 162.977 54.7305 165.419 54.7305 168.62C54.7305 171.741 57.1452 174.21 60.2653 174.237C63.4669 174.264 65.963 171.822 65.963 168.62C65.963 165.5 63.5211 163.031 60.4281 163.004Z" fill="black"/>
<path d="M134.252 169.489C131.051 169.461 128.555 171.93 128.555 175.105C128.555 178.225 130.969 180.694 134.09 180.721C137.291 180.748 139.787 178.279 139.787 175.105C139.814 171.985 137.372 169.516 134.252 169.489Z" fill="black"/>
<path d="M20.2717 196.678C17.0701 196.651 14.574 199.093 14.5469 202.294C14.5469 205.442 16.9616 207.883 20.0817 207.938C23.2833 207.965 25.7794 205.523 25.8065 202.321C25.8065 199.174 23.3918 196.732 20.2717 196.678Z" fill="black"/>
<path d="M88.8898 156.222C85.7425 156.167 83.2464 158.555 83.165 161.648C83.1107 164.795 85.4712 167.318 88.5642 167.4C91.7929 167.481 94.3161 165.067 94.3704 161.892C94.3975 158.772 91.9828 156.276 88.8898 156.222Z" fill="black"/>
<path d="M107.448 157.77C104.301 157.716 101.778 160.104 101.724 163.197C101.669 166.398 104.084 168.949 107.258 168.949C110.406 168.976 112.875 166.561 112.902 163.441C112.929 160.321 110.541 157.825 107.448 157.77Z" fill="black"/>
<path d="M125.762 159.37C122.75 159.397 120.309 161.866 120.281 164.905C120.254 167.998 122.75 170.494 125.843 170.494C128.936 170.494 131.405 167.971 131.405 164.905C131.378 161.785 128.855 159.316 125.762 159.37Z" fill="black"/>
<path d="M10.3389 205.088C7.24593 205.061 4.72267 207.53 4.69554 210.623C4.6684 213.662 7.11026 216.158 10.1219 216.212C13.2149 216.294 15.7924 213.825 15.8195 210.759C15.9009 207.666 13.432 205.115 10.3389 205.088Z" fill="black"/>
<path d="M70.524 154.73C67.5124 154.73 65.0434 157.172 64.9892 160.184C64.9349 163.277 67.4039 165.8 70.4969 165.827C73.5899 165.854 76.1132 163.385 76.1132 160.292C76.1132 157.227 73.6171 154.73 70.524 154.73Z" fill="black"/>
<path d="M31.8597 169.899C28.8752 169.926 26.352 172.476 26.3791 175.461C26.4063 178.445 28.9566 180.968 31.9411 180.941C34.9256 180.914 37.4489 178.364 37.4217 175.379C37.3946 172.395 34.8442 169.872 31.8597 169.899Z" fill="black"/>
<path d="M152.677 171.173C149.693 171.227 147.197 173.777 147.251 176.735C147.305 179.719 149.856 182.215 152.813 182.161C155.797 182.107 158.293 179.556 158.239 176.599C158.185 173.615 155.635 171.118 152.677 171.173Z" fill="black"/>
<path d="M41.7584 161.595C38.7739 161.622 36.2778 164.172 36.3049 167.157C36.332 170.141 38.8824 172.637 41.8669 172.61C44.8514 172.583 47.3475 170.033 47.3204 167.048C47.2661 164.064 44.7158 161.54 41.7584 161.595Z" fill="black"/>
<path d="M169.661 191.25C166.676 191.277 164.18 193.828 164.207 196.812C164.234 199.797 166.785 202.293 169.769 202.266C172.754 202.239 175.25 199.688 175.223 196.704C175.196 193.719 172.645 191.223 169.661 191.25Z" fill="black"/>
<path d="M161.086 181.344C158.101 181.317 155.551 183.84 155.551 186.825C155.524 189.809 158.047 192.359 161.032 192.359C164.016 192.387 166.566 189.863 166.566 186.879C166.594 183.894 164.097 181.344 161.086 181.344Z" fill="black"/>
<path d="M98.9843 147.975C96.0269 147.948 93.4766 150.471 93.4494 153.455C93.4223 156.413 95.9456 158.963 98.93 158.99C101.887 159.017 104.438 156.494 104.465 153.51C104.492 150.552 101.969 148.002 98.9843 147.975Z" fill="black"/>
<path d="M21.6607 178.282C18.6762 178.309 16.1801 180.887 16.2073 183.844C16.2344 186.829 18.8119 189.325 21.7693 189.298C24.7537 189.27 27.2499 186.693 27.2227 183.736C27.1956 180.724 24.6181 178.228 21.6607 178.282Z" fill="black"/>
<path d="M178.211 201.478C175.254 201.37 172.649 203.839 172.595 206.85C172.54 209.78 174.928 212.276 177.912 212.385C180.87 212.494 183.474 210.025 183.529 207.013C183.583 204.083 181.168 201.587 178.211 201.478Z" fill="black"/>
<path d="M52.044 152.992C49.0866 152.965 46.6176 155.38 46.5634 158.337C46.5091 161.349 49.0052 163.872 52.0168 163.845C54.9742 163.818 57.4161 161.376 57.4161 158.419C57.4432 155.489 55.0013 153.02 52.044 152.992Z" fill="black"/>
<path d="M117.517 149.576C114.587 149.576 112.118 151.991 112.063 154.948C112.009 157.933 114.532 160.483 117.517 160.483C120.447 160.483 122.916 158.068 122.97 155.111C123.025 152.127 120.501 149.576 117.517 149.576Z" fill="black"/>
<path d="M80.5114 146.182C77.527 146.128 74.9766 148.651 74.9766 151.636C74.9766 154.566 77.3913 157.035 80.3487 157.089C83.3331 157.144 85.8835 154.62 85.8835 151.636C85.8835 148.706 83.4688 146.237 80.5114 146.182Z" fill="black"/>
<path d="M144.317 161.324C141.36 161.352 138.918 163.821 138.918 166.778C138.918 169.735 141.387 172.177 144.344 172.204C147.356 172.231 149.879 169.681 149.798 166.669C149.771 163.712 147.275 161.297 144.317 161.324Z" fill="black"/>
<path d="M11.7822 186.961C8.82489 186.988 6.38303 189.43 6.38303 192.387C6.3559 195.372 8.90627 197.895 11.8908 197.868C14.8481 197.841 17.29 195.399 17.29 192.442C17.3171 189.457 14.7667 186.934 11.7822 186.961Z" fill="black"/>
<path d="M186.322 211.491C183.365 211.545 181.086 213.852 181.086 216.809C181.086 219.821 183.419 222.181 186.431 222.154C189.443 222.154 191.776 219.793 191.749 216.755C191.722 213.77 189.334 211.437 186.322 211.491Z" fill="black"/>
<path d="M1.63034 195.428C-1.35415 195.428 -3.66035 197.707 -3.71461 200.664C-3.74174 203.703 -1.4084 206.063 1.60322 206.09C4.58771 206.09 6.89391 203.811 6.94817 200.854C7.00243 197.815 4.6691 195.428 1.63034 195.428Z" fill="black"/>
<path d="M135.772 151.258C132.787 151.231 130.454 153.51 130.427 156.467C130.372 159.506 132.679 161.894 135.717 161.894C138.702 161.921 141.035 159.642 141.062 156.684C141.089 153.646 138.783 151.285 135.772 151.258Z" fill="black"/>
<path d="M61.9734 144.774C58.9347 144.747 56.5742 147.053 56.5742 150.091C56.5742 153.049 58.8533 155.382 61.8106 155.409C64.8494 155.436 67.2099 153.13 67.2099 150.091C67.2099 147.134 64.9308 144.801 61.9734 144.774Z" fill="black"/>
<path d="M90.654 138.018C87.6966 137.991 85.3633 140.297 85.3362 143.254C85.309 146.212 87.6152 148.545 90.5726 148.572C93.53 148.599 95.8633 146.293 95.8904 143.336C95.9176 140.351 93.6114 138.018 90.654 138.018Z" fill="black"/>
<path d="M108.884 139.564C105.927 139.564 103.594 141.871 103.566 144.828C103.566 147.785 105.873 150.119 108.83 150.146C111.787 150.146 114.121 147.84 114.148 144.882C114.148 141.898 111.842 139.564 108.884 139.564Z" fill="black"/>
<path d="M127.416 141.436C124.486 141.409 122.098 143.796 122.125 146.726C122.152 149.575 124.486 151.909 127.335 151.936C130.265 151.963 132.652 149.575 132.625 146.645C132.625 143.796 130.292 141.463 127.416 141.436Z" fill="black"/>
<path d="M171.182 172.962C168.333 172.989 166.027 175.322 166 178.198C166 181.129 168.333 183.489 171.264 183.489C174.194 183.489 176.527 181.101 176.5 178.171C176.5 175.241 174.112 172.908 171.182 172.962Z" fill="black"/>
<path d="M163.068 163.06C160.137 163.005 157.723 165.339 157.696 168.242C157.668 171.091 159.975 173.478 162.823 173.532C165.754 173.587 168.168 171.253 168.196 168.35C168.196 165.501 165.916 163.141 163.068 163.06Z" fill="black"/>
<path d="M179.62 183.139C176.771 183.139 174.411 185.418 174.356 188.267C174.302 191.197 176.608 193.612 179.511 193.666C182.442 193.72 184.829 191.387 184.856 188.456C184.884 185.526 182.55 183.166 179.62 183.139Z" fill="black"/>
<path d="M23.4753 159.965C20.6265 160.019 18.3203 162.353 18.3203 165.202C18.3203 168.132 20.6808 170.492 23.5839 170.492C26.5141 170.492 28.8474 168.105 28.8203 165.174C28.7932 162.244 26.4056 159.938 23.4753 159.965Z" fill="black"/>
<path d="M13.381 168.621C10.4507 168.621 8.09029 171.009 8.11742 173.939C8.14455 176.788 10.505 179.121 13.3538 179.121C16.2841 179.121 18.6445 176.733 18.6174 173.803C18.5903 170.954 16.2569 168.648 13.381 168.621Z" fill="black"/>
<path d="M188.002 193.067C185.18 193.04 182.765 195.4 182.711 198.222C182.684 201.043 185.044 203.458 187.866 203.512C190.688 203.539 193.103 201.179 193.157 198.357C193.211 195.508 190.851 193.094 188.002 193.067Z" fill="black"/>
<path d="M33.5405 151.637C30.6374 151.61 28.2227 153.97 28.2227 156.901C28.2227 159.749 30.556 162.11 33.4048 162.137C36.3079 162.164 38.7226 159.804 38.7226 156.873C38.6955 154.025 36.3893 151.664 33.5405 151.637Z" fill="black"/>
<path d="M-1.72955 182.296C-1.67529 185.144 0.739436 187.505 3.56113 187.451C6.40997 187.396 8.77043 184.982 8.71616 182.16C8.6619 179.311 6.24718 176.951 3.42548 177.005C0.576645 177.032 -1.78381 179.474 -1.72955 182.296Z" fill="black"/>
<path d="M72.2593 136.5C69.3562 136.419 66.8872 138.725 66.833 141.628C66.7787 144.477 69.0578 146.892 71.9066 146.973C74.8097 147.054 77.2787 144.748 77.333 141.845C77.3872 138.996 75.1082 136.609 72.2593 136.5Z" fill="black"/>
<path d="M154.33 152.914C151.508 152.887 149.094 155.22 149.039 158.069C149.012 160.891 151.345 163.306 154.194 163.36C157.016 163.387 159.431 161.054 159.485 158.205C159.539 155.356 157.179 152.941 154.33 152.914Z" fill="black"/>
<path d="M43.6622 143.336C40.8405 143.336 38.4258 145.696 38.4258 148.545C38.4258 151.367 40.7862 153.782 43.6351 153.782C46.4568 153.782 48.8715 151.421 48.8715 148.572C48.8986 145.724 46.511 143.336 43.6622 143.336Z" fill="black"/>
<path d="M76.8398 133.38C76.8398 136.174 79.1189 138.481 81.9135 138.508C84.7623 138.535 87.1499 136.174 87.0956 133.326C87.0414 130.531 84.7352 128.252 81.9406 128.252C79.146 128.306 76.8398 130.585 76.8398 133.38Z" fill="black"/>
<path d="M95.3479 134.898C95.3208 137.719 97.7355 140.134 100.557 140.107C103.325 140.08 105.658 137.746 105.685 134.979C105.712 132.157 103.297 129.743 100.476 129.77C97.7083 129.824 95.375 132.13 95.3479 134.898Z" fill="black"/>
<path d="M113.928 136.579C113.982 139.373 116.315 141.652 119.11 141.625C121.905 141.598 124.184 139.292 124.184 136.497C124.184 133.703 121.877 131.397 119.083 131.369C116.234 131.342 113.846 133.73 113.928 136.579Z" fill="black"/>
<path d="M48.4072 140.105C48.3529 142.954 50.7405 145.341 53.5893 145.314C56.3839 145.287 58.6901 142.981 58.6901 140.186C58.6901 137.392 56.3839 135.086 53.5893 135.031C50.7947 135.031 48.4614 137.31 48.4072 140.105Z" fill="black"/>
<path d="M145.948 143.092C143.181 143.092 140.82 145.398 140.793 148.193C140.766 151.014 143.181 153.456 146.003 153.402C148.797 153.348 151.103 151.014 151.103 148.22C151.076 145.425 148.716 143.092 145.948 143.092Z" fill="black"/>
<path d="M191.446 208.423C191.392 211.19 193.671 213.551 196.466 213.659C199.26 213.768 201.729 211.407 201.783 208.586C201.838 205.818 199.559 203.458 196.764 203.349C193.942 203.214 191.501 205.574 191.446 208.423Z" fill="black"/>
<path d="M132.574 138.019C132.574 140.813 134.718 143.011 137.512 143.038C140.334 143.065 142.532 140.922 142.586 138.127C142.64 135.305 140.497 133.081 137.729 133.026C134.853 132.972 132.601 135.143 132.574 138.019Z" fill="black"/>
<path d="M58.7461 131.533C58.7461 134.409 60.9709 136.607 63.8469 136.553C66.6414 136.526 68.7848 134.301 68.7577 131.506C68.7306 128.712 66.5329 126.568 63.7383 126.568C60.9166 126.568 58.7461 128.739 58.7461 131.533Z" fill="black"/>
<path d="M181.137 164.877C178.342 164.877 176.172 167.047 176.172 169.842C176.172 172.637 178.315 174.834 181.11 174.861C183.959 174.889 186.183 172.664 186.156 169.815C186.129 167.02 183.932 164.877 181.137 164.877Z" fill="black"/>
<path d="M184.832 180.127C184.859 182.921 187.084 185.065 189.906 185.037C192.7 185.01 194.844 182.786 194.817 179.964C194.79 177.169 192.565 175.026 189.743 175.053C186.949 175.107 184.805 177.332 184.832 180.127Z" fill="black"/>
<path d="M5.07821 158.691C2.25651 158.691 0.0588453 160.862 0.0588453 163.657C0.0317136 166.451 2.20225 168.649 4.99682 168.676C7.79139 168.703 9.98906 166.532 10.0162 163.738C10.0433 160.916 7.87278 158.719 5.07821 158.691Z" fill="black"/>
<path d="M20.137 146.969C20.1098 149.764 22.2804 151.989 25.0749 151.989C27.8695 152.016 30.0943 149.845 30.0943 147.051C30.1214 144.256 27.9509 142.032 25.1563 142.032C22.3618 142.004 20.1641 144.175 20.137 146.969Z" fill="black"/>
<path d="M172.782 155.002C169.987 155.029 167.817 157.227 167.844 160.022C167.871 162.816 170.069 164.987 172.863 164.96C175.658 164.932 177.828 162.735 177.801 159.94C177.774 157.146 175.577 154.975 172.782 155.002Z" fill="black"/>
<path d="M9.93458 155.437C9.96171 158.204 12.1865 160.348 14.9811 160.32C17.7756 160.293 19.919 158.096 19.919 155.301C19.919 152.506 17.7214 150.336 14.9539 150.336C12.078 150.336 9.88031 152.588 9.93458 155.437Z" fill="black"/>
<path d="M159.517 149.877C159.571 152.563 161.741 154.733 164.455 154.733C167.222 154.733 169.447 152.536 169.42 149.741C169.42 146.974 167.168 144.776 164.4 144.803C161.66 144.857 159.462 147.109 159.517 149.877Z" fill="black"/>
<path d="M92.2809 119.813C89.5134 119.759 87.2344 121.984 87.2344 124.724C87.2344 127.437 89.3778 129.662 92.091 129.689C94.8584 129.744 97.1375 127.519 97.1375 124.779C97.1375 122.065 94.9669 119.841 92.2809 119.813Z" fill="black"/>
<path d="M30.0706 138.259C30.0434 141.026 32.2411 143.278 35.0085 143.278C37.7217 143.278 39.9194 141.108 39.9736 138.422C40.0008 135.654 37.8031 133.402 35.0357 133.402C32.2954 133.402 30.0977 135.573 30.0706 138.259Z" fill="black"/>
<path d="M110.754 121.656C107.987 121.629 105.762 123.827 105.762 126.594C105.762 129.308 107.905 131.505 110.591 131.56C113.386 131.614 115.638 129.443 115.665 126.676C115.692 123.908 113.521 121.684 110.754 121.656Z" fill="black"/>
<path d="M198.172 184.982C195.405 184.982 193.18 187.18 193.207 189.948C193.207 192.661 195.378 194.831 198.064 194.886C200.831 194.94 203.083 192.742 203.11 189.975C203.137 187.234 200.94 185.01 198.172 184.982Z" fill="black"/>
<path d="M128.961 123.231C126.275 123.204 124.023 125.428 123.996 128.114C123.969 130.8 126.194 133.052 128.88 133.08C131.566 133.107 133.818 130.882 133.845 128.196C133.872 125.51 131.647 123.258 128.961 123.231Z" fill="black"/>
<path d="M206.454 195.211C203.768 195.238 201.543 197.49 201.571 200.176C201.598 202.862 203.85 205.087 206.536 205.06C209.222 205.033 211.447 202.781 211.419 200.095C211.392 197.436 209.14 195.211 206.454 195.211Z" fill="black"/>
<path d="M73.614 118.291C70.9279 118.291 68.7031 120.543 68.7031 123.229C68.7031 125.915 70.9551 128.14 73.6411 128.14C76.3271 128.14 78.5519 125.888 78.5519 123.202C78.5519 120.516 76.3 118.291 73.614 118.291Z" fill="black"/>
<path d="M45.1537 125.102C42.4948 125.129 40.27 127.408 40.2971 130.067C40.3243 132.726 42.6033 134.951 45.2622 134.923C47.9211 134.896 50.1459 132.617 50.1188 129.958C50.0645 127.299 47.8126 125.075 45.1537 125.102Z" fill="black"/>
<path d="M156.099 134.979C153.413 135.006 151.188 137.258 151.215 139.944C151.242 142.63 153.494 144.855 156.18 144.828C158.866 144.8 161.091 142.549 161.064 139.862C161.037 137.176 158.758 134.952 156.099 134.979Z" fill="black"/>
<path d="M215.049 205.221C212.444 205.085 210.165 207.175 210.03 209.833C209.894 212.438 211.983 214.717 214.642 214.853C217.247 214.989 219.526 212.899 219.661 210.24C219.797 207.636 217.708 205.357 215.049 205.221Z" fill="black"/>
<path d="M147.521 124.885C144.889 124.858 142.691 127.001 142.664 129.633C142.637 132.265 144.781 134.463 147.412 134.49C150.044 134.517 152.242 132.373 152.269 129.742C152.296 127.11 150.153 124.912 147.521 124.885Z" fill="black"/>
<path d="M55.1342 116.856C52.5024 116.829 50.3047 118.972 50.2776 121.604C50.2505 124.236 52.3939 126.433 55.0257 126.46C57.6574 126.487 59.8551 124.344 59.8822 121.712C59.9094 119.081 57.766 116.883 55.1342 116.856Z" fill="black"/>
<path d="M191.664 156.791C188.951 156.628 186.726 158.608 186.618 161.294C186.509 163.926 188.435 166.097 191.067 166.26C193.78 166.422 196.005 164.442 196.114 161.756C196.222 159.097 194.269 156.926 191.664 156.791Z" fill="black"/>
<path d="M101.999 111.645C99.3939 111.672 97.3319 113.734 97.2776 116.366C97.2505 119.025 99.3668 121.168 102.026 121.195C104.685 121.195 106.828 119.079 106.801 116.42C106.801 113.707 104.685 111.618 101.999 111.645Z" fill="black"/>
<path d="M16.8776 132.075C14.2187 132.021 12.1296 134.029 12.0753 136.661C12.021 139.319 14.0017 141.436 16.6334 141.517C19.2923 141.599 21.4357 139.618 21.5171 137.013C21.5985 134.3 19.5637 132.13 16.8776 132.075Z" fill="black"/>
<path d="M-8.02344 153.808C-8.02344 156.494 -5.90716 158.583 -3.22112 158.529C-0.589342 158.502 1.4184 156.44 1.4184 153.808C1.4184 151.122 -0.697879 149.033 -3.38392 149.087C-6.0157 149.114 -8.02344 151.176 -8.02344 153.808Z" fill="black"/>
<path d="M120.608 113.219C117.976 113.219 115.914 115.226 115.887 117.858C115.86 120.571 117.922 122.661 120.608 122.661C123.24 122.661 125.302 120.653 125.329 118.021C125.356 115.335 123.294 113.219 120.608 113.219Z" fill="black"/>
<path d="M199.806 166.667C197.093 166.613 194.977 168.648 194.949 171.361C194.922 173.993 196.93 176.082 199.562 176.136C202.275 176.19 204.391 174.155 204.418 171.442C204.446 168.81 202.438 166.748 199.806 166.667Z" fill="black"/>
<path d="M26.7559 123.774C24.097 123.747 22.035 125.754 21.9807 128.359C21.9536 131.018 23.9614 133.08 26.566 133.134C29.2249 133.161 31.2869 131.154 31.3412 128.549C31.3683 125.89 29.3877 123.828 26.7559 123.774Z" fill="black"/>
<path d="M178.293 151.286C178.266 153.999 180.382 156.088 183.096 156.061C185.727 156.034 187.762 153.945 187.735 151.313C187.708 148.681 185.673 146.619 183.014 146.619C180.382 146.592 178.32 148.627 178.293 151.286Z" fill="black"/>
<path d="M208.108 176.899C205.477 176.872 203.388 178.879 203.36 181.511C203.306 184.224 205.368 186.313 208.081 186.313C210.713 186.313 212.748 184.279 212.748 181.647C212.748 178.988 210.74 176.926 208.108 176.899Z" fill="black"/>
<path d="M83.8188 110.127C81.1871 110.127 79.1251 112.162 79.0979 114.766C79.0708 117.48 81.1328 119.569 83.8188 119.569C86.4506 119.569 88.5126 117.534 88.5398 114.929C88.594 112.243 86.532 110.127 83.8188 110.127Z" fill="black"/>
<path d="M174.327 136.742C171.696 136.769 169.661 138.804 169.688 141.463C169.715 144.095 171.75 146.13 174.409 146.103C177.04 146.075 179.075 144.041 179.048 141.382C179.021 138.75 176.959 136.742 174.327 136.742Z" fill="black"/>
<path d="M6.56885 140.404C3.93707 140.404 1.87505 142.439 1.84792 145.071C1.82079 147.757 3.88281 149.873 6.56885 149.873C9.20062 149.873 11.2626 147.838 11.2898 145.207C11.344 142.521 9.25489 140.404 6.56885 140.404Z" fill="black"/>
<path d="M139.16 115.145C136.582 115.118 134.52 117.098 134.466 119.649C134.412 122.308 136.392 124.424 139.024 124.451C141.683 124.505 143.772 122.47 143.799 119.866C143.826 117.234 141.791 115.172 139.16 115.145Z" fill="black"/>
<path d="M65.2027 108.662C62.6523 108.69 60.6446 110.724 60.6175 113.275C60.5903 115.907 62.6523 117.969 65.2841 117.969C67.9159 117.969 69.9508 115.907 69.9508 113.275C69.9236 110.67 67.8616 108.635 65.2027 108.662Z" fill="black"/>
<path d="M212.04 191.387C211.986 194.019 214.048 196.135 216.653 196.135C219.203 196.162 221.292 194.154 221.319 191.604C221.373 188.972 219.311 186.856 216.707 186.856C214.156 186.829 212.094 188.836 212.04 191.387Z" fill="black"/>
<path d="M36.9058 115.473C34.3554 115.446 32.2663 117.454 32.212 119.977C32.1577 122.581 34.1926 124.725 36.7973 124.725C39.3476 124.752 41.4368 122.744 41.4911 120.221C41.5724 117.643 39.5104 115.5 36.9058 115.473Z" fill="black"/>
<path d="M165.999 126.596C163.449 126.596 161.387 128.658 161.36 131.208C161.332 133.813 163.476 135.929 166.081 135.875C168.631 135.82 170.666 133.731 170.639 131.181C170.639 128.658 168.55 126.596 165.999 126.596Z" fill="black"/>
<path d="M89.1057 106.465C89.0786 108.961 91.1677 111.104 93.6639 111.131C96.16 111.158 98.3034 109.069 98.3305 106.573C98.3576 104.077 96.2685 101.934 93.7724 101.907C91.2491 101.879 89.1329 103.969 89.1057 106.465Z" fill="black"/>
<path d="M107.637 108.036C107.61 110.533 109.726 112.649 112.222 112.676C114.718 112.703 116.835 110.587 116.862 108.091C116.889 105.595 114.773 103.478 112.276 103.451C109.78 103.451 107.664 105.54 107.637 108.036Z" fill="black"/>
<path d="M153.085 121.14C152.949 123.555 154.903 125.726 157.372 125.943C159.841 126.133 162.093 124.125 162.255 121.574C162.391 119.16 160.437 116.989 157.968 116.772C155.5 116.582 153.248 118.617 153.085 121.14Z" fill="black"/>
<path d="M229.624 201.751C229.678 199.255 227.562 197.111 225.066 197.084C222.57 197.057 220.426 199.201 220.453 201.697C220.453 204.138 222.488 206.201 224.93 206.282C227.399 206.363 229.57 204.247 229.624 201.751Z" fill="black"/>
<path d="M42.1682 111.4C42.1411 113.896 44.2574 116.04 46.7535 116.04C49.1953 116.04 51.2574 113.978 51.3116 111.536C51.3388 109.04 49.2225 106.896 46.7264 106.896C44.2845 106.896 42.2225 108.958 42.1682 111.4Z" fill="black"/>
<path d="M126.219 109.555C126.192 112.051 128.335 114.221 130.831 114.167C133.273 114.113 135.335 112.024 135.335 109.582C135.308 107.14 133.246 105.051 130.777 105.051C128.362 105.051 126.273 107.113 126.219 109.555Z" fill="black"/>
<path d="M201.188 148.68C198.719 148.707 196.684 150.769 196.711 153.238C196.738 155.707 198.8 157.742 201.269 157.715C203.738 157.688 205.773 155.626 205.746 153.157C205.719 150.661 203.657 148.653 201.188 148.68Z" fill="black"/>
<path d="M70.6065 104.755C70.6607 107.224 72.777 109.259 75.2189 109.232C77.6607 109.205 79.7499 107.115 79.7499 104.674C79.7499 102.232 77.6878 100.143 75.2189 100.115C72.7227 100.088 70.5522 102.259 70.6065 104.755Z" fill="black"/>
<path d="M205.42 162.923C205.339 165.419 207.293 167.481 209.789 167.536C212.285 167.59 214.32 165.609 214.347 163.113C214.374 160.617 212.393 158.582 209.897 158.582C207.482 158.582 205.502 160.481 205.42 162.923Z" fill="black"/>
<path d="M192.936 138.504C190.494 138.477 188.514 140.376 188.432 142.818C188.351 145.314 190.304 147.376 192.8 147.458C195.296 147.539 197.331 145.558 197.386 143.062C197.413 140.566 195.432 138.531 192.936 138.504Z" fill="black"/>
<path d="M-1.78391 130.774C-4.19863 130.774 -6.20638 132.727 -6.26064 135.169C-6.31491 137.638 -4.30717 139.727 -1.81105 139.754C0.657935 139.781 2.71996 137.774 2.74709 135.278C2.74709 132.809 0.712208 130.747 -1.78391 130.774Z" fill="black"/>
<path d="M3.66652 126.76C3.58512 129.283 5.53861 131.318 8.06186 131.372C10.5037 131.399 12.5115 129.5 12.5929 127.058C12.6743 124.535 10.7208 122.5 8.19752 122.446C5.72853 122.418 3.74791 124.318 3.66652 126.76Z" fill="black"/>
<path d="M184.668 128.687C182.118 128.632 180.137 130.586 180.164 133.109C180.164 135.578 182.091 137.504 184.56 137.504C187.029 137.504 188.982 135.632 189.009 133.136C189.009 130.667 187.137 128.714 184.668 128.687Z" fill="black"/>
<path d="M52.5354 103.206C52.5626 105.675 54.4889 107.547 56.985 107.519C59.454 107.492 61.3532 105.593 61.3532 103.124C61.3532 100.655 59.454 98.7288 56.985 98.7288C54.4346 98.7017 52.5083 100.655 52.5354 103.206Z" fill="black"/>
<path d="M13.9261 118.237C13.8989 120.788 15.8524 122.714 18.4028 122.687C20.8718 122.66 22.7439 120.733 22.7167 118.237C22.6896 115.768 20.7904 113.869 18.3214 113.869C15.8524 113.869 13.9261 115.768 13.9261 118.237Z" fill="black"/>
<path d="M218.334 168.839C215.838 168.785 213.885 170.657 213.803 173.126C213.722 175.676 215.648 177.684 218.199 177.711C220.668 177.738 222.621 175.839 222.648 173.343C222.702 170.847 220.803 168.893 218.334 168.839Z" fill="black"/>
<path d="M144.59 111.13C144.59 113.68 146.543 115.606 149.094 115.579C151.563 115.525 153.435 113.599 153.408 111.103C153.381 108.634 151.454 106.734 148.985 106.734C146.516 106.734 144.617 108.661 144.59 111.13Z" fill="black"/>
<path d="M233.342 207.151C230.819 207.178 228.892 209.158 228.946 211.682C229.001 214.151 230.954 216.023 233.423 215.996C235.892 215.968 237.791 214.069 237.819 211.6C237.846 209.104 235.865 207.124 233.342 207.151Z" fill="black"/>
<path d="M99.555 97.8895C99.555 100.358 101.481 102.258 103.977 102.231C106.446 102.203 108.346 100.25 108.291 97.7809C108.264 95.3662 106.365 93.5213 103.95 93.4941C101.454 93.4941 99.5278 95.4205 99.555 97.8895Z" fill="black"/>
<path d="M226.583 178.77C224.114 178.77 222.188 180.696 222.215 183.165C222.215 185.58 224.087 187.479 226.502 187.506C228.998 187.533 230.924 185.661 230.952 183.192C230.952 180.723 229.052 178.797 226.583 178.77Z" fill="black"/>
<path d="M117.782 99.5995C117.728 102.069 119.6 104.049 122.042 104.076C124.511 104.103 126.465 102.231 126.492 99.7623C126.519 97.2933 124.62 95.367 122.151 95.3398C119.763 95.367 117.837 97.2119 117.782 99.5995Z" fill="black"/>
<path d="M81.0221 96.1784C80.9407 98.6745 82.8399 100.655 85.3089 100.682C87.7236 100.709 89.6771 98.8644 89.7313 96.4768C89.8127 93.9807 87.9135 92.0001 85.4445 91.973C83.0298 91.9458 81.0763 93.7908 81.0221 96.1784Z" fill="black"/>
<path d="M23.8527 109.774C23.7984 112.243 25.6705 114.251 28.1395 114.278C30.5542 114.305 32.4806 112.46 32.562 110.073C32.6163 107.576 30.7442 105.596 28.2752 105.569C25.8605 105.542 23.907 107.386 23.8527 109.774Z" fill="black"/>
<path d="M171.858 122.741C171.777 125.21 173.649 127.218 176.091 127.272C178.56 127.327 180.54 125.455 180.567 123.013C180.594 120.598 178.777 118.645 176.416 118.563C173.92 118.455 171.939 120.3 171.858 122.741Z" fill="black"/>
<path d="M230.598 193.285C230.571 195.646 232.497 197.626 234.858 197.654C237.218 197.681 239.199 195.754 239.226 193.394C239.253 191.033 237.327 189.053 234.966 189.026C232.606 188.999 230.625 190.925 230.598 193.285Z" fill="black"/>
<path d="M136.371 101.308C136.399 103.669 138.352 105.595 140.712 105.595C143.073 105.568 145.026 103.614 144.999 101.254C144.972 98.8934 143.019 96.9399 140.658 96.9671C138.298 96.9671 136.344 98.9477 136.371 101.308Z" fill="black"/>
<path d="M62.5156 94.7695C62.5156 97.13 64.4691 99.0835 66.8024 99.1106C69.1629 99.1106 71.1164 97.1571 71.1435 94.8238C71.1435 92.4633 69.19 90.5098 66.8567 90.4827C64.4962 90.4556 62.5156 92.4091 62.5156 94.7695Z" fill="black"/>
<path d="M163.258 112.977C163.231 115.31 165.157 117.318 167.518 117.345C169.851 117.372 171.859 115.446 171.886 113.085C171.913 110.752 169.987 108.744 167.626 108.717C165.266 108.69 163.285 110.616 163.258 112.977Z" fill="black"/>
<path d="M34.1094 101.553C34.1094 103.913 36.09 105.894 38.4233 105.867C40.7838 105.867 42.7373 103.859 42.7101 101.498C42.683 99.1923 40.7566 97.293 38.4776 97.2659C36.1171 97.2388 34.1094 99.2194 34.1094 101.553Z" fill="black"/>
<path d="M219.803 150.498C217.524 150.498 215.57 152.424 215.57 154.703C215.57 156.983 217.497 158.936 219.776 158.936C222.055 158.936 224.008 157.01 224.008 154.731C224.008 152.452 222.082 150.498 219.803 150.498Z" fill="black"/>
<path d="M239.359 203.027C239.223 205.306 241.068 207.313 243.401 207.422C245.626 207.53 247.58 205.767 247.769 203.488C247.959 201.209 246.169 199.174 243.808 199.011C241.529 198.875 239.494 200.693 239.359 203.027Z" fill="black"/>
<path d="M211.385 140.297C209.106 140.324 207.18 142.278 207.18 144.557C207.207 146.836 209.16 148.762 211.439 148.762C213.718 148.735 215.645 146.782 215.645 144.503C215.645 142.196 213.664 140.27 211.385 140.297Z" fill="black"/>
<path d="M198.88 134.707C198.934 136.959 200.806 138.804 203.058 138.831C205.364 138.858 207.318 136.932 207.291 134.626C207.291 132.319 205.337 130.393 203.031 130.42C200.752 130.447 198.826 132.428 198.88 134.707Z" fill="black"/>
<path d="M91.0637 87.9053C91.0094 90.2115 92.8815 92.1378 95.2148 92.165C97.521 92.1921 99.4474 90.2929 99.4474 87.9867C99.4474 85.6805 97.5481 83.7812 95.2419 83.7812C92.9629 83.8084 91.1179 85.6533 91.0637 87.9053Z" fill="black"/>
<path d="M44.0977 93.2241C44.0977 95.5303 46.024 97.4296 48.3302 97.4024C50.6364 97.3753 52.5356 95.4489 52.4814 93.1427C52.4271 90.8365 50.4736 88.9645 48.1946 89.0187C45.9155 89.1273 44.0977 90.9722 44.0977 93.2241Z" fill="black"/>
<path d="M155.036 102.72C154.982 105.026 156.854 106.952 159.16 107.007C161.467 107.034 163.393 105.135 163.393 102.828C163.393 100.522 161.494 98.623 159.187 98.623C156.936 98.6502 155.091 100.468 155.036 102.72Z" fill="black"/>
<path d="M-4.41797 116.748C-4.41797 119 -2.57302 120.845 -0.321085 120.926C1.98511 120.98 3.93861 119.108 3.96574 116.802C3.99287 114.496 2.12078 112.569 -0.212552 112.569C-2.51875 112.515 -4.41797 114.442 -4.41797 116.748Z" fill="black"/>
<path d="M228.263 160.458C225.93 160.376 224.004 162.221 223.95 164.555C223.922 166.834 225.686 168.706 227.965 168.787C230.298 168.869 232.225 167.024 232.279 164.69C232.333 162.411 230.543 160.539 228.263 160.458Z" fill="black"/>
<path d="M109.617 89.5067C109.617 91.8129 111.516 93.7121 113.823 93.7121C116.129 93.685 118.028 91.7586 118.001 89.4524C117.974 87.2005 116.129 85.3555 113.877 85.3284C111.544 85.3013 109.617 87.2005 109.617 89.5067Z" fill="black"/>
<path d="M5.84013 108.335C5.813 110.696 7.68509 112.568 10.0456 112.513C12.3517 112.486 14.1424 110.641 14.1153 108.335C14.0882 106.029 12.2703 104.238 9.99129 104.238C7.68509 104.238 5.86727 106.029 5.84013 108.335Z" fill="black"/>
<path d="M190.31 124.368C190.255 126.729 192.128 128.601 194.488 128.601C196.794 128.573 198.585 126.756 198.585 124.477C198.585 122.17 196.794 120.353 194.488 120.325C192.182 120.271 190.337 122.062 190.31 124.368Z" fill="black"/>
<path d="M182.029 114.44C181.974 116.774 183.711 118.591 186.017 118.646C188.35 118.673 190.141 116.936 190.168 114.63C190.195 112.297 188.432 110.506 186.098 110.506C183.846 110.479 182.083 112.188 182.029 114.44Z" fill="black"/>
<path d="M236.817 170.739C234.538 170.711 232.774 172.421 232.72 174.673C232.666 177.006 234.375 178.851 236.681 178.905C239.015 178.96 240.832 177.223 240.86 174.89C240.887 172.556 239.123 170.739 236.817 170.739Z" fill="black"/>
<path d="M128.23 91.0796C128.23 93.3858 130.021 95.1765 132.327 95.2036C134.634 95.2036 136.424 93.4129 136.451 91.1067C136.451 88.8005 134.661 87.0099 132.354 86.9827C130.021 86.9556 128.23 88.7463 128.23 91.0796Z" fill="black"/>
<path d="M72.9105 86.3867C72.8833 88.7471 74.7283 90.5921 77.0887 90.565C79.3949 90.5378 81.1585 88.72 81.1585 86.441C81.1585 84.1348 79.3678 82.3441 77.0616 82.3441C74.7554 82.3169 72.9376 84.0805 72.9105 86.3867Z" fill="black"/>
<path d="M15.7942 100.143C15.8485 102.367 17.612 104.104 19.864 104.104C22.1702 104.104 23.9337 102.313 23.9337 100.007C23.9066 97.7008 22.1159 95.9372 19.7826 95.9915C17.4764 95.9915 15.7399 97.8364 15.7942 100.143Z" fill="black"/>
<path d="M54.4583 84.4581C54.404 86.6829 56.1133 88.5278 58.311 88.6092C60.5358 88.6906 62.4079 86.9813 62.4893 84.7836C62.5978 82.4775 60.8342 80.6054 58.5552 80.5511C56.3304 80.524 54.5126 82.2333 54.4583 84.4581Z" fill="black"/>
<path d="M150.886 88.8828C148.58 88.8828 146.79 90.7006 146.817 93.0068C146.871 95.2316 148.662 96.9681 150.914 96.9409C153.166 96.9138 154.902 95.1231 154.902 92.8983C154.902 90.6735 153.138 88.9099 150.886 88.8828Z" fill="black"/>
<path d="M245.117 180.67C242.892 180.67 241.102 182.461 241.102 184.713C241.102 186.937 242.892 188.728 245.144 188.728C247.369 188.728 249.16 186.937 249.16 184.685C249.133 182.461 247.342 180.67 245.117 180.67Z" fill="black"/>
<path d="M247.852 213.36C247.825 215.612 249.507 217.403 251.732 217.484C254.038 217.566 255.883 215.802 255.937 213.523C255.964 211.271 254.282 209.481 252.057 209.399C249.751 209.318 247.906 211.054 247.852 213.36Z" fill="black"/>
<path d="M173.754 104.292C173.727 106.489 175.518 108.334 177.743 108.362C179.94 108.389 181.785 106.544 181.785 104.346C181.785 102.148 179.94 100.331 177.715 100.358C175.545 100.385 173.781 102.148 173.754 104.292Z" fill="black"/>
<path d="M105.602 75.6414C103.431 75.56 101.532 77.3236 101.45 79.5212C101.396 81.6918 103.187 83.591 105.385 83.6181C107.582 83.6724 109.427 81.8545 109.454 79.6569C109.481 77.5406 107.745 75.7228 105.602 75.6414Z" fill="black"/>
<path d="M26.0547 91.4045C26.0547 93.6021 27.8996 95.42 30.1244 95.3928C32.3221 95.3657 34.14 93.4936 34.0857 91.2959C34.0314 89.1525 32.2407 87.389 30.0973 87.389C27.8725 87.3618 26.0547 89.1797 26.0547 91.4045Z" fill="black"/>
<path d="M123.973 77.2151C121.857 77.2423 120.066 79.033 120.012 81.1492C119.985 83.3198 121.857 85.1919 124.028 85.1647C126.144 85.1376 127.934 83.3469 127.989 81.2306C128.016 79.0601 126.144 77.188 123.973 77.2151Z" fill="black"/>
<path d="M87.0151 73.8234C84.8445 73.7692 82.9453 75.6412 82.9453 77.8118C82.9453 79.928 84.7903 81.7459 86.9065 81.773C89.0228 81.773 90.8678 79.9823 90.8949 77.866C90.922 75.7498 89.1313 73.8777 87.0151 73.8234Z" fill="black"/>
<path d="M142.259 78.8167C140.197 78.7896 138.434 80.4718 138.325 82.5609C138.217 84.6772 139.98 86.5493 142.124 86.6035C144.24 86.6849 146.085 84.9214 146.139 82.778C146.166 80.6888 144.403 78.8439 142.259 78.8167Z" fill="black"/>
<path d="M39.8908 79.1399C37.7474 79.1941 35.9838 81.0391 36.0652 83.1554C36.1466 85.2445 37.883 86.9538 39.9722 86.9538C42.0884 86.9538 43.9063 85.136 43.8791 83.0197C43.8249 80.8763 42.007 79.0856 39.8908 79.1399Z" fill="black"/>
<path d="M217.41 136.145C217.383 138.261 219.201 140.106 221.345 140.106C223.461 140.106 225.306 138.261 225.279 136.145C225.252 134.001 223.407 132.211 221.29 132.265C219.174 132.319 217.41 134.083 217.41 136.145Z" fill="black"/>
<path d="M253.412 190.951C251.296 190.979 249.478 192.824 249.532 194.94C249.56 197.056 251.405 198.874 253.521 198.82C255.637 198.793 257.455 196.948 257.401 194.831C257.374 192.715 255.501 190.924 253.412 190.951Z" fill="black"/>
<path d="M209.082 126.271C209.082 128.387 210.873 130.205 213.016 130.205C215.16 130.205 216.95 128.36 216.896 126.244C216.869 124.154 215.132 122.445 213.043 122.391C210.927 122.364 209.082 124.154 209.082 126.271Z" fill="black"/>
<path d="M169.176 90.5637C167.06 90.5094 165.215 92.3001 165.215 94.4435C165.188 96.5598 167.006 98.3776 169.122 98.3776C171.266 98.3776 173.056 96.5327 173.002 94.4164C172.975 92.3544 171.238 90.618 169.176 90.5637Z" fill="black"/>
<path d="M226.067 146.349C226.04 148.465 227.857 150.283 229.974 150.283C232.117 150.283 233.908 148.465 233.881 146.322C233.854 144.233 232.117 142.496 230.055 142.469C227.912 142.442 226.094 144.205 226.067 146.349Z" fill="black"/>
<path d="M68.6786 72.384C66.5352 72.1941 64.636 73.8491 64.5003 76.0196C64.3647 78.1088 65.9383 79.9266 68.0546 80.1165C70.198 80.3065 72.0972 78.6514 72.2329 76.4809C72.3957 74.3917 70.7949 72.5739 68.6786 72.384Z" fill="black"/>
<path d="M234.454 156.197C234.4 158.368 236.164 160.131 238.307 160.131C240.396 160.131 242.133 158.449 242.16 156.36C242.214 154.189 240.45 152.426 238.307 152.426C236.218 152.426 234.509 154.081 234.454 156.197Z" fill="black"/>
<path d="M1.31016 94.3613C-0.833246 94.3613 -2.48828 96.0435 -2.48828 98.1869C-2.48828 100.33 -0.806105 101.985 1.3373 101.985C3.48071 101.985 5.13574 100.303 5.13574 98.1598C5.13574 95.9892 3.45357 94.3613 1.31016 94.3613Z" fill="black"/>
<path d="M200.805 116.067C200.778 118.264 202.514 119.974 204.712 119.946C206.828 119.919 208.483 118.21 208.483 116.094C208.456 113.95 206.801 112.295 204.658 112.295C202.514 112.268 200.832 113.923 200.805 116.067Z" fill="black"/>
<path d="M242.891 166.507C242.918 168.596 244.519 170.197 246.608 170.224C248.779 170.251 250.434 168.623 250.461 166.48C250.461 164.31 248.833 162.682 246.662 162.682C244.492 162.682 242.864 164.337 242.891 166.507Z" fill="black"/>
<path d="M160.787 80.5547C158.698 80.5547 157.07 82.1555 157.043 84.2175C157.016 86.3609 158.698 88.043 160.842 88.0159C162.904 87.9888 164.532 86.3609 164.505 84.2717C164.477 82.1826 162.849 80.5547 160.787 80.5547Z" fill="black"/>
<path d="M196.249 102.473C194.159 102.5 192.559 104.101 192.532 106.19C192.504 108.361 194.159 109.988 196.33 109.988C198.419 109.961 200.02 108.361 200.047 106.271C200.074 104.074 198.419 102.446 196.249 102.473Z" fill="black"/>
<path d="M265.543 204.762C265.543 202.673 263.942 201.045 261.853 201.018C259.682 200.991 258.027 202.619 258.027 204.789C258.027 206.878 259.628 208.506 261.717 208.533C263.888 208.561 265.543 206.933 265.543 204.762Z" fill="black"/>
<path d="M11.646 86.0853C9.47548 86.031 7.79331 87.6589 7.79331 89.8024C7.76618 91.8915 9.33983 93.5465 11.429 93.6008C13.5995 93.6551 15.2817 92.0271 15.2817 89.8837C15.2817 87.7675 13.708 86.1396 11.646 86.0853Z" fill="black"/>
<path d="M97.1117 65.7109C95.0225 65.7109 93.3946 67.3388 93.3675 69.4009C93.3404 71.5443 95.0225 73.1993 97.166 73.1722C99.228 73.145 100.829 71.49 100.829 69.4009C100.829 67.3388 99.2008 65.7109 97.1117 65.7109Z" fill="black"/>
<path d="M115.401 67.2601C113.312 67.233 111.657 68.8337 111.603 70.8958C111.549 73.0392 113.204 74.7213 115.347 74.7213C117.436 74.7213 119.037 73.0934 119.064 71.0043C119.091 68.9151 117.463 67.2872 115.401 67.2601Z" fill="black"/>
<path d="M50.2566 70.974C48.1674 70.9198 46.4853 72.4934 46.431 74.5825C46.3767 76.7259 48.0046 78.4352 50.148 78.4624C52.2372 78.4624 53.8651 76.8616 53.8922 74.7996C53.9194 72.6562 52.3186 71.0011 50.2566 70.974Z" fill="black"/>
<path d="M251.301 176.327C251.274 178.389 252.929 180.044 254.991 180.071C257.053 180.098 258.708 178.443 258.735 176.381C258.762 174.319 257.107 172.664 255.045 172.637C252.983 172.637 251.301 174.265 251.301 176.327Z" fill="black"/>
<path d="M137.591 72.981C137.673 70.9461 136.017 69.2096 134.01 69.1283C131.975 69.074 130.238 70.729 130.211 72.7639C130.184 74.7988 131.839 76.5081 133.874 76.5352C135.828 76.5623 137.51 74.9616 137.591 72.981Z" fill="black"/>
<path d="M21.3828 77.7832C19.3479 77.8103 17.6658 79.5196 17.72 81.5545C17.7472 83.5351 19.4022 85.163 21.3557 85.1902C23.3906 85.2173 25.0999 83.5351 25.0999 81.5003C25.0999 79.4654 23.4177 77.7832 21.3828 77.7832Z" fill="black"/>
<path d="M187.567 92.3294C185.532 92.3837 183.877 94.1201 183.931 96.1278C183.985 98.1085 185.667 99.7092 187.621 99.7092C189.656 99.7092 191.338 97.9999 191.311 95.9651C191.311 93.9573 189.602 92.2751 187.567 92.3294Z" fill="black"/>
<path d="M78.6349 64.1907C76.6 64.1365 74.8907 65.8186 74.8636 67.8535C74.8365 69.8884 76.5186 71.5977 78.5535 71.5977C80.5884 71.5977 82.2706 69.8884 82.2434 67.8535C82.2434 65.8729 80.6155 64.245 78.6349 64.1907Z" fill="black"/>
<path d="M260.038 186.422C259.957 188.376 261.585 190.112 263.565 190.194C265.519 190.248 267.255 188.593 267.282 186.639C267.337 184.686 265.654 182.977 263.674 182.95C261.775 182.922 260.119 184.496 260.038 186.422Z" fill="black"/>
<path d="M152.459 78.0043C154.413 77.9771 156.095 76.2407 156.041 74.2872C155.987 72.3609 154.359 70.7601 152.432 70.7601C150.479 70.733 148.77 72.4422 148.77 74.3957C148.797 76.3763 150.506 78.0585 152.459 78.0043Z" fill="black"/>
<path d="M60.0727 62.7269C58.1193 62.6998 56.4099 64.3819 56.3828 66.3354C56.3828 68.2889 58.065 69.9982 60.0185 69.9711C61.972 69.9439 63.6541 68.2346 63.627 66.2811C63.627 64.3819 61.9991 62.754 60.0727 62.7269Z" fill="black"/>
<path d="M179.239 82.5062C177.286 82.5333 175.631 84.2697 175.685 86.2232C175.739 88.1496 177.367 89.7232 179.293 89.7504C181.247 89.7504 182.929 88.0682 182.929 86.1147C182.902 84.1341 181.193 82.4791 179.239 82.5062Z" fill="black"/>
<path d="M274.088 214.937C274.061 212.983 272.352 211.301 270.425 211.328C268.472 211.356 266.79 213.065 266.817 214.991C266.844 216.945 268.553 218.627 270.48 218.6C272.433 218.6 274.115 216.89 274.088 214.937Z" fill="black"/>
<path d="M227.942 127.654C227.806 129.635 229.407 131.344 231.387 131.426C233.287 131.507 234.969 129.988 235.077 128.034C235.213 126.054 233.612 124.344 231.632 124.263C229.732 124.181 228.077 125.701 227.942 127.654Z" fill="black"/>
<path d="M31.6139 69.5645C29.6333 69.5645 27.9783 71.2466 28.0325 73.2272C28.0868 75.1536 29.6876 76.7272 31.6139 76.7272C33.5946 76.7272 35.2496 75.0451 35.1953 73.0644C35.1411 71.1381 33.5403 69.5645 31.6139 69.5645Z" fill="black"/>
<path d="M236.325 137.665C236.297 139.645 237.817 141.219 239.797 141.246C241.778 141.273 243.352 139.754 243.379 137.773C243.406 135.793 241.887 134.219 239.906 134.192C237.952 134.165 236.352 135.711 236.325 137.665Z" fill="black"/>
<path d="M223.168 114.113C221.188 114.113 219.641 115.687 219.668 117.668C219.668 119.648 221.242 121.195 223.223 121.168C225.203 121.168 226.75 119.594 226.723 117.613C226.695 115.66 225.149 114.113 223.168 114.113Z" fill="black"/>
<path d="M106.932 64.6013C108.939 64.6284 110.459 63.109 110.486 61.1284C110.486 59.2021 109.048 57.6827 107.122 57.6284C105.114 57.5741 103.54 59.0393 103.513 61.0199C103.459 63.0005 104.951 64.5741 106.932 64.6013Z" fill="black"/>
<path d="M248.153 144.448C246.227 144.475 244.735 145.94 244.707 147.866C244.68 149.874 246.173 151.42 248.153 151.42C250.134 151.448 251.68 149.928 251.68 147.92C251.68 145.94 250.161 144.42 248.153 144.448Z" fill="black"/>
<path d="M214.645 104.265C212.637 104.211 211.064 105.676 211.037 107.657C210.982 109.664 212.475 111.211 214.482 111.238C216.49 111.265 218.009 109.746 218.009 107.765C218.009 105.839 216.571 104.319 214.645 104.265Z" fill="black"/>
<path d="M3.20801 83.3744C5.13436 83.3744 6.59949 81.8822 6.62662 79.9558C6.62662 78.0295 5.1615 76.5372 3.26228 76.5101C1.28166 76.483 -0.237711 78.0295 -0.21058 80.0101C-0.21058 81.9365 1.28166 83.4016 3.20801 83.3744Z" fill="black"/>
<path d="M88.4589 63.0243C90.3852 63.0243 91.8775 61.5863 91.9317 59.6599C91.9588 57.6522 90.4666 56.1328 88.486 56.1328C86.5596 56.1328 85.0674 57.5708 85.0131 59.4971C84.9589 61.4778 86.4782 62.9971 88.4589 63.0243Z" fill="black"/>
<path d="M125.463 66.0911C127.39 66.1182 128.909 64.6802 128.99 62.781C129.045 60.7732 127.58 59.2267 125.599 59.1996C123.673 59.1725 122.153 60.6104 122.072 62.5097C122.018 64.5174 123.483 66.0639 125.463 66.0911Z" fill="black"/>
<path d="M41.4932 67.935C43.3924 67.935 44.9118 66.4699 44.9118 64.5435C44.9389 62.6443 43.4738 61.1249 41.5746 61.0707C39.594 61.0435 38.0474 62.5629 38.0746 64.5164C38.1017 66.4427 39.594 67.9079 41.4932 67.935Z" fill="black"/>
<path d="M170.83 79.3588C172.811 79.4131 174.384 77.9209 174.384 75.9402C174.384 74.0139 172.919 72.5216 171.02 72.4945C169.094 72.4674 167.574 73.9325 167.52 75.8317C167.493 77.7581 168.931 79.3046 170.83 79.3588Z" fill="black"/>
<path d="M206.181 94.1449C204.254 94.1449 202.762 95.6371 202.762 97.5364C202.735 99.517 204.281 101.036 206.262 101.009C208.161 100.982 209.626 99.4627 209.599 97.5364C209.599 95.61 208.107 94.1178 206.181 94.1449Z" fill="black"/>
<path d="M268.559 196.539C268.613 198.438 270.105 199.904 272.059 199.876C273.985 199.849 275.45 198.357 275.45 196.431C275.45 194.504 273.958 193.012 272.032 193.012C270.024 192.985 268.532 194.531 268.559 196.539Z" fill="black"/>
<path d="M253.414 157.825C253.414 159.751 254.879 161.243 256.806 161.27C258.732 161.298 260.251 159.832 260.278 157.933C260.306 156.007 258.868 154.487 256.968 154.433C254.988 154.325 253.414 155.844 253.414 157.825Z" fill="black"/>
<path d="M143.943 67.5835C145.815 67.6378 147.415 66.1455 147.47 64.2734C147.524 62.4556 146.086 60.9091 144.268 60.8006C142.396 60.6921 140.768 62.1572 140.687 64.0293C140.605 65.9013 142.071 67.5293 143.943 67.5835Z" fill="black"/>
<path d="M70.1707 61.0977C72.0427 61.1249 73.6164 59.6055 73.6164 57.7063C73.6164 55.8342 72.0699 54.2877 70.1978 54.3148C68.38 54.3419 66.8877 55.8071 66.8334 57.6249C66.7792 59.497 68.2986 61.0706 70.1707 61.0977Z" fill="black"/>
<path d="M13.115 74.666C14.9329 74.6388 16.4523 73.0923 16.4251 71.2745C16.4251 69.4567 14.8786 67.9373 13.0608 67.9102C11.1887 67.9102 9.61507 69.5109 9.66933 71.383C9.75073 73.2008 11.3244 74.7202 13.115 74.666Z" fill="black"/>
<path d="M197.718 91.0525C199.509 91.1339 201.11 89.6417 201.218 87.851C201.327 86.0603 199.862 84.4324 198.044 84.3238C196.199 84.2153 194.517 85.7347 194.462 87.6068C194.408 89.3975 195.9 90.9711 197.718 91.0525Z" fill="black"/>
<path d="M261.8 167.862C261.719 169.734 263.238 171.362 265.137 171.389C266.955 171.416 268.502 169.951 268.583 168.133C268.664 166.261 267.145 164.633 265.246 164.606C263.428 164.579 261.881 166.044 261.8 167.862Z" fill="black"/>
<path d="M277.016 206.659C277.043 208.45 278.617 209.996 280.407 209.942C282.198 209.888 283.745 208.287 283.663 206.524C283.582 204.787 282.09 203.322 280.353 203.295C278.562 203.295 276.989 204.869 277.016 206.659Z" fill="black"/>
<path d="M162.205 69.3471C163.968 69.4013 165.569 67.882 165.623 66.0913C165.65 64.3006 164.131 62.7269 162.34 62.7269C160.604 62.6998 159.085 64.1649 159.003 65.9013C158.922 67.6649 160.414 69.2928 162.205 69.3471Z" fill="black"/>
<path d="M51.5841 59.4448C53.3206 59.5262 54.8671 58.0882 54.9756 56.3247C55.0841 54.5882 53.6732 53.0146 51.9097 52.9061C50.0919 52.7975 48.4911 54.2626 48.4368 56.1076C48.3554 57.8169 49.8206 59.3634 51.5841 59.4448Z" fill="black"/>
<path d="M189.251 80.744C191.014 80.7169 192.452 79.2247 192.452 77.4611C192.452 75.6975 190.987 74.2324 189.224 74.2324C187.406 74.2324 185.887 75.7518 185.968 77.5696C185.995 79.3603 187.487 80.7712 189.251 80.744Z" fill="black"/>
<path d="M270.267 177.793C270.213 179.557 271.624 181.076 273.387 181.158C275.205 181.239 276.779 179.747 276.779 177.929C276.806 176.165 275.341 174.673 273.577 174.646C271.841 174.592 270.349 176.03 270.267 177.793Z" fill="black"/>
<path d="M98.6279 54.1242C100.419 54.1513 101.857 52.7405 101.857 50.9498C101.884 49.1591 100.473 47.7211 98.6822 47.7211C96.8915 47.694 95.4535 49.1048 95.4535 50.8955C95.4264 52.6862 96.8372 54.097 98.6279 54.1242Z" fill="black"/>
<path d="M117.162 55.9714C118.953 55.9985 120.391 54.5877 120.418 52.7699C120.445 50.9792 119.035 49.5412 117.217 49.5141C115.399 49.4869 113.988 50.8978 113.961 52.7156C113.961 54.5334 115.372 55.9714 117.162 55.9714Z" fill="black"/>
<path d="M80.0731 52.5254C81.8367 52.5526 83.2204 51.2503 83.2747 49.5138C83.3289 47.6689 81.9995 46.258 80.1816 46.2309C78.4181 46.2038 77.0344 47.5061 76.9801 49.2425C76.8987 51.0603 78.2282 52.4983 80.0731 52.5254Z" fill="black"/>
<path d="M135.418 57.4643C137.209 57.4643 138.566 56.1619 138.593 54.3984C138.647 52.5534 137.263 51.1426 135.446 51.1426C133.655 51.1426 132.298 52.4449 132.271 54.2085C132.217 56.0534 133.573 57.4643 135.418 57.4643Z" fill="black"/>
<path d="M281.905 184.982C280.142 184.982 278.785 186.339 278.785 188.075C278.785 189.839 280.142 191.196 281.878 191.196C283.642 191.196 284.998 189.839 284.998 188.103C284.998 186.339 283.642 184.982 281.905 184.982Z" fill="black"/>
<path d="M23.2057 66.1728C24.9964 66.1999 26.4343 64.8162 26.4615 62.9984C26.4886 61.2077 25.1049 59.7697 23.2871 59.7426C21.4964 59.7154 20.0584 61.0992 20.0312 62.917C20.0313 64.7077 21.415 66.1457 23.2057 66.1728Z" fill="black"/>
<path d="M233.096 106.139C231.252 106.112 229.868 107.496 229.895 109.341C229.922 111.158 231.333 112.515 233.178 112.461C234.941 112.406 236.244 111.05 236.217 109.259C236.217 107.496 234.887 106.166 233.096 106.139Z" fill="black"/>
<path d="M241.506 116.337C239.661 116.283 238.25 117.667 238.25 119.485C238.25 121.275 239.552 122.632 241.316 122.659C243.161 122.713 244.572 121.33 244.572 119.512C244.572 117.748 243.269 116.365 241.506 116.337Z" fill="black"/>
<path d="M224.687 102.529C226.451 102.529 227.807 101.227 227.834 99.4633C227.862 97.6454 226.478 96.2617 224.66 96.2617C222.896 96.2889 221.567 97.6454 221.594 99.409C221.594 101.2 222.924 102.529 224.687 102.529Z" fill="black"/>
<path d="M250.104 132.562C251.867 132.535 253.197 131.206 253.224 129.415C253.224 127.57 251.84 126.186 249.995 126.213C248.232 126.24 246.902 127.57 246.875 129.361C246.875 131.206 248.259 132.589 250.104 132.562Z" fill="black"/>
<path d="M258.378 136.445C256.614 136.445 255.285 137.802 255.258 139.565C255.258 141.41 256.642 142.767 258.486 142.713C260.25 142.658 261.552 141.302 261.525 139.511C261.498 137.748 260.142 136.445 258.378 136.445Z" fill="black"/>
<path d="M33.2174 57.709C34.8995 57.6819 36.229 56.2982 36.229 54.616C36.229 52.8796 34.791 51.4687 33.0546 51.523C31.3724 51.5501 30.043 52.9338 30.043 54.616C30.0701 56.3524 31.481 57.7362 33.2174 57.709Z" fill="black"/>
<path d="M153.898 58.9288C155.58 58.956 156.991 57.6537 157.072 55.9986C157.154 54.2622 155.797 52.7971 154.061 52.7699C152.379 52.7428 150.968 54.0451 150.886 55.7002C150.805 57.4366 152.161 58.9017 153.898 58.9288Z" fill="black"/>
<path d="M61.543 50.8956C63.2795 50.9227 64.6903 49.5119 64.6632 47.7755C64.636 46.1204 63.2795 44.7367 61.6244 44.7367C59.888 44.7096 58.4772 46.1204 58.5043 47.8569C58.5043 49.5119 59.888 50.8685 61.543 50.8956Z" fill="black"/>
<path d="M180.871 70.6747C182.607 70.6747 183.991 69.2639 183.964 67.5274C183.937 65.8453 182.607 64.5158 180.925 64.4887C179.189 64.4615 177.778 65.8181 177.778 67.5546C177.751 69.291 179.134 70.7019 180.871 70.6747Z" fill="black"/>
<path d="M216.352 92.2979C218.088 92.3251 219.499 90.8871 219.472 89.1778C219.445 87.5228 218.088 86.1662 216.433 86.139C214.697 86.1119 213.286 87.5499 213.313 89.2592C213.313 90.9142 214.697 92.2708 216.352 92.2979Z" fill="black"/>
<path d="M266.823 146.375C265.14 146.348 263.73 147.651 263.675 149.333C263.594 151.069 264.978 152.534 266.714 152.561C268.396 152.589 269.807 151.286 269.861 149.604C269.916 147.895 268.532 146.43 266.823 146.375Z" fill="black"/>
<path d="M4.62185 64.408C6.24975 64.4623 7.68774 63.0786 7.71487 61.4507C7.742 59.877 6.41254 58.4933 4.81177 58.439C3.18387 58.3848 1.74588 59.7685 1.71875 61.3964C1.71875 62.9429 3.04821 64.3266 4.62185 64.408Z" fill="black"/>
<path d="M207.646 82.3433C209.274 82.3976 210.739 80.9867 210.739 79.3588C210.739 77.7852 209.409 76.4015 207.836 76.3472C206.208 76.293 204.743 77.7038 204.743 79.3317C204.715 80.8782 206.045 82.2891 207.646 82.3433Z" fill="black"/>
<path d="M275.146 156.656C273.572 156.602 272.161 157.931 272.053 159.532C271.944 161.16 273.355 162.652 274.983 162.706C276.557 162.761 277.967 161.431 278.076 159.83C278.185 158.202 276.801 156.71 275.146 156.656Z" fill="black"/>
<path d="M90.356 43.9525C91.9839 43.9253 93.2862 42.5959 93.2591 40.968C93.232 39.3401 91.9025 38.0377 90.2746 38.0649C88.6467 38.092 87.3444 39.4215 87.3715 41.0494C87.3986 42.6773 88.7281 43.9796 90.356 43.9525Z" fill="black"/>
<path d="M127.036 47.0462C128.664 47.0733 129.993 45.771 130.02 44.1431C130.048 42.5152 128.745 41.1858 127.117 41.1586C125.489 41.1315 124.16 42.4338 124.133 44.0617C124.133 45.6896 125.408 47.0191 127.036 47.0462Z" fill="black"/>
<path d="M287.574 197.868C287.493 199.469 288.795 200.88 290.423 200.934C292.024 201.015 293.434 199.713 293.489 198.085C293.57 196.484 292.268 195.074 290.64 195.019C289.039 194.965 287.655 196.24 287.574 197.868Z" fill="black"/>
<path d="M108.592 45.5243C110.192 45.4971 111.522 44.1405 111.522 42.5398C111.522 40.939 110.192 39.6095 108.592 39.5824C106.936 39.5553 105.553 40.9933 105.607 42.6212C105.634 44.2491 106.991 45.5514 108.592 45.5243Z" fill="black"/>
<path d="M172.404 60.2832C174.059 60.3375 175.361 59.0894 175.416 57.4344C175.443 55.7793 174.195 54.477 172.54 54.477C170.939 54.4499 169.691 55.6437 169.609 57.2445C169.528 58.8995 170.749 60.2289 172.404 60.2832Z" fill="black"/>
<path d="M43.31 49.1597C44.965 49.1868 46.2402 47.9116 46.2402 46.2566C46.2402 44.6016 44.9379 43.3535 43.2829 43.3535C41.6821 43.3806 40.4612 44.6016 40.434 46.1752C40.4069 47.8574 41.655 49.1597 43.31 49.1597Z" fill="black"/>
<path d="M283.749 172.391C285.35 172.391 286.571 171.171 286.571 169.57C286.571 167.969 285.404 166.721 283.803 166.694C282.175 166.667 280.927 167.833 280.9 169.434C280.846 171.116 282.067 172.419 283.749 172.391Z" fill="black"/>
<path d="M199.423 71.9796C201.024 71.9524 202.218 70.7586 202.218 69.1579C202.218 67.5571 201.024 66.3362 199.423 66.309C197.823 66.2819 196.574 67.4757 196.547 69.0494C196.52 70.7315 197.741 71.9796 199.423 71.9796Z" fill="black"/>
<path d="M71.7399 42.2962C73.3406 42.3233 74.5616 41.1024 74.5887 39.5016C74.6158 37.9008 73.3949 36.6799 71.7941 36.6528C70.1934 36.6257 68.9724 37.8466 68.9453 39.4474C68.9453 41.0481 70.1391 42.2691 71.7399 42.2962Z" fill="black"/>
<path d="M145.704 48.8072C147.305 48.7801 148.472 47.5321 148.472 45.9313C148.445 44.3305 147.251 43.1367 145.623 43.1367C144.022 43.1367 142.801 44.3305 142.801 45.9313C142.774 47.5863 144.022 48.8344 145.704 48.8072Z" fill="black"/>
<path d="M14.6029 55.8914C16.2037 55.8914 17.4246 54.6977 17.4246 53.0698C17.4246 51.469 16.2037 50.248 14.6029 50.248C13.0022 50.248 11.7812 51.4418 11.7812 53.0698C11.7812 54.6705 13.0022 55.8914 14.6029 55.8914Z" fill="black"/>
<path d="M251.683 113.625C253.175 113.597 254.396 112.322 254.396 110.803C254.369 109.311 253.121 108.062 251.628 108.062C250.136 108.062 248.861 109.283 248.861 110.803C248.807 112.376 250.109 113.652 251.683 113.625Z" fill="black"/>
<path d="M301.629 208.371C301.737 206.852 300.489 205.468 298.943 205.414C297.477 205.36 296.175 206.581 296.094 208.046C296.012 209.511 297.206 210.84 298.698 210.922C300.191 211.03 301.52 209.863 301.629 208.371Z" fill="black"/>
<path d="M268.231 133.676C269.696 133.703 270.998 132.482 271.052 130.99C271.08 129.525 269.859 128.223 268.366 128.168C266.901 128.141 265.599 129.362 265.545 130.854C265.49 132.347 266.738 133.649 268.231 133.676Z" fill="black"/>
<path d="M260.036 123.826C261.528 123.772 262.749 122.497 262.722 121.005C262.695 119.512 261.447 118.264 259.928 118.291C258.435 118.291 257.187 119.54 257.16 121.032C257.16 122.578 258.49 123.881 260.036 123.826Z" fill="black"/>
<path d="M243.158 103.724C244.705 103.779 246.034 102.476 246.007 100.93C245.98 99.4375 244.732 98.1895 243.24 98.1895C241.748 98.1895 240.5 99.4104 240.445 100.903C240.472 102.395 241.666 103.67 243.158 103.724Z" fill="black"/>
<path d="M291.999 177.006C290.561 177.06 289.367 178.281 289.34 179.719C289.313 181.211 290.615 182.486 292.081 182.486C293.573 182.486 294.848 181.184 294.821 179.692C294.794 178.227 293.464 176.951 291.999 177.006Z" fill="black"/>
<path d="M164.129 50.2467C165.621 50.2738 166.896 48.9715 166.896 47.5064C166.896 46.0141 165.594 44.7389 164.102 44.7661C162.61 44.7932 161.362 46.1226 161.416 47.5877C161.47 49.0257 162.718 50.2195 164.129 50.2467Z" fill="black"/>
<path d="M234.456 93.494C235.921 93.5754 237.278 92.3545 237.332 90.8622C237.386 89.3971 236.138 88.0677 234.673 88.0134C233.208 87.9591 231.879 89.2343 231.852 90.7266C231.852 92.1645 233.045 93.4126 234.456 93.494Z" fill="black"/>
<path d="M53.1552 40.3441C54.6203 40.3984 55.9498 39.1232 55.9498 37.6581C55.9769 36.1929 54.6746 34.8906 53.2095 34.8906C51.7986 34.8906 50.5506 36.0844 50.4692 37.5224C50.4421 38.9604 51.6901 40.317 53.1552 40.3441Z" fill="black"/>
<path d="M191.096 61.643C192.506 61.6159 193.727 60.3407 193.754 58.957C193.754 57.4919 192.452 56.1896 190.987 56.2438C189.576 56.271 188.355 57.5461 188.328 58.9299C188.328 60.395 189.658 61.6973 191.096 61.643Z" fill="black"/>
<path d="M24.6149 47.1247C26.0529 47.2332 27.4366 46.0123 27.518 44.5472C27.5994 43.1634 26.4327 41.834 24.9948 41.7255C23.5568 41.6169 22.1731 42.8379 22.0917 44.303C22.0374 45.6867 23.2041 46.989 24.6149 47.1247Z" fill="black"/>
<path d="M226.311 83.5383C227.749 83.5112 228.943 82.2631 228.943 80.8251C228.915 79.3872 227.667 78.1934 226.229 78.1934C224.791 78.2205 223.598 79.4686 223.598 80.9065C223.625 82.3716 224.873 83.5654 226.311 83.5383Z" fill="black"/>
<path d="M100.229 35.3263C101.667 35.2992 102.861 34.0782 102.834 32.6403C102.807 31.2023 101.586 30.0085 100.148 30.0356C98.7101 30.0627 97.5163 31.2837 97.5434 32.7216C97.5706 34.1596 98.7915 35.3534 100.229 35.3263Z" fill="black"/>
<path d="M118.707 36.8712C120.145 36.8983 121.366 35.7046 121.393 34.2666C121.42 32.8286 120.226 31.6077 118.788 31.5805C117.35 31.5534 116.129 32.7472 116.102 34.1852C116.075 35.6232 117.242 36.8441 118.707 36.8712Z" fill="black"/>
<path d="M276.91 143.797C278.348 143.824 279.596 142.603 279.623 141.165C279.65 139.727 278.429 138.479 276.991 138.452C275.553 138.424 274.305 139.645 274.278 141.083C274.251 142.521 275.444 143.769 276.91 143.797Z" fill="black"/>
<path d="M285.351 153.537C286.789 153.51 287.847 152.398 287.82 150.932C287.793 149.494 286.681 148.436 285.216 148.463C283.778 148.491 282.719 149.603 282.747 151.068C282.774 152.533 283.886 153.591 285.351 153.537Z" fill="black"/>
<path d="M137.316 38.3085C138.754 38.2814 139.812 37.2232 139.84 35.7853C139.84 34.3473 138.781 33.262 137.343 33.2349C135.905 33.2078 134.793 34.2659 134.766 35.6767C134.685 37.1961 135.797 38.3085 137.316 38.3085Z" fill="black"/>
<path d="M81.6441 33.3687C83.082 33.3958 84.1673 32.3376 84.2216 30.8997C84.2487 29.4617 83.2177 28.3493 81.7797 28.295C80.3417 28.2408 79.2022 29.2718 79.1479 30.6826C79.0394 32.1749 80.1518 33.3415 81.6441 33.3687Z" fill="black"/>
<path d="M63.3041 31.7425C64.6335 31.7968 65.8002 30.7658 65.8816 29.4363C65.963 28.1069 64.9591 26.9402 63.6297 26.8317C62.2459 26.7232 61.025 27.8084 60.9707 29.2193C60.9165 30.5216 61.9746 31.6883 63.3041 31.7425Z" fill="black"/>
<path d="M182.383 51.5489C183.821 51.5489 184.906 50.4365 184.879 48.9985C184.852 47.5606 183.739 46.5024 182.301 46.5567C180.945 46.5838 179.914 47.6419 179.887 49.0257C179.887 50.4636 180.972 51.5489 182.383 51.5489Z" fill="black"/>
<path d="M300.323 192.147C301.761 192.201 302.901 191.143 302.928 189.705C302.955 188.267 301.87 187.154 300.432 187.154C299.048 187.154 297.963 188.158 297.908 189.515C297.854 190.953 298.885 192.092 300.323 192.147Z" fill="black"/>
<path d="M34.6819 38.551C36.0656 38.551 37.1509 37.52 37.178 36.1635C37.2323 34.7255 36.147 33.5859 34.709 33.5859C33.3253 33.5859 32.24 34.6169 32.2129 35.9735C32.1586 37.4115 33.2439 38.551 34.6819 38.551Z" fill="black"/>
<path d="M155.609 39.7739C156.938 39.7196 157.996 38.5801 157.969 37.2507C157.942 35.9212 156.83 34.8359 155.473 34.8359C154.144 34.8359 153.031 35.9483 153.031 37.2778C153.031 38.6886 154.225 39.8282 155.609 39.7739Z" fill="black"/>
<path d="M217.794 73.1742C219.232 73.2556 220.398 72.1974 220.426 70.7595C220.48 69.3215 219.422 68.1819 217.984 68.1548C216.546 68.1277 215.433 69.1858 215.406 70.6238C215.406 72.0346 216.41 73.1199 217.794 73.1742Z" fill="black"/>
<path d="M293.598 163.659C294.9 163.659 296.04 162.546 296.067 161.217C296.067 159.915 294.955 158.775 293.625 158.748C292.323 158.748 291.183 159.86 291.156 161.19C291.156 162.519 292.296 163.659 293.598 163.659Z" fill="black"/>
<path d="M209.216 63.2166C210.519 63.2438 211.713 62.1042 211.685 60.8019C211.685 59.5539 210.573 58.4415 209.325 58.3872C208.023 58.3601 206.829 59.4996 206.856 60.8019C206.856 62.05 207.968 63.1624 209.216 63.2166Z" fill="black"/>
<path d="M6.16607 45.2805C7.46839 45.3348 8.66218 44.1953 8.68932 42.8929C8.68932 41.6449 7.60405 40.5053 6.38312 40.4511C5.0808 40.3968 3.887 41.5364 3.85987 42.8387C3.83274 44.0867 4.91801 45.2263 6.16607 45.2805Z" fill="black"/>
<path d="M311.045 199.77C311.017 198.522 310.041 197.572 308.766 197.545C307.436 197.545 306.432 198.576 306.486 199.905C306.514 201.208 307.599 202.184 308.928 202.13C310.176 202.049 311.099 201.018 311.045 199.77Z" fill="black"/>
<path d="M261.527 104.782C262.802 104.754 263.752 103.778 263.752 102.502C263.752 101.227 262.802 100.251 261.527 100.251C260.252 100.223 259.248 101.173 259.221 102.448C259.167 103.778 260.198 104.809 261.527 104.782Z" fill="black"/>
<path d="M110.379 26.2874C111.654 26.2874 112.604 25.3649 112.631 24.0897C112.658 22.8145 111.736 21.8378 110.46 21.7835C109.185 21.7293 108.181 22.6517 108.127 23.9269C108.073 25.2564 109.05 26.2603 110.379 26.2874Z" fill="black"/>
<path d="M253.093 94.5244C254.395 94.5515 255.345 93.6291 255.372 92.3539C255.399 91.0515 254.477 90.1019 253.202 90.0748C251.899 90.0477 250.95 90.9701 250.922 92.2453C250.895 93.5477 251.818 94.4973 253.093 94.5244Z" fill="black"/>
<path d="M278.406 124.779C279.681 124.833 280.685 123.883 280.685 122.608C280.685 121.387 279.79 120.438 278.596 120.41C277.321 120.356 276.317 121.306 276.317 122.581C276.29 123.775 277.185 124.724 278.406 124.779Z" fill="black"/>
<path d="M200.921 52.7979C202.142 52.7979 203.064 51.9025 203.119 50.6816C203.146 49.4064 202.196 48.4297 200.921 48.4297C199.7 48.4297 198.777 49.325 198.723 50.546C198.696 51.794 199.673 52.7979 200.921 52.7979Z" fill="black"/>
<path d="M174.115 41.075C175.39 41.0478 176.313 40.0711 176.259 38.7688C176.231 37.4936 175.255 36.5711 173.952 36.5982C172.677 36.6254 171.755 37.6021 171.782 38.9044C171.863 40.2068 172.84 41.1292 174.115 41.075Z" fill="black"/>
<path d="M16.4484 36.708C17.7236 36.708 18.6732 35.7313 18.6461 34.4561C18.619 33.2623 17.6694 32.3398 16.4756 32.3398C15.2004 32.3398 14.2508 33.3166 14.2779 34.5918C14.305 35.7856 15.2547 36.708 16.4484 36.708Z" fill="black"/>
<path d="M44.9129 29.9516C46.2152 29.9516 47.1377 29.0019 47.1377 27.7268C47.1377 26.4516 46.1881 25.502 44.9129 25.502C43.6377 25.502 42.6881 26.4516 42.6881 27.7268C42.6609 29.0291 43.6105 29.9516 44.9129 29.9516Z" fill="black"/>
<path d="M301.848 173.313C303.151 173.368 304.127 172.472 304.209 171.224C304.263 169.922 303.368 168.945 302.12 168.864C300.817 168.809 299.84 169.705 299.759 170.953C299.678 172.255 300.573 173.259 301.848 173.313Z" fill="black"/>
<path d="M128.639 28.1056C129.914 28.1056 130.863 27.156 130.863 25.8537C130.863 24.5785 129.914 23.6289 128.612 23.6289C127.336 23.6289 126.387 24.5785 126.387 25.8808C126.414 27.1832 127.363 28.1056 128.639 28.1056Z" fill="black"/>
<path d="M244.762 84.6227C245.982 84.6498 246.932 83.7545 247.013 82.5607C247.068 81.2855 246.145 80.2816 244.87 80.2545C243.649 80.2274 242.7 81.1227 242.618 82.3165C242.537 83.5646 243.486 84.5956 244.762 84.6227Z" fill="black"/>
<path d="M91.8188 24.7136C93.1211 24.7408 94.0707 23.8183 94.0978 22.516C94.125 21.2408 93.2025 20.264 91.9002 20.2369C90.625 20.2098 89.6482 21.1323 89.6211 22.4346C89.6211 23.7369 90.5436 24.6865 91.8188 24.7136Z" fill="black"/>
<path d="M270.209 114.63C271.485 114.603 272.407 113.626 272.38 112.351C272.353 111.076 271.376 110.153 270.101 110.18C268.826 110.207 267.903 111.184 267.93 112.459C267.93 113.735 268.907 114.657 270.209 114.63Z" fill="black"/>
<path d="M147.167 29.5718C148.333 29.5718 149.31 28.5679 149.31 27.4012C149.31 26.2346 148.306 25.2578 147.14 25.2578C145.973 25.2578 144.996 26.2617 144.996 27.4284C145.023 28.6221 146 29.5989 147.167 29.5718Z" fill="black"/>
<path d="M73.2593 23.0879C74.4259 23.1151 75.4298 22.1655 75.4841 20.9988C75.5112 19.8321 74.5616 18.8283 73.3949 18.774C72.2283 18.7469 71.2244 19.6965 71.1701 20.8631C71.1159 22.0569 72.0926 23.0608 73.2593 23.0879Z" fill="black"/>
<path d="M286.815 134.951C287.982 134.951 288.986 133.974 288.986 132.807C288.986 131.641 288.009 130.637 286.842 130.637C285.676 130.637 284.672 131.613 284.672 132.78C284.672 133.947 285.649 134.951 286.815 134.951Z" fill="black"/>
<path d="M236.406 74.3417C237.546 74.4231 238.577 73.3921 238.577 72.2254C238.577 71.0859 237.573 70.082 236.433 70.082C235.294 70.1092 234.263 71.1402 234.344 72.2797C234.453 73.5278 235.185 74.2603 236.406 74.3417Z" fill="black"/>
<path d="M227.887 64.3268C229 64.2183 229.705 63.5943 229.787 62.4005C229.868 61.2609 228.945 60.3113 227.806 60.3385C226.612 60.3927 225.907 61.071 225.825 62.2648C225.744 63.4043 226.666 64.3268 227.887 64.3268Z" fill="black"/>
<path d="M26.3214 28.1607C27.461 28.215 28.3563 27.2654 28.3292 26.0716C28.1935 24.932 27.5424 24.2537 26.3486 24.1995C25.209 24.1452 24.2594 25.0948 24.3408 26.2344C24.4493 27.4553 25.1276 28.1064 26.3214 28.1607Z" fill="black"/>
<path d="M317.392 211.705C318.531 211.759 319.427 210.81 319.399 209.643C319.372 208.558 318.504 207.717 317.419 207.717C316.279 207.717 315.33 208.639 315.411 209.779C315.52 210.973 316.198 211.651 317.392 211.705Z" fill="black"/>
<path d="M295.149 144.691C296.261 144.746 297.211 143.769 297.211 142.657C297.211 141.544 296.234 140.595 295.122 140.622C294.009 140.649 293.033 141.653 293.141 142.765C293.25 143.959 293.955 144.637 295.149 144.691Z" fill="black"/>
<path d="M310.637 183.326C311.75 183.326 312.699 182.349 312.672 181.237C312.645 180.125 311.641 179.148 310.529 179.256C309.335 179.365 308.657 180.07 308.602 181.264C308.521 182.404 309.525 183.353 310.637 183.326Z" fill="black"/>
<path d="M192.502 42.7039C193.696 42.7039 194.429 42.0527 194.564 40.8589C194.7 39.7194 193.805 38.7698 192.665 38.7155C191.58 38.6884 190.684 39.4752 190.603 40.5605C190.522 41.7 191.363 42.7039 192.502 42.7039Z" fill="black"/>
<path d="M165.697 30.9295C166.918 30.9024 167.569 30.197 167.677 29.0032C167.596 27.8094 166.999 27.0497 165.778 27.0226C164.584 26.9683 163.852 27.6466 163.743 28.8675C163.635 30.007 164.53 30.9838 165.697 30.9295Z" fill="black"/>
<path d="M54.6775 21.3519C55.8442 21.4604 56.7938 20.5379 56.7395 19.3712C56.6853 18.1503 56.007 17.5263 54.7861 17.3906C53.5923 17.472 52.8597 18.0961 52.8054 19.317C52.7783 20.5379 53.4837 21.2433 54.6775 21.3519Z" fill="black"/>
<path d="M303.884 154.702C305.051 154.675 305.621 153.943 305.729 152.695C305.512 151.718 304.97 150.958 303.776 151.013C302.636 151.067 301.958 151.745 301.985 152.912C302.012 154.078 302.718 154.73 303.884 154.702Z" fill="black"/>
<path d="M318.993 192.931C320.052 192.904 320.866 192.171 320.676 191.14C320.54 190.408 319.78 189.784 319.265 189.105C319.021 189.105 318.776 189.105 318.559 189.133C318.098 189.811 317.338 190.462 317.257 191.222C317.121 192.253 317.935 192.958 318.993 192.931Z" fill="black"/>
<path d="M138.784 18.9632C139.543 18.7732 140.167 18.0949 140.846 17.6337C140.846 17.3895 140.873 17.1725 140.873 16.9283C140.222 16.4128 139.625 15.6531 138.892 15.4903C137.888 15.2732 137.183 16.0329 137.02 17.0911C136.911 18.0407 137.888 19.2073 138.784 18.9632Z" fill="black"/>
<path d="M219.42 53.9625C220.587 53.9897 221.184 53.2571 221.32 52.1447C221.157 51.0323 220.587 50.2998 219.42 50.3269C218.335 50.354 217.684 51.0052 217.63 52.0633C217.603 53.23 218.281 53.9354 219.42 53.9625Z" fill="black"/>
<path d="M120.229 17.4966C121.369 17.5237 122.101 16.8454 122.129 15.7059C122.156 14.5392 121.423 13.9694 120.311 13.8066C119.198 13.9694 118.466 14.5663 118.493 15.7059C118.493 16.7911 119.144 17.4694 120.229 17.4966Z" fill="black"/>
<path d="M101.75 15.9518C102.89 15.9518 103.595 15.2464 103.568 14.1069C103.541 12.9402 102.808 12.3705 101.669 12.2891C100.556 12.479 99.8508 13.103 99.9321 14.2697C99.9864 15.3007 100.665 15.979 101.75 15.9518Z" fill="black"/>
<path d="M83.5447 14.3255C84.3044 14.1084 84.9013 13.403 85.5795 12.9417C85.5795 12.6976 85.5795 12.4805 85.5795 12.2363C84.9013 11.7479 84.2772 10.9883 83.5447 10.8526C82.5137 10.6627 81.8354 11.4495 81.7268 12.5076C81.6183 13.4844 82.6222 14.5968 83.5447 14.3255Z" fill="black"/>
<path d="M184.15 32.1495C184.801 32.0681 185.778 31.2271 185.832 30.6573C185.913 30.0061 185.1 29.2736 184.693 28.5681C184.448 28.5681 184.231 28.541 183.987 28.541C183.499 29.1379 182.739 29.7077 182.576 30.386C182.359 31.417 183.119 32.2852 184.15 32.1495Z" fill="black"/>
<path d="M36.5235 19.1808C37.1747 19.0723 38.0971 18.204 38.1514 17.6071C38.2057 16.956 37.3646 16.2506 36.9305 15.5723C36.6863 15.5723 36.4692 15.5723 36.225 15.5723C35.7638 16.1963 35.0041 16.7661 34.8956 17.4715C34.7057 18.5025 35.4925 19.3707 36.5235 19.1808Z" fill="black"/>
<path d="M211.118 43.7359C211.661 43.8173 212.312 43.0577 212.909 42.6778C212.909 42.4336 212.936 42.1894 212.936 41.9453C212.366 41.5111 211.824 40.86 211.172 40.7243C210.169 40.5344 209.382 41.2398 209.599 42.2437C209.762 42.8677 210.548 43.6546 211.118 43.7359Z" fill="black"/>
<path d="M271.679 95.7192C272.655 95.9362 273.442 95.1765 273.252 94.1727C273.144 93.4944 272.466 92.8975 272.031 92.2734C271.787 92.2734 271.516 92.2734 271.272 92.2734C270.865 92.9246 270.132 93.6029 270.186 94.1998C270.214 94.7967 271.055 95.5835 271.679 95.7192Z" fill="black"/>
<path d="M254.744 75.5866C255.395 75.4781 255.938 74.827 256.507 74.3928C256.507 74.1487 256.507 73.9045 256.507 73.6603C255.911 73.2804 255.259 72.5208 254.717 72.575C254.147 72.6564 253.333 73.4161 253.197 74.013C252.98 75.044 253.74 75.7766 254.744 75.5866Z" fill="black"/>
<path d="M312.048 164.309C312.997 164.58 313.838 163.902 313.73 162.871C313.648 162.193 313.024 161.569 312.617 160.89C312.373 160.89 312.102 160.863 311.858 160.863C311.424 161.487 310.637 162.111 310.637 162.708C310.664 163.278 311.451 164.146 312.048 164.309Z" fill="black"/>
<path d="M279.978 105.596C280.954 105.84 281.741 105.108 281.605 104.077C281.497 103.398 280.846 102.802 280.412 102.15C280.167 102.15 279.896 102.15 279.652 102.15C279.245 102.802 278.485 103.453 278.512 104.05C278.54 104.647 279.353 105.46 279.978 105.596Z" fill="black"/>
<path d="M65.2852 12.5592C65.7193 11.9895 66.3705 11.4468 66.5062 10.8228C66.6961 9.81892 65.9635 9.0321 64.9868 9.24915C64.3899 9.38481 63.6031 10.1716 63.5217 10.7414C63.4403 11.284 64.2 11.9352 64.5798 12.5321C64.7969 12.5592 65.0411 12.5592 65.2852 12.5592Z" fill="black"/>
<path d="M7.49777 26.1537C7.74195 26.1537 7.98612 26.1537 8.23031 26.1266C8.61015 25.5297 9.36985 24.8786 9.28845 24.3359C9.20706 23.7662 8.44737 22.9522 7.85048 22.8165C6.87373 22.5995 6.14117 23.3592 6.30396 24.3631C6.41249 25.0413 7.09079 25.584 7.49777 26.1537Z" fill="black"/>
<path d="M157.366 20.2671C157.963 20.1314 158.75 19.3446 158.831 18.7749C158.912 18.2322 158.153 17.5811 157.773 16.9842C157.529 16.9842 157.285 16.957 157.04 16.957C156.606 17.5268 155.955 18.0694 155.847 18.7206C155.657 19.6973 156.389 20.4842 157.366 20.2671Z" fill="black"/>
<path d="M288.361 115.714C288.903 115.796 289.554 115.036 290.151 114.656C290.151 114.412 290.178 114.168 290.178 113.924C289.609 113.49 289.066 112.839 288.442 112.703C287.438 112.513 286.651 113.218 286.868 114.222C287.004 114.846 287.791 115.633 288.361 115.714Z" fill="black"/>
<path d="M263.294 85.5456C264.325 85.5727 265.057 84.9758 264.894 83.9719C264.786 83.3208 264.189 82.751 263.782 82.1541C263.538 82.1541 263.294 82.127 263.077 82.127C262.643 82.6967 261.964 83.2122 261.829 83.8634C261.584 84.8401 262.236 85.5184 263.294 85.5456Z" fill="black"/>
<path d="M246.657 65.547C247.037 64.9772 247.715 64.3803 247.715 63.8377C247.688 63.3493 246.82 62.454 246.44 62.5082C245.87 62.5896 245.056 63.3222 244.975 63.8377C244.893 64.3532 245.653 64.9772 246.033 65.547C246.25 65.547 246.467 65.547 246.657 65.547Z" fill="black"/>
<path d="M297.287 125.834C297.694 125.264 298.399 124.722 298.399 124.152C298.399 123.663 297.558 122.741 297.178 122.795C296.609 122.85 295.768 123.555 295.686 124.098C295.605 124.586 296.31 125.237 296.69 125.834C296.853 125.807 297.07 125.807 297.287 125.834Z" fill="black"/>
<path d="M327.269 202.646C327.73 202.727 328.3 202.076 329.277 201.479C328.381 200.801 327.839 200.095 327.377 200.149C326.889 200.177 326.075 200.909 326.075 201.343C326.048 201.777 326.753 202.564 327.269 202.646Z" fill="black"/>
<path d="M320.513 174.211C320.947 174.211 321.706 173.424 321.761 172.936C321.815 172.475 321.137 171.932 320.485 171.01C319.861 171.959 319.183 172.502 319.264 172.99C319.319 173.452 320.078 174.211 320.513 174.211Z" fill="black"/>
<path d="M175.659 21.8937C176.12 21.9208 176.662 21.2425 177.558 20.5642C176.608 19.9673 176.011 19.3162 175.55 19.3975C175.062 19.4789 174.329 20.2658 174.356 20.6999C174.356 21.134 175.17 21.8394 175.659 21.8937Z" fill="black"/>
<path d="M238.06 55.186C238.44 55.2674 238.982 54.5891 239.823 53.9922C238.955 53.3953 238.467 52.7713 238.033 52.8256C237.572 52.8798 237.165 53.531 236.73 53.938C237.192 54.3721 237.572 55.0775 238.06 55.186Z" fill="black"/>
<path d="M305.481 135.522C305.861 135.576 306.377 134.898 307.191 134.247C306.295 133.704 305.78 133.107 305.346 133.162C304.884 133.216 304.505 133.921 304.098 134.328C304.559 134.762 304.966 135.414 305.481 135.522Z" fill="black"/>
<path d="M93.3107 5.10112C93.7448 5.18251 94.3146 4.58562 95.2371 4.04298C94.3689 3.39182 93.9076 2.79492 93.4192 2.79492C93.0123 2.79492 92.1983 3.47321 92.2526 3.79879C92.3068 4.28717 92.8495 4.99259 93.3107 5.10112Z" fill="black"/>
<path d="M202.486 33.2363C202.866 33.3177 203.436 32.6665 204.304 32.0968C203.463 31.4728 202.975 30.8487 202.54 30.8759C202.079 30.903 201.645 31.5541 201.211 31.9611C201.618 32.4224 201.998 33.1007 202.486 33.2363Z" fill="black"/>
<path d="M112.064 6.67228C112.443 6.75368 112.959 6.04825 113.8 5.39709C112.932 4.82733 112.389 4.23043 111.955 4.28469C111.494 4.33896 111.114 5.04438 110.707 5.45135C111.141 5.88546 111.548 6.56376 112.064 6.67228Z" fill="black"/>
<path d="M130.591 8.51603C130.971 8.59743 131.486 7.89201 132.327 7.24084C131.459 6.67108 130.917 6.07418 130.482 6.12844C130.021 6.18271 129.641 6.88813 129.234 7.29511C129.668 7.75635 130.075 8.43464 130.591 8.51603Z" fill="black"/>
<path d="M46.5673 10.362C46.9472 10.4162 47.4627 9.73792 48.2766 9.08676C47.3813 8.54413 46.8658 7.94723 46.4317 8.00149C45.9704 8.05575 45.5906 8.76118 45.1836 9.16816C45.6448 9.60226 46.0518 10.2806 46.5673 10.362Z" fill="black"/>
<path d="M18.0795 17.1724C18.4593 17.2538 19.0019 16.5755 19.843 15.9786C18.9748 15.3817 18.4864 14.7576 18.0523 14.8119C17.5911 14.8662 17.1841 15.5173 16.75 15.9243C17.1841 16.3584 17.564 17.0638 18.0795 17.1724Z" fill="black"/>
<path d="M313.624 145.263C314.058 145.29 314.52 144.774 315.307 144.286C314.574 143.716 314.14 143.119 313.787 143.173C313.326 143.255 312.783 143.797 312.648 144.232C312.593 144.476 313.272 145.235 313.624 145.263Z" fill="black"/>
<path d="M74.7268 3.41443C75.1609 3.46869 75.6492 2.98032 76.4632 2.54621C75.7577 1.94931 75.3508 1.32528 75.0252 1.35242C74.564 1.40668 74.1841 1.97645 73.75 2.30203C74.0756 2.709 74.374 3.3873 74.7268 3.41443Z" fill="black"/>
<path d="M149.746 9.03331C149.801 8.5992 149.312 8.11083 148.878 7.29688C148.281 8.0023 147.657 8.40928 147.684 8.73486C147.739 9.1961 148.308 9.57594 148.634 10.01C149.041 9.68447 149.692 9.38602 149.746 9.03331Z" fill="black"/>
<path d="M229.676 44.7114C229.947 44.7928 230.409 44.2773 231.033 43.8703C230.436 43.382 230.083 42.8665 229.757 42.8936C229.405 42.8936 229.052 43.4091 228.699 43.6804C228.998 44.0331 229.269 44.5758 229.676 44.7114Z" fill="black"/>
<path d="M335.63 210.43C335.304 210.458 335.033 210.973 334.734 211.271C335.06 211.57 335.358 212.058 335.738 212.14C335.982 212.194 336.362 211.651 336.878 211.217C336.335 210.81 335.955 210.376 335.63 210.43Z" fill="black"/>
<path d="M167.324 11.2847C167.568 11.3389 167.948 10.8234 168.491 10.3893C167.921 10.0095 167.568 9.54823 167.243 9.57536C166.917 9.60249 166.619 10.0909 166.32 10.3622C166.673 10.6878 166.944 11.1761 167.324 11.2847Z" fill="black"/>
<path d="M329.764 182.919C329.764 182.567 329.248 182.214 328.977 181.861C328.624 182.187 328.055 182.458 327.946 182.838C327.865 183.109 328.38 183.571 328.787 184.195C329.248 183.625 329.764 183.272 329.764 182.919Z" fill="black"/>
<path d="M194.13 23.0064C194.374 23.0878 194.808 22.6265 195.378 22.2467C194.835 21.7855 194.537 21.3242 194.211 21.3242C193.886 21.3242 193.56 21.7855 193.234 22.0296C193.533 22.3824 193.777 22.8979 194.13 23.0064Z" fill="black"/>
<path d="M27.9533 8.48995C28.1975 8.54421 28.6045 8.05584 29.1471 7.64887C28.5773 7.24189 28.2518 6.78065 27.9262 6.80778C27.6006 6.83491 27.3021 7.29615 26.9766 7.56747C27.3021 7.89305 27.5735 8.38142 27.9533 8.48995Z" fill="black"/>
<path d="M56.6881 1.7093C56.9323 1.79069 57.3393 1.27519 57.909 0.868216C57.3664 0.461241 57.0137 0 56.7152 0C56.3897 0.0271317 56.0912 0.488372 55.7656 0.759689C56.0369 1.08527 56.3083 1.60077 56.6881 1.7093Z" fill="black"/>
</g>
</svg>
