<svg width="560" height="377" viewBox="0 0 560 377" fill="none" xmlns="http://www.w3.org/2000/svg">
<g filter="url(#filter0_d_601_2254)">
<circle cx="280" cy="28.8867" r="286.117" fill="#EBF2E8"/>
<circle cx="280" cy="28.8867" r="285.117" stroke="white" stroke-opacity="0.02" stroke-width="2"/>
</g>
<g filter="url(#filter1_d_601_2254)">
<circle cx="280.011" cy="33.0036" r="208.289" fill="#EBF2E8"/>
<circle cx="280.011" cy="33.0036" r="207.289" stroke="white" stroke-opacity="0.02" stroke-width="2"/>
</g>
<g filter="url(#filter2_d_601_2254)">
<circle cx="280.014" cy="33.0022" r="136.822" fill="#EBF2E8"/>
<circle cx="280.014" cy="33.0022" r="135.822" stroke="white" stroke-opacity="0.02" stroke-width="2"/>
</g>
<g filter="url(#filter3_d_601_2254)">
<path d="M286 213.535L341.828 245.768V310.232L286 342.465L230.172 310.232V245.768L286 213.535Z" fill="#E1FFCF"/>
</g>
<g filter="url(#filter4_d_601_2254)">
<path d="M286 221.133L335.248 249.566V306.434L286 334.867L236.752 306.434V249.566L286 221.133Z" fill="#CAEAB7"/>
</g>
<g filter="url(#filter5_d_601_2254)">
<path d="M286 230.73L326.937 254.365V301.635L286 325.27L245.063 301.635V254.365L286 230.73Z" fill="#8EAA7D"/>
</g>
<path d="M262.645 280.58V282.5H255.43V271.25H262.48V273.17H257.755V275.705H262.27V277.43H257.755V280.58H262.645ZM267.807 282.5H264.117V271.25H267.792C271.602 271.25 273.822 273.545 273.822 276.845C273.822 280.19 271.587 282.5 267.807 282.5ZM267.747 273.32H266.382V280.4H267.762C270.387 280.4 271.482 278.84 271.482 276.86C271.482 274.88 270.387 273.32 267.747 273.32ZM286.693 276.995C286.693 280.235 284.128 282.725 280.888 282.725C277.423 282.725 274.933 280.19 274.933 276.875C274.933 273.56 277.393 271.04 280.813 271.04C283.498 271.04 285.778 272.63 286.513 275.195H284.038C283.558 274.01 282.358 273.14 280.858 273.14C278.758 273.14 277.288 274.715 277.288 276.89C277.288 279.035 278.773 280.655 280.933 280.655C282.658 280.655 283.963 279.65 284.443 278.195H281.278V276.5H286.663C286.678 276.56 286.693 276.905 286.693 276.995ZM295.37 280.58V282.5H288.155V271.25H295.205V273.17H290.48V275.705H294.995V277.43H290.48V280.58H295.37ZM301.656 279.185H296.901V277.73H301.656V279.185ZM309.725 282.5L309.11 279.62H305.555L304.94 282.5H302.555L305.255 271.25H309.425L312.125 282.5H309.725ZM306.905 273.32L305.945 277.805H308.72L307.76 273.32H306.905ZM315.809 282.5H313.484V271.25H315.809V282.5Z" fill="#D7FFC0"/>
<circle cx="437.072" cy="171.102" r="42.5723" stroke="#B4C9A8"/>
<circle cx="437.072" cy="171.102" r="38.9277" stroke="#B4C9A8"/>
<circle cx="437.072" cy="171.102" r="34.0293" stroke="#B4C9A8" stroke-width="3"/>
<path fill-rule="evenodd" clip-rule="evenodd" d="M417.616 171.684H456.32C456.842 171.684 457.26 171.254 457.26 170.745V169.872C457.26 169.35 456.842 168.92 456.32 168.92H417.616C417.094 168.92 416.676 169.35 416.676 169.872V170.745C416.676 171.254 417.094 171.684 417.616 171.684Z" fill="#5D8049"/>
<path fill-rule="evenodd" clip-rule="evenodd" d="M417.616 171.685H456.32C456.842 171.685 457.26 171.255 457.26 170.746H416.676C416.676 171.255 417.094 171.685 417.616 171.685Z" fill="#5D8049"/>
<path d="M445.773 168.92H428.184V171.684H445.773V168.92Z" fill="#5D8049"/>
<g filter="url(#filter6_d_601_2254)">
<path d="M436.971 164.449C439.178 164.449 441.188 165.349 442.638 166.809C444.087 168.256 444.988 170.264 444.988 172.467V174.501C444.988 174.853 444.701 175.14 444.348 175.14H429.593C429.24 175.14 428.953 174.853 428.953 174.501V172.467C428.953 170.264 429.854 168.256 431.304 166.809C432.753 165.349 434.764 164.449 436.971 164.449Z" fill="#5D8049"/>
</g>
<g filter="url(#filter7_d_601_2254)">
<path d="M444.988 173.629V174.502C444.988 174.854 444.701 175.141 444.348 175.141H429.593C429.24 175.141 428.953 174.854 428.953 174.502V173.629H444.988Z" fill="#5D8049"/>
</g>
<path d="M439.517 164.867C440.705 165.271 441.776 165.936 442.638 166.81C444.061 168.218 444.949 170.16 444.988 172.298H444.975H442.207C440.731 172.298 439.517 171.086 439.517 169.6V164.867ZM428.953 172.298C428.992 170.16 429.893 168.218 431.304 166.81C432.178 165.936 433.236 165.271 434.424 164.867V169.6C434.424 171.086 433.21 172.298 431.734 172.298H428.966H428.953Z" fill="#5D8049"/>
<path fill-rule="evenodd" clip-rule="evenodd" d="M429.867 175.141H444.074V175.297C444.074 176.145 443.382 176.835 442.546 176.835H431.408C430.559 176.835 429.867 176.145 429.867 175.297V175.141Z" fill="#5D8049"/>
<path fill-rule="evenodd" clip-rule="evenodd" d="M441.367 176.834C441.211 177.499 440.597 178.007 439.879 178.007H434.055C433.337 178.007 432.723 177.499 432.566 176.834H441.367Z" fill="#5D8049"/>
<path fill-rule="evenodd" clip-rule="evenodd" d="M434.512 178.008H439.422V180.354C439.422 181.71 438.325 182.819 436.967 182.819C435.622 182.819 434.512 181.71 434.512 180.354V178.008Z" fill="#5D8049"/>
<path fill-rule="evenodd" clip-rule="evenodd" d="M436.967 179.078C437.659 179.078 438.208 179.639 438.208 180.33C438.208 181.008 437.659 181.568 436.967 181.568C436.288 181.568 435.727 181.008 435.727 180.33C435.727 179.639 436.288 179.078 436.967 179.078Z" fill="#5D8049"/>
<path fill-rule="evenodd" clip-rule="evenodd" d="M436.968 179.795C437.255 179.795 437.49 180.03 437.49 180.329C437.49 180.616 437.255 180.851 436.968 180.851C436.68 180.851 436.445 180.616 436.445 180.329C436.445 180.03 436.68 179.795 436.968 179.795Z" fill="#B3E1E7"/>
<path fill-rule="evenodd" clip-rule="evenodd" d="M437.323 179.65C437.505 179.65 437.662 179.807 437.662 179.989C437.662 180.172 437.505 180.315 437.323 180.315C437.14 180.315 436.996 180.172 436.996 179.989C436.996 179.807 437.14 179.65 437.323 179.65Z" fill="#5D8049"/>
<path fill-rule="evenodd" clip-rule="evenodd" d="M425.883 171.686H427.058L423.82 183.237C423.728 183.549 423.389 183.823 423.062 183.823C422.736 183.823 422.553 183.549 422.645 183.237L425.883 171.686ZM448.055 171.686H446.88L450.132 183.237C450.223 183.549 450.549 183.823 450.876 183.823C451.202 183.823 451.398 183.549 451.307 183.237L448.055 171.686Z" fill="#5D8049"/>
<path fill-rule="evenodd" clip-rule="evenodd" d="M418.961 164.176C419.327 164.176 419.614 164.463 419.614 164.828V168.921H418.309V164.828C418.309 164.463 418.609 164.176 418.961 164.176Z" fill="#5D8049"/>
<path fill-rule="evenodd" clip-rule="evenodd" d="M410.109 165.232H411.781H415.92H418.31V165.845H415.75C415.541 166.197 415.163 166.432 414.719 166.432H411.311C410.645 166.432 410.109 165.897 410.109 165.232ZM427.816 165.232H426.145H422.005H419.616V165.845H422.175C422.384 166.197 422.776 166.432 423.207 166.432H426.615C427.281 166.432 427.816 165.897 427.816 165.232Z" fill="#5D8049"/>
<path fill-rule="evenodd" clip-rule="evenodd" d="M454.973 164.176C455.339 164.176 455.626 164.463 455.626 164.828V168.921H454.32V164.828C454.32 164.463 454.608 164.176 454.973 164.176Z" fill="#5D8049"/>
<path fill-rule="evenodd" clip-rule="evenodd" d="M446.121 165.232H447.793H451.932H454.322V165.845H451.762C451.553 166.197 451.175 166.432 450.731 166.432H447.322C446.656 166.432 446.121 165.897 446.121 165.232ZM463.828 165.232H462.156H458.017H455.627V165.845H458.187C458.396 166.197 458.774 166.432 459.218 166.432H462.626C463.292 166.432 463.828 165.897 463.828 165.232Z" fill="#5D8049"/>
<path d="M404.142 234.174V222.734H405.982L409.694 232.238H409.726L413.406 222.734H415.278V234.174H413.902V224.766H413.87C413.668 225.363 413.497 225.843 413.358 226.206L410.222 234.174H409.118L405.982 226.206L405.47 224.766H405.438V234.174H404.142ZM417.232 234.174V225.902H418.528V234.174H417.232ZM417.232 224.334V222.734H418.528V224.334H417.232ZM421.59 225.902V226.99H421.622C422.262 226.136 423.137 225.71 424.246 225.71C425.121 225.71 425.803 225.939 426.294 226.398C426.785 226.856 427.03 227.512 427.03 228.366V234.174H425.734V228.478C425.734 227.944 425.569 227.534 425.238 227.246C424.907 226.947 424.449 226.798 423.862 226.798C423.201 226.798 422.657 227.011 422.23 227.438C421.803 227.864 421.59 228.414 421.59 229.086V234.174H420.294V225.902H421.59ZM428.747 234.174V225.902H430.043V234.174H428.747ZM428.747 224.334V222.734H430.043V224.334H428.747ZM434.085 230.35V229.166H438.373V230.35H434.085ZM446.787 234.35C445.454 234.35 444.387 234.035 443.587 233.406C442.798 232.776 442.403 231.8 442.403 230.478V222.734H443.843V230.334C443.843 232.19 444.841 233.118 446.835 233.118C448.766 233.118 449.731 232.19 449.731 230.334V222.734H451.171V230.478C451.171 231.79 450.766 232.766 449.955 233.406C449.155 234.035 448.099 234.35 446.787 234.35ZM451.98 234.174L456.188 222.734H457.804L462.028 234.174H460.46L459.244 230.686H454.684L453.452 234.174H451.98ZM456.46 225.678L455.1 229.518H458.844L457.532 225.678L457.02 224.062H456.988C456.786 224.702 456.61 225.24 456.46 225.678ZM465.214 234.174L461.23 222.734H462.782L465.598 231.246L466.046 232.782H466.078C466.26 232.099 466.409 231.587 466.526 231.246L469.31 222.734H470.814L466.798 234.174H465.214Z" fill="#5D8049"/>
<circle cx="122.928" cy="171.102" r="42.5723" stroke="#B4C9A8"/>
<circle cx="122.928" cy="171.102" r="38.9277" stroke="#B4C9A8"/>
<circle cx="122.928" cy="171.102" r="34.0293" stroke="#B4C9A8" stroke-width="3"/>
<path fill-rule="evenodd" clip-rule="evenodd" d="M103.471 171.684H142.175C142.698 171.684 143.115 171.254 143.115 170.745V169.872C143.115 169.35 142.698 168.92 142.175 168.92H103.471C102.949 168.92 102.531 169.35 102.531 169.872V170.745C102.531 171.254 102.949 171.684 103.471 171.684Z" fill="#5D8049"/>
<path fill-rule="evenodd" clip-rule="evenodd" d="M103.471 171.685H142.175C142.698 171.685 143.115 171.255 143.115 170.746H102.531C102.531 171.255 102.949 171.685 103.471 171.685Z" fill="#5D8049"/>
<path d="M131.628 168.92H114.039V171.684H131.628V168.92Z" fill="#5D8049"/>
<g filter="url(#filter8_d_601_2254)">
<path d="M122.826 164.449C125.033 164.449 127.044 165.349 128.493 166.809C129.943 168.256 130.844 170.264 130.844 172.467V174.501C130.844 174.853 130.557 175.14 130.204 175.14H115.448C115.096 175.14 114.809 174.853 114.809 174.501V172.467C114.809 170.264 115.71 168.256 117.159 166.809C118.608 165.349 120.619 164.449 122.826 164.449Z" fill="#5D8049"/>
</g>
<g filter="url(#filter9_d_601_2254)">
<path d="M130.844 173.629V174.502C130.844 174.854 130.557 175.141 130.204 175.141H115.448C115.096 175.141 114.809 174.854 114.809 174.502V173.629H130.844Z" fill="#5D8049"/>
</g>
<path d="M125.372 164.867C126.561 165.271 127.632 165.936 128.493 166.81C129.917 168.218 130.805 170.16 130.844 172.298H130.831H128.062C126.587 172.298 125.372 171.086 125.372 169.6V164.867ZM114.809 172.298C114.848 170.16 115.749 168.218 117.159 166.81C118.034 165.936 119.092 165.271 120.28 164.867V169.6C120.28 171.086 119.065 172.298 117.59 172.298H114.822H114.809Z" fill="#5D8049"/>
<path fill-rule="evenodd" clip-rule="evenodd" d="M115.723 175.141H129.93V175.297C129.93 176.145 129.238 176.835 128.402 176.835H117.263C116.415 176.835 115.723 176.145 115.723 175.297V175.141Z" fill="#5D8049"/>
<path fill-rule="evenodd" clip-rule="evenodd" d="M127.223 176.834C127.066 177.499 126.453 178.007 125.734 178.007H119.91C119.192 178.007 118.579 177.499 118.422 176.834H127.223Z" fill="#5D8049"/>
<path fill-rule="evenodd" clip-rule="evenodd" d="M120.367 178.008H125.277V180.354C125.277 181.71 124.18 182.819 122.822 182.819C121.477 182.819 120.367 181.71 120.367 180.354V178.008Z" fill="#5D8049"/>
<path fill-rule="evenodd" clip-rule="evenodd" d="M122.823 179.078C123.515 179.078 124.063 179.639 124.063 180.33C124.063 181.008 123.515 181.568 122.823 181.568C122.144 181.568 121.582 181.008 121.582 180.33C121.582 179.639 122.144 179.078 122.823 179.078Z" fill="#5D8049"/>
<path fill-rule="evenodd" clip-rule="evenodd" d="M122.823 179.795C123.11 179.795 123.345 180.03 123.345 180.329C123.345 180.616 123.11 180.851 122.823 180.851C122.536 180.851 122.301 180.616 122.301 180.329C122.301 180.03 122.536 179.795 122.823 179.795Z" fill="#B3E1E7"/>
<path fill-rule="evenodd" clip-rule="evenodd" d="M123.178 179.65C123.361 179.65 123.518 179.807 123.518 179.989C123.518 180.172 123.361 180.315 123.178 180.315C122.995 180.315 122.852 180.172 122.852 179.989C122.852 179.807 122.995 179.65 123.178 179.65Z" fill="#5D8049"/>
<path fill-rule="evenodd" clip-rule="evenodd" d="M111.738 171.686H112.914L109.675 183.237C109.584 183.549 109.244 183.823 108.918 183.823C108.591 183.823 108.409 183.549 108.5 183.237L111.738 171.686ZM133.911 171.686H132.736L135.987 183.237C136.079 183.549 136.405 183.823 136.731 183.823C137.058 183.823 137.254 183.549 137.162 183.237L133.911 171.686Z" fill="#5D8049"/>
<path fill-rule="evenodd" clip-rule="evenodd" d="M104.817 164.176C105.183 164.176 105.47 164.463 105.47 164.828V168.921H104.164V164.828C104.164 164.463 104.464 164.176 104.817 164.176Z" fill="#5D8049"/>
<path fill-rule="evenodd" clip-rule="evenodd" d="M95.9648 165.232H97.6363H101.776H104.165V165.845H101.606C101.397 166.197 101.018 166.432 100.574 166.432H97.1662C96.5002 166.432 95.9648 165.897 95.9648 165.232ZM113.671 165.232H112H107.861H105.471V165.845H108.03C108.239 166.197 108.631 166.432 109.062 166.432H112.47C113.136 166.432 113.671 165.897 113.671 165.232Z" fill="#5D8049"/>
<path fill-rule="evenodd" clip-rule="evenodd" d="M140.829 164.176C141.194 164.176 141.482 164.463 141.482 164.828V168.921H140.176V164.828C140.176 164.463 140.463 164.176 140.829 164.176Z" fill="#5D8049"/>
<path fill-rule="evenodd" clip-rule="evenodd" d="M131.977 165.232H133.648H137.787H140.177V165.845H137.618C137.409 166.197 137.03 166.432 136.586 166.432H133.178C132.512 166.432 131.977 165.897 131.977 165.232ZM149.683 165.232H148.012H143.872H141.483V165.845H144.042C144.251 166.197 144.63 166.432 145.074 166.432H148.482C149.148 166.432 149.683 165.897 149.683 165.232Z" fill="#5D8049"/>
<path d="M90.0017 234.174V222.734H91.8417L95.5537 232.238H95.5857L99.2657 222.734H101.138V234.174H99.7617V224.766H99.7297C99.527 225.363 99.3564 225.843 99.2177 226.206L96.0817 234.174H94.9777L91.8417 226.206L91.3297 224.766H91.2977V234.174H90.0017ZM103.091 234.174V225.902H104.387V234.174H103.091ZM103.091 224.334V222.734H104.387V224.334H103.091ZM107.449 225.902V226.99H107.481C108.121 226.136 108.996 225.71 110.105 225.71C110.98 225.71 111.663 225.939 112.153 226.398C112.644 226.856 112.889 227.512 112.889 228.366V234.174H111.593V228.478C111.593 227.944 111.428 227.534 111.097 227.246C110.767 226.947 110.308 226.798 109.721 226.798C109.06 226.798 108.516 227.011 108.089 227.438C107.663 227.864 107.449 228.414 107.449 229.086V234.174H106.153V225.902H107.449ZM114.607 234.174V225.902H115.903V234.174H114.607ZM114.607 224.334V222.734H115.903V224.334H114.607ZM119.944 230.35V229.166H124.232V230.35H119.944ZM132.647 234.35C131.313 234.35 130.247 234.035 129.447 233.406C128.657 232.776 128.263 231.8 128.263 230.478V222.734H129.703V230.334C129.703 232.19 130.7 233.118 132.695 233.118C134.625 233.118 135.591 232.19 135.591 230.334V222.734H137.031V230.478C137.031 231.79 136.625 232.766 135.815 233.406C135.015 234.035 133.959 234.35 132.647 234.35ZM137.84 234.174L142.048 222.734H143.664L147.888 234.174H146.32L145.104 230.686H140.544L139.312 234.174H137.84ZM142.32 225.678L140.96 229.518H144.704L143.392 225.678L142.88 224.062H142.848C142.645 224.702 142.469 225.24 142.32 225.678ZM151.074 234.174L147.09 222.734H148.642L151.458 231.246L151.906 232.782H151.938C152.119 232.099 152.268 231.587 152.386 231.246L155.17 222.734H156.674L152.658 234.174H151.074Z" fill="#5D8049"/>
<path d="M277.274 15.2354C268.829 15.6291 260.889 17.6917 253.394 21.4286C246.146 25.05 239.926 29.8996 234.625 36.0665C229.949 41.5092 226.165 48.0382 223.724 54.8822C221.982 59.7685 220.911 64.8385 220.47 70.2759L220.449 70.5488L223.394 70.5383L226.338 70.5226L226.375 70.0502C226.506 68.4127 226.915 65.6573 227.288 63.8833C228.705 57.139 231.371 50.7622 235.145 45.1044C235.528 44.5323 236.079 43.7398 236.363 43.3461L236.887 42.6271H245.343H253.798L253.362 43.9235C252.397 46.7996 251.546 49.9119 250.88 53.0033L250.68 53.9375L252.15 53.9532C252.963 53.9585 253.64 53.948 253.661 53.927C253.682 53.9008 253.772 53.5439 253.866 53.124C254.275 51.2503 254.921 48.8045 255.525 46.8416C255.855 45.7447 256.58 43.5876 256.821 42.9682L256.942 42.6533L267.738 42.6376L278.534 42.6271V50.694V58.7661H280.003H281.473V50.694V42.6271H292.264H303.049L303.123 42.795C303.264 43.1467 303.936 45.1044 304.251 46.0963C304.923 48.2062 305.799 51.4865 306.198 53.3707L306.319 53.9637H307.804H309.29V53.8483C309.29 53.6751 308.854 51.7594 308.45 50.1324C307.878 47.8388 307.091 45.1673 306.45 43.3461L306.193 42.6271H314.659H323.119L323.644 43.3514C326.137 46.7839 328.31 50.7097 329.906 54.646C331.853 59.4694 333.154 64.786 333.606 69.7878L333.669 70.5226L336.613 70.5383L339.557 70.5488L339.536 70.2759C338.597 58.5089 334.419 47.6656 327.224 38.3286C323.004 32.8597 317.593 27.9577 311.678 24.2575C308.728 22.4101 305.317 20.6833 302.047 19.3765C295.03 16.5738 287.467 15.1515 279.793 15.1882C278.885 15.1882 277.752 15.2145 277.274 15.2354ZM278.534 30.372V39.688H268.326H258.117L258.186 39.5148C258.506 38.7537 259.246 37.1897 259.771 36.1453C261.865 32.02 264.211 28.64 266.856 25.9423C268.289 24.4832 269.417 23.5227 270.792 22.6043C271.957 21.8275 272.419 21.5756 272.808 21.5231C274.209 21.3236 276.744 21.1085 278.182 21.0665L278.534 21.056V30.372ZM283.992 21.1924C285 21.2659 286.438 21.4129 287.199 21.5231C287.587 21.5756 288.049 21.8275 289.214 22.6043C291.566 24.1788 294.001 26.5826 296.079 29.3748C298.2 32.2247 300.152 35.6624 301.711 39.2786L301.884 39.688H291.681H281.473V30.3667V21.0455L282.197 21.077C282.591 21.098 283.399 21.1504 283.992 21.1924ZM264.904 23.7169C261.093 27.5955 257.729 32.9175 255.173 39.1211L254.942 39.688H247.101H239.254L239.386 39.541C239.459 39.4623 239.837 39.0476 240.225 38.6173C240.614 38.1817 241.391 37.3681 241.957 36.8013C248.282 30.4769 256.044 25.8426 264.599 23.2866C265.119 23.1291 265.56 23.0031 265.581 22.9979C265.596 22.9979 265.292 23.3233 264.904 23.7169ZM295.387 23.2813C297.255 23.8272 299.806 24.7666 301.758 25.6221C302.829 26.0945 305.091 27.2177 306.088 27.774C311.352 30.7184 316.05 34.4605 320.023 38.8745C320.28 39.1631 320.548 39.4623 320.621 39.541L320.752 39.688H312.906L305.065 39.6827L304.571 38.5176C302.01 32.4556 298.714 27.3384 294.94 23.5595C294.62 23.2446 294.41 22.9979 294.468 23.0136C294.521 23.0294 294.935 23.1501 295.387 23.2813Z" fill="#B4C9A8"/>
<path d="M237.464 56.1172C236.85 56.2064 236.215 56.5003 235.685 56.9307C235.202 57.3296 234.72 58.1221 234.552 58.7939C234.452 59.198 234.462 60.106 234.578 60.5206C234.835 61.4706 235.523 62.3208 236.383 62.7512C237.144 63.1343 236.971 63.1186 240.451 63.1396L243.584 63.1553V68.2411V73.3321L252.407 73.3426L261.229 73.3583L242.214 79.4885C231.754 82.858 223.162 85.6134 223.126 85.6134C223.073 85.6134 223.063 85.0099 223.073 82.6848L223.089 79.7614L226.264 79.7352L229.44 79.7089L229.823 79.5672C230.379 79.3625 230.752 79.1316 231.172 78.7117C231.591 78.2919 231.828 77.9192 232.027 77.3629C232.153 77.0112 232.169 76.9115 232.169 76.2187C232.169 75.5259 232.153 75.4262 232.027 75.0746C231.828 74.5287 231.591 74.1508 231.193 73.7519C230.809 73.3636 230.295 73.0329 229.781 72.8492L229.44 72.7285L220.307 72.7128C210.141 72.697 210.839 72.6708 210.073 73.0539C209.175 73.5 208.54 74.2453 208.231 75.211C208.105 75.5942 208.078 76.5914 208.178 77.0165C208.456 78.2026 209.328 79.1578 210.519 79.5882C210.86 79.7089 210.876 79.7089 214.035 79.7352L217.211 79.7614L217.237 86.7209L217.263 93.6855L241.012 86.0281C254.071 81.8188 264.767 78.3863 264.777 78.3968C264.793 78.4073 264.846 78.6592 264.898 78.9584C265.302 81.2257 266.326 83.5665 267.722 85.4245C269.9 88.3216 273.128 90.421 276.613 91.1978C280.208 92.006 283.834 91.5284 287.125 89.8174C288.542 89.0827 289.687 88.2324 290.899 87.0095C293.098 84.7999 294.578 81.9763 295.119 78.9584C295.171 78.6592 295.224 78.4073 295.239 78.3968C295.25 78.3863 305.946 81.8188 319.004 86.0281L342.754 93.6855L342.78 86.7209L342.806 79.7614L345.981 79.7352C349.136 79.7089 349.157 79.7089 349.498 79.5882C350.558 79.2103 351.324 78.4441 351.734 77.3629C351.865 77.0112 351.881 76.9168 351.881 76.245C351.886 75.6571 351.865 75.4524 351.786 75.2215C351.371 74.0196 350.595 73.2428 349.393 72.8282C349.115 72.7338 348.784 72.7285 339.841 72.7285H330.577L330.236 72.8492C329.711 73.0382 329.197 73.3636 328.819 73.7519C328.42 74.1561 328.184 74.534 327.99 75.0746C327.864 75.421 327.853 75.5312 327.848 76.1925C327.848 76.8065 327.869 76.985 327.963 77.2946C328.131 77.8195 328.42 78.2866 328.845 78.7117C329.265 79.1316 329.638 79.3678 330.194 79.5672L330.577 79.7089L333.752 79.7352L336.928 79.7614L336.944 82.6848C336.954 85.0099 336.944 85.6134 336.891 85.6134C336.854 85.6134 328.263 82.858 317.802 79.4885L298.787 73.3583L307.61 73.3426L316.433 73.3321V68.2411V63.1553L319.571 63.1396C323.046 63.1186 322.872 63.1343 323.633 62.7512C324.52 62.3051 325.218 61.4129 325.465 60.4209C325.554 60.0483 325.554 59.1665 325.465 58.7939C325.302 58.1273 324.814 57.3296 324.331 56.9307C323.959 56.6263 323.528 56.3901 323.072 56.2326L322.652 56.0909H313.493H304.335L303.915 56.2326C302.634 56.6683 301.737 57.676 301.49 58.9566C301.154 60.7358 302.199 62.4311 303.994 63.0241C304.256 63.1133 304.561 63.1238 307.421 63.1396L310.554 63.1553V65.3072V67.4538H301.59H292.626L292.148 66.8345C289.571 63.507 285.808 61.4076 281.583 60.9405C280.785 60.8565 279.064 60.867 278.229 60.9667C274.02 61.4706 270.231 63.6592 267.701 67.0444L267.402 67.4538H258.432H249.462V65.3072V63.1553L252.601 63.1396C256.112 63.1186 255.908 63.1396 256.732 62.7145C257.351 62.3943 257.876 61.8537 258.196 61.2082C258.694 60.19 258.721 59.114 258.259 58.1378C257.823 57.2141 257.094 56.5685 256.102 56.2326L255.682 56.0909L246.707 56.0857C241.773 56.0804 237.611 56.0962 237.464 56.1172Z" fill="#B4C9A8"/>
<path d="M250.568 85.1728C249.802 85.4195 249.172 85.6294 249.161 85.6346C249.14 85.6556 249.282 86.952 249.471 88.4426C250.432 96.0581 252.263 103.343 254.814 109.736L254.924 110.014H247.062H239.205L238.549 109.221C234.518 104.345 231.285 98.6613 229.259 92.8775C229.139 92.5311 229.023 92.2215 229.002 92.19C228.96 92.1112 223.434 93.8957 223.434 93.9902C223.434 94.0269 223.591 94.4888 223.78 95.0136C226.441 102.388 230.383 108.974 235.662 114.868C236.612 115.923 238.958 118.275 239.992 119.204C243.262 122.132 246.611 124.557 250.358 126.714C257.459 130.808 265.474 133.396 273.687 134.256C276.013 134.503 277.025 134.545 280.012 134.545C282.998 134.545 284.011 134.503 286.336 134.256C301.725 132.645 315.906 125.061 325.878 113.116C329.898 108.292 333.173 102.808 335.488 96.9975C335.945 95.8534 336.59 94.0899 336.59 93.9902C336.59 93.9429 335.603 93.6018 333.85 93.0402C332.339 92.5521 331.084 92.1532 331.063 92.148C331.037 92.148 330.896 92.4944 330.743 92.93C328.707 98.7243 325.516 104.324 321.464 109.232L320.819 110.008L312.962 110.014H305.099L305.21 109.736C307.892 103.065 309.823 95.0714 310.742 86.8733C310.815 86.2015 310.873 85.6451 310.862 85.6346C310.836 85.6084 308.222 84.7792 308.117 84.7582C308.033 84.7477 308.007 84.7739 307.997 84.9261C307.939 85.6084 307.64 88.1644 307.482 89.2561C306.485 96.3677 304.811 102.823 302.412 108.817L301.935 110.014H291.705H281.481V101.837V93.6648H280.012H278.542V101.837V110.014H268.313H258.089L257.559 108.686C255.318 103.075 253.728 97.0763 252.699 90.3582C252.489 89.0042 252.185 86.5741 252.085 85.5034C252.048 85.1151 252.006 84.7792 251.99 84.7582C251.975 84.7424 251.334 84.9261 250.568 85.1728ZM256.683 113.966C258.278 117.367 260.624 121.088 262.876 123.796C263.558 124.61 264.76 125.927 265.279 126.426C265.468 126.609 265.61 126.756 265.594 126.756C265.579 126.756 265.395 126.709 265.19 126.646C261.758 125.644 258.882 124.52 255.764 122.946C251.738 120.92 248.033 118.427 244.606 115.441C244.06 114.963 242.129 113.168 242.013 113.032C241.955 112.963 242.711 112.953 249.078 112.953L256.21 112.958L256.683 113.966ZM278.542 120.825V128.698H278.285C277.445 128.698 275.026 128.509 273.451 128.32L272.48 128.205L271.746 127.759C267.216 125.035 262.965 120.001 259.706 113.488L259.438 112.953H268.99H278.542V120.825ZM300.113 113.877C296.949 119.975 293.243 124.478 289.144 127.213C288.089 127.916 287.585 128.189 287.265 128.231C285.932 128.415 283.759 128.609 282.311 128.677L281.481 128.714V120.831V112.953H291.039H300.596L300.113 113.877ZM317.591 113.436C316.672 114.307 315.785 115.12 315.071 115.734C309.739 120.301 303.646 123.759 297.043 125.958C295.904 126.336 294.445 126.772 294.414 126.74C294.398 126.73 294.445 126.678 294.519 126.636C294.718 126.504 296.329 124.767 297.043 123.922C298.786 121.838 300.586 119.167 302.082 116.443C302.522 115.64 303.787 113.089 303.787 113.005C303.787 112.969 306.128 112.953 310.941 112.953L318.089 112.958L317.591 113.436Z" fill="#B4C9A8"/>
<defs>
<filter id="filter0_d_601_2254" x="-36.1172" y="-287.23" width="632.234" height="632.234" filterUnits="userSpaceOnUse" color-interpolation-filters="sRGB">
<feFlood flood-opacity="0" result="BackgroundImageFix"/>
<feColorMatrix in="SourceAlpha" type="matrix" values="0 0 0 0 0 0 0 0 0 0 0 0 0 0 0 0 0 0 127 0" result="hardAlpha"/>
<feOffset/>
<feGaussianBlur stdDeviation="15"/>
<feComposite in2="hardAlpha" operator="out"/>
<feColorMatrix type="matrix" values="0 0 0 0 0 0 0 0 0 0 0 0 0 0 0 0 0 0 0.15 0"/>
<feBlend mode="normal" in2="BackgroundImageFix" result="effect1_dropShadow_601_2254"/>
<feBlend mode="normal" in="SourceGraphic" in2="effect1_dropShadow_601_2254" result="shape"/>
</filter>
<filter id="filter1_d_601_2254" x="41.7227" y="-205.285" width="476.578" height="476.578" filterUnits="userSpaceOnUse" color-interpolation-filters="sRGB">
<feFlood flood-opacity="0" result="BackgroundImageFix"/>
<feColorMatrix in="SourceAlpha" type="matrix" values="0 0 0 0 0 0 0 0 0 0 0 0 0 0 0 0 0 0 127 0" result="hardAlpha"/>
<feOffset/>
<feGaussianBlur stdDeviation="15"/>
<feComposite in2="hardAlpha" operator="out"/>
<feColorMatrix type="matrix" values="0 0 0 0 0 0 0 0 0 0 0 0 0 0 0 0 0 0 0.15 0"/>
<feBlend mode="normal" in2="BackgroundImageFix" result="effect1_dropShadow_601_2254"/>
<feBlend mode="normal" in="SourceGraphic" in2="effect1_dropShadow_601_2254" result="shape"/>
</filter>
<filter id="filter2_d_601_2254" x="113.191" y="-133.82" width="333.645" height="333.645" filterUnits="userSpaceOnUse" color-interpolation-filters="sRGB">
<feFlood flood-opacity="0" result="BackgroundImageFix"/>
<feColorMatrix in="SourceAlpha" type="matrix" values="0 0 0 0 0 0 0 0 0 0 0 0 0 0 0 0 0 0 127 0" result="hardAlpha"/>
<feOffset/>
<feGaussianBlur stdDeviation="15"/>
<feComposite in2="hardAlpha" operator="out"/>
<feColorMatrix type="matrix" values="0 0 0 0 0 0 0 0 0 0 0 0 0 0 0 0 0 0 0.15 0"/>
<feBlend mode="normal" in2="BackgroundImageFix" result="effect1_dropShadow_601_2254"/>
<feBlend mode="normal" in="SourceGraphic" in2="effect1_dropShadow_601_2254" result="shape"/>
</filter>
<filter id="filter3_d_601_2254" x="200.172" y="187.535" width="171.656" height="188.93" filterUnits="userSpaceOnUse" color-interpolation-filters="sRGB">
<feFlood flood-opacity="0" result="BackgroundImageFix"/>
<feColorMatrix in="SourceAlpha" type="matrix" values="0 0 0 0 0 0 0 0 0 0 0 0 0 0 0 0 0 0 127 0" result="hardAlpha"/>
<feOffset dy="4"/>
<feGaussianBlur stdDeviation="15"/>
<feComposite in2="hardAlpha" operator="out"/>
<feColorMatrix type="matrix" values="0 0 0 0 0 0 0 0 0 0 0 0 0 0 0 0 0 0 0.1 0"/>
<feBlend mode="normal" in2="BackgroundImageFix" result="effect1_dropShadow_601_2254"/>
<feBlend mode="normal" in="SourceGraphic" in2="effect1_dropShadow_601_2254" result="shape"/>
</filter>
<filter id="filter4_d_601_2254" x="226.75" y="215.133" width="118.5" height="133.734" filterUnits="userSpaceOnUse" color-interpolation-filters="sRGB">
<feFlood flood-opacity="0" result="BackgroundImageFix"/>
<feColorMatrix in="SourceAlpha" type="matrix" values="0 0 0 0 0 0 0 0 0 0 0 0 0 0 0 0 0 0 127 0" result="hardAlpha"/>
<feOffset dy="4"/>
<feGaussianBlur stdDeviation="5"/>
<feComposite in2="hardAlpha" operator="out"/>
<feColorMatrix type="matrix" values="0 0 0 0 0 0 0 0 0 0 0 0 0 0 0 0 0 0 0.05 0"/>
<feBlend mode="normal" in2="BackgroundImageFix" result="effect1_dropShadow_601_2254"/>
<feBlend mode="normal" in="SourceGraphic" in2="effect1_dropShadow_601_2254" result="shape"/>
</filter>
<filter id="filter5_d_601_2254" x="235.062" y="220.73" width="101.875" height="114.539" filterUnits="userSpaceOnUse" color-interpolation-filters="sRGB">
<feFlood flood-opacity="0" result="BackgroundImageFix"/>
<feColorMatrix in="SourceAlpha" type="matrix" values="0 0 0 0 0 0 0 0 0 0 0 0 0 0 0 0 0 0 127 0" result="hardAlpha"/>
<feOffset/>
<feGaussianBlur stdDeviation="5"/>
<feComposite in2="hardAlpha" operator="out"/>
<feColorMatrix type="matrix" values="0 0 0 0 0 0 0 0 0 0 0 0 0 0 0 0 0 0 0.15 0"/>
<feBlend mode="normal" in2="BackgroundImageFix" result="effect1_dropShadow_601_2254"/>
<feBlend mode="normal" in="SourceGraphic" in2="effect1_dropShadow_601_2254" result="shape"/>
</filter>
<filter id="filter6_d_601_2254" x="374.953" y="110.449" width="124.035" height="118.691" filterUnits="userSpaceOnUse" color-interpolation-filters="sRGB">
<feFlood flood-opacity="0" result="BackgroundImageFix"/>
<feColorMatrix in="SourceAlpha" type="matrix" values="0 0 0 0 0 0 0 0 0 0 0 0 0 0 0 0 0 0 127 0" result="hardAlpha"/>
<feOffset/>
<feGaussianBlur stdDeviation="27"/>
<feComposite in2="hardAlpha" operator="out"/>
<feColorMatrix type="matrix" values="0 0 0 0 0 0 0 0 0 0 0 0 0 0 0 0 0 0 0.15 0"/>
<feBlend mode="normal" in2="BackgroundImageFix" result="effect1_dropShadow_601_2254"/>
<feBlend mode="normal" in="SourceGraphic" in2="effect1_dropShadow_601_2254" result="shape"/>
</filter>
<filter id="filter7_d_601_2254" x="374.953" y="119.629" width="124.035" height="109.512" filterUnits="userSpaceOnUse" color-interpolation-filters="sRGB">
<feFlood flood-opacity="0" result="BackgroundImageFix"/>
<feColorMatrix in="SourceAlpha" type="matrix" values="0 0 0 0 0 0 0 0 0 0 0 0 0 0 0 0 0 0 127 0" result="hardAlpha"/>
<feOffset/>
<feGaussianBlur stdDeviation="27"/>
<feComposite in2="hardAlpha" operator="out"/>
<feColorMatrix type="matrix" values="0 0 0 0 0 0 0 0 0 0 0 0 0 0 0 0 0 0 0.15 0"/>
<feBlend mode="normal" in2="BackgroundImageFix" result="effect1_dropShadow_601_2254"/>
<feBlend mode="normal" in="SourceGraphic" in2="effect1_dropShadow_601_2254" result="shape"/>
</filter>
<filter id="filter8_d_601_2254" x="60.8086" y="110.449" width="124.035" height="118.691" filterUnits="userSpaceOnUse" color-interpolation-filters="sRGB">
<feFlood flood-opacity="0" result="BackgroundImageFix"/>
<feColorMatrix in="SourceAlpha" type="matrix" values="0 0 0 0 0 0 0 0 0 0 0 0 0 0 0 0 0 0 127 0" result="hardAlpha"/>
<feOffset/>
<feGaussianBlur stdDeviation="27"/>
<feComposite in2="hardAlpha" operator="out"/>
<feColorMatrix type="matrix" values="0 0 0 0 0 0 0 0 0 0 0 0 0 0 0 0 0 0 0.15 0"/>
<feBlend mode="normal" in2="BackgroundImageFix" result="effect1_dropShadow_601_2254"/>
<feBlend mode="normal" in="SourceGraphic" in2="effect1_dropShadow_601_2254" result="shape"/>
</filter>
<filter id="filter9_d_601_2254" x="60.8086" y="119.629" width="124.035" height="109.512" filterUnits="userSpaceOnUse" color-interpolation-filters="sRGB">
<feFlood flood-opacity="0" result="BackgroundImageFix"/>
<feColorMatrix in="SourceAlpha" type="matrix" values="0 0 0 0 0 0 0 0 0 0 0 0 0 0 0 0 0 0 127 0" result="hardAlpha"/>
<feOffset/>
<feGaussianBlur stdDeviation="27"/>
<feComposite in2="hardAlpha" operator="out"/>
<feColorMatrix type="matrix" values="0 0 0 0 0 0 0 0 0 0 0 0 0 0 0 0 0 0 0.15 0"/>
<feBlend mode="normal" in2="BackgroundImageFix" result="effect1_dropShadow_601_2254"/>
<feBlend mode="normal" in="SourceGraphic" in2="effect1_dropShadow_601_2254" result="shape"/>
</filter>
</defs>
</svg>
