<svg width="312" height="182" viewBox="0 0 312 182" fill="none" xmlns="http://www.w3.org/2000/svg">
<g opacity="0.1">
<path d="M51.97 181.424C48.556 181.396 45.819 184.02 45.7626 187.406C45.7062 190.905 48.3584 193.67 51.829 193.698C55.2431 193.726 57.98 191.102 58.0364 187.716C58.0928 184.246 55.4406 181.452 51.97 181.424Z" fill="white"/>
<path d="M32.7545 179.559C29.3969 179.474 26.5753 182.239 26.5471 185.597C26.5189 188.898 29.1994 191.663 32.5006 191.748C35.8582 191.832 38.6798 189.067 38.708 185.71C38.7362 182.408 36.0558 179.643 32.7545 179.559Z" fill="white"/>
<path d="M62.4633 172.535C59.1903 172.564 56.4251 175.357 56.4533 178.602C56.4816 181.875 59.2749 184.64 62.5197 184.612C65.7927 184.583 68.5578 181.79 68.5296 178.545C68.5014 175.272 65.7363 172.507 62.4633 172.535Z" fill="white"/>
<path d="M43.251 170.985C40.0344 170.956 37.2975 173.609 37.2128 176.853C37.1282 180.126 39.8651 182.92 43.1663 182.948C46.3829 182.976 49.1199 180.324 49.2045 177.079C49.2891 173.806 46.5522 171.013 43.251 170.985Z" fill="white"/>
<path d="M81.424 174.512C78.2074 174.54 75.5269 177.192 75.4423 180.437C75.3858 183.682 78.1228 186.504 81.3958 186.532C84.6688 186.56 87.4339 183.823 87.4622 180.522C87.4622 177.249 84.697 174.484 81.424 174.512Z" fill="white"/>
<path d="M13.6998 178.125C10.3986 178.097 7.77454 180.693 7.74632 183.994C7.71811 187.295 10.3139 189.919 13.6152 189.948C16.9164 189.976 19.5405 187.38 19.5687 184.079C19.5687 180.777 17.0011 178.153 13.6998 178.125Z" fill="white"/>
<path d="M24.0347 169.52C20.7052 169.492 18.1094 172.031 18.1094 175.36C18.1094 178.605 20.6206 181.173 23.8654 181.201C27.1948 181.229 29.7907 178.69 29.7907 175.36C29.7907 172.116 27.2512 169.548 24.0347 169.52Z" fill="white"/>
<path d="M100.812 176.26C97.4826 176.232 94.8867 178.799 94.8867 182.101C94.8867 185.345 97.3979 187.913 100.643 187.941C103.972 187.969 106.568 185.402 106.568 182.101C106.596 178.856 104.057 176.288 100.812 176.26Z" fill="white"/>
<path d="M53.6342 162.468C50.3611 162.411 47.7653 164.894 47.6806 168.111C47.6242 171.384 50.079 174.008 53.2956 174.093C56.6532 174.177 59.2773 171.666 59.3337 168.365C59.3619 165.12 56.8507 162.524 53.6342 162.468Z" fill="white"/>
<path d="M72.9427 164.071C69.6697 164.015 67.0456 166.498 66.9892 169.714C66.9328 173.044 69.444 175.696 72.7452 175.696C76.0182 175.724 78.5859 173.213 78.6141 169.968C78.6423 166.724 76.1593 164.128 72.9427 164.071Z" fill="white"/>
<path d="M91.9772 165.741C88.8452 165.769 86.3058 168.337 86.2776 171.497C86.2494 174.714 88.8452 177.31 92.0618 177.31C95.2784 177.31 97.846 174.686 97.846 171.497C97.8178 168.252 95.1937 165.685 91.9772 165.741Z" fill="white"/>
<path d="M34.5421 160.914C31.4101 160.914 28.8425 163.453 28.7861 166.585C28.7296 169.802 31.2973 172.426 34.5138 172.454C37.7304 172.482 40.3545 169.915 40.3545 166.698C40.3545 163.51 37.7586 160.914 34.5421 160.914Z" fill="white"/>
<path d="M-5.67131 176.684C-8.77503 176.712 -11.3991 179.364 -11.3709 182.468C-11.3427 185.572 -8.69038 188.196 -5.58666 188.168C-2.48294 188.139 0.141115 185.487 0.112899 182.383C0.0846834 179.28 -2.56759 176.656 -5.67131 176.684Z" fill="white"/>
<path d="M119.968 178.015C116.865 178.071 114.269 180.723 114.325 183.799C114.382 186.903 117.034 189.498 120.109 189.442C123.213 189.385 125.809 186.733 125.752 183.658C125.696 180.554 123.044 177.958 119.968 178.015Z" fill="white"/>
<path d="M4.61689 168.05C1.51317 168.078 -1.08268 170.73 -1.05446 173.834C-1.02624 176.938 1.62603 179.533 4.72975 179.505C7.83347 179.477 10.4293 176.825 10.4011 173.721C10.3447 170.617 7.6924 167.993 4.61689 168.05Z" fill="white"/>
<path d="M64.1312 153.891C61.0557 153.863 58.4034 156.487 58.3752 159.59C58.347 162.666 60.9711 165.318 64.0748 165.346C67.1503 165.375 69.8026 162.751 69.8308 159.647C69.859 156.571 67.2349 153.919 64.1312 153.891Z" fill="white"/>
<path d="M15.3215 159.102C12.246 159.074 9.67843 161.585 9.622 164.66C9.56557 167.792 12.1614 170.416 15.2933 170.388C18.3688 170.36 20.9083 167.82 20.9083 164.745C20.9365 161.698 18.397 159.13 15.3215 159.102Z" fill="white"/>
<path d="M83.3949 155.551C80.3476 155.551 77.78 158.062 77.7235 161.137C77.6671 164.241 80.2912 166.893 83.3949 166.893C86.4422 166.893 89.0098 164.382 89.0662 161.307C89.1227 158.203 86.4986 155.551 83.3949 155.551Z" fill="white"/>
<path d="M44.9162 152.024C41.8124 151.968 39.1602 154.592 39.1602 157.696C39.1602 160.743 41.6714 163.311 44.7469 163.367C47.8506 163.423 50.5028 160.799 50.5028 157.696C50.5028 154.648 47.9917 152.081 44.9162 152.024Z" fill="white"/>
<path d="M111.275 167.772C108.2 167.8 105.66 170.368 105.66 173.443C105.66 176.519 108.228 179.058 111.303 179.086C114.435 179.114 117.059 176.462 116.975 173.33C116.946 170.255 114.351 167.744 111.275 167.772Z" fill="white"/>
<path d="M102.384 157.301C99.2799 157.273 96.8534 159.643 96.8252 162.718C96.7688 165.879 99.1671 168.362 102.327 168.362C105.431 168.39 107.857 166.02 107.886 162.944C107.914 159.784 105.516 157.329 102.384 157.301Z" fill="white"/>
<path d="M25.6462 150.561C22.486 150.533 20.0312 152.931 20.0312 156.091C20.0312 159.167 22.4014 161.593 25.4769 161.621C28.637 161.65 31.0918 159.251 31.0918 156.091C31.0918 153.016 28.7217 150.589 25.6462 150.561Z" fill="white"/>
<path d="M55.4602 143.53C52.3847 143.501 49.9581 145.9 49.9299 148.975C49.9017 152.051 52.3 154.477 55.3755 154.505C58.4511 154.534 60.8776 152.135 60.9058 149.06C60.934 145.956 58.5357 143.53 55.4602 143.53Z" fill="white"/>
<path d="M74.4209 145.143C71.3454 145.143 68.9188 147.541 68.8906 150.616C68.8906 153.692 71.289 156.118 74.3645 156.147C77.44 156.147 79.8665 153.748 79.8947 150.673C79.8947 147.569 77.4964 145.143 74.4209 145.143Z" fill="white"/>
<path d="M93.7015 147.09C90.6542 147.062 88.1712 149.545 88.1995 152.592C88.2277 155.555 90.6542 157.981 93.6168 158.01C96.6641 158.038 99.1471 155.555 99.1189 152.507C99.1189 149.545 96.6924 147.118 93.7015 147.09Z" fill="white"/>
<path d="M139.221 179.874C136.259 179.902 133.86 182.329 133.832 185.32C133.832 188.367 136.259 190.822 139.306 190.822C142.353 190.822 144.78 188.339 144.752 185.291C144.752 182.244 142.269 179.818 139.221 179.874Z" fill="white"/>
<path d="M130.774 169.575C127.727 169.519 125.216 171.945 125.188 174.964C125.16 177.927 127.558 180.41 130.521 180.466C133.568 180.523 136.079 178.096 136.107 175.077C136.107 172.115 133.737 169.66 130.774 169.575Z" fill="white"/>
<path d="M-3.93457 157.694C-6.95364 157.665 -9.46484 160.12 -9.46484 163.167C-9.46484 166.13 -7.03829 168.585 -4.07565 168.613C-1.05657 168.641 1.45461 166.187 1.45461 163.139C1.42639 160.177 -0.971928 157.722 -3.93457 157.694Z" fill="white"/>
<path d="M36.3316 141.957C33.3125 141.873 30.7449 144.271 30.6885 147.29C30.6321 150.253 33.0022 152.764 35.9648 152.848C38.9839 152.933 41.5515 150.535 41.6079 147.516C41.6644 144.553 39.2943 142.07 36.3316 141.957Z" fill="white"/>
<path d="M121.682 159.026C118.748 158.997 116.236 161.424 116.18 164.387C116.152 167.321 118.578 169.832 121.541 169.889C124.475 169.917 126.987 167.49 127.043 164.528C127.099 161.565 124.645 159.054 121.682 159.026Z" fill="white"/>
<path d="M6.59405 149.064C3.65963 149.064 1.14844 151.519 1.14844 154.482C1.14844 157.416 3.60318 159.927 6.56583 159.927C9.50025 159.927 12.0115 157.473 12.0115 154.51C12.0397 151.547 9.55669 149.064 6.59405 149.064Z" fill="white"/>
<path d="M41.0977 138.714C41.0977 141.62 43.4678 144.018 46.374 144.046C49.3366 144.075 51.8196 141.62 51.7632 138.657C51.7067 135.751 49.3084 133.381 46.4022 133.381C43.496 133.437 41.0977 135.807 41.0977 138.714Z" fill="white"/>
<path d="M60.3596 140.29C60.3314 143.224 62.8426 145.736 65.777 145.707C68.655 145.679 71.0816 143.253 71.1098 140.375C71.138 137.44 68.6268 134.929 65.6924 134.957C62.8144 135.014 60.3878 137.412 60.3596 140.29Z" fill="white"/>
<path d="M79.6623 142.035C79.7187 144.941 82.1453 147.311 85.0515 147.283C87.9577 147.255 90.3278 144.856 90.3278 141.95C90.3278 139.044 87.9294 136.646 85.0232 136.617C82.0606 136.589 79.5776 139.072 79.6623 142.035Z" fill="white"/>
<path d="M11.5283 145.704C11.4719 148.667 13.9548 151.15 16.9175 151.121C19.8237 151.093 22.222 148.695 22.222 145.789C22.222 142.882 19.8237 140.484 16.9175 140.428C14.0113 140.428 11.5847 142.798 11.5283 145.704Z" fill="white"/>
<path d="M112.974 148.812C110.096 148.812 107.642 151.211 107.614 154.117C107.585 157.051 110.097 159.591 113.031 159.534C115.937 159.478 118.335 157.051 118.335 154.145C118.307 151.239 115.852 148.812 112.974 148.812Z" fill="white"/>
<path d="M99.0625 143.533C99.0625 146.439 101.292 148.724 104.198 148.752C107.132 148.781 109.418 146.552 109.474 143.645C109.531 140.711 107.301 138.397 104.423 138.341C101.433 138.284 99.0907 140.542 99.0625 143.533Z" fill="white"/>
<path d="M22.2812 136.788C22.2812 139.779 24.5949 142.065 27.5858 142.008C30.492 141.98 32.721 139.666 32.6928 136.76C32.6646 133.854 30.3791 131.625 27.4729 131.625C24.5385 131.625 22.2812 133.882 22.2812 136.788Z" fill="white"/>
<path d="M149.558 171.465C146.652 171.465 144.395 173.722 144.395 176.628C144.395 179.535 146.624 181.82 149.53 181.848C152.492 181.876 154.806 179.563 154.778 176.6C154.75 173.694 152.464 171.465 149.558 171.465Z" fill="white"/>
<path d="M140.874 161.198C137.968 161.226 135.71 163.511 135.739 166.417C135.767 169.324 138.052 171.581 140.958 171.553C143.865 171.524 146.122 169.239 146.094 166.333C146.065 163.427 143.78 161.169 140.874 161.198Z" fill="white"/>
<path d="M127.079 155.868C127.136 158.662 129.393 160.919 132.214 160.919C135.092 160.919 137.406 158.634 137.378 155.727C137.378 152.849 135.036 150.564 132.158 150.592C129.308 150.648 127.023 152.99 127.079 155.868Z" fill="white"/>
<path d="M57.1622 124.603C54.2842 124.546 51.9141 126.86 51.9141 129.71C51.9141 132.531 54.1431 134.845 56.9647 134.873C59.8427 134.929 62.2128 132.616 62.2128 129.766C62.2128 126.944 59.9555 124.631 57.1622 124.603Z" fill="white"/>
<path d="M-7.54271 143.785C-7.57093 146.663 -5.28546 149.005 -2.40746 149.005C0.414103 149.005 2.69957 146.748 2.756 143.954C2.78421 141.076 0.49876 138.734 -2.37923 138.734C-5.22901 138.734 -7.51449 140.992 -7.54271 143.785Z" fill="white"/>
<path d="M76.3675 126.516C73.4895 126.488 71.1758 128.773 71.1758 131.651C71.1758 134.473 73.4048 136.758 76.1982 136.815C79.1044 136.871 81.4463 134.614 81.4745 131.736C81.5027 128.858 79.2455 126.544 76.3675 126.516Z" fill="white"/>
<path d="M95.316 128.153C92.5227 128.124 90.1808 130.438 90.1526 133.231C90.1244 136.025 92.4381 138.367 95.2314 138.395C98.0248 138.423 100.367 136.109 100.395 133.316C100.423 130.523 98.1094 128.181 95.316 128.153Z" fill="white"/>
<path d="M37.7476 123.02C34.9543 123.02 32.6406 125.361 32.6406 128.155C32.6406 130.948 34.9825 133.262 37.7759 133.262C40.5692 133.262 42.8829 130.92 42.8829 128.127C42.8829 125.333 40.541 123.02 37.7476 123.02Z" fill="white"/>
<path d="M8.15242 130.1C5.38729 130.128 3.0736 132.498 3.10182 135.263C3.13003 138.028 5.50014 140.342 8.26528 140.314C11.0304 140.286 13.3441 137.916 13.3159 135.15C13.2594 132.385 10.9176 130.072 8.15242 130.1Z" fill="white"/>
<path d="M123.524 140.371C120.731 140.4 118.417 142.741 118.446 145.535C118.474 148.328 120.816 150.642 123.609 150.614C126.402 150.585 128.716 148.244 128.688 145.45C128.66 142.657 126.29 140.343 123.524 140.371Z" fill="white"/>
<path d="M114.598 129.879C111.861 129.851 109.575 132.08 109.547 134.817C109.519 137.554 111.748 139.839 114.485 139.867C117.222 139.896 119.507 137.667 119.535 134.93C119.564 132.193 117.335 129.907 114.598 129.879Z" fill="white"/>
<path d="M18.5274 121.524C15.7905 121.495 13.505 123.725 13.4768 126.461C13.4486 129.198 15.6776 131.484 18.4146 131.512C21.1515 131.54 23.437 129.311 23.4652 126.574C23.4934 123.837 21.2643 121.552 18.5274 121.524Z" fill="white"/>
<path d="M160.514 163.057C157.693 162.887 155.379 164.947 155.266 167.74C155.153 170.477 157.157 172.735 159.894 172.904C162.715 173.073 165.029 171.013 165.142 168.22C165.255 165.455 163.223 163.198 160.514 163.057Z" fill="white"/>
<path d="M67.2652 116.106C64.5565 116.134 62.4122 118.278 62.3557 121.015C62.3275 123.78 64.5284 126.009 67.2935 126.038C70.0586 126.038 72.2877 123.837 72.2594 121.072C72.2594 118.25 70.0586 116.078 67.2652 116.106Z" fill="white"/>
<path d="M86.6168 117.746C83.8799 117.746 81.7355 119.834 81.7073 122.571C81.6791 125.393 83.8235 127.565 86.6168 127.565C89.3538 127.565 91.4981 125.477 91.5263 122.74C91.5545 119.947 89.4102 117.746 86.6168 117.746Z" fill="white"/>
<path d="M168.977 173.323C166.155 173.267 163.954 175.383 163.926 178.205C163.898 180.942 165.986 183.114 168.723 183.171C171.544 183.227 173.745 181.111 173.773 178.289C173.802 175.552 171.714 173.408 168.977 173.323Z" fill="white"/>
<path d="M146.602 157.334C146.574 160.155 148.774 162.328 151.596 162.3C154.333 162.272 156.449 160.099 156.421 157.362C156.393 154.625 154.276 152.481 151.511 152.481C148.774 152.453 146.63 154.569 146.602 157.334Z" fill="white"/>
<path d="M48.3551 114.525C45.6182 114.525 43.4738 116.642 43.4456 119.35C43.4174 122.172 45.5618 124.344 48.3551 124.344C51.092 124.344 53.2364 122.228 53.2646 119.52C53.3211 116.726 51.1767 114.525 48.3551 114.525Z" fill="white"/>
<path d="M142.481 142.205C139.745 142.233 137.628 144.349 137.657 147.115C137.685 149.852 139.801 151.968 142.566 151.939C145.303 151.911 147.419 149.795 147.391 147.03C147.363 144.293 145.218 142.205 142.481 142.205Z" fill="white"/>
<path d="M105.91 119.744C103.229 119.716 101.085 121.776 101.028 124.428C100.972 127.193 103.032 129.394 105.769 129.422C108.534 129.479 110.706 127.363 110.735 124.654C110.763 121.917 108.647 119.773 105.91 119.744Z" fill="white"/>
<path d="M29.0031 113.006C26.3508 113.034 24.2629 115.151 24.2347 117.803C24.2064 120.54 26.3508 122.684 29.0877 122.684C31.8247 122.684 33.9408 120.54 33.9408 117.803C33.9126 115.094 31.7682 112.978 29.0031 113.006Z" fill="white"/>
<path d="M-0.426189 120.09C-3.07846 120.062 -5.25106 122.15 -5.30749 124.774C-5.36392 127.483 -3.24774 129.712 -0.539042 129.712C2.11323 129.74 4.28583 127.652 4.34226 125.028C4.42691 122.347 2.28251 120.118 -0.426189 120.09Z" fill="white"/>
<path d="M133.821 131.656C131.169 131.656 129.025 133.801 128.996 136.453C128.968 139.162 131.197 141.362 133.906 141.306C136.558 141.25 138.674 139.077 138.646 136.425C138.646 133.801 136.473 131.656 133.821 131.656Z" fill="white"/>
<path d="M53.8518 110.721C53.8236 113.317 55.9962 115.546 58.5921 115.574C61.1879 115.602 63.4169 113.43 63.4451 110.834C63.4733 108.238 61.3008 106.009 58.7049 105.981C56.0809 105.953 53.88 108.125 53.8518 110.721Z" fill="white"/>
<path d="M73.1292 112.356C73.101 114.952 75.3018 117.153 77.8976 117.181C80.4935 117.209 82.6943 115.009 82.7225 112.413C82.7507 109.817 80.5499 107.616 77.954 107.588C75.3582 107.588 73.1574 109.76 73.1292 112.356Z" fill="white"/>
<path d="M120.39 125.985C120.249 128.496 122.28 130.754 124.848 130.979C127.415 131.177 129.757 129.089 129.927 126.437C130.068 123.925 128.036 121.668 125.469 121.442C122.901 121.245 120.559 123.361 120.39 125.985Z" fill="white"/>
<path d="M5.03933 115.856C5.01112 118.452 7.21192 120.681 9.80776 120.681C12.3472 120.681 14.4916 118.536 14.548 115.997C14.5762 113.401 12.3754 111.172 9.77955 111.172C7.24015 111.172 5.09576 113.316 5.03933 115.856Z" fill="white"/>
<path d="M92.4495 113.934C92.4213 116.53 94.6503 118.787 97.2461 118.73C99.7856 118.674 101.93 116.501 101.93 113.962C101.902 111.423 99.7573 109.25 97.1897 109.25C94.6785 109.25 92.5059 111.394 92.4495 113.934Z" fill="white"/>
<path d="M170.418 154.623C167.85 154.652 165.734 156.796 165.762 159.364C165.79 161.931 167.935 164.047 170.502 164.019C173.07 163.991 175.186 161.847 175.158 159.279C175.13 156.683 172.985 154.595 170.418 154.623Z" fill="white"/>
<path d="M34.6104 108.94C34.6668 111.508 36.8677 113.624 39.4071 113.596C41.9465 113.568 44.1191 111.395 44.1191 108.856C44.1191 106.316 41.9747 104.144 39.4071 104.115C36.8112 104.087 34.554 106.345 34.6104 108.94Z" fill="white"/>
<path d="M174.823 169.436C174.738 172.032 176.77 174.177 179.366 174.233C181.961 174.289 184.078 172.23 184.106 169.634C184.134 167.038 182.074 164.922 179.478 164.922C176.967 164.922 174.908 166.897 174.823 169.436Z" fill="white"/>
<path d="M161.839 144.043C159.299 144.015 157.24 145.99 157.155 148.53C157.07 151.125 159.102 153.27 161.698 153.354C164.293 153.439 166.41 151.379 166.466 148.784C166.494 146.188 164.435 144.071 161.839 144.043Z" fill="white"/>
<path d="M153.235 133.831C150.583 133.775 148.523 135.806 148.551 138.43C148.551 140.998 150.554 143.001 153.122 143.001C155.69 143.001 157.721 141.054 157.749 138.459C157.749 135.891 155.802 133.859 153.235 133.831Z" fill="white"/>
<path d="M15.8245 107.332C15.8527 109.899 17.856 111.846 20.4519 111.818C23.0195 111.79 24.9946 109.815 24.9946 107.247C24.9946 104.679 23.0195 102.676 20.4519 102.676C17.7996 102.648 15.7963 104.679 15.8245 107.332Z" fill="white"/>
<path d="M188.242 175.583C185.646 175.527 183.615 177.474 183.53 180.041C183.445 182.694 185.449 184.782 188.101 184.81C190.668 184.838 192.7 182.863 192.728 180.267C192.785 177.671 190.81 175.64 188.242 175.583Z" fill="white"/>
<path d="M111.566 115.569C111.566 118.221 113.598 120.225 116.25 120.196C118.818 120.14 120.765 118.137 120.736 115.541C120.708 112.973 118.705 110.998 116.137 110.998C113.57 110.998 111.595 113.001 111.566 115.569Z" fill="white"/>
<path d="M64.7151 101.805C64.7151 104.373 66.7185 106.348 69.3143 106.32C71.8819 106.292 73.857 104.26 73.8006 101.692C73.7724 99.1813 71.7973 97.2626 69.2861 97.2344C66.6903 97.2344 64.6869 99.2377 64.7151 101.805Z" fill="white"/>
<path d="M83.677 103.578C83.6205 106.146 85.5674 108.206 88.1068 108.234C90.6744 108.262 92.706 106.315 92.7342 103.748C92.7624 101.18 90.7873 99.1767 88.2197 99.1484C85.7367 99.1767 83.7334 101.095 83.677 103.578Z" fill="white"/>
<path d="M45.4479 100.024C45.3633 102.62 47.3384 104.68 49.906 104.708C52.4172 104.736 54.4487 102.817 54.5051 100.334C54.5898 97.7387 52.6147 95.6789 50.0471 95.6507C47.5359 95.6225 45.5044 97.5411 45.4479 100.024Z" fill="white"/>
<path d="M139.909 127.645C139.824 130.212 141.771 132.3 144.311 132.357C146.878 132.413 148.938 130.466 148.966 127.927C148.994 125.416 147.104 123.384 144.649 123.3C142.053 123.187 139.994 125.105 139.909 127.645Z" fill="white"/>
<path d="M103.012 105.355C103.04 107.809 105.072 109.813 107.527 109.813C109.981 109.784 112.013 107.753 111.985 105.298C111.956 102.843 109.925 100.812 107.47 100.84C105.015 100.84 102.984 102.9 103.012 105.355Z" fill="white"/>
<path d="M26.1992 98.5599C26.1992 101.015 28.2307 103.046 30.6573 103.074C33.112 103.074 35.1436 101.043 35.1718 98.6164C35.1718 96.1616 33.1403 94.1301 30.7137 94.1019C28.259 94.0736 26.1992 96.1052 26.1992 98.5599Z" fill="white"/>
<path d="M130.965 117.489C130.937 119.915 132.94 122.003 135.395 122.031C137.822 122.06 139.91 120.056 139.938 117.602C139.966 115.175 137.963 113.087 135.508 113.059C133.053 113.031 130.993 115.034 130.965 117.489Z" fill="white"/>
<path d="M-3.33984 105.615C-3.33984 108.069 -1.2801 110.129 1.14645 110.101C3.60121 110.101 5.63273 108.013 5.60452 105.558C5.5763 103.16 3.57298 101.185 1.20287 101.157C-1.25189 101.128 -3.33984 103.188 -3.33984 105.615Z" fill="white"/>
<path d="M189.773 156.514C187.403 156.514 185.371 158.517 185.371 160.887C185.371 163.257 187.374 165.289 189.745 165.289C192.115 165.289 194.146 163.285 194.146 160.915C194.146 158.545 192.143 156.514 189.773 156.514Z" fill="white"/>
<path d="M181.018 145.901C178.648 145.929 176.645 147.96 176.645 150.331C176.673 152.701 178.704 154.704 181.074 154.704C183.444 154.676 185.448 152.644 185.448 150.274C185.448 147.876 183.388 145.872 181.018 145.901Z" fill="white"/>
<path d="M168.021 140.089C168.077 142.431 170.024 144.35 172.366 144.378C174.764 144.406 176.796 142.403 176.768 140.005C176.768 137.606 174.736 135.603 172.338 135.631C169.968 135.659 167.964 137.719 168.021 140.089Z" fill="white"/>
<path d="M55.9035 91.4216C55.8471 93.8199 57.794 95.8232 60.2205 95.8514C62.6189 95.8797 64.6222 93.9046 64.6222 91.5062C64.6222 89.1079 62.6471 87.1328 60.2487 87.1328C57.8786 87.161 55.96 89.0797 55.9035 91.4216Z" fill="white"/>
<path d="M7.05469 96.9488C7.05469 99.3472 9.05801 101.322 11.4563 101.294C13.8547 101.266 15.8298 99.2625 15.7733 96.8642C15.7169 94.4659 13.6854 92.519 11.3153 92.5754C8.94515 92.6883 7.05469 94.6069 7.05469 96.9488Z" fill="white"/>
<path d="M122.415 106.827C122.359 109.225 124.306 111.229 126.704 111.285C129.102 111.313 131.106 109.338 131.106 106.94C131.106 104.542 129.131 102.566 126.732 102.566C124.39 102.595 122.472 104.485 122.415 106.827Z" fill="white"/>
<path d="M198.576 166.868C196.15 166.783 194.147 168.702 194.09 171.128C194.062 173.499 195.896 175.445 198.266 175.53C200.693 175.615 202.696 173.696 202.752 171.27C202.809 168.899 200.947 166.953 198.576 166.868Z" fill="white"/>
<path d="M75.1914 93.0838C75.1914 95.4821 77.1665 97.4572 79.5648 97.4572C81.9632 97.429 83.9382 95.4257 83.91 93.0274C83.8818 90.6855 81.9631 88.7668 79.6212 88.7386C77.1947 88.7104 75.1914 90.6855 75.1914 93.0838Z" fill="white"/>
<path d="M159.107 129.334C159.05 131.789 160.997 133.736 163.452 133.736C165.85 133.708 167.712 131.817 167.712 129.447C167.712 127.049 165.85 125.158 163.452 125.13C161.054 125.074 159.135 126.936 159.107 129.334Z" fill="white"/>
<path d="M150.49 119.017C150.433 121.444 152.239 123.334 154.637 123.391C157.064 123.419 158.926 121.613 158.954 119.215C158.982 116.788 157.148 114.926 154.722 114.926C152.38 114.898 150.546 116.675 150.49 119.017Z" fill="white"/>
<path d="M207.473 177.559C205.103 177.531 203.269 179.308 203.212 181.65C203.156 184.077 204.933 185.995 207.332 186.052C209.758 186.108 211.649 184.302 211.677 181.876C211.705 179.449 209.871 177.559 207.473 177.559Z" fill="white"/>
<path d="M94.543 94.7159C94.543 97.1143 96.4052 98.9765 98.8035 99.0047C101.202 99.0047 103.064 97.1425 103.092 94.7442C103.092 92.3458 101.23 90.4836 98.8317 90.4554C96.4052 90.4272 94.543 92.2894 94.543 94.7159Z" fill="white"/>
<path d="M37.0237 89.8412C36.9955 92.2959 38.9142 94.2146 41.369 94.1864C43.7673 94.1582 45.6013 92.2677 45.6013 89.8976C45.6013 87.4993 43.7391 85.637 41.3407 85.637C38.9424 85.6088 37.052 87.4428 37.0237 89.8412Z" fill="white"/>
<path d="M17.8294 87.8349C17.773 90.1485 19.5506 92.0672 21.8361 92.1519C24.1497 92.2365 26.0966 90.4589 26.1813 88.1735C26.2941 85.7751 24.4601 83.8282 22.09 83.7718C19.7763 83.7436 17.8859 85.5212 17.8294 87.8349Z" fill="white"/>
<path d="M118.115 92.4316C115.717 92.4316 113.855 94.3221 113.883 96.7204C113.94 99.0341 115.802 100.84 118.144 100.812C120.486 100.783 122.291 98.9212 122.291 96.6076C122.291 94.2939 120.457 92.4599 118.115 92.4316Z" fill="white"/>
<path d="M141.891 108.459C141.863 110.744 143.725 112.663 146.039 112.691C148.324 112.719 150.243 110.801 150.243 108.515C150.243 106.23 148.324 104.339 146.01 104.367C143.753 104.396 141.919 106.23 141.891 108.459Z" fill="white"/>
<path d="M71.0058 78.663C68.7485 78.5783 66.7734 80.4123 66.6887 82.6978C66.6323 84.9551 68.4946 86.9302 70.78 86.9584C73.0655 87.0148 74.9841 85.1244 75.0124 82.8389C75.0406 80.6381 73.2348 78.7476 71.0058 78.663Z" fill="white"/>
<path d="M90.1159 80.2972C87.9151 80.3254 86.0528 82.1876 85.9964 84.3884C85.9682 86.6457 87.9151 88.5926 90.1723 88.5644C92.3731 88.5361 94.2354 86.6739 94.2918 84.4731C94.32 82.2158 92.3731 80.269 90.1159 80.2972Z" fill="white"/>
<path d="M51.6777 76.7707C49.4204 76.7143 47.4453 78.6612 47.4453 80.9184C47.4453 83.1192 49.364 85.0097 51.5648 85.0379C53.7656 85.0379 55.6843 83.1757 55.7125 80.9749C55.7407 78.774 53.8785 76.8272 51.6777 76.7707Z" fill="white"/>
<path d="M109.139 81.9691C106.995 81.9409 105.161 83.6902 105.048 85.8628C104.935 88.0637 106.769 90.0105 108.998 90.067C111.199 90.1516 113.118 88.3176 113.174 86.0886C113.202 83.916 111.368 81.9973 109.139 81.9691Z" fill="white"/>
<path d="M2.67262 82.3001C0.443586 82.3565 -1.39042 84.2752 -1.30578 86.476C-1.22113 88.6486 0.584661 90.4262 2.75727 90.4262C4.95809 90.4262 6.84854 88.5357 6.82032 86.3349C6.76389 84.1059 4.87344 82.2436 2.67262 82.3001Z" fill="white"/>
<path d="M187.289 141.581C187.261 143.782 189.152 145.7 191.381 145.7C193.581 145.7 195.5 143.782 195.472 141.581C195.444 139.352 193.525 137.49 191.324 137.546C189.123 137.603 187.289 139.437 187.289 141.581Z" fill="white"/>
<path d="M178.629 131.314C178.629 133.515 180.491 135.406 182.72 135.406C184.949 135.406 186.811 133.487 186.755 131.286C186.727 129.114 184.921 127.336 182.748 127.28C180.548 127.251 178.629 129.114 178.629 131.314Z" fill="white"/>
<path d="M137.132 94.179C134.931 94.1226 133.012 95.9848 133.012 98.2138C132.984 100.415 134.874 102.305 137.075 102.305C139.304 102.305 141.166 100.386 141.11 98.1856C141.082 96.0412 139.276 94.2354 137.132 94.179Z" fill="white"/>
<path d="M196.282 152.193C196.253 154.394 198.144 156.285 200.345 156.285C202.574 156.285 204.436 154.394 204.408 152.165C204.379 149.993 202.574 148.187 200.429 148.159C198.2 148.13 196.31 149.964 196.282 152.193Z" fill="white"/>
<path d="M32.6154 75.2752C30.3864 75.0777 28.4113 76.7989 28.2702 79.0561C28.1291 81.2287 29.7656 83.1192 31.9664 83.3167C34.1955 83.5142 36.1706 81.793 36.3117 79.5358C36.4809 77.3632 34.8162 75.4727 32.6154 75.2752Z" fill="white"/>
<path d="M205.009 162.443C204.953 164.701 206.787 166.535 209.016 166.535C211.188 166.535 212.994 164.785 213.022 162.613C213.079 160.356 211.245 158.521 209.016 158.521C206.843 158.521 205.066 160.243 205.009 162.443Z" fill="white"/>
<path d="M170.02 120.706C169.992 122.991 171.797 124.769 174.083 124.74C176.284 124.712 178.005 122.935 178.005 120.734C177.977 118.505 176.255 116.784 174.026 116.784C171.797 116.755 170.048 118.476 170.02 120.706Z" fill="white"/>
<path d="M213.793 173.16C213.822 175.333 215.486 176.997 217.659 177.026C219.916 177.054 221.637 175.361 221.665 173.132C221.665 170.875 219.973 169.182 217.715 169.182C215.458 169.182 213.765 170.903 213.793 173.16Z" fill="white"/>
<path d="M128.402 83.7715C126.229 83.7715 124.536 85.4362 124.508 87.5806C124.48 89.8096 126.229 91.559 128.458 91.5308C130.603 91.5026 132.296 89.8096 132.267 87.637C132.239 85.4644 130.546 83.7715 128.402 83.7715Z" fill="white"/>
<path d="M165.284 106.565C163.111 106.593 161.447 108.258 161.418 110.43C161.39 112.688 163.111 114.381 165.368 114.381C167.541 114.352 169.206 112.688 169.234 110.515C169.262 108.23 167.541 106.537 165.284 106.565Z" fill="white"/>
<path d="M62.1871 68.3379C60.0145 68.3379 58.3215 70.0308 58.2933 72.1752C58.2651 74.4043 60.0145 76.1254 62.2435 76.0972C64.3879 76.069 66.0526 74.3478 66.0526 72.1752C66.0526 70.0308 64.3597 68.3379 62.1871 68.3379Z" fill="white"/>
<path d="M81.2015 69.9457C79.0289 69.9175 77.3078 71.5822 77.2513 73.7266C77.1949 75.9556 78.9161 77.705 81.1451 77.705C83.3177 77.705 84.9824 76.012 85.0106 73.8394C85.0389 71.6668 83.3459 69.9739 81.2015 69.9457Z" fill="white"/>
<path d="M13.4563 73.812C11.2837 73.7555 9.53436 75.392 9.47793 77.5646C9.4215 79.7937 11.1144 81.5713 13.3435 81.5995C15.5161 81.5995 17.209 79.9347 17.2372 77.7904C17.2654 75.5613 15.6007 73.8402 13.4563 73.812Z" fill="white"/>
<path d="M222.532 183.371C222.503 185.515 224.225 187.236 226.369 187.264C228.513 187.292 230.234 185.571 230.263 183.427C230.291 181.283 228.57 179.561 226.425 179.533C224.281 179.533 222.532 181.226 222.532 183.371Z" fill="white"/>
<path d="M104.28 75.8966C104.365 73.7805 102.644 71.9747 100.556 71.89C98.4398 71.8336 96.634 73.5547 96.6058 75.6709C96.5776 77.7871 98.2987 79.5647 100.415 79.5929C102.446 79.6211 104.196 77.9564 104.28 75.8966Z" fill="white"/>
<path d="M156.255 96.0228C154.139 96.0792 152.418 97.885 152.474 99.973C152.53 102.033 154.28 103.697 156.311 103.697C158.428 103.697 160.177 101.92 160.149 99.8037C160.149 97.7157 158.371 95.9664 156.255 96.0228Z" fill="white"/>
<path d="M42.9731 66.7572C40.8569 66.7008 39.0793 68.4501 39.0511 70.5663C39.0229 72.6825 40.7723 74.4601 42.8884 74.4601C45.0046 74.4601 46.754 72.6825 46.7258 70.5663C46.7258 68.5066 45.0328 66.8136 42.9731 66.7572Z" fill="white"/>
<path d="M119.751 81.1238C121.783 81.0955 123.532 79.2897 123.476 77.2582C123.419 75.2549 121.726 73.5902 119.723 73.5902C117.692 73.562 115.914 75.3395 115.914 77.3711C115.942 79.4308 117.72 81.1802 119.751 81.1238Z" fill="white"/>
<path d="M23.6616 65.2386C21.63 65.2104 19.8524 66.9598 19.8242 68.9913C19.8242 71.0228 21.5736 72.8004 23.6051 72.7722C25.6366 72.744 27.386 70.9664 27.3578 68.9349C27.3578 66.9598 25.6649 65.2668 23.6616 65.2386Z" fill="white"/>
<path d="M147.592 85.8031C145.561 85.8313 143.839 87.6371 143.896 89.6686C143.952 91.6719 145.645 93.3084 147.649 93.3366C149.68 93.3366 151.429 91.5873 151.429 89.5558C151.401 87.496 149.624 85.7749 147.592 85.8031Z" fill="white"/>
<path d="M198.243 132.755C198.102 134.815 199.766 136.592 201.826 136.677C203.801 136.761 205.551 135.181 205.663 133.15C205.804 131.09 204.14 129.313 202.08 129.228C200.105 129.143 198.384 130.723 198.243 132.755Z" fill="white"/>
<path d="M206.957 143.165C206.929 145.224 208.509 146.861 210.569 146.889C212.629 146.917 214.265 145.337 214.293 143.278C214.322 141.218 212.742 139.581 210.682 139.553C208.65 139.525 206.986 141.133 206.957 143.165Z" fill="white"/>
<path d="M193.277 118.674C191.217 118.674 189.609 120.31 189.637 122.37C189.637 124.43 191.274 126.038 193.333 126.01C195.393 126.01 197.001 124.373 196.973 122.314C196.945 120.282 195.337 118.674 193.277 118.674Z" fill="white"/>
<path d="M72.4004 67.1826C74.4884 67.2108 76.0684 65.6308 76.0966 63.571C76.0966 61.5677 74.6012 59.9876 72.5979 59.9312C70.5099 59.8748 68.8735 61.3984 68.8452 63.4582C68.7888 65.5179 70.3407 67.1544 72.4004 67.1826Z" fill="white"/>
<path d="M219.267 150.223C217.264 150.251 215.712 151.775 215.684 153.778C215.656 155.866 217.208 157.474 219.267 157.474C221.327 157.503 222.935 155.923 222.935 153.835C222.935 151.775 221.355 150.195 219.267 150.223Z" fill="white"/>
<path d="M184.414 108.431C182.326 108.375 180.69 109.898 180.662 111.958C180.605 114.046 182.157 115.654 184.245 115.683C186.333 115.711 187.913 114.131 187.913 112.071C187.913 110.068 186.418 108.488 184.414 108.431Z" fill="white"/>
<path d="M53.1864 65.5457C55.1897 65.5457 56.7416 64.0502 56.798 62.0469C56.8262 59.959 55.2744 58.3789 53.2146 58.3789C51.2113 58.3789 49.6595 59.8743 49.603 61.8776C49.5466 63.9374 51.1267 65.5175 53.1864 65.5457Z" fill="white"/>
<path d="M91.6613 68.7336C93.6646 68.7618 95.2447 67.2664 95.3293 65.2913C95.3857 63.2033 93.8621 61.595 91.8024 61.5668C89.7991 61.5386 88.219 63.034 88.1343 65.0091C88.0779 67.0971 89.6015 68.7054 91.6613 68.7336Z" fill="white"/>
<path d="M4.3407 70.6506C6.3158 70.6506 7.89586 69.127 7.89586 67.1237C7.92408 65.1486 6.40044 63.5685 4.42535 63.5121C2.3656 63.4839 0.757306 65.0639 0.785522 67.0955C0.813738 69.0988 2.36561 70.6224 4.3407 70.6506Z" fill="white"/>
<path d="M138.845 82.5315C140.905 82.588 142.541 81.0361 142.541 78.9764C142.541 76.973 141.018 75.4212 139.043 75.393C137.039 75.3647 135.459 76.8884 135.403 78.8635C135.375 80.8668 136.87 82.4751 138.845 82.5315Z" fill="white"/>
<path d="M175.606 97.9027C173.603 97.9027 172.051 99.4546 172.051 101.43C172.023 103.489 173.631 105.069 175.691 105.041C177.666 105.013 179.19 103.433 179.162 101.43C179.162 99.4264 177.61 97.8745 175.606 97.9027Z" fill="white"/>
<path d="M224.738 164.132C224.738 166.136 226.262 167.687 228.265 167.716C230.269 167.744 231.849 166.22 231.877 164.245C231.905 162.242 230.41 160.662 228.435 160.605C226.375 160.492 224.738 162.073 224.738 164.132Z" fill="white"/>
<path d="M110.893 70.2805C112.84 70.3369 114.505 68.7851 114.561 66.8382C114.618 64.9477 113.122 63.3395 111.232 63.2266C109.285 63.1137 107.592 64.6374 107.507 66.5843C107.423 68.5311 108.946 70.2241 110.893 70.2805Z" fill="white"/>
<path d="M34.1595 63.5426C36.1064 63.5708 37.7429 61.9907 37.7429 60.0156C37.7429 58.0687 36.1346 56.4604 34.1877 56.4886C32.2973 56.5169 30.7454 58.0405 30.689 59.931C30.6325 61.8778 32.2126 63.5143 34.1595 63.5426Z" fill="white"/>
<path d="M166.805 94.6946C168.668 94.7792 170.332 93.2274 170.445 91.3651C170.558 89.5029 169.034 87.81 167.144 87.6971C165.225 87.5842 163.476 89.1643 163.419 91.1112C163.363 92.9734 164.915 94.6099 166.805 94.6946Z" fill="white"/>
<path d="M233.449 174.568C233.364 176.515 234.944 178.208 236.919 178.236C238.81 178.264 240.418 176.741 240.502 174.85C240.587 172.903 239.007 171.21 237.032 171.182C235.142 171.154 233.533 172.677 233.449 174.568Z" fill="white"/>
<path d="M129.872 72.1233C131.706 72.1797 133.371 70.5996 133.427 68.7374C133.455 66.8752 131.875 65.2387 130.013 65.2387C128.207 65.2105 126.627 66.7341 126.542 68.5399C126.458 70.3739 128.01 72.0669 129.872 72.1233Z" fill="white"/>
<path d="M14.835 61.8215C16.6408 61.9061 18.2491 60.4107 18.3619 58.5767C18.4748 56.7709 17.0076 55.1344 15.1736 55.0215C13.2831 54.9087 11.6184 56.4323 11.562 58.351C11.4773 60.1285 13.001 61.7368 14.835 61.8215Z" fill="white"/>
<path d="M158.003 83.969C159.837 83.9408 161.333 82.3889 161.333 80.5549C161.333 78.7209 159.809 77.1973 157.975 77.1973C156.085 77.1973 154.505 78.7773 154.589 80.6678C154.617 82.53 156.169 83.9972 158.003 83.969Z" fill="white"/>
<path d="M242.252 184.896C242.195 186.73 243.662 188.31 245.496 188.394C247.387 188.479 249.023 186.927 249.023 185.037C249.052 183.203 247.528 181.651 245.694 181.623C243.888 181.566 242.336 183.062 242.252 184.896Z" fill="white"/>
<path d="M63.7548 56.2902C65.617 56.3184 67.1124 54.8512 67.1124 52.9889C67.1406 51.1267 65.6734 49.6313 63.8112 49.6313C61.949 49.603 60.4535 51.0703 60.4535 52.9325C60.4253 54.7947 61.8925 56.2619 63.7548 56.2902Z" fill="white"/>
<path d="M83.0365 58.204C84.8987 58.2322 86.3941 56.765 86.4223 54.8746C86.4505 53.0123 84.9834 51.5169 83.0929 51.4887C81.2025 51.4605 79.7352 52.9277 79.707 54.8181C79.707 56.7086 81.1742 58.204 83.0365 58.204Z" fill="white"/>
<path d="M44.4586 54.6265C46.2926 54.6548 47.7316 53.3004 47.788 51.4946C47.8444 49.5759 46.4619 48.1087 44.5714 48.0805C42.7374 48.0523 41.2984 49.4066 41.242 51.2124C41.1573 53.1029 42.5399 54.5983 44.4586 54.6265Z" fill="white"/>
<path d="M102.025 59.7656C103.887 59.7656 105.298 58.4113 105.326 56.5773C105.382 54.6586 103.943 53.1914 102.053 53.1914C100.191 53.1914 98.7799 54.5458 98.7516 56.3798C98.6952 58.2984 100.106 59.7656 102.025 59.7656Z" fill="white"/>
<path d="M203.595 110.383C201.677 110.355 200.238 111.794 200.266 113.713C200.294 115.603 201.761 117.014 203.68 116.957C205.514 116.901 206.869 115.49 206.84 113.628C206.84 111.794 205.458 110.411 203.595 110.383Z" fill="white"/>
<path d="M212.343 120.99C210.424 120.933 208.957 122.372 208.957 124.263C208.957 126.125 210.311 127.536 212.145 127.564C214.064 127.621 215.531 126.182 215.531 124.291C215.531 122.457 214.177 121.018 212.343 120.99Z" fill="white"/>
<path d="M194.854 106.625C196.688 106.625 198.099 105.271 198.127 103.437C198.155 101.546 196.716 100.107 194.826 100.107C192.992 100.136 191.609 101.546 191.637 103.38C191.637 105.243 193.02 106.625 194.854 106.625Z" fill="white"/>
<path d="M221.291 137.859C223.125 137.831 224.508 136.448 224.536 134.586C224.536 132.667 223.097 131.228 221.178 131.256C219.344 131.284 217.962 132.667 217.934 134.529C217.934 136.448 219.373 137.887 221.291 137.859Z" fill="white"/>
<path d="M229.885 141.898C228.051 141.898 226.669 143.309 226.641 145.143C226.641 147.062 228.08 148.473 229.998 148.416C231.832 148.36 233.187 146.949 233.158 145.087C233.13 143.253 231.719 141.898 229.885 141.898Z" fill="white"/>
<path d="M121.233 61.2804C122.983 61.3086 124.45 59.9542 124.534 58.2331C124.619 56.4273 123.208 54.9036 121.402 54.8754C119.653 54.8472 118.186 56.2016 118.101 57.9227C118.017 59.7285 119.427 61.2522 121.233 61.2804Z" fill="white"/>
<path d="M25.1918 52.9268C26.9976 52.9551 28.4648 51.4878 28.4366 49.682C28.4084 47.9609 26.9976 46.5219 25.2764 46.5219C23.4706 46.4937 22.0034 47.9609 22.0317 49.7667C22.0317 51.4878 23.4706 52.8986 25.1918 52.9268Z" fill="white"/>
<path d="M149.283 73.4961C151.089 73.4961 152.528 72.0289 152.5 70.2231C152.472 68.4737 151.089 67.0911 149.34 67.0629C147.534 67.0347 146.067 68.4455 146.067 70.2513C146.039 72.0571 147.478 73.5243 149.283 73.4961Z" fill="white"/>
<path d="M186.188 95.9874C187.994 96.0156 189.461 94.5202 189.433 92.7426C189.404 91.0214 187.994 89.6106 186.273 89.5824C184.467 89.5542 183 91.0496 183.028 92.8272C183.028 94.5484 184.467 95.9592 186.188 95.9874Z" fill="white"/>
<path d="M238.675 152.221C236.926 152.193 235.458 153.547 235.402 155.297C235.317 157.102 236.756 158.626 238.562 158.654C240.312 158.683 241.779 157.328 241.835 155.579C241.892 153.801 240.453 152.278 238.675 152.221Z" fill="white"/>
<path d="M177.133 85.6396C178.826 85.696 180.349 84.2288 180.349 82.5359C180.349 80.8993 178.967 79.4604 177.33 79.4039C175.637 79.3475 174.114 80.8147 174.114 82.5076C174.085 84.1159 175.468 85.5831 177.133 85.6396Z" fill="white"/>
<path d="M247.328 162.916C245.692 162.859 244.224 164.242 244.112 165.907C243.999 167.6 245.466 169.151 247.159 169.208C248.795 169.264 250.263 167.882 250.375 166.217C250.488 164.524 249.049 162.972 247.328 162.916Z" fill="white"/>
<path d="M55.1588 45.7092C56.8518 45.681 58.2061 44.2984 58.1779 42.6054C58.1497 40.9125 56.7671 39.5582 55.0742 39.5864C53.3813 39.6146 52.0269 40.9972 52.0551 42.6901C52.0833 44.383 53.4659 45.7374 55.1588 45.7092Z" fill="white"/>
<path d="M93.312 48.9299C95.005 48.9581 96.3875 47.6037 96.4157 45.9108C96.444 44.2179 95.0896 42.8353 93.3967 42.8071C91.7038 42.7789 90.3212 44.1332 90.293 45.8261C90.293 47.5191 91.6191 48.9017 93.312 48.9299Z" fill="white"/>
<path d="M74.121 47.3476C75.7857 47.3194 77.1683 45.9086 77.1683 44.2439C77.1683 42.5791 75.7857 41.1966 74.121 41.1684C72.3998 41.1401 70.9608 42.6356 71.0172 44.3285C71.0454 46.0215 72.4562 47.3758 74.121 47.3476Z" fill="white"/>
<path d="M140.492 62.6949C142.213 62.7513 143.568 61.4534 143.624 59.7322C143.652 58.0111 142.354 56.6567 140.633 56.6567C138.969 56.6285 137.671 57.87 137.586 59.5347C137.501 61.2559 138.771 62.6384 140.492 62.6949Z" fill="white"/>
<path d="M6.23351 51.126C7.95466 51.1543 9.28079 49.8281 9.28079 48.107C9.28079 46.3858 7.92643 45.0879 6.20528 45.0879C4.54056 45.1161 3.27085 46.3858 3.24264 48.0223C3.21442 49.7717 4.51235 51.126 6.23351 51.126Z" fill="white"/>
<path d="M256.285 179.279C257.949 179.279 259.219 178.01 259.219 176.345C259.219 174.68 258.006 173.382 256.341 173.354C254.648 173.326 253.35 174.539 253.322 176.204C253.266 177.953 254.535 179.307 256.285 179.279Z" fill="white"/>
<path d="M168.585 74.8565C170.25 74.8283 171.491 73.5868 171.491 71.9221C171.491 70.2574 170.25 68.9877 168.585 68.9595C166.92 68.9312 165.622 70.1727 165.594 71.8092C165.566 73.5586 166.836 74.8565 168.585 74.8565Z" fill="white"/>
<path d="M35.8007 43.9904C37.4655 44.0186 38.7352 42.7489 38.7634 41.0842C38.7916 39.4195 37.5219 38.1498 35.8572 38.1216C34.1925 38.0933 32.9227 39.363 32.8945 41.0278C32.8945 42.6925 34.136 43.9622 35.8007 43.9904Z" fill="white"/>
<path d="M112.711 50.7584C114.376 50.7302 115.589 49.4323 115.589 47.7675C115.561 46.1028 114.319 44.8613 112.626 44.8613C110.962 44.8613 109.692 46.1028 109.692 47.7675C109.664 49.4887 110.962 50.7866 112.711 50.7584Z" fill="white"/>
<path d="M222.936 118.167C224.488 118.139 225.758 116.813 225.758 115.233C225.729 113.681 224.432 112.383 222.88 112.383C221.328 112.383 220.002 113.653 220.002 115.233C219.945 116.869 221.3 118.195 222.936 118.167Z" fill="white"/>
<path d="M240.147 139.015C241.67 139.044 243.025 137.774 243.081 136.222C243.109 134.698 241.84 133.344 240.288 133.288C238.764 133.259 237.41 134.529 237.353 136.081C237.297 137.633 238.595 138.987 240.147 139.015Z" fill="white"/>
<path d="M231.616 128.776C233.168 128.72 234.437 127.393 234.409 125.842C234.381 124.29 233.083 122.992 231.503 123.02C229.951 123.02 228.653 124.318 228.625 125.87C228.625 127.478 230.008 128.832 231.616 128.776Z" fill="white"/>
<path d="M214.064 107.871C215.672 107.928 217.055 106.573 217.026 104.965C216.998 103.413 215.7 102.115 214.148 102.115C212.597 102.115 211.299 103.385 211.242 104.937C211.27 106.489 212.512 107.815 214.064 107.871Z" fill="white"/>
<path d="M131.886 52.2547C133.438 52.2829 134.764 50.9286 134.764 49.4049C134.764 47.8531 133.409 46.5269 131.858 46.5551C130.306 46.5833 129.008 47.9659 129.064 49.4896C129.121 50.985 130.419 52.2265 131.886 52.2547Z" fill="white"/>
<path d="M205.025 97.2267C206.549 97.3113 207.96 96.0416 208.016 94.4898C208.072 92.9661 206.774 91.5836 205.251 91.5271C203.727 91.4707 202.345 92.7968 202.316 94.3487C202.316 95.8441 203.558 97.142 205.025 97.2267Z" fill="white"/>
<path d="M16.4774 41.9565C18.001 42.0129 19.3836 40.6868 19.3836 39.1632C19.4118 37.6395 18.0575 36.2852 16.5338 36.2852C15.0666 36.2852 13.7687 37.5266 13.684 39.0221C13.6558 40.5175 14.9538 41.9283 16.4774 41.9565Z" fill="white"/>
<path d="M159.921 64.1068C161.388 64.0786 162.658 62.7525 162.686 61.3135C162.686 59.7899 161.332 58.4355 159.808 58.4919C158.341 58.5202 157.071 59.8463 157.043 61.2853C157.043 62.8089 158.426 64.1633 159.921 64.1068Z" fill="white"/>
<path d="M196.536 86.8807C198.032 86.8525 199.273 85.5546 199.273 84.0592C199.245 82.5638 197.947 81.3223 196.452 81.3223C194.956 81.3505 193.715 82.6484 193.715 84.1438C193.743 85.6675 195.041 86.909 196.536 86.8807Z" fill="white"/>
<path d="M65.4305 36.7428C66.9259 36.7145 68.1675 35.4448 68.1392 33.9494C68.111 32.454 66.8413 31.2125 65.3459 31.2407C63.8505 31.2689 62.609 32.5386 62.6372 34.0341C62.6654 35.5295 63.9351 36.771 65.4305 36.7428Z" fill="white"/>
<path d="M84.635 38.3482C86.1304 38.3764 87.4001 37.135 87.4283 35.6395C87.4565 34.1441 86.215 32.8744 84.7196 32.8462C83.2242 32.818 81.9545 34.0594 81.9263 35.5549C81.898 37.0503 83.1113 38.32 84.635 38.3482Z" fill="white"/>
<path d="M249.155 149.545C250.651 149.573 251.949 148.304 251.977 146.808C252.005 145.313 250.735 144.015 249.24 143.987C247.745 143.959 246.447 145.228 246.418 146.724C246.39 148.219 247.632 149.517 249.155 149.545Z" fill="white"/>
<path d="M257.948 159.671C259.443 159.643 260.543 158.486 260.515 156.963C260.487 155.467 259.33 154.367 257.806 154.395C256.311 154.423 255.211 155.58 255.239 157.104C255.267 158.627 256.424 159.728 257.948 159.671Z" fill="white"/>
<path d="M104 39.8394C105.496 39.8111 106.596 38.7107 106.624 37.2153C106.624 35.7199 105.524 34.5912 104.029 34.563C102.533 34.5348 101.376 35.6352 101.348 37.1024C101.263 38.6825 102.42 39.8394 104 39.8394Z" fill="white"/>
<path d="M46.0956 34.6984C47.5911 34.7266 48.7197 33.6262 48.7761 32.1308C48.8043 30.6353 47.7321 29.4785 46.2367 29.422C44.7413 29.3656 43.5562 30.4378 43.4998 31.905C43.3869 33.4569 44.5438 34.6702 46.0956 34.6984Z" fill="white"/>
<path d="M27.0224 33.0074C28.4049 33.0638 29.6182 31.9916 29.7029 30.6091C29.7875 29.2265 28.7435 28.0132 27.361 27.9004C25.922 27.7875 24.6523 28.9161 24.5958 30.3833C24.5394 31.7377 25.6398 32.951 27.0224 33.0074Z" fill="white"/>
<path d="M150.865 53.6117C152.361 53.6117 153.489 52.4549 153.461 50.9595C153.433 49.464 152.276 48.3636 150.781 48.42C149.37 48.4483 148.298 49.5487 148.27 50.9877C148.27 52.4831 149.398 53.6117 150.865 53.6117Z" fill="white"/>
<path d="M123.016 41.3677C124.399 41.3112 125.499 40.1262 125.471 38.7436C125.443 37.361 124.286 36.2324 122.875 36.2324C121.493 36.2324 120.336 37.3893 120.336 38.7718C120.336 40.239 121.577 41.4241 123.016 41.3677Z" fill="white"/>
<path d="M187.682 76.1013C189.178 76.1859 190.391 75.0855 190.419 73.5901C190.476 72.0947 189.375 70.9096 187.88 70.8814C186.384 70.8532 185.227 71.9536 185.199 73.449C185.199 74.9162 186.243 76.0449 187.682 76.1013Z" fill="white"/>
<path d="M266.516 170.203C267.87 170.203 269.055 169.046 269.084 167.663C269.084 166.309 267.927 165.124 266.544 165.096C265.19 165.096 264.005 166.253 263.977 167.635C263.977 169.018 265.162 170.203 266.516 170.203Z" fill="white"/>
<path d="M178.772 65.7416C180.126 65.7698 181.367 64.5848 181.339 63.2304C181.339 61.9325 180.182 60.7757 178.885 60.7192C177.53 60.691 176.289 61.8761 176.317 63.2304C176.317 64.5284 177.474 65.6852 178.772 65.7416Z" fill="white"/>
<path d="M233.17 108.968C234.496 108.94 235.484 107.924 235.484 106.598C235.484 105.272 234.496 104.256 233.17 104.256C231.844 104.228 230.8 105.216 230.772 106.542C230.715 107.924 231.787 108.997 233.17 108.968Z" fill="white"/>
<path d="M75.973 27.3346C77.2992 27.3346 78.2867 26.3753 78.3149 25.0491C78.3432 23.723 77.3838 22.7072 76.0577 22.6508C74.7315 22.5944 73.6876 23.5537 73.6311 24.8798C73.5747 26.2624 74.5905 27.3064 75.973 27.3346Z" fill="white"/>
<path d="M224.395 98.3038C225.749 98.332 226.736 97.3726 226.765 96.0465C226.793 94.6921 225.834 93.7046 224.507 93.6764C223.153 93.6482 222.166 94.6075 222.137 95.9336C222.109 97.288 223.068 98.2755 224.395 98.3038Z" fill="white"/>
<path d="M250.72 129.76C252.046 129.816 253.09 128.829 253.09 127.503C253.09 126.233 252.159 125.245 250.918 125.217C249.591 125.161 248.547 126.148 248.547 127.474C248.519 128.716 249.45 129.703 250.72 129.76Z" fill="white"/>
<path d="M170.145 54.906C171.415 54.906 172.374 53.9749 172.431 52.7052C172.459 51.379 171.472 50.3633 170.145 50.3633C168.876 50.3633 167.916 51.2944 167.86 52.5641C167.832 53.862 168.848 54.906 170.145 54.906Z" fill="white"/>
<path d="M142.259 42.7148C143.585 42.6866 144.545 41.6708 144.488 40.3165C144.46 38.9903 143.444 38.031 142.09 38.0592C140.764 38.0874 139.804 39.1032 139.833 40.4575C139.917 41.8119 140.933 42.7712 142.259 42.7148Z" fill="white"/>
<path d="M7.90021 31.1508C9.25456 31.1508 10.2139 30.1633 10.2139 28.8371C10.2139 27.511 9.22635 26.5234 7.90021 26.5234C6.57408 26.5234 5.58653 27.511 5.58653 28.8371C5.55831 30.1915 6.54586 31.1508 7.90021 31.1508Z" fill="white"/>
<path d="M275.1 180.235C276.454 180.292 277.47 179.361 277.555 178.063C277.611 176.708 276.68 175.693 275.382 175.608C274.028 175.551 273.012 176.483 272.927 177.781C272.843 179.135 273.774 180.179 275.1 180.235Z" fill="white"/>
<path d="M94.963 29.2259C96.2891 29.2259 97.2767 28.2383 97.2767 26.884C97.2767 25.5579 96.2891 24.5703 94.9348 24.5703C93.6087 24.5703 92.6211 25.5579 92.6211 26.9122C92.6493 28.2666 93.6369 29.2259 94.963 29.2259Z" fill="white"/>
<path d="M215.726 88.0082C216.996 88.0364 217.984 87.1053 218.068 85.8638C218.125 84.5377 217.165 83.4937 215.839 83.4655C214.569 83.4373 213.582 84.3684 213.497 85.6099C213.413 86.9078 214.4 87.98 215.726 88.0082Z" fill="white"/>
<path d="M56.6722 25.6992C58.0265 25.7274 59.0141 24.768 59.0423 23.4137C59.0705 22.0876 58.1112 21.0718 56.7568 21.0436C55.4307 21.0154 54.4149 21.9747 54.3867 23.329C54.3867 24.6834 55.3461 25.6709 56.6722 25.6992Z" fill="white"/>
<path d="M242.195 119.206C243.521 119.178 244.48 118.162 244.452 116.836C244.424 115.51 243.408 114.551 242.082 114.579C240.756 114.607 239.797 115.623 239.825 116.949C239.825 118.275 240.841 119.234 242.195 119.206Z" fill="white"/>
<path d="M114.23 30.7558C115.443 30.7558 116.459 29.7118 116.459 28.4986C116.459 27.2853 115.415 26.2695 114.202 26.2695C112.988 26.2695 111.973 27.3135 111.973 28.5268C112.001 29.7683 113.017 30.784 114.23 30.7558Z" fill="white"/>
<path d="M37.3858 24.0123C38.5991 24.0405 39.643 23.0529 39.6995 21.8397C39.7277 20.6264 38.7401 19.5824 37.5269 19.526C36.3136 19.4978 35.2696 20.4853 35.2132 21.6986C35.1567 22.9401 36.1725 23.984 37.3858 24.0123Z" fill="white"/>
<path d="M259.471 140.348C260.685 140.348 261.728 139.332 261.728 138.119C261.728 136.905 260.713 135.861 259.499 135.861C258.286 135.861 257.242 136.877 257.242 138.09C257.242 139.304 258.258 140.348 259.471 140.348Z" fill="white"/>
<path d="M207.044 77.3107C208.229 77.3954 209.301 76.3232 209.301 75.1099C209.301 73.9248 208.257 72.8809 207.072 72.8809C205.887 72.9091 204.815 73.9813 204.899 75.1663C205.012 76.4642 205.774 77.2261 207.044 77.3107Z" fill="white"/>
<path d="M198.177 66.8983C199.334 66.7854 200.067 66.1365 200.152 64.895C200.237 63.7099 199.277 62.7224 198.092 62.7506C196.851 62.807 196.117 63.5124 196.033 64.7539C195.948 65.939 196.907 66.8983 198.177 66.8983Z" fill="white"/>
<path d="M268.136 150.471C269.292 150.528 270.28 149.512 270.28 148.355C270.28 147.198 269.264 146.211 268.107 146.239C266.951 146.267 265.935 147.311 266.048 148.468C266.161 149.709 266.894 150.415 268.136 150.471Z" fill="white"/>
<path d="M161.383 44.4121C162.625 44.4121 163.386 43.7349 163.527 42.4934C163.669 41.3084 162.737 40.3208 161.552 40.2644C160.424 40.2362 159.493 41.0544 159.408 42.183C159.323 43.3681 160.198 44.4121 161.383 44.4121Z" fill="white"/>
<path d="M133.51 32.1639C134.779 32.1356 135.456 31.402 135.569 30.1605C135.485 28.9191 134.864 28.129 133.594 28.1008C132.353 28.0444 131.591 28.7498 131.478 30.0195C131.365 31.2045 132.296 32.2203 133.51 32.1639Z" fill="white"/>
<path d="M18.057 22.2015C19.2703 22.3144 20.2579 21.355 20.2014 20.1418C20.145 18.8721 19.4396 18.2231 18.1699 18.082C16.9284 18.1667 16.1666 18.8156 16.1102 20.0853C16.0819 21.355 16.8155 22.0887 18.057 22.2015Z" fill="white"/>
<path d="M277.21 160.881C278.424 160.853 279.016 160.091 279.129 158.793C278.903 157.777 278.339 156.987 277.097 157.044C275.912 157.1 275.207 157.806 275.235 159.019C275.263 160.232 275.997 160.909 277.21 160.881Z" fill="white"/>
<path d="M105.518 19.7245C106.308 19.527 106.957 18.8216 107.663 18.3419C107.663 18.088 107.691 17.8622 107.691 17.6083C107.014 17.0722 106.393 16.2822 105.631 16.1129C104.587 15.8871 103.854 16.6772 103.684 17.7776C103.572 18.7651 104.587 19.9784 105.518 19.7245Z" fill="white"/>
<path d="M189.375 56.1215C190.588 56.1497 191.209 55.3879 191.35 54.231C191.181 53.0742 190.588 52.3124 189.375 52.3406C188.246 52.3688 187.569 53.046 187.513 54.1464C187.484 55.3597 188.19 56.0933 189.375 56.1215Z" fill="white"/>
<path d="M86.2245 18.1947C87.4096 18.223 88.1714 17.5176 88.1996 16.3325C88.2278 15.1192 87.466 14.5267 86.3092 14.3574C85.1523 14.5267 84.3905 15.1475 84.4187 16.3325C84.4187 17.4611 85.0959 18.1665 86.2245 18.1947Z" fill="white"/>
<path d="M67.0065 16.5923C68.1915 16.5923 68.9251 15.8587 68.8969 14.6737C68.8687 13.4604 68.1069 12.8679 66.9218 12.7832C65.765 12.9807 65.0314 13.6297 65.116 14.8429C65.1724 15.9151 65.8778 16.6205 67.0065 16.5923Z" fill="white"/>
<path d="M48.0668 14.8989C48.8569 14.6732 49.4776 13.9396 50.183 13.4599C50.183 13.206 50.183 12.9803 50.183 12.7263C49.4776 12.2184 48.8287 11.4284 48.0668 11.2873C46.9946 11.0898 46.2892 11.9081 46.1764 13.0085C46.0635 14.0242 47.1075 15.1811 48.0668 14.8989Z" fill="white"/>
<path d="M152.699 33.4343C153.376 33.3497 154.392 32.475 154.448 31.8825C154.533 31.2053 153.686 30.4435 153.263 29.7099C153.009 29.7099 152.783 29.6816 152.529 29.6816C152.021 30.3024 151.231 30.8949 151.062 31.6003C150.836 32.6725 151.626 33.5754 152.699 33.4343Z" fill="white"/>
<path d="M-0.828298 19.948C-0.151123 19.8351 0.808209 18.9322 0.86464 18.3115C0.921071 17.6343 0.0463867 16.9007 -0.405064 16.1953C-0.659004 16.1953 -0.88474 16.1953 -1.13868 16.1953C-1.61835 16.8443 -2.40837 17.4368 -2.52124 18.1704C-2.71875 19.2426 -1.90049 20.1455 -0.828298 19.948Z" fill="white"/>
<path d="M180.751 45.4825C181.315 45.5671 181.992 44.7771 182.613 44.3821C182.613 44.1281 182.641 43.8742 182.641 43.6203C182.048 43.1688 181.484 42.4916 180.807 42.3506C179.763 42.1531 178.945 42.8867 179.171 43.9306C179.34 44.5796 180.158 45.3979 180.751 45.4825Z" fill="white"/>
<path d="M243.723 99.5424C244.739 99.7681 245.557 98.9781 245.359 97.9341C245.246 97.2287 244.541 96.6079 244.09 95.959C243.836 95.959 243.554 95.959 243.3 95.959C242.876 96.6362 242.115 97.3415 242.171 97.9623C242.199 98.583 243.074 99.4013 243.723 99.5424Z" fill="white"/>
<path d="M226.116 78.6075C226.793 78.4946 227.357 77.8174 227.95 77.366C227.95 77.112 227.95 76.8581 227.95 76.6042C227.329 76.2091 226.652 75.4191 226.088 75.4755C225.495 75.5602 224.649 76.3502 224.507 76.971C224.282 78.0431 225.072 78.805 226.116 78.6075Z" fill="white"/>
<path d="M285.713 170.874C286.701 171.157 287.576 170.451 287.463 169.379C287.378 168.674 286.729 168.025 286.306 167.319C286.052 167.319 285.77 167.291 285.516 167.291C285.064 167.94 284.246 168.589 284.246 169.21C284.274 169.802 285.093 170.705 285.713 170.874Z" fill="white"/>
<path d="M252.352 109.818C253.368 110.072 254.186 109.31 254.045 108.238C253.933 107.532 253.255 106.912 252.804 106.234C252.55 106.234 252.268 106.234 252.014 106.234C251.591 106.912 250.801 107.589 250.829 108.209C250.857 108.83 251.704 109.677 252.352 109.818Z" fill="white"/>
<path d="M29.0825 13.0601C29.5339 12.4676 30.2111 11.9033 30.3522 11.2543C30.5497 10.2103 29.7879 9.39206 28.7721 9.61779C28.1514 9.75887 27.3331 10.5771 27.2485 11.1696C27.1638 11.734 27.9539 12.4111 28.3489 13.0319C28.5746 13.0601 28.8286 13.0601 29.0825 13.0601Z" fill="white"/>
<path d="M124.846 21.0771C125.467 20.936 126.285 20.1177 126.369 19.5252C126.454 18.9609 125.664 18.2837 125.269 17.663C125.015 17.663 124.761 17.6348 124.507 17.6348C124.056 18.2273 123.379 18.7916 123.266 19.4688C123.068 20.4845 123.83 21.3028 124.846 21.0771Z" fill="white"/>
<path d="M261.082 120.342C261.646 120.427 262.323 119.636 262.944 119.241C262.944 118.988 262.972 118.734 262.972 118.48C262.38 118.028 261.815 117.351 261.166 117.21C260.122 117.012 259.304 117.746 259.53 118.79C259.671 119.439 260.489 120.257 261.082 120.342Z" fill="white"/>
<path d="M235.007 88.9634C236.079 88.9916 236.841 88.3709 236.671 87.3269C236.558 86.6497 235.938 86.0572 235.515 85.4364C235.261 85.4364 235.007 85.4082 234.781 85.4082C234.329 86.0007 233.624 86.5368 233.483 87.214C233.229 88.2298 233.906 88.9352 235.007 88.9634Z" fill="white"/>
<path d="M217.705 68.1626C218.1 67.5701 218.805 66.9493 218.805 66.385C218.777 65.8771 217.874 64.946 217.479 65.0025C216.887 65.0871 216.04 65.8489 215.956 66.385C215.871 66.9211 216.661 67.5701 217.056 68.1626C217.282 68.1626 217.507 68.1626 217.705 68.1626Z" fill="white"/>
<path d="M270.359 130.86C270.782 130.267 271.516 129.703 271.516 129.11C271.516 128.603 270.641 127.643 270.246 127.7C269.654 127.756 268.779 128.49 268.694 129.054C268.61 129.562 269.343 130.239 269.738 130.86C269.908 130.832 270.133 130.832 270.359 130.86Z" fill="white"/>
<path d="M294.512 181.171C294.963 181.171 295.753 180.353 295.81 179.845C295.866 179.365 295.161 178.801 294.484 177.842C293.835 178.829 293.129 179.394 293.214 179.902C293.27 180.381 294.06 181.171 294.512 181.171Z" fill="white"/>
<path d="M143.859 22.773C144.339 22.8012 144.903 22.0958 145.834 21.3904C144.847 20.7696 144.226 20.0925 143.746 20.1771C143.238 20.2618 142.476 21.08 142.505 21.5315C142.505 21.9829 143.351 22.7165 143.859 22.773Z" fill="white"/>
<path d="M208.769 57.3879C209.164 57.4725 209.729 56.7671 210.603 56.1464C209.7 55.5257 209.192 54.8767 208.741 54.9331C208.261 54.9896 207.838 55.6667 207.387 56.09C207.866 56.5414 208.261 57.275 208.769 57.3879Z" fill="white"/>
<path d="M278.876 140.943C279.272 140.999 279.808 140.294 280.654 139.617C279.723 139.052 279.187 138.432 278.735 138.488C278.256 138.544 277.861 139.278 277.438 139.701C277.917 140.153 278.34 140.83 278.876 140.943Z" fill="white"/>
<path d="M58.2281 5.31044C58.6796 5.39509 59.2721 4.77434 60.2314 4.21003C59.3285 3.53285 58.8488 2.91211 58.341 2.91211C57.9177 2.91211 57.0713 3.6175 57.1277 3.95609C57.1841 4.46397 57.7484 5.19758 58.2281 5.31044Z" fill="white"/>
<path d="M171.768 34.5689C172.163 34.6536 172.755 33.9764 173.658 33.3839C172.783 32.7349 172.275 32.086 171.824 32.1142C171.344 32.1424 170.893 32.8196 170.441 33.2428C170.865 33.7225 171.26 34.4279 171.768 34.5689Z" fill="white"/>
<path d="M77.7311 6.94163C78.1261 7.02628 78.6622 6.29267 79.5369 5.6155C78.634 5.02297 78.0697 4.40223 77.6182 4.45866C77.1386 4.51509 76.7435 5.24869 76.3203 5.67193C76.7718 6.12338 77.195 6.82877 77.7311 6.94163Z" fill="white"/>
<path d="M96.9928 8.85374C97.3878 8.93839 97.9239 8.20479 98.7986 7.52761C97.8957 6.93508 97.3314 6.31434 96.8799 6.37077C96.4003 6.4272 96.0053 7.16081 95.582 7.58404C96.0335 8.06371 96.4567 8.7691 96.9928 8.85374Z" fill="white"/>
<path d="M9.62651 10.7787C10.0215 10.8351 10.5576 10.1297 11.4041 9.45252C10.473 8.88821 9.93688 8.26746 9.48543 8.32389C9.00576 8.38033 8.61073 9.11393 8.1875 9.53717C8.66717 9.98862 9.09041 10.694 9.62651 10.7787Z" fill="white"/>
<path d="M287.343 151.067C287.795 151.095 288.274 150.559 289.093 150.051C288.331 149.459 287.879 148.838 287.512 148.894C287.033 148.979 286.468 149.543 286.327 149.995C286.271 150.249 286.976 151.039 287.343 151.067Z" fill="white"/>
<path d="M38.8986 3.55153C39.35 3.60796 39.8579 3.10008 40.7044 2.64863C39.9708 2.02788 39.5475 1.37892 39.209 1.40714C38.7293 1.46357 38.3343 2.0561 37.8828 2.39469C38.2214 2.81792 38.5318 3.52331 38.8986 3.55153Z" fill="white"/>
<path d="M116.923 9.39565C116.979 8.94419 116.471 8.43631 116.02 7.58984C115.399 8.32345 114.75 8.74669 114.778 9.08527C114.835 9.56494 115.427 9.95996 115.766 10.4114C116.189 10.0728 116.866 9.76245 116.923 9.39565Z" fill="white"/>
<path d="M200.039 46.5009C200.321 46.5855 200.801 46.0494 201.45 45.6262C200.829 45.1183 200.462 44.5822 200.124 44.6104C199.757 44.6104 199.39 45.1465 199.023 45.4287C199.334 45.7955 199.616 46.3598 200.039 46.5009Z" fill="white"/>
<path d="M135.204 11.7358C135.458 11.7922 135.853 11.2561 136.417 10.8047C135.825 10.4097 135.458 9.93 135.119 9.95822C134.781 9.98644 134.471 10.4943 134.16 10.7765C134.527 11.1151 134.809 11.6229 135.204 11.7358Z" fill="white"/>
<path d="M163.072 23.9271C163.326 24.0117 163.777 23.5321 164.37 23.1371C163.805 22.6574 163.495 22.1777 163.156 22.1777C162.818 22.1777 162.479 22.6574 162.141 22.9113C162.451 23.2781 162.705 23.8142 163.072 23.9271Z" fill="white"/>
<path d="M20.1351 1.77759C20.3891 1.86223 20.8123 1.32614 21.4048 0.902902C20.8405 0.479667 20.4737 0 20.1633 0C19.8247 0.0282156 19.5144 0.507882 19.1758 0.790039C19.4579 1.12863 19.7401 1.66472 20.1351 1.77759Z" fill="white"/>
</g>
</svg>
