<svg width="542" height="443" viewBox="0 0 542 443" fill="none" xmlns="http://www.w3.org/2000/svg">
<g filter="url(#filter0_d_652_3965)">
<path d="M274.459 73.4746L399.78 133.826L430.731 269.434L344.007 378.183H204.911L118.187 269.434L149.138 133.826L274.459 73.4746Z" fill="#EBF2E8"/>
<path d="M399.298 134.209L430.131 269.297L343.74 377.628H205.178L118.786 269.297L149.619 134.209L274.459 74.0898L399.298 134.209Z" stroke="#B4C8A8" stroke-width="1.10916"/>
</g>
<g filter="url(#filter1_d_652_3965)">
<path d="M274.459 109.713L371.447 156.42L395.401 261.37L328.283 345.533H220.634L153.517 261.37L177.471 156.42L274.459 109.713Z" fill="#EBF2E8"/>
<path d="M370.965 156.804L394.801 261.233L328.017 344.979H220.901L154.116 261.233L177.952 156.804L274.459 110.328L370.965 156.804Z" stroke="#B4C8A8" stroke-width="1.10916"/>
</g>
<g filter="url(#filter2_d_652_3965)">
<path d="M274.459 139.799L347.925 175.178L366.07 254.675L315.229 318.427H233.688L182.848 254.675L200.993 175.178L274.459 139.799Z" fill="#EBF2E8"/>
<path d="M347.443 175.562L365.469 254.537L314.963 317.872H233.955L183.447 254.538L201.474 175.562L274.458 140.414L347.443 175.562Z" stroke="#B4C8A8" stroke-width="1.10916"/>
</g>
<g filter="url(#filter3_d_652_3965)">
<path d="M274.457 164.168L328.871 190.372L342.31 249.253L304.654 296.471H244.26L206.604 249.253L220.043 190.372L274.457 164.168Z" fill="#8F9AA3"/>
</g>
<g filter="url(#filter4_d_652_3965)">
<path d="M274.458 172.371L322.458 195.487L334.313 247.428L301.096 289.081H247.819L214.602 247.428L226.457 195.487L274.458 172.371Z" fill="#5F6C77"/>
</g>
<g filter="url(#filter5_d_652_3965)">
<path d="M274.459 182.732L314.358 201.947L324.213 245.122L296.601 279.745H252.317L224.705 245.122L234.56 201.947L274.459 182.732Z" fill="#2E3841"/>
</g>
<path d="M248.232 226.765H245.107V232.238H242.597V220.093H248.491V222.165H245.107V224.902H248.232V226.765ZM260.532 227.558C260.532 230.603 258.67 232.481 255.739 232.481C252.824 232.481 250.945 230.603 250.945 227.558V220.093H253.439V227.704C253.439 229.194 254.281 230.214 255.739 230.214C257.196 230.214 258.022 229.194 258.022 227.704V220.093H260.532V227.558ZM268.075 232.238H262.974V230.133H267.67C269.176 230.133 269.792 229.275 269.792 228.368C269.792 227.51 269.322 226.684 267.686 226.684H266.52C264.399 226.684 262.925 225.356 262.925 223.412C262.925 221.437 264.399 220.093 266.585 220.093H271.735V222.198H267.023C266.051 222.198 265.581 222.748 265.581 223.461C265.581 224.109 266.051 224.659 267.023 224.659H268.124C270.99 224.659 272.383 226.344 272.383 228.4C272.383 230.489 270.974 232.238 268.075 232.238ZM277.425 232.238H274.915V220.093H277.425V232.238ZM293.093 226.149C293.093 229.744 290.405 232.481 286.664 232.481C282.939 232.481 280.235 229.744 280.235 226.149C280.235 222.57 282.939 219.866 286.664 219.866C290.405 219.866 293.093 222.57 293.093 226.149ZM282.777 226.182C282.777 228.433 284.38 230.117 286.664 230.117C288.947 230.117 290.534 228.433 290.534 226.182C290.534 223.898 288.947 222.214 286.664 222.214C284.38 222.214 282.777 223.898 282.777 226.182ZM298.156 232.238H295.808V220.093H299.274L303.322 228.53H303.97V220.093H306.318V232.238H302.788L298.804 223.801H298.156V232.238ZM275.433 246.429C274.85 249.457 272.405 251.481 269.247 251.481C265.538 251.481 262.85 248.744 262.85 245.149C262.85 241.57 265.538 238.866 269.247 238.866C272.356 238.866 274.85 240.842 275.433 243.789H272.874C272.324 242.267 271.044 241.214 269.247 241.214C266.98 241.214 265.393 242.898 265.393 245.182C265.393 247.433 266.98 249.117 269.247 249.117C271.077 249.117 272.405 248.016 272.907 246.429H275.433ZM285.758 249.133V251.238H277.726V249.425L282.309 244.372C283.005 243.611 283.184 243.109 283.184 242.558C283.184 241.716 282.698 241.02 281.629 241.02C280.56 241.02 280.009 241.797 280.009 242.639V242.833H277.726V242.639C277.726 240.534 279.184 238.866 281.742 238.866C284.236 238.866 285.613 240.501 285.613 242.477C285.613 243.643 285.175 244.566 284.026 245.846L281.062 249.133H285.758Z" fill="#D7FFC0"/>
<circle cx="64.9316" cy="43.0723" r="42.5723" stroke="#B4C9A8"/>
<circle cx="64.9316" cy="43.0723" r="38.9277" stroke="#B4C9A8"/>
<circle cx="64.9316" cy="43.0723" r="34.0293" stroke="#B4C9A8" stroke-width="3"/>
<path d="M24.1656 106.369C22.6296 106.369 21.4456 105.99 20.6136 105.233C19.7923 104.475 19.3496 103.489 19.2856 102.273H20.6936C20.8856 104.235 22.0643 105.217 24.2296 105.217C25.0509 105.217 25.7069 105.035 26.1976 104.673C26.6989 104.299 26.9496 103.766 26.9496 103.073C26.9496 102.763 26.8909 102.491 26.7736 102.257C26.6563 102.022 26.5123 101.83 26.3416 101.681C26.1816 101.531 25.9363 101.393 25.6056 101.265C25.2749 101.137 24.9656 101.035 24.6776 100.961C24.4003 100.886 24.0163 100.795 23.5256 100.689C22.9389 100.561 22.4536 100.433 22.0696 100.305C21.6856 100.166 21.3016 99.9792 20.9176 99.7445C20.5336 99.5099 20.2456 99.2112 20.0536 98.8485C19.8723 98.4752 19.7816 98.0272 19.7816 97.5045C19.7816 96.5659 20.1336 95.8299 20.8376 95.2965C21.5523 94.7525 22.4963 94.4805 23.6696 94.4805C26.2403 94.4805 27.6856 95.6699 28.0056 98.0485H26.6456C26.5389 97.2379 26.2349 96.6299 25.7336 96.2245C25.2323 95.8085 24.5549 95.6005 23.7016 95.6005C22.9123 95.6005 22.2829 95.7605 21.8136 96.0805C21.3549 96.4005 21.1256 96.8539 21.1256 97.4405C21.1256 97.6965 21.1736 97.9259 21.2696 98.1285C21.3763 98.3205 21.5096 98.4859 21.6696 98.6245C21.8403 98.7525 22.0589 98.8699 22.3256 98.9765C22.6029 99.0832 22.8749 99.1739 23.1416 99.2485C23.4083 99.3125 23.7336 99.3819 24.1176 99.4565C24.6509 99.5632 25.0883 99.6645 25.4296 99.7605C25.7709 99.8459 26.1496 99.9792 26.5656 100.161C26.9816 100.342 27.3016 100.55 27.5256 100.785C27.7603 101.019 27.9576 101.329 28.1176 101.713C28.2883 102.086 28.3736 102.523 28.3736 103.025C28.3736 104.07 27.9843 104.891 27.2056 105.489C26.4376 106.075 25.4243 106.369 24.1656 106.369ZM33.3652 106.369C32.1386 106.369 31.1626 105.958 30.4372 105.137C29.7226 104.305 29.3652 103.265 29.3652 102.017C29.3652 100.79 29.7279 99.7605 30.4532 98.9285C31.1892 98.0859 32.1332 97.6645 33.2852 97.6645C34.5012 97.6645 35.4399 98.0912 36.1012 98.9445C36.7626 99.7872 37.0932 100.913 37.0932 102.321H30.6932C30.7466 103.195 31.0026 103.91 31.4612 104.465C31.9306 105.009 32.5652 105.281 33.3652 105.281C34.6026 105.281 35.3652 104.715 35.6532 103.585H36.9172C36.7252 104.47 36.3199 105.158 35.7012 105.649C35.0826 106.129 34.3039 106.369 33.3652 106.369ZM35.0132 99.3925C34.5972 98.9232 34.0212 98.6885 33.2852 98.6885C32.5492 98.6885 31.9626 98.9339 31.5252 99.4245C31.0986 99.9152 30.8319 100.555 30.7252 101.345H35.7012C35.6586 100.513 35.4292 99.8619 35.0132 99.3925ZM39.6565 97.8725V98.9605H39.6885C40.3285 98.1072 41.2031 97.6805 42.3125 97.6805C43.1871 97.6805 43.8698 97.9099 44.3605 98.3685C44.8511 98.8272 45.0965 99.4832 45.0965 100.337V106.145H43.8005V100.449C43.8005 99.9152 43.6351 99.5045 43.3045 99.2165C42.9738 98.9179 42.5151 98.7685 41.9285 98.7685C41.2671 98.7685 40.7231 98.9819 40.2965 99.4085C39.8698 99.8352 39.6565 100.385 39.6565 101.057V106.145H38.3605V97.8725H39.6565ZM49.9496 106.385C48.8189 106.385 47.9389 106.134 47.3096 105.633C46.6909 105.121 46.3496 104.395 46.2856 103.457H47.6136C47.7629 104.683 48.5523 105.297 49.9816 105.297C50.6323 105.297 51.1123 105.174 51.4216 104.929C51.7416 104.673 51.9016 104.342 51.9016 103.937C51.9016 103.499 51.7469 103.185 51.4376 102.993C51.1283 102.801 50.5629 102.619 49.7416 102.449C49.4003 102.374 49.1283 102.315 48.9256 102.273C48.7336 102.219 48.4989 102.15 48.2216 102.065C47.9443 101.969 47.7256 101.867 47.5656 101.761C47.4163 101.643 47.2616 101.505 47.1016 101.345C46.9416 101.185 46.8243 100.987 46.7496 100.753C46.6856 100.518 46.6536 100.257 46.6536 99.9685C46.6536 99.2645 46.9096 98.7099 47.4216 98.3045C47.9443 97.8992 48.6803 97.6965 49.6296 97.6965C51.5923 97.6965 52.6749 98.5605 52.8776 100.289H51.5496C51.4856 99.7445 51.2989 99.3499 50.9896 99.1045C50.6803 98.8485 50.2163 98.7205 49.5976 98.7205C49.0323 98.7205 48.6109 98.8325 48.3336 99.0565C48.0669 99.2699 47.9336 99.5525 47.9336 99.9045C47.9336 100.31 48.0936 100.598 48.4136 100.769C48.7336 100.929 49.3149 101.094 50.1576 101.265C50.6696 101.371 51.0696 101.473 51.3576 101.569C51.6563 101.654 51.9656 101.793 52.2856 101.985C52.6056 102.166 52.8403 102.411 52.9896 102.721C53.1389 103.03 53.2136 103.414 53.2136 103.873C53.2136 104.683 52.9149 105.307 52.3176 105.745C51.7203 106.171 50.9309 106.385 49.9496 106.385ZM61.0425 105.121C60.3171 105.953 59.3518 106.369 58.1465 106.369C56.9411 106.369 55.9705 105.953 55.2345 105.121C54.5091 104.289 54.1465 103.254 54.1465 102.017C54.1465 100.779 54.5091 99.7445 55.2345 98.9125C55.9705 98.0805 56.9411 97.6645 58.1465 97.6645C59.3518 97.6645 60.3171 98.0805 61.0425 98.9125C61.7678 99.7445 62.1305 100.779 62.1305 102.017C62.1305 103.254 61.7678 104.289 61.0425 105.121ZM56.1625 104.369C56.6318 104.977 57.2931 105.281 58.1465 105.281C58.9998 105.281 59.6558 104.977 60.1145 104.369C60.5731 103.75 60.8025 102.966 60.8025 102.017C60.8025 101.057 60.5678 100.273 60.0985 99.6645C59.6398 99.0459 58.9891 98.7365 58.1465 98.7365C57.2931 98.7365 56.6318 99.0459 56.1625 99.6645C55.7038 100.283 55.4745 101.067 55.4745 102.017C55.4745 102.966 55.7038 103.75 56.1625 104.369ZM64.719 97.8725V99.2485H64.751C65.0176 98.8112 65.3643 98.4592 65.791 98.1925C66.2176 97.9152 66.6923 97.7765 67.215 97.7765C67.407 97.7765 67.583 97.8085 67.743 97.8725V99.1205H67.695C67.535 99.0672 67.343 99.0405 67.119 99.0405C66.4576 99.0405 65.8923 99.2752 65.423 99.7445C64.9536 100.203 64.719 100.806 64.719 101.553V106.145H63.423V97.8725H64.719ZM70.9262 95.9685V94.7045H79.9822V95.9685H76.1742V106.145H74.7342V95.9685H70.9262ZM81.3127 97.8725V99.2485H81.3447C81.6114 98.8112 81.9581 98.4592 82.3847 98.1925C82.8114 97.9152 83.2861 97.7765 83.8087 97.7765C84.0007 97.7765 84.1767 97.8085 84.3367 97.8725V99.1205H84.2887C84.1287 99.0672 83.9367 99.0405 83.7127 99.0405C83.0514 99.0405 82.4861 99.2752 82.0167 99.7445C81.5474 100.203 81.3127 100.806 81.3127 101.553V106.145H80.0167V97.8725H81.3127ZM91.6846 106.225C90.8633 106.225 90.3886 105.814 90.2606 104.993H90.2446C89.5619 105.867 88.6446 106.305 87.4926 106.305C86.6713 106.305 85.9993 106.107 85.4766 105.713C84.9539 105.318 84.6926 104.747 84.6926 104.001C84.6926 103.617 84.7513 103.286 84.8686 103.009C84.9966 102.721 85.1566 102.491 85.3486 102.321C85.5406 102.139 85.8019 101.985 86.1326 101.857C86.4739 101.718 86.7993 101.617 87.1086 101.553C87.4179 101.478 87.8126 101.403 88.2926 101.329C88.6019 101.286 88.8206 101.254 88.9486 101.233C89.0873 101.201 89.2633 101.158 89.4766 101.105C89.6899 101.041 89.8393 100.971 89.9246 100.897C90.0099 100.822 90.0899 100.721 90.1646 100.593C90.2393 100.465 90.2766 100.315 90.2766 100.145C90.2766 99.6752 90.1113 99.3179 89.7806 99.0725C89.4606 98.8165 89.0073 98.6885 88.4206 98.6885C87.0873 98.6885 86.3993 99.2965 86.3566 100.513H85.1086C85.1299 99.6699 85.4179 98.9925 85.9726 98.4805C86.5379 97.9685 87.3486 97.7125 88.4046 97.7125C90.4419 97.7125 91.4606 98.5872 91.4606 100.337V104.273C91.4606 104.635 91.5193 104.891 91.6366 105.041C91.7646 105.19 91.9993 105.227 92.3406 105.153H92.3886V106.097C92.1753 106.182 91.9406 106.225 91.6846 106.225ZM87.7806 105.313C88.5806 105.313 89.1993 105.083 89.6366 104.625C90.0739 104.155 90.2926 103.643 90.2926 103.089V101.681C89.8979 101.926 89.2686 102.129 88.4046 102.289C88.0846 102.353 87.8339 102.406 87.6526 102.449C87.4713 102.481 87.2633 102.545 87.0286 102.641C86.7939 102.726 86.6179 102.822 86.5006 102.929C86.3833 103.035 86.2819 103.179 86.1966 103.361C86.1113 103.531 86.0686 103.734 86.0686 103.969C86.0686 104.865 86.6393 105.313 87.7806 105.313ZM96.8808 106.369C95.6755 106.369 94.7048 105.953 93.9688 105.121C93.2435 104.289 92.8808 103.254 92.8808 102.017C92.8808 100.779 93.2435 99.7445 93.9688 98.9125C94.7048 98.0805 95.6755 97.6645 96.8808 97.6645C97.8515 97.6645 98.6462 97.9259 99.2648 98.4485C99.8835 98.9605 100.268 99.6592 100.417 100.545H99.1048C99.0088 99.9792 98.7688 99.5365 98.3848 99.2165C98.0008 98.8965 97.4995 98.7365 96.8808 98.7365C96.0275 98.7365 95.3662 99.0459 94.8968 99.6645C94.4382 100.283 94.2088 101.067 94.2088 102.017C94.2088 102.966 94.4382 103.75 94.8968 104.369C95.3662 104.977 96.0275 105.281 96.8808 105.281C97.5422 105.281 98.0702 105.105 98.4648 104.753C98.8595 104.39 99.0835 103.883 99.1368 103.233H100.417C100.332 104.225 99.9795 104.998 99.3608 105.553C98.7422 106.097 97.9155 106.369 96.8808 106.369ZM107.082 106.145L104.154 101.681L102.938 102.833V106.145H101.642V94.7045H102.938V101.409L106.57 97.8725H108.218L105.05 100.849L108.602 106.145H107.082ZM112.371 106.385C111.241 106.385 110.361 106.134 109.731 105.633C109.113 105.121 108.771 104.395 108.707 103.457H110.035C110.185 104.683 110.974 105.297 112.403 105.297C113.054 105.297 113.534 105.174 113.843 104.929C114.163 104.673 114.323 104.342 114.323 103.937C114.323 103.499 114.169 103.185 113.859 102.993C113.55 102.801 112.985 102.619 112.163 102.449C111.822 102.374 111.55 102.315 111.347 102.273C111.155 102.219 110.921 102.15 110.643 102.065C110.366 101.969 110.147 101.867 109.987 101.761C109.838 101.643 109.683 101.505 109.523 101.345C109.363 101.185 109.246 100.987 109.171 100.753C109.107 100.518 109.075 100.257 109.075 99.9685C109.075 99.2645 109.331 98.7099 109.843 98.3045C110.366 97.8992 111.102 97.6965 112.051 97.6965C114.014 97.6965 115.097 98.5605 115.299 100.289H113.971C113.907 99.7445 113.721 99.3499 113.411 99.1045C113.102 98.8485 112.638 98.7205 112.019 98.7205C111.454 98.7205 111.033 98.8325 110.755 99.0565C110.489 99.2699 110.355 99.5525 110.355 99.9045C110.355 100.31 110.515 100.598 110.835 100.769C111.155 100.929 111.737 101.094 112.579 101.265C113.091 101.371 113.491 101.473 113.779 101.569C114.078 101.654 114.387 101.793 114.707 101.985C115.027 102.166 115.262 102.411 115.411 102.721C115.561 103.03 115.635 103.414 115.635 103.873C115.635 104.683 115.337 105.307 114.739 105.745C114.142 106.171 113.353 106.385 112.371 106.385Z" fill="#5D8049"/>
<path d="M52.2933 37.4547V48.6905C52.2933 49.063 52.1454 49.4202 51.882 49.6836C51.6186 49.947 51.2613 50.095 50.8888 50.095C50.5164 50.095 50.1591 49.947 49.8957 49.6836C49.6323 49.4202 49.4844 49.063 49.4844 48.6905V37.4547C49.4844 37.0822 49.6323 36.725 49.8957 36.4616C50.1591 36.1982 50.5164 36.0502 50.8888 36.0502C51.2613 36.0502 51.6186 36.1982 51.882 36.4616C52.1454 36.725 52.2933 37.0822 52.2933 37.4547ZM57.9112 24.8145C57.5387 24.8145 57.1815 24.9624 56.9181 25.2258C56.6547 25.4892 56.5067 25.8464 56.5067 26.2189V59.9263C56.5067 60.2988 56.6547 60.656 56.9181 60.9194C57.1815 61.1828 57.5387 61.3308 57.9112 61.3308C58.2837 61.3308 58.6409 61.1828 58.9043 60.9194C59.1677 60.656 59.3157 60.2988 59.3157 59.9263V26.2189C59.3157 25.8464 59.1677 25.4892 58.9043 25.2258C58.6409 24.9624 58.2837 24.8145 57.9112 24.8145ZM64.9336 30.4324C64.5611 30.4324 64.2039 30.5803 63.9405 30.8437C63.6771 31.1071 63.5291 31.4643 63.5291 31.8368V54.3084C63.5291 54.6809 63.6771 55.0381 63.9405 55.3015C64.2039 55.5649 64.5611 55.7129 64.9336 55.7129C65.3061 55.7129 65.6633 55.5649 65.9267 55.3015C66.1901 55.0381 66.3381 54.6809 66.3381 54.3084V31.8368C66.3381 31.4643 66.1901 31.1071 65.9267 30.8437C65.6633 30.5803 65.3061 30.4324 64.9336 30.4324ZM71.956 36.0502C71.5835 36.0502 71.2262 36.1982 70.9629 36.4616C70.6995 36.725 70.5515 37.0822 70.5515 37.4547V48.6905C70.5515 49.063 70.6995 49.4202 70.9629 49.6836C71.2262 49.947 71.5835 50.095 71.956 50.095C72.3285 50.095 72.6857 49.947 72.9491 49.6836C73.2125 49.4202 73.3604 49.063 73.3604 48.6905V37.4547C73.3604 37.0822 73.2125 36.725 72.9491 36.4616C72.6857 36.1982 72.3285 36.0502 71.956 36.0502ZM78.9783 33.2413C78.6058 33.2413 78.2486 33.3893 77.9852 33.6527C77.7218 33.9161 77.5739 34.2733 77.5739 34.6458V51.4995C77.5739 51.872 77.7218 52.2292 77.9852 52.4926C78.2486 52.756 78.6058 52.9039 78.9783 52.9039C79.3508 52.9039 79.7081 52.756 79.9715 52.4926C80.2348 52.2292 80.3828 51.872 80.3828 51.4995V34.6458C80.3828 34.2733 80.2348 33.9161 79.9715 33.6527C79.7081 33.3893 79.3508 33.2413 78.9783 33.2413Z" fill="#5D8049"/>
<circle cx="64.9316" cy="376.568" r="42.5723" stroke="#B4C9A8"/>
<circle cx="64.9316" cy="376.568" r="38.9277" stroke="#B4C9A8"/>
<circle cx="64.9316" cy="376.568" r="34.0293" stroke="#B4C9A8" stroke-width="3"/>
<path d="M0.00168753 439.641V428.201H8.08169V429.465H1.44169V433.081H7.47369V434.297H1.44169V438.313H8.27369V439.641H0.00168753ZM11.4983 439.641L8.60231 431.369H9.99431L11.7063 436.617L12.2503 438.361H12.2823C12.485 437.678 12.6663 437.097 12.8263 436.617L14.5703 431.369H15.9143L12.9383 439.641H11.4983ZM16.8253 439.641V431.369H18.1213V439.641H16.8253ZM16.8253 429.801V428.201H18.1213V429.801H16.8253ZM23.0878 439.881C21.9571 439.881 21.0611 439.491 20.3998 438.713C19.7491 437.923 19.4238 436.862 19.4238 435.529C19.4238 434.185 19.7651 433.123 20.4478 432.345C21.1305 431.566 21.9998 431.177 23.0558 431.177C24.1758 431.177 25.0398 431.63 25.6478 432.537H25.6798V428.201H26.9758V439.641H25.6798V438.633H25.6478C24.9971 439.465 24.1438 439.881 23.0878 439.881ZM23.1358 438.793C24.0211 438.793 24.6771 438.499 25.1038 437.913C25.5411 437.326 25.7598 436.537 25.7598 435.545C25.7598 434.563 25.5251 433.774 25.0558 433.177C24.5971 432.579 23.9518 432.281 23.1198 432.281C22.3625 432.281 21.7758 432.585 21.3598 433.193C20.9545 433.79 20.7518 434.574 20.7518 435.545C20.7518 436.515 20.9545 437.299 21.3598 437.897C21.7758 438.494 22.3678 438.793 23.1358 438.793ZM32.2676 439.865C31.0409 439.865 30.0649 439.454 29.3396 438.633C28.6249 437.801 28.2676 436.761 28.2676 435.513C28.2676 434.286 28.6302 433.257 29.3556 432.425C30.0916 431.582 31.0356 431.161 32.1876 431.161C33.4036 431.161 34.3422 431.587 35.0036 432.441C35.6649 433.283 35.9956 434.409 35.9956 435.817H29.5956C29.6489 436.691 29.9049 437.406 30.3636 437.961C30.8329 438.505 31.4676 438.777 32.2676 438.777C33.5049 438.777 34.2676 438.211 34.5556 437.081H35.8196C35.6276 437.966 35.2222 438.654 34.6036 439.145C33.9849 439.625 33.2062 439.865 32.2676 439.865ZM33.9156 432.889C33.4996 432.419 32.9236 432.185 32.1876 432.185C31.4516 432.185 30.8649 432.43 30.4276 432.921C30.0009 433.411 29.7342 434.051 29.6276 434.841H34.6036C34.5609 434.009 34.3316 433.358 33.9156 432.889ZM38.5588 431.369V432.457H38.5908C39.2308 431.603 40.1055 431.177 41.2148 431.177C42.0895 431.177 42.7721 431.406 43.2628 431.865C43.7535 432.323 43.9988 432.979 43.9988 433.833V439.641H42.7028V433.945C42.7028 433.411 42.5375 433.001 42.2068 432.713C41.8761 432.414 41.4175 432.265 40.8308 432.265C40.1695 432.265 39.6255 432.478 39.1988 432.905C38.7721 433.331 38.5588 433.881 38.5588 434.553V439.641H37.2628V431.369H38.5588ZM49.2519 439.865C48.0466 439.865 47.0759 439.449 46.3399 438.617C45.6146 437.785 45.2519 436.75 45.2519 435.513C45.2519 434.275 45.6146 433.241 46.3399 432.409C47.0759 431.577 48.0466 431.161 49.2519 431.161C50.2226 431.161 51.0173 431.422 51.6359 431.945C52.2546 432.457 52.6386 433.155 52.7879 434.041H51.4759C51.3799 433.475 51.1399 433.033 50.7559 432.713C50.3719 432.393 49.8706 432.233 49.2519 432.233C48.3986 432.233 47.7373 432.542 47.2679 433.161C46.8093 433.779 46.5799 434.563 46.5799 435.513C46.5799 436.462 46.8093 437.246 47.2679 437.865C47.7373 438.473 48.3986 438.777 49.2519 438.777C49.9133 438.777 50.4413 438.601 50.8359 438.249C51.2306 437.886 51.4546 437.379 51.5079 436.729H52.7879C52.7026 437.721 52.3506 438.494 51.7319 439.049C51.1133 439.593 50.2866 439.865 49.2519 439.865ZM57.5488 439.865C56.3221 439.865 55.3461 439.454 54.6208 438.633C53.9061 437.801 53.5488 436.761 53.5488 435.513C53.5488 434.286 53.9115 433.257 54.6368 432.425C55.3728 431.582 56.3168 431.161 57.4688 431.161C58.6848 431.161 59.6235 431.587 60.2848 432.441C60.9461 433.283 61.2768 434.409 61.2768 435.817H54.8768C54.9301 436.691 55.1861 437.406 55.6448 437.961C56.1141 438.505 56.7488 438.777 57.5488 438.777C58.7861 438.777 59.5488 438.211 59.8368 437.081H61.1008C60.9088 437.966 60.5035 438.654 59.8848 439.145C59.2661 439.625 58.4875 439.865 57.5488 439.865ZM59.1968 432.889C58.7808 432.419 58.2048 432.185 57.4688 432.185C56.7328 432.185 56.1461 432.43 55.7088 432.921C55.2821 433.411 55.0155 434.051 54.9088 434.841H59.8848C59.8421 434.009 59.6128 433.358 59.1968 432.889ZM65.2829 439.641V428.201H70.0509C71.2456 428.201 72.1523 428.569 72.7709 429.305C73.2829 429.902 73.5389 430.627 73.5389 431.481C73.5389 432.547 73.2296 433.374 72.6109 433.961C71.9923 434.547 71.0696 434.841 69.8429 434.841H66.7229V439.641H65.2829ZM66.7229 429.449V433.673H69.7309C70.5203 433.673 71.1123 433.486 71.5069 433.113C71.9123 432.739 72.1149 432.217 72.1149 431.545C72.1149 430.862 71.9123 430.345 71.5069 429.993C71.1123 429.63 70.5469 429.449 69.8109 429.449H66.7229ZM80.9151 439.721C80.0937 439.721 79.6191 439.31 79.4911 438.489H79.4751C78.7924 439.363 77.8751 439.801 76.7231 439.801C75.9017 439.801 75.2297 439.603 74.7071 439.209C74.1844 438.814 73.9231 438.243 73.9231 437.497C73.9231 437.113 73.9817 436.782 74.0991 436.505C74.2271 436.217 74.3871 435.987 74.5791 435.817C74.7711 435.635 75.0324 435.481 75.3631 435.353C75.7044 435.214 76.0297 435.113 76.3391 435.049C76.6484 434.974 77.0431 434.899 77.5231 434.825C77.8324 434.782 78.0511 434.75 78.1791 434.729C78.3177 434.697 78.4937 434.654 78.7071 434.601C78.9204 434.537 79.0697 434.467 79.1551 434.393C79.2404 434.318 79.3204 434.217 79.3951 434.089C79.4697 433.961 79.5071 433.811 79.5071 433.641C79.5071 433.171 79.3417 432.814 79.0111 432.569C78.6911 432.313 78.2377 432.185 77.6511 432.185C76.3177 432.185 75.6297 432.793 75.5871 434.009H74.3391C74.3604 433.166 74.6484 432.489 75.2031 431.977C75.7684 431.465 76.5791 431.209 77.6351 431.209C79.6724 431.209 80.6911 432.083 80.6911 433.833V437.769C80.6911 438.131 80.7497 438.387 80.8671 438.537C80.9951 438.686 81.2297 438.723 81.5711 438.649H81.6191V439.593C81.4057 439.678 81.1711 439.721 80.9151 439.721ZM77.0111 438.809C77.8111 438.809 78.4297 438.579 78.8671 438.121C79.3044 437.651 79.5231 437.139 79.5231 436.585V435.177C79.1284 435.422 78.4991 435.625 77.6351 435.785C77.3151 435.849 77.0644 435.902 76.8831 435.945C76.7017 435.977 76.4937 436.041 76.2591 436.137C76.0244 436.222 75.8484 436.318 75.7311 436.425C75.6137 436.531 75.5124 436.675 75.4271 436.857C75.3417 437.027 75.2991 437.23 75.2991 437.465C75.2991 438.361 75.8697 438.809 77.0111 438.809ZM86.1113 439.865C84.906 439.865 83.9353 439.449 83.1993 438.617C82.474 437.785 82.1113 436.75 82.1113 435.513C82.1113 434.275 82.474 433.241 83.1993 432.409C83.9353 431.577 84.906 431.161 86.1113 431.161C87.082 431.161 87.8766 431.422 88.4953 431.945C89.114 432.457 89.498 433.155 89.6473 434.041H88.3353C88.2393 433.475 87.9993 433.033 87.6153 432.713C87.2313 432.393 86.73 432.233 86.1113 432.233C85.258 432.233 84.5966 432.542 84.1273 433.161C83.6686 433.779 83.4393 434.563 83.4393 435.513C83.4393 436.462 83.6686 437.246 84.1273 437.865C84.5966 438.473 85.258 438.777 86.1113 438.777C86.7726 438.777 87.3006 438.601 87.6953 438.249C88.09 437.886 88.314 437.379 88.3673 436.729H89.6473C89.562 437.721 89.21 438.494 88.5913 439.049C87.9726 439.593 87.146 439.865 86.1113 439.865ZM96.3122 439.641L93.3842 435.177L92.1682 436.329V439.641H90.8722V428.201H92.1682V434.905L95.8002 431.369H97.4482L94.2802 434.345L97.8322 439.641H96.3122ZM105.04 439.721C104.219 439.721 103.744 439.31 103.616 438.489H103.6C102.917 439.363 102 439.801 100.848 439.801C100.027 439.801 99.3547 439.603 98.8321 439.209C98.3094 438.814 98.0481 438.243 98.0481 437.497C98.0481 437.113 98.1067 436.782 98.2241 436.505C98.3521 436.217 98.5121 435.987 98.7041 435.817C98.8961 435.635 99.1574 435.481 99.4881 435.353C99.8294 435.214 100.155 435.113 100.464 435.049C100.773 434.974 101.168 434.899 101.648 434.825C101.957 434.782 102.176 434.75 102.304 434.729C102.443 434.697 102.619 434.654 102.832 434.601C103.045 434.537 103.195 434.467 103.28 434.393C103.365 434.318 103.445 434.217 103.52 434.089C103.595 433.961 103.632 433.811 103.632 433.641C103.632 433.171 103.467 432.814 103.136 432.569C102.816 432.313 102.363 432.185 101.776 432.185C100.443 432.185 99.7547 432.793 99.7121 434.009H98.4641C98.4854 433.166 98.7734 432.489 99.3281 431.977C99.8934 431.465 100.704 431.209 101.76 431.209C103.797 431.209 104.816 432.083 104.816 433.833V437.769C104.816 438.131 104.875 438.387 104.992 438.537C105.12 438.686 105.355 438.723 105.696 438.649H105.744V439.593C105.531 439.678 105.296 439.721 105.04 439.721ZM101.136 438.809C101.936 438.809 102.555 438.579 102.992 438.121C103.429 437.651 103.648 437.139 103.648 436.585V435.177C103.253 435.422 102.624 435.625 101.76 435.785C101.44 435.849 101.189 435.902 101.008 435.945C100.827 435.977 100.619 436.041 100.384 436.137C100.149 436.222 99.9734 436.318 99.8561 436.425C99.7387 436.531 99.6374 436.675 99.5521 436.857C99.4667 437.027 99.4241 437.23 99.4241 437.465C99.4241 438.361 99.9947 438.809 101.136 438.809ZM109.996 442.393C108.94 442.393 108.108 442.19 107.5 441.785C106.903 441.39 106.567 440.83 106.492 440.105H107.692C107.81 440.947 108.567 441.369 109.964 441.369C111.543 441.369 112.332 440.659 112.332 439.241V438.073H112.3C111.97 438.499 111.618 438.819 111.244 439.033C110.871 439.246 110.407 439.353 109.852 439.353C108.786 439.353 107.916 438.969 107.244 438.201C106.572 437.433 106.236 436.451 106.236 435.257C106.236 434.009 106.572 433.017 107.244 432.281C107.927 431.545 108.77 431.177 109.772 431.177C110.86 431.177 111.703 431.593 112.3 432.425H112.332V431.369H113.628V439.193C113.628 440.249 113.303 441.043 112.652 441.577C112.012 442.121 111.127 442.393 109.996 442.393ZM109.916 438.265C111.591 438.265 112.428 437.241 112.428 435.193C112.428 433.241 111.586 432.265 109.9 432.265C109.143 432.265 108.562 432.537 108.156 433.081C107.762 433.625 107.564 434.355 107.564 435.273C107.564 436.19 107.767 436.921 108.172 437.465C108.578 437.998 109.159 438.265 109.916 438.265ZM118.924 439.865C117.697 439.865 116.721 439.454 115.996 438.633C115.281 437.801 114.924 436.761 114.924 435.513C114.924 434.286 115.286 433.257 116.012 432.425C116.748 431.582 117.692 431.161 118.844 431.161C120.06 431.161 120.998 431.587 121.66 432.441C122.321 433.283 122.652 434.409 122.652 435.817H116.252C116.305 436.691 116.561 437.406 117.02 437.961C117.489 438.505 118.124 438.777 118.924 438.777C120.161 438.777 120.924 438.211 121.212 437.081H122.476C122.284 437.966 121.878 438.654 121.26 439.145C120.641 439.625 119.862 439.865 118.924 439.865ZM120.572 432.889C120.156 432.419 119.58 432.185 118.844 432.185C118.108 432.185 117.521 432.43 117.084 432.921C116.657 433.411 116.39 434.051 116.284 434.841H121.26C121.217 434.009 120.988 433.358 120.572 432.889ZM127.055 439.881C125.924 439.881 125.044 439.63 124.415 439.129C123.796 438.617 123.455 437.891 123.391 436.953H124.719C124.868 438.179 125.658 438.793 127.087 438.793C127.738 438.793 128.218 438.67 128.527 438.425C128.847 438.169 129.007 437.838 129.007 437.433C129.007 436.995 128.852 436.681 128.543 436.489C128.234 436.297 127.668 436.115 126.847 435.945C126.506 435.87 126.234 435.811 126.031 435.769C125.839 435.715 125.604 435.646 125.327 435.561C125.05 435.465 124.831 435.363 124.671 435.257C124.522 435.139 124.367 435.001 124.207 434.841C124.047 434.681 123.93 434.483 123.855 434.249C123.791 434.014 123.759 433.753 123.759 433.465C123.759 432.761 124.015 432.206 124.527 431.801C125.05 431.395 125.786 431.193 126.735 431.193C128.698 431.193 129.78 432.057 129.983 433.785H128.655C128.591 433.241 128.404 432.846 128.095 432.601C127.786 432.345 127.322 432.217 126.703 432.217C126.138 432.217 125.716 432.329 125.439 432.553C125.172 432.766 125.039 433.049 125.039 433.401C125.039 433.806 125.199 434.094 125.519 434.265C125.839 434.425 126.42 434.59 127.263 434.761C127.775 434.867 128.175 434.969 128.463 435.065C128.762 435.15 129.071 435.289 129.391 435.481C129.711 435.662 129.946 435.907 130.095 436.217C130.244 436.526 130.319 436.91 130.319 437.369C130.319 438.179 130.02 438.803 129.423 439.241C128.826 439.667 128.036 439.881 127.055 439.881Z" fill="#5D8049"/>
<path d="M80.0519 369.044L70.8234 359.815C70.7008 359.693 70.5554 359.596 70.3954 359.53C70.2353 359.464 70.0638 359.43 69.8906 359.43H54.0703C53.371 359.43 52.7004 359.707 52.2059 360.202C51.7114 360.696 51.4336 361.367 51.4336 362.066V391.07C51.4336 391.77 51.7114 392.44 52.2059 392.935C52.7004 393.429 53.371 393.707 54.0703 393.707H77.8008C78.5001 393.707 79.1707 393.429 79.6652 392.935C80.1597 392.44 80.4375 391.77 80.4375 391.07V369.977C80.4376 369.803 80.4037 369.632 80.3375 369.472C80.2713 369.312 80.1743 369.166 80.0519 369.044ZM71.209 363.93L75.937 368.658H71.209V363.93ZM77.8008 391.07H63.2988V388.434H64.6172C64.9668 388.434 65.3022 388.295 65.5494 388.047C65.7966 387.8 65.9355 387.465 65.9355 387.115C65.9355 386.766 65.7966 386.43 65.5494 386.183C65.3022 385.936 64.9668 385.797 64.6172 385.797H63.2988V383.16H64.6172C64.9668 383.16 65.3022 383.021 65.5494 382.774C65.7966 382.527 65.9355 382.191 65.9355 381.842C65.9355 381.492 65.7966 381.157 65.5494 380.91C65.3022 380.662 64.9668 380.523 64.6172 380.523H63.2988V377.887H64.6172C64.9668 377.887 65.3022 377.748 65.5494 377.501C65.7966 377.253 65.9355 376.918 65.9355 376.568C65.9355 376.219 65.7966 375.883 65.5494 375.636C65.3022 375.389 64.9668 375.25 64.6172 375.25H63.2988V373.932C63.2988 373.582 63.1599 373.247 62.9127 372.999C62.6654 372.752 62.3301 372.613 61.9805 372.613C61.6308 372.613 61.2955 372.752 61.0482 372.999C60.801 373.247 60.6621 373.582 60.6621 373.932V375.25H59.3438C58.9941 375.25 58.6588 375.389 58.4115 375.636C58.1643 375.883 58.0254 376.219 58.0254 376.568C58.0254 376.918 58.1643 377.253 58.4115 377.501C58.6588 377.748 58.9941 377.887 59.3438 377.887H60.6621V380.523H59.3438C58.9941 380.523 58.6588 380.662 58.4115 380.91C58.1643 381.157 58.0254 381.492 58.0254 381.842C58.0254 382.191 58.1643 382.527 58.4115 382.774C58.6588 383.021 58.9941 383.16 59.3438 383.16H60.6621V385.797H59.3438C58.9941 385.797 58.6588 385.936 58.4115 386.183C58.1643 386.43 58.0254 386.766 58.0254 387.115C58.0254 387.465 58.1643 387.8 58.4115 388.047C58.6588 388.295 58.9941 388.434 59.3438 388.434H60.6621V391.07H54.0703V362.066H68.5723V369.977C68.5723 370.326 68.7112 370.662 68.9584 370.909C69.2056 371.156 69.541 371.295 69.8906 371.295H77.8008V391.07Z" fill="#5D8049"/>
<circle cx="484.654" cy="43.248" r="42.5723" stroke="#B4C9A8"/>
<circle cx="484.654" cy="43.248" r="38.9277" stroke="#B4C9A8"/>
<circle cx="484.654" cy="43.248" r="34.0293" stroke="#B4C9A8" stroke-width="3"/>
<path d="M427.504 96.1443V94.8803H436.56V96.1443H432.752V106.32H431.312V96.1443H427.504ZM437.798 106.32V98.0483H439.094V106.32H437.798ZM437.798 96.4803V94.8803H439.094V96.4803H437.798ZM440.86 106.32V98.0483H442.156V99.2323H442.188C442.455 98.8163 442.802 98.4856 443.228 98.2403C443.655 97.9843 444.119 97.8563 444.62 97.8563C445.698 97.8563 446.418 98.347 446.78 99.3283H446.812C447.068 98.8696 447.426 98.5123 447.884 98.2563C448.343 97.9896 448.828 97.8563 449.34 97.8563C450.098 97.8563 450.706 98.091 451.164 98.5603C451.623 99.019 451.852 99.6696 451.852 100.512V106.32H450.556V100.576C450.556 100.075 450.407 99.6803 450.108 99.3923C449.82 99.0936 449.463 98.9443 449.036 98.9443C448.492 98.9443 448.018 99.1576 447.612 99.5843C447.207 100.011 447.004 100.539 447.004 101.168V106.32H445.708V100.576C445.708 100.075 445.575 99.6803 445.308 99.3923C445.052 99.0936 444.711 98.9443 444.284 98.9443C443.751 98.9443 443.26 99.163 442.812 99.6003C442.375 100.027 442.156 100.55 442.156 101.168V106.32H440.86ZM457.1 106.544C455.873 106.544 454.897 106.134 454.172 105.312C453.457 104.48 453.1 103.44 453.1 102.192C453.1 100.966 453.462 99.9363 454.188 99.1043C454.924 98.2616 455.868 97.8403 457.02 97.8403C458.236 97.8403 459.174 98.267 459.836 99.1203C460.497 99.963 460.828 101.088 460.828 102.496H454.428C454.481 103.371 454.737 104.086 455.196 104.64C455.665 105.184 456.3 105.456 457.1 105.456C458.337 105.456 459.1 104.891 459.388 103.76H460.652C460.46 104.646 460.054 105.334 459.436 105.824C458.817 106.304 458.038 106.544 457.1 106.544ZM458.748 99.5683C458.332 99.099 457.756 98.8643 457.02 98.8643C456.284 98.8643 455.697 99.1096 455.26 99.6003C454.833 100.091 454.566 100.731 454.46 101.52H459.436C459.393 100.688 459.164 100.038 458.748 99.5683ZM462.143 106.32V94.8803H463.439V106.32H462.143ZM465.251 106.32V98.0483H466.547V106.32H465.251ZM465.251 96.4803V94.8803H466.547V96.4803H465.251ZM469.61 98.0483V99.1363H469.642C470.282 98.283 471.156 97.8563 472.266 97.8563C473.14 97.8563 473.823 98.0856 474.314 98.5443C474.804 99.003 475.05 99.659 475.05 100.512V106.32H473.754V100.624C473.754 100.091 473.588 99.6803 473.258 99.3923C472.927 99.0936 472.468 98.9443 471.882 98.9443C471.22 98.9443 470.676 99.1576 470.25 99.5843C469.823 100.011 469.61 100.56 469.61 101.232V106.32H468.314V98.0483H469.61ZM480.303 106.544C479.076 106.544 478.1 106.134 477.375 105.312C476.66 104.48 476.303 103.44 476.303 102.192C476.303 100.966 476.665 99.9363 477.391 99.1043C478.127 98.2616 479.071 97.8403 480.223 97.8403C481.439 97.8403 482.377 98.267 483.039 99.1203C483.7 99.963 484.031 101.088 484.031 102.496H477.631C477.684 103.371 477.94 104.086 478.399 104.64C478.868 105.184 479.503 105.456 480.303 105.456C481.54 105.456 482.303 104.891 482.591 103.76H483.855C483.663 104.646 483.257 105.334 482.639 105.824C482.02 106.304 481.241 106.544 480.303 106.544ZM481.951 99.5683C481.535 99.099 480.959 98.8643 480.223 98.8643C479.487 98.8643 478.9 99.1096 478.463 99.6003C478.036 100.091 477.769 100.731 477.663 101.52H482.639C482.596 100.688 482.367 100.038 481.951 99.5683ZM488.037 106.32V94.8803H489.477V104.992H495.477V106.32H488.037ZM502.824 105.296C502.098 106.128 501.133 106.544 499.928 106.544C498.722 106.544 497.752 106.128 497.016 105.296C496.29 104.464 495.928 103.43 495.928 102.192C495.928 100.955 496.29 99.9203 497.016 99.0883C497.752 98.2563 498.722 97.8403 499.928 97.8403C501.133 97.8403 502.098 98.2563 502.824 99.0883C503.549 99.9203 503.912 100.955 503.912 102.192C503.912 103.43 503.549 104.464 502.824 105.296ZM497.944 104.544C498.413 105.152 499.074 105.456 499.928 105.456C500.781 105.456 501.437 105.152 501.896 104.544C502.354 103.926 502.584 103.142 502.584 102.192C502.584 101.232 502.349 100.448 501.88 99.8403C501.421 99.2216 500.77 98.9123 499.928 98.9123C499.074 98.9123 498.413 99.2216 497.944 99.8403C497.485 100.459 497.256 101.243 497.256 102.192C497.256 103.142 497.485 103.926 497.944 104.544ZM508.5 109.072C507.444 109.072 506.612 108.87 506.004 108.464C505.407 108.07 505.071 107.51 504.996 106.784H506.196C506.314 107.627 507.071 108.048 508.468 108.048C510.047 108.048 510.836 107.339 510.836 105.92V104.752H510.804C510.474 105.179 510.122 105.499 509.748 105.712C509.375 105.926 508.911 106.032 508.356 106.032C507.29 106.032 506.42 105.648 505.748 104.88C505.076 104.112 504.74 103.131 504.74 101.936C504.74 100.688 505.076 99.6963 505.748 98.9603C506.431 98.2243 507.274 97.8563 508.276 97.8563C509.364 97.8563 510.207 98.2723 510.804 99.1043H510.836V98.0483H512.132V105.872C512.132 106.928 511.807 107.723 511.156 108.256C510.516 108.8 509.631 109.072 508.5 109.072ZM508.42 104.944C510.095 104.944 510.932 103.92 510.932 101.872C510.932 99.9203 510.09 98.9443 508.404 98.9443C507.647 98.9443 507.066 99.2163 506.66 99.7603C506.266 100.304 506.068 101.035 506.068 101.952C506.068 102.87 506.271 103.6 506.676 104.144C507.082 104.678 507.663 104.944 508.42 104.944ZM517.188 109.072C516.132 109.072 515.3 108.87 514.692 108.464C514.094 108.07 513.758 107.51 513.684 106.784H514.884C515.001 107.627 515.758 108.048 517.156 108.048C518.734 108.048 519.524 107.339 519.524 105.92V104.752H519.492C519.161 105.179 518.809 105.499 518.436 105.712C518.062 105.926 517.598 106.032 517.044 106.032C515.977 106.032 515.108 105.648 514.436 104.88C513.764 104.112 513.428 103.131 513.428 101.936C513.428 100.688 513.764 99.6963 514.436 98.9603C515.118 98.2243 515.961 97.8563 516.964 97.8563C518.052 97.8563 518.894 98.2723 519.492 99.1043H519.524V98.0483H520.82V105.872C520.82 106.928 520.494 107.723 519.844 108.256C519.204 108.8 518.318 109.072 517.188 109.072ZM517.108 104.944C518.782 104.944 519.62 103.92 519.62 101.872C519.62 99.9203 518.777 98.9443 517.092 98.9443C516.334 98.9443 515.753 99.2163 515.348 99.7603C514.953 100.304 514.756 101.035 514.756 101.952C514.756 102.87 514.958 103.6 515.364 104.144C515.769 104.678 516.35 104.944 517.108 104.944ZM522.579 106.32V98.0483H523.875V106.32H522.579ZM522.579 96.4803V94.8803H523.875V96.4803H522.579ZM526.938 98.0483V99.1363H526.97C527.61 98.283 528.484 97.8563 529.594 97.8563C530.468 97.8563 531.151 98.0856 531.642 98.5443C532.132 99.003 532.378 99.659 532.378 100.512V106.32H531.082V100.624C531.082 100.091 530.916 99.6803 530.586 99.3923C530.255 99.0936 529.796 98.9443 529.21 98.9443C528.548 98.9443 528.004 99.1576 527.578 99.5843C527.151 100.011 526.938 100.56 526.938 101.232V106.32H525.642V98.0483H526.938ZM537.391 109.072C536.335 109.072 535.503 108.87 534.895 108.464C534.298 108.07 533.962 107.51 533.887 106.784H535.087C535.204 107.627 535.962 108.048 537.359 108.048C538.938 108.048 539.727 107.339 539.727 105.92V104.752H539.695C539.364 105.179 539.012 105.499 538.639 105.712C538.266 105.926 537.802 106.032 537.247 106.032C536.18 106.032 535.311 105.648 534.639 104.88C533.967 104.112 533.631 103.131 533.631 101.936C533.631 100.688 533.967 99.6963 534.639 98.9603C535.322 98.2243 536.164 97.8563 537.167 97.8563C538.255 97.8563 539.098 98.2723 539.695 99.1043H539.727V98.0483H541.023V105.872C541.023 106.928 540.698 107.723 540.047 108.256C539.407 108.8 538.522 109.072 537.391 109.072ZM537.311 104.944C538.986 104.944 539.823 103.92 539.823 101.872C539.823 99.9203 538.98 98.9443 537.295 98.9443C536.538 98.9443 535.956 99.2163 535.551 99.7603C535.156 100.304 534.959 101.035 534.959 101.952C534.959 102.87 535.162 103.6 535.567 104.144C535.972 104.678 536.554 104.944 537.311 104.944Z" fill="#5D8049"/>
<path d="M497.324 29.3146H493.524V28.0479C493.524 27.712 493.39 27.3898 493.153 27.1523C492.915 26.9147 492.593 26.7812 492.257 26.7812C491.921 26.7812 491.599 26.9147 491.362 27.1523C491.124 27.3898 490.991 27.712 490.991 28.0479V29.3146H478.324V28.0479C478.324 27.712 478.19 27.3898 477.953 27.1523C477.715 26.9147 477.393 26.7812 477.057 26.7812C476.721 26.7812 476.399 26.9147 476.161 27.1523C475.924 27.3898 475.79 27.712 475.79 28.0479V29.3146H471.99C471.318 29.3146 470.674 29.5815 470.199 30.0566C469.724 30.5317 469.457 31.1761 469.457 31.848V57.1815C469.457 57.8534 469.724 58.4977 470.199 58.9728C470.674 59.4479 471.318 59.7148 471.99 59.7148H497.324C497.996 59.7148 498.64 59.4479 499.115 58.9728C499.59 58.4977 499.857 57.8534 499.857 57.1815V31.848C499.857 31.1761 499.59 30.5317 499.115 30.0566C498.64 29.5815 497.996 29.3146 497.324 29.3146ZM475.79 31.848V33.1146C475.79 33.4506 475.924 33.7728 476.161 34.0103C476.399 34.2479 476.721 34.3813 477.057 34.3813C477.393 34.3813 477.715 34.2479 477.953 34.0103C478.19 33.7728 478.324 33.4506 478.324 33.1146V31.848H490.991V33.1146C490.991 33.4506 491.124 33.7728 491.362 34.0103C491.599 34.2479 491.921 34.3813 492.257 34.3813C492.593 34.3813 492.915 34.2479 493.153 34.0103C493.39 33.7728 493.524 33.4506 493.524 33.1146V31.848H497.324V36.9147H471.99V31.848H475.79ZM497.324 57.1815H471.99V39.448H497.324V57.1815ZM486.557 45.1481C486.557 45.5238 486.446 45.8912 486.237 46.2037C486.028 46.5161 485.731 46.7596 485.384 46.9034C485.037 47.0473 484.655 47.0849 484.286 47.0116C483.918 46.9383 483.579 46.7573 483.314 46.4916C483.048 46.2259 482.867 45.8873 482.794 45.5187C482.72 45.1502 482.758 44.7681 482.902 44.421C483.046 44.0738 483.289 43.777 483.602 43.5683C483.914 43.3595 484.281 43.248 484.657 43.248C485.161 43.248 485.644 43.4482 486.001 43.8045C486.357 44.1609 486.557 44.6441 486.557 45.1481ZM493.524 45.1481C493.524 45.5238 493.412 45.8912 493.204 46.2037C492.995 46.5161 492.698 46.7596 492.351 46.9034C492.004 47.0473 491.622 47.0849 491.253 47.0116C490.885 46.9383 490.546 46.7573 490.28 46.4916C490.015 46.2259 489.834 45.8873 489.76 45.5187C489.687 45.1502 489.725 44.7681 489.868 44.421C490.012 44.0738 490.256 43.777 490.568 43.5683C490.881 43.3595 491.248 43.248 491.624 43.248C492.128 43.248 492.611 43.4482 492.967 43.8045C493.324 44.1609 493.524 44.6441 493.524 45.1481ZM479.59 51.4814C479.59 51.8572 479.479 52.2246 479.27 52.537C479.061 52.8495 478.765 53.093 478.418 53.2368C478.07 53.3806 477.688 53.4183 477.32 53.345C476.951 53.2716 476.613 53.0907 476.347 52.825C476.081 52.5592 475.9 52.2207 475.827 51.8521C475.754 51.4836 475.791 51.1015 475.935 50.7543C476.079 50.4072 476.322 50.1104 476.635 49.9016C476.947 49.6929 477.315 49.5814 477.69 49.5814C478.194 49.5814 478.678 49.7816 479.034 50.1379C479.39 50.4943 479.59 50.9775 479.59 51.4814ZM486.557 51.4814C486.557 51.8572 486.446 52.2246 486.237 52.537C486.028 52.8495 485.731 53.093 485.384 53.2368C485.037 53.3806 484.655 53.4183 484.286 53.345C483.918 53.2716 483.579 53.0907 483.314 52.825C483.048 52.5592 482.867 52.2207 482.794 51.8521C482.72 51.4836 482.758 51.1015 482.902 50.7543C483.046 50.4072 483.289 50.1104 483.602 49.9016C483.914 49.6929 484.281 49.5814 484.657 49.5814C485.161 49.5814 485.644 49.7816 486.001 50.1379C486.357 50.4943 486.557 50.9775 486.557 51.4814ZM493.524 51.4814C493.524 51.8572 493.412 52.2246 493.204 52.537C492.995 52.8495 492.698 53.093 492.351 53.2368C492.004 53.3806 491.622 53.4183 491.253 53.345C490.885 53.2716 490.546 53.0907 490.28 52.825C490.015 52.5592 489.834 52.2207 489.76 51.8521C489.687 51.4836 489.725 51.1015 489.868 50.7543C490.012 50.4072 490.256 50.1104 490.568 49.9016C490.881 49.6929 491.248 49.5814 491.624 49.5814C492.128 49.5814 492.611 49.7816 492.967 50.1379C493.324 50.4943 493.524 50.9775 493.524 51.4814Z" fill="#5D8049"/>
<circle cx="484.654" cy="376.393" r="42.5723" stroke="#B4C9A8"/>
<circle cx="484.654" cy="376.393" r="38.9277" stroke="#B4C9A8"/>
<circle cx="484.654" cy="376.393" r="34.0293" stroke="#B4C9A8" stroke-width="3"/>
<path d="M449.312 439.465L453.52 428.025H455.136L459.36 439.465H457.792L456.576 435.977H452.016L450.784 439.465H449.312ZM453.792 430.969L452.432 434.809H456.176L454.864 430.969L454.352 429.353H454.32C454.118 429.993 453.942 430.532 453.792 430.969ZM460.599 439.465V428.025H465.367C466.562 428.025 467.469 428.393 468.087 429.129C468.599 429.726 468.855 430.452 468.855 431.305C468.855 432.372 468.546 433.198 467.927 433.785C467.309 434.372 466.386 434.665 465.159 434.665H462.039V439.465H460.599ZM462.039 429.273V433.497H465.047C465.837 433.497 466.429 433.31 466.823 432.937C467.229 432.564 467.431 432.041 467.431 431.369C467.431 430.686 467.229 430.169 466.823 429.817C466.429 429.454 465.863 429.273 465.127 429.273H462.039ZM470.272 439.465V428.025H471.712V439.465H470.272ZM476.427 439.465V428.025H477.867V432.889H483.979V428.025H485.419V439.465H483.979V434.057H477.867V439.465H476.427ZM493.808 438.441C493.083 439.273 492.117 439.689 490.912 439.689C489.707 439.689 488.736 439.273 488 438.441C487.275 437.609 486.912 436.574 486.912 435.337C486.912 434.1 487.275 433.065 488 432.233C488.736 431.401 489.707 430.985 490.912 430.985C492.117 430.985 493.083 431.401 493.808 432.233C494.533 433.065 494.896 434.1 494.896 435.337C494.896 436.574 494.533 437.609 493.808 438.441ZM488.928 437.689C489.397 438.297 490.059 438.601 490.912 438.601C491.765 438.601 492.421 438.297 492.88 437.689C493.339 437.07 493.568 436.286 493.568 435.337C493.568 434.377 493.333 433.593 492.864 432.985C492.405 432.366 491.755 432.057 490.912 432.057C490.059 432.057 489.397 432.366 488.928 432.985C488.469 433.604 488.24 434.388 488.24 435.337C488.24 436.286 488.469 437.07 488.928 437.689ZM502.621 438.441C501.895 439.273 500.93 439.689 499.725 439.689C498.519 439.689 497.549 439.273 496.813 438.441C496.087 437.609 495.725 436.574 495.725 435.337C495.725 434.1 496.087 433.065 496.813 432.233C497.549 431.401 498.519 430.985 499.725 430.985C500.93 430.985 501.895 431.401 502.621 432.233C503.346 433.065 503.709 434.1 503.709 435.337C503.709 436.574 503.346 437.609 502.621 438.441ZM497.741 437.689C498.21 438.297 498.871 438.601 499.725 438.601C500.578 438.601 501.234 438.297 501.693 437.689C502.151 437.07 502.381 436.286 502.381 435.337C502.381 434.377 502.146 433.593 501.677 432.985C501.218 432.366 500.567 432.057 499.725 432.057C498.871 432.057 498.21 432.366 497.741 432.985C497.282 433.604 497.053 434.388 497.053 435.337C497.053 436.286 497.282 437.07 497.741 437.689ZM510.441 439.465L507.513 435.001L506.297 436.153V439.465H505.001V428.025H506.297V434.729L509.929 431.193H511.577L508.409 434.169L511.961 439.465H510.441ZM515.731 439.705C514.6 439.705 513.72 439.454 513.091 438.953C512.472 438.441 512.131 437.716 512.067 436.777H513.395C513.544 438.004 514.334 438.617 515.763 438.617C516.414 438.617 516.894 438.494 517.203 438.249C517.523 437.993 517.683 437.662 517.683 437.257C517.683 436.82 517.528 436.505 517.219 436.313C516.91 436.121 516.344 435.94 515.523 435.769C515.182 435.694 514.91 435.636 514.707 435.593C514.515 435.54 514.28 435.47 514.003 435.385C513.726 435.289 513.507 435.188 513.347 435.081C513.198 434.964 513.043 434.825 512.883 434.665C512.723 434.505 512.606 434.308 512.531 434.073C512.467 433.838 512.435 433.577 512.435 433.289C512.435 432.585 512.691 432.03 513.203 431.625C513.726 431.22 514.462 431.017 515.411 431.017C517.374 431.017 518.456 431.881 518.659 433.609H517.331C517.267 433.065 517.08 432.67 516.771 432.425C516.462 432.169 515.998 432.041 515.379 432.041C514.814 432.041 514.392 432.153 514.115 432.377C513.848 432.59 513.715 432.873 513.715 433.225C513.715 433.63 513.875 433.918 514.195 434.089C514.515 434.249 515.096 434.414 515.939 434.585C516.451 434.692 516.851 434.793 517.139 434.889C517.438 434.974 517.747 435.113 518.067 435.305C518.387 435.486 518.622 435.732 518.771 436.041C518.92 436.35 518.995 436.734 518.995 437.193C518.995 438.004 518.696 438.628 518.099 439.065C517.502 439.492 516.712 439.705 515.731 439.705Z" fill="#5D8049"/>
<path d="M493.466 386.926H481.73C481.518 388.184 481.022 389.378 480.281 390.416C479.54 391.455 478.573 392.312 477.452 392.922C476.332 393.533 475.088 393.881 473.813 393.94C472.538 394 471.267 393.769 470.095 393.266C468.922 392.762 467.879 391.999 467.045 391.034C466.21 390.069 465.606 388.927 465.277 387.694C464.948 386.461 464.903 385.17 465.146 383.917C465.389 382.665 465.913 381.483 466.679 380.463C466.903 380.165 467.236 379.968 467.605 379.915C467.974 379.863 468.349 379.959 468.647 380.183C468.945 380.407 469.142 380.74 469.194 381.109C469.247 381.478 469.151 381.852 468.927 382.15C468.194 383.121 467.799 384.305 467.803 385.521C467.803 387.012 468.395 388.441 469.449 389.494C470.502 390.548 471.932 391.14 473.422 391.14C474.912 391.14 476.341 390.548 477.395 389.494C478.448 388.441 479.04 387.012 479.04 385.521C479.04 385.149 479.188 384.792 479.452 384.528C479.715 384.265 480.072 384.117 480.445 384.117H493.466C493.775 383.581 494.252 383.163 494.824 382.926C495.395 382.689 496.029 382.648 496.626 382.808C497.223 382.968 497.751 383.321 498.128 383.811C498.504 384.302 498.708 384.903 498.708 385.521C498.708 386.14 498.504 386.741 498.128 387.232C497.751 387.722 497.223 388.075 496.626 388.235C496.029 388.395 495.395 388.354 494.824 388.117C494.252 387.88 493.775 387.462 493.466 386.926ZM473.422 388.331C473.908 388.331 474.386 388.205 474.81 387.964C475.233 387.724 475.586 387.378 475.835 386.96C476.085 386.542 476.221 386.067 476.231 385.58C476.242 385.094 476.125 384.613 475.894 384.185L482.174 373.977C482.369 373.66 482.43 373.278 482.344 372.916C482.258 372.554 482.031 372.241 481.714 372.046C480.964 371.583 480.332 370.951 479.871 370.2C479.41 369.448 479.132 368.599 479.06 367.72C478.988 366.841 479.124 365.958 479.456 365.141C479.789 364.325 480.309 363.598 480.974 363.02C481.64 362.442 482.432 362.028 483.287 361.813C484.142 361.597 485.036 361.586 485.896 361.78C486.756 361.974 487.558 362.367 488.238 362.929C488.918 363.49 489.456 364.204 489.809 365.012C489.958 365.353 490.236 365.622 490.583 365.758C490.93 365.894 491.317 365.887 491.658 365.738C492 365.589 492.268 365.31 492.404 364.963C492.541 364.616 492.533 364.23 492.384 363.888C491.878 362.731 491.119 361.703 490.162 360.879C489.206 360.056 488.076 359.457 486.857 359.129C485.638 358.8 484.361 358.749 483.12 358.98C481.879 359.212 480.705 359.719 479.686 360.464C478.667 361.21 477.829 362.175 477.233 363.288C476.637 364.401 476.299 365.633 476.243 366.895C476.188 368.156 476.416 369.413 476.912 370.575C477.407 371.736 478.158 372.771 479.107 373.603L473.499 382.712C473.473 382.712 473.448 382.712 473.422 382.712C472.677 382.712 471.962 383.008 471.435 383.535C470.908 384.062 470.612 384.776 470.612 385.521C470.612 386.266 470.908 386.981 471.435 387.508C471.962 388.035 472.677 388.331 473.422 388.331ZM495.896 377.094C494.813 377.094 493.74 377.302 492.736 377.706L487.131 368.595C487.423 368.054 487.53 367.432 487.434 366.825C487.339 366.217 487.046 365.658 486.602 365.232C486.158 364.807 485.587 364.539 484.976 364.47C484.365 364.4 483.748 364.533 483.22 364.848C482.691 365.163 482.281 365.643 482.052 366.214C481.823 366.784 481.787 367.415 481.951 368.007C482.114 368.6 482.467 369.123 482.957 369.496C483.446 369.868 484.044 370.07 484.659 370.07H484.736L491.018 380.28C491.214 380.597 491.527 380.823 491.889 380.909C492.251 380.995 492.633 380.934 492.95 380.739C493.689 380.283 494.524 380.005 495.39 379.926C496.255 379.847 497.126 379.97 497.936 380.285C498.746 380.601 499.471 381.099 500.056 381.742C500.64 382.385 501.067 383.154 501.304 383.99C501.541 384.826 501.581 385.705 501.42 386.559C501.26 387.413 500.903 388.218 500.379 388.911C499.855 389.604 499.178 390.166 498.4 390.552C497.622 390.939 496.765 391.14 495.896 391.14C495.523 391.14 495.166 391.288 494.903 391.551C494.639 391.815 494.491 392.172 494.491 392.545C494.491 392.917 494.639 393.274 494.903 393.538C495.166 393.801 495.523 393.949 495.896 393.949C498.131 393.949 500.275 393.061 501.855 391.481C503.436 389.9 504.324 387.757 504.324 385.521C504.324 383.286 503.436 381.143 501.855 379.562C500.275 377.981 498.131 377.094 495.896 377.094Z" fill="#5D8049"/>
<path d="M115.609 42.4199L120.609 45.3067V39.5332L115.609 42.4199ZM176.785 42.4199L177.218 42.1699L177.074 41.9199H176.785V42.4199ZM205.641 97.0177C205.641 98.4904 206.834 99.6844 208.307 99.6844C209.78 99.6844 210.974 98.4904 210.974 97.0177C210.974 95.5449 209.78 94.351 208.307 94.351C206.834 94.351 205.641 95.5449 205.641 97.0177ZM120.109 42.4199V42.9199H176.785V42.4199V41.9199H120.109V42.4199ZM176.785 42.4199L176.352 42.6699L207.874 97.2677L208.307 97.0177L208.74 96.7677L177.218 42.1699L176.785 42.4199Z" fill="#B4C8A8"/>
<path d="M116.168 385.77L121.168 382.883V388.656L116.168 385.77ZM151.897 385.77L152.339 386.004L152.198 386.27H151.897V385.77ZM167.641 351.057C167.641 349.584 168.834 348.39 170.307 348.39C171.78 348.39 172.974 349.584 172.974 351.057C172.974 352.529 171.78 353.723 170.307 353.723C168.834 353.723 167.641 352.529 167.641 351.057ZM120.668 385.77V385.27H151.897V385.77V386.27H120.668V385.77ZM151.897 385.77L151.455 385.535L169.865 350.822L170.307 351.057L170.749 351.291L152.339 386.004L151.897 385.77Z" fill="#B4C8A8"/>
<path d="M431.734 385.77L426.734 382.883V388.656L431.734 385.77ZM396.005 385.77L395.564 386.004L395.704 386.27H396.005V385.77ZM380.262 351.057C380.262 349.584 379.068 348.39 377.595 348.39C376.122 348.39 374.928 349.584 374.928 351.057C374.928 352.529 376.122 353.723 377.595 353.723C379.068 353.723 380.262 352.529 380.262 351.057ZM427.234 385.77V385.27H396.005V385.77V386.27H427.234V385.77ZM396.005 385.77L396.447 385.535L378.037 350.822L377.595 351.057L377.153 351.291L395.564 386.004L396.005 385.77Z" fill="#B4C8A8"/>
<path d="M431.309 42.4199L426.309 45.3067V39.5332L431.309 42.4199ZM370.133 42.4199L369.7 42.1699L369.844 41.9199H370.133V42.4199ZM341.277 97.0177C341.277 98.4904 340.084 99.6844 338.611 99.6844C337.138 99.6844 335.944 98.4904 335.944 97.0177C335.944 95.5449 337.138 94.351 338.611 94.351C340.084 94.351 341.277 95.5449 341.277 97.0177ZM426.809 42.4199V42.9199H370.133V42.4199V41.9199H426.809V42.4199ZM370.133 42.4199L370.566 42.6699L339.044 97.2677L338.611 97.0177L338.178 96.7677L369.7 42.1699L370.133 42.4199Z" fill="#B4C8A8"/>
<defs>
<filter id="filter0_d_652_3965" x="101.55" y="56.8372" width="345.818" height="337.984" filterUnits="userSpaceOnUse" color-interpolation-filters="sRGB">
<feFlood flood-opacity="0" result="BackgroundImageFix"/>
<feColorMatrix in="SourceAlpha" type="matrix" values="0 0 0 0 0 0 0 0 0 0 0 0 0 0 0 0 0 0 127 0" result="hardAlpha"/>
<feOffset/>
<feGaussianBlur stdDeviation="8.3187"/>
<feComposite in2="hardAlpha" operator="out"/>
<feColorMatrix type="matrix" values="0 0 0 0 0 0 0 0 0 0 0 0 0 0 0 0 0 0 0.15 0"/>
<feBlend mode="normal" in2="BackgroundImageFix" result="effect1_dropShadow_652_3965"/>
<feBlend mode="normal" in="SourceGraphic" in2="effect1_dropShadow_652_3965" result="shape"/>
</filter>
<filter id="filter1_d_652_3965" x="136.878" y="93.0755" width="275.162" height="269.095" filterUnits="userSpaceOnUse" color-interpolation-filters="sRGB">
<feFlood flood-opacity="0" result="BackgroundImageFix"/>
<feColorMatrix in="SourceAlpha" type="matrix" values="0 0 0 0 0 0 0 0 0 0 0 0 0 0 0 0 0 0 127 0" result="hardAlpha"/>
<feOffset/>
<feGaussianBlur stdDeviation="8.3187"/>
<feComposite in2="hardAlpha" operator="out"/>
<feColorMatrix type="matrix" values="0 0 0 0 0 0 0 0 0 0 0 0 0 0 0 0 0 0 0.15 0"/>
<feBlend mode="normal" in2="BackgroundImageFix" result="effect1_dropShadow_652_3965"/>
<feBlend mode="normal" in="SourceGraphic" in2="effect1_dropShadow_652_3965" result="shape"/>
</filter>
<filter id="filter2_d_652_3965" x="166.21" y="123.161" width="216.497" height="211.902" filterUnits="userSpaceOnUse" color-interpolation-filters="sRGB">
<feFlood flood-opacity="0" result="BackgroundImageFix"/>
<feColorMatrix in="SourceAlpha" type="matrix" values="0 0 0 0 0 0 0 0 0 0 0 0 0 0 0 0 0 0 127 0" result="hardAlpha"/>
<feOffset/>
<feGaussianBlur stdDeviation="8.3187"/>
<feComposite in2="hardAlpha" operator="out"/>
<feColorMatrix type="matrix" values="0 0 0 0 0 0 0 0 0 0 0 0 0 0 0 0 0 0 0.15 0"/>
<feBlend mode="normal" in2="BackgroundImageFix" result="effect1_dropShadow_652_3965"/>
<feBlend mode="normal" in="SourceGraphic" in2="effect1_dropShadow_652_3965" result="shape"/>
</filter>
<filter id="filter3_d_652_3965" x="174.217" y="136.098" width="200.48" height="197.08" filterUnits="userSpaceOnUse" color-interpolation-filters="sRGB">
<feFlood flood-opacity="0" result="BackgroundImageFix"/>
<feColorMatrix in="SourceAlpha" type="matrix" values="0 0 0 0 0 0 0 0 0 0 0 0 0 0 0 0 0 0 127 0" result="hardAlpha"/>
<feOffset dy="4.31849"/>
<feGaussianBlur stdDeviation="16.1943"/>
<feComposite in2="hardAlpha" operator="out"/>
<feColorMatrix type="matrix" values="0 0 0 0 0 0 0 0 0 0 0 0 0 0 0 0 0 0 0.1 0"/>
<feBlend mode="normal" in2="BackgroundImageFix" result="effect1_dropShadow_652_3965"/>
<feBlend mode="normal" in="SourceGraphic" in2="effect1_dropShadow_652_3965" result="shape"/>
</filter>
<filter id="filter4_d_652_3965" x="203.805" y="165.893" width="141.303" height="138.303" filterUnits="userSpaceOnUse" color-interpolation-filters="sRGB">
<feFlood flood-opacity="0" result="BackgroundImageFix"/>
<feColorMatrix in="SourceAlpha" type="matrix" values="0 0 0 0 0 0 0 0 0 0 0 0 0 0 0 0 0 0 127 0" result="hardAlpha"/>
<feOffset dy="4.31849"/>
<feGaussianBlur stdDeviation="5.39811"/>
<feComposite in2="hardAlpha" operator="out"/>
<feColorMatrix type="matrix" values="0 0 0 0 0 0 0 0 0 0 0 0 0 0 0 0 0 0 0.05 0"/>
<feBlend mode="normal" in2="BackgroundImageFix" result="effect1_dropShadow_652_3965"/>
<feBlend mode="normal" in="SourceGraphic" in2="effect1_dropShadow_652_3965" result="shape"/>
</filter>
<filter id="filter5_d_652_3965" x="213.911" y="171.936" width="121.096" height="118.604" filterUnits="userSpaceOnUse" color-interpolation-filters="sRGB">
<feFlood flood-opacity="0" result="BackgroundImageFix"/>
<feColorMatrix in="SourceAlpha" type="matrix" values="0 0 0 0 0 0 0 0 0 0 0 0 0 0 0 0 0 0 127 0" result="hardAlpha"/>
<feOffset/>
<feGaussianBlur stdDeviation="5.39811"/>
<feComposite in2="hardAlpha" operator="out"/>
<feColorMatrix type="matrix" values="0 0 0 0 0 0 0 0 0 0 0 0 0 0 0 0 0 0 0.15 0"/>
<feBlend mode="normal" in2="BackgroundImageFix" result="effect1_dropShadow_652_3965"/>
<feBlend mode="normal" in="SourceGraphic" in2="effect1_dropShadow_652_3965" result="shape"/>
</filter>
</defs>
</svg>
