<svg width="146" height="251" viewBox="0 0 146 251" fill="none" xmlns="http://www.w3.org/2000/svg">
<path d="M60.877 165.907C60.877 157.314 60.8788 148.721 60.8761 140.128C60.8751 136.827 60.4574 136.393 57.1265 135.822C47.8149 134.225 38.8079 131.643 30.3281 127.398C10.8716 117.659 -0.00171459 97.8885 2.17606 76.246C3.35969 64.4835 8.35175 54.4848 16.1755 45.7651C26.4702 34.2913 39.4365 27.8099 54.4703 25.1705C55.718 24.9514 56.9911 24.8662 58.2549 24.75C60.1974 24.5718 60.8657 23.8898 60.8675 21.9497C60.8736 16.1021 60.8724 10.2544 60.8568 4.40705C60.848 1.10424 61.8638 0.0380862 65.2051 0.0216087C70.3915 -0.00371771 75.5782 -0.00554899 80.7646 0.00970791C83.4831 0.0176415 84.679 1.1735 84.7003 3.89105C84.7427 9.33136 84.7247 14.7723 84.7363 20.2129C84.7375 20.7713 84.7424 21.3321 84.7922 21.8875C84.9722 23.8932 85.5043 24.3258 87.4868 24.7051C91.5696 25.4866 95.7127 26.1005 99.6881 27.2701C115.322 31.8701 127.562 41.2183 136.658 54.6416C140.039 59.6306 142.349 65.1966 143.615 71.119C143.914 72.5202 143.945 74.0914 143.638 75.4825C143.216 77.3967 141.754 78.627 139.822 79.0258C134.151 80.1951 128.481 81.3781 122.779 82.3765C118.6 83.1082 115.984 81.4248 114.728 77.231C112.111 68.501 107.097 61.697 99.054 57.274C95.4213 55.2763 91.5436 53.9148 87.4209 53.3432C85.4632 53.0717 84.787 53.6301 84.7412 55.6263C84.6725 58.6249 84.6869 61.6259 84.6863 64.626C84.6838 78.4567 84.6878 92.2877 84.6912 106.118C84.6918 109.092 85.1074 109.426 87.9985 109.908C99.1577 111.766 110.224 114.081 120.138 119.85C134.576 128.252 142.815 140.95 145.035 157.442C147.19 173.455 142.847 187.775 132.754 200.269C124.668 210.278 114.16 216.888 101.899 220.587C97.1554 222.018 92.2198 222.824 87.3568 223.844C85.1742 224.302 84.7369 224.67 84.7134 226.945C84.6744 230.759 84.678 234.573 84.6786 238.386C84.6793 241.081 84.747 243.776 84.7064 246.471C84.6661 249.142 83.5234 250.266 80.862 250.279C75.6249 250.304 70.3872 250.302 65.1501 250.276C62.1747 250.261 60.9075 249.008 60.8852 245.976C60.8422 240.078 60.8617 234.179 60.8669 228.28C60.8706 224.212 60.8761 224.233 56.8507 223.65C44.6659 221.887 33.3657 217.733 23.5327 210.284C11.5233 201.186 3.77987 189.134 0.263151 174.45C-0.0581595 173.109 -0.0737314 171.606 0.153902 170.242C0.483145 168.27 1.7095 166.743 3.72219 166.278C9.99675 164.827 16.2814 163.408 22.5959 162.146C25.1792 161.63 27.9218 163.564 29.0764 166.477C29.8036 168.312 30.3006 170.24 30.8795 172.133C35.0196 185.674 44.6442 192.844 58.1014 195.53C59.9274 195.894 60.9044 194.865 60.906 192.755C60.9124 183.806 60.9087 174.856 60.9087 165.907C60.898 165.907 60.8873 165.907 60.877 165.907ZM84.6735 167.952C84.6735 171.309 84.6722 174.665 84.6738 178.022C84.6762 182.853 84.6518 187.685 84.6957 192.516C84.7195 195.134 85.5517 195.847 88.0944 195.408C90.0912 195.063 92.1005 194.688 94.0336 194.095C102.988 191.351 110.182 186.319 113.994 177.497C117.37 169.683 117.294 161.842 112.73 154.41C109.719 149.507 105.248 146.224 99.9246 144.283C96.0264 142.862 91.9647 141.859 87.9302 140.854C85.4149 140.227 84.7406 140.911 84.679 143.542C84.6719 143.847 84.6765 144.152 84.6765 144.457C84.6768 152.289 84.6768 160.12 84.6735 167.952ZM60.8937 79.9028C60.8846 79.9028 60.8758 79.9028 60.8666 79.9028C60.8666 71.9777 60.8736 64.0527 60.8623 56.1276C60.859 53.6645 60.1511 53.0174 57.7292 53.3091C51.3051 54.0829 45.5826 56.5637 40.657 60.7264C35.3174 65.239 31.9874 70.9415 31.5621 78.0207C31.0125 87.1653 35.1059 94.0856 42.4158 99.2171C47.2758 102.629 52.8842 104.301 58.6116 105.575C60.686 106.037 60.8947 105.819 60.8944 103.678C60.8931 95.7529 60.8937 87.8278 60.8937 79.9028Z" fill="url(#paint0_linear_796_734)"/>
<defs>
<linearGradient id="paint0_linear_796_734" x1="70.7927" y1="-39.7713" x2="70.7927" y2="297.219" gradientUnits="userSpaceOnUse">
<stop stop-color="#C6E4B5"/>
<stop offset="0.504808" stop-color="#5D8049"/>
<stop offset="1" stop-color="#C6E4B5"/>
</linearGradient>
</defs>
</svg>
