<svg version="1.2" xmlns="http://www.w3.org/2000/svg" viewBox="0 0 601 228" width="601" height="228">
	<defs>
		<clipPath clipPathUnits="userSpaceOnUse" id="cp1">
			<path d="m326.89 32.76c39.07 0 70.74 31.67 70.74 70.74 0 39.07-31.67 70.74-70.74 70.74-39.07 0-70.74-31.67-70.74-70.74 0-39.07 31.67-70.74 70.74-70.74z"/>
		</clipPath>
		<clipPath clipPathUnits="userSpaceOnUse" id="cp2">
			<path d="m530.13 32.76c39.07 0 70.74 31.67 70.74 70.74 0 39.07-31.67 70.74-70.74 70.74-39.07 0-70.74-31.67-70.74-70.74 0-39.07 31.67-70.74 70.74-70.74z"/>
		</clipPath>
	</defs>
	<style>
		.s0 { fill: #5d8049 } 
		.s1 { fill: #ebf2e8 } 
		.s2 { fill: none;stroke: #b4c8a8;stroke-width: 1.1 } 
		.s3 { fill: #b3e1e7 } 
		.s4 { opacity: .6;fill: #bd0000 } 
		.s5 { fill: none;stroke: #b4c8a8;stroke-width: 1.2 } 
		.s6 { fill: #bd0000 } 
	</style>
	<path class="s0" d="m75.92 14.3q-2.74 0-4.25-1.15-1.51-1.17-1.59-3.33h2.68q0.14 1.21 0.85 1.74 0.74 0.53 2.2 0.53 1.15 0 1.89-0.41 0.73-0.44 0.73-1.33 0-0.32-0.09-0.56-0.08-0.27-0.34-0.46-0.27-0.21-0.46-0.32-0.18-0.13-0.69-0.26-0.51-0.16-0.78-0.21-0.26-0.08-0.98-0.25-0.87-0.21-1.44-0.36-0.55-0.15-1.23-0.47-0.66-0.32-1.06-0.7-0.37-0.4-0.64-1.02-0.26-0.64-0.26-1.45 0-1.95 1.42-2.99 1.43-1.06 3.76-1.06 2.3 0 3.68 1.1 1.38 1.09 1.53 3.12h-2.62q-0.12-0.99-0.84-1.52-0.69-0.53-1.77-0.53-1.12 0-1.78 0.44-0.66 0.43-0.66 1.15 0 0.78 0.64 1.14 0.66 0.35 2.31 0.71 0.98 0.21 1.6 0.4 0.63 0.17 1.35 0.51 0.73 0.32 1.13 0.72 0.42 0.4 0.68 1.06 0.28 0.64 0.28 1.49 0 2-1.45 3.14-1.46 1.13-3.8 1.13zm19.65-1.96q-1.78 1.96-4.73 1.96-2.94 0-4.74-1.96-1.77-1.99-1.77-5.07 0-3.08 1.77-5.06 1.8-1.99 4.74-1.99 2.95 0 4.73 1.99 1.78 1.98 1.78 5.06 0 3.08-1.78 5.07zm-7.48-1.63q0.98 1.34 2.77 1.34 1.8 0 2.75-1.32 0.94-1.34 0.94-3.46 0-2.12-0.94-3.46-0.95-1.34-2.75-1.34-1.79 0-2.77 1.34-0.97 1.34-0.97 3.46 0 2.1 0.97 3.44zm12.86 3.29v-13.51h9.67v2.32h-6.93v3.25h5.87v2.35h-5.87v5.59zm12.71-11.21v-2.3h10.87v2.3h-4.06v11.21h-2.75v-11.21z"/>
	<g>
		<path fill-rule="evenodd" class="s1" d="m97.26 146.28c-23.66 0-42.78-19.13-42.78-42.78 0-23.66 19.12-42.78 42.78-42.78 23.65 0 42.77 19.12 42.77 42.78 0 23.65-19.12 42.78-42.77 42.78z"/>
		<path fill-rule="evenodd" class="s2" d="m97.26 145.7c-23.34 0-42.21-18.86-42.21-42.2 0-23.34 18.87-42.21 42.21-42.21 23.34 0 42.2 18.87 42.2 42.21 0 23.34-18.86 42.2-42.2 42.2z"/>
	</g>
	<g>
		<path class="s1" d="m53.72 146.28c-1.21 0-2.36-0.48-3.22-1.34-5.6-5.6-9.93-12.12-12.88-19.39-1.42-3.5-2.51-7.15-3.23-10.86-0.71-3.68-1.07-7.44-1.07-11.19 0-3.75 0.36-7.51 1.07-11.19 0.72-3.71 1.81-7.36 3.23-10.86 2.95-7.27 7.28-13.8 12.88-19.39 0.86-0.86 2.01-1.34 3.22-1.34 1.22 0 2.37 0.48 3.23 1.34 0.86 0.86 1.34 2 1.34 3.22 0 1.22-0.48 2.37-1.34 3.23-9.33 9.33-14.47 21.76-14.47 34.99 0 13.23 5.14 25.66 14.47 34.99 1.78 1.78 1.78 4.67 0 6.45-0.86 0.86-2.01 1.34-3.23 1.34z"/>
		<path class="s2" d="m53.72 61.25c1.08 0 2.1 0.41 2.86 1.18 0.76 0.76 1.18 1.77 1.18 2.85 0 1.08-0.42 2.09-1.18 2.86-9.43 9.43-14.62 21.99-14.62 35.36 0 13.37 5.19 25.93 14.62 35.36 1.57 1.57 1.57 4.14 0 5.71-0.76 0.76-1.78 1.18-2.86 1.18-1.07 0-2.09-0.42-2.85-1.18-5.55-5.55-9.84-12.02-12.77-19.22-1.4-3.46-2.48-7.09-3.19-10.76-0.71-3.65-1.06-7.38-1.06-11.09 0-3.72 0.35-7.45 1.06-11.09 0.71-3.68 1.79-7.3 3.19-10.76 2.93-7.21 7.22-13.67 12.77-19.22 0.76-0.77 1.78-1.18 2.85-1.18z"/>
	</g>
	<g>
		<path class="s1" d="m42.68 159.65c-1.22 0-2.37-0.47-3.23-1.34-3.72-3.71-7.06-7.81-9.94-12.16-2.8-4.24-5.19-8.78-7.1-13.49-1.88-4.62-3.31-9.45-4.26-14.36-0.95-4.86-1.42-9.84-1.42-14.8 0-4.96 0.47-9.94 1.42-14.8 0.95-4.91 2.38-9.74 4.26-14.37 1.91-4.7 4.3-9.24 7.1-13.49 2.88-4.35 6.22-8.44 9.94-12.16 0.86-0.86 2.01-1.33 3.23-1.33 1.21 0 2.36 0.47 3.22 1.33 0.86 0.86 1.34 2.01 1.34 3.23 0 1.22-0.48 2.36-1.34 3.22-12.93 12.93-20.05 30.11-20.05 48.37 0 18.26 7.12 35.43 20.05 48.36 0.86 0.86 1.34 2.01 1.34 3.23 0 1.22-0.48 2.36-1.34 3.22-0.86 0.87-2.01 1.34-3.22 1.34z"/>
		<path class="s2" d="m42.68 47.87c1.08 0 2.09 0.42 2.85 1.18 0.76 0.77 1.18 1.78 1.18 2.86 0 1.08-0.42 2.09-1.18 2.85-13.03 13.03-20.2 30.34-20.2 48.74 0 18.4 7.17 35.71 20.2 48.73 0.76 0.77 1.18 1.78 1.18 2.86 0 1.08-0.42 2.09-1.18 2.85-0.76 0.77-1.78 1.19-2.85 1.19-1.08 0-2.1-0.42-2.86-1.19-3.69-3.69-7.02-7.76-9.87-12.08-2.78-4.21-5.16-8.72-7.06-13.39-1.86-4.59-3.28-9.4-4.23-14.27-0.93-4.83-1.41-9.78-1.41-14.7 0-4.93 0.48-9.87 1.41-14.7 0.95-4.88 2.37-9.68 4.23-14.27 1.9-4.67 4.28-9.18 7.06-13.4 2.85-4.32 6.18-8.38 9.87-12.08 0.76-0.76 1.78-1.18 2.86-1.18z"/>
	</g>
	<g>
		<path class="s1" d="m32.19 174.4c-1.22 0-2.36-0.48-3.22-1.34-4.73-4.72-8.97-9.91-12.62-15.43-3.55-5.39-6.59-11.15-9.01-17.12-2.38-5.87-4.2-12-5.41-18.23-1.19-6.17-1.8-12.49-1.8-18.78 0-6.29 0.61-12.61 1.8-18.78 1.21-6.23 3.03-12.37 5.41-18.23 2.42-5.98 5.46-11.74 9.01-17.12 3.65-5.52 7.89-10.71 12.62-15.43 0.86-0.87 2-1.34 3.22-1.34 1.22 0 2.37 0.47 3.23 1.34 0.86 0.86 1.33 2 1.33 3.22 0 1.22-0.47 2.37-1.33 3.23-34.8 34.8-34.8 91.42 0 126.22 1.78 1.78 1.78 4.67 0 6.45-0.86 0.86-2.01 1.34-3.23 1.34z"/>
		<path class="s2" d="m32.19 33.13c1.08 0 2.09 0.41 2.86 1.18 0.76 0.76 1.18 1.77 1.18 2.85 0 1.08-0.42 2.09-1.18 2.86-35.01 35-35.01 91.96 0 126.96 1.57 1.57 1.57 4.14 0 5.71-0.77 0.76-1.78 1.18-2.86 1.18-1.08 0-2.09-0.42-2.85-1.18-4.7-4.7-8.92-9.86-12.55-15.35-3.54-5.36-6.55-11.09-8.96-17.03-2.37-5.83-4.18-11.93-5.38-18.13-1.19-6.14-1.8-12.42-1.8-18.68 0-6.26 0.61-12.55 1.8-18.68 1.2-6.2 3.01-12.3 5.38-18.13 2.41-5.95 5.42-11.67 8.96-17.03 3.63-5.49 7.85-10.66 12.55-15.35 0.76-0.77 1.77-1.18 2.85-1.18z"/>
	</g>
	<g>
		<path class="s1" d="m140.8 146.28c-1.22 0-2.37-0.48-3.23-1.34-1.78-1.78-1.78-4.67 0-6.45 9.33-9.33 14.47-21.76 14.47-34.99 0-13.23-5.14-25.66-14.47-34.99-0.86-0.86-1.34-2.01-1.34-3.23 0-1.22 0.48-2.36 1.34-3.22 0.86-0.86 2.01-1.34 3.23-1.34 1.21 0 2.36 0.48 3.22 1.34 5.6 5.59 9.93 12.12 12.89 19.39 1.41 3.5 2.5 7.15 3.22 10.86 0.71 3.68 1.07 7.44 1.07 11.19 0 3.75-0.36 7.51-1.07 11.19-0.72 3.71-1.81 7.36-3.22 10.86-2.96 7.27-7.29 13.79-12.89 19.39-0.86 0.86-2.01 1.34-3.22 1.34z"/>
		<path class="s2" d="m140.8 61.25c1.08 0 2.09 0.41 2.85 1.18 5.55 5.55 9.84 12.01 12.77 19.22 1.4 3.46 2.48 7.08 3.19 10.76 0.71 3.64 1.07 7.37 1.07 11.09 0 3.71-0.36 7.44-1.07 11.09-0.71 3.67-1.79 7.3-3.19 10.76-2.93 7.2-7.22 13.67-12.77 19.22-0.76 0.76-1.77 1.18-2.85 1.18-1.08 0-2.09-0.42-2.86-1.18-1.57-1.58-1.57-4.14 0-5.71 9.43-9.43 14.62-21.99 14.62-35.36 0-13.37-5.19-25.93-14.62-35.36-0.76-0.77-1.18-1.78-1.18-2.86 0-1.08 0.42-2.09 1.18-2.85 0.77-0.77 1.78-1.18 2.86-1.18z"/>
	</g>
	<g>
		<path class="s1" d="m151.84 159.65c-1.22 0-2.36-0.47-3.22-1.34-0.86-0.86-1.34-2-1.34-3.22 0-1.22 0.48-2.37 1.34-3.23 12.93-12.93 20.05-30.1 20.05-48.36 0-18.26-7.12-35.44-20.05-48.37-0.86-0.86-1.34-2-1.34-3.22 0-1.22 0.48-2.37 1.34-3.23 0.86-0.86 2-1.33 3.22-1.33 1.22 0 2.37 0.47 3.23 1.33 3.72 3.72 7.06 7.81 9.94 12.16 2.8 4.25 5.19 8.79 7.1 13.49 1.88 4.63 3.31 9.46 4.26 14.37 0.94 4.86 1.42 9.84 1.42 14.8 0 4.96-0.48 9.94-1.42 14.8-0.95 4.91-2.38 9.74-4.26 14.36-1.91 4.71-4.3 9.25-7.1 13.49-2.88 4.35-6.22 8.45-9.94 12.16-0.86 0.87-2.01 1.34-3.23 1.34z"/>
		<path class="s2" d="m151.84 47.87c1.08 0 2.09 0.42 2.86 1.18 3.69 3.7 7.02 7.76 9.87 12.08 2.78 4.22 5.16 8.73 7.05 13.4 1.87 4.59 3.29 9.39 4.24 14.27 0.93 4.83 1.41 9.77 1.41 14.7 0 4.92-0.48 9.87-1.41 14.7-0.95 4.87-2.37 9.68-4.24 14.27-1.89 4.67-4.27 9.18-7.05 13.39-2.85 4.32-6.18 8.39-9.87 12.08-0.77 0.77-1.78 1.19-2.86 1.19-1.08 0-2.09-0.42-2.85-1.19-0.77-0.76-1.18-1.77-1.18-2.85 0-1.08 0.41-2.09 1.18-2.86 13.03-13.02 20.2-30.33 20.2-48.73 0-18.4-7.17-35.71-20.2-48.74-0.77-0.76-1.18-1.77-1.18-2.85 0-1.08 0.41-2.09 1.18-2.86 0.76-0.76 1.77-1.18 2.85-1.18z"/>
	</g>
	<g>
		<path class="s1" d="m162.33 174.4c-1.22 0-2.37-0.48-3.23-1.34-1.78-1.78-1.78-4.67 0-6.45 34.8-34.8 34.8-91.42 0-126.22-1.78-1.78-1.78-4.68 0-6.45 0.86-0.87 2.01-1.34 3.23-1.34 1.21 0 2.36 0.47 3.22 1.34 4.72 4.72 8.97 9.91 12.61 15.43 3.56 5.38 6.59 11.14 9.02 17.12 2.38 5.86 4.2 12 5.41 18.23 1.19 6.17 1.8 12.49 1.8 18.78 0 6.29-0.61 12.61-1.8 18.78-1.21 6.23-3.03 12.36-5.41 18.23-2.43 5.97-5.46 11.73-9.02 17.12-3.64 5.52-7.89 10.71-12.61 15.43-0.86 0.86-2.01 1.34-3.22 1.34z"/>
		<path class="s2" d="m162.33 33.13c1.07 0 2.09 0.41 2.85 1.18 4.7 4.69 8.92 9.86 12.55 15.35 3.53 5.36 6.55 11.08 8.96 17.03 2.37 5.83 4.18 11.93 5.38 18.13 1.19 6.13 1.79 12.42 1.79 18.68 0 6.26-0.6 12.54-1.79 18.68-1.2 6.2-3.01 12.3-5.38 18.13-2.41 5.94-5.43 11.67-8.96 17.03-3.63 5.49-7.85 10.65-12.55 15.35-0.76 0.76-1.78 1.18-2.85 1.18-1.08 0-2.1-0.42-2.86-1.18-1.57-1.57-1.57-4.14 0-5.71 35-35 35-91.96 0-126.96-1.57-1.58-1.57-4.14 0-5.71 0.76-0.77 1.78-1.19 2.86-1.19z"/>
	</g>
	<path fill-rule="evenodd" class="s0" d="m72.88 103.73h48.76c0.66 0 1.19-0.54 1.19-1.18v-1.1c0-0.66-0.53-1.2-1.19-1.2h-48.76c-0.66 0-1.19 0.54-1.19 1.2v1.1c0 0.64 0.53 1.18 1.19 1.18z"/>
	<path fill-rule="evenodd" class="s0" d="m72.88 103.73h48.76c0.66 0 1.19-0.54 1.19-1.18h-51.14c0 0.64 0.53 1.18 1.19 1.18z"/>
	<path class="s0" d="m108.35 100.25h-22.16v3.48h22.16z"/>
	<g>
		<path class="s0" d="m97.27 94.62c2.78 0 5.31 1.13 7.14 2.97 1.82 1.82 2.96 4.35 2.96 7.13v2.56c0 0.44-0.36 0.8-0.81 0.8h-18.59c-0.44 0-0.81-0.36-0.81-0.8v-2.56c0-2.78 1.14-5.31 2.97-7.13 1.82-1.84 4.36-2.97 7.14-2.97z"/>
	</g>
	<g>
		<path class="s0" d="m107.37 106.18v1.1c0 0.45-0.36 0.81-0.81 0.81h-18.59c-0.44 0-0.81-0.36-0.81-0.81v-1.1z"/>
	</g>
	<path class="s0" d="m100.47 95.14c1.5 0.51 2.85 1.35 3.94 2.45 1.79 1.77 2.91 4.22 2.96 6.92h-0.02-3.49c-1.86 0-3.39-1.53-3.39-3.4zm-13.31 9.36c0.05-2.7 1.19-5.14 2.97-6.92 1.1-1.1 2.43-1.94 3.93-2.44v5.96c0 1.87-1.53 3.4-3.39 3.4h-3.49z"/>
	<path fill-rule="evenodd" class="s0" d="m88.31 108.09h17.9v0.19c0 1.07-0.87 1.94-1.92 1.94h-14.04c-1.06 0-1.94-0.87-1.94-1.94z"/>
	<path fill-rule="evenodd" class="s0" d="m102.8 110.22c-0.19 0.84-0.97 1.48-1.87 1.48h-7.34c-0.9 0-1.68-0.64-1.87-1.48z"/>
	<path fill-rule="evenodd" class="s0" d="m94.16 111.7h6.19v2.96c0 1.7-1.38 3.1-3.09 3.1-1.7 0-3.1-1.4-3.1-3.1z"/>
	<path fill-rule="evenodd" class="s0" d="m97.26 113.05c0.87 0 1.56 0.7 1.56 1.58 0 0.85-0.69 1.56-1.56 1.56-0.86 0-1.57-0.71-1.57-1.56 0-0.88 0.71-1.58 1.57-1.58z"/>
	<path fill-rule="evenodd" class="s3" d="m97.26 113.95c0.36 0 0.66 0.3 0.66 0.67 0 0.37-0.3 0.66-0.66 0.66-0.36 0-0.66-0.29-0.66-0.66 0-0.37 0.3-0.67 0.66-0.67z"/>
	<path fill-rule="evenodd" class="s0" d="m97.7 113.77c0.23 0 0.43 0.2 0.43 0.43 0 0.23-0.2 0.41-0.43 0.41-0.23 0-0.41-0.18-0.41-0.41 0-0.23 0.18-0.43 0.41-0.43z"/>
	<path fill-rule="evenodd" class="s0" d="m79.21 118.29c-0.12 0.39 0.11 0.74 0.53 0.74 0.41 0 0.84-0.35 0.95-0.74l4.08-14.56h-1.48zm32.02-14.55h-1.48l4.09 14.55c0.12 0.4 0.53 0.74 0.94 0.74 0.41 0 0.66-0.34 0.55-0.74z"/>
	<path fill-rule="evenodd" class="s0" d="m74.57 94.27c0.46 0 0.83 0.36 0.83 0.82v5.16h-1.65v-5.16c0-0.46 0.38-0.82 0.82-0.82z"/>
	<path fill-rule="evenodd" class="s0" d="m63.42 95.6h10.33v0.77h-3.22c-0.27 0.45-0.74 0.74-1.3 0.74h-4.3c-0.84 0-1.51-0.67-1.51-1.51zm20.8 1.51h-4.3c-0.54 0-1.04-0.29-1.3-0.74h-3.22v-0.77h10.33c0 0.84-0.68 1.51-1.51 1.51z"/>
	<path fill-rule="evenodd" class="s0" d="m119.94 94.27c0.46 0 0.83 0.36 0.83 0.82v5.16h-1.65v-5.16c0-0.46 0.36-0.82 0.82-0.82z"/>
	<path fill-rule="evenodd" class="s0" d="m110.31 97.11h4.29c0.56 0 1.04-0.29 1.3-0.74h3.22v-0.77h-10.33c0 0.84 0.68 1.51 1.52 1.51zm20.79-1.51h-10.33v0.77h3.23c0.26 0.45 0.74 0.74 1.29 0.74h4.3c0.84 0 1.51-0.67 1.51-1.51z"/>
	<path class="s4" d="m126.2 126.77c0.29 0.25 0.45 0.59 0.45 0.95 0 0.36-0.16 0.7-0.45 0.95-0.29 0.26-0.69 0.4-1.1 0.4-0.41 0-0.8-0.14-1.09-0.4l-26.76-23.27-26.75 23.27c-0.29 0.26-0.68 0.4-1.09 0.4-0.41 0-0.81-0.14-1.1-0.4-0.29-0.25-0.45-0.59-0.45-0.95 0-0.36 0.16-0.7 0.45-0.95l26.76-23.27-26.76-23.27c-0.29-0.26-0.45-0.6-0.45-0.96 0-0.35 0.16-0.7 0.45-0.95 0.29-0.25 0.69-0.39 1.1-0.39 0.41 0 0.8 0.14 1.09 0.39l26.75 23.27 26.76-23.27q0.22-0.19 0.5-0.29 0.28-0.1 0.59-0.1 0.31 0 0.59 0.1 0.29 0.1 0.51 0.29 0.21 0.19 0.33 0.44 0.12 0.25 0.12 0.51 0 0.27-0.12 0.52-0.12 0.25-0.33 0.44l-26.76 23.27z"/>
	<path class="s0" d="m48.06 203l-0.44-1.58h-0.03q-1.31 1.83-3.75 1.83-2.52 0-4.08-1.73-1.57-1.73-1.57-4.49 0-2.75 1.52-4.52 1.53-1.78 4.26-1.78 2.05 0 3.31 1.05 1.28 1.02 1.58 2.82h-1.56q-0.25-1.23-1.11-1.88-0.86-0.68-2.25-0.68-2.08 0-3.14 1.38-1.06 1.38-1.06 3.61 0 2.2 1.16 3.57 1.16 1.34 2.99 1.34 1.76 0 2.69-1.04 0.94-1.04 0.94-2.66v-0.28h-3.61v-1.31h5.12v6.35zm6.57 0.23q-1.93 0-3.07-1.29-1.13-1.31-1.13-3.28 0-1.93 1.14-3.24 1.16-1.33 2.98-1.33 1.91 0 2.96 1.35 1.04 1.32 1.04 3.54h-6.72q0.08 1.38 0.8 2.25 0.74 0.86 2 0.86 1.95 0 2.41-1.78h1.32q-0.3 1.39-1.27 2.17-0.98 0.75-2.46 0.75zm1.73-7.32q-0.65-0.74-1.81-0.74-1.16 0-1.85 0.77-0.67 0.77-0.84 2.02h5.23q-0.07-1.31-0.73-2.05zm10.27 6.01q-1.14 1.31-3.04 1.31-1.9 0-3.06-1.31-1.14-1.31-1.14-3.26 0-1.95 1.14-3.26 1.16-1.31 3.06-1.31 1.9 0 3.04 1.31 1.14 1.31 1.14 3.26 0 1.95-1.14 3.26zm-5.12-0.79q0.74 0.96 2.08 0.96 1.34 0 2.07-0.96 0.72-0.97 0.72-2.47 0-1.51-0.74-2.47-0.72-0.97-2.05-0.97-1.34 0-2.08 0.97-0.73 0.98-0.73 2.47 0 1.5 0.73 2.47zm10.5 1.87v-12.01h8.14v1.32h-6.63v3.75h5.53v1.28h-5.53v5.66zm12.47 0.23q-1.93 0-3.08-1.29-1.12-1.31-1.12-3.28 0-1.93 1.14-3.24 1.16-1.33 2.97-1.33 1.92 0 2.96 1.35 1.04 1.32 1.04 3.54h-6.72q0.09 1.38 0.81 2.25 0.74 0.86 2 0.86 1.95 0 2.4-1.78h1.33q-0.31 1.39-1.28 2.17-0.97 0.75-2.45 0.75zm1.73-7.32q-0.66-0.74-1.82-0.74-1.16 0-1.84 0.77-0.68 0.77-0.84 2.02h5.22q-0.07-1.31-0.72-2.05zm4.87-1.6v1.15h0.04q1.01-1.35 2.75-1.35 1.38 0 2.15 0.72 0.78 0.73 0.78 2.07v6.1h-1.37v-5.98q0-0.84-0.52-1.3-0.52-0.47-1.44-0.47-1.04 0-1.71 0.68-0.68 0.67-0.68 1.73v5.34h-1.36v-8.69zm11.23 8.92q-1.9 0-3.06-1.31-1.14-1.31-1.14-3.26 0-1.95 1.14-3.26 1.16-1.31 3.06-1.31 1.53 0 2.5 0.83 0.98 0.8 1.21 2.2h-1.37q-0.16-0.89-0.76-1.4-0.61-0.5-1.58-0.5-1.34 0-2.08 0.97-0.73 0.98-0.73 2.47 0 1.5 0.73 2.47 0.74 0.96 2.08 0.96 1.04 0 1.66-0.55 0.62-0.57 0.71-1.6h1.34q-0.13 1.56-1.11 2.44-0.97 0.85-2.6 0.85zm5-0.23v-8.69h1.36v8.69zm0-10.33v-1.68h1.36v1.68zm4.58 1.64v1.15h0.03q1.01-1.35 2.75-1.35 1.38 0 2.15 0.72 0.78 0.73 0.78 2.07v6.1h-1.36v-5.98q0-0.84-0.52-1.3-0.53-0.47-1.45-0.47-1.04 0-1.71 0.68-0.67 0.67-0.67 1.73v5.34h-1.37v-8.69zm10.98 11.58q-1.66 0-2.62-0.64-0.94-0.62-1.06-1.76h1.26q0.19 1.32 2.39 1.32 2.48 0 2.48-2.23v-1.23h-0.03q-0.52 0.67-1.11 1.01-0.59 0.34-1.46 0.34-1.68 0-2.74-1.21-1.06-1.21-1.06-3.09 0-1.97 1.06-3.13 1.08-1.16 2.66-1.16 1.71 0 2.65 1.31h0.03v-1.11h1.36v8.22q0 1.66-1.02 2.5-1.01 0.86-2.79 0.86zm-0.08-4.34q2.63 0 2.63-3.22 0-3.08-2.65-3.08-1.19 0-1.83 0.86-0.62 0.86-0.62 2.3 0 1.45 0.64 2.3 0.63 0.84 1.83 0.84zm15.24 1.53q-1.3 0-1.5-1.29h-0.02q-1.07 1.38-2.89 1.38-1.29 0-2.11-0.63-0.83-0.62-0.83-1.79 0-0.61 0.19-1.04 0.2-0.46 0.5-0.73 0.31-0.28 0.83-0.48 0.53-0.22 1.02-0.32 0.49-0.12 1.24-0.24 0.49-0.07 0.69-0.1 0.22-0.05 0.56-0.13 0.33-0.1 0.47-0.22 0.13-0.12 0.25-0.32 0.12-0.2 0.12-0.47 0-0.74-0.52-1.13-0.51-0.4-1.43-0.4-2.1 0-2.17 1.91h-1.31q0.04-1.32 0.91-2.13 0.89-0.81 2.55-0.81 3.21 0 3.21 2.76v4.13q0 0.57 0.19 0.81 0.2 0.23 0.74 0.12h0.05v0.99q-0.34 0.13-0.74 0.13zm-4.1-0.96q1.26 0 1.95-0.72 0.68-0.74 0.68-1.61v-1.48q-0.62 0.39-1.98 0.64-0.5 0.1-0.79 0.17-0.28 0.05-0.65 0.2-0.37 0.13-0.56 0.3-0.18 0.17-0.32 0.45-0.13 0.27-0.13 0.64 0 1.41 1.8 1.41zm7.2-7.81v1.15h0.03q1.01-1.35 2.76-1.35 1.38 0 2.15 0.72 0.77 0.73 0.77 2.07v6.1h-1.36v-5.98q0-0.84-0.52-1.3-0.52-0.47-1.44-0.47-1.05 0-1.72 0.68-0.67 0.67-0.67 1.73v5.34h-1.36v-8.69zm10.87 8.94q-1.78 0-2.82-1.23-1.02-1.24-1.02-3.34 0-2.12 1.07-3.34 1.08-1.23 2.74-1.23 1.76 0 2.72 1.43h0.04v-4.55h1.36v12.01h-1.36v-1.06h-0.04q-1.02 1.31-2.69 1.31zm0.05-1.14q1.4 0 2.07-0.93 0.69-0.92 0.69-2.48 0-1.55-0.74-2.49-0.72-0.94-2.03-0.94-1.2 0-1.85 0.96-0.64 0.94-0.64 2.47 0 1.53 0.64 2.47 0.65 0.94 1.86 0.94zm-101.71 22.89v-12.01h5.61q1.58 0 2.56 0.9 0.99 0.91 0.99 2.39 0 2.3-2.08 2.97v0.05q0.89 0.32 1.26 1.01 0.38 0.67 0.47 2.05 0.16 2.3 0.55 2.57v0.07h-1.63q-0.18-0.15-0.27-0.64-0.07-0.49-0.17-2.05-0.08-1.31-0.65-1.85-0.56-0.54-1.78-0.54h-3.35v5.08zm1.52-10.7v4.4h3.56q1.24 0 1.88-0.57 0.64-0.59 0.64-1.63 0-1.13-0.57-1.67-0.57-0.53-1.87-0.53zm9.48 10.7v-12.01h8.15v1.32h-6.64v3.75h5.53v1.28h-5.53v5.66zm12.39 0v-12.01h4.37q2.64 0 3.98 1.63 1.34 1.63 1.34 4.41 0 2.78-1.39 4.37-1.39 1.6-4.05 1.6zm1.51-1.33h2.69q3.95 0 3.95-4.64 0-4.73-3.83-4.73h-2.81zm9.77 1.32v-8.68h1.37v8.68zm0-10.33v-1.68h1.36v1.68zm6.51 10.59q-1.79 0-2.78-0.79-0.97-0.81-1.07-2.29h1.39q0.24 1.93 2.49 1.93 1.02 0 1.51-0.38 0.5-0.41 0.5-1.04 0-0.69-0.48-1-0.49-0.3-1.78-0.57-0.54-0.12-0.86-0.18-0.3-0.09-0.74-0.22-0.44-0.15-0.69-0.32-0.23-0.18-0.49-0.44-0.25-0.25-0.36-0.62-0.11-0.37-0.11-0.82 0-1.11 0.81-1.75 0.82-0.64 2.32-0.64 3.09 0 3.41 2.72h-1.39q-0.11-0.85-0.59-1.24-0.49-0.4-1.46-0.4-0.9 0-1.33 0.35-0.42 0.34-0.42 0.89 0 0.64 0.5 0.91 0.51 0.25 1.83 0.52 0.81 0.17 1.26 0.32 0.47 0.13 0.98 0.43 0.5 0.29 0.74 0.78 0.23 0.49 0.23 1.21 0 1.27-0.94 1.96-0.94 0.68-2.48 0.68zm6.09-8.94v1.44h0.03q0.42-0.69 1.09-1.11 0.67-0.43 1.5-0.43 0.3 0 0.55 0.1v1.31h-0.05q-0.25-0.09-0.6-0.09-1.05 0-1.79 0.74-0.73 0.73-0.73 1.9v4.82h-1.37v-8.68zm11.29 8.68h-1.36v-1.19h-0.03q-1.03 1.39-2.62 1.39-1.35 0-2.14-0.75-0.79-0.77-0.79-2.12v-6.01h1.36v5.98q0 0.84 0.51 1.31 0.52 0.47 1.44 0.47 1.03 0 1.65-0.69 0.62-0.69 0.62-1.73v-5.34h1.36zm1.84 2.79v-11.48h1.36v1.23h0.04q1.05-1.43 2.78-1.43 1.68 0 2.71 1.23 1.02 1.21 1.02 3.34 0 2.1-1 3.34-1.01 1.23-2.78 1.23-1.74 0-2.73-1.28h-0.04v3.82zm4.03-3.68q1.21 0 1.85-0.94 0.64-0.94 0.64-2.47 0-1.53-0.64-2.47-0.64-0.96-1.83-0.96-1.36 0-2.07 0.97-0.7 0.96-0.7 2.46 0 1.53 0.67 2.47 0.67 0.94 2.08 0.94zm4.44-6.69v-1.11h1.26v-2.74h1.36v2.74h1.68v1.11h-1.68v5.65q0 0.8 0.88 0.8 0.36 0 0.72-0.12h0.05v1.18q-0.56 0.12-1.09 0.12-1.92 0-1.92-1.68v-5.95zm5.71 7.58v-8.69h1.36v8.69zm0-10.33v-1.68h1.36v1.68zm9.97 9.25q-1.14 1.31-3.04 1.31-1.9 0-3.06-1.31-1.14-1.31-1.14-3.26 0-1.95 1.14-3.26 1.16-1.31 3.06-1.31 1.9 0 3.04 1.31 1.14 1.31 1.14 3.26 0 1.95-1.14 3.26zm-5.13-0.79q0.74 0.96 2.09 0.96 1.34 0 2.06-0.96 0.73-0.97 0.73-2.47 0-1.51-0.74-2.47-0.73-0.97-2.05-0.97-1.35 0-2.09 0.97-0.72 0.98-0.72 2.47 0 1.5 0.72 2.47zm8.99-6.82v1.14h0.03q1.01-1.34 2.76-1.34 1.37 0 2.15 0.72 0.77 0.73 0.77 2.07v6.1h-1.36v-5.98q0-0.84-0.52-1.3-0.52-0.47-1.45-0.47-1.04 0-1.71 0.67-0.67 0.68-0.67 1.74v5.34h-1.36v-8.69z"/>
	<path class="s0" d="m285.03 14.44q-2.85 0-4.69-1.96-1.81-1.99-1.81-5.03 0-3.06 1.78-5.06 1.77-2.01 4.7-2.01 2.42 0 3.88 1.29 1.47 1.26 1.7 3.27h-2.72q-0.19-1.04-0.95-1.65-0.74-0.6-1.91-0.6-1.79 0-2.74 1.32-0.94 1.32-0.94 3.44 0 2.1 1 3.42 1.02 1.32 2.7 1.32 1.19 0 1.99-0.64 0.79-0.66 0.92-1.74h2.68q-0.11 1.91-1.49 3.2-1.53 1.43-4.1 1.43zm7.75-0.28l4.71-13.51h2.83l4.77 13.51h-2.86l-0.9-2.87h-4.88l-0.89 2.87zm5.52-8.86l-1.21 3.89h3.57l-1.21-3.89-0.54-2.08h-0.04q-0.34 1.36-0.57 2.08zm10.02 8.86v-13.51h5.94q2.3 0 3.53 1.26 1.21 1.25 1.21 3.08 0 1.93-1.21 3.1-1.21 1.18-3.31 1.18h-3.32v4.89zm2.83-11.13v4h2.84q1.06 0 1.62-0.52 0.57-0.55 0.57-1.5 0-0.94-0.57-1.45-0.56-0.53-1.58-0.53zm10.59-0.08v-2.3h10.87v2.3h-4.06v11.21h-2.74v-11.21zm19.57 11.44q-2.61 0-3.97-1.17-1.36-1.2-1.36-3.41v-9.16h2.74v9.16q0 2.38 2.53 2.38 1.27 0 1.91-0.66 0.64-0.66 0.64-1.75v-9.13h2.74v9.16q0 2.2-1.34 3.39-1.32 1.19-3.89 1.19zm9.3-0.23v-13.51h6.2q1.95 0 3.14 1.04 1.21 1.04 1.21 2.72 0 2.59-2.48 3.27v0.05q0.97 0.29 1.44 0.91 0.49 0.61 0.62 1.82 0.04 0.45 0.08 1.07 0.06 0.61 0.08 0.97 0.03 0.36 0.07 0.72 0.06 0.35 0.13 0.56 0.1 0.19 0.23 0.25v0.13h-2.63q-0.07-0.04-0.13-0.13-0.06-0.12-0.09-0.3-0.04-0.19-0.08-0.38-0.02-0.21-0.06-0.51-0.02-0.32-0.03-0.55-0.02-0.25-0.06-0.62-0.02-0.4-0.04-0.63-0.17-2.3-2.64-2.3h-2.22v5.42zm2.75-11.3v3.76h2.91q1.07 0 1.64-0.51 0.59-0.51 0.59-1.34 0-0.85-0.55-1.38-0.55-0.53-1.61-0.53zm11.67 11.3v-13.51h9.94v2.3h-7.2v3.03h6.31v2.25h-6.31v3.64h7.26v2.29z"/>
	<g id="Clip-Path" clip-path="url(#cp1)">
		<g>
			<g>
				<path fill-rule="evenodd" class="s1" d="m326.89 174.24c-39.12 0-70.74-31.62-70.74-70.74 0-39.12 31.62-70.74 70.74-70.74 39.12 0 70.74 31.62 70.74 70.74 0 39.12-31.62 70.74-70.74 70.74z"/>
				<path fill-rule="evenodd" class="s5" d="m326.89 173.63c-38.78 0-70.13-31.35-70.13-70.13 0-38.79 31.35-70.14 70.13-70.14 38.79 0 70.14 31.35 70.14 70.14 0 38.78-31.35 70.13-70.14 70.13z"/>
			</g>
			<path fill-rule="evenodd" class="s0" d="m286.57 103.88h80.64c1.09 0 1.96-0.89 1.96-1.95v-1.82c0-1.09-0.87-1.98-1.96-1.98h-80.64c-1.09 0-1.96 0.89-1.96 1.98v1.82c0 1.06 0.87 1.95 1.96 1.95z"/>
			<path fill-rule="evenodd" class="s0" d="m286.57 103.89h80.64c1.09 0 1.96-0.9 1.96-1.96h-84.56c0 1.06 0.87 1.96 1.96 1.96z"/>
			<path class="s0" d="m345.24 98.13h-36.65v5.75h36.65z"/>
			<g>
				<path class="s0" d="m326.9 88.81c4.6 0 8.79 1.87 11.81 4.92 3.02 3.01 4.9 7.2 4.9 11.79v4.23c0 0.74-0.6 1.33-1.33 1.33h-30.75c-0.73 0-1.33-0.59-1.33-1.33v-4.23c0-4.59 1.88-8.78 4.9-11.79 3.02-3.05 7.21-4.92 11.8-4.92z"/>
			</g>
			<g>
				<path class="s0" d="m343.61 107.94v1.81c0 0.74-0.6 1.34-1.33 1.34h-30.75c-0.73 0-1.33-0.6-1.33-1.34v-1.81z"/>
			</g>
			<path class="s0" d="m332.21 89.68c2.48 0.84 4.71 2.23 6.5 4.05 2.97 2.93 4.82 6.98 4.9 11.43h-0.03-5.76c-3.08 0-5.61-2.52-5.61-5.62zm-22.01 15.49c0.08-4.46 1.96-8.51 4.9-11.44 1.82-1.82 4.02-3.21 6.5-4.05v9.86c0 3.1-2.53 5.63-5.6 5.63h-5.77z"/>
			<path fill-rule="evenodd" class="s0" d="m312.1 111.09h29.6v0.32c0 1.77-1.44 3.21-3.18 3.21h-23.21c-1.77 0-3.21-1.44-3.21-3.21z"/>
			<path fill-rule="evenodd" class="s0" d="m336.06 114.61c-0.32 1.39-1.6 2.45-3.1 2.45h-12.13c-1.5 0-2.78-1.06-3.1-2.45z"/>
			<path fill-rule="evenodd" class="s0" d="m321.77 117.06h10.23v4.89c0 2.82-2.28 5.13-5.11 5.13-2.8 0-5.12-2.31-5.12-5.13z"/>
			<path fill-rule="evenodd" class="s0" d="m326.89 119.29c1.44 0 2.58 1.17 2.58 2.61 0 1.41-1.14 2.58-2.58 2.58-1.41 0-2.58-1.17-2.58-2.58 0-1.44 1.17-2.61 2.58-2.61z"/>
			<path fill-rule="evenodd" class="s3" d="m326.89 120.78c0.6 0 1.09 0.49 1.09 1.11 0 0.6-0.49 1.09-1.09 1.09-0.6 0-1.09-0.49-1.09-1.09 0-0.62 0.49-1.11 1.09-1.11z"/>
			<path fill-rule="evenodd" class="s0" d="m327.63 120.48c0.38 0 0.71 0.33 0.71 0.71 0 0.38-0.33 0.68-0.71 0.68-0.38 0-0.68-0.3-0.68-0.68 0-0.38 0.3-0.71 0.68-0.71z"/>
			<path fill-rule="evenodd" class="s0" d="m297.05 127.96c-0.19 0.65 0.19 1.22 0.87 1.22 0.68 0 1.38-0.57 1.57-1.22l6.75-24.07h-2.45zm52.95-24.07h-2.45l6.78 24.07c0.19 0.65 0.87 1.22 1.55 1.22 0.68 0 1.08-0.57 0.89-1.22z"/>
			<path fill-rule="evenodd" class="s0" d="m289.38 88.24c0.76 0 1.36 0.6 1.36 1.36v8.53h-2.72v-8.53c0-0.76 0.62-1.36 1.36-1.36z"/>
			<path fill-rule="evenodd" class="s0" d="m270.93 90.44h17.09v1.28h-5.33c-0.44 0.73-1.23 1.22-2.15 1.22h-7.1c-1.39 0-2.51-1.12-2.51-2.5zm34.39 2.5h-7.1c-0.9 0-1.71-0.49-2.15-1.22h-5.33v-1.28h17.09c0 1.38-1.12 2.5-2.51 2.5z"/>
			<path fill-rule="evenodd" class="s0" d="m364.41 88.24c0.76 0 1.36 0.6 1.36 1.36v8.53h-2.72v-8.53c0-0.76 0.59-1.36 1.36-1.36z"/>
			<path fill-rule="evenodd" class="s0" d="m348.47 92.94h7.1c0.92 0 1.71-0.49 2.15-1.22h5.33v-1.28h-17.09c0 1.38 1.12 2.5 2.51 2.5zm34.39-2.5h-17.09v1.28h5.33c0.44 0.73 1.23 1.22 2.15 1.22h7.11c1.38 0 2.5-1.12 2.5-2.5z"/>
			<path class="s6" d="m473.13 119.37l-8.74-12.37 13.03-9.2c0.1-0.08 0.13-0.22 0.06-0.33-0.08-0.1-0.23-0.13-0.33-0.05l-13.03 9.2-10.21-14.47 13.03-9.19c0.11-0.08 0.13-0.23 0.06-0.33-0.08-0.11-0.22-0.13-0.33-0.06q0 0 0 0l-13.03 9.2-10.19-14.45 13.02-9.19c0.11-0.08 0.13-0.22 0.06-0.33-0.07-0.11-0.21-0.13-0.32-0.07q-0.01 0.01-0.01 0.01l-13.03 9.2-10.19-14.45 13.02-9.19c0.11-0.08 0.14-0.22 0.06-0.33-0.07-0.11-0.21-0.14-0.31-0.07q-0.01 0-0.02 0.01l-13.03 9.2-10.19-14.42 13.02-9.2c0.1-0.08 0.13-0.22 0.06-0.33-0.08-0.11-0.23-0.13-0.33-0.05l-13.03 9.19-10.18-14.45 13.03-9.19c0.1-0.08 0.13-0.23 0.05-0.33-0.08-0.11-0.22-0.13-0.33-0.06l-13.02 9.2-10.2-14.45 13.03-9.19c0.11-0.07 0.13-0.22 0.06-0.33q0 0 0 0c-0.07-0.11-0.22-0.14-0.32-0.07q0 0.01-0.01 0.01l-13.02 9.18-10.2-14.44 13.03-9.2c0.11-0.08 0.13-0.22 0.06-0.33q0 0 0 0c-0.07-0.11-0.2-0.14-0.31-0.08q-0.01 0.01-0.02 0.02l-13.03 9.2-10.2-14.44 13.03-9.2c0.11-0.08 0.13-0.22 0.06-0.33-0.06-0.11-0.2-0.14-0.31-0.08q-0.01 0.01-0.02 0.02l-13.03 9.2-10.19-14.45 13.02-9.19c0.11-0.08 0.13-0.23 0.06-0.33-0.08-0.11-0.22-0.13-0.33-0.06q0 0 0 0l-13.03 9.19-6.8-9.63c-0.07-0.11-0.21-0.14-0.31-0.07q-0.01 0-0.02 0.01c-0.11 0.08-0.14 0.22-0.06 0.33q0 0 0 0l6.81 9.64-15.86 11.2-6.81-9.64c-0.07-0.11-0.21-0.14-0.31-0.07q-0.01 0-0.02 0.01c-0.11 0.08-0.13 0.22-0.06 0.33l6.81 9.64-15.86 11.19-6.81-9.64c-0.06-0.1-0.2-0.13-0.3-0.07q-0.02 0.01-0.03 0.02c-0.1 0.07-0.13 0.22-0.06 0.33q0 0 0.01 0l6.8 9.64-15.86 11.2-6.8-9.64c-0.07-0.11-0.21-0.14-0.32-0.07q-0.01 0-0.01 0.01c-0.11 0.07-0.14 0.22-0.06 0.33l6.8 9.64-15.86 11.19-6.83-9.64c-0.08-0.11-0.22-0.13-0.33-0.06-0.11 0.08-0.13 0.23-0.06 0.33l6.81 9.64-15.87 11.2-6.8-9.62c-0.06-0.1-0.19-0.14-0.29-0.08q-0.02 0.01-0.03 0.02c-0.11 0.08-0.14 0.23-0.06 0.33l6.8 9.64-15.85 11.19-6.81-9.65c-0.08-0.1-0.23-0.13-0.33-0.05-0.11 0.08-0.13 0.23-0.06 0.33l6.81 9.64-15.86 11.2-6.81-9.64c-0.08-0.11-0.22-0.13-0.33-0.06-0.11 0.08-0.13 0.23-0.05 0.33l6.8 9.64-15.86 11.2-6.8-9.64c-0.07-0.11-0.22-0.14-0.32-0.07q-0.01 0.01-0.02 0.01c-0.1 0.08-0.13 0.23-0.05 0.33l6.8 9.64-15.86 11.21-6.81-9.64c-0.07-0.11-0.22-0.13-0.33-0.05-0.1 0.07-0.13 0.22-0.05 0.33l6.8 9.64-15.85 11.19-6.8-9.65c-0.08-0.11-0.23-0.13-0.34-0.05-0.1 0.07-0.13 0.22-0.05 0.33l6.8 9.64-30.65 21.61c-0.11 0.08-0.14 0.22-0.06 0.33 0.08 0.11 0.22 0.13 0.33 0.05l30.65-21.61 10.2 14.45-30.65 21.61c-0.11 0.07-0.14 0.22-0.06 0.33q0 0 0 0c0.08 0.11 0.22 0.14 0.33 0.06q0 0 0 0l30.66-21.61 10.19 14.44-30.66 21.61c-0.1 0.08-0.13 0.23-0.05 0.33 0.07 0.11 0.22 0.13 0.32 0.06q0.01 0 0.01 0l30.65-21.61 10.2 14.44-30.66 21.61c-0.1 0.07-0.13 0.22-0.06 0.32q0 0.01 0.01 0.01c0.07 0.1 0.22 0.12 0.32 0.05l30.66-21.61 10.19 14.44-30.62 21.65c-0.11 0.08-0.13 0.23-0.06 0.33 0.07 0.11 0.22 0.13 0.32 0.06q0.01 0 0.01 0l30.64-21.64 10.2 14.45-30.66 21.61c-0.11 0.08-0.13 0.23-0.06 0.34 0.08 0.1 0.23 0.13 0.33 0.05l30.66-21.61 10.2 14.44-30.65 21.63c-0.1 0.08-0.13 0.22-0.06 0.33 0.08 0.1 0.23 0.13 0.34 0.06l30.64-21.64 10.19 14.44-30.64 21.64c-0.11 0.07-0.13 0.22-0.06 0.33 0.08 0.1 0.22 0.12 0.33 0.05l30.64-21.63 10.19 14.44-30.64 21.62c-0.11 0.08-0.13 0.23-0.06 0.33 0.08 0.11 0.22 0.13 0.33 0.06l30.64-21.63 10.2 14.44-30.66 21.62c-0.1 0.07-0.13 0.22-0.05 0.33 0.07 0.1 0.22 0.13 0.32 0.06q0-0.01 0.01-0.01l30.65-21.61 8.74 12.37c0.07 0.11 0.22 0.14 0.32 0.06q0 0 0.01 0c0.1-0.07 0.13-0.22 0.06-0.33l-8.74-12.37 15.86-11.2 8.73 12.37c0.08 0.11 0.23 0.13 0.33 0.06 0.11-0.08 0.13-0.23 0.06-0.33l-8.74-12.38 15.86-11.19 8.74 12.37c0.08 0.11 0.23 0.13 0.33 0.05 0.11-0.07 0.13-0.22 0.06-0.33l-8.74-12.37 15.86-11.2 8.73 12.38c0.08 0.1 0.23 0.13 0.33 0.05 0.11-0.08 0.13-0.22 0.06-0.33l-8.73-12.38 15.85-11.19 8.74 12.37c0.08 0.11 0.23 0.13 0.33 0.06 0.11-0.08 0.13-0.23 0.06-0.34l-8.74-12.37 15.86-11.2 8.73 12.38c0.08 0.1 0.23 0.13 0.33 0.05 0.11-0.08 0.13-0.22 0.06-0.33l-8.74-12.38 15.86-11.19 8.74 12.37c0.08 0.11 0.22 0.13 0.33 0.05 0.11-0.07 0.13-0.22 0.05-0.33l-8.74-12.37 15.87-11.19 8.73 12.37c0.08 0.11 0.23 0.13 0.33 0.05 0.11-0.07 0.13-0.22 0.06-0.33l-8.74-12.37 15.86-11.2 8.74 12.37c0.07 0.11 0.22 0.14 0.33 0.06 0.1-0.08 0.13-0.23 0.05-0.33l-8.74-12.38 15.87-11.19 8.73 12.37c0.08 0.11 0.23 0.13 0.33 0.06 0.11-0.08 0.13-0.22 0.06-0.33q0 0 0 0l-8.74-12.38 15.86-11.19 8.74 12.37c0.08 0.11 0.22 0.13 0.33 0.06 0.09-0.07 0.13-0.19 0.09-0.29zm-19.87-27.32l-15.86 11.2-10.2-14.45 15.87-11.19zm-122.46-1.86l15.86-11.19 10.2 14.44-15.86 11.19zm9.81 14.72l-15.86 11.2-10.18-14.43 15.86-11.19zm6.45-26.17l15.86-11.19 10.2 14.44-15.87 11.19zm-0.27-0.38l-10.2-14.44 15.86-11.2 10.2 14.44zm-0.39 0.28l-15.86 11.19-10.19-14.44 15.86-11.19zm-16.25 11.46l-15.86 11.2-10.19-14.44 15.86-11.2zm-16.25 11.47l-15.86 11.19-10.19-14.44 15.85-11.19zm0.28 0.38l10.2 14.44-15.86 11.2-10.22-14.46zm10.47 14.83l10.19 14.44-15.86 11.19-10.2-14.44zm0.39-0.28l15.85-11.2 10.2 14.45-15.86 11.19zm16.25-11.46l15.86-11.2 10.19 14.44-15.86 11.19zm16.24-11.47l15.86-11.2 10.2 14.45-15.86 11.19zm16.25-11.46l15.86-11.2 10.19 14.44-15.87 11.19zm-0.27-0.39l-10.2-14.44 15.86-11.2 10.19 14.44zm-10.46-14.82l-10.2-14.45 15.86-11.19 10.19 14.44zm-10.47-14.83l-10.19-14.44 15.85-11.2 10.2 14.44zm-0.38 0.28l-15.86 11.2-10.2-14.44 15.86-11.2zm-16.25 11.47l-15.86 11.2-10.19-14.45 15.86-11.19zm-16.25 11.47l-15.86 11.19-10.2-14.44 15.87-11.2zm-16.25 11.47l-15.86 11.2-10.2-14.44 15.86-11.2zm-16.24 11.47l-15.87 11.2-10.2-14.47 15.86-11.19zm0.28 0.38l10.19 14.44-15.86 11.2-10.19-14.44zm10.46 14.83l10.2 14.44-15.86 11.2-10.2-14.45zm10.47 14.83l10.2 14.45-15.86 11.19-10.19-14.44zm10.47 14.83l10.19 14.44-15.86 11.2-10.19-14.45zm0.38-0.27l15.86-11.2 10.2 14.44-15.86 11.2zm16.24-11.48l15.86-11.19 10.2 14.44-15.86 11.2zm16.25-11.47l15.86-11.19 10.2 14.44-15.87 11.2zm16.25-11.47l15.86-11.2 10.2 14.44-15.86 11.2zm16.24-11.47l15.86-11.2 10.2 14.44-15.86 11.2zm16.25-11.47l15.85-11.2 10.2 14.44-15.86 11.2zm-0.28-0.38l-10.19-14.45 15.86-11.19 10.19 14.44zm-10.47-14.83l-10.19-14.45 15.86-11.2 10.2 14.44zm-10.47-14.84l-10.19-14.44 15.84-11.2 10.2 14.45zm-10.47-14.83l-10.2-14.44 15.86-11.2 10.2 14.44zm-10.47-14.83l-10.21-14.45 15.86-11.2 10.2 14.45zm-0.39 0.27l-15.86 11.2-10.19-14.44 15.85-11.19zm-16.25 11.47l-15.86 11.19-10.19-14.44 15.86-11.19zm-16.25 11.47l-15.86 11.19-10.19-14.44 15.86-11.2zm-16.25 11.48l-15.86 11.19-10.2-14.44 15.86-11.2zm-16.25 11.47l-15.85 11.19-10.2-14.44 15.86-11.19zm-16.24 11.47l-15.87 11.19-10.19-14.44 15.86-11.2zm-16.27 11.46l-15.86 11.19-10.2-14.44 15.86-11.19zm0.28 0.38l10.19 14.44-15.85 11.2-10.2-14.44zm10.47 14.83l10.2 14.44-15.86 11.19-10.2-14.44zm10.47 14.83l10.2 14.45-15.86 11.19-10.2-14.44zm10.47 14.83l10.2 14.44-15.85 11.22-10.2-14.45zm10.47 14.83l10.2 14.44-15.86 11.2-10.18-14.43zm10.46 14.83l10.2 14.44-15.86 11.2-10.2-14.44zm0.39-0.28l15.86-11.2 10.2 14.45-15.85 11.2zm16.25-11.47l15.86-11.2 10.2 14.44-15.87 11.2zm16.25-11.47l15.86-11.2 10.2 14.45-15.85 11.19zm16.24-11.47l15.87-11.2 10.21 14.44-15.89 11.21zm16.25-11.47l15.86-11.19 10.2 14.44-15.84 11.18zm16.24-11.47l15.87-11.2 10.19 14.45-15.86 11.19zm16.25-11.47l15.86-11.19 10.19 14.44-15.85 11.19zm31.83-23.05l-15.86 11.19-10.19-14.44 15.86-11.19zm-10.47-14.83l-15.86 11.19-10.2-14.44 15.87-11.2zm-10.48-14.82l-15.86 11.2-10.2-14.44 15.86-11.2zm-10.44-14.83l-15.86 11.2-10.22-14.45 15.86-11.19zm-10.46-14.85l-15.86 11.19-10.2-14.41 15.86-11.2zm-10.46-14.83l-15.87 11.23-10.19-14.44 15.85-11.2zm-20.66-29.27l10.19 14.44-15.86 11.2-10.19-14.45zm-16.25 11.48l10.19 14.44-15.86 11.19-10.19-14.44zm-16.25 11.47l10.2 14.44-15.86 11.2-10.2-14.44zm-16.25 11.46l10.2 14.45-15.86 11.19-10.2-14.44zm-16.24 11.47l10.19 14.44-15.86 11.2-10.19-14.44zm-16.26 11.47l10.2 14.44-15.86 11.19-10.19-14.44zm-16.25 11.47l10.2 14.44-15.86 11.2-10.2-14.44zm-16.25 11.47l10.19 14.44-15.85 11.19-10.2-14.44zm-16.24 11.47l10.19 14.44-15.86 11.2-10.22-14.43zm-32.11 22.67l15.84-11.19 10.2 14.45-15.86 11.19zm10.47 14.83l15.86-11.2 10.2 14.44-15.87 11.2zm10.47 14.83l15.86-11.2 10.2 14.45-15.86 11.19zm10.47 14.83l15.86-11.19 10.19 14.44-15.86 11.2zm10.47 14.83l15.86-11.2 10.2 14.44-15.86 11.2zm10.47 14.83l15.85-11.2 10.2 14.45-15.86 11.19zm10.47 14.83l15.86-11.2 10.19 14.45-15.86 11.19zm10.47 14.83l15.86-11.19 10.2 14.44-15.87 11.22zm20.66 29.27l-10.2-14.42 15.86-11.2 10.19 14.44zm16.25-11.47l-10.19-14.44 15.86-11.19 10.19 14.44zm16.25-11.47l-10.21-14.43 15.86-11.19 10.2 14.44zm16.25-11.47l-10.2-14.45 15.86-11.19 10.2 14.44zm16.24-11.47l-10.21-14.43 15.86-11.2 10.2 14.44zm16.25-11.47l-10.22-14.42 15.86-11.2 10.19 14.45zm16.25-11.47l-10.22-14.44 15.86-11.2 10.2 14.45zm16.25-11.47l-10.19-14.44 15.85-11.2 10.2 14.44zm16.24-11.47l-10.21-14.44 15.86-11.2 10.2 14.45zm16.25-11.47l-10.2-14.44 15.86-11.2 10.19 14.45z"/>
		</g>
	</g>
	<path class="s0" d="m255.82 202.84v-12.02h1.51v12.02zm4.95-8.69v1.14h0.04q1-1.34 2.75-1.34 1.38 0 2.15 0.72 0.77 0.72 0.77 2.07v6.1h-1.36v-5.99q0-0.84-0.52-1.29-0.52-0.47-1.44-0.47-1.04 0-1.72 0.67-0.67 0.67-0.67 1.73v5.35h-1.36v-8.69zm6.8 1.11v-1.11h1.26v-2.74h1.36v2.74h1.68v1.11h-1.68v5.64q0 0.81 0.87 0.81 0.37 0 0.72-0.12h0.05v1.18q-0.55 0.12-1.09 0.12-1.91 0-1.91-1.68v-5.95zm9.33 7.81q-1.93 0-3.07-1.29-1.13-1.31-1.13-3.28 0-1.93 1.15-3.24 1.16-1.33 2.97-1.33 1.92 0 2.96 1.35 1.04 1.32 1.04 3.54h-6.72q0.08 1.38 0.81 2.25 0.73 0.86 1.99 0.86 1.95 0 2.41-1.78h1.32q-0.3 1.39-1.27 2.16-0.98 0.76-2.46 0.76zm1.73-7.32q-0.65-0.74-1.81-0.74-1.16 0-1.85 0.77-0.67 0.77-0.84 2.02h5.23q-0.07-1.31-0.73-2.05zm4.88-1.6v1.44h0.03q0.42-0.68 1.1-1.1 0.67-0.44 1.49-0.44 0.3 0 0.56 0.1v1.31h-0.06q-0.25-0.08-0.6-0.08-1.04 0-1.78 0.74-0.74 0.72-0.74 1.89v4.83h-1.36v-8.69zm7.78 8.92q-1.9 0-3.06-1.31-1.14-1.31-1.14-3.26 0-1.95 1.14-3.26 1.16-1.31 3.06-1.31 1.53 0 2.5 0.82 0.98 0.81 1.21 2.21h-1.37q-0.16-0.89-0.76-1.4-0.6-0.5-1.58-0.5-1.34 0-2.08 0.97-0.72 0.98-0.72 2.47 0 1.5 0.72 2.47 0.74 0.96 2.08 0.96 1.04 0 1.66-0.56 0.63-0.57 0.71-1.59h1.34q-0.13 1.56-1.1 2.43-0.98 0.86-2.61 0.86zm8.71 0q-1.93 0-3.07-1.29-1.13-1.31-1.13-3.28 0-1.93 1.15-3.24 1.15-1.33 2.97-1.33 1.91 0 2.96 1.35 1.04 1.32 1.04 3.54h-6.72q0.08 1.38 0.8 2.25 0.74 0.86 2 0.86 1.95 0 2.41-1.78h1.32q-0.3 1.39-1.27 2.16-0.98 0.76-2.46 0.76zm1.73-7.32q-0.65-0.74-1.81-0.74-1.16 0-1.85 0.77-0.67 0.77-0.84 2.02h5.23q-0.07-1.31-0.73-2.05zm3.52 9.87v-11.47h1.36v1.23h0.03q1.06-1.43 2.79-1.43 1.68 0 2.71 1.23 1.02 1.21 1.02 3.34 0 2.1-1.01 3.34-1 1.23-2.77 1.23-1.75 0-2.74-1.28h-0.03v3.81zm4.03-3.67q1.21 0 1.85-0.95 0.64-0.94 0.64-2.47 0-1.52-0.64-2.46-0.64-0.96-1.83-0.96-1.36 0-2.07 0.97-0.7 0.96-0.7 2.45 0 1.53 0.67 2.47 0.67 0.95 2.08 0.95zm4.44-6.69v-1.11h1.26v-2.74h1.36v2.74h1.68v1.11h-1.68v5.64q0 0.81 0.87 0.81 0.37 0 0.73-0.12h0.05v1.18q-0.56 0.12-1.1 0.12-1.91 0-1.91-1.68v-5.95zm12.38 6.5q-1.15 1.31-3.04 1.31-1.9 0-3.06-1.31-1.15-1.31-1.14-3.26-0.01-1.95 1.14-3.26 1.16-1.31 3.06-1.31 1.89 0 3.04 1.31 1.14 1.31 1.14 3.26 0 1.95-1.14 3.26zm-5.13-0.79q0.74 0.96 2.09 0.96 1.34 0 2.06-0.96 0.72-0.97 0.72-2.47 0-1.51-0.74-2.47-0.72-0.97-2.04-0.97-1.35 0-2.09 0.97-0.72 0.98-0.72 2.47 0 1.5 0.72 2.47zm8.99-6.82v1.44h0.03q0.42-0.68 1.09-1.1 0.67-0.44 1.5-0.44 0.3 0 0.55 0.1v1.31h-0.05q-0.25-0.08-0.6-0.08-1.05 0-1.78 0.74-0.74 0.72-0.74 1.89v4.83h-1.36v-8.69zm7.27 8.69v-12.02h1.59l5.48 8.35 0.88 1.55h0.03v-9.9h1.41v12.02h-1.55l-5.51-8.37-0.89-1.5h-0.03v9.87zm15.16 0.23q-1.93 0-3.07-1.29-1.13-1.31-1.13-3.28 0-1.93 1.14-3.24 1.16-1.33 2.98-1.33 1.91 0 2.95 1.35 1.04 1.32 1.04 3.54h-6.72q0.09 1.38 0.81 2.25 0.74 0.86 2 0.86 1.95 0 2.4-1.78h1.33q-0.3 1.39-1.28 2.16-0.97 0.76-2.45 0.76zm1.73-7.32q-0.65-0.74-1.81-0.74-1.16 0-1.85 0.77-0.67 0.77-0.84 2.02h5.22q-0.06-1.31-0.72-2.05zm2.8-0.49v-1.11h1.26v-2.74h1.36v2.74h1.68v1.11h-1.68v5.64q0 0.81 0.87 0.81 0.37 0 0.72-0.12h0.05v1.18q-0.55 0.12-1.09 0.12-1.91 0-1.91-1.68v-5.95zm9 7.83q-1.79 0-2.78-0.79-0.97-0.81-1.07-2.29h1.39q0.24 1.94 2.49 1.94 1.02 0 1.51-0.39 0.51-0.4 0.51-1.04-0.01-0.69-0.49-0.99-0.49-0.31-1.78-0.57-0.54-0.12-0.86-0.19-0.3-0.08-0.74-0.22-0.44-0.15-0.69-0.32-0.23-0.18-0.48-0.43-0.26-0.26-0.37-0.63-0.11-0.36-0.11-0.82 0-1.11 0.81-1.75 0.82-0.63 2.32-0.63 3.09 0 3.41 2.72h-1.39q-0.11-0.86-0.59-1.25-0.49-0.4-1.46-0.4-0.89 0-1.33 0.35-0.42 0.34-0.42 0.89 0 0.64 0.5 0.91 0.51 0.25 1.83 0.52 0.81 0.17 1.26 0.32 0.47 0.14 0.98 0.44 0.5 0.28 0.74 0.77 0.23 0.49 0.23 1.21 0 1.28-0.94 1.97-0.94 0.67-2.48 0.67zm14.22-0.17q-1.29 0-1.49-1.29h-0.02q-1.08 1.37-2.89 1.37-1.29 0-2.12-0.62-0.82-0.62-0.82-1.79 0-0.61 0.18-1.05 0.21-0.45 0.51-0.72 0.3-0.29 0.82-0.49 0.54-0.21 1.03-0.32 0.48-0.11 1.24-0.23 0.49-0.07 0.69-0.1 0.22-0.05 0.55-0.14 0.34-0.1 0.47-0.21 0.14-0.12 0.25-0.32 0.12-0.21 0.12-0.47 0-0.74-0.52-1.13-0.5-0.4-1.43-0.4-2.1 0-2.16 1.91h-1.31q0.03-1.32 0.9-2.13 0.89-0.81 2.56-0.81 3.2 0 3.21 2.76v4.13q0 0.57 0.18 0.81 0.2 0.23 0.74 0.11h0.05v1q-0.34 0.13-0.74 0.13zm-4.1-0.96q1.26 0 1.95-0.72 0.69-0.74 0.69-1.61v-1.48q-0.62 0.38-1.98 0.64-0.51 0.1-0.79 0.17-0.29 0.05-0.66 0.2-0.37 0.13-0.55 0.3-0.19 0.17-0.32 0.45-0.14 0.27-0.14 0.64 0 1.41 1.8 1.41zm7.2-7.81v1.14h0.04q1.01-1.34 2.75-1.34 1.38 0 2.15 0.72 0.78 0.72 0.78 2.07v6.1h-1.36v-5.99q0-0.84-0.52-1.29-0.53-0.47-1.45-0.47-1.04 0-1.71 0.67-0.68 0.68-0.68 1.73v5.35h-1.36v-8.69zm10.88 8.94q-1.78 0-2.82-1.23-1.03-1.24-1.03-3.34 0-2.12 1.08-3.34 1.07-1.23 2.73-1.23 1.77 0 2.73 1.43h0.03v-4.56h1.36v12.02h-1.36v-1.06h-0.03q-1.03 1.31-2.69 1.31zm0.05-1.14q1.39 0 2.06-0.93 0.69-0.92 0.69-2.49 0-1.54-0.73-2.48-0.73-0.94-2.04-0.94-1.19 0-1.85 0.96-0.64 0.94-0.64 2.46 0 1.53 0.64 2.47 0.66 0.95 1.87 0.95zm-130.8 22.89v-12.02h5.61q1.58 0 2.55 0.91 0.99 0.91 0.99 2.39 0 2.3-2.08 2.97v0.05q0.89 0.32 1.26 1.01 0.39 0.67 0.47 2.05 0.17 2.3 0.56 2.57v0.07h-1.63q-0.19-0.16-0.27-0.64-0.07-0.49-0.17-2.05-0.08-1.31-0.66-1.85-0.55-0.54-1.78-0.54h-3.34v5.08zm1.51-10.71v4.41h3.56q1.25 0 1.89-0.57 0.63-0.59 0.63-1.63 0-1.13-0.57-1.67-0.57-0.54-1.86-0.54zm12.91 10.94q-1.93 0-3.08-1.29-1.12-1.31-1.12-3.28 0-1.93 1.14-3.24 1.16-1.33 2.97-1.33 1.92 0 2.96 1.35 1.04 1.32 1.04 3.54h-6.72q0.09 1.38 0.81 2.25 0.74 0.86 2 0.86 1.95 0 2.4-1.78h1.33q-0.31 1.39-1.28 2.16-0.97 0.76-2.45 0.76zm1.73-7.32q-0.66-0.74-1.82-0.74-1.16 0-1.84 0.77-0.68 0.77-0.84 2.02h5.22q-0.07-1.31-0.72-2.05zm7.23 7.32q-1.9 0-3.06-1.31-1.14-1.31-1.14-3.26 0-1.95 1.14-3.26 1.16-1.31 3.06-1.31 1.52 0 2.5 0.82 0.97 0.81 1.21 2.21h-1.38q-0.15-0.89-0.76-1.4-0.6-0.5-1.57-0.5-1.35 0-2.09 0.97-0.72 0.98-0.72 2.47 0 1.5 0.72 2.47 0.74 0.96 2.09 0.96 1.04 0 1.66-0.56 0.62-0.57 0.7-1.59h1.35q-0.14 1.56-1.11 2.43-0.98 0.86-2.6 0.86zm11.98-0.15q-1.29 0-1.5-1.29h-0.01q-1.08 1.37-2.89 1.37-1.3 0-2.12-0.62-0.82-0.62-0.82-1.79 0-0.61 0.18-1.05 0.2-0.45 0.51-0.72 0.3-0.29 0.82-0.49 0.54-0.21 1.02-0.32 0.49-0.11 1.25-0.23 0.49-0.07 0.69-0.1 0.21-0.05 0.55-0.14 0.34-0.1 0.47-0.21 0.14-0.12 0.25-0.32 0.12-0.21 0.12-0.47 0-0.74-0.52-1.13-0.5-0.4-1.43-0.4-2.1 0-2.17 1.91h-1.31q0.04-1.32 0.91-2.13 0.89-0.81 2.55-0.81 3.21 0 3.21 2.76v4.13q0 0.57 0.19 0.81 0.2 0.23 0.74 0.11h0.05v1q-0.34 0.13-0.74 0.13zm-4.1-0.96q1.26 0 1.95-0.72 0.69-0.74 0.69-1.61v-1.48q-0.62 0.38-1.99 0.64-0.5 0.1-0.78 0.17-0.29 0.05-0.66 0.2-0.37 0.13-0.55 0.3-0.19 0.17-0.32 0.45-0.14 0.27-0.14 0.64 0 1.41 1.8 1.41zm5.84 3.67v-11.48h1.36v1.23h0.04q1.06-1.43 2.79-1.43 1.68 0 2.7 1.23 1.03 1.21 1.02 3.34 0.01 2.1-1 3.34-1.01 1.23-2.78 1.23-1.74 0-2.73-1.28h-0.04v3.82zm4.03-3.68q1.21 0 1.85-0.95 0.64-0.94 0.64-2.47 0-1.52-0.64-2.46-0.64-0.96-1.83-0.96-1.36 0-2.07 0.97-0.7 0.96-0.7 2.45 0 1.53 0.67 2.47 0.67 0.95 2.08 0.95zm4.44-6.69v-1.11h1.26v-2.74h1.36v2.74h1.68v1.11h-1.68v5.64q0 0.81 0.88 0.81 0.37 0 0.72-0.12h0.05v1.18q-0.56 0.12-1.09 0.12-1.92 0-1.92-1.68v-5.95zm12.6 7.58h-1.37v-1.2h-0.03q-1.02 1.4-2.62 1.4-1.34 0-2.13-0.76-0.79-0.77-0.79-2.12v-6.01h1.36v5.98q0 0.84 0.5 1.31 0.52 0.47 1.45 0.47 1.02 0 1.64-0.69 0.63-0.69 0.62-1.73v-5.34h1.37zm3.2-8.69v1.45h0.03q0.42-0.69 1.09-1.11 0.67-0.44 1.5-0.44 0.3 0 0.55 0.1v1.32h-0.05q-0.25-0.09-0.6-0.09-1.05 0-1.78 0.74-0.74 0.72-0.74 1.9v4.82h-1.36v-8.69zm7.78 8.92q-1.93 0-3.08-1.29-1.12-1.31-1.12-3.27 0-1.94 1.14-3.25 1.16-1.32 2.97-1.32 1.92 0 2.96 1.34 1.04 1.33 1.04 3.54h-6.72q0.09 1.38 0.81 2.26 0.74 0.85 2 0.85 1.95 0 2.4-1.78h1.33q-0.31 1.4-1.28 2.17-0.97 0.75-2.45 0.75zm1.73-7.32q-0.66-0.74-1.82-0.74-1.16 0-1.84 0.77-0.68 0.78-0.84 2.02h5.22q-0.07-1.31-0.72-2.05zm6.39 7.09v-12.01h4.37q2.63 0 3.98 1.63 1.34 1.63 1.34 4.42 0 2.77-1.39 4.36-1.4 1.6-4.05 1.6zm1.51-1.33h2.69q3.95 0 3.95-4.63 0-4.74-3.83-4.74h-2.81zm11.13-7.36v1.44h0.04q0.42-0.68 1.09-1.11 0.67-0.43 1.49-0.43 0.31 0 0.56 0.1v1.31h-0.05q-0.25-0.08-0.61-0.08-1.04 0-1.78 0.74-0.74 0.72-0.74 1.89v4.83h-1.36v-8.69zm10.83 7.61q-1.15 1.31-3.05 1.31-1.89 0-3.05-1.31-1.14-1.31-1.15-3.26 0.01-1.95 1.15-3.26 1.16-1.31 3.05-1.31 1.9 0 3.05 1.31 1.14 1.31 1.14 3.26 0 1.95-1.14 3.26zm-5.13-0.79q0.74 0.96 2.08 0.96 1.35 0 2.07-0.96 0.72-0.97 0.72-2.47 0-1.51-0.74-2.47-0.72-0.97-2.05-0.97-1.34 0-2.08 0.97-0.72 0.98-0.72 2.47 0 1.5 0.72 2.47zm8.99-6.82v1.14h0.03q1.01-1.34 2.75-1.34 1.38 0 2.15 0.72 0.78 0.72 0.78 2.07v6.1h-1.36v-5.99q0-0.84-0.52-1.29-0.52-0.47-1.45-0.47-1.04 0-1.71 0.67-0.67 0.67-0.67 1.73v5.35h-1.37v-8.69zm11.23 8.92q-1.93 0-3.07-1.29-1.13-1.31-1.13-3.28 0-1.93 1.14-3.24 1.16-1.33 2.98-1.33 1.91 0 2.96 1.35 1.04 1.32 1.04 3.54h-6.72q0.08 1.38 0.8 2.25 0.74 0.86 2 0.86 1.95 0 2.4-1.78h1.33q-0.3 1.39-1.27 2.16-0.98 0.76-2.46 0.76zm1.73-7.32q-0.65-0.74-1.81-0.74-1.16 0-1.85 0.77-0.67 0.77-0.84 2.01h5.23q-0.07-1.31-0.73-2.04zm6.81 7.34q-1.78 0-2.77-0.79-0.98-0.81-1.08-2.29h1.4q0.23 1.93 2.48 1.93 1.03 0 1.52-0.38 0.5-0.41 0.5-1.04 0-0.69-0.49-0.99-0.48-0.31-1.78-0.58-0.54-0.11-0.86-0.18-0.3-0.08-0.73-0.22-0.44-0.15-0.69-0.32-0.24-0.18-0.49-0.44-0.25-0.25-0.37-0.62-0.1-0.37-0.1-0.82 0-1.11 0.81-1.75 0.82-0.64 2.31-0.63 3.1-0.01 3.41 2.72h-1.39q-0.1-0.86-0.59-1.25-0.48-0.4-1.46-0.4-0.89 0-1.33 0.35-0.42 0.34-0.42 0.89 0 0.64 0.51 0.91 0.5 0.25 1.83 0.52 0.81 0.17 1.26 0.32 0.47 0.13 0.97 0.44 0.51 0.28 0.74 0.77 0.24 0.49 0.24 1.21 0 1.28-0.94 1.96-0.94 0.68-2.49 0.68z"/>
	<path class="s0" d="m508.67 14.16v-13.51h2.74v5.38l5.19-5.38h3.41l-5.3 5.4 5.64 8.11h-3.22l-4.34-6.31-1.38 1.4v4.91zm14.85 0v-13.51h2.74v13.51zm6.94 0v-13.51h2.74v11.22h6.35v2.29zm12.66 0v-13.51h2.74v11.22h6.35v2.29z"/>
	<g id="Clip-Path" clip-path="url(#cp2)">
		<g>
			<g>
				<path fill-rule="evenodd" class="s1" d="m530.13 174.24c-39.12 0-70.74-31.62-70.74-70.74 0-39.12 31.62-70.74 70.74-70.74 39.12 0 70.74 31.62 70.74 70.74 0 39.12-31.62 70.74-70.74 70.74z"/>
				<path fill-rule="evenodd" class="s5" d="m530.13 173.63c-38.79 0-70.14-31.35-70.14-70.13 0-38.79 31.35-70.14 70.14-70.14 38.78 0 70.13 31.35 70.13 70.14 0 38.78-31.35 70.13-70.13 70.13z"/>
			</g>
			<path fill-rule="evenodd" class="s0" d="m502.66 103.17h54.95c0.74 0 1.33-0.61 1.33-1.33v-1.24c0-0.74-0.59-1.35-1.33-1.35h-54.95c-0.74 0-1.33 0.61-1.33 1.35v1.24c0 0.72 0.59 1.33 1.33 1.33z"/>
			<path fill-rule="evenodd" class="s0" d="m502.66 103.17h54.95c0.74 0 1.33-0.61 1.33-1.33h-57.61c0 0.72 0.59 1.33 1.33 1.33z"/>
			<path class="s0" d="m542.63 99.25h-24.97v3.92h24.97z"/>
			<g>
				<path class="s0" d="m530.14 92.9c3.13 0 5.99 1.28 8.04 3.35 2.06 2.05 3.34 4.9 3.34 8.03v2.89c0 0.5-0.41 0.91-0.91 0.91h-20.94c-0.5 0-0.91-0.41-0.91-0.91v-2.89c0-3.13 1.28-5.98 3.33-8.03 2.06-2.07 4.92-3.35 8.05-3.35z"/>
			</g>
			<g>
				<path class="s0" d="m541.52 105.93v1.24c0 0.5-0.41 0.91-0.91 0.91h-20.94c-0.5 0-0.91-0.41-0.91-0.91v-1.24z"/>
			</g>
			<path class="s0" d="m533.75 93.5c1.69 0.57 3.21 1.51 4.43 2.75 2.03 2 3.29 4.76 3.34 7.8h-0.02-3.93c-2.09 0-3.82-1.73-3.82-3.84zm-14.99 10.55c0.05-3.03 1.33-5.79 3.33-7.79 1.25-1.24 2.75-2.18 4.43-2.76v6.72c0 2.11-1.72 3.83-3.81 3.83h-3.93z"/>
			<path fill-rule="evenodd" class="s0" d="m520.05 108.08h20.17v0.22c0 1.2-0.98 2.18-2.17 2.18h-15.81c-1.2 0-2.19-0.98-2.19-2.18z"/>
			<path fill-rule="evenodd" class="s0" d="m536.38 110.48c-0.22 0.94-1.09 1.67-2.11 1.67h-8.27c-1.02 0-1.89-0.73-2.11-1.67z"/>
			<path fill-rule="evenodd" class="s0" d="m526.64 112.15h6.97v3.33c0 1.92-1.55 3.5-3.48 3.5-1.91 0-3.49-1.58-3.49-3.5z"/>
			<path fill-rule="evenodd" class="s0" d="m530.13 113.67c0.98 0 1.76 0.8 1.76 1.78 0 0.96-0.78 1.75-1.76 1.75-0.97 0-1.76-0.79-1.76-1.75 0-0.98 0.79-1.78 1.76-1.78z"/>
			<path fill-rule="evenodd" class="s3" d="m530.13 114.68c0.41 0 0.74 0.33 0.74 0.76 0 0.41-0.33 0.74-0.74 0.74-0.41 0-0.74-0.33-0.74-0.74 0-0.43 0.33-0.76 0.74-0.76z"/>
			<path fill-rule="evenodd" class="s0" d="m530.63 114.48c0.26 0 0.48 0.22 0.48 0.48 0 0.26-0.22 0.46-0.48 0.46-0.26 0-0.46-0.2-0.46-0.46 0-0.26 0.2-0.48 0.46-0.48z"/>
			<path fill-rule="evenodd" class="s0" d="m504.57 92.51c0.52 0 0.93 0.41 0.93 0.93v5.81h-1.86v-5.81c0-0.52 0.43-0.93 0.93-0.93z"/>
			<path fill-rule="evenodd" class="s0" d="m492 94.01h11.64v0.87h-3.63c-0.29 0.5-0.83 0.83-1.46 0.83h-4.84c-0.95 0-1.71-0.75-1.71-1.7zm23.43 1.7h-4.83c-0.61 0-1.17-0.33-1.47-0.83h-3.63v-0.87h11.64c0 0.95-0.76 1.7-1.71 1.7z"/>
			<path fill-rule="evenodd" class="s0" d="m555.69 92.51c0.52 0 0.93 0.41 0.93 0.93v5.81h-1.85v-5.81c0-0.52 0.4-0.93 0.92-0.93z"/>
			<path fill-rule="evenodd" class="s0" d="m543.12 94.01h11.64v0.87h-3.63c-0.3 0.5-0.84 0.83-1.47 0.83h-4.83c-0.95 0-1.71-0.75-1.71-1.7zm23.43 1.7h-4.84c-0.63 0-1.16-0.33-1.46-0.83h-3.63v-0.87h11.64c0 0.95-0.76 1.7-1.71 1.7z"/>
			<path class="s4" d="m530.14 149.38c-12.11 0-23.5-4.77-32.08-13.42-8.58-8.68-13.27-20.18-13.27-32.45 0-12.27 4.72-23.76 13.27-32.44 8.58-8.68 19.95-13.42 32.08-13.42 12.13 0 23.5 4.77 32.08 13.42 8.57 8.68 13.27 20.17 13.27 32.44 0 12.27-4.72 23.77-13.27 32.45-8.58 8.65-19.98 13.42-32.08 13.42zm0-87.99c-11.12 0-21.57 4.39-29.44 12.35-7.87 7.96-12.21 18.53-12.21 29.77 0 11.24 4.34 21.82 12.21 29.78 7.87 7.95 18.32 12.34 29.44 12.34 11.11 0 21.57-4.39 29.44-12.34 7.86-7.96 12.2-18.54 12.2-29.78 0-11.24-4.34-21.81-12.2-29.77-7.87-7.98-18.33-12.35-29.44-12.35z"/>
			<path class="s4" d="m531.86 31.18l-1.4 48.08h-0.94l-1.4-48.08z"/>
			<path class="s4" d="m458.63 101.74l47.53 1.42v0.95l-47.53 1.41z"/>
			<path class="s4" d="m528.41 175.81l1.39-48.07h0.92l1.39 48.07z"/>
			<path class="s4" d="m601.63 105.24l-47.54-1.41v-0.93l47.54-1.41z"/>
		</g>
	</g>
	<path class="s0" d="m466.81 202.84v-12.02h1.51v5.11h6.42v-5.11h1.51v12.02h-1.51v-5.68h-6.42v5.68zm18.32 0.08q-1.29 0-1.5-1.29h-0.01q-1.08 1.37-2.89 1.37-1.3 0-2.12-0.62-0.82-0.62-0.82-1.79 0-0.61 0.18-1.05 0.2-0.45 0.51-0.72 0.3-0.29 0.82-0.49 0.54-0.21 1.02-0.32 0.49-0.11 1.25-0.23 0.48-0.07 0.69-0.1 0.21-0.05 0.55-0.14 0.34-0.1 0.47-0.21 0.14-0.12 0.25-0.32 0.12-0.21 0.12-0.47 0-0.74-0.52-1.13-0.5-0.4-1.43-0.4-2.1 0-2.16 1.91h-1.31q0.03-1.32 0.9-2.13 0.89-0.81 2.56-0.81 3.2 0 3.2 2.76v4.13q0 0.57 0.19 0.81 0.2 0.23 0.74 0.11h0.05v1q-0.34 0.13-0.74 0.13zm-4.1-0.96q1.26 0 1.95-0.72 0.69-0.74 0.69-1.61v-1.48q-0.62 0.38-1.98 0.64-0.51 0.1-0.79 0.17-0.29 0.05-0.66 0.2-0.37 0.13-0.55 0.3-0.19 0.17-0.32 0.45-0.14 0.27-0.14 0.64 0 1.41 1.8 1.41zm7.2-7.81v1.44h0.04q0.42-0.68 1.09-1.1 0.67-0.44 1.49-0.44 0.31 0 0.56 0.1v1.31h-0.05q-0.25-0.08-0.61-0.08-1.04 0-1.78 0.74-0.74 0.72-0.74 1.89v4.83h-1.36v-8.69zm7.43 8.94q-1.78 0-2.82-1.23-1.02-1.24-1.03-3.34 0.01-2.12 1.08-3.34 1.08-1.23 2.74-1.23 1.76 0 2.72 1.43h0.03v-4.56h1.37v12.02h-1.37v-1.06h-0.03q-1.02 1.31-2.69 1.31zm0.05-1.14q1.4 0 2.07-0.93 0.69-0.92 0.69-2.49 0-1.54-0.74-2.48-0.72-0.94-2.03-0.94-1.2 0-1.85 0.96-0.64 0.94-0.64 2.46 0 1.53 0.64 2.47 0.65 0.95 1.86 0.95zm5.59-3.13v-1.24h4.5v1.24zm6.27 4.02v-12.02h1.51v5.97l5.91-5.97h1.9l-4.85 4.81 5.25 7.21h-1.76l-4.52-6.19-1.93 1.94v4.25zm10.61 0v-8.69h1.36v8.69zm0-10.34v-1.68h1.36v1.68zm3.27 10.34v-12.02h1.36v12.02zm3.31 0v-12.02h1.36v12.02zm6.14 0v-12.02h8.49v1.33h-6.98v3.8h6.34v1.27h-6.34v4.22h7.18v1.4zm9.45-7.58v-1.11h1.19v-1.29q0-1.08 0.59-1.55 0.58-0.49 1.71-0.49 0.29 0 0.66 0.04v1.16q-0.21-0.02-0.42-0.02-0.66 0-0.93 0.2-0.25 0.2-0.25 0.72v1.23h2.77v-1.39q0-1.08 0.59-1.55 0.59-0.49 1.71-0.49 0.32 0 0.69 0.04v1.16q-0.23-0.02-0.44-0.02-0.65 0-0.92 0.2-0.27 0.2-0.27 0.72v1.33h1.61v1.11h-1.61v7.58h-1.36v-7.58h-2.77v7.58h-1.36v-7.58zm13.09 7.81q-1.93 0-3.07-1.29-1.13-1.31-1.13-3.28 0-1.93 1.14-3.24 1.16-1.33 2.98-1.33 1.91 0 2.96 1.35 1.04 1.32 1.04 3.54h-6.72q0.08 1.38 0.8 2.25 0.74 0.86 2 0.86 1.95 0 2.4-1.78h1.33q-0.3 1.39-1.27 2.16-0.98 0.76-2.46 0.76zm1.73-7.32q-0.65-0.74-1.81-0.74-1.16 0-1.85 0.77-0.67 0.77-0.84 2.02h5.23q-0.07-1.31-0.73-2.05zm7.23 7.32q-1.9 0-3.06-1.31-1.14-1.31-1.14-3.26 0-1.95 1.14-3.26 1.16-1.31 3.06-1.31 1.53 0 2.5 0.82 0.98 0.81 1.21 2.21h-1.37q-0.16-0.89-0.76-1.4-0.61-0.5-1.58-0.5-1.34 0-2.08 0.97-0.73 0.98-0.73 2.47 0 1.5 0.73 2.47 0.74 0.96 2.08 0.96 1.04 0 1.66-0.56 0.63-0.57 0.71-1.59h1.34q-0.13 1.56-1.11 2.43-0.97 0.86-2.6 0.86zm4.44-7.81v-1.11h1.26v-2.74h1.37v2.74h1.68v1.11h-1.68v5.64q0 0.81 0.87 0.81 0.37 0 0.72-0.12h0.05v1.18q-0.55 0.12-1.09 0.12-1.91 0-1.92-1.68v-5.95zm12.38 6.5q-1.14 1.31-3.04 1.31-1.9 0-3.06-1.31-1.14-1.31-1.14-3.26 0-1.95 1.14-3.26 1.16-1.31 3.06-1.31 1.9 0 3.04 1.31 1.14 1.31 1.14 3.26 0 1.95-1.14 3.26zm-5.12-0.79q0.74 0.96 2.08 0.96 1.35 0 2.07-0.96 0.72-0.97 0.72-2.47 0-1.51-0.74-2.47-0.72-0.97-2.05-0.97-1.34 0-2.08 0.97-0.72 0.98-0.72 2.47 0 1.5 0.72 2.47zm8.98-6.82v1.44h0.04q0.42-0.68 1.09-1.1 0.67-0.44 1.49-0.44 0.31 0 0.56 0.1v1.31h-0.05q-0.25-0.08-0.61-0.08-1.04 0-1.78 0.74-0.74 0.72-0.74 1.89v4.83h-1.36v-8.69zm7.69 8.94q-1.78 0-2.77-0.79-0.97-0.81-1.07-2.29h1.39q0.24 1.94 2.49 1.94 1.02 0 1.51-0.39 0.5-0.4 0.5-1.04 0-0.69-0.49-0.99-0.48-0.31-1.78-0.57-0.53-0.12-0.85-0.19-0.3-0.08-0.74-0.22-0.44-0.15-0.69-0.32-0.24-0.18-0.49-0.43-0.25-0.26-0.37-0.63-0.1-0.36-0.1-0.82 0-1.11 0.81-1.75 0.82-0.63 2.32-0.63 3.09 0 3.41 2.72h-1.4q-0.1-0.86-0.59-1.25-0.48-0.4-1.46-0.4-0.89 0-1.32 0.35-0.42 0.34-0.42 0.89 0 0.64 0.5 0.91 0.5 0.25 1.83 0.52 0.81 0.17 1.26 0.32 0.47 0.14 0.98 0.44 0.5 0.28 0.73 0.77 0.24 0.49 0.24 1.21 0 1.28-0.94 1.97-0.94 0.67-2.49 0.67zm-106 23.73q-1.15-1.78-1.81-3.6-0.64-1.81-0.64-4.01 0-3.61 2.45-7.04h1.11q-1.96 3.34-1.96 7.04 0 4 1.96 7.61zm5.26-1.98v-12.02h5.61q1.58 0 2.55 0.91 1 0.91 1 2.39 0 2.3-2.09 2.97v0.05q0.89 0.32 1.26 1.01 0.39 0.67 0.47 2.05 0.17 2.3 0.56 2.57v0.07h-1.63q-0.19-0.16-0.27-0.64-0.07-0.49-0.17-2.05-0.08-1.31-0.65-1.85-0.56-0.54-1.78-0.54h-3.35v5.08zm1.51-10.71v4.41h3.57q1.24 0 1.88-0.58 0.64-0.58 0.64-1.62 0-1.13-0.58-1.67-0.57-0.54-1.86-0.54zm14.65 10.94q-2.53 0-4.08-1.75-1.54-1.74-1.54-4.5 0-2.72 1.52-4.48 1.55-1.78 4.17-1.78 2.05-0.01 3.31 1.05 1.26 1.06 1.51 2.78h-1.48q-0.21-1.15-1.1-1.84-0.88-0.68-2.27-0.68-1.93 0-3.03 1.39-1.09 1.38-1.09 3.56 0 2.22 1.13 3.58 1.14 1.34 3 1.34 1.62 0 2.49-0.94 0.89-0.94 1.01-2.37h1.49q-0.01 0.89-0.42 1.84-0.38 0.92-1.02 1.54-1.29 1.26-3.6 1.26zm8.79-0.23l-3.1-12.02h1.57l1.9 7.82 0.46 2.03h0.03q0.29-1.28 0.5-2.07l2.17-7.78h1.63l2.1 7.78 0.49 2.07h0.03q0.29-1.3 0.47-2.03l2-7.82h1.53l-3.34 12.02h-1.45l-2.2-8.47-0.44-1.83h-0.03q-0.25 1.12-0.45 1.83l-2.35 8.47zm17.34 0.23q-2.42 0-3.73-1.19-1.29-1.19-1.39-3.11h1.47q0.31 3.09 3.72 3.09 1.29 0 2.06-0.57 0.79-0.59 0.79-1.68 0-0.49-0.18-0.86-0.19-0.37-0.46-0.6-0.25-0.24-0.77-0.44-0.52-0.2-0.97-0.32-0.44-0.12-1.21-0.28-0.93-0.2-1.53-0.41-0.61-0.21-1.21-0.58-0.61-0.37-0.91-0.94-0.28-0.59-0.28-1.42 0-1.47 1.1-2.31 1.13-0.86 2.98-0.86 4.05 0 4.55 3.75h-1.43q-0.16-1.28-0.96-1.92-0.78-0.66-2.13-0.66-1.24 0-1.98 0.51-0.72 0.5-0.72 1.43 0 0.4 0.15 0.72 0.17 0.3 0.42 0.52 0.27 0.2 0.69 0.37 0.43 0.17 0.85 0.28 0.42 0.11 1.03 0.22 0.84 0.17 1.38 0.32 0.53 0.14 1.19 0.42 0.65 0.29 1.01 0.66 0.37 0.37 0.62 0.97 0.27 0.59 0.27 1.38 0 1.65-1.23 2.59-1.21 0.92-3.19 0.92zm7.97-0.23l4.77-12.02h1.41l-4.77 12.02zm10.25 0v-12.02h4.37q2.64 0 3.98 1.63 1.35 1.63 1.35 4.42 0 2.77-1.4 4.37-1.39 1.6-4.05 1.6zm1.52-1.33h2.68q3.95 0 3.95-4.64 0-4.74-3.83-4.74h-2.8zm9.97 1.33v-12.01h8.48v1.33h-6.97v3.79h6.33v1.28h-6.33v4.22h7.17v1.39zm12.37 1.98q1.97-3.61 1.97-7.61 0-3.69-1.97-7.04h1.11q2.45 3.43 2.45 7.04 0 2.2-0.65 4.02-0.64 1.81-1.8 3.59z"/>
</svg>