<svg width="303" height="334" viewBox="0 0 303 334" fill="none" xmlns="http://www.w3.org/2000/svg">
<path d="M144.148 245.362C196.704 245.362 239.308 202.469 239.308 149.557C239.308 96.6453 196.704 53.752 144.148 53.752C91.5929 53.752 48.9883 96.6453 48.9883 149.557C48.9883 202.469 91.5929 245.362 144.148 245.362Z" fill="#FF725E"/>
<g opacity="0.3">
<path d="M108.909 192.263C109.405 188.093 112.657 183.863 110.791 180.099C108.698 175.898 102.601 176.576 98.3096 174.694C92.3179 172.059 90.4652 164.622 86.551 159.367C83.0439 154.67 74.8539 149.506 68.6205 150.921C64.1038 151.945 62.5533 154.64 62.0868 157.952C61.8913 157.922 61.71 157.891 61.5146 157.861C59.8431 157.681 57.8865 157.59 56.9677 156.205C55.8987 154.594 56.9526 152.2 55.8534 150.619C55.2812 149.791 54.2877 149.43 53.4747 148.843C52.6616 148.271 51.9695 147.187 52.4662 146.314C52.8722 145.577 53.9261 145.426 54.453 144.749C54.8742 144.207 54.8591 143.378 54.4228 142.867C52.707 140.834 50.7947 144.974 49.8467 145.953C49.5756 146.239 49.3197 146.479 49.0789 146.675V146.69C49.0638 146.87 49.0487 147.036 49.0487 147.217C49.026 147.782 49.0279 148.36 49.0185 148.933C49.0091 149.507 48.9883 150.077 48.9883 150.65C48.9883 151.116 49.0034 151.577 49.0109 152.042C49.0185 152.507 49.0185 152.975 49.0336 153.435C50.0572 153.782 51.0204 154.324 51.9695 154.881C53.8213 155.95 55.8836 157.365 56.0045 159.502C56.0196 159.849 55.9894 160.225 56.2 160.511C56.3954 160.782 56.7571 160.887 57.0886 160.962C58.6694 161.338 60.2955 161.565 61.9216 161.639C61.9518 163.552 62.0868 165.554 62.0566 167.451C62.0113 170.206 61.1085 172.931 61.4088 175.656C61.8451 179.51 64.525 182.671 66.8584 185.773C75.7406 197.637 80.5273 211.242 85.7219 225.183C86.6851 225.951 88.0601 226.974 89.0535 227.682C89.8363 228.246 90.5568 228.738 91.3576 229.278C92.1574 229.819 92.8751 230.278 93.6957 230.789C94.2679 231.151 94.3926 231.253 94.98 231.599C94.9044 231.433 95.047 231.717 94.9724 231.55C92.8798 226.958 92.8741 220.595 97.3757 218.321C98.2341 217.883 99.2124 217.644 99.9206 216.981C101.923 215.084 100.282 211.169 102.284 209.272C103.414 208.218 105.175 208.294 106.575 207.661C109.089 206.502 109.902 203.281 109.706 200.51C109.496 197.758 108.592 195.019 108.909 192.263Z" fill="black"/>
</g>
<g opacity="0.3">
<path d="M54.8948 122.139C56.671 120.619 59.7428 120.437 61.113 122.335C62.0913 123.69 61.8656 125.541 61.6097 127.198C61.2632 129.425 60.9166 131.654 60.5559 133.882C60.4501 134.544 60.3604 135.267 60.6465 135.884C61.3085 137.299 63.6277 137.028 64.5154 135.764C65.4181 134.484 65.3133 132.767 65.0725 131.232C64.8317 129.681 64.5154 128.055 65.1178 126.61C66.6231 123.028 71.9679 123.569 75.069 121.235C76.9963 119.79 77.8547 117.366 78.9983 115.244C80.1428 113.121 82.055 110.998 84.463 111.104C85.276 111.134 86.074 111.435 86.887 111.405C89.2658 111.33 90.6511 107.852 88.9645 106.166C88.618 105.804 88.1515 105.518 87.9107 105.082C87.4895 104.284 87.9409 103.26 88.6633 102.718C89.3857 102.191 90.3045 102.041 91.1921 101.905C93.2243 101.574 95.2565 101.258 97.2896 100.942C99.5332 100.596 102.409 99.4369 102.092 97.1932C101.821 95.2507 99.1867 94.3782 98.7948 92.4509C98.69 91.9844 98.7495 91.4726 98.5389 91.0353C97.9213 89.8011 96.0695 90.2978 94.8806 90.9598C94.399 89.1684 91.8399 88.3554 90.4093 89.5292C89.2053 90.5226 89.0552 92.2696 88.6331 93.7597C87.6397 97.3726 84.7642 100.113 82.0238 102.657C81.105 103.5 80.0663 104.403 78.817 104.463C77.5667 104.524 76.2579 103.184 76.8292 102.085C77.2211 101.332 78.3042 100.895 78.1994 100.053C78.0492 98.9987 76.2126 99.0743 75.8509 98.0648C76.5733 95.0836 79.9907 93.8494 82.6103 92.2535C85.7869 90.3262 88.2865 87.2855 89.5207 83.7623C89.7313 83.2051 89.8966 82.5422 89.6114 82.0153C89.2195 81.2627 88.211 81.1428 87.3535 81.1428C85.3365 81.1125 82.8218 81.3836 82.0843 83.2656C81.6933 84.2741 81.9795 85.4186 81.7387 86.4724C81.0314 89.6038 76.7404 89.9503 74.1209 91.8172C73.0973 92.5396 72.2993 93.5482 71.1699 94.1053C69.9508 94.6927 68.5202 94.6473 67.1651 94.7531C66.9243 94.7682 66.3096 94.7465 66.0688 94.7767C65.2406 95.9288 64.59 96.9769 63.8204 98.1706C63.0508 99.3632 62.2793 100.698 61.5644 101.925C58.1923 107.691 55.586 113.917 53.4783 120.391C52.7408 122.641 52.1053 125.069 51.5406 127.391C50.9759 129.713 50.5755 131.917 50.1836 134.304C51.1166 132.376 51.5387 129.998 51.9003 128.312C52.3961 126.038 53.1336 123.659 54.8948 122.139Z" fill="black"/>
</g>
<g opacity="0.3">
<path d="M134.862 79.0935C135.761 77.9141 135.499 76.2171 136.081 74.8536C137.05 72.5882 140.061 71.7779 141.104 69.5456C141.505 68.6863 141.605 67.6381 142.305 66.9997C142.89 66.4681 143.755 66.3604 144.383 65.8798C145.786 64.8052 145.203 62.3613 143.715 61.4104C139.983 59.0269 133.116 61.7824 129.892 64.1149C125.747 67.114 121.692 70.725 116.177 70.3728C114.657 70.2755 113.076 69.8582 111.651 70.3974C110.226 70.9366 109.349 73.0716 110.575 73.9753C111.257 74.4777 112.224 74.338 112.993 74.6949C114.414 75.354 114.557 77.4107 113.863 78.8159C113.169 80.221 111.918 81.2711 111.099 82.6073C110.304 83.901 109.94 85.4534 110.074 86.9653C110.168 88.0182 110.539 89.106 111.365 89.7652C113.082 91.1344 115.69 89.9616 117.144 88.3156C118.597 86.6697 119.6 84.5431 121.485 83.4166C122.426 82.8547 123.511 82.5941 124.576 82.34C126.972 81.7697 129.37 81.2003 131.767 80.6299C132.913 80.3598 134.149 80.0293 134.862 79.0935Z" fill="black"/>
</g>
<g opacity="0.3">
<path d="M239.291 148.832C239.284 147.461 239.242 146.102 239.17 144.751C239.096 143.4 239.044 142.028 238.909 140.688C238.803 139.604 238.71 138.521 238.559 137.452C238.412 136.322 238.262 135.024 238.074 133.907C237.511 130.554 236.894 127.569 235.98 124.34C235.626 123.098 235.023 121.773 234.623 120.551C234.222 119.33 233.797 118.118 233.345 116.914C233.345 116.914 233.345 116.914 233.345 116.899C232.864 115.996 232.352 115.107 231.795 114.234C226.51 105.864 218.832 99.2996 213.021 91.29C211.124 88.6856 209.648 86.5326 206.291 86.0207C201.323 85.253 198.808 88.0831 195.286 83.371C194.338 82.1066 192.681 80.9319 191.281 81.6845C191.643 82.693 192.018 83.7015 192.38 84.7251C192.456 84.9357 192.531 85.1624 192.501 85.388C192.425 86.0953 191.372 86.2918 190.77 85.8999C190.168 85.4929 189.866 84.7856 189.445 84.1982C187.879 81.9555 184.206 81.6684 182.294 83.6109C182.218 82.6628 181.587 81.7742 180.713 81.3832C180.518 83.235 178.395 84.6052 176.618 84.0179C176.331 83.099 177.973 82.9338 178.545 82.151C179.072 81.4135 178.439 80.3889 177.762 79.7722C175.971 78.2066 173.607 77.2878 171.213 77.2283C169.693 77.198 168.052 77.4842 166.727 76.7013C165.959 76.25 165.417 75.4964 164.634 75.0601C162.963 74.1111 160.87 74.9846 159.185 75.9185C156.881 77.198 154.503 78.809 153.69 81.3237C152.862 83.8224 154.683 87.2096 157.303 86.8942C157.966 86.8036 158.658 86.4882 159.305 86.6685C160.239 86.9244 160.66 88.0085 160.734 88.9717C160.81 89.9198 160.704 90.9444 161.172 91.7867C161.623 92.63 162.993 93.0511 163.52 92.2532C164.754 91.0794 164.604 89.1067 164.288 87.4353C163.987 85.7639 163.64 83.8819 164.634 82.5126C165.643 81.1424 168.504 81.5797 168.308 83.2652C168.187 84.2587 167.058 84.9811 167.103 85.9905C167.148 87.0142 168.397 87.5562 169.422 87.5109C170.446 87.4806 171.484 87.1048 172.478 87.3607C173.486 87.6015 174.284 88.9113 173.562 89.6488C172.313 91.0643 169.06 88.6403 168.413 90.4014C168.233 90.8528 168.413 91.3646 168.368 91.8471C168.247 93.3231 166.395 93.8642 164.92 94.0455C163.445 94.2107 161.88 94.3618 160.54 93.7291C159.2 93.0965 158.282 91.3353 159.05 90.0709C158.297 89.5288 157.153 90.0709 156.746 90.9142C156.34 91.7423 156.46 92.7357 156.581 93.6545C155.016 93.308 153.615 94.6328 152.727 95.9435C151.824 97.2684 150.965 98.8039 149.445 99.2704C147.91 99.7368 145.802 99.1051 145.004 100.489C143.965 102.296 146.976 104.585 145.923 106.376C145.32 107.385 143.876 107.355 142.731 107.671C139.705 108.529 138.652 112.955 140.714 115.319C142.761 117.683 146.902 117.547 149.084 115.289C150.605 113.738 151.222 111.555 152.321 109.688C153.421 107.836 155.498 106.15 157.576 106.752C158.389 106.993 159.081 107.565 159.729 108.107C160.737 108.95 161.746 109.794 162.754 110.652C163.402 111.194 164.109 111.871 164.049 112.714C163.988 113.392 163.462 113.918 163.236 114.551C162.604 116.373 165.239 118.104 166.894 117.11C168.565 116.117 168.731 113.573 167.601 112.006C166.036 109.838 162.497 108.754 162.588 106.074C164.394 104.599 167.24 106.15 168.294 108.242C169.347 110.32 169.378 112.789 170.266 114.942C171.154 117.11 173.638 119.022 175.716 117.968C175.174 116.101 174.647 114.249 174.105 112.397C175.43 111.404 176.95 114.294 178.531 113.813C179.494 113.511 179.615 112.126 179.193 111.193C178.787 110.26 178.033 109.476 177.853 108.468C177.552 106.631 179.599 104.99 181.452 105.291C183.288 105.593 184.628 107.354 184.975 109.175C185.11 109.898 185.14 110.665 185.456 111.328C186.149 112.774 187.941 113.21 189.416 113.813C190.906 114.415 192.442 115.905 191.825 117.38C191.539 118.028 190.862 118.645 191.102 119.308C191.328 119.895 192.202 120.151 192.202 120.783C192.186 121.204 191.75 121.49 191.358 121.656C190.365 122.062 189.281 122.198 188.317 122.665C187.353 123.116 186.48 124.05 186.556 125.104C186.675 126.609 188.468 127.331 189.31 128.582C190.123 129.771 190.002 131.352 190.515 132.706C190.997 133.956 191.99 134.934 192.788 136.003C195.288 139.405 195.875 143.786 197.094 147.821C197.636 149.643 198.63 151.675 200.496 152.021C201.52 152.202 202.544 151.811 203.508 151.434C206.203 150.365 209.003 149.221 210.885 147.038C212.782 144.84 213.414 141.272 211.472 139.119C211.231 138.833 210.915 138.577 210.553 138.532C210.041 138.472 209.59 138.818 209.138 139.029C207.768 139.661 206.082 139.134 204.937 138.126C203.808 137.132 203.116 135.732 202.439 134.377C201.701 132.887 200.963 131.381 200.21 129.875C201.099 129.123 202.513 129.438 203.432 130.177C204.336 130.914 204.893 131.983 205.631 132.887C207.873 135.687 211.563 136.922 215.13 137.343C216.034 137.449 216.967 137.523 217.81 137.9C220.475 139.12 221.243 143.05 224.059 143.892C224.842 144.133 225.715 144.087 226.453 144.434C227.567 144.961 228.123 146.225 228.455 147.415C229.072 149.629 229.283 151.962 230.216 154.07C231.135 156.177 233.017 158.09 235.305 158.119C236.734 158.149 238.03 157.483 239.069 156.475C239.189 154.397 239.325 152.247 239.325 150.139C239.322 149.705 239.322 149.268 239.291 148.832Z" fill="black"/>
</g>
<g opacity="0.3">
<path d="M200.783 188.319C199.366 188.599 199.083 189.432 198.313 190.482C197.31 191.848 195.874 193.217 194.962 194.564C193.415 196.851 194.808 200.417 192.773 202.341C192.359 202.732 191.822 202.989 191.45 203.422C190.633 204.373 190.938 205.987 191.938 206.744C192.938 207.5 194.404 207.447 195.483 206.808C196.563 206.169 197.281 205.037 197.656 203.84C197.926 202.978 198.077 202.002 198.756 201.408C199.922 200.388 201.731 201.145 203.265 200.93C209.787 200.017 206.984 187.099 200.783 188.319Z" fill="black"/>
</g>
<g opacity="0.3">
<path d="M202.994 170.356C206.749 167.108 208.266 159.765 203.601 158.067C201.836 157.425 199.802 157.943 198.05 157.265C195.766 156.379 194.699 153.814 193.873 151.507C191.706 145.45 189.538 139.394 187.371 133.337C186.065 129.688 184.083 125.459 180.245 124.922C178.071 124.618 175.962 125.655 173.803 126.048C166.368 127.4 153.864 109.409 148.207 121.519C147.416 118.226 142.066 119.462 140.357 122.385C138.649 125.309 138.288 129.182 135.577 131.212C133.51 132.761 130.479 132.853 128.79 134.806C127.602 136.18 127.398 138.123 127.249 139.934C126.961 143.395 126.675 146.855 126.389 150.316C126.158 153.108 125.967 156.094 127.349 158.531C128.73 160.967 132.341 162.321 134.41 160.432C135.362 159.562 135.763 158.25 136.54 157.221C137.792 155.564 140.085 154.773 142.094 155.305C143.782 155.754 145.133 157.001 146.322 158.281C156.001 168.702 159.467 183.539 159.894 197.756C159.973 200.357 159.975 203.031 160.932 205.452C162.054 208.288 164.418 210.581 165.114 213.552C165.648 215.833 165.147 218.342 166.125 220.47C167.928 224.39 173.945 224.556 177.22 221.749C180.496 218.941 181.633 214.41 182.296 210.147C182.958 205.883 183.391 201.391 185.777 197.796C187.257 195.567 189.434 193.783 190.47 191.314C191.917 187.866 190.845 183.775 192.189 180.285C193.971 175.654 199.24 173.604 202.994 170.356Z" fill="black"/>
</g>
<path d="M82.6879 333.134C67.0652 334.379 54.0715 321.383 55.3171 305.761C56.2973 293.467 66.256 283.507 78.5499 282.528C94.1726 281.283 107.167 294.279 105.922 309.902C104.942 322.196 94.9819 332.155 82.6879 333.134Z" fill="#FAFAFA"/>
<path d="M82.6952 333.137C82.6942 333.128 82.8321 333.103 83.1012 333.06C83.3921 333.018 83.7877 332.959 84.2948 332.885C84.8237 332.834 85.4611 332.678 86.2146 332.5C86.9767 332.357 87.8237 332.072 88.7775 331.755C90.6604 331.073 92.9249 330.057 95.2394 328.387C97.5492 326.726 99.9033 324.411 101.832 321.39C102.834 319.903 103.616 318.186 104.326 316.37C104.598 315.433 104.974 314.504 105.149 313.501C105.251 313.004 105.38 312.507 105.463 311.998C105.527 311.486 105.591 310.968 105.656 310.447C105.744 309.926 105.734 309.395 105.748 308.86C105.76 308.326 105.771 307.787 105.784 307.244C105.723 306.162 105.632 305.058 105.483 303.951C105.372 303.402 105.26 302.85 105.147 302.294C105.088 302.016 105.042 301.735 104.971 301.458L104.708 300.638C104.532 300.09 104.357 299.538 104.179 298.983C103.944 298.449 103.708 297.912 103.47 297.372L103.11 296.56C102.977 296.294 102.817 296.042 102.67 295.782C102.371 295.264 102.071 294.744 101.768 294.22C101.413 293.73 101.057 293.238 100.698 292.742L100.155 292.001L99.5351 291.314C97.9524 289.409 95.942 287.828 93.7889 286.443C93.2318 286.123 92.6728 285.801 92.1118 285.478C91.5349 285.187 90.9277 284.946 90.3337 284.676C90.0334 284.548 89.7388 284.403 89.4328 284.288L88.4932 283.989C87.8615 283.806 87.2458 283.553 86.5942 283.425C84.0125 282.785 81.3033 282.64 78.5836 282.776C73.1378 283.222 68.0555 285.508 64.1782 288.873C60.2631 292.23 57.6464 296.684 56.3574 301.217C55.7559 303.503 55.4688 305.803 55.4877 308.044C55.4462 308.605 55.5179 309.158 55.5633 309.707C55.6105 310.257 55.6577 310.803 55.704 311.344C55.9108 312.408 56.0807 313.469 56.3555 314.481C57.4802 318.54 59.5303 321.999 61.9156 324.658C64.3038 327.332 67.0111 329.211 69.5457 330.497C70.1953 330.788 70.8233 331.07 71.4277 331.34C72.0349 331.604 72.6572 331.756 73.2322 331.958C74.3796 332.391 75.4948 332.529 76.4731 332.756C78.4552 333.058 80.02 333.177 81.0785 333.124C81.5903 333.123 81.9907 333.122 82.2854 333.12C82.5545 333.123 82.6942 333.128 82.6952 333.137C82.6961 333.145 82.5573 333.157 82.2854 333.172C81.9907 333.185 81.5903 333.203 81.0776 333.225C80.0162 333.311 78.4411 333.223 76.4391 332.948C75.4514 332.733 74.3229 332.608 73.1614 332.186C72.5778 331.988 71.948 331.841 71.3323 331.58C70.7185 331.313 70.082 331.035 69.422 330.748C66.8478 329.471 64.0923 327.589 61.655 324.893C59.2206 322.212 57.1195 318.713 55.9608 314.591C55.6775 313.563 55.499 312.486 55.2856 311.404C55.2365 310.854 55.1865 310.3 55.1364 309.741C55.0883 309.182 55.0146 308.621 55.0543 308.05C55.0278 305.772 55.313 303.429 55.9193 301.099C57.2196 296.48 59.8769 291.936 63.8609 288.511C67.8062 285.077 72.9886 282.743 78.543 282.287C81.3146 282.146 84.0767 282.297 86.7094 282.95C87.3733 283.082 88.0013 283.339 88.6453 283.526L89.6028 283.831C89.9154 283.949 90.2157 284.097 90.5216 284.227C91.1269 284.504 91.7445 284.749 92.3328 285.048C92.9051 285.377 93.4745 285.707 94.0411 286.034C96.2347 287.446 98.2782 289.061 99.8882 291.004L100.517 291.705L101.071 292.461C101.434 292.966 101.797 293.468 102.156 293.968C102.463 294.501 102.768 295.033 103.072 295.56C103.22 295.825 103.382 296.083 103.517 296.353L103.882 297.181C104.123 297.732 104.361 298.279 104.599 298.823C104.779 299.389 104.956 299.952 105.134 300.51L105.398 301.345C105.47 301.626 105.516 301.913 105.576 302.195C105.689 302.762 105.801 303.325 105.912 303.883C106.06 305.009 106.149 306.132 106.206 307.232C106.192 307.785 106.177 308.332 106.163 308.875C106.146 309.418 106.155 309.959 106.063 310.486C105.995 311.016 105.927 311.541 105.861 312.063C105.774 312.58 105.641 313.084 105.535 313.589C105.353 314.606 104.967 315.549 104.685 316.499C103.955 318.339 103.151 320.076 102.126 321.577C100.152 324.628 97.7513 326.952 95.4009 328.61C93.0448 330.277 90.7483 331.276 88.8408 331.936C87.8757 332.241 87.0192 332.513 86.2486 332.643C85.4875 332.806 84.8444 332.947 84.3109 332.983C83.8 333.037 83.4015 333.079 83.1078 333.11C82.834 333.136 82.6952 333.145 82.6952 333.137Z" fill="black"/>
<path d="M246.8 160.849C246.661 160.833 246.84 158.338 247.002 155.262C247.168 152.184 247.257 149.685 247.397 149.684C247.528 149.682 247.661 152.194 247.493 155.287C247.331 158.382 246.931 160.865 246.8 160.849Z" fill="black"/>
<path d="M242.012 182.664C241.88 182.619 242.595 180.222 243.415 177.252C244.241 174.283 244.861 171.86 244.998 171.889C245.127 171.915 244.718 174.397 243.889 177.383C243.064 180.37 242.137 182.708 242.012 182.664Z" fill="black"/>
<path d="M232.629 202.921C232.51 202.848 233.725 200.662 235.168 197.94C236.616 195.221 237.747 192.99 237.874 193.048C237.994 193.102 237.058 195.436 235.602 198.171C234.151 200.908 232.741 202.991 232.629 202.921Z" fill="black"/>
<path d="M219.102 220.685C219.001 220.589 220.656 218.714 222.649 216.366C224.646 214.021 226.23 212.087 226.341 212.171C226.447 212.249 225.031 214.326 223.024 216.685C221.02 219.045 219.196 220.777 219.102 220.685Z" fill="black"/>
<path d="M202.096 235.147C202.018 235.031 204.036 233.553 206.486 231.685C208.939 229.82 210.901 228.268 210.991 228.374C211.078 228.473 209.251 230.202 206.783 232.076C204.321 233.954 202.169 235.256 202.096 235.147Z" fill="black"/>
<path d="M182.376 245.622C182.325 245.492 184.615 244.484 187.408 243.187C190.205 241.893 192.454 240.799 192.52 240.922C192.583 241.037 190.427 242.332 187.615 243.634C184.806 244.939 182.423 245.746 182.376 245.622Z" fill="black"/>
<path d="M160.863 251.581C160.842 251.443 163.295 250.955 166.303 250.293C169.313 249.636 171.745 249.053 171.783 249.187C171.819 249.314 169.435 250.112 166.407 250.773C163.383 251.439 160.883 251.711 160.863 251.581Z" fill="black"/>
<path d="M138.563 252.781C138.571 252.645 141.074 252.602 144.154 252.684C147.234 252.602 149.737 252.645 149.745 252.781C149.754 252.916 147.251 253.094 144.154 253.176C141.057 253.094 138.554 252.917 138.563 252.781Z" fill="black"/>
<path d="M116.52 249.189C116.558 249.055 118.991 249.638 122.002 250.295C125.011 250.957 127.465 251.445 127.444 251.583C127.424 251.713 124.923 251.441 121.897 250.775C118.868 250.115 116.483 249.316 116.52 249.189Z" fill="black"/>
<path d="M95.7787 240.922C95.8448 240.799 98.0942 241.894 100.89 243.187C103.685 244.485 105.974 245.492 105.923 245.622C105.876 245.745 103.495 244.939 100.683 243.633C97.8713 242.332 95.7145 241.037 95.7787 240.922Z" fill="black"/>
<path d="M77.3155 228.378C77.4071 228.272 79.3675 229.824 81.8198 231.687C84.2694 233.555 86.2864 235.032 86.209 235.148C86.1363 235.257 83.9851 233.956 81.5214 232.078C79.0558 230.204 77.2286 228.477 77.3155 228.378Z" fill="black"/>
<path d="M61.9549 212.171C62.0663 212.087 63.6508 214.022 65.6481 216.368C67.6424 218.718 69.2978 220.592 69.1968 220.689C69.1023 220.781 67.2789 219.049 65.2732 216.687C63.2646 214.328 61.8482 212.249 61.9549 212.171Z" fill="black"/>
<path d="M50.4284 193.044C50.5559 192.986 51.6863 195.218 53.1339 197.937C54.5777 200.659 55.7931 202.845 55.6731 202.918C55.5617 202.988 54.1509 200.905 52.6995 198.167C51.2443 195.433 50.3076 193.098 50.4284 193.044Z" fill="black"/>
<path d="M43.3009 171.891C43.4378 171.862 44.0582 174.285 44.8835 177.251C45.7032 180.221 46.418 182.616 46.2858 182.662C46.1612 182.705 45.2339 180.369 44.4095 177.382C43.5804 174.399 43.1715 171.917 43.3009 171.891Z" fill="black"/>
<path d="M40.9092 149.693C41.0489 149.694 41.1368 152.194 41.3039 155.27C41.4654 158.348 41.6457 160.842 41.5069 160.858C41.3766 160.874 40.9753 158.391 40.8129 155.297C40.6457 152.203 40.7779 149.691 40.9092 149.693Z" fill="black"/>
<path d="M43.2951 127.491C43.4321 127.522 42.9816 129.983 42.4906 133.024C41.9929 136.066 41.6388 138.543 41.5 138.529C41.3687 138.516 41.5057 136.004 42.0052 132.946C42.4991 129.886 43.1667 127.46 43.2951 127.491Z" fill="black"/>
<path d="M50.4262 106.327C50.5527 106.387 49.581 108.693 48.4422 111.555C47.2986 114.417 46.4176 116.758 46.2844 116.714C46.1589 116.673 46.835 114.251 47.9852 111.373C49.1306 108.494 50.3072 106.271 50.4262 106.327Z" fill="black"/>
<path d="M61.9522 87.2095C62.0627 87.2945 60.6188 89.3371 58.8907 91.8857C57.1579 94.4325 55.7924 96.527 55.6716 96.4562C55.5582 96.3901 56.7405 94.171 58.4837 91.61C60.2222 89.0462 61.8483 87.1283 61.9522 87.2095Z" fill="black"/>
<path d="M77.3031 71.0009C77.3928 71.1076 75.5458 72.7942 73.3115 74.9151C71.0735 77.0332 69.2907 78.7868 69.1877 78.6914C69.0905 78.6017 70.7222 76.6876 72.9725 74.5581C75.22 72.4259 77.2191 70.8989 77.3031 71.0009Z" fill="black"/>
<path d="M95.7756 58.4541C95.8408 58.5778 93.6736 59.829 91.0371 61.4221C88.3968 63.0114 86.2806 64.3428 86.2013 64.2286C86.1257 64.1209 88.1286 62.5996 90.7831 61.0019C93.4357 59.3984 95.7161 58.337 95.7756 58.4541Z" fill="black"/>
<path d="M116.502 50.1844C116.539 50.3195 114.154 51.0711 111.237 52.057C108.317 53.0381 105.964 53.8823 105.911 53.753C105.861 53.6311 108.143 52.5782 111.079 51.5914C114.014 50.599 116.469 50.0569 116.502 50.1844Z" fill="black"/>
<path d="M138.548 46.5915C138.555 46.7313 136.063 46.9522 132.999 47.2846C129.935 47.6114 127.453 47.9268 127.43 47.7889C127.407 47.6595 129.865 47.1241 132.947 46.7955C136.028 46.4612 138.543 46.4593 138.548 46.5915Z" fill="black"/>
<path d="M160.855 47.7867C160.831 47.9245 158.348 47.6091 155.285 47.2833C152.221 46.9519 149.729 46.7309 149.734 46.5912C149.74 46.4599 152.256 46.4608 155.337 46.7942C158.419 47.1228 160.878 47.6573 160.855 47.7867Z" fill="black"/>
<path d="M182.37 53.749C182.317 53.8784 179.963 53.0342 177.042 52.0531C174.122 51.0672 171.737 50.3155 171.774 50.1805C171.807 50.053 174.263 50.596 177.2 51.5875C180.136 52.5734 182.42 53.6272 182.37 53.749Z" fill="black"/>
<path d="M202.084 64.2199C202.004 64.3351 199.887 63.0027 197.248 61.4153C194.61 59.8222 192.445 58.572 192.509 58.4483C192.57 58.3312 194.849 59.3916 197.502 60.9941C200.156 62.5919 202.159 64.1122 202.084 64.2199Z" fill="black"/>
<path d="M219.092 78.6786C218.99 78.774 217.206 77.0204 214.968 74.9033C212.733 72.7824 210.886 71.0958 210.976 70.9891C211.06 70.8881 213.059 72.4131 215.307 74.5463C217.558 76.6757 219.189 78.5899 219.092 78.6786Z" fill="black"/>
<path d="M232.621 96.4454C232.501 96.5172 231.135 94.4218 229.401 91.875C227.671 89.3244 226.227 87.2828 226.338 87.1978C226.442 87.1166 228.069 89.0345 229.808 91.5992C231.552 94.1602 232.736 96.3793 232.621 96.4454Z" fill="black"/>
<path d="M242.008 116.703C241.875 116.746 240.994 114.405 239.851 111.545C238.712 108.682 237.74 106.378 237.867 106.317C237.986 106.261 239.162 108.483 240.308 111.363C241.458 114.24 242.134 116.663 242.008 116.703Z" fill="black"/>
<path d="M246.795 138.507C246.656 138.521 246.301 136.045 245.803 133.006C245.311 129.964 244.861 127.504 244.998 127.473C245.126 127.443 245.794 129.868 246.288 132.926C246.789 135.983 246.926 138.494 246.795 138.507Z" fill="black"/>
<path d="M89.9483 284.161C89.8246 284.105 93.5943 275.545 98.3677 265.046C103.142 254.542 107.112 246.075 107.236 246.131C107.359 246.188 103.591 254.745 98.8153 265.249C94.0419 275.748 90.071 284.217 89.9483 284.161Z" fill="black"/>
<path d="M82.9875 308.261C85.3086 307.288 86.9584 304.895 86.9725 302.074C86.9876 298.38 84.1915 295.372 80.7278 295.356C77.265 295.339 74.4434 298.322 74.4283 302.016C74.417 304.862 76.079 307.284 78.4246 308.26C68.7728 309.715 69.21 320.205 69.21 320.205L92.035 320.31C92.035 320.31 92.5562 309.706 82.9875 308.261Z" fill="#FF725E"/>
<path d="M271.562 269.473C257.312 275.996 240.652 268.241 236.467 253.137C233.174 241.252 239.117 228.482 250.331 223.349C264.581 216.826 281.242 224.58 285.426 239.684C288.72 251.57 282.776 264.34 271.562 269.473Z" fill="#FAFAFA"/>
<path d="M271.555 269.474C271.551 269.466 271.672 269.395 271.91 269.263C272.169 269.124 272.521 268.933 272.972 268.69C273.45 268.461 273.996 268.096 274.643 267.671C275.31 267.275 276.008 266.716 276.795 266.092C278.331 264.806 280.109 263.076 281.711 260.713C283.312 258.361 284.729 255.38 285.506 251.881C285.938 250.141 286.084 248.26 286.13 246.31C286.064 245.336 286.098 244.334 285.919 243.333C285.844 242.831 285.795 242.32 285.699 241.813C285.583 241.31 285.466 240.802 285.348 240.29C285.252 239.772 285.06 239.276 284.891 238.769C284.719 238.263 284.545 237.752 284.37 237.238C283.944 236.242 283.479 235.236 282.96 234.247C282.667 233.77 282.372 233.29 282.076 232.805C281.925 232.565 281.785 232.316 281.623 232.081L281.096 231.401C280.744 230.946 280.389 230.488 280.032 230.027C279.629 229.606 279.222 229.183 278.813 228.757L278.196 228.118C277.98 227.915 277.743 227.732 277.517 227.538C277.059 227.155 276.598 226.768 276.134 226.38C275.633 226.041 275.129 225.701 274.622 225.359L273.857 224.849L273.04 224.416C270.899 223.169 268.469 222.373 265.971 221.81C265.339 221.699 264.703 221.589 264.065 221.477C263.423 221.401 262.77 221.383 262.12 221.332C261.794 221.315 261.467 221.279 261.14 221.276L260.155 221.318C259.499 221.362 258.834 221.336 258.179 221.439C255.534 221.722 252.939 222.513 250.431 223.574C245.469 225.86 241.477 229.749 238.988 234.239C236.461 238.734 235.529 243.815 235.871 248.515C236.09 250.868 236.607 253.127 237.394 255.227C237.548 255.768 237.804 256.263 238.035 256.763C238.267 257.264 238.499 257.761 238.728 258.253C239.287 259.182 239.81 260.12 240.416 260.977C242.863 264.406 245.975 266.951 249.126 268.632C252.286 270.325 255.474 271.163 258.295 271.503C259.005 271.554 259.691 271.602 260.352 271.65C261.013 271.69 261.649 271.619 262.259 271.612C263.485 271.625 264.58 271.372 265.577 271.25C267.542 270.854 269.054 270.43 270.029 270.018C270.51 269.84 270.885 269.701 271.161 269.6C271.418 269.51 271.551 269.466 271.555 269.474C271.559 269.481 271.432 269.54 271.182 269.648C270.91 269.761 270.54 269.915 270.066 270.111C269.098 270.555 267.588 271.012 265.614 271.44C264.613 271.577 263.51 271.846 262.273 271.847C261.657 271.862 261.014 271.938 260.346 271.905C259.678 271.864 258.984 271.821 258.266 271.777C255.41 271.46 252.177 270.636 248.963 268.939C245.758 267.256 242.584 264.688 240.082 261.213C239.464 260.344 238.926 259.393 238.355 258.451C238.12 257.951 237.884 257.447 237.645 256.94C237.409 256.431 237.146 255.929 236.988 255.379C236.181 253.247 235.647 250.948 235.418 248.553C235.057 243.767 235.996 238.588 238.565 234.006C241.094 229.428 245.162 225.458 250.224 223.126C252.779 222.044 255.426 221.239 258.123 220.951C258.792 220.847 259.47 220.874 260.139 220.829L261.143 220.787C261.476 220.79 261.81 220.826 262.142 220.844C262.806 220.896 263.47 220.916 264.125 220.994C264.776 221.108 265.424 221.221 266.068 221.335C268.613 221.91 271.086 222.727 273.264 224.002L274.095 224.444L274.874 224.965C275.389 225.315 275.902 225.663 276.411 226.009C276.882 226.406 277.35 226.8 277.817 227.191C278.047 227.391 278.288 227.577 278.507 227.784L279.133 228.437C279.548 228.872 279.96 229.304 280.37 229.734C280.733 230.204 281.093 230.671 281.45 231.135L281.984 231.829C282.148 232.069 282.29 232.323 282.443 232.567C282.743 233.061 283.042 233.551 283.337 234.038C283.862 235.045 284.331 236.07 284.761 237.084C284.937 237.607 285.112 238.127 285.284 238.642C285.454 239.158 285.647 239.663 285.742 240.19C285.86 240.711 285.977 241.228 286.093 241.739C286.188 242.255 286.236 242.774 286.31 243.284C286.487 244.302 286.448 245.32 286.509 246.309C286.454 248.288 286.293 250.196 285.845 251.957C285.036 255.499 283.577 258.506 281.938 260.868C280.297 263.242 278.481 264.968 276.915 266.241C276.112 266.858 275.401 267.408 274.722 267.793C274.063 268.208 273.507 268.561 273.019 268.776C272.557 269.002 272.197 269.178 271.932 269.308C271.686 269.426 271.559 269.481 271.555 269.474Z" fill="black"/>
<path d="M263.312 245.789C265.633 244.815 267.284 242.422 267.297 239.602C267.312 235.907 264.516 232.899 261.052 232.883C257.589 232.867 254.768 235.849 254.753 239.543C254.741 242.389 256.403 244.811 258.749 245.788C249.097 247.242 249.534 257.732 249.534 257.732L272.359 257.837C272.359 257.839 272.879 247.234 263.312 245.789Z" fill="#FF725E"/>
<path d="M240.866 230.908C240.782 231.015 236.665 227.895 231.672 223.941C226.678 219.985 222.699 216.693 222.783 216.587C222.867 216.48 226.983 219.6 231.977 223.555C236.971 227.509 240.951 230.801 240.866 230.908Z" fill="black"/>
<path d="M27.6528 67.8278C12.0301 69.0724 -0.963615 56.0768 0.28193 40.4541C1.26212 28.1601 11.2208 18.2005 23.5148 17.2213C39.1375 15.9767 52.1321 28.9722 50.8866 44.5949C49.9064 56.8889 39.9467 66.8485 27.6528 67.8278Z" fill="#FAFAFA"/>
<path d="M27.6522 67.8261C27.6513 67.8176 27.7891 67.7921 28.0583 67.7496C28.3491 67.7071 28.7448 67.6486 29.2519 67.574C29.7807 67.523 30.4181 67.3672 31.1717 67.1896C31.9337 67.0461 32.7808 66.7609 33.7345 66.4446C35.6175 65.7628 37.881 64.7467 40.1964 63.0762C42.5062 61.4152 44.8604 59.1007 46.7887 56.0798C47.7906 54.5925 48.5734 52.8758 49.2835 51.0599C49.5545 50.1222 49.9313 49.193 50.106 48.1901C50.208 47.6934 50.3374 47.1967 50.4205 46.6877C50.4837 46.175 50.548 45.6575 50.6131 45.1362C50.7009 44.6168 50.6905 44.0842 50.7047 43.5498C50.717 43.0153 50.7283 42.4761 50.7406 41.9331C50.6802 40.8509 50.5895 39.747 50.4403 38.6403C50.3289 38.0917 50.2174 37.5392 50.1041 36.983C50.0446 36.7054 49.9993 36.424 49.9266 36.1473L49.6641 35.3277C49.4884 34.779 49.3128 34.2275 49.1353 33.6723C48.9001 33.1387 48.6641 32.6014 48.4261 32.0613L48.0663 31.2492C47.9332 30.9838 47.7726 30.7317 47.6263 30.4711C47.3269 29.9536 47.0266 29.4333 46.7244 28.9092C46.3694 28.4191 46.0134 27.9271 45.6545 27.4313L45.1106 26.6901L44.4911 26.0035C42.9075 24.0979 40.898 22.5171 38.745 21.1328C38.1888 20.8127 37.6288 20.4907 37.0679 20.1677C36.4909 19.8759 35.8838 19.6351 35.2898 19.365C34.9895 19.2376 34.6949 19.0921 34.3889 18.9769L33.4493 18.6785C32.8176 18.4953 32.2019 18.2423 31.5503 18.1148C28.9686 17.4745 26.2594 17.3291 23.5397 17.4651C18.0939 17.9117 13.0116 20.197 9.13429 23.5625C5.22012 26.9195 2.6025 31.3738 1.31351 35.9065C0.711986 38.1927 0.424911 40.4921 0.443797 42.7348C0.402247 43.2957 0.474017 43.8482 0.519344 44.3978C0.566559 44.9473 0.612832 45.4932 0.660048 46.0342C0.866852 47.0985 1.03682 48.1589 1.31256 49.1722C2.43629 53.2318 4.48733 56.6898 6.87266 59.349C9.26082 62.0233 11.9682 63.9025 14.5027 65.1896C15.1524 65.4804 15.7803 65.7618 16.3847 66.0319C16.9919 66.2963 17.6142 66.4483 18.1893 66.6504C19.3366 67.0829 20.4518 67.2208 21.4301 67.4484C23.4123 67.7506 24.977 67.8695 26.0355 67.8167C26.5474 67.8148 26.9477 67.8129 27.2424 67.8119C27.5115 67.8129 27.6513 67.8176 27.6522 67.8261C27.6532 67.8346 27.5143 67.8459 27.2424 67.861C26.9477 67.8743 26.5474 67.8922 26.0346 67.9139C24.9732 67.9998 23.3981 67.9111 21.3962 67.6363C20.4084 67.4219 19.2799 67.2963 18.1184 66.8733C17.5349 66.6759 16.905 66.5286 16.2893 66.268C15.6755 66.0007 15.0391 65.7222 14.379 65.4351C11.8048 64.1584 9.04929 62.2764 6.61203 59.5804C4.1776 56.8995 2.07745 53.4008 0.91784 49.2789C0.634547 48.2505 0.456076 47.174 0.242661 46.0918C0.193557 45.5413 0.143504 44.987 0.093456 44.4289C0.0452962 43.8699 -0.0283509 43.308 0.0113101 42.7377C-0.0151306 40.4581 0.270051 38.1162 0.876299 35.7866C2.17661 31.167 4.83389 26.6239 8.81794 23.1989C12.7633 19.7645 17.9447 17.4292 23.5001 16.974C26.2716 16.8333 29.0337 16.9844 31.6655 17.6379C32.3294 17.7692 32.9573 18.026 33.6014 18.2139L34.5589 18.5189C34.8715 18.636 35.1718 18.7843 35.4777 18.9146C36.083 19.1913 36.7006 19.4368 37.2889 19.7352C37.8611 20.0648 38.4306 20.3934 38.9971 20.7211C41.1908 22.1338 43.2343 23.7485 44.8443 25.6919L45.4742 26.3926L46.0275 27.148C46.3911 27.6532 46.7537 28.1556 47.1135 28.6552C47.4204 29.1887 47.7254 29.7194 48.0285 30.2473C48.1768 30.5126 48.3392 30.7704 48.4743 31.0405L48.8388 31.8686C49.0796 32.4192 49.3185 32.9669 49.5564 33.5108C49.7358 34.0764 49.9134 34.6393 50.0909 35.1973L50.3544 36.0321C50.4271 36.3135 50.4724 36.6006 50.5328 36.8829C50.6462 37.4495 50.7576 38.0123 50.869 38.5704C51.0173 39.697 51.106 40.8198 51.1627 41.9199C51.1485 42.4723 51.1344 43.0191 51.1202 43.563C51.1032 44.106 51.1117 44.6461 51.0201 45.174C50.9521 45.7037 50.8841 46.2297 50.818 46.75C50.7312 47.2675 50.598 47.7718 50.4922 48.276C50.31 49.2931 49.9238 50.2364 49.6433 51.1864C48.9124 53.0269 48.1088 54.7635 47.0833 56.2649C45.1087 59.315 42.7083 61.6399 40.3579 63.2972C38.0028 64.9648 35.7053 65.9639 33.7978 66.623C32.8317 66.9281 31.9762 67.2 31.2057 67.3303C30.4445 67.4937 29.8005 67.6344 29.2679 67.6703C28.7571 67.7241 28.3585 67.7666 28.0649 67.7978C27.792 67.8251 27.6532 67.8346 27.6522 67.8261Z" fill="black"/>
<path d="M27.9485 42.8806C30.2696 41.907 31.9203 39.5132 31.9335 36.6934C31.9486 32.9993 29.1525 29.9917 25.6887 29.9747C22.226 29.9586 19.4044 32.9408 19.3892 36.6349C19.377 39.481 21.0399 41.9032 23.3856 42.8806C13.7338 44.3348 14.171 54.8251 14.171 54.8251L36.9959 54.93C36.9959 54.93 37.5162 44.3263 27.9485 42.8806Z" fill="#FF725E"/>
<path d="M66.9402 81.1402C66.8542 81.245 61.3149 76.8275 54.5706 71.2749C47.8236 65.7205 42.4259 61.134 42.5128 61.0292C42.5987 60.9244 48.1371 65.3409 54.8832 70.8953C61.6275 76.4479 67.027 81.0353 66.9402 81.1402Z" fill="black"/>
<path d="M192.47 36.7807C181.202 37.6778 171.83 28.3046 172.728 17.0371C173.434 8.17002 180.618 0.986655 189.485 0.28031C200.754 -0.617729 210.126 8.75549 209.228 20.0239C208.522 28.8901 201.338 36.0744 192.47 36.7807Z" fill="#FAFAFA"/>
<path d="M192.475 36.7809C192.474 36.7724 192.573 36.7516 192.767 36.7186C192.987 36.6846 193.27 36.6402 193.626 36.5854C194.007 36.5467 194.466 36.4325 195.008 36.3022C195.556 36.1964 196.165 35.9886 196.852 35.7592C198.207 35.2644 199.835 34.5287 201.5 33.3238C203.161 32.1255 204.851 30.4569 206.237 28.2821C206.956 27.2113 207.517 25.9761 208.027 24.6692C208.465 23.3368 208.853 21.9184 208.979 20.4085C209.307 17.4018 208.827 14.0958 207.401 11.0098C207.097 10.2137 206.589 9.50924 206.176 8.74435C205.921 8.39212 205.664 8.03895 205.406 7.68294L205.016 7.15035L204.57 6.65742C203.432 5.28817 201.986 4.15311 200.438 3.15875C198.881 2.15778 197.103 1.48733 195.268 0.990618C193.413 0.530739 191.467 0.425919 189.512 0.524127C185.6 0.845193 181.947 2.4864 179.16 4.90478C176.346 7.31655 174.464 10.5168 173.536 13.7737C172.679 17.0562 172.711 20.4 173.528 23.3094C174.334 26.2292 175.806 28.7175 177.52 30.6325C179.236 32.558 181.181 33.914 183.005 34.8432C183.472 35.0538 183.923 35.2568 184.358 35.4523C184.794 35.643 185.243 35.7535 185.656 35.8999C186.482 36.2134 187.284 36.3144 187.989 36.4806C189.416 36.7025 190.543 36.7923 191.306 36.7583C191.667 36.7601 191.953 36.7611 192.176 36.762C192.374 36.7658 192.475 36.7724 192.475 36.7809C192.476 36.7894 192.376 36.7998 192.18 36.813C191.958 36.8244 191.67 36.8395 191.309 36.8584C190.543 36.9245 189.405 36.865 187.958 36.6704C187.245 36.5184 186.43 36.4287 185.589 36.1256C185.167 35.9839 184.712 35.8782 184.266 35.6912C183.822 35.4985 183.362 35.2984 182.885 35.0915C181.023 34.1718 179.028 32.8139 177.263 30.8667C175.5 28.9299 173.978 26.4001 173.137 23.4189C172.284 20.4462 172.232 17.0259 173.101 13.6548C174.04 10.31 175.963 7.02193 178.846 4.54217C181.701 2.0558 185.452 0.364539 189.474 0.034975C191.48 -0.0670105 193.48 0.0425297 195.385 0.516573C197.27 1.0265 199.095 1.71962 200.692 2.74987C202.28 3.77255 203.759 4.94256 204.924 6.34958L205.379 6.85667L205.779 7.40343C206.043 7.76888 206.305 8.13338 206.565 8.49505C206.987 9.27883 207.503 10.005 207.814 10.8218C209.264 13.9909 209.739 17.381 209.386 20.451C209.248 21.9949 208.843 23.4425 208.385 24.7995C207.855 26.13 207.272 27.386 206.53 28.471C205.1 30.675 203.362 32.3531 201.661 33.5485C199.957 34.7507 198.295 35.4693 196.916 35.9414C196.218 36.1596 195.599 36.3541 195.043 36.4457C194.492 36.5618 194.028 36.661 193.642 36.6846C193.282 36.7195 192.995 36.7479 192.773 36.7696C192.576 36.7847 192.476 36.7894 192.475 36.7809Z" fill="black"/>
<path d="M192.688 18.8403C194.362 18.1377 195.552 16.4115 195.563 14.3775C195.574 11.7127 193.557 9.54357 191.058 9.53129C188.561 9.51996 186.526 11.6702 186.515 14.335C186.507 16.3879 187.706 18.1349 189.398 18.8394C182.436 19.8885 182.752 27.4552 182.752 27.4552L199.215 27.5308C199.213 27.5317 199.589 19.8828 192.688 18.8403Z" fill="#FF725E"/>
<path d="M186.179 36.1998C186.304 36.2546 184.855 39.8553 182.944 44.2435C181.033 48.6326 179.382 52.1454 179.257 52.0907C179.133 52.0369 180.581 48.4353 182.493 44.047C184.404 39.6598 186.055 36.146 186.179 36.1998Z" fill="black"/>
<path d="M281.09 142.183C266.62 143.336 254.584 131.297 255.737 116.827C256.644 105.439 265.869 96.2145 277.257 95.307C291.728 94.154 303.765 106.191 302.612 120.663C301.704 132.051 292.479 141.276 281.09 142.183Z" fill="#FAFAFA"/>
<path d="M281.095 142.183C281.094 142.175 281.222 142.15 281.471 142.111C281.743 142.07 282.109 142.016 282.576 141.946C283.065 141.898 283.655 141.754 284.353 141.588C285.058 141.455 285.842 141.19 286.725 140.896C288.468 140.264 290.564 139.322 292.707 137.774C294.845 136.236 297.024 134.092 298.808 131.294C299.736 129.918 300.46 128.327 301.117 126.647C301.682 124.932 302.183 123.106 302.347 121.163C302.773 117.293 302.155 113.034 300.321 109.061L299.988 108.309C299.864 108.063 299.716 107.83 299.581 107.589C299.304 107.111 299.026 106.628 298.746 106.144C298.417 105.69 298.088 105.234 297.755 104.776L297.251 104.09L296.677 103.454C295.211 101.69 293.351 100.228 291.358 98.9462C289.352 97.6562 287.062 96.7922 284.698 96.1529C282.308 95.5608 279.801 95.4258 277.284 95.5523C272.243 95.9659 267.539 98.0812 263.951 101.196C260.328 104.303 257.906 108.426 256.711 112.621C256.155 114.737 255.888 116.865 255.905 118.941C255.867 119.46 255.933 119.972 255.974 120.481C256.018 120.99 256.061 121.494 256.104 121.996C256.296 122.981 256.453 123.963 256.707 124.901C257.747 128.659 259.645 131.86 261.852 134.322C264.062 136.798 266.568 138.538 268.914 139.731C269.516 140.001 270.097 140.261 270.657 140.512C271.218 140.756 271.795 140.898 272.328 141.085C273.39 141.486 274.423 141.614 275.328 141.825C277.163 142.106 278.612 142.218 279.593 142.169C280.065 142.168 280.435 142.167 280.71 142.167C280.965 142.17 281.094 142.176 281.095 142.183C281.096 142.192 280.968 142.203 280.715 142.217C280.44 142.23 280.069 142.247 279.596 142.268C278.613 142.349 277.153 142.268 275.299 142.014C274.384 141.817 273.338 141.701 272.261 141.309C271.721 141.127 271.136 140.99 270.566 140.749C269.997 140.501 269.407 140.244 268.795 139.977C266.41 138.795 263.856 137.052 261.596 134.554C259.339 132.071 257.392 128.828 256.316 125.007C256.053 124.054 255.888 123.056 255.69 122.053C255.645 121.544 255.599 121.03 255.551 120.511C255.507 119.994 255.439 119.473 255.475 118.944C255.45 116.831 255.714 114.659 256.277 112.5C257.482 108.217 259.944 104.007 263.638 100.831C267.294 97.6477 272.099 95.4824 277.248 95.0603C279.817 94.93 282.377 95.0698 284.817 95.676C287.231 96.3295 289.567 97.2162 291.614 98.5345C293.647 99.8442 295.541 101.342 297.033 103.143L297.617 103.792L298.129 104.493C298.467 104.961 298.802 105.427 299.136 105.891C299.42 106.385 299.704 106.877 299.984 107.367C300.121 107.613 300.272 107.852 300.397 108.102L300.735 108.87C302.594 112.928 303.205 117.27 302.755 121.204C302.579 123.181 302.061 125.037 301.476 126.775C300.799 128.48 300.053 130.09 299.103 131.481C297.272 134.308 295.047 136.462 292.869 137.996C290.685 139.54 288.556 140.466 286.788 141.076C285.893 141.358 285.1 141.609 284.386 141.729C283.681 141.88 283.085 142.01 282.591 142.043C282.12 142.092 281.75 142.13 281.477 142.159C281.224 142.184 281.096 142.192 281.095 142.183Z" fill="black"/>
<path d="M281.367 119.144C283.517 118.242 285.046 116.024 285.058 113.413C285.072 109.99 282.482 107.205 279.273 107.19C276.065 107.174 273.452 109.937 273.438 113.359C273.427 115.995 274.967 118.239 277.14 119.144C268.199 120.49 268.604 130.208 268.604 130.208L289.747 130.305C289.747 130.305 290.229 120.483 281.367 119.144Z" fill="#FF725E"/>
<path d="M256.384 124.515C256.418 124.647 253.896 125.412 250.752 126.226C247.607 127.04 245.03 127.593 244.996 127.461C244.962 127.329 247.484 126.564 250.629 125.75C253.773 124.937 256.349 124.384 256.384 124.515Z" fill="black"/>
</svg>
