<svg version="1.2" xmlns="http://www.w3.org/2000/svg" viewBox="0 0 253 234" width="253" height="234">
	<defs>
		<linearGradient id="g1" x2="1" gradientUnits="userSpaceOnUse" gradientTransform="matrix(0,313.582,-338.734,0,122.832,-36.188)">
			<stop offset="0" stop-color="#c6e4b5"/>
			<stop offset=".505" stop-color="#5d8049"/>
			<stop offset="1" stop-color="#c6e4b5"/>
		</linearGradient>
	</defs>
	<style>
		.s0 { fill: url(#g1) } 
	</style>
	<path class="s0" d="m229.36 151.37c2.1-0.31 3.61 1.94 2.56 3.77-11.99 20.85-30.53 37.77-52.97 48.22-13.77 6.42-29.79-2.53-31.63-17.61l-8.25-67.66-4.31-35.33h14.38c3.41 0 6.18-2.77 6.18-6.19 0-3.41-2.77-6.18-6.18-6.18h-15.89l-1.47-12.02c13.41-2.57 23.54-14.35 23.54-28.51 0-16.04-13-29.04-29.04-29.04-16.04 0-29.04 13-29.04 29.04 0 14.16 10.13 25.94 23.53 28.51l-1.46 12.02h-15.89c-3.41 0-6.18 2.77-6.18 6.18 0 3.42 2.77 6.19 6.18 6.19h14.38l-4.31 35.33-8.25 67.66c-1.84 15.08-17.86 24.03-31.63 17.61-22.45-10.45-40.99-27.37-52.97-48.22-1.06-1.83 0.46-4.08 2.55-3.77l29.9 4.4c-19.84-5.93-34.66-17.87-42.78-30.61-9.37 16.05-11.93 32.35-8.16 57.37l11.9-26.55c0.52-1.17 2.2-1.1 2.62 0.11 15.89 45.22 58.96 77.64 109.61 77.64 50.65 0 93.72-32.42 109.6-77.64 0.43-1.21 2.11-1.28 2.63-0.11l11.89 26.55c3.78-25.02 1.22-41.32-8.15-57.37-8.12 12.74-22.94 24.68-42.78 30.61zm-119.7-121.51c0-9.18 7.44-16.61 16.61-16.61 9.18 0 16.61 7.43 16.61 16.61 0 9.17-7.43 16.61-16.61 16.61-9.17 0-16.61-7.44-16.61-16.61z"/>
</svg>