<svg version="1.2" xmlns="http://www.w3.org/2000/svg" viewBox="0 0 311 53" width="311" height="53">
	<style>
		.s0 { fill: #ffffff } 
	</style>
	<path class="s0" d="m30.36 0.02q-5.55 0.26-10.48 2.72-4.76 2.37-8.24 6.43c-2.05 2.38-3.71 5.25-4.79 8.26-0.76 2.14-1.23 4.37-1.42 6.75l-0.01 0.12h1.29l1.29-0.01 0.02-0.21c0.05-0.72 0.23-1.92 0.4-2.7 0.62-2.96 1.79-5.76 3.45-8.25 0.17-0.25 0.41-0.6 0.53-0.77l0.23-0.31h3.71 3.72l-0.2 0.56c-0.42 1.27-0.79 2.63-1.09 3.99l-0.08 0.41 0.64 0.01c0.36 0 0.66 0 0.67-0.01 0-0.02 0.04-0.17 0.09-0.36 0.18-0.82 0.46-1.89 0.72-2.75 0.15-0.49 0.47-1.43 0.57-1.7l0.06-0.14 4.74-0.01h4.73v3.54 3.54h0.65 0.64v-3.54-3.54h4.74 4.74l0.03 0.07c0.06 0.15 0.36 1.01 0.49 1.45 0.3 0.92 0.68 2.36 0.86 3.19l0.05 0.26h0.65 0.66v-0.05c0-0.07-0.2-0.92-0.37-1.63-0.25-1.01-0.6-2.18-0.88-2.98l-0.11-0.31h3.71 3.72l0.23 0.31c1.09 1.51 2.05 3.23 2.75 4.96 0.85 2.12 1.42 4.45 1.62 6.65l0.03 0.32 1.29 0.01h1.29l-0.01-0.12c-0.41-5.16-2.24-9.92-5.4-14.02-1.85-2.4-4.23-4.55-6.83-6.18-1.29-0.81-2.79-1.57-4.22-2.14-3.08-1.23-6.4-1.86-9.77-1.84-0.4 0-0.9 0.01-1.11 0.02zm0.55 6.65v4.09h-4.48-4.48l0.03-0.08c0.14-0.33 0.47-1.02 0.7-1.48q1.37-2.71 3.11-4.48c0.63-0.64 1.12-1.06 1.73-1.46 0.51-0.35 0.71-0.46 0.88-0.48 0.62-0.09 1.73-0.18 2.36-0.2h0.15zm2.4-4.03c0.44 0.03 1.07 0.09 1.41 0.14 0.17 0.02 0.37 0.14 0.88 0.48 1.04 0.69 2.1 1.74 3.02 2.97 0.93 1.25 1.78 2.76 2.47 4.35l0.07 0.18h-4.47-4.49v-4.1-4.09l0.32 0.02c0.18 0 0.53 0.03 0.79 0.05zm-8.38 1.1c-1.67 1.71-3.15 4.04-4.27 6.77l-0.1 0.25h-3.44-3.45l0.06-0.07c0.03-0.03 0.2-0.22 0.37-0.4 0.17-0.2 0.51-0.55 0.76-0.8 2.77-2.78 6.18-4.81 9.94-5.93 0.23-0.07 0.42-0.13 0.43-0.13 0.01 0-0.13 0.14-0.3 0.31zm13.38-0.19c0.82 0.24 1.94 0.66 2.8 1.03 0.47 0.21 1.46 0.7 1.9 0.95 2.31 1.29 4.37 2.93 6.12 4.87 0.11 0.13 0.23 0.26 0.26 0.29l0.06 0.07h-3.45l-3.44-0.01-0.22-0.51c-1.12-2.66-2.57-4.91-4.22-6.56-0.14-0.14-0.24-0.25-0.21-0.24 0.02 0 0.2 0.06 0.4 0.11z"/>
	<path class="s0" d="m12.88 17.97q-0.42 0.06-0.78 0.35c-0.21 0.18-0.42 0.53-0.5 0.82-0.04 0.18-0.03 0.58 0.02 0.76 0.11 0.42 0.41 0.79 0.79 0.98 0.33 0.17 0.26 0.16 1.78 0.17l1.38 0.01v2.23 2.23l3.87 0.01 3.88 0.01-8.35 2.69c-4.59 1.48-8.37 2.69-8.38 2.69-0.02 0-0.03-0.27-0.02-1.29v-1.28l1.4-0.01 1.39-0.02 0.17-0.06c0.24-0.09 0.41-0.19 0.59-0.37 0.18-0.19 0.29-0.35 0.38-0.6 0.05-0.15 0.06-0.19 0.06-0.5 0-0.3-0.01-0.35-0.06-0.5-0.09-0.24-0.2-0.41-0.37-0.58-0.17-0.17-0.39-0.32-0.62-0.4l-0.15-0.05-4.01-0.01c-4.46 0-4.16-0.02-4.49 0.15q-0.6 0.3-0.81 0.95c-0.06 0.17-0.07 0.6-0.02 0.79 0.12 0.52 0.5 0.94 1.02 1.13 0.15 0.05 0.16 0.05 1.55 0.07l1.39 0.01 0.01 3.05 0.01 3.06 10.43-3.36c5.73-1.85 10.43-3.36 10.43-3.35 0.01 0 0.03 0.11 0.06 0.24 0.17 1 0.62 2.03 1.24 2.84 0.95 1.27 2.37 2.2 3.9 2.54 1.58 0.35 3.17 0.14 4.61-0.61 0.63-0.32 1.13-0.69 1.66-1.23 0.97-0.97 1.62-2.21 1.85-3.54 0.03-0.13 0.05-0.24 0.06-0.24 0-0.01 4.7 1.5 10.43 3.35l10.42 3.36 0.02-3.06 0.01-3.05 1.39-0.01c1.39-0.02 1.39-0.02 1.54-0.07q0.71-0.26 0.99-0.98c0.05-0.15 0.06-0.19 0.06-0.49 0-0.26-0.01-0.35-0.04-0.45q-0.27-0.78-1.05-1.05c-0.12-0.04-0.27-0.04-4.2-0.04h-4.06l-0.15 0.05c-0.23 0.09-0.46 0.23-0.62 0.4-0.18 0.18-0.28 0.34-0.37 0.58-0.05 0.15-0.06 0.2-0.06 0.49 0 0.27 0.01 0.35 0.05 0.48q0.11 0.35 0.39 0.63c0.18 0.18 0.35 0.28 0.59 0.37l0.17 0.06 1.39 0.02 1.4 0.01v1.28c0.01 1.02 0 1.29-0.02 1.29-0.02 0-3.79-1.21-8.38-2.69l-8.35-2.69 3.88-0.01 3.87-0.01v-2.23-2.23l1.38-0.01c1.52-0.01 1.45 0 1.78-0.17 0.39-0.2 0.7-0.59 0.8-1.02 0.04-0.17 0.04-0.55 0-0.72-0.07-0.29-0.28-0.64-0.49-0.82q-0.25-0.2-0.56-0.3l-0.18-0.06h-4.02-4.02l-0.19 0.06c-0.56 0.19-0.95 0.63-1.06 1.19-0.15 0.78 0.31 1.53 1.1 1.79 0.11 0.04 0.25 0.04 1.5 0.05l1.38 0.01v0.94 0.94h-3.94-3.93l-0.21-0.27c-1.13-1.46-2.78-2.38-4.64-2.59-0.35-0.03-1.11-0.03-1.47 0.02-1.85 0.22-3.51 1.18-4.62 2.66l-0.13 0.18h-3.94-3.94v-0.94-0.94l1.38-0.01c1.54-0.01 1.45 0 1.81-0.19 0.27-0.14 0.5-0.37 0.64-0.66 0.22-0.45 0.23-0.92 0.03-1.35q-0.29-0.61-0.95-0.83l-0.18-0.06-3.94-0.01c-2.17 0-3.99 0.01-4.06 0.02z"/>
	<path class="s0" d="m18.63 30.72c-0.33 0.11-0.61 0.2-0.61 0.21-0.01 0 0.05 0.57 0.13 1.23 0.42 3.34 1.23 6.54 2.35 9.35l0.05 0.12h-3.45-3.45l-0.29-0.35c-1.77-2.14-3.19-4.64-4.08-7.18-0.05-0.15-0.1-0.28-0.11-0.3-0.02-0.03-2.45 0.75-2.45 0.79 0 0.02 0.07 0.22 0.15 0.45q1.75 4.85 5.22 8.72c0.42 0.46 1.45 1.49 1.9 1.9 1.44 1.29 2.91 2.35 4.55 3.3 3.12 1.8 6.64 2.93 10.24 3.31 1.02 0.11 1.47 0.13 2.78 0.13 1.31 0 1.76-0.02 2.78-0.13 6.75-0.71 12.98-4.04 17.35-9.28 1.77-2.12 3.21-4.53 4.22-7.08 0.2-0.5 0.49-1.27 0.49-1.32 0-0.02-0.44-0.17-1.21-0.41-0.66-0.22-1.21-0.39-1.22-0.4-0.01 0-0.07 0.16-0.14 0.35-0.89 2.54-2.29 5-4.07 7.15l-0.29 0.35h-3.45-3.45l0.05-0.12c1.18-2.93 2.03-6.44 2.43-10.04 0.03-0.3 0.06-0.54 0.05-0.54-0.01-0.02-1.16-0.38-1.2-0.39q-0.05-0.02-0.06 0.07c-0.02 0.3-0.15 1.43-0.22 1.91-0.44 3.12-1.17 5.95-2.23 8.58l-0.21 0.53h-4.49-4.49v-3.59-3.59h-0.64-0.65v3.59 3.59h-4.49-4.48l-0.24-0.59c-0.98-2.46-1.68-5.09-2.13-8.04-0.09-0.6-0.23-1.66-0.27-2.13-0.02-0.17-0.03-0.32-0.04-0.33-0.01-0.01-0.29 0.07-0.63 0.18zm2.69 12.64c0.7 1.5 1.73 3.13 2.72 4.32 0.3 0.35 0.82 0.93 1.05 1.15 0.09 0.08 0.15 0.15 0.14 0.15-0.01 0-0.09-0.02-0.18-0.05-1.5-0.44-2.77-0.93-4.13-1.63q-2.65-1.33-4.9-3.29c-0.24-0.21-1.09-1-1.14-1.06-0.03-0.03 0.31-0.03 3.1-0.03h3.13zm9.6 3.01v3.46h-0.12c-0.36 0-1.43-0.09-2.12-0.17l-0.42-0.05-0.33-0.2c-1.98-1.19-3.85-3.4-5.28-6.26l-0.12-0.23h4.19 4.2zm9.47-3.06c-1.39 2.68-3.02 4.66-4.82 5.86-0.46 0.31-0.68 0.43-0.82 0.45-0.59 0.08-1.54 0.16-2.18 0.19l-0.36 0.02v-3.46-3.46h4.19 4.2zm7.67-0.19c-0.4 0.38-0.79 0.74-1.1 1-2.35 2.01-5.02 3.53-7.92 4.49-0.5 0.17-1.14 0.36-1.15 0.35q-0.01-0.02 0.04-0.05c0.09-0.06 0.8-0.82 1.11-1.19 0.77-0.92 1.56-2.09 2.21-3.28 0.2-0.36 0.75-1.48 0.75-1.51q-0.01-0.03 3.14-0.03l3.14 0.01z"/>
	<path class="s0" d="m251.28 16.27c-1.73 2.04-2.9 4.67-3.38 7.61-0.13 0.76-0.17 3.1-0.08 3.95 0.18 1.78 0.72 3.63 1.52 5.25 0.66 1.34 1.62 2.77 2.29 3.42l0.2 0.18 1.54-0.01 1.53-0.02-0.39-0.49c-2.26-2.87-3.52-6.77-3.39-10.48 0.13-3.62 1.4-7.03 3.64-9.78l0.15-0.18h-1.57-1.58z"/>
	<path class="s0" d="m303.58 16.13c0.83 0.98 1.74 2.57 2.3 3.99 1.18 3.01 1.47 6.12 0.85 9.25-0.48 2.44-1.66 5.03-3.11 6.83l-0.39 0.48h1.58 1.58l0.44-0.51c1.79-2.05 3.02-4.86 3.47-7.87 0.15-1.05 0.14-3.29-0.03-4.38-0.47-3.06-1.76-5.88-3.58-7.88l-0.3-0.32h-1.58-1.58z"/>
	<path class="s0" d="m158.37 16.18c-1.58 0.19-3.05 0.73-4.3 1.57-0.7 0.48-1.75 1.53-2.21 2.22-0.65 0.99-1.13 2.14-1.37 3.32-0.15 0.74-0.15 3 0 3.74 0.66 3.26 2.89 5.75 6.04 6.74 2.47 0.79 5.28 0.59 7.46-0.52 2.46-1.26 4.1-3.42 4.69-6.16 0.12-0.59 0.22-2.23 0.14-2.53l-0.03-0.15h-4.46-4.47v1.5 1.5h2.1 2.11l-0.11 0.22c-0.5 0.98-1.6 1.82-2.8 2.14-0.63 0.18-1.89 0.19-2.48 0.03-1.51-0.4-2.58-1.41-3.07-2.88-0.46-1.39-0.37-2.78 0.26-4.06 0.23-0.46 0.35-0.63 0.79-1.07 0.82-0.82 1.61-1.16 2.83-1.22 0.7-0.03 1.28 0.06 1.84 0.29 0.71 0.29 1.44 0.9 1.78 1.49l0.16 0.28h2.65 2.65l-0.04-0.19c-0.02-0.1-0.14-0.45-0.27-0.76-0.37-0.94-0.81-1.67-1.49-2.48-1.22-1.46-3.16-2.53-5.24-2.91-0.76-0.14-2.46-0.2-3.16-0.11z"/>
	<path class="s0" d="m187.69 16.18c-1.87 0.21-3.64 0.96-5.03 2.11-1.43 1.19-2.45 2.93-2.87 4.89-0.15 0.74-0.21 2.3-0.12 3.13 0.24 2.03 1.12 3.87 2.51 5.27q1.84 1.84 4.7 2.46c0.53 0.12 0.77 0.13 2.04 0.13 1.28 0 1.52-0.01 2.09-0.13 1.91-0.38 3.46-1.2 4.74-2.48 1.5-1.5 2.3-3.22 2.54-5.43 0.08-0.71 0.03-2-0.09-2.72-0.64-3.55-3.25-6.23-6.83-7.03-1.16-0.25-2.54-0.33-3.68-0.2zm2.4 4.72c1.81 0.42 3.04 1.93 3.21 3.95 0.08 0.86-0.18 1.97-0.61 2.71-0.31 0.53-1.04 1.22-1.58 1.5-0.75 0.39-1.24 0.5-2.16 0.5-0.63 0-0.86-0.02-1.24-0.13-1.46-0.42-2.5-1.49-2.92-3-0.1-0.35-0.12-0.6-0.12-1.27 0-0.74 0.02-0.89 0.16-1.35 0.24-0.8 0.51-1.26 1.07-1.82 1.08-1.09 2.54-1.47 4.19-1.09z"/>
	<path class="s0" d="m81.47 25.19v8.73h2.28 2.27v-4.96-4.95h0.39c0.22 0 0.42 0.02 0.45 0.06 0.03 0.03 1.07 2.25 2.3 4.95l2.25 4.9h2.95 2.95v-8.73-8.73h-2.27-2.28v4.96 4.96l-0.44-0.02-0.44-0.02-2.34-4.93-2.34-4.94-2.86-0.01h-2.87z"/>
	<path class="s0" d="m99.61 25.19v8.73h5.71 5.7v-1.99-1.99h-3.23-3.22v-1.67-1.67h2.99 3v-1.73-1.73h-3-2.99v-1.35-1.35h3.14 3.13v-1.99-1.99h-5.61-5.62z"/>
	<path class="s0" d="m113.51 20.6l1.39 4.13-1.49 4.52c-0.81 2.49-1.5 4.56-1.51 4.59-0.02 0.06 0.53 0.08 2.64 0.08h2.68l1-3.6 0.99-3.6h0.74 0.73l0.99 3.6 1 3.6h2.68c2.11 0 2.67-0.02 2.65-0.08-0.02-0.03-0.72-2.11-1.57-4.6l-1.53-4.52 1.43-4.13 1.43-4.13h-2.68-2.69l-0.71 2.64c-0.4 1.45-0.79 2.91-0.89 3.25l-0.17 0.62h-0.67-0.68l-0.17-0.62c-0.09-0.34-0.49-1.8-0.89-3.25l-0.71-2.64h-2.69-2.69z"/>
	<path class="s0" d="m132.51 16.68c-0.03 0.12-0.93 3.99-1.99 8.6-1.07 4.6-1.95 8.43-1.97 8.51l-0.03 0.13 2.55-0.02 2.55-0.01 0.35-1.89 0.34-1.89h2.26 2.25l0.34 1.89 0.35 1.89 2.55 0.01 2.55 0.02-0.03-0.12c-0.01-0.07-0.92-4-2.01-8.73l-1.97-8.61h-4.02-4.01zm4.63 4.29c0.02 0.08 0.24 1.28 0.49 2.67 0.25 1.4 0.47 2.59 0.49 2.66l0.03 0.13h-1.59-1.58l0.03-0.13c0.02-0.07 0.24-1.26 0.49-2.66 0.25-1.39 0.47-2.59 0.49-2.67 0.03-0.12 0.06-0.12 0.57-0.12 0.52 0 0.55 0 0.58 0.12z"/>
	<path class="s0" d="m170.69 25.19v8.73h4.24 4.23v-1.99-1.99h-1.76-1.75v-6.74-6.74h-2.48-2.48z"/>
	<path class="s0" d="m200.13 25.19v8.73h4.36c2.67 0 4.55-0.03 4.85-0.06 2.45-0.31 4.17-1.67 4.79-3.8 0.19-0.67 0.22-2.1 0.06-2.77-0.29-1.22-1-2.22-1.98-2.8l-0.36-0.21 0.38-0.39c0.29-0.29 0.45-0.53 0.65-0.92 0.36-0.72 0.46-1.22 0.41-2.04-0.04-0.83-0.14-1.26-0.47-1.93-0.51-1.03-1.55-1.87-2.76-2.25-0.88-0.27-1.22-0.29-5.71-0.29h-4.22zm7.74-4.67c0.72 0.22 1.09 0.91 0.9 1.71-0.06 0.23-0.14 0.37-0.34 0.57-0.41 0.42-0.61 0.46-2.27 0.46h-1.37v-1.41-1.41h1.4c1.05 0 1.48 0.02 1.68 0.08zm0.45 5.92c0.63 0.14 1.03 0.43 1.27 0.94 0.1 0.23 0.13 0.39 0.13 0.78 0 0.62-0.16 0.99-0.56 1.35-0.48 0.44-0.58 0.46-2.59 0.48l-1.78 0.02v-1.82-1.82h1.62c0.96 0 1.72 0.03 1.91 0.07z"/>
	<path class="s0" d="m218.74 16.68c-0.04 0.12-0.93 3.99-2 8.6-1.06 4.6-1.94 8.43-1.97 8.51l-0.02 0.13 2.55-0.02 2.55-0.01 0.34-1.89 0.35-1.89h2.25 2.25l0.35 1.89 0.35 1.89 2.55 0.01 2.55 0.02-0.03-0.12c-0.02-0.07-0.92-4-2.01-8.73l-1.97-8.61h-4.02-4.02zm4.64 4.29c0.01 0.08 0.23 1.28 0.48 2.67 0.26 1.4 0.48 2.59 0.49 2.66l0.03 0.13h-1.58-1.58l0.02-0.13c0.02-0.07 0.24-1.26 0.49-2.66 0.26-1.39 0.48-2.59 0.49-2.67 0.03-0.12 0.06-0.12 0.58-0.12 0.52 0 0.55 0 0.58 0.12z"/>
	<path class="s0" d="m232.27 25.19v8.73h4.23 4.24v-1.99-1.99h-1.76-1.76v-6.74-6.74h-2.47-2.48z"/>
	<path class="s0" d="m258.83 16.68c-0.04 0.12-0.93 3.99-2 8.6-1.06 4.6-1.94 8.43-1.96 8.51l-0.03 0.13 2.55-0.02 2.55-0.01 0.35-1.89 0.34-1.89h2.25 2.26l0.34 1.89 0.35 1.89 2.55 0.01 2.55 0.02-0.03-0.12c-0.02-0.07-0.92-4-2.01-8.73l-1.97-8.61h-4.02-4.01zm4.63 4.29c0.01 0.08 0.23 1.28 0.49 2.67 0.25 1.4 0.47 2.59 0.49 2.66l0.02 0.13h-1.58-1.58l0.02-0.13c0.02-0.07 0.24-1.26 0.49-2.66 0.26-1.39 0.48-2.59 0.49-2.67 0.03-0.12 0.06-0.12 0.58-0.12 0.52 0 0.55 0 0.58 0.12z"/>
	<path class="s0" d="m272.41 25.19v8.73l3.82-0.02c3.59-0.02 3.86-0.03 4.51-0.15 1.98-0.35 3.51-1.07 4.75-2.24 2.14-2.01 3.01-5.35 2.27-8.66-0.66-2.98-2.86-5.19-5.99-6.01-1.27-0.32-1.36-0.33-5.51-0.36l-3.85-0.02zm7.58-4.18c0.78 0.2 1.37 0.53 1.87 1.03 0.5 0.5 0.73 0.9 0.96 1.65 0.14 0.47 0.15 0.6 0.15 1.47 0 0.87-0.01 1-0.15 1.47-0.39 1.27-1.2 2.13-2.38 2.52-0.67 0.22-1.08 0.27-2.22 0.27h-1.03v-4.3-4.3l1.17 0.04c0.94 0.02 1.26 0.05 1.63 0.15z"/>
	<path class="s0" d="m293.8 16.53c-1.09 0.13-2.14 0.58-2.93 1.24-0.63 0.53-1.23 1.5-1.48 2.41-0.17 0.67-0.18 2.1 0 2.76 0.49 1.82 1.74 3.03 3.65 3.53 0.48 0.13 0.7 0.15 2.1 0.19 1.72 0.04 1.97 0.09 2.4 0.42 0.47 0.36 0.67 1.04 0.48 1.68-0.14 0.47-0.52 0.84-1.04 1.01-0.4 0.14-0.44 0.14-3.96 0.16l-3.56 0.02v1.98 1.99h4.14c2.51 0 4.33-0.03 4.62-0.06 1.62-0.2 3.07-0.96 3.9-2.05 0.39-0.5 0.78-1.29 0.95-1.93 0.18-0.67 0.19-2.27 0.02-2.93-0.53-2.11-2.06-3.51-4.32-3.95-0.3-0.06-0.97-0.11-1.91-0.14-1.34-0.04-1.45-0.05-1.71-0.17-0.5-0.25-0.74-0.72-0.62-1.26 0.09-0.39 0.31-0.65 0.71-0.83l0.3-0.13 3.47-0.02 3.47-0.02v-1.99-1.98l-4.16 0.01c-2.29 0-4.32 0.03-4.52 0.06z"/>
</svg>