<svg version="1.2" xmlns="http://www.w3.org/2000/svg" viewBox="0 0 1835 371" width="1835" height="371">
	<style>
		.s0 { fill: #ffffff } 
	</style>
	<g>
		<path class="s0" d="m135.01 155.61v0.07h1.22v-0.07z"/>
		<path class="s0" d="m398.72 244.49l-17.3-5.57c-6.99 20.56-17.78 39.35-31.69 55.43h-48.77c8.81-21.84 15.12-47.56 17.91-75.58l-8.82-2.84c-2.79 29.44-9.43 56.24-18.86 78.42h-63.44v-50.74c-1.49 0.13-2.98 0.2-4.54 0.2-1.56 0-3.05-0.07-4.55-0.2v50.74h-63.43c-9.5-22.25-16.15-49.05-18.86-78.42l-8.82 2.84c2.78 28.02 9.09 53.8 17.91 75.58h-48.78c-13.9-16.08-24.69-34.87-31.68-55.43l-17.3 5.57c9.23 27.34 24.63 51.9 44.64 71.84 33.51 33.52 79.85 54.28 131 54.28 51.16 0 97.43-20.76 131.01-54.28 19.74-19.94 35.14-44.5 44.37-71.84zm-293.69 59.02q0-0.1 0 0l44.23-0.07c1.36 2.92 2.78 5.84 4.21 8.55 7.32 13.84 15.8 25.51 25.23 34.4-28.29-7.74-53.52-22.73-73.67-42.88zm113.57 48.85c-6.38-0.21-12.62-0.68-18.8-1.56-14.58-7.87-27.68-22.87-38.26-42.95-0.75-1.42-1.49-2.92-2.17-4.34h59.29v48.85zm27.89-1.56c-6.18 0.88-12.42 1.42-18.8 1.56v-48.92h59.3c-0.75 1.49-1.43 2.92-2.17 4.34-10.65 20.09-23.75 35.15-38.33 43.02zm94.77-47.29c-20.15 20.15-45.45 35.14-73.67 42.94 9.43-8.88 17.91-20.55 25.23-34.39 1.43-2.78 2.85-5.63 4.21-8.55h44.23q0-0.1 0 0z"/>
		<path class="s0" d="m38.39 171.89h18.25c2.58-32.36 14.38-62.07 32.77-86.63h52.51c-3.87 10.92-7.19 22.66-9.7 35.07h9.29c2.65-12.48 6.04-24.29 10.11-35.07h67.03v50.13c1.49-0.13 3.05-0.2 4.54-0.2 1.5 0 3.06 0.07 4.55 0.2v-50.13h67.03c4.07 10.85 7.46 22.59 10.11 35.07h9.29c-2.58-12.41-5.83-24.22-9.7-35.07h52.51c18.38 24.56 30.19 54.27 32.77 86.63h18.25c-3.26-45.79-23.21-86.97-53.74-117.5-33.51-33.51-79.84-54.27-131-54.27-51.15 0-97.42 20.76-131 54.27-30.67 30.53-50.61 71.71-53.87 117.5zm302.85-104.68c2.85 2.85 5.63 5.9 8.34 8.96h-48.71c-2.51-6.18-5.15-12.01-8.07-17.51-7.33-13.84-15.81-25.51-25.24-34.39 28.29 7.8 53.53 22.86 73.68 42.94zm-113.57-48.84c6.38 0.2 12.62 0.67 18.79 1.56 14.59 7.87 27.75 22.86 38.33 43.01 2.24 4.2 4.35 8.61 6.31 13.29h-63.36v-57.86zm-27.88 1.56c6.17-0.89 12.41-1.43 18.79-1.56v57.8h-63.37c1.97-4.62 4.07-9.09 6.31-13.3 10.59-20.01 23.68-35.07 38.27-42.94zm-94.78 47.28c20.15-20.15 45.46-35.14 73.68-42.94-9.43 8.88-17.91 20.55-25.24 34.39-2.92 5.5-5.56 11.33-8.07 17.51h-48.71c2.71-3.06 5.42-6.04 8.34-8.96z"/>
		<path fill-rule="evenodd" class="s0" d="m435.27 178.54h-52.91c-6.04 0-10.99 4.95-10.99 10.92 0 6.04 4.95 10.93 10.99 10.93h17.37v18.31l-118.86-38.33h55.22v-31.54h17.37c6.04 0 10.92-4.95 10.92-10.99 0-6.04-4.95-10.93-10.92-10.93h-52.92c-6.04 0-10.99 4.96-10.99 10.93 0 6.04 4.95 10.99 10.99 10.99h17.37v13.36h-55.7c-8.62-12.34-22.93-20.42-39.08-20.42-16.14 0-30.46 8.08-39.07 20.42h-55.7v-13.36h17.37c6.03 0 10.99-4.95 10.99-10.99 0-6.04-4.96-10.93-10.99-10.93h-52.92c-6.04 0-10.92 4.96-10.92 10.93 0 6.04 4.95 10.99 10.92 10.99h17.37v31.54h55.22l-118.86 38.33v-18.31h17.37c6.04 0 10.99-4.95 10.99-10.93 0-6.03-4.95-10.92-10.99-10.92h-52.92c-6.04 0-10.99 4.95-10.99 10.92 0 6.04 4.95 10.93 10.99 10.93h17.37v43.21l147.62-47.55c3.26 23.13 23.2 41.04 47.15 41.04 24.02 0 43.96-17.91 47.15-41.04l147.63 47.55v-43.21h17.37c6.03 0 10.92-4.95 10.92-10.93 0.07-5.97-4.89-10.92-10.92-10.92z"/>
		<path class="s0" d="m528.88 254.36h-33.13v-171.36h48.89l57.12 119.04h9.14v-119.04h33.13v171.36h-49.8l-56.21-119.04h-9.14zm258.74-41.12c-6.17 27.41-30.39 44.55-58.49 44.55-35.64 0-61.92-26.73-61.92-62.83 0-34.05 26.73-61.24 61.46-61.24 39.53 0 60.55 32.68 60.55 66.26h-93.45c2.28 18.97 15.31 30.39 33.36 30.39 12.57 0 24.67-6.4 29.47-17.13zm-58.72-53.24c-15.08 0-26.96 8.22-31.3 21.7h60.32c-3.66-13.48-13.94-21.7-29.02-21.7zm146.33 94.36l-21.25-48.67h-9.37l-19.65 48.67h-34.27l27.87-61-26.27-56.44h34.04l18.28 44.33h9.14l18.74-44.33h34.04l-26.5 55.75 29.47 61.69zm129.53 0v-19.65c-8.9 14.63-23.07 23.08-39.29 23.08-30.39 0-54.38-26.5-54.38-62.38 0-35.18 23.99-61.69 54.38-61.69 16.22 0 30.39 8.46 39.29 22.85v-19.65h31.76v117.44zm-61.68-58.95c0 19.42 13.48 32.91 30.16 32.91 14.16 0 26.04-8.92 31.52-19.43v-26.5c-5.7-10.51-17.36-19.42-31.52-19.42-16.68 0-30.16 13.48-30.16 32.44zm341.24-24.9c0 49.35-39.07 87.28-88.42 87.28-52.78 0-90.71-38.61-90.71-89.11 0-50.49 37.47-88.88 89.57-88.88 40.9 0 75.62 24.22 86.82 63.29h-37.7c-7.31-18.05-25.59-31.3-48.44-31.3-31.98 0-54.37 23.99-54.37 57.12 0 32.67 22.61 57.35 55.52 57.35 26.27 0 46.15-15.31 53.46-37.47h-48.21v-25.82h82.03c0.22 0.91 0.45 6.17 0.45 7.54zm53.34 83.85h-32.67v-171.36h32.67zm150.56-58.95c0 35.42-26.73 62.38-64.66 62.38-37.93 0-64.66-26.96-64.66-62.38 0-34.72 26.73-61.69 64.66-61.69 37.93 0 64.66 26.97 64.66 61.69zm-98.48 0c0 18.97 14.17 33.36 33.82 33.36 19.65 0 33.81-14.39 33.81-33.36 0-18.27-14.16-32.67-33.81-32.67-19.65 0-33.82 14.4-33.82 32.67zm244.83 0c0 35.88-24.22 62.38-54.61 62.38-16.22 0-30.38-8.68-39.29-23.31v19.88h-31.76v-171.36h31.76v73.57c9.14-14.39 23.3-22.85 39.29-22.85 30.39 0 54.61 26.51 54.61 61.69zm-62.37-32.44c-14.17 0-26.05 9.14-31.53 19.88v25.82c5.71 10.73 17.36 19.65 31.53 19.65 16.9 0 30.38-13.49 30.38-32.91 0-18.96-13.48-32.44-30.38-32.44zm173.56 91.39v-19.65c-8.91 14.63-23.08 23.08-39.3 23.08-30.39 0-54.38-26.5-54.38-62.38 0-35.18 23.99-61.69 54.38-61.69 16.22 0 30.39 8.46 39.3 22.85v-19.65h31.76v117.44zm-61.69-58.95c0 19.42 13.48 32.91 30.16 32.91 14.17 0 26.05-8.92 31.53-19.43v-26.5c-5.71-10.51-17.36-19.42-31.53-19.42-16.68 0-30.16 13.48-30.16 32.44zm150.49 58.95h-32.67v-171.36h32.67z"/>
	</g>
</svg>