<svg width="36" height="30" viewBox="0 0 36 30" fill="none" xmlns="http://www.w3.org/2000/svg">
<path d="M10.7559 12.3848V12.3902H10.8531V12.3848H10.7559Z" fill="white"/>
<path d="M31.7615 19.4646L30.3835 19.0214C29.8269 20.6589 28.9676 22.1558 27.8598 23.4366H23.9742C24.6768 21.6965 25.1793 19.6483 25.4009 17.4164L24.6984 17.1895C24.4768 19.5348 23.9472 21.6694 23.1961 23.4366H18.1432V19.3943C18.0243 19.4051 17.9054 19.4105 17.7812 19.4105C17.6569 19.4105 17.538 19.4051 17.4191 19.3943V23.4366H12.3663C11.6097 21.664 11.0801 19.5294 10.8639 17.1895L10.1614 17.4164C10.383 19.6483 10.8855 21.7019 11.5881 23.4366H7.70253C6.59469 22.1558 5.73544 20.6589 5.17882 19.0214L3.80078 19.4646C4.53574 21.6424 5.76247 23.5987 7.35667 25.1875C10.0263 27.8571 13.7173 29.5108 17.792 29.5108C21.8666 29.5108 25.5522 27.8571 28.2273 25.1875C29.7998 23.5987 31.0266 21.6424 31.7615 19.4646ZM8.36723 24.1661C8.36723 24.1607 8.36723 24.1607 8.36723 24.1661L11.8907 24.1607C11.9988 24.3931 12.1123 24.6255 12.2258 24.8416C12.8094 25.9441 13.4849 26.8736 14.2361 27.5815C11.9826 26.9654 9.97225 25.7711 8.36723 24.1661ZM17.4137 28.0571C16.9057 28.0409 16.4085 28.003 15.9167 27.9328C14.7549 27.3059 13.7119 26.1116 12.8688 24.512C12.8094 24.3985 12.7499 24.2796 12.6959 24.1661H17.4191V28.0571H17.4137ZM19.6348 27.9328C19.143 28.003 18.6458 28.0463 18.1378 28.0571V24.1607H22.861C22.8015 24.2796 22.7475 24.3931 22.6881 24.5066C21.8396 26.1062 20.7966 27.3059 19.6348 27.9328ZM27.1843 24.1661C25.5793 25.7711 23.5635 26.9654 21.3154 27.5869C22.0666 26.879 22.7421 25.9495 23.3257 24.847C23.4392 24.6255 23.5527 24.3985 23.6608 24.1661H27.1843C27.1843 24.1607 27.1843 24.1607 27.1843 24.1661Z" fill="white"/>
<path d="M3.06055 13.6831H4.51425C4.7196 11.1054 5.65991 8.73841 7.12442 6.78213H11.3072C10.9991 7.65219 10.7344 8.5871 10.5344 9.57604H11.2748C11.4855 8.58169 11.7557 7.64138 12.08 6.78213H17.4192V10.7758C17.5381 10.7649 17.6624 10.7595 17.7813 10.7595C17.9002 10.7595 18.0245 10.7649 18.1434 10.7758V6.78213H23.4826C23.8068 7.64678 24.077 8.58169 24.2878 9.57604H25.0282C24.8228 8.5871 24.5634 7.64678 24.2554 6.78213H28.4381C29.9026 8.73841 30.843 11.1054 31.0483 13.6831H32.502C32.2426 10.0354 30.6538 6.75511 28.222 4.32327C25.5524 1.65365 21.8614 0 17.7867 0C13.712 0 10.0264 1.65365 7.35139 4.32327C4.90874 6.75511 3.31994 10.0354 3.06055 13.6831ZM27.1844 5.34464C27.4114 5.57161 27.6329 5.8148 27.8491 6.05798H23.969C23.769 5.56621 23.5582 5.10146 23.3259 4.66373C22.7422 3.56129 22.0667 2.63179 21.3156 1.92385C23.5691 2.54532 25.5794 3.74503 27.1844 5.34464ZM18.1379 1.4537C18.6459 1.46991 19.1431 1.50774 19.6349 1.57799C20.7968 2.20487 21.8452 3.39917 22.6882 5.00418C22.8665 5.33924 23.0341 5.6905 23.1908 6.06339H18.1434V1.4537H18.1379ZM15.9169 1.57799C16.4086 1.50774 16.9058 1.46451 17.4138 1.4537V6.05798H12.3664C12.5231 5.6905 12.6906 5.33383 12.869 4.99878C13.712 3.40457 14.755 2.20487 15.9169 1.57799ZM8.36736 5.34464C9.97237 3.73963 11.9881 2.54532 14.2362 1.92385C13.485 2.63179 12.8095 3.56129 12.2259 4.66373C11.9935 5.10146 11.7827 5.56621 11.5828 6.05798H7.70266C7.91882 5.8148 8.13498 5.57702 8.36736 5.34464Z" fill="white"/>
<path fill-rule="evenodd" clip-rule="evenodd" d="M34.6726 14.2121H30.4574C29.9765 14.2121 29.582 14.6066 29.582 15.0822C29.582 15.5631 29.9765 15.9522 30.4574 15.9522H31.8409V17.4113L22.3729 14.358H26.7718V11.8451H28.1553C28.6363 11.8451 29.0254 11.4506 29.0254 10.9697C29.0254 10.4887 28.6309 10.0996 28.1553 10.0996H23.9401C23.4591 10.0996 23.0646 10.4941 23.0646 10.9697C23.0646 11.4506 23.4591 11.8451 23.9401 11.8451H25.3236V12.9097H20.8868C20.2005 11.9262 19.0602 11.2831 17.774 11.2831C16.4879 11.2831 15.3476 11.9262 14.6613 12.9097H10.2245V11.8451H11.608C12.0889 11.8451 12.4834 11.4506 12.4834 10.9697C12.4834 10.4887 12.0889 10.0996 11.608 10.0996H7.39279C6.91183 10.0996 6.52273 10.4941 6.52273 10.9697C6.52273 11.4506 6.91723 11.8451 7.39279 11.8451H8.77624V14.358H13.1752L3.7072 17.4113V15.9522H5.09065C5.57161 15.9522 5.96611 15.5577 5.96611 15.0822C5.96611 14.6012 5.57161 14.2121 5.09065 14.2121H0.875461C0.394497 14.2121 0 14.6066 0 15.0822C0 15.5631 0.394497 15.9522 0.875461 15.9522H2.25891V19.3946L14.0182 15.6064C14.2776 17.4492 15.8664 18.8758 17.774 18.8758C19.6871 18.8758 21.2759 17.4492 21.5299 15.6064L33.2892 19.3946V15.9522H34.6726C35.1536 15.9522 35.5427 15.5577 35.5427 15.0822C35.5481 14.6066 35.1536 14.2121 34.6726 14.2121Z" fill="white"/>
</svg>
